<?xml version="1.0" encoding="utf-8" standalone="no"?>
<!DOCTYPE svg PUBLIC "-//W3C//DTD SVG 1.1//EN"
  "http://www.w3.org/Graphics/SVG/1.1/DTD/svg11.dtd">
<svg xmlns:xlink="http://www.w3.org/1999/xlink" width="720pt" height="432pt" viewBox="0 0 720 432" xmlns="http://www.w3.org/2000/svg" version="1.1">
 <metadata>
  <rdf:RDF xmlns:dc="http://purl.org/dc/elements/1.1/" xmlns:cc="http://creativecommons.org/ns#" xmlns:rdf="http://www.w3.org/1999/02/22-rdf-syntax-ns#">
   <cc:Work>
    <dc:type rdf:resource="http://purl.org/dc/dcmitype/StillImage"/>
    <dc:date>2024-01-19T18:12:42.017243</dc:date>
    <dc:format>image/svg+xml</dc:format>
    <dc:creator>
     <cc:Agent>
      <dc:title>Matplotlib v3.8.2, https://matplotlib.org/</dc:title>
     </cc:Agent>
    </dc:creator>
   </cc:Work>
  </rdf:RDF>
 </metadata>
 <defs>
  <style type="text/css">*{stroke-linejoin: round; stroke-linecap: butt}</style>
 </defs>
 <g id="figure_1">
  <g id="patch_1">
   <path d="M 0 432 
L 720 432 
L 720 0 
L 0 0 
z
"/>
  </g>
  <g id="axes_1">
   <g id="patch_2">
    <path d="M 90 384.48 
L 648 384.48 
L 648 51.84 
L 90 51.84 
z
"/>
   </g>
   <g id="matplotlib.axis_1">
    <g id="xtick_1">
     <g id="line2d_1">
      <path d="M 115.363636 384.48 
L 115.363636 51.84 
" clip-path="url(#pae11f8cba3)" style="fill: none; stroke: #ffffff; stroke-width: 0.8; stroke-linecap: square"/>
     </g>
     <g id="line2d_2">
      <defs>
       <path id="me7bc7bcc69" d="M 0 0 
L 0 3.5 
" style="stroke: #ffffff; stroke-width: 0.8"/>
      </defs>
      <g>
       <use xlink:href="#me7bc7bcc69" x="115.363636" y="384.48" style="fill: #ffffff; stroke: #ffffff; stroke-width: 0.8"/>
      </g>
     </g>
     <g id="text_1">
      <!-- 55912 -->
      <g style="fill: #ffffff" transform="translate(106.067392 419.347741) rotate(-45) scale(0.1 -0.1)">
       <defs>
        <path id="DejaVuSans-35" d="M 691 4666 
L 3169 4666 
L 3169 4134 
L 1269 4134 
L 1269 2991 
Q 1406 3038 1543 3061 
Q 1681 3084 1819 3084 
Q 2600 3084 3056 2656 
Q 3513 2228 3513 1497 
Q 3513 744 3044 326 
Q 2575 -91 1722 -91 
Q 1428 -91 1123 -41 
Q 819 9 494 109 
L 494 744 
Q 775 591 1075 516 
Q 1375 441 1709 441 
Q 2250 441 2565 725 
Q 2881 1009 2881 1497 
Q 2881 1984 2565 2268 
Q 2250 2553 1709 2553 
Q 1456 2553 1204 2497 
Q 953 2441 691 2322 
L 691 4666 
z
" transform="scale(0.015625)"/>
        <path id="DejaVuSans-39" d="M 703 97 
L 703 672 
Q 941 559 1184 500 
Q 1428 441 1663 441 
Q 2288 441 2617 861 
Q 2947 1281 2994 2138 
Q 2813 1869 2534 1725 
Q 2256 1581 1919 1581 
Q 1219 1581 811 2004 
Q 403 2428 403 3163 
Q 403 3881 828 4315 
Q 1253 4750 1959 4750 
Q 2769 4750 3195 4129 
Q 3622 3509 3622 2328 
Q 3622 1225 3098 567 
Q 2575 -91 1691 -91 
Q 1453 -91 1209 -44 
Q 966 3 703 97 
z
M 1959 2075 
Q 2384 2075 2632 2365 
Q 2881 2656 2881 3163 
Q 2881 3666 2632 3958 
Q 2384 4250 1959 4250 
Q 1534 4250 1286 3958 
Q 1038 3666 1038 3163 
Q 1038 2656 1286 2365 
Q 1534 2075 1959 2075 
z
" transform="scale(0.015625)"/>
        <path id="DejaVuSans-31" d="M 794 531 
L 1825 531 
L 1825 4091 
L 703 3866 
L 703 4441 
L 1819 4666 
L 2450 4666 
L 2450 531 
L 3481 531 
L 3481 0 
L 794 0 
L 794 531 
z
" transform="scale(0.015625)"/>
        <path id="DejaVuSans-32" d="M 1228 531 
L 3431 531 
L 3431 0 
L 469 0 
L 469 531 
Q 828 903 1448 1529 
Q 2069 2156 2228 2338 
Q 2531 2678 2651 2914 
Q 2772 3150 2772 3378 
Q 2772 3750 2511 3984 
Q 2250 4219 1831 4219 
Q 1534 4219 1204 4116 
Q 875 4013 500 3803 
L 500 4441 
Q 881 4594 1212 4672 
Q 1544 4750 1819 4750 
Q 2544 4750 2975 4387 
Q 3406 4025 3406 3419 
Q 3406 3131 3298 2873 
Q 3191 2616 2906 2266 
Q 2828 2175 2409 1742 
Q 1991 1309 1228 531 
z
" transform="scale(0.015625)"/>
       </defs>
       <use xlink:href="#DejaVuSans-35"/>
       <use xlink:href="#DejaVuSans-35" x="63.623047"/>
       <use xlink:href="#DejaVuSans-39" x="127.246094"/>
       <use xlink:href="#DejaVuSans-31" x="190.869141"/>
       <use xlink:href="#DejaVuSans-32" x="254.492188"/>
      </g>
     </g>
    </g>
    <g id="xtick_2">
     <g id="line2d_3">
      <path d="M 136.5 384.48 
L 136.5 51.84 
" clip-path="url(#pae11f8cba3)" style="fill: none; stroke: #ffffff; stroke-width: 0.8; stroke-linecap: square"/>
     </g>
     <g id="line2d_4">
      <g>
       <use xlink:href="#me7bc7bcc69" x="136.5" y="384.48" style="fill: #ffffff; stroke: #ffffff; stroke-width: 0.8"/>
      </g>
     </g>
     <g id="text_2">
      <!-- 58342 -->
      <g style="fill: #ffffff" transform="translate(127.203756 419.347741) rotate(-45) scale(0.1 -0.1)">
       <defs>
        <path id="DejaVuSans-38" d="M 2034 2216 
Q 1584 2216 1326 1975 
Q 1069 1734 1069 1313 
Q 1069 891 1326 650 
Q 1584 409 2034 409 
Q 2484 409 2743 651 
Q 3003 894 3003 1313 
Q 3003 1734 2745 1975 
Q 2488 2216 2034 2216 
z
M 1403 2484 
Q 997 2584 770 2862 
Q 544 3141 544 3541 
Q 544 4100 942 4425 
Q 1341 4750 2034 4750 
Q 2731 4750 3128 4425 
Q 3525 4100 3525 3541 
Q 3525 3141 3298 2862 
Q 3072 2584 2669 2484 
Q 3125 2378 3379 2068 
Q 3634 1759 3634 1313 
Q 3634 634 3220 271 
Q 2806 -91 2034 -91 
Q 1263 -91 848 271 
Q 434 634 434 1313 
Q 434 1759 690 2068 
Q 947 2378 1403 2484 
z
M 1172 3481 
Q 1172 3119 1398 2916 
Q 1625 2713 2034 2713 
Q 2441 2713 2670 2916 
Q 2900 3119 2900 3481 
Q 2900 3844 2670 4047 
Q 2441 4250 2034 4250 
Q 1625 4250 1398 4047 
Q 1172 3844 1172 3481 
z
" transform="scale(0.015625)"/>
        <path id="DejaVuSans-33" d="M 2597 2516 
Q 3050 2419 3304 2112 
Q 3559 1806 3559 1356 
Q 3559 666 3084 287 
Q 2609 -91 1734 -91 
Q 1441 -91 1130 -33 
Q 819 25 488 141 
L 488 750 
Q 750 597 1062 519 
Q 1375 441 1716 441 
Q 2309 441 2620 675 
Q 2931 909 2931 1356 
Q 2931 1769 2642 2001 
Q 2353 2234 1838 2234 
L 1294 2234 
L 1294 2753 
L 1863 2753 
Q 2328 2753 2575 2939 
Q 2822 3125 2822 3475 
Q 2822 3834 2567 4026 
Q 2313 4219 1838 4219 
Q 1578 4219 1281 4162 
Q 984 4106 628 3988 
L 628 4550 
Q 988 4650 1302 4700 
Q 1616 4750 1894 4750 
Q 2613 4750 3031 4423 
Q 3450 4097 3450 3541 
Q 3450 3153 3228 2886 
Q 3006 2619 2597 2516 
z
" transform="scale(0.015625)"/>
        <path id="DejaVuSans-34" d="M 2419 4116 
L 825 1625 
L 2419 1625 
L 2419 4116 
z
M 2253 4666 
L 3047 4666 
L 3047 1625 
L 3713 1625 
L 3713 1100 
L 3047 1100 
L 3047 0 
L 2419 0 
L 2419 1100 
L 313 1100 
L 313 1709 
L 2253 4666 
z
" transform="scale(0.015625)"/>
       </defs>
       <use xlink:href="#DejaVuSans-35"/>
       <use xlink:href="#DejaVuSans-38" x="63.623047"/>
       <use xlink:href="#DejaVuSans-33" x="127.246094"/>
       <use xlink:href="#DejaVuSans-34" x="190.869141"/>
       <use xlink:href="#DejaVuSans-32" x="254.492188"/>
      </g>
     </g>
    </g>
    <g id="xtick_3">
     <g id="line2d_5">
      <path d="M 157.636364 384.48 
L 157.636364 51.84 
" clip-path="url(#pae11f8cba3)" style="fill: none; stroke: #ffffff; stroke-width: 0.8; stroke-linecap: square"/>
     </g>
     <g id="line2d_6">
      <g>
       <use xlink:href="#me7bc7bcc69" x="157.636364" y="384.48" style="fill: #ffffff; stroke: #ffffff; stroke-width: 0.8"/>
      </g>
     </g>
     <g id="text_3">
      <!-- 60994 -->
      <g style="fill: #ffffff" transform="translate(148.340119 419.347741) rotate(-45) scale(0.1 -0.1)">
       <defs>
        <path id="DejaVuSans-36" d="M 2113 2584 
Q 1688 2584 1439 2293 
Q 1191 2003 1191 1497 
Q 1191 994 1439 701 
Q 1688 409 2113 409 
Q 2538 409 2786 701 
Q 3034 994 3034 1497 
Q 3034 2003 2786 2293 
Q 2538 2584 2113 2584 
z
M 3366 4563 
L 3366 3988 
Q 3128 4100 2886 4159 
Q 2644 4219 2406 4219 
Q 1781 4219 1451 3797 
Q 1122 3375 1075 2522 
Q 1259 2794 1537 2939 
Q 1816 3084 2150 3084 
Q 2853 3084 3261 2657 
Q 3669 2231 3669 1497 
Q 3669 778 3244 343 
Q 2819 -91 2113 -91 
Q 1303 -91 875 529 
Q 447 1150 447 2328 
Q 447 3434 972 4092 
Q 1497 4750 2381 4750 
Q 2619 4750 2861 4703 
Q 3103 4656 3366 4563 
z
" transform="scale(0.015625)"/>
        <path id="DejaVuSans-30" d="M 2034 4250 
Q 1547 4250 1301 3770 
Q 1056 3291 1056 2328 
Q 1056 1369 1301 889 
Q 1547 409 2034 409 
Q 2525 409 2770 889 
Q 3016 1369 3016 2328 
Q 3016 3291 2770 3770 
Q 2525 4250 2034 4250 
z
M 2034 4750 
Q 2819 4750 3233 4129 
Q 3647 3509 3647 2328 
Q 3647 1150 3233 529 
Q 2819 -91 2034 -91 
Q 1250 -91 836 529 
Q 422 1150 422 2328 
Q 422 3509 836 4129 
Q 1250 4750 2034 4750 
z
" transform="scale(0.015625)"/>
       </defs>
       <use xlink:href="#DejaVuSans-36"/>
       <use xlink:href="#DejaVuSans-30" x="63.623047"/>
       <use xlink:href="#DejaVuSans-39" x="127.246094"/>
       <use xlink:href="#DejaVuSans-39" x="190.869141"/>
       <use xlink:href="#DejaVuSans-34" x="254.492188"/>
      </g>
     </g>
    </g>
    <g id="xtick_4">
     <g id="line2d_7">
      <path d="M 178.772727 384.48 
L 178.772727 51.84 
" clip-path="url(#pae11f8cba3)" style="fill: none; stroke: #ffffff; stroke-width: 0.8; stroke-linecap: square"/>
     </g>
     <g id="line2d_8">
      <g>
       <use xlink:href="#me7bc7bcc69" x="178.772727" y="384.48" style="fill: #ffffff; stroke: #ffffff; stroke-width: 0.8"/>
      </g>
     </g>
     <g id="text_4">
      <!-- 63897 -->
      <g style="fill: #ffffff" transform="translate(169.476483 419.347741) rotate(-45) scale(0.1 -0.1)">
       <defs>
        <path id="DejaVuSans-37" d="M 525 4666 
L 3525 4666 
L 3525 4397 
L 1831 0 
L 1172 0 
L 2766 4134 
L 525 4134 
L 525 4666 
z
" transform="scale(0.015625)"/>
       </defs>
       <use xlink:href="#DejaVuSans-36"/>
       <use xlink:href="#DejaVuSans-33" x="63.623047"/>
       <use xlink:href="#DejaVuSans-38" x="127.246094"/>
       <use xlink:href="#DejaVuSans-39" x="190.869141"/>
       <use xlink:href="#DejaVuSans-37" x="254.492188"/>
      </g>
     </g>
    </g>
    <g id="xtick_5">
     <g id="line2d_9">
      <path d="M 199.909091 384.48 
L 199.909091 51.84 
" clip-path="url(#pae11f8cba3)" style="fill: none; stroke: #ffffff; stroke-width: 0.8; stroke-linecap: square"/>
     </g>
     <g id="line2d_10">
      <g>
       <use xlink:href="#me7bc7bcc69" x="199.909091" y="384.48" style="fill: #ffffff; stroke: #ffffff; stroke-width: 0.8"/>
      </g>
     </g>
     <g id="text_5">
      <!-- 67092 -->
      <g style="fill: #ffffff" transform="translate(190.612846 419.347741) rotate(-45) scale(0.1 -0.1)">
       <use xlink:href="#DejaVuSans-36"/>
       <use xlink:href="#DejaVuSans-37" x="63.623047"/>
       <use xlink:href="#DejaVuSans-30" x="127.246094"/>
       <use xlink:href="#DejaVuSans-39" x="190.869141"/>
       <use xlink:href="#DejaVuSans-32" x="254.492188"/>
      </g>
     </g>
    </g>
    <g id="xtick_6">
     <g id="line2d_11">
      <path d="M 221.045455 384.48 
L 221.045455 51.84 
" clip-path="url(#pae11f8cba3)" style="fill: none; stroke: #ffffff; stroke-width: 0.8; stroke-linecap: square"/>
     </g>
     <g id="line2d_12">
      <g>
       <use xlink:href="#me7bc7bcc69" x="221.045455" y="384.48" style="fill: #ffffff; stroke: #ffffff; stroke-width: 0.8"/>
      </g>
     </g>
     <g id="text_6">
      <!-- 70622 -->
      <g style="fill: #ffffff" transform="translate(211.74921 419.347741) rotate(-45) scale(0.1 -0.1)">
       <use xlink:href="#DejaVuSans-37"/>
       <use xlink:href="#DejaVuSans-30" x="63.623047"/>
       <use xlink:href="#DejaVuSans-36" x="127.246094"/>
       <use xlink:href="#DejaVuSans-32" x="190.869141"/>
       <use xlink:href="#DejaVuSans-32" x="254.492188"/>
      </g>
     </g>
    </g>
    <g id="xtick_7">
     <g id="line2d_13">
      <path d="M 242.181818 384.48 
L 242.181818 51.84 
" clip-path="url(#pae11f8cba3)" style="fill: none; stroke: #ffffff; stroke-width: 0.8; stroke-linecap: square"/>
     </g>
     <g id="line2d_14">
      <g>
       <use xlink:href="#me7bc7bcc69" x="242.181818" y="384.48" style="fill: #ffffff; stroke: #ffffff; stroke-width: 0.8"/>
      </g>
     </g>
     <g id="text_7">
      <!-- 74544 -->
      <g style="fill: #ffffff" transform="translate(232.885574 419.347741) rotate(-45) scale(0.1 -0.1)">
       <use xlink:href="#DejaVuSans-37"/>
       <use xlink:href="#DejaVuSans-34" x="63.623047"/>
       <use xlink:href="#DejaVuSans-35" x="127.246094"/>
       <use xlink:href="#DejaVuSans-34" x="190.869141"/>
       <use xlink:href="#DejaVuSans-34" x="254.492188"/>
      </g>
     </g>
    </g>
    <g id="xtick_8">
     <g id="line2d_15">
      <path d="M 263.318182 384.48 
L 263.318182 51.84 
" clip-path="url(#pae11f8cba3)" style="fill: none; stroke: #ffffff; stroke-width: 0.8; stroke-linecap: square"/>
     </g>
     <g id="line2d_16">
      <g>
       <use xlink:href="#me7bc7bcc69" x="263.318182" y="384.48" style="fill: #ffffff; stroke: #ffffff; stroke-width: 0.8"/>
      </g>
     </g>
     <g id="text_8">
      <!-- 78928 -->
      <g style="fill: #ffffff" transform="translate(254.021937 419.347741) rotate(-45) scale(0.1 -0.1)">
       <use xlink:href="#DejaVuSans-37"/>
       <use xlink:href="#DejaVuSans-38" x="63.623047"/>
       <use xlink:href="#DejaVuSans-39" x="127.246094"/>
       <use xlink:href="#DejaVuSans-32" x="190.869141"/>
       <use xlink:href="#DejaVuSans-38" x="254.492188"/>
      </g>
     </g>
    </g>
    <g id="xtick_9">
     <g id="line2d_17">
      <path d="M 284.454545 384.48 
L 284.454545 51.84 
" clip-path="url(#pae11f8cba3)" style="fill: none; stroke: #ffffff; stroke-width: 0.8; stroke-linecap: square"/>
     </g>
     <g id="line2d_18">
      <g>
       <use xlink:href="#me7bc7bcc69" x="284.454545" y="384.48" style="fill: #ffffff; stroke: #ffffff; stroke-width: 0.8"/>
      </g>
     </g>
     <g id="text_9">
      <!-- 83859 -->
      <g style="fill: #ffffff" transform="translate(275.158301 419.347741) rotate(-45) scale(0.1 -0.1)">
       <use xlink:href="#DejaVuSans-38"/>
       <use xlink:href="#DejaVuSans-33" x="63.623047"/>
       <use xlink:href="#DejaVuSans-38" x="127.246094"/>
       <use xlink:href="#DejaVuSans-35" x="190.869141"/>
       <use xlink:href="#DejaVuSans-39" x="254.492188"/>
      </g>
     </g>
    </g>
    <g id="xtick_10">
     <g id="line2d_19">
      <path d="M 305.590909 384.48 
L 305.590909 51.84 
" clip-path="url(#pae11f8cba3)" style="fill: none; stroke: #ffffff; stroke-width: 0.8; stroke-linecap: square"/>
     </g>
     <g id="line2d_20">
      <g>
       <use xlink:href="#me7bc7bcc69" x="305.590909" y="384.48" style="fill: #ffffff; stroke: #ffffff; stroke-width: 0.8"/>
      </g>
     </g>
     <g id="text_10">
      <!-- 89448 -->
      <g style="fill: #ffffff" transform="translate(296.294665 419.347741) rotate(-45) scale(0.1 -0.1)">
       <use xlink:href="#DejaVuSans-38"/>
       <use xlink:href="#DejaVuSans-39" x="63.623047"/>
       <use xlink:href="#DejaVuSans-34" x="127.246094"/>
       <use xlink:href="#DejaVuSans-34" x="190.869141"/>
       <use xlink:href="#DejaVuSans-38" x="254.492188"/>
      </g>
     </g>
    </g>
    <g id="xtick_11">
     <g id="line2d_21">
      <path d="M 326.727273 384.48 
L 326.727273 51.84 
" clip-path="url(#pae11f8cba3)" style="fill: none; stroke: #ffffff; stroke-width: 0.8; stroke-linecap: square"/>
     </g>
     <g id="line2d_22">
      <g>
       <use xlink:href="#me7bc7bcc69" x="326.727273" y="384.48" style="fill: #ffffff; stroke: #ffffff; stroke-width: 0.8"/>
      </g>
     </g>
     <g id="text_11">
      <!-- 95835 -->
      <g style="fill: #ffffff" transform="translate(317.431028 419.347741) rotate(-45) scale(0.1 -0.1)">
       <use xlink:href="#DejaVuSans-39"/>
       <use xlink:href="#DejaVuSans-35" x="63.623047"/>
       <use xlink:href="#DejaVuSans-38" x="127.246094"/>
       <use xlink:href="#DejaVuSans-33" x="190.869141"/>
       <use xlink:href="#DejaVuSans-35" x="254.492188"/>
      </g>
     </g>
    </g>
    <g id="xtick_12">
     <g id="line2d_23">
      <path d="M 347.863636 384.48 
L 347.863636 51.84 
" clip-path="url(#pae11f8cba3)" style="fill: none; stroke: #ffffff; stroke-width: 0.8; stroke-linecap: square"/>
     </g>
     <g id="line2d_24">
      <g>
       <use xlink:href="#me7bc7bcc69" x="347.863636" y="384.48" style="fill: #ffffff; stroke: #ffffff; stroke-width: 0.8"/>
      </g>
     </g>
     <g id="text_12">
      <!-- 103204 -->
      <g style="fill: #ffffff" transform="translate(336.317908 423.846708) rotate(-45) scale(0.1 -0.1)">
       <use xlink:href="#DejaVuSans-31"/>
       <use xlink:href="#DejaVuSans-30" x="63.623047"/>
       <use xlink:href="#DejaVuSans-33" x="127.246094"/>
       <use xlink:href="#DejaVuSans-32" x="190.869141"/>
       <use xlink:href="#DejaVuSans-30" x="254.492188"/>
       <use xlink:href="#DejaVuSans-34" x="318.115234"/>
      </g>
     </g>
    </g>
    <g id="xtick_13">
     <g id="line2d_25">
      <path d="M 369 384.48 
L 369 51.84 
" clip-path="url(#pae11f8cba3)" style="fill: none; stroke: #ffffff; stroke-width: 0.8; stroke-linecap: square"/>
     </g>
     <g id="line2d_26">
      <g>
       <use xlink:href="#me7bc7bcc69" x="369" y="384.48" style="fill: #ffffff; stroke: #ffffff; stroke-width: 0.8"/>
      </g>
     </g>
     <g id="text_13">
      <!-- 111801 -->
      <g style="fill: #ffffff" transform="translate(357.454272 423.846708) rotate(-45) scale(0.1 -0.1)">
       <use xlink:href="#DejaVuSans-31"/>
       <use xlink:href="#DejaVuSans-31" x="63.623047"/>
       <use xlink:href="#DejaVuSans-31" x="127.246094"/>
       <use xlink:href="#DejaVuSans-38" x="190.869141"/>
       <use xlink:href="#DejaVuSans-30" x="254.492188"/>
       <use xlink:href="#DejaVuSans-31" x="318.115234"/>
      </g>
     </g>
    </g>
    <g id="xtick_14">
     <g id="line2d_27">
      <path d="M 390.136364 384.48 
L 390.136364 51.84 
" clip-path="url(#pae11f8cba3)" style="fill: none; stroke: #ffffff; stroke-width: 0.8; stroke-linecap: square"/>
     </g>
     <g id="line2d_28">
      <g>
       <use xlink:href="#me7bc7bcc69" x="390.136364" y="384.48" style="fill: #ffffff; stroke: #ffffff; stroke-width: 0.8"/>
      </g>
     </g>
     <g id="text_14">
      <!-- 121960 -->
      <g style="fill: #ffffff" transform="translate(378.590636 423.846708) rotate(-45) scale(0.1 -0.1)">
       <use xlink:href="#DejaVuSans-31"/>
       <use xlink:href="#DejaVuSans-32" x="63.623047"/>
       <use xlink:href="#DejaVuSans-31" x="127.246094"/>
       <use xlink:href="#DejaVuSans-39" x="190.869141"/>
       <use xlink:href="#DejaVuSans-36" x="254.492188"/>
       <use xlink:href="#DejaVuSans-30" x="318.115234"/>
      </g>
     </g>
    </g>
    <g id="xtick_15">
     <g id="line2d_29">
      <path d="M 411.272727 384.48 
L 411.272727 51.84 
" clip-path="url(#pae11f8cba3)" style="fill: none; stroke: #ffffff; stroke-width: 0.8; stroke-linecap: square"/>
     </g>
     <g id="line2d_30">
      <g>
       <use xlink:href="#me7bc7bcc69" x="411.272727" y="384.48" style="fill: #ffffff; stroke: #ffffff; stroke-width: 0.8"/>
      </g>
     </g>
     <g id="text_15">
      <!-- 134150 -->
      <g style="fill: #ffffff" transform="translate(399.726999 423.846708) rotate(-45) scale(0.1 -0.1)">
       <use xlink:href="#DejaVuSans-31"/>
       <use xlink:href="#DejaVuSans-33" x="63.623047"/>
       <use xlink:href="#DejaVuSans-34" x="127.246094"/>
       <use xlink:href="#DejaVuSans-31" x="190.869141"/>
       <use xlink:href="#DejaVuSans-35" x="254.492188"/>
       <use xlink:href="#DejaVuSans-30" x="318.115234"/>
      </g>
     </g>
    </g>
    <g id="xtick_16">
     <g id="line2d_31">
      <path d="M 432.409091 384.48 
L 432.409091 51.84 
" clip-path="url(#pae11f8cba3)" style="fill: none; stroke: #ffffff; stroke-width: 0.8; stroke-linecap: square"/>
     </g>
     <g id="line2d_32">
      <g>
       <use xlink:href="#me7bc7bcc69" x="432.409091" y="384.48" style="fill: #ffffff; stroke: #ffffff; stroke-width: 0.8"/>
      </g>
     </g>
     <g id="text_16">
      <!-- 149048 -->
      <g style="fill: #ffffff" transform="translate(420.863363 423.846708) rotate(-45) scale(0.1 -0.1)">
       <use xlink:href="#DejaVuSans-31"/>
       <use xlink:href="#DejaVuSans-34" x="63.623047"/>
       <use xlink:href="#DejaVuSans-39" x="127.246094"/>
       <use xlink:href="#DejaVuSans-30" x="190.869141"/>
       <use xlink:href="#DejaVuSans-34" x="254.492188"/>
       <use xlink:href="#DejaVuSans-38" x="318.115234"/>
      </g>
     </g>
    </g>
    <g id="xtick_17">
     <g id="line2d_33">
      <path d="M 453.545455 384.48 
L 453.545455 51.84 
" clip-path="url(#pae11f8cba3)" style="fill: none; stroke: #ffffff; stroke-width: 0.8; stroke-linecap: square"/>
     </g>
     <g id="line2d_34">
      <g>
       <use xlink:href="#me7bc7bcc69" x="453.545455" y="384.48" style="fill: #ffffff; stroke: #ffffff; stroke-width: 0.8"/>
      </g>
     </g>
     <g id="text_17">
      <!-- 167667 -->
      <g style="fill: #ffffff" transform="translate(441.999727 423.846708) rotate(-45) scale(0.1 -0.1)">
       <use xlink:href="#DejaVuSans-31"/>
       <use xlink:href="#DejaVuSans-36" x="63.623047"/>
       <use xlink:href="#DejaVuSans-37" x="127.246094"/>
       <use xlink:href="#DejaVuSans-36" x="190.869141"/>
       <use xlink:href="#DejaVuSans-36" x="254.492188"/>
       <use xlink:href="#DejaVuSans-37" x="318.115234"/>
      </g>
     </g>
    </g>
    <g id="xtick_18">
     <g id="line2d_35">
      <path d="M 474.681818 384.48 
L 474.681818 51.84 
" clip-path="url(#pae11f8cba3)" style="fill: none; stroke: #ffffff; stroke-width: 0.8; stroke-linecap: square"/>
     </g>
     <g id="line2d_36">
      <g>
       <use xlink:href="#me7bc7bcc69" x="474.681818" y="384.48" style="fill: #ffffff; stroke: #ffffff; stroke-width: 0.8"/>
      </g>
     </g>
     <g id="text_18">
      <!-- 191602 -->
      <g style="fill: #ffffff" transform="translate(463.13609 423.846708) rotate(-45) scale(0.1 -0.1)">
       <use xlink:href="#DejaVuSans-31"/>
       <use xlink:href="#DejaVuSans-39" x="63.623047"/>
       <use xlink:href="#DejaVuSans-31" x="127.246094"/>
       <use xlink:href="#DejaVuSans-36" x="190.869141"/>
       <use xlink:href="#DejaVuSans-30" x="254.492188"/>
       <use xlink:href="#DejaVuSans-32" x="318.115234"/>
      </g>
     </g>
    </g>
    <g id="xtick_19">
     <g id="line2d_37">
      <path d="M 495.818182 384.48 
L 495.818182 51.84 
" clip-path="url(#pae11f8cba3)" style="fill: none; stroke: #ffffff; stroke-width: 0.8; stroke-linecap: square"/>
     </g>
     <g id="line2d_38">
      <g>
       <use xlink:href="#me7bc7bcc69" x="495.818182" y="384.48" style="fill: #ffffff; stroke: #ffffff; stroke-width: 0.8"/>
      </g>
     </g>
     <g id="text_19">
      <!-- 223509 -->
      <g style="fill: #ffffff" transform="translate(484.272454 423.846708) rotate(-45) scale(0.1 -0.1)">
       <use xlink:href="#DejaVuSans-32"/>
       <use xlink:href="#DejaVuSans-32" x="63.623047"/>
       <use xlink:href="#DejaVuSans-33" x="127.246094"/>
       <use xlink:href="#DejaVuSans-35" x="190.869141"/>
       <use xlink:href="#DejaVuSans-30" x="254.492188"/>
       <use xlink:href="#DejaVuSans-39" x="318.115234"/>
      </g>
     </g>
    </g>
    <g id="xtick_20">
     <g id="line2d_39">
      <path d="M 516.954545 384.48 
L 516.954545 51.84 
" clip-path="url(#pae11f8cba3)" style="fill: none; stroke: #ffffff; stroke-width: 0.8; stroke-linecap: square"/>
     </g>
     <g id="line2d_40">
      <g>
       <use xlink:href="#me7bc7bcc69" x="516.954545" y="384.48" style="fill: #ffffff; stroke: #ffffff; stroke-width: 0.8"/>
      </g>
     </g>
     <g id="text_20">
      <!-- 268167 -->
      <g style="fill: #ffffff" transform="translate(505.408818 423.846708) rotate(-45) scale(0.1 -0.1)">
       <use xlink:href="#DejaVuSans-32"/>
       <use xlink:href="#DejaVuSans-36" x="63.623047"/>
       <use xlink:href="#DejaVuSans-38" x="127.246094"/>
       <use xlink:href="#DejaVuSans-31" x="190.869141"/>
       <use xlink:href="#DejaVuSans-36" x="254.492188"/>
       <use xlink:href="#DejaVuSans-37" x="318.115234"/>
      </g>
     </g>
    </g>
    <g id="xtick_21">
     <g id="line2d_41">
      <path d="M 538.090909 384.48 
L 538.090909 51.84 
" clip-path="url(#pae11f8cba3)" style="fill: none; stroke: #ffffff; stroke-width: 0.8; stroke-linecap: square"/>
     </g>
     <g id="line2d_42">
      <g>
       <use xlink:href="#me7bc7bcc69" x="538.090909" y="384.48" style="fill: #ffffff; stroke: #ffffff; stroke-width: 0.8"/>
      </g>
     </g>
     <g id="text_21">
      <!-- 335125 -->
      <g style="fill: #ffffff" transform="translate(526.545181 423.846708) rotate(-45) scale(0.1 -0.1)">
       <use xlink:href="#DejaVuSans-33"/>
       <use xlink:href="#DejaVuSans-33" x="63.623047"/>
       <use xlink:href="#DejaVuSans-35" x="127.246094"/>
       <use xlink:href="#DejaVuSans-31" x="190.869141"/>
       <use xlink:href="#DejaVuSans-32" x="254.492188"/>
       <use xlink:href="#DejaVuSans-35" x="318.115234"/>
      </g>
     </g>
    </g>
    <g id="xtick_22">
     <g id="line2d_43">
      <path d="M 559.227273 384.48 
L 559.227273 51.84 
" clip-path="url(#pae11f8cba3)" style="fill: none; stroke: #ffffff; stroke-width: 0.8; stroke-linecap: square"/>
     </g>
     <g id="line2d_44">
      <g>
       <use xlink:href="#me7bc7bcc69" x="559.227273" y="384.48" style="fill: #ffffff; stroke: #ffffff; stroke-width: 0.8"/>
      </g>
     </g>
     <g id="text_22">
      <!-- 446648 -->
      <g style="fill: #ffffff" transform="translate(547.681545 423.846708) rotate(-45) scale(0.1 -0.1)">
       <use xlink:href="#DejaVuSans-34"/>
       <use xlink:href="#DejaVuSans-34" x="63.623047"/>
       <use xlink:href="#DejaVuSans-36" x="127.246094"/>
       <use xlink:href="#DejaVuSans-36" x="190.869141"/>
       <use xlink:href="#DejaVuSans-34" x="254.492188"/>
       <use xlink:href="#DejaVuSans-38" x="318.115234"/>
      </g>
     </g>
    </g>
    <g id="xtick_23">
     <g id="line2d_45">
      <path d="M 580.363636 384.48 
L 580.363636 51.84 
" clip-path="url(#pae11f8cba3)" style="fill: none; stroke: #ffffff; stroke-width: 0.8; stroke-linecap: square"/>
     </g>
     <g id="line2d_46">
      <g>
       <use xlink:href="#me7bc7bcc69" x="580.363636" y="384.48" style="fill: #ffffff; stroke: #ffffff; stroke-width: 0.8"/>
      </g>
     </g>
     <g id="text_23">
      <!-- 669415 -->
      <g style="fill: #ffffff" transform="translate(568.817908 423.846708) rotate(-45) scale(0.1 -0.1)">
       <use xlink:href="#DejaVuSans-36"/>
       <use xlink:href="#DejaVuSans-36" x="63.623047"/>
       <use xlink:href="#DejaVuSans-39" x="127.246094"/>
       <use xlink:href="#DejaVuSans-34" x="190.869141"/>
       <use xlink:href="#DejaVuSans-31" x="254.492188"/>
       <use xlink:href="#DejaVuSans-35" x="318.115234"/>
      </g>
     </g>
    </g>
    <g id="xtick_24">
     <g id="line2d_47">
      <path d="M 601.5 384.48 
L 601.5 51.84 
" clip-path="url(#pae11f8cba3)" style="fill: none; stroke: #ffffff; stroke-width: 0.8; stroke-linecap: square"/>
     </g>
     <g id="line2d_48">
      <g>
       <use xlink:href="#me7bc7bcc69" x="601.5" y="384.48" style="fill: #ffffff; stroke: #ffffff; stroke-width: 0.8"/>
      </g>
     </g>
     <g id="text_24">
      <!-- 1335499 -->
      <g style="fill: #ffffff" transform="translate(587.704789 428.345675) rotate(-45) scale(0.1 -0.1)">
       <use xlink:href="#DejaVuSans-31"/>
       <use xlink:href="#DejaVuSans-33" x="63.623047"/>
       <use xlink:href="#DejaVuSans-33" x="127.246094"/>
       <use xlink:href="#DejaVuSans-35" x="190.869141"/>
       <use xlink:href="#DejaVuSans-34" x="254.492188"/>
       <use xlink:href="#DejaVuSans-39" x="318.115234"/>
       <use xlink:href="#DejaVuSans-39" x="381.738281"/>
      </g>
     </g>
    </g>
    <g id="xtick_25">
     <g id="line2d_49">
      <path d="M 622.636364 384.48 
L 622.636364 51.84 
" clip-path="url(#pae11f8cba3)" style="fill: none; stroke: #ffffff; stroke-width: 0.8; stroke-linecap: square"/>
     </g>
     <g id="line2d_50">
      <g>
       <use xlink:href="#me7bc7bcc69" x="622.636364" y="384.48" style="fill: #ffffff; stroke: #ffffff; stroke-width: 0.8"/>
      </g>
     </g>
     <g id="text_25">
      <!-- 268435456 -->
      <g style="fill: #ffffff" transform="translate(604.342185 437.343609) rotate(-45) scale(0.1 -0.1)">
       <use xlink:href="#DejaVuSans-32"/>
       <use xlink:href="#DejaVuSans-36" x="63.623047"/>
       <use xlink:href="#DejaVuSans-38" x="127.246094"/>
       <use xlink:href="#DejaVuSans-34" x="190.869141"/>
       <use xlink:href="#DejaVuSans-33" x="254.492188"/>
       <use xlink:href="#DejaVuSans-35" x="318.115234"/>
       <use xlink:href="#DejaVuSans-34" x="381.738281"/>
       <use xlink:href="#DejaVuSans-35" x="445.361328"/>
       <use xlink:href="#DejaVuSans-36" x="508.984375"/>
      </g>
     </g>
    </g>
    <g id="text_26">
     <!-- chunk_size -->
     <g style="fill: #ffffff" transform="translate(341.654688 450.412607) scale(0.1 -0.1)">
      <defs>
       <path id="DejaVuSans-63" d="M 3122 3366 
L 3122 2828 
Q 2878 2963 2633 3030 
Q 2388 3097 2138 3097 
Q 1578 3097 1268 2742 
Q 959 2388 959 1747 
Q 959 1106 1268 751 
Q 1578 397 2138 397 
Q 2388 397 2633 464 
Q 2878 531 3122 666 
L 3122 134 
Q 2881 22 2623 -34 
Q 2366 -91 2075 -91 
Q 1284 -91 818 406 
Q 353 903 353 1747 
Q 353 2603 823 3093 
Q 1294 3584 2113 3584 
Q 2378 3584 2631 3529 
Q 2884 3475 3122 3366 
z
" transform="scale(0.015625)"/>
       <path id="DejaVuSans-68" d="M 3513 2113 
L 3513 0 
L 2938 0 
L 2938 2094 
Q 2938 2591 2744 2837 
Q 2550 3084 2163 3084 
Q 1697 3084 1428 2787 
Q 1159 2491 1159 1978 
L 1159 0 
L 581 0 
L 581 4863 
L 1159 4863 
L 1159 2956 
Q 1366 3272 1645 3428 
Q 1925 3584 2291 3584 
Q 2894 3584 3203 3211 
Q 3513 2838 3513 2113 
z
" transform="scale(0.015625)"/>
       <path id="DejaVuSans-75" d="M 544 1381 
L 544 3500 
L 1119 3500 
L 1119 1403 
Q 1119 906 1312 657 
Q 1506 409 1894 409 
Q 2359 409 2629 706 
Q 2900 1003 2900 1516 
L 2900 3500 
L 3475 3500 
L 3475 0 
L 2900 0 
L 2900 538 
Q 2691 219 2414 64 
Q 2138 -91 1772 -91 
Q 1169 -91 856 284 
Q 544 659 544 1381 
z
M 1991 3584 
L 1991 3584 
z
" transform="scale(0.015625)"/>
       <path id="DejaVuSans-6e" d="M 3513 2113 
L 3513 0 
L 2938 0 
L 2938 2094 
Q 2938 2591 2744 2837 
Q 2550 3084 2163 3084 
Q 1697 3084 1428 2787 
Q 1159 2491 1159 1978 
L 1159 0 
L 581 0 
L 581 3500 
L 1159 3500 
L 1159 2956 
Q 1366 3272 1645 3428 
Q 1925 3584 2291 3584 
Q 2894 3584 3203 3211 
Q 3513 2838 3513 2113 
z
" transform="scale(0.015625)"/>
       <path id="DejaVuSans-6b" d="M 581 4863 
L 1159 4863 
L 1159 1991 
L 2875 3500 
L 3609 3500 
L 1753 1863 
L 3688 0 
L 2938 0 
L 1159 1709 
L 1159 0 
L 581 0 
L 581 4863 
z
" transform="scale(0.015625)"/>
       <path id="DejaVuSans-5f" d="M 3263 -1063 
L 3263 -1509 
L -63 -1509 
L -63 -1063 
L 3263 -1063 
z
" transform="scale(0.015625)"/>
       <path id="DejaVuSans-73" d="M 2834 3397 
L 2834 2853 
Q 2591 2978 2328 3040 
Q 2066 3103 1784 3103 
Q 1356 3103 1142 2972 
Q 928 2841 928 2578 
Q 928 2378 1081 2264 
Q 1234 2150 1697 2047 
L 1894 2003 
Q 2506 1872 2764 1633 
Q 3022 1394 3022 966 
Q 3022 478 2636 193 
Q 2250 -91 1575 -91 
Q 1294 -91 989 -36 
Q 684 19 347 128 
L 347 722 
Q 666 556 975 473 
Q 1284 391 1588 391 
Q 1994 391 2212 530 
Q 2431 669 2431 922 
Q 2431 1156 2273 1281 
Q 2116 1406 1581 1522 
L 1381 1569 
Q 847 1681 609 1914 
Q 372 2147 372 2553 
Q 372 3047 722 3315 
Q 1072 3584 1716 3584 
Q 2034 3584 2315 3537 
Q 2597 3491 2834 3397 
z
" transform="scale(0.015625)"/>
       <path id="DejaVuSans-69" d="M 603 3500 
L 1178 3500 
L 1178 0 
L 603 0 
L 603 3500 
z
M 603 4863 
L 1178 4863 
L 1178 4134 
L 603 4134 
L 603 4863 
z
" transform="scale(0.015625)"/>
       <path id="DejaVuSans-7a" d="M 353 3500 
L 3084 3500 
L 3084 2975 
L 922 459 
L 3084 459 
L 3084 0 
L 275 0 
L 275 525 
L 2438 3041 
L 353 3041 
L 353 3500 
z
" transform="scale(0.015625)"/>
       <path id="DejaVuSans-65" d="M 3597 1894 
L 3597 1613 
L 953 1613 
Q 991 1019 1311 708 
Q 1631 397 2203 397 
Q 2534 397 2845 478 
Q 3156 559 3463 722 
L 3463 178 
Q 3153 47 2828 -22 
Q 2503 -91 2169 -91 
Q 1331 -91 842 396 
Q 353 884 353 1716 
Q 353 2575 817 3079 
Q 1281 3584 2069 3584 
Q 2775 3584 3186 3129 
Q 3597 2675 3597 1894 
z
M 3022 2063 
Q 3016 2534 2758 2815 
Q 2500 3097 2075 3097 
Q 1594 3097 1305 2825 
Q 1016 2553 972 2059 
L 3022 2063 
z
" transform="scale(0.015625)"/>
      </defs>
      <use xlink:href="#DejaVuSans-63"/>
      <use xlink:href="#DejaVuSans-68" x="54.980469"/>
      <use xlink:href="#DejaVuSans-75" x="118.359375"/>
      <use xlink:href="#DejaVuSans-6e" x="181.738281"/>
      <use xlink:href="#DejaVuSans-6b" x="245.117188"/>
      <use xlink:href="#DejaVuSans-5f" x="303.027344"/>
      <use xlink:href="#DejaVuSans-73" x="353.027344"/>
      <use xlink:href="#DejaVuSans-69" x="405.126953"/>
      <use xlink:href="#DejaVuSans-7a" x="432.910156"/>
      <use xlink:href="#DejaVuSans-65" x="485.400391"/>
     </g>
    </g>
   </g>
   <g id="matplotlib.axis_2">
    <g id="ytick_1">
     <g id="line2d_51">
      <path d="M 90 344.752609 
L 648 344.752609 
" clip-path="url(#pae11f8cba3)" style="fill: none; stroke: #ffffff; stroke-width: 0.8; stroke-linecap: square"/>
     </g>
     <g id="line2d_52">
      <defs>
       <path id="mb00001864e" d="M 0 0 
L -3.5 0 
" style="stroke: #ffffff; stroke-width: 0.8"/>
      </defs>
      <g>
       <use xlink:href="#mb00001864e" x="90" y="344.752609" style="fill: #ffffff; stroke: #ffffff; stroke-width: 0.8"/>
      </g>
     </g>
     <g id="text_27">
      <!-- 250 -->
      <g style="fill: #ffffff" transform="translate(63.9125 348.551827) scale(0.1 -0.1)">
       <use xlink:href="#DejaVuSans-32"/>
       <use xlink:href="#DejaVuSans-35" x="63.623047"/>
       <use xlink:href="#DejaVuSans-30" x="127.246094"/>
      </g>
     </g>
    </g>
    <g id="ytick_2">
     <g id="line2d_53">
      <path d="M 90 299.489929 
L 648 299.489929 
" clip-path="url(#pae11f8cba3)" style="fill: none; stroke: #ffffff; stroke-width: 0.8; stroke-linecap: square"/>
     </g>
     <g id="line2d_54">
      <g>
       <use xlink:href="#mb00001864e" x="90" y="299.489929" style="fill: #ffffff; stroke: #ffffff; stroke-width: 0.8"/>
      </g>
     </g>
     <g id="text_28">
      <!-- 500 -->
      <g style="fill: #ffffff" transform="translate(63.9125 303.289147) scale(0.1 -0.1)">
       <use xlink:href="#DejaVuSans-35"/>
       <use xlink:href="#DejaVuSans-30" x="63.623047"/>
       <use xlink:href="#DejaVuSans-30" x="127.246094"/>
      </g>
     </g>
    </g>
    <g id="ytick_3">
     <g id="line2d_55">
      <path d="M 90 254.227249 
L 648 254.227249 
" clip-path="url(#pae11f8cba3)" style="fill: none; stroke: #ffffff; stroke-width: 0.8; stroke-linecap: square"/>
     </g>
     <g id="line2d_56">
      <g>
       <use xlink:href="#mb00001864e" x="90" y="254.227249" style="fill: #ffffff; stroke: #ffffff; stroke-width: 0.8"/>
      </g>
     </g>
     <g id="text_29">
      <!-- 750 -->
      <g style="fill: #ffffff" transform="translate(63.9125 258.026467) scale(0.1 -0.1)">
       <use xlink:href="#DejaVuSans-37"/>
       <use xlink:href="#DejaVuSans-35" x="63.623047"/>
       <use xlink:href="#DejaVuSans-30" x="127.246094"/>
      </g>
     </g>
    </g>
    <g id="ytick_4">
     <g id="line2d_57">
      <path d="M 90 208.964569 
L 648 208.964569 
" clip-path="url(#pae11f8cba3)" style="fill: none; stroke: #ffffff; stroke-width: 0.8; stroke-linecap: square"/>
     </g>
     <g id="line2d_58">
      <g>
       <use xlink:href="#mb00001864e" x="90" y="208.964569" style="fill: #ffffff; stroke: #ffffff; stroke-width: 0.8"/>
      </g>
     </g>
     <g id="text_30">
      <!-- 1000 -->
      <g style="fill: #ffffff" transform="translate(57.55 212.763787) scale(0.1 -0.1)">
       <use xlink:href="#DejaVuSans-31"/>
       <use xlink:href="#DejaVuSans-30" x="63.623047"/>
       <use xlink:href="#DejaVuSans-30" x="127.246094"/>
       <use xlink:href="#DejaVuSans-30" x="190.869141"/>
      </g>
     </g>
    </g>
    <g id="ytick_5">
     <g id="line2d_59">
      <path d="M 90 163.701889 
L 648 163.701889 
" clip-path="url(#pae11f8cba3)" style="fill: none; stroke: #ffffff; stroke-width: 0.8; stroke-linecap: square"/>
     </g>
     <g id="line2d_60">
      <g>
       <use xlink:href="#mb00001864e" x="90" y="163.701889" style="fill: #ffffff; stroke: #ffffff; stroke-width: 0.8"/>
      </g>
     </g>
     <g id="text_31">
      <!-- 1250 -->
      <g style="fill: #ffffff" transform="translate(57.55 167.501107) scale(0.1 -0.1)">
       <use xlink:href="#DejaVuSans-31"/>
       <use xlink:href="#DejaVuSans-32" x="63.623047"/>
       <use xlink:href="#DejaVuSans-35" x="127.246094"/>
       <use xlink:href="#DejaVuSans-30" x="190.869141"/>
      </g>
     </g>
    </g>
    <g id="ytick_6">
     <g id="line2d_61">
      <path d="M 90 118.439209 
L 648 118.439209 
" clip-path="url(#pae11f8cba3)" style="fill: none; stroke: #ffffff; stroke-width: 0.8; stroke-linecap: square"/>
     </g>
     <g id="line2d_62">
      <g>
       <use xlink:href="#mb00001864e" x="90" y="118.439209" style="fill: #ffffff; stroke: #ffffff; stroke-width: 0.8"/>
      </g>
     </g>
     <g id="text_32">
      <!-- 1500 -->
      <g style="fill: #ffffff" transform="translate(57.55 122.238427) scale(0.1 -0.1)">
       <use xlink:href="#DejaVuSans-31"/>
       <use xlink:href="#DejaVuSans-35" x="63.623047"/>
       <use xlink:href="#DejaVuSans-30" x="127.246094"/>
       <use xlink:href="#DejaVuSans-30" x="190.869141"/>
      </g>
     </g>
    </g>
    <g id="ytick_7">
     <g id="line2d_63">
      <path d="M 90 73.176529 
L 648 73.176529 
" clip-path="url(#pae11f8cba3)" style="fill: none; stroke: #ffffff; stroke-width: 0.8; stroke-linecap: square"/>
     </g>
     <g id="line2d_64">
      <g>
       <use xlink:href="#mb00001864e" x="90" y="73.176529" style="fill: #ffffff; stroke: #ffffff; stroke-width: 0.8"/>
      </g>
     </g>
     <g id="text_33">
      <!-- 1750 -->
      <g style="fill: #ffffff" transform="translate(57.55 76.975748) scale(0.1 -0.1)">
       <use xlink:href="#DejaVuSans-31"/>
       <use xlink:href="#DejaVuSans-37" x="63.623047"/>
       <use xlink:href="#DejaVuSans-35" x="127.246094"/>
       <use xlink:href="#DejaVuSans-30" x="190.869141"/>
      </g>
     </g>
    </g>
    <g id="text_34">
     <!-- time (ms) -->
     <g style="fill: #ffffff" transform="translate(51.470312 242.421719) rotate(-90) scale(0.1 -0.1)">
      <defs>
       <path id="DejaVuSans-74" d="M 1172 4494 
L 1172 3500 
L 2356 3500 
L 2356 3053 
L 1172 3053 
L 1172 1153 
Q 1172 725 1289 603 
Q 1406 481 1766 481 
L 2356 481 
L 2356 0 
L 1766 0 
Q 1100 0 847 248 
Q 594 497 594 1153 
L 594 3053 
L 172 3053 
L 172 3500 
L 594 3500 
L 594 4494 
L 1172 4494 
z
" transform="scale(0.015625)"/>
       <path id="DejaVuSans-6d" d="M 3328 2828 
Q 3544 3216 3844 3400 
Q 4144 3584 4550 3584 
Q 5097 3584 5394 3201 
Q 5691 2819 5691 2113 
L 5691 0 
L 5113 0 
L 5113 2094 
Q 5113 2597 4934 2840 
Q 4756 3084 4391 3084 
Q 3944 3084 3684 2787 
Q 3425 2491 3425 1978 
L 3425 0 
L 2847 0 
L 2847 2094 
Q 2847 2600 2669 2842 
Q 2491 3084 2119 3084 
Q 1678 3084 1418 2786 
Q 1159 2488 1159 1978 
L 1159 0 
L 581 0 
L 581 3500 
L 1159 3500 
L 1159 2956 
Q 1356 3278 1631 3431 
Q 1906 3584 2284 3584 
Q 2666 3584 2933 3390 
Q 3200 3197 3328 2828 
z
" transform="scale(0.015625)"/>
       <path id="DejaVuSans-20" transform="scale(0.015625)"/>
       <path id="DejaVuSans-28" d="M 1984 4856 
Q 1566 4138 1362 3434 
Q 1159 2731 1159 2009 
Q 1159 1288 1364 580 
Q 1569 -128 1984 -844 
L 1484 -844 
Q 1016 -109 783 600 
Q 550 1309 550 2009 
Q 550 2706 781 3412 
Q 1013 4119 1484 4856 
L 1984 4856 
z
" transform="scale(0.015625)"/>
       <path id="DejaVuSans-29" d="M 513 4856 
L 1013 4856 
Q 1481 4119 1714 3412 
Q 1947 2706 1947 2009 
Q 1947 1309 1714 600 
Q 1481 -109 1013 -844 
L 513 -844 
Q 928 -128 1133 580 
Q 1338 1288 1338 2009 
Q 1338 2731 1133 3434 
Q 928 4138 513 4856 
z
" transform="scale(0.015625)"/>
      </defs>
      <use xlink:href="#DejaVuSans-74"/>
      <use xlink:href="#DejaVuSans-69" x="39.208984"/>
      <use xlink:href="#DejaVuSans-6d" x="66.992188"/>
      <use xlink:href="#DejaVuSans-65" x="164.404297"/>
      <use xlink:href="#DejaVuSans-20" x="225.927734"/>
      <use xlink:href="#DejaVuSans-28" x="257.714844"/>
      <use xlink:href="#DejaVuSans-6d" x="296.728516"/>
      <use xlink:href="#DejaVuSans-73" x="394.140625"/>
      <use xlink:href="#DejaVuSans-29" x="446.240234"/>
     </g>
    </g>
   </g>
   <g id="line2d_65">
    <path d="M 115.363636 360.292625 
L 122.98543 360.888799 
L 131.45409 361.328382 
L 140.769616 361.571668 
L 150.932008 361.590313 
L 161.941266 361.374943 
L 177.184854 361.067711 
L 183.959781 361.152516 
L 190.734709 361.457459 
L 196.662771 361.928901 
L 202.590833 362.610758 
L 211.059493 363.859917 
L 223.762483 365.743155 
L 229.690545 366.391224 
L 234.771741 366.746386 
L 239.852937 366.86806 
L 244.087267 366.759856 
L 250.015329 366.362875 
L 258.483988 365.79864 
L 262.718318 365.742723 
L 266.952648 365.949921 
L 272.88071 366.537405 
L 280.502504 367.296685 
L 284.736834 367.47439 
L 288.971164 367.369433 
L 294.899226 366.929214 
L 302.52102 366.365964 
L 306.75535 366.299432 
L 310.98968 366.50144 
L 316.070876 367.013766 
L 323.69267 368.075893 
L 332.161329 369.230668 
L 338.089391 369.836434 
L 343.170587 370.158959 
L 348.251783 370.252162 
L 353.332979 370.110775 
L 366.882835 369.583565 
L 371.117165 369.692951 
L 376.198361 370.078079 
L 384.667021 371.013538 
L 391.441949 371.685648 
L 397.370011 372.041004 
L 404.991805 372.255556 
L 430.397784 372.739843 
L 437.172712 373.171277 
L 446.488238 374.005815 
L 465.966156 375.815488 
L 476.975414 376.580953 
L 486.290939 377.010041 
L 494.759599 377.192967 
L 504.075125 377.163934 
L 520.165579 377.076281 
L 527.787373 377.278855 
L 534.562301 377.684459 
L 540.490363 378.25318 
L 552.346487 379.514557 
L 556.580817 379.723397 
L 559.96828 379.702677 
L 565.049476 379.401399 
L 570.130672 379.14457 
L 573.518136 379.216864 
L 576.058734 379.492269 
L 578.599332 380.018803 
L 581.13993 380.850674 
L 584.527394 382.35295 
L 588.761724 384.249194 
L 590.455456 384.830017 
L 592.149188 385.223567 
L 593.84292 385.372679 
L 595.536652 385.22019 
L 597.230384 384.708937 
L 598.924116 383.781757 
L 600.617848 382.381485 
L 602.31158 380.450959 
L 604.005312 377.933015 
L 605.699044 374.770489 
L 607.392776 370.906218 
L 609.086508 366.283039 
L 610.78024 360.843788 
L 612.473972 354.531301 
L 614.167704 347.288415 
L 615.861436 339.057967 
L 617.555168 329.782792 
L 619.2489 319.405729 
L 620.942632 307.869612 
L 622.636364 295.117279 
L 622.636364 295.117279 
" clip-path="url(#pae11f8cba3)" style="fill: none; stroke: #8dd3c7; stroke-width: 1.5; stroke-linecap: square"/>
   </g>
   <g id="line2d_66">
    <path d="M 115.363636 347.48704 
L 117.057368 349.860709 
L 118.7511 351.968756 
L 120.444832 353.82473 
L 122.138564 355.44218 
L 123.832296 356.834653 
L 125.526028 358.015698 
L 127.21976 358.998864 
L 128.913492 359.797699 
L 130.607224 360.425751 
L 133.147822 361.077248 
L 135.68842 361.420694 
L 138.229018 361.501814 
L 140.769616 361.366334 
L 144.15708 360.927793 
L 148.39141 360.117552 
L 156.86007 358.427958 
L 160.247534 358.016667 
L 163.634998 357.823847 
L 167.022462 357.827489 
L 171.256792 358.074388 
L 175.491122 358.549959 
L 180.572317 359.361071 
L 187.347245 360.708705 
L 200.050235 363.295033 
L 205.978297 364.214824 
L 212.753225 365.025401 
L 222.068751 365.88709 
L 231.384277 366.553993 
L 237.312339 366.772054 
L 242.393535 366.76034 
L 248.321597 366.488699 
L 268.64638 365.262095 
L 275.421308 365.248124 
L 283.889968 365.458785 
L 293.205494 365.893735 
L 299.133556 366.368558 
L 304.214752 366.967774 
L 309.295948 367.780841 
L 321.152072 369.812686 
L 325.386402 370.262495 
L 328.773866 370.408986 
L 333.008195 370.328437 
L 338.089391 369.953302 
L 347.404917 368.933738 
L 354.179845 368.322964 
L 359.261041 368.092371 
L 363.495371 368.110215 
L 367.729701 368.365709 
L 371.964031 368.891475 
L 378.738959 370.059493 
L 383.820155 370.877089 
L 387.207619 371.248393 
L 390.595083 371.389953 
L 393.982547 371.267421 
L 398.216877 370.870107 
L 406.685537 370.013704 
L 410.073 369.928849 
L 412.613598 370.054043 
L 416.001062 370.473316 
L 420.235392 371.275292 
L 431.24465 373.558885 
L 434.632114 373.96439 
L 438.866444 374.195464 
L 444.794506 374.228531 
L 452.4163 374.283685 
L 456.65063 374.555111 
L 461.731826 375.125277 
L 478.669146 377.266484 
L 483.750341 377.574375 
L 489.678403 377.691909 
L 495.606465 377.565305 
L 503.228259 377.123195 
L 512.543785 376.609113 
L 517.624981 376.569085 
L 522.706177 376.793093 
L 528.634239 377.297458 
L 547.265291 379.094087 
L 553.193353 379.33251 
L 558.274548 379.292936 
L 564.20261 378.957503 
L 569.283806 378.746729 
L 572.67127 378.850563 
L 575.211868 379.13911 
L 577.752466 379.662553 
L 580.293064 380.469781 
L 582.833662 381.572544 
L 588.761724 384.378105 
L 590.455456 384.98134 
L 592.149188 385.391256 
L 593.84292 385.550491 
L 595.536652 385.401683 
L 597.230384 384.887472 
L 598.924116 383.950495 
L 600.617848 382.533393 
L 602.31158 380.578802 
L 604.005312 378.029362 
L 605.699044 374.827712 
L 607.392776 370.91649 
L 609.086508 366.238334 
L 610.78024 360.735884 
L 612.473972 354.351778 
L 614.167704 347.028655 
L 615.861436 338.709152 
L 617.555168 329.33591 
L 619.2489 318.851566 
L 620.942632 307.198759 
L 622.636364 294.320128 
L 622.636364 294.320128 
" clip-path="url(#pae11f8cba3)" style="fill: none; stroke: #feffb3; stroke-width: 1.5; stroke-linecap: square"/>
   </g>
   <g id="line2d_67">
    <path d="M 115.363636 350.333828 
L 117.904234 352.800946 
L 120.444832 354.846093 
L 122.98543 356.504638 
L 125.526028 357.811948 
L 128.066626 358.803392 
L 130.607224 359.514336 
L 133.147822 359.98015 
L 135.68842 360.236202 
L 139.075884 360.312437 
L 142.463348 360.162472 
L 147.544544 359.696791 
L 154.319472 359.066649 
L 157.706936 358.93625 
L 161.0944 359.016935 
L 165.32873 359.367308 
L 171.256792 360.146983 
L 181.419183 361.554759 
L 188.194111 362.205802 
L 212.753225 364.311653 
L 221.221885 365.357917 
L 233.078009 366.883252 
L 237.312339 367.195633 
L 240.699803 367.270332 
L 244.087267 367.148894 
L 248.321597 366.760604 
L 261.024586 365.388234 
L 264.41205 365.319068 
L 267.799514 365.460484 
L 272.88071 365.915963 
L 280.502504 366.639854 
L 283.889968 366.782007 
L 287.277432 366.721174 
L 292.358628 366.347429 
L 300.827288 365.636526 
L 304.214752 365.554401 
L 307.602216 365.702649 
L 310.98968 366.078892 
L 315.22401 366.773919 
L 329.620732 369.380887 
L 334.701927 369.894082 
L 339.783123 370.166128 
L 345.711185 370.230389 
L 352.486113 370.051535 
L 366.882835 369.575288 
L 371.964031 369.661072 
L 378.738959 370.03695 
L 395.676279 371.13372 
L 405.838671 371.435638 
L 421.929124 371.897187 
L 428.704052 372.303783 
L 434.632114 372.85816 
L 443.100774 373.919501 
L 453.263166 375.17316 
L 460.038094 375.749266 
L 467.659888 376.153914 
L 478.669146 376.481793 
L 494.759599 376.732169 
L 513.390651 377.017281 
L 521.012445 377.384822 
L 531.174837 378.133554 
L 546.418425 379.256283 
L 553.193353 379.496562 
L 558.274548 379.468066 
L 571.824404 379.150036 
L 574.365002 379.399254 
L 576.9056 379.856404 
L 579.446198 380.566662 
L 581.986796 381.565019 
L 589.60859 384.960538 
L 591.302322 385.438192 
L 592.996054 385.693728 
L 594.689786 385.671105 
L 596.383518 385.314281 
L 598.07725 384.567213 
L 599.770982 383.37386 
L 601.464714 381.678179 
L 603.158446 379.42413 
L 604.852178 376.555668 
L 606.54591 373.016754 
L 608.239642 368.751344 
L 609.933374 363.703397 
L 611.627106 357.81687 
L 613.320838 351.035722 
L 615.01457 343.303911 
L 616.708302 334.565394 
L 618.402034 324.76413 
L 620.095766 313.844077 
L 621.789498 301.749193 
L 622.636364 295.243676 
L 622.636364 295.243676 
" clip-path="url(#pae11f8cba3)" style="fill: none; stroke: #bfbbd9; stroke-width: 1.5; stroke-linecap: square"/>
   </g>
   <g id="line2d_68">
    <path d="M 115.363636 356.767159 
L 118.7511 356.53865 
L 122.138564 356.506958 
L 126.372894 356.701654 
L 131.45409 357.207087 
L 137.382152 358.052614 
L 155.166338 360.791303 
L 160.247534 361.233586 
L 165.32873 361.442771 
L 172.103658 361.490643 
L 187.347245 361.511048 
L 194.122173 361.774758 
L 200.050235 362.229433 
L 205.978297 362.914496 
L 222.915617 365.021841 
L 228.843679 365.438022 
L 236.465473 365.739644 
L 252.555927 366.06285 
L 268.64638 366.473221 
L 282.196236 367.06093 
L 295.746092 367.873207 
L 322.845804 369.614438 
L 327.927 369.629875 
L 334.701927 369.391775 
L 344.017453 369.06395 
L 349.098649 369.136468 
L 354.179845 369.468011 
L 371.964031 370.893485 
L 377.892093 370.955892 
L 398.216877 370.939447 
L 405.838671 371.28593 
L 414.30733 371.914251 
L 436.325846 373.744668 
L 457.497496 374.993509 
L 472.741084 376.275895 
L 478.669146 376.481205 
L 485.444073 376.472428 
L 503.228259 376.330621 
L 510.850053 376.544032 
L 518.471847 376.965713 
L 532.021703 378.028811 
L 539.643497 378.509949 
L 546.418425 378.725725 
L 553.193353 378.737646 
L 560.815146 378.519593 
L 566.743208 378.348677 
L 570.130672 378.434047 
L 573.518136 378.766844 
L 576.058734 379.233826 
L 578.599332 379.930004 
L 581.13993 380.892889 
L 584.527394 382.49756 
L 587.914858 384.083498 
L 590.455456 384.9952 
L 592.149188 385.367314 
L 593.84292 385.486524 
L 595.536652 385.297671 
L 597.230384 384.745594 
L 598.924116 383.775134 
L 600.617848 382.33113 
L 602.31158 380.358423 
L 604.005312 377.801851 
L 605.699044 374.606257 
L 607.392776 370.716479 
L 609.086508 366.077357 
L 610.78024 360.633731 
L 612.473972 354.330442 
L 614.167704 347.112329 
L 615.861436 338.924232 
L 617.555168 329.710992 
L 619.2489 319.417448 
L 620.942632 307.98844 
L 622.636364 295.368808 
L 622.636364 295.368808 
" clip-path="url(#pae11f8cba3)" style="fill: none; stroke: #fa8174; stroke-width: 1.5; stroke-linecap: square"/>
   </g>
   <g id="line2d_69">
    <path d="M 115.363636 359.37253 
L 121.291698 359.472551 
L 128.913492 359.365244 
L 148.39141 358.966383 
L 154.319472 359.117896 
L 159.400668 359.45383 
L 166.175596 360.170008 
L 178.03172 361.50053 
L 183.959781 361.89967 
L 200.897101 362.843646 
L 206.825163 363.53051 
L 227.149947 366.130858 
L 233.924875 366.613066 
L 240.699803 366.852313 
L 247.474731 366.858006 
L 257.637122 366.600777 
L 270.340112 366.303135 
L 278.808772 366.331397 
L 286.430566 366.587292 
L 294.05236 367.088414 
L 302.52102 367.894819 
L 314.377144 369.308087 
L 321.152072 369.999793 
L 326.233268 370.311992 
L 331.314463 370.378276 
L 338.089391 370.213217 
L 348.251783 369.970122 
L 354.179845 370.087021 
L 364.342237 370.56489 
L 372.810897 370.890031 
L 382.126423 370.996414 
L 408.379268 371.071784 
L 414.30733 371.433788 
L 421.082258 372.099223 
L 431.24465 373.367863 
L 443.100774 374.815451 
L 449.875702 375.440258 
L 455.803764 375.777639 
L 462.578692 375.921383 
L 474.434816 375.884032 
L 485.444073 375.937759 
L 494.759599 376.202404 
L 504.075125 376.705649 
L 517.624981 377.447973 
L 528.634239 377.749118 
L 537.949765 378.087667 
L 548.959023 378.811452 
L 554.887085 379.079003 
L 559.96828 379.072298 
L 570.977538 378.794299 
L 573.518136 378.972305 
L 576.058734 379.343126 
L 578.599332 379.955082 
L 581.13993 380.855367 
L 584.527394 382.418629 
L 588.761724 384.3569 
L 590.455456 384.948396 
L 592.149188 385.351217 
L 593.84292 385.509603 
L 595.536652 385.367794 
L 597.230384 384.870031 
L 598.924116 383.960554 
L 600.617848 382.583604 
L 602.31158 380.683421 
L 604.005312 378.204246 
L 605.699044 375.090318 
L 607.392776 371.285878 
L 609.086508 366.735167 
L 610.78024 361.382424 
L 612.473972 355.171891 
L 614.167704 348.047808 
L 615.861436 339.954414 
L 617.555168 330.835951 
L 619.2489 320.636659 
L 620.942632 309.300777 
L 622.636364 296.772548 
L 622.636364 296.772548 
" clip-path="url(#pae11f8cba3)" style="fill: none; stroke: #81b1d2; stroke-width: 1.5; stroke-linecap: square"/>
   </g>
   <g id="line2d_70">
    <path d="M 115.363636 359.14009 
L 121.291698 359.450332 
L 128.913492 359.613702 
L 150.932008 359.912105 
L 156.86007 360.282132 
L 162.788132 360.879359 
L 173.79739 362.05811 
L 178.03172 362.307752 
L 182.266049 362.344434 
L 189.040977 362.116447 
L 196.662771 361.897598 
L 200.897101 362.003231 
L 205.131431 362.350067 
L 210.212627 363.012037 
L 217.834421 364.280023 
L 227.149947 365.807049 
L 233.078009 366.54102 
L 238.159205 366.921415 
L 242.393535 367.009682 
L 246.627865 366.872374 
L 253.402793 366.372967 
L 261.871452 365.770431 
L 266.105782 365.681873 
L 271.186978 365.794087 
L 279.655638 366.254258 
L 288.124298 366.666378 
L 300.827288 367.192841 
L 305.908484 367.632707 
L 311.836546 368.416243 
L 323.69267 370.076818 
L 327.927 370.419557 
L 332.161329 370.542325 
L 337.242525 370.466275 
L 344.864319 370.095792 
L 355.873577 369.570783 
L 362.648505 369.459213 
L 368.576567 369.569483 
L 374.504629 369.902684 
L 391.441949 371.032472 
L 398.216877 371.127442 
L 413.460464 371.218865 
L 420.235392 371.55853 
L 427.01032 372.125071 
L 433.785248 372.901739 
L 454.110032 375.462253 
L 460.038094 375.840589 
L 466.813022 376.017754 
L 474.434816 375.982625 
L 492.219001 375.774975 
L 497.300197 375.975679 
L 504.075125 376.507808 
L 515.931249 377.509119 
L 521.859311 377.732246 
L 537.949765 378.13151 
L 543.877827 378.651765 
L 553.193353 379.508041 
L 557.427683 379.662967 
L 560.815146 379.586881 
L 572.67127 379.041935 
L 575.211868 379.240854 
L 577.752466 379.677377 
L 580.293064 380.408283 
L 582.833662 381.452079 
L 589.60859 384.5175 
L 591.302322 385.037967 
L 592.996054 385.345629 
L 594.689786 385.38326 
L 596.383518 385.093635 
L 598.07725 384.419527 
L 599.770982 383.303712 
L 601.464714 381.688964 
L 603.158446 379.518058 
L 604.852178 376.733769 
L 606.54591 373.278871 
L 608.239642 369.096138 
L 609.933374 364.128345 
L 611.627106 358.318268 
L 613.320838 351.608679 
L 615.01457 343.942355 
L 616.708302 335.26207 
L 618.402034 325.510597 
L 620.095766 314.630713 
L 621.789498 302.565191 
L 622.636364 296.069933 
L 622.636364 296.069933 
" clip-path="url(#pae11f8cba3)" style="fill: none; stroke: #fdb462; stroke-width: 1.5; stroke-linecap: square"/>
   </g>
   <g id="patch_3">
    <path d="M 90 384.48 
L 90 51.84 
" style="fill: none; stroke: #ffffff; stroke-width: 0.8; stroke-linejoin: miter; stroke-linecap: square"/>
   </g>
   <g id="patch_4">
    <path d="M 648 384.48 
L 648 51.84 
" style="fill: none; stroke: #ffffff; stroke-width: 0.8; stroke-linejoin: miter; stroke-linecap: square"/>
   </g>
   <g id="patch_5">
    <path d="M 90 384.48 
L 648 384.48 
" style="fill: none; stroke: #ffffff; stroke-width: 0.8; stroke-linejoin: miter; stroke-linecap: square"/>
   </g>
   <g id="patch_6">
    <path d="M 90 51.84 
L 648 51.84 
" style="fill: none; stroke: #ffffff; stroke-width: 0.8; stroke-linejoin: miter; stroke-linecap: square"/>
   </g>
   <g id="text_35">
    <!-- caio.python_aio_asyncio - write (Time vs Chunk Size) -->
    <g style="fill: #ffffff" transform="translate(209.969063 45.84) scale(0.12 -0.12)">
     <defs>
      <path id="DejaVuSans-61" d="M 2194 1759 
Q 1497 1759 1228 1600 
Q 959 1441 959 1056 
Q 959 750 1161 570 
Q 1363 391 1709 391 
Q 2188 391 2477 730 
Q 2766 1069 2766 1631 
L 2766 1759 
L 2194 1759 
z
M 3341 1997 
L 3341 0 
L 2766 0 
L 2766 531 
Q 2569 213 2275 61 
Q 1981 -91 1556 -91 
Q 1019 -91 701 211 
Q 384 513 384 1019 
Q 384 1609 779 1909 
Q 1175 2209 1959 2209 
L 2766 2209 
L 2766 2266 
Q 2766 2663 2505 2880 
Q 2244 3097 1772 3097 
Q 1472 3097 1187 3025 
Q 903 2953 641 2809 
L 641 3341 
Q 956 3463 1253 3523 
Q 1550 3584 1831 3584 
Q 2591 3584 2966 3190 
Q 3341 2797 3341 1997 
z
" transform="scale(0.015625)"/>
      <path id="DejaVuSans-6f" d="M 1959 3097 
Q 1497 3097 1228 2736 
Q 959 2375 959 1747 
Q 959 1119 1226 758 
Q 1494 397 1959 397 
Q 2419 397 2687 759 
Q 2956 1122 2956 1747 
Q 2956 2369 2687 2733 
Q 2419 3097 1959 3097 
z
M 1959 3584 
Q 2709 3584 3137 3096 
Q 3566 2609 3566 1747 
Q 3566 888 3137 398 
Q 2709 -91 1959 -91 
Q 1206 -91 779 398 
Q 353 888 353 1747 
Q 353 2609 779 3096 
Q 1206 3584 1959 3584 
z
" transform="scale(0.015625)"/>
      <path id="DejaVuSans-2e" d="M 684 794 
L 1344 794 
L 1344 0 
L 684 0 
L 684 794 
z
" transform="scale(0.015625)"/>
      <path id="DejaVuSans-70" d="M 1159 525 
L 1159 -1331 
L 581 -1331 
L 581 3500 
L 1159 3500 
L 1159 2969 
Q 1341 3281 1617 3432 
Q 1894 3584 2278 3584 
Q 2916 3584 3314 3078 
Q 3713 2572 3713 1747 
Q 3713 922 3314 415 
Q 2916 -91 2278 -91 
Q 1894 -91 1617 61 
Q 1341 213 1159 525 
z
M 3116 1747 
Q 3116 2381 2855 2742 
Q 2594 3103 2138 3103 
Q 1681 3103 1420 2742 
Q 1159 2381 1159 1747 
Q 1159 1113 1420 752 
Q 1681 391 2138 391 
Q 2594 391 2855 752 
Q 3116 1113 3116 1747 
z
" transform="scale(0.015625)"/>
      <path id="DejaVuSans-79" d="M 2059 -325 
Q 1816 -950 1584 -1140 
Q 1353 -1331 966 -1331 
L 506 -1331 
L 506 -850 
L 844 -850 
Q 1081 -850 1212 -737 
Q 1344 -625 1503 -206 
L 1606 56 
L 191 3500 
L 800 3500 
L 1894 763 
L 2988 3500 
L 3597 3500 
L 2059 -325 
z
" transform="scale(0.015625)"/>
      <path id="DejaVuSans-2d" d="M 313 2009 
L 1997 2009 
L 1997 1497 
L 313 1497 
L 313 2009 
z
" transform="scale(0.015625)"/>
      <path id="DejaVuSans-77" d="M 269 3500 
L 844 3500 
L 1563 769 
L 2278 3500 
L 2956 3500 
L 3675 769 
L 4391 3500 
L 4966 3500 
L 4050 0 
L 3372 0 
L 2619 2869 
L 1863 0 
L 1184 0 
L 269 3500 
z
" transform="scale(0.015625)"/>
      <path id="DejaVuSans-72" d="M 2631 2963 
Q 2534 3019 2420 3045 
Q 2306 3072 2169 3072 
Q 1681 3072 1420 2755 
Q 1159 2438 1159 1844 
L 1159 0 
L 581 0 
L 581 3500 
L 1159 3500 
L 1159 2956 
Q 1341 3275 1631 3429 
Q 1922 3584 2338 3584 
Q 2397 3584 2469 3576 
Q 2541 3569 2628 3553 
L 2631 2963 
z
" transform="scale(0.015625)"/>
      <path id="DejaVuSans-54" d="M -19 4666 
L 3928 4666 
L 3928 4134 
L 2272 4134 
L 2272 0 
L 1638 0 
L 1638 4134 
L -19 4134 
L -19 4666 
z
" transform="scale(0.015625)"/>
      <path id="DejaVuSans-76" d="M 191 3500 
L 800 3500 
L 1894 563 
L 2988 3500 
L 3597 3500 
L 2284 0 
L 1503 0 
L 191 3500 
z
" transform="scale(0.015625)"/>
      <path id="DejaVuSans-43" d="M 4122 4306 
L 4122 3641 
Q 3803 3938 3442 4084 
Q 3081 4231 2675 4231 
Q 1875 4231 1450 3742 
Q 1025 3253 1025 2328 
Q 1025 1406 1450 917 
Q 1875 428 2675 428 
Q 3081 428 3442 575 
Q 3803 722 4122 1019 
L 4122 359 
Q 3791 134 3420 21 
Q 3050 -91 2638 -91 
Q 1578 -91 968 557 
Q 359 1206 359 2328 
Q 359 3453 968 4101 
Q 1578 4750 2638 4750 
Q 3056 4750 3426 4639 
Q 3797 4528 4122 4306 
z
" transform="scale(0.015625)"/>
      <path id="DejaVuSans-53" d="M 3425 4513 
L 3425 3897 
Q 3066 4069 2747 4153 
Q 2428 4238 2131 4238 
Q 1616 4238 1336 4038 
Q 1056 3838 1056 3469 
Q 1056 3159 1242 3001 
Q 1428 2844 1947 2747 
L 2328 2669 
Q 3034 2534 3370 2195 
Q 3706 1856 3706 1288 
Q 3706 609 3251 259 
Q 2797 -91 1919 -91 
Q 1588 -91 1214 -16 
Q 841 59 441 206 
L 441 856 
Q 825 641 1194 531 
Q 1563 422 1919 422 
Q 2459 422 2753 634 
Q 3047 847 3047 1241 
Q 3047 1584 2836 1778 
Q 2625 1972 2144 2069 
L 1759 2144 
Q 1053 2284 737 2584 
Q 422 2884 422 3419 
Q 422 4038 858 4394 
Q 1294 4750 2059 4750 
Q 2388 4750 2728 4690 
Q 3069 4631 3425 4513 
z
" transform="scale(0.015625)"/>
     </defs>
     <use xlink:href="#DejaVuSans-63"/>
     <use xlink:href="#DejaVuSans-61" x="54.980469"/>
     <use xlink:href="#DejaVuSans-69" x="116.259766"/>
     <use xlink:href="#DejaVuSans-6f" x="144.042969"/>
     <use xlink:href="#DejaVuSans-2e" x="203.474609"/>
     <use xlink:href="#DejaVuSans-70" x="235.261719"/>
     <use xlink:href="#DejaVuSans-79" x="298.738281"/>
     <use xlink:href="#DejaVuSans-74" x="357.917969"/>
     <use xlink:href="#DejaVuSans-68" x="397.126953"/>
     <use xlink:href="#DejaVuSans-6f" x="460.505859"/>
     <use xlink:href="#DejaVuSans-6e" x="521.6875"/>
     <use xlink:href="#DejaVuSans-5f" x="585.066406"/>
     <use xlink:href="#DejaVuSans-61" x="635.066406"/>
     <use xlink:href="#DejaVuSans-69" x="696.345703"/>
     <use xlink:href="#DejaVuSans-6f" x="724.128906"/>
     <use xlink:href="#DejaVuSans-5f" x="785.310547"/>
     <use xlink:href="#DejaVuSans-61" x="835.310547"/>
     <use xlink:href="#DejaVuSans-73" x="896.589844"/>
     <use xlink:href="#DejaVuSans-79" x="948.689453"/>
     <use xlink:href="#DejaVuSans-6e" x="1007.869141"/>
     <use xlink:href="#DejaVuSans-63" x="1071.248047"/>
     <use xlink:href="#DejaVuSans-69" x="1126.228516"/>
     <use xlink:href="#DejaVuSans-6f" x="1154.011719"/>
     <use xlink:href="#DejaVuSans-20" x="1215.193359"/>
     <use xlink:href="#DejaVuSans-2d" x="1246.980469"/>
     <use xlink:href="#DejaVuSans-20" x="1283.064453"/>
     <use xlink:href="#DejaVuSans-77" x="1314.851562"/>
     <use xlink:href="#DejaVuSans-72" x="1396.638672"/>
     <use xlink:href="#DejaVuSans-69" x="1437.751953"/>
     <use xlink:href="#DejaVuSans-74" x="1465.535156"/>
     <use xlink:href="#DejaVuSans-65" x="1504.744141"/>
     <use xlink:href="#DejaVuSans-20" x="1566.267578"/>
     <use xlink:href="#DejaVuSans-28" x="1598.054688"/>
     <use xlink:href="#DejaVuSans-54" x="1637.068359"/>
     <use xlink:href="#DejaVuSans-69" x="1695.027344"/>
     <use xlink:href="#DejaVuSans-6d" x="1722.810547"/>
     <use xlink:href="#DejaVuSans-65" x="1820.222656"/>
     <use xlink:href="#DejaVuSans-20" x="1881.746094"/>
     <use xlink:href="#DejaVuSans-76" x="1913.533203"/>
     <use xlink:href="#DejaVuSans-73" x="1972.712891"/>
     <use xlink:href="#DejaVuSans-20" x="2024.8125"/>
     <use xlink:href="#DejaVuSans-43" x="2056.599609"/>
     <use xlink:href="#DejaVuSans-68" x="2126.423828"/>
     <use xlink:href="#DejaVuSans-75" x="2189.802734"/>
     <use xlink:href="#DejaVuSans-6e" x="2253.181641"/>
     <use xlink:href="#DejaVuSans-6b" x="2316.560547"/>
     <use xlink:href="#DejaVuSans-20" x="2374.470703"/>
     <use xlink:href="#DejaVuSans-53" x="2406.257812"/>
     <use xlink:href="#DejaVuSans-69" x="2469.734375"/>
     <use xlink:href="#DejaVuSans-7a" x="2497.517578"/>
     <use xlink:href="#DejaVuSans-65" x="2550.007812"/>
     <use xlink:href="#DejaVuSans-29" x="2611.53125"/>
    </g>
   </g>
   <g id="legend_1">
    <g id="patch_7">
     <path d="M 543.43125 149.5775 
L 641 149.5775 
Q 643 149.5775 643 147.5775 
L 643 58.84 
Q 643 56.84 641 56.84 
L 543.43125 56.84 
Q 541.43125 56.84 541.43125 58.84 
L 541.43125 147.5775 
Q 541.43125 149.5775 543.43125 149.5775 
z
" style="opacity: 0.8; stroke: #cccccc; stroke-linejoin: miter"/>
    </g>
    <g id="line2d_71">
     <path d="M 545.43125 64.938437 
L 555.43125 64.938437 
L 565.43125 64.938437 
" style="fill: none; stroke: #8dd3c7; stroke-width: 1.5; stroke-linecap: square"/>
    </g>
    <g id="text_36">
     <!-- max_ops=1 -->
     <g style="fill: #ffffff" transform="translate(573.43125 68.438437) scale(0.1 -0.1)">
      <defs>
       <path id="DejaVuSans-78" d="M 3513 3500 
L 2247 1797 
L 3578 0 
L 2900 0 
L 1881 1375 
L 863 0 
L 184 0 
L 1544 1831 
L 300 3500 
L 978 3500 
L 1906 2253 
L 2834 3500 
L 3513 3500 
z
" transform="scale(0.015625)"/>
       <path id="DejaVuSans-3d" d="M 678 2906 
L 4684 2906 
L 4684 2381 
L 678 2381 
L 678 2906 
z
M 678 1631 
L 4684 1631 
L 4684 1100 
L 678 1100 
L 678 1631 
z
" transform="scale(0.015625)"/>
      </defs>
      <use xlink:href="#DejaVuSans-6d"/>
      <use xlink:href="#DejaVuSans-61" x="97.412109"/>
      <use xlink:href="#DejaVuSans-78" x="158.691406"/>
      <use xlink:href="#DejaVuSans-5f" x="217.871094"/>
      <use xlink:href="#DejaVuSans-6f" x="267.871094"/>
      <use xlink:href="#DejaVuSans-70" x="329.052734"/>
      <use xlink:href="#DejaVuSans-73" x="392.529297"/>
      <use xlink:href="#DejaVuSans-3d" x="444.628906"/>
      <use xlink:href="#DejaVuSans-31" x="528.417969"/>
     </g>
    </g>
    <g id="line2d_72">
     <path d="M 545.43125 79.894687 
L 555.43125 79.894687 
L 565.43125 79.894687 
" style="fill: none; stroke: #feffb3; stroke-width: 1.5; stroke-linecap: square"/>
    </g>
    <g id="text_37">
     <!-- max_ops=4 -->
     <g style="fill: #ffffff" transform="translate(573.43125 83.394687) scale(0.1 -0.1)">
      <use xlink:href="#DejaVuSans-6d"/>
      <use xlink:href="#DejaVuSans-61" x="97.412109"/>
      <use xlink:href="#DejaVuSans-78" x="158.691406"/>
      <use xlink:href="#DejaVuSans-5f" x="217.871094"/>
      <use xlink:href="#DejaVuSans-6f" x="267.871094"/>
      <use xlink:href="#DejaVuSans-70" x="329.052734"/>
      <use xlink:href="#DejaVuSans-73" x="392.529297"/>
      <use xlink:href="#DejaVuSans-3d" x="444.628906"/>
      <use xlink:href="#DejaVuSans-34" x="528.417969"/>
     </g>
    </g>
    <g id="line2d_73">
     <path d="M 545.43125 94.850937 
L 555.43125 94.850937 
L 565.43125 94.850937 
" style="fill: none; stroke: #bfbbd9; stroke-width: 1.5; stroke-linecap: square"/>
    </g>
    <g id="text_38">
     <!-- max_ops=8 -->
     <g style="fill: #ffffff" transform="translate(573.43125 98.350937) scale(0.1 -0.1)">
      <use xlink:href="#DejaVuSans-6d"/>
      <use xlink:href="#DejaVuSans-61" x="97.412109"/>
      <use xlink:href="#DejaVuSans-78" x="158.691406"/>
      <use xlink:href="#DejaVuSans-5f" x="217.871094"/>
      <use xlink:href="#DejaVuSans-6f" x="267.871094"/>
      <use xlink:href="#DejaVuSans-70" x="329.052734"/>
      <use xlink:href="#DejaVuSans-73" x="392.529297"/>
      <use xlink:href="#DejaVuSans-3d" x="444.628906"/>
      <use xlink:href="#DejaVuSans-38" x="528.417969"/>
     </g>
    </g>
    <g id="line2d_74">
     <path d="M 545.43125 109.807187 
L 555.43125 109.807187 
L 565.43125 109.807187 
" style="fill: none; stroke: #fa8174; stroke-width: 1.5; stroke-linecap: square"/>
    </g>
    <g id="text_39">
     <!-- max_ops=16 -->
     <g style="fill: #ffffff" transform="translate(573.43125 113.307187) scale(0.1 -0.1)">
      <use xlink:href="#DejaVuSans-6d"/>
      <use xlink:href="#DejaVuSans-61" x="97.412109"/>
      <use xlink:href="#DejaVuSans-78" x="158.691406"/>
      <use xlink:href="#DejaVuSans-5f" x="217.871094"/>
      <use xlink:href="#DejaVuSans-6f" x="267.871094"/>
      <use xlink:href="#DejaVuSans-70" x="329.052734"/>
      <use xlink:href="#DejaVuSans-73" x="392.529297"/>
      <use xlink:href="#DejaVuSans-3d" x="444.628906"/>
      <use xlink:href="#DejaVuSans-31" x="528.417969"/>
      <use xlink:href="#DejaVuSans-36" x="592.041016"/>
     </g>
    </g>
    <g id="line2d_75">
     <path d="M 545.43125 124.763437 
L 555.43125 124.763437 
L 565.43125 124.763437 
" style="fill: none; stroke: #81b1d2; stroke-width: 1.5; stroke-linecap: square"/>
    </g>
    <g id="text_40">
     <!-- max_ops=32 -->
     <g style="fill: #ffffff" transform="translate(573.43125 128.263437) scale(0.1 -0.1)">
      <use xlink:href="#DejaVuSans-6d"/>
      <use xlink:href="#DejaVuSans-61" x="97.412109"/>
      <use xlink:href="#DejaVuSans-78" x="158.691406"/>
      <use xlink:href="#DejaVuSans-5f" x="217.871094"/>
      <use xlink:href="#DejaVuSans-6f" x="267.871094"/>
      <use xlink:href="#DejaVuSans-70" x="329.052734"/>
      <use xlink:href="#DejaVuSans-73" x="392.529297"/>
      <use xlink:href="#DejaVuSans-3d" x="444.628906"/>
      <use xlink:href="#DejaVuSans-33" x="528.417969"/>
      <use xlink:href="#DejaVuSans-32" x="592.041016"/>
     </g>
    </g>
    <g id="line2d_76">
     <path d="M 545.43125 139.719687 
L 555.43125 139.719687 
L 565.43125 139.719687 
" style="fill: none; stroke: #fdb462; stroke-width: 1.5; stroke-linecap: square"/>
    </g>
    <g id="text_41">
     <!-- max_ops=64 -->
     <g style="fill: #ffffff" transform="translate(573.43125 143.219687) scale(0.1 -0.1)">
      <use xlink:href="#DejaVuSans-6d"/>
      <use xlink:href="#DejaVuSans-61" x="97.412109"/>
      <use xlink:href="#DejaVuSans-78" x="158.691406"/>
      <use xlink:href="#DejaVuSans-5f" x="217.871094"/>
      <use xlink:href="#DejaVuSans-6f" x="267.871094"/>
      <use xlink:href="#DejaVuSans-70" x="329.052734"/>
      <use xlink:href="#DejaVuSans-73" x="392.529297"/>
      <use xlink:href="#DejaVuSans-3d" x="444.628906"/>
      <use xlink:href="#DejaVuSans-36" x="528.417969"/>
      <use xlink:href="#DejaVuSans-34" x="592.041016"/>
     </g>
    </g>
   </g>
  </g>
 </g>
 <defs>
  <clipPath id="pae11f8cba3">
   <rect x="90" y="51.84" width="558" height="332.64"/>
  </clipPath>
 </defs>
</svg>
