<?xml version="1.0" encoding="utf-8" standalone="no"?>
<!DOCTYPE svg PUBLIC "-//W3C//DTD SVG 1.1//EN"
  "http://www.w3.org/Graphics/SVG/1.1/DTD/svg11.dtd">
<svg xmlns:xlink="http://www.w3.org/1999/xlink" width="720pt" height="432pt" viewBox="0 0 720 432" xmlns="http://www.w3.org/2000/svg" version="1.1">
 <metadata>
  <rdf:RDF xmlns:dc="http://purl.org/dc/elements/1.1/" xmlns:cc="http://creativecommons.org/ns#" xmlns:rdf="http://www.w3.org/1999/02/22-rdf-syntax-ns#">
   <cc:Work>
    <dc:type rdf:resource="http://purl.org/dc/dcmitype/StillImage"/>
    <dc:date>2024-01-19T18:12:42.072884</dc:date>
    <dc:format>image/svg+xml</dc:format>
    <dc:creator>
     <cc:Agent>
      <dc:title>Matplotlib v3.8.2, https://matplotlib.org/</dc:title>
     </cc:Agent>
    </dc:creator>
   </cc:Work>
  </rdf:RDF>
 </metadata>
 <defs>
  <style type="text/css">*{stroke-linejoin: round; stroke-linecap: butt}</style>
 </defs>
 <g id="figure_1">
  <g id="patch_1">
   <path d="M 0 432 
L 720 432 
L 720 0 
L 0 0 
z
"/>
  </g>
  <g id="axes_1">
   <g id="patch_2">
    <path d="M 90 384.48 
L 648 384.48 
L 648 51.84 
L 90 51.84 
z
"/>
   </g>
   <g id="matplotlib.axis_1">
    <g id="xtick_1">
     <g id="line2d_1">
      <path d="M 115.363636 384.48 
L 115.363636 51.84 
" clip-path="url(#pdcfbaf6ea4)" style="fill: none; stroke: #ffffff; stroke-width: 0.8; stroke-linecap: square"/>
     </g>
     <g id="line2d_2">
      <defs>
       <path id="m585ec377cd" d="M 0 0 
L 0 3.5 
" style="stroke: #ffffff; stroke-width: 0.8"/>
      </defs>
      <g>
       <use xlink:href="#m585ec377cd" x="115.363636" y="384.48" style="fill: #ffffff; stroke: #ffffff; stroke-width: 0.8"/>
      </g>
     </g>
     <g id="text_1">
      <!-- 1 -->
      <g style="fill: #ffffff" transform="translate(115.065326 401.351874) rotate(-45) scale(0.1 -0.1)">
       <defs>
        <path id="DejaVuSans-31" d="M 794 531 
L 1825 531 
L 1825 4091 
L 703 3866 
L 703 4441 
L 1819 4666 
L 2450 4666 
L 2450 531 
L 3481 531 
L 3481 0 
L 794 0 
L 794 531 
z
" transform="scale(0.015625)"/>
       </defs>
       <use xlink:href="#DejaVuSans-31"/>
      </g>
     </g>
    </g>
    <g id="xtick_2">
     <g id="line2d_3">
      <path d="M 136.5 384.48 
L 136.5 51.84 
" clip-path="url(#pdcfbaf6ea4)" style="fill: none; stroke: #ffffff; stroke-width: 0.8; stroke-linecap: square"/>
     </g>
     <g id="line2d_4">
      <g>
       <use xlink:href="#m585ec377cd" x="136.5" y="384.48" style="fill: #ffffff; stroke: #ffffff; stroke-width: 0.8"/>
      </g>
     </g>
     <g id="text_2">
      <!-- 201 -->
      <g style="fill: #ffffff" transform="translate(131.702722 410.349807) rotate(-45) scale(0.1 -0.1)">
       <defs>
        <path id="DejaVuSans-32" d="M 1228 531 
L 3431 531 
L 3431 0 
L 469 0 
L 469 531 
Q 828 903 1448 1529 
Q 2069 2156 2228 2338 
Q 2531 2678 2651 2914 
Q 2772 3150 2772 3378 
Q 2772 3750 2511 3984 
Q 2250 4219 1831 4219 
Q 1534 4219 1204 4116 
Q 875 4013 500 3803 
L 500 4441 
Q 881 4594 1212 4672 
Q 1544 4750 1819 4750 
Q 2544 4750 2975 4387 
Q 3406 4025 3406 3419 
Q 3406 3131 3298 2873 
Q 3191 2616 2906 2266 
Q 2828 2175 2409 1742 
Q 1991 1309 1228 531 
z
" transform="scale(0.015625)"/>
        <path id="DejaVuSans-30" d="M 2034 4250 
Q 1547 4250 1301 3770 
Q 1056 3291 1056 2328 
Q 1056 1369 1301 889 
Q 1547 409 2034 409 
Q 2525 409 2770 889 
Q 3016 1369 3016 2328 
Q 3016 3291 2770 3770 
Q 2525 4250 2034 4250 
z
M 2034 4750 
Q 2819 4750 3233 4129 
Q 3647 3509 3647 2328 
Q 3647 1150 3233 529 
Q 2819 -91 2034 -91 
Q 1250 -91 836 529 
Q 422 1150 422 2328 
Q 422 3509 836 4129 
Q 1250 4750 2034 4750 
z
" transform="scale(0.015625)"/>
       </defs>
       <use xlink:href="#DejaVuSans-32"/>
       <use xlink:href="#DejaVuSans-30" x="63.623047"/>
       <use xlink:href="#DejaVuSans-31" x="127.246094"/>
      </g>
     </g>
    </g>
    <g id="xtick_3">
     <g id="line2d_5">
      <path d="M 157.636364 384.48 
L 157.636364 51.84 
" clip-path="url(#pdcfbaf6ea4)" style="fill: none; stroke: #ffffff; stroke-width: 0.8; stroke-linecap: square"/>
     </g>
     <g id="line2d_6">
      <g>
       <use xlink:href="#m585ec377cd" x="157.636364" y="384.48" style="fill: #ffffff; stroke: #ffffff; stroke-width: 0.8"/>
      </g>
     </g>
     <g id="text_3">
      <!-- 401 -->
      <g style="fill: #ffffff" transform="translate(152.839086 410.349807) rotate(-45) scale(0.1 -0.1)">
       <defs>
        <path id="DejaVuSans-34" d="M 2419 4116 
L 825 1625 
L 2419 1625 
L 2419 4116 
z
M 2253 4666 
L 3047 4666 
L 3047 1625 
L 3713 1625 
L 3713 1100 
L 3047 1100 
L 3047 0 
L 2419 0 
L 2419 1100 
L 313 1100 
L 313 1709 
L 2253 4666 
z
" transform="scale(0.015625)"/>
       </defs>
       <use xlink:href="#DejaVuSans-34"/>
       <use xlink:href="#DejaVuSans-30" x="63.623047"/>
       <use xlink:href="#DejaVuSans-31" x="127.246094"/>
      </g>
     </g>
    </g>
    <g id="xtick_4">
     <g id="line2d_7">
      <path d="M 178.772727 384.48 
L 178.772727 51.84 
" clip-path="url(#pdcfbaf6ea4)" style="fill: none; stroke: #ffffff; stroke-width: 0.8; stroke-linecap: square"/>
     </g>
     <g id="line2d_8">
      <g>
       <use xlink:href="#m585ec377cd" x="178.772727" y="384.48" style="fill: #ffffff; stroke: #ffffff; stroke-width: 0.8"/>
      </g>
     </g>
     <g id="text_4">
      <!-- 601 -->
      <g style="fill: #ffffff" transform="translate(173.97545 410.349807) rotate(-45) scale(0.1 -0.1)">
       <defs>
        <path id="DejaVuSans-36" d="M 2113 2584 
Q 1688 2584 1439 2293 
Q 1191 2003 1191 1497 
Q 1191 994 1439 701 
Q 1688 409 2113 409 
Q 2538 409 2786 701 
Q 3034 994 3034 1497 
Q 3034 2003 2786 2293 
Q 2538 2584 2113 2584 
z
M 3366 4563 
L 3366 3988 
Q 3128 4100 2886 4159 
Q 2644 4219 2406 4219 
Q 1781 4219 1451 3797 
Q 1122 3375 1075 2522 
Q 1259 2794 1537 2939 
Q 1816 3084 2150 3084 
Q 2853 3084 3261 2657 
Q 3669 2231 3669 1497 
Q 3669 778 3244 343 
Q 2819 -91 2113 -91 
Q 1303 -91 875 529 
Q 447 1150 447 2328 
Q 447 3434 972 4092 
Q 1497 4750 2381 4750 
Q 2619 4750 2861 4703 
Q 3103 4656 3366 4563 
z
" transform="scale(0.015625)"/>
       </defs>
       <use xlink:href="#DejaVuSans-36"/>
       <use xlink:href="#DejaVuSans-30" x="63.623047"/>
       <use xlink:href="#DejaVuSans-31" x="127.246094"/>
      </g>
     </g>
    </g>
    <g id="xtick_5">
     <g id="line2d_9">
      <path d="M 199.909091 384.48 
L 199.909091 51.84 
" clip-path="url(#pdcfbaf6ea4)" style="fill: none; stroke: #ffffff; stroke-width: 0.8; stroke-linecap: square"/>
     </g>
     <g id="line2d_10">
      <g>
       <use xlink:href="#m585ec377cd" x="199.909091" y="384.48" style="fill: #ffffff; stroke: #ffffff; stroke-width: 0.8"/>
      </g>
     </g>
     <g id="text_5">
      <!-- 801 -->
      <g style="fill: #ffffff" transform="translate(195.111813 410.349807) rotate(-45) scale(0.1 -0.1)">
       <defs>
        <path id="DejaVuSans-38" d="M 2034 2216 
Q 1584 2216 1326 1975 
Q 1069 1734 1069 1313 
Q 1069 891 1326 650 
Q 1584 409 2034 409 
Q 2484 409 2743 651 
Q 3003 894 3003 1313 
Q 3003 1734 2745 1975 
Q 2488 2216 2034 2216 
z
M 1403 2484 
Q 997 2584 770 2862 
Q 544 3141 544 3541 
Q 544 4100 942 4425 
Q 1341 4750 2034 4750 
Q 2731 4750 3128 4425 
Q 3525 4100 3525 3541 
Q 3525 3141 3298 2862 
Q 3072 2584 2669 2484 
Q 3125 2378 3379 2068 
Q 3634 1759 3634 1313 
Q 3634 634 3220 271 
Q 2806 -91 2034 -91 
Q 1263 -91 848 271 
Q 434 634 434 1313 
Q 434 1759 690 2068 
Q 947 2378 1403 2484 
z
M 1172 3481 
Q 1172 3119 1398 2916 
Q 1625 2713 2034 2713 
Q 2441 2713 2670 2916 
Q 2900 3119 2900 3481 
Q 2900 3844 2670 4047 
Q 2441 4250 2034 4250 
Q 1625 4250 1398 4047 
Q 1172 3844 1172 3481 
z
" transform="scale(0.015625)"/>
       </defs>
       <use xlink:href="#DejaVuSans-38"/>
       <use xlink:href="#DejaVuSans-30" x="63.623047"/>
       <use xlink:href="#DejaVuSans-31" x="127.246094"/>
      </g>
     </g>
    </g>
    <g id="xtick_6">
     <g id="line2d_11">
      <path d="M 221.045455 384.48 
L 221.045455 51.84 
" clip-path="url(#pdcfbaf6ea4)" style="fill: none; stroke: #ffffff; stroke-width: 0.8; stroke-linecap: square"/>
     </g>
     <g id="line2d_12">
      <g>
       <use xlink:href="#m585ec377cd" x="221.045455" y="384.48" style="fill: #ffffff; stroke: #ffffff; stroke-width: 0.8"/>
      </g>
     </g>
     <g id="text_6">
      <!-- 1001 -->
      <g style="fill: #ffffff" transform="translate(213.998694 414.848774) rotate(-45) scale(0.1 -0.1)">
       <use xlink:href="#DejaVuSans-31"/>
       <use xlink:href="#DejaVuSans-30" x="63.623047"/>
       <use xlink:href="#DejaVuSans-30" x="127.246094"/>
       <use xlink:href="#DejaVuSans-31" x="190.869141"/>
      </g>
     </g>
    </g>
    <g id="xtick_7">
     <g id="line2d_13">
      <path d="M 242.181818 384.48 
L 242.181818 51.84 
" clip-path="url(#pdcfbaf6ea4)" style="fill: none; stroke: #ffffff; stroke-width: 0.8; stroke-linecap: square"/>
     </g>
     <g id="line2d_14">
      <g>
       <use xlink:href="#m585ec377cd" x="242.181818" y="384.48" style="fill: #ffffff; stroke: #ffffff; stroke-width: 0.8"/>
      </g>
     </g>
     <g id="text_7">
      <!-- 1201 -->
      <g style="fill: #ffffff" transform="translate(235.135057 414.848774) rotate(-45) scale(0.1 -0.1)">
       <use xlink:href="#DejaVuSans-31"/>
       <use xlink:href="#DejaVuSans-32" x="63.623047"/>
       <use xlink:href="#DejaVuSans-30" x="127.246094"/>
       <use xlink:href="#DejaVuSans-31" x="190.869141"/>
      </g>
     </g>
    </g>
    <g id="xtick_8">
     <g id="line2d_15">
      <path d="M 263.318182 384.48 
L 263.318182 51.84 
" clip-path="url(#pdcfbaf6ea4)" style="fill: none; stroke: #ffffff; stroke-width: 0.8; stroke-linecap: square"/>
     </g>
     <g id="line2d_16">
      <g>
       <use xlink:href="#m585ec377cd" x="263.318182" y="384.48" style="fill: #ffffff; stroke: #ffffff; stroke-width: 0.8"/>
      </g>
     </g>
     <g id="text_8">
      <!-- 1401 -->
      <g style="fill: #ffffff" transform="translate(256.271421 414.848774) rotate(-45) scale(0.1 -0.1)">
       <use xlink:href="#DejaVuSans-31"/>
       <use xlink:href="#DejaVuSans-34" x="63.623047"/>
       <use xlink:href="#DejaVuSans-30" x="127.246094"/>
       <use xlink:href="#DejaVuSans-31" x="190.869141"/>
      </g>
     </g>
    </g>
    <g id="xtick_9">
     <g id="line2d_17">
      <path d="M 284.454545 384.48 
L 284.454545 51.84 
" clip-path="url(#pdcfbaf6ea4)" style="fill: none; stroke: #ffffff; stroke-width: 0.8; stroke-linecap: square"/>
     </g>
     <g id="line2d_18">
      <g>
       <use xlink:href="#m585ec377cd" x="284.454545" y="384.48" style="fill: #ffffff; stroke: #ffffff; stroke-width: 0.8"/>
      </g>
     </g>
     <g id="text_9">
      <!-- 1601 -->
      <g style="fill: #ffffff" transform="translate(277.407784 414.848774) rotate(-45) scale(0.1 -0.1)">
       <use xlink:href="#DejaVuSans-31"/>
       <use xlink:href="#DejaVuSans-36" x="63.623047"/>
       <use xlink:href="#DejaVuSans-30" x="127.246094"/>
       <use xlink:href="#DejaVuSans-31" x="190.869141"/>
      </g>
     </g>
    </g>
    <g id="xtick_10">
     <g id="line2d_19">
      <path d="M 305.590909 384.48 
L 305.590909 51.84 
" clip-path="url(#pdcfbaf6ea4)" style="fill: none; stroke: #ffffff; stroke-width: 0.8; stroke-linecap: square"/>
     </g>
     <g id="line2d_20">
      <g>
       <use xlink:href="#m585ec377cd" x="305.590909" y="384.48" style="fill: #ffffff; stroke: #ffffff; stroke-width: 0.8"/>
      </g>
     </g>
     <g id="text_10">
      <!-- 1801 -->
      <g style="fill: #ffffff" transform="translate(298.544148 414.848774) rotate(-45) scale(0.1 -0.1)">
       <use xlink:href="#DejaVuSans-31"/>
       <use xlink:href="#DejaVuSans-38" x="63.623047"/>
       <use xlink:href="#DejaVuSans-30" x="127.246094"/>
       <use xlink:href="#DejaVuSans-31" x="190.869141"/>
      </g>
     </g>
    </g>
    <g id="xtick_11">
     <g id="line2d_21">
      <path d="M 326.727273 384.48 
L 326.727273 51.84 
" clip-path="url(#pdcfbaf6ea4)" style="fill: none; stroke: #ffffff; stroke-width: 0.8; stroke-linecap: square"/>
     </g>
     <g id="line2d_22">
      <g>
       <use xlink:href="#m585ec377cd" x="326.727273" y="384.48" style="fill: #ffffff; stroke: #ffffff; stroke-width: 0.8"/>
      </g>
     </g>
     <g id="text_11">
      <!-- 2001 -->
      <g style="fill: #ffffff" transform="translate(319.680512 414.848774) rotate(-45) scale(0.1 -0.1)">
       <use xlink:href="#DejaVuSans-32"/>
       <use xlink:href="#DejaVuSans-30" x="63.623047"/>
       <use xlink:href="#DejaVuSans-30" x="127.246094"/>
       <use xlink:href="#DejaVuSans-31" x="190.869141"/>
      </g>
     </g>
    </g>
    <g id="xtick_12">
     <g id="line2d_23">
      <path d="M 347.863636 384.48 
L 347.863636 51.84 
" clip-path="url(#pdcfbaf6ea4)" style="fill: none; stroke: #ffffff; stroke-width: 0.8; stroke-linecap: square"/>
     </g>
     <g id="line2d_24">
      <g>
       <use xlink:href="#m585ec377cd" x="347.863636" y="384.48" style="fill: #ffffff; stroke: #ffffff; stroke-width: 0.8"/>
      </g>
     </g>
     <g id="text_12">
      <!-- 2201 -->
      <g style="fill: #ffffff" transform="translate(340.816875 414.848774) rotate(-45) scale(0.1 -0.1)">
       <use xlink:href="#DejaVuSans-32"/>
       <use xlink:href="#DejaVuSans-32" x="63.623047"/>
       <use xlink:href="#DejaVuSans-30" x="127.246094"/>
       <use xlink:href="#DejaVuSans-31" x="190.869141"/>
      </g>
     </g>
    </g>
    <g id="xtick_13">
     <g id="line2d_25">
      <path d="M 369 384.48 
L 369 51.84 
" clip-path="url(#pdcfbaf6ea4)" style="fill: none; stroke: #ffffff; stroke-width: 0.8; stroke-linecap: square"/>
     </g>
     <g id="line2d_26">
      <g>
       <use xlink:href="#m585ec377cd" x="369" y="384.48" style="fill: #ffffff; stroke: #ffffff; stroke-width: 0.8"/>
      </g>
     </g>
     <g id="text_13">
      <!-- 2401 -->
      <g style="fill: #ffffff" transform="translate(361.953239 414.848774) rotate(-45) scale(0.1 -0.1)">
       <use xlink:href="#DejaVuSans-32"/>
       <use xlink:href="#DejaVuSans-34" x="63.623047"/>
       <use xlink:href="#DejaVuSans-30" x="127.246094"/>
       <use xlink:href="#DejaVuSans-31" x="190.869141"/>
      </g>
     </g>
    </g>
    <g id="xtick_14">
     <g id="line2d_27">
      <path d="M 390.136364 384.48 
L 390.136364 51.84 
" clip-path="url(#pdcfbaf6ea4)" style="fill: none; stroke: #ffffff; stroke-width: 0.8; stroke-linecap: square"/>
     </g>
     <g id="line2d_28">
      <g>
       <use xlink:href="#m585ec377cd" x="390.136364" y="384.48" style="fill: #ffffff; stroke: #ffffff; stroke-width: 0.8"/>
      </g>
     </g>
     <g id="text_14">
      <!-- 2601 -->
      <g style="fill: #ffffff" transform="translate(383.089603 414.848774) rotate(-45) scale(0.1 -0.1)">
       <use xlink:href="#DejaVuSans-32"/>
       <use xlink:href="#DejaVuSans-36" x="63.623047"/>
       <use xlink:href="#DejaVuSans-30" x="127.246094"/>
       <use xlink:href="#DejaVuSans-31" x="190.869141"/>
      </g>
     </g>
    </g>
    <g id="xtick_15">
     <g id="line2d_29">
      <path d="M 411.272727 384.48 
L 411.272727 51.84 
" clip-path="url(#pdcfbaf6ea4)" style="fill: none; stroke: #ffffff; stroke-width: 0.8; stroke-linecap: square"/>
     </g>
     <g id="line2d_30">
      <g>
       <use xlink:href="#m585ec377cd" x="411.272727" y="384.48" style="fill: #ffffff; stroke: #ffffff; stroke-width: 0.8"/>
      </g>
     </g>
     <g id="text_15">
      <!-- 2801 -->
      <g style="fill: #ffffff" transform="translate(404.225966 414.848774) rotate(-45) scale(0.1 -0.1)">
       <use xlink:href="#DejaVuSans-32"/>
       <use xlink:href="#DejaVuSans-38" x="63.623047"/>
       <use xlink:href="#DejaVuSans-30" x="127.246094"/>
       <use xlink:href="#DejaVuSans-31" x="190.869141"/>
      </g>
     </g>
    </g>
    <g id="xtick_16">
     <g id="line2d_31">
      <path d="M 432.409091 384.48 
L 432.409091 51.84 
" clip-path="url(#pdcfbaf6ea4)" style="fill: none; stroke: #ffffff; stroke-width: 0.8; stroke-linecap: square"/>
     </g>
     <g id="line2d_32">
      <g>
       <use xlink:href="#m585ec377cd" x="432.409091" y="384.48" style="fill: #ffffff; stroke: #ffffff; stroke-width: 0.8"/>
      </g>
     </g>
     <g id="text_16">
      <!-- 3001 -->
      <g style="fill: #ffffff" transform="translate(425.36233 414.848774) rotate(-45) scale(0.1 -0.1)">
       <defs>
        <path id="DejaVuSans-33" d="M 2597 2516 
Q 3050 2419 3304 2112 
Q 3559 1806 3559 1356 
Q 3559 666 3084 287 
Q 2609 -91 1734 -91 
Q 1441 -91 1130 -33 
Q 819 25 488 141 
L 488 750 
Q 750 597 1062 519 
Q 1375 441 1716 441 
Q 2309 441 2620 675 
Q 2931 909 2931 1356 
Q 2931 1769 2642 2001 
Q 2353 2234 1838 2234 
L 1294 2234 
L 1294 2753 
L 1863 2753 
Q 2328 2753 2575 2939 
Q 2822 3125 2822 3475 
Q 2822 3834 2567 4026 
Q 2313 4219 1838 4219 
Q 1578 4219 1281 4162 
Q 984 4106 628 3988 
L 628 4550 
Q 988 4650 1302 4700 
Q 1616 4750 1894 4750 
Q 2613 4750 3031 4423 
Q 3450 4097 3450 3541 
Q 3450 3153 3228 2886 
Q 3006 2619 2597 2516 
z
" transform="scale(0.015625)"/>
       </defs>
       <use xlink:href="#DejaVuSans-33"/>
       <use xlink:href="#DejaVuSans-30" x="63.623047"/>
       <use xlink:href="#DejaVuSans-30" x="127.246094"/>
       <use xlink:href="#DejaVuSans-31" x="190.869141"/>
      </g>
     </g>
    </g>
    <g id="xtick_17">
     <g id="line2d_33">
      <path d="M 453.545455 384.48 
L 453.545455 51.84 
" clip-path="url(#pdcfbaf6ea4)" style="fill: none; stroke: #ffffff; stroke-width: 0.8; stroke-linecap: square"/>
     </g>
     <g id="line2d_34">
      <g>
       <use xlink:href="#m585ec377cd" x="453.545455" y="384.48" style="fill: #ffffff; stroke: #ffffff; stroke-width: 0.8"/>
      </g>
     </g>
     <g id="text_17">
      <!-- 3201 -->
      <g style="fill: #ffffff" transform="translate(446.498694 414.848774) rotate(-45) scale(0.1 -0.1)">
       <use xlink:href="#DejaVuSans-33"/>
       <use xlink:href="#DejaVuSans-32" x="63.623047"/>
       <use xlink:href="#DejaVuSans-30" x="127.246094"/>
       <use xlink:href="#DejaVuSans-31" x="190.869141"/>
      </g>
     </g>
    </g>
    <g id="xtick_18">
     <g id="line2d_35">
      <path d="M 474.681818 384.48 
L 474.681818 51.84 
" clip-path="url(#pdcfbaf6ea4)" style="fill: none; stroke: #ffffff; stroke-width: 0.8; stroke-linecap: square"/>
     </g>
     <g id="line2d_36">
      <g>
       <use xlink:href="#m585ec377cd" x="474.681818" y="384.48" style="fill: #ffffff; stroke: #ffffff; stroke-width: 0.8"/>
      </g>
     </g>
     <g id="text_18">
      <!-- 3401 -->
      <g style="fill: #ffffff" transform="translate(467.635057 414.848774) rotate(-45) scale(0.1 -0.1)">
       <use xlink:href="#DejaVuSans-33"/>
       <use xlink:href="#DejaVuSans-34" x="63.623047"/>
       <use xlink:href="#DejaVuSans-30" x="127.246094"/>
       <use xlink:href="#DejaVuSans-31" x="190.869141"/>
      </g>
     </g>
    </g>
    <g id="xtick_19">
     <g id="line2d_37">
      <path d="M 495.818182 384.48 
L 495.818182 51.84 
" clip-path="url(#pdcfbaf6ea4)" style="fill: none; stroke: #ffffff; stroke-width: 0.8; stroke-linecap: square"/>
     </g>
     <g id="line2d_38">
      <g>
       <use xlink:href="#m585ec377cd" x="495.818182" y="384.48" style="fill: #ffffff; stroke: #ffffff; stroke-width: 0.8"/>
      </g>
     </g>
     <g id="text_19">
      <!-- 3601 -->
      <g style="fill: #ffffff" transform="translate(488.771421 414.848774) rotate(-45) scale(0.1 -0.1)">
       <use xlink:href="#DejaVuSans-33"/>
       <use xlink:href="#DejaVuSans-36" x="63.623047"/>
       <use xlink:href="#DejaVuSans-30" x="127.246094"/>
       <use xlink:href="#DejaVuSans-31" x="190.869141"/>
      </g>
     </g>
    </g>
    <g id="xtick_20">
     <g id="line2d_39">
      <path d="M 516.954545 384.48 
L 516.954545 51.84 
" clip-path="url(#pdcfbaf6ea4)" style="fill: none; stroke: #ffffff; stroke-width: 0.8; stroke-linecap: square"/>
     </g>
     <g id="line2d_40">
      <g>
       <use xlink:href="#m585ec377cd" x="516.954545" y="384.48" style="fill: #ffffff; stroke: #ffffff; stroke-width: 0.8"/>
      </g>
     </g>
     <g id="text_20">
      <!-- 3801 -->
      <g style="fill: #ffffff" transform="translate(509.907784 414.848774) rotate(-45) scale(0.1 -0.1)">
       <use xlink:href="#DejaVuSans-33"/>
       <use xlink:href="#DejaVuSans-38" x="63.623047"/>
       <use xlink:href="#DejaVuSans-30" x="127.246094"/>
       <use xlink:href="#DejaVuSans-31" x="190.869141"/>
      </g>
     </g>
    </g>
    <g id="xtick_21">
     <g id="line2d_41">
      <path d="M 538.090909 384.48 
L 538.090909 51.84 
" clip-path="url(#pdcfbaf6ea4)" style="fill: none; stroke: #ffffff; stroke-width: 0.8; stroke-linecap: square"/>
     </g>
     <g id="line2d_42">
      <g>
       <use xlink:href="#m585ec377cd" x="538.090909" y="384.48" style="fill: #ffffff; stroke: #ffffff; stroke-width: 0.8"/>
      </g>
     </g>
     <g id="text_21">
      <!-- 4001 -->
      <g style="fill: #ffffff" transform="translate(531.044148 414.848774) rotate(-45) scale(0.1 -0.1)">
       <use xlink:href="#DejaVuSans-34"/>
       <use xlink:href="#DejaVuSans-30" x="63.623047"/>
       <use xlink:href="#DejaVuSans-30" x="127.246094"/>
       <use xlink:href="#DejaVuSans-31" x="190.869141"/>
      </g>
     </g>
    </g>
    <g id="xtick_22">
     <g id="line2d_43">
      <path d="M 559.227273 384.48 
L 559.227273 51.84 
" clip-path="url(#pdcfbaf6ea4)" style="fill: none; stroke: #ffffff; stroke-width: 0.8; stroke-linecap: square"/>
     </g>
     <g id="line2d_44">
      <g>
       <use xlink:href="#m585ec377cd" x="559.227273" y="384.48" style="fill: #ffffff; stroke: #ffffff; stroke-width: 0.8"/>
      </g>
     </g>
     <g id="text_22">
      <!-- 4201 -->
      <g style="fill: #ffffff" transform="translate(552.180512 414.848774) rotate(-45) scale(0.1 -0.1)">
       <use xlink:href="#DejaVuSans-34"/>
       <use xlink:href="#DejaVuSans-32" x="63.623047"/>
       <use xlink:href="#DejaVuSans-30" x="127.246094"/>
       <use xlink:href="#DejaVuSans-31" x="190.869141"/>
      </g>
     </g>
    </g>
    <g id="xtick_23">
     <g id="line2d_45">
      <path d="M 580.363636 384.48 
L 580.363636 51.84 
" clip-path="url(#pdcfbaf6ea4)" style="fill: none; stroke: #ffffff; stroke-width: 0.8; stroke-linecap: square"/>
     </g>
     <g id="line2d_46">
      <g>
       <use xlink:href="#m585ec377cd" x="580.363636" y="384.48" style="fill: #ffffff; stroke: #ffffff; stroke-width: 0.8"/>
      </g>
     </g>
     <g id="text_23">
      <!-- 4401 -->
      <g style="fill: #ffffff" transform="translate(573.316875 414.848774) rotate(-45) scale(0.1 -0.1)">
       <use xlink:href="#DejaVuSans-34"/>
       <use xlink:href="#DejaVuSans-34" x="63.623047"/>
       <use xlink:href="#DejaVuSans-30" x="127.246094"/>
       <use xlink:href="#DejaVuSans-31" x="190.869141"/>
      </g>
     </g>
    </g>
    <g id="xtick_24">
     <g id="line2d_47">
      <path d="M 601.5 384.48 
L 601.5 51.84 
" clip-path="url(#pdcfbaf6ea4)" style="fill: none; stroke: #ffffff; stroke-width: 0.8; stroke-linecap: square"/>
     </g>
     <g id="line2d_48">
      <g>
       <use xlink:href="#m585ec377cd" x="601.5" y="384.48" style="fill: #ffffff; stroke: #ffffff; stroke-width: 0.8"/>
      </g>
     </g>
     <g id="text_24">
      <!-- 4601 -->
      <g style="fill: #ffffff" transform="translate(594.453239 414.848774) rotate(-45) scale(0.1 -0.1)">
       <use xlink:href="#DejaVuSans-34"/>
       <use xlink:href="#DejaVuSans-36" x="63.623047"/>
       <use xlink:href="#DejaVuSans-30" x="127.246094"/>
       <use xlink:href="#DejaVuSans-31" x="190.869141"/>
      </g>
     </g>
    </g>
    <g id="xtick_25">
     <g id="line2d_49">
      <path d="M 622.636364 384.48 
L 622.636364 51.84 
" clip-path="url(#pdcfbaf6ea4)" style="fill: none; stroke: #ffffff; stroke-width: 0.8; stroke-linecap: square"/>
     </g>
     <g id="line2d_50">
      <g>
       <use xlink:href="#m585ec377cd" x="622.636364" y="384.48" style="fill: #ffffff; stroke: #ffffff; stroke-width: 0.8"/>
      </g>
     </g>
     <g id="text_25">
      <!-- 4801 -->
      <g style="fill: #ffffff" transform="translate(615.589603 414.848774) rotate(-45) scale(0.1 -0.1)">
       <use xlink:href="#DejaVuSans-34"/>
       <use xlink:href="#DejaVuSans-38" x="63.623047"/>
       <use xlink:href="#DejaVuSans-30" x="127.246094"/>
       <use xlink:href="#DejaVuSans-31" x="190.869141"/>
      </g>
     </g>
    </g>
    <g id="text_26">
     <!-- concurrency -->
     <g style="fill: #ffffff" transform="translate(338.239844 427.917773) scale(0.1 -0.1)">
      <defs>
       <path id="DejaVuSans-63" d="M 3122 3366 
L 3122 2828 
Q 2878 2963 2633 3030 
Q 2388 3097 2138 3097 
Q 1578 3097 1268 2742 
Q 959 2388 959 1747 
Q 959 1106 1268 751 
Q 1578 397 2138 397 
Q 2388 397 2633 464 
Q 2878 531 3122 666 
L 3122 134 
Q 2881 22 2623 -34 
Q 2366 -91 2075 -91 
Q 1284 -91 818 406 
Q 353 903 353 1747 
Q 353 2603 823 3093 
Q 1294 3584 2113 3584 
Q 2378 3584 2631 3529 
Q 2884 3475 3122 3366 
z
" transform="scale(0.015625)"/>
       <path id="DejaVuSans-6f" d="M 1959 3097 
Q 1497 3097 1228 2736 
Q 959 2375 959 1747 
Q 959 1119 1226 758 
Q 1494 397 1959 397 
Q 2419 397 2687 759 
Q 2956 1122 2956 1747 
Q 2956 2369 2687 2733 
Q 2419 3097 1959 3097 
z
M 1959 3584 
Q 2709 3584 3137 3096 
Q 3566 2609 3566 1747 
Q 3566 888 3137 398 
Q 2709 -91 1959 -91 
Q 1206 -91 779 398 
Q 353 888 353 1747 
Q 353 2609 779 3096 
Q 1206 3584 1959 3584 
z
" transform="scale(0.015625)"/>
       <path id="DejaVuSans-6e" d="M 3513 2113 
L 3513 0 
L 2938 0 
L 2938 2094 
Q 2938 2591 2744 2837 
Q 2550 3084 2163 3084 
Q 1697 3084 1428 2787 
Q 1159 2491 1159 1978 
L 1159 0 
L 581 0 
L 581 3500 
L 1159 3500 
L 1159 2956 
Q 1366 3272 1645 3428 
Q 1925 3584 2291 3584 
Q 2894 3584 3203 3211 
Q 3513 2838 3513 2113 
z
" transform="scale(0.015625)"/>
       <path id="DejaVuSans-75" d="M 544 1381 
L 544 3500 
L 1119 3500 
L 1119 1403 
Q 1119 906 1312 657 
Q 1506 409 1894 409 
Q 2359 409 2629 706 
Q 2900 1003 2900 1516 
L 2900 3500 
L 3475 3500 
L 3475 0 
L 2900 0 
L 2900 538 
Q 2691 219 2414 64 
Q 2138 -91 1772 -91 
Q 1169 -91 856 284 
Q 544 659 544 1381 
z
M 1991 3584 
L 1991 3584 
z
" transform="scale(0.015625)"/>
       <path id="DejaVuSans-72" d="M 2631 2963 
Q 2534 3019 2420 3045 
Q 2306 3072 2169 3072 
Q 1681 3072 1420 2755 
Q 1159 2438 1159 1844 
L 1159 0 
L 581 0 
L 581 3500 
L 1159 3500 
L 1159 2956 
Q 1341 3275 1631 3429 
Q 1922 3584 2338 3584 
Q 2397 3584 2469 3576 
Q 2541 3569 2628 3553 
L 2631 2963 
z
" transform="scale(0.015625)"/>
       <path id="DejaVuSans-65" d="M 3597 1894 
L 3597 1613 
L 953 1613 
Q 991 1019 1311 708 
Q 1631 397 2203 397 
Q 2534 397 2845 478 
Q 3156 559 3463 722 
L 3463 178 
Q 3153 47 2828 -22 
Q 2503 -91 2169 -91 
Q 1331 -91 842 396 
Q 353 884 353 1716 
Q 353 2575 817 3079 
Q 1281 3584 2069 3584 
Q 2775 3584 3186 3129 
Q 3597 2675 3597 1894 
z
M 3022 2063 
Q 3016 2534 2758 2815 
Q 2500 3097 2075 3097 
Q 1594 3097 1305 2825 
Q 1016 2553 972 2059 
L 3022 2063 
z
" transform="scale(0.015625)"/>
       <path id="DejaVuSans-79" d="M 2059 -325 
Q 1816 -950 1584 -1140 
Q 1353 -1331 966 -1331 
L 506 -1331 
L 506 -850 
L 844 -850 
Q 1081 -850 1212 -737 
Q 1344 -625 1503 -206 
L 1606 56 
L 191 3500 
L 800 3500 
L 1894 763 
L 2988 3500 
L 3597 3500 
L 2059 -325 
z
" transform="scale(0.015625)"/>
      </defs>
      <use xlink:href="#DejaVuSans-63"/>
      <use xlink:href="#DejaVuSans-6f" x="54.980469"/>
      <use xlink:href="#DejaVuSans-6e" x="116.162109"/>
      <use xlink:href="#DejaVuSans-63" x="179.541016"/>
      <use xlink:href="#DejaVuSans-75" x="234.521484"/>
      <use xlink:href="#DejaVuSans-72" x="297.900391"/>
      <use xlink:href="#DejaVuSans-72" x="337.263672"/>
      <use xlink:href="#DejaVuSans-65" x="376.126953"/>
      <use xlink:href="#DejaVuSans-6e" x="437.650391"/>
      <use xlink:href="#DejaVuSans-63" x="501.029297"/>
      <use xlink:href="#DejaVuSans-79" x="556.009766"/>
     </g>
    </g>
   </g>
   <g id="matplotlib.axis_2">
    <g id="ytick_1">
     <g id="line2d_51">
      <path d="M 90 344.752609 
L 648 344.752609 
" clip-path="url(#pdcfbaf6ea4)" style="fill: none; stroke: #ffffff; stroke-width: 0.8; stroke-linecap: square"/>
     </g>
     <g id="line2d_52">
      <defs>
       <path id="m4125dc63a0" d="M 0 0 
L -3.5 0 
" style="stroke: #ffffff; stroke-width: 0.8"/>
      </defs>
      <g>
       <use xlink:href="#m4125dc63a0" x="90" y="344.752609" style="fill: #ffffff; stroke: #ffffff; stroke-width: 0.8"/>
      </g>
     </g>
     <g id="text_27">
      <!-- 250 -->
      <g style="fill: #ffffff" transform="translate(63.9125 348.551827) scale(0.1 -0.1)">
       <defs>
        <path id="DejaVuSans-35" d="M 691 4666 
L 3169 4666 
L 3169 4134 
L 1269 4134 
L 1269 2991 
Q 1406 3038 1543 3061 
Q 1681 3084 1819 3084 
Q 2600 3084 3056 2656 
Q 3513 2228 3513 1497 
Q 3513 744 3044 326 
Q 2575 -91 1722 -91 
Q 1428 -91 1123 -41 
Q 819 9 494 109 
L 494 744 
Q 775 591 1075 516 
Q 1375 441 1709 441 
Q 2250 441 2565 725 
Q 2881 1009 2881 1497 
Q 2881 1984 2565 2268 
Q 2250 2553 1709 2553 
Q 1456 2553 1204 2497 
Q 953 2441 691 2322 
L 691 4666 
z
" transform="scale(0.015625)"/>
       </defs>
       <use xlink:href="#DejaVuSans-32"/>
       <use xlink:href="#DejaVuSans-35" x="63.623047"/>
       <use xlink:href="#DejaVuSans-30" x="127.246094"/>
      </g>
     </g>
    </g>
    <g id="ytick_2">
     <g id="line2d_53">
      <path d="M 90 299.489929 
L 648 299.489929 
" clip-path="url(#pdcfbaf6ea4)" style="fill: none; stroke: #ffffff; stroke-width: 0.8; stroke-linecap: square"/>
     </g>
     <g id="line2d_54">
      <g>
       <use xlink:href="#m4125dc63a0" x="90" y="299.489929" style="fill: #ffffff; stroke: #ffffff; stroke-width: 0.8"/>
      </g>
     </g>
     <g id="text_28">
      <!-- 500 -->
      <g style="fill: #ffffff" transform="translate(63.9125 303.289147) scale(0.1 -0.1)">
       <use xlink:href="#DejaVuSans-35"/>
       <use xlink:href="#DejaVuSans-30" x="63.623047"/>
       <use xlink:href="#DejaVuSans-30" x="127.246094"/>
      </g>
     </g>
    </g>
    <g id="ytick_3">
     <g id="line2d_55">
      <path d="M 90 254.227249 
L 648 254.227249 
" clip-path="url(#pdcfbaf6ea4)" style="fill: none; stroke: #ffffff; stroke-width: 0.8; stroke-linecap: square"/>
     </g>
     <g id="line2d_56">
      <g>
       <use xlink:href="#m4125dc63a0" x="90" y="254.227249" style="fill: #ffffff; stroke: #ffffff; stroke-width: 0.8"/>
      </g>
     </g>
     <g id="text_29">
      <!-- 750 -->
      <g style="fill: #ffffff" transform="translate(63.9125 258.026467) scale(0.1 -0.1)">
       <defs>
        <path id="DejaVuSans-37" d="M 525 4666 
L 3525 4666 
L 3525 4397 
L 1831 0 
L 1172 0 
L 2766 4134 
L 525 4134 
L 525 4666 
z
" transform="scale(0.015625)"/>
       </defs>
       <use xlink:href="#DejaVuSans-37"/>
       <use xlink:href="#DejaVuSans-35" x="63.623047"/>
       <use xlink:href="#DejaVuSans-30" x="127.246094"/>
      </g>
     </g>
    </g>
    <g id="ytick_4">
     <g id="line2d_57">
      <path d="M 90 208.964569 
L 648 208.964569 
" clip-path="url(#pdcfbaf6ea4)" style="fill: none; stroke: #ffffff; stroke-width: 0.8; stroke-linecap: square"/>
     </g>
     <g id="line2d_58">
      <g>
       <use xlink:href="#m4125dc63a0" x="90" y="208.964569" style="fill: #ffffff; stroke: #ffffff; stroke-width: 0.8"/>
      </g>
     </g>
     <g id="text_30">
      <!-- 1000 -->
      <g style="fill: #ffffff" transform="translate(57.55 212.763787) scale(0.1 -0.1)">
       <use xlink:href="#DejaVuSans-31"/>
       <use xlink:href="#DejaVuSans-30" x="63.623047"/>
       <use xlink:href="#DejaVuSans-30" x="127.246094"/>
       <use xlink:href="#DejaVuSans-30" x="190.869141"/>
      </g>
     </g>
    </g>
    <g id="ytick_5">
     <g id="line2d_59">
      <path d="M 90 163.701889 
L 648 163.701889 
" clip-path="url(#pdcfbaf6ea4)" style="fill: none; stroke: #ffffff; stroke-width: 0.8; stroke-linecap: square"/>
     </g>
     <g id="line2d_60">
      <g>
       <use xlink:href="#m4125dc63a0" x="90" y="163.701889" style="fill: #ffffff; stroke: #ffffff; stroke-width: 0.8"/>
      </g>
     </g>
     <g id="text_31">
      <!-- 1250 -->
      <g style="fill: #ffffff" transform="translate(57.55 167.501107) scale(0.1 -0.1)">
       <use xlink:href="#DejaVuSans-31"/>
       <use xlink:href="#DejaVuSans-32" x="63.623047"/>
       <use xlink:href="#DejaVuSans-35" x="127.246094"/>
       <use xlink:href="#DejaVuSans-30" x="190.869141"/>
      </g>
     </g>
    </g>
    <g id="ytick_6">
     <g id="line2d_61">
      <path d="M 90 118.439209 
L 648 118.439209 
" clip-path="url(#pdcfbaf6ea4)" style="fill: none; stroke: #ffffff; stroke-width: 0.8; stroke-linecap: square"/>
     </g>
     <g id="line2d_62">
      <g>
       <use xlink:href="#m4125dc63a0" x="90" y="118.439209" style="fill: #ffffff; stroke: #ffffff; stroke-width: 0.8"/>
      </g>
     </g>
     <g id="text_32">
      <!-- 1500 -->
      <g style="fill: #ffffff" transform="translate(57.55 122.238427) scale(0.1 -0.1)">
       <use xlink:href="#DejaVuSans-31"/>
       <use xlink:href="#DejaVuSans-35" x="63.623047"/>
       <use xlink:href="#DejaVuSans-30" x="127.246094"/>
       <use xlink:href="#DejaVuSans-30" x="190.869141"/>
      </g>
     </g>
    </g>
    <g id="ytick_7">
     <g id="line2d_63">
      <path d="M 90 73.176529 
L 648 73.176529 
" clip-path="url(#pdcfbaf6ea4)" style="fill: none; stroke: #ffffff; stroke-width: 0.8; stroke-linecap: square"/>
     </g>
     <g id="line2d_64">
      <g>
       <use xlink:href="#m4125dc63a0" x="90" y="73.176529" style="fill: #ffffff; stroke: #ffffff; stroke-width: 0.8"/>
      </g>
     </g>
     <g id="text_33">
      <!-- 1750 -->
      <g style="fill: #ffffff" transform="translate(57.55 76.975748) scale(0.1 -0.1)">
       <use xlink:href="#DejaVuSans-31"/>
       <use xlink:href="#DejaVuSans-37" x="63.623047"/>
       <use xlink:href="#DejaVuSans-35" x="127.246094"/>
       <use xlink:href="#DejaVuSans-30" x="190.869141"/>
      </g>
     </g>
    </g>
    <g id="text_34">
     <!-- time (ms) -->
     <g style="fill: #ffffff" transform="translate(51.470312 242.421719) rotate(-90) scale(0.1 -0.1)">
      <defs>
       <path id="DejaVuSans-74" d="M 1172 4494 
L 1172 3500 
L 2356 3500 
L 2356 3053 
L 1172 3053 
L 1172 1153 
Q 1172 725 1289 603 
Q 1406 481 1766 481 
L 2356 481 
L 2356 0 
L 1766 0 
Q 1100 0 847 248 
Q 594 497 594 1153 
L 594 3053 
L 172 3053 
L 172 3500 
L 594 3500 
L 594 4494 
L 1172 4494 
z
" transform="scale(0.015625)"/>
       <path id="DejaVuSans-69" d="M 603 3500 
L 1178 3500 
L 1178 0 
L 603 0 
L 603 3500 
z
M 603 4863 
L 1178 4863 
L 1178 4134 
L 603 4134 
L 603 4863 
z
" transform="scale(0.015625)"/>
       <path id="DejaVuSans-6d" d="M 3328 2828 
Q 3544 3216 3844 3400 
Q 4144 3584 4550 3584 
Q 5097 3584 5394 3201 
Q 5691 2819 5691 2113 
L 5691 0 
L 5113 0 
L 5113 2094 
Q 5113 2597 4934 2840 
Q 4756 3084 4391 3084 
Q 3944 3084 3684 2787 
Q 3425 2491 3425 1978 
L 3425 0 
L 2847 0 
L 2847 2094 
Q 2847 2600 2669 2842 
Q 2491 3084 2119 3084 
Q 1678 3084 1418 2786 
Q 1159 2488 1159 1978 
L 1159 0 
L 581 0 
L 581 3500 
L 1159 3500 
L 1159 2956 
Q 1356 3278 1631 3431 
Q 1906 3584 2284 3584 
Q 2666 3584 2933 3390 
Q 3200 3197 3328 2828 
z
" transform="scale(0.015625)"/>
       <path id="DejaVuSans-20" transform="scale(0.015625)"/>
       <path id="DejaVuSans-28" d="M 1984 4856 
Q 1566 4138 1362 3434 
Q 1159 2731 1159 2009 
Q 1159 1288 1364 580 
Q 1569 -128 1984 -844 
L 1484 -844 
Q 1016 -109 783 600 
Q 550 1309 550 2009 
Q 550 2706 781 3412 
Q 1013 4119 1484 4856 
L 1984 4856 
z
" transform="scale(0.015625)"/>
       <path id="DejaVuSans-73" d="M 2834 3397 
L 2834 2853 
Q 2591 2978 2328 3040 
Q 2066 3103 1784 3103 
Q 1356 3103 1142 2972 
Q 928 2841 928 2578 
Q 928 2378 1081 2264 
Q 1234 2150 1697 2047 
L 1894 2003 
Q 2506 1872 2764 1633 
Q 3022 1394 3022 966 
Q 3022 478 2636 193 
Q 2250 -91 1575 -91 
Q 1294 -91 989 -36 
Q 684 19 347 128 
L 347 722 
Q 666 556 975 473 
Q 1284 391 1588 391 
Q 1994 391 2212 530 
Q 2431 669 2431 922 
Q 2431 1156 2273 1281 
Q 2116 1406 1581 1522 
L 1381 1569 
Q 847 1681 609 1914 
Q 372 2147 372 2553 
Q 372 3047 722 3315 
Q 1072 3584 1716 3584 
Q 2034 3584 2315 3537 
Q 2597 3491 2834 3397 
z
" transform="scale(0.015625)"/>
       <path id="DejaVuSans-29" d="M 513 4856 
L 1013 4856 
Q 1481 4119 1714 3412 
Q 1947 2706 1947 2009 
Q 1947 1309 1714 600 
Q 1481 -109 1013 -844 
L 513 -844 
Q 928 -128 1133 580 
Q 1338 1288 1338 2009 
Q 1338 2731 1133 3434 
Q 928 4138 513 4856 
z
" transform="scale(0.015625)"/>
      </defs>
      <use xlink:href="#DejaVuSans-74"/>
      <use xlink:href="#DejaVuSans-69" x="39.208984"/>
      <use xlink:href="#DejaVuSans-6d" x="66.992188"/>
      <use xlink:href="#DejaVuSans-65" x="164.404297"/>
      <use xlink:href="#DejaVuSans-20" x="225.927734"/>
      <use xlink:href="#DejaVuSans-28" x="257.714844"/>
      <use xlink:href="#DejaVuSans-6d" x="296.728516"/>
      <use xlink:href="#DejaVuSans-73" x="394.140625"/>
      <use xlink:href="#DejaVuSans-29" x="446.240234"/>
     </g>
    </g>
   </g>
   <g id="line2d_65">
    <path d="M 115.363636 295.117279 
L 117.057368 307.869612 
L 118.7511 319.405729 
L 120.444832 329.782792 
L 122.138564 339.057967 
L 123.832296 347.288415 
L 125.526028 354.531301 
L 127.21976 360.843788 
L 128.913492 366.283039 
L 130.607224 370.906218 
L 132.300956 374.770489 
L 133.994688 377.933015 
L 135.68842 380.450959 
L 137.382152 382.381485 
L 139.075884 383.781757 
L 140.769616 384.708937 
L 142.463348 385.22019 
L 144.15708 385.372679 
L 145.850812 385.223567 
L 147.544544 384.830017 
L 150.085142 383.906419 
L 154.319472 381.954718 
L 156.86007 380.850674 
L 159.400668 380.018803 
L 161.941266 379.492269 
L 164.481864 379.216864 
L 167.869328 379.14457 
L 172.103658 379.343541 
L 178.878586 379.7261 
L 182.266049 379.700197 
L 186.500379 379.448434 
L 192.428441 378.843125 
L 202.590833 377.752831 
L 209.365761 377.31676 
L 216.140689 377.101641 
L 224.609349 377.063211 
L 247.474731 377.127973 
L 256.790256 376.803417 
L 266.105782 376.258782 
L 277.11504 375.386394 
L 292.358628 373.923348 
L 302.52102 373.045355 
L 309.295948 372.663386 
L 317.764608 372.426981 
L 343.170587 371.913902 
L 349.098649 371.463494 
L 357.567309 370.527068 
L 364.342237 369.857458 
L 368.576567 369.622348 
L 372.810897 369.597757 
L 378.738959 369.813903 
L 388.901351 370.242666 
L 393.982547 370.191639 
L 399.063743 369.904194 
L 404.991805 369.329823 
L 411.766732 368.446208 
L 423.622856 366.817166 
L 428.704052 366.391504 
L 432.938382 366.293242 
L 437.172712 366.458099 
L 444.794506 367.073188 
L 449.875702 367.409739 
L 454.110032 367.461493 
L 458.344362 367.232187 
L 464.272424 366.632263 
L 471.894218 365.888977 
L 476.128548 365.734208 
L 480.362878 365.83528 
L 486.290939 366.230126 
L 494.759599 366.797073 
L 498.993929 366.865949 
L 504.075125 366.702164 
L 509.156321 366.312561 
L 515.084383 365.634005 
L 522.706177 364.524331 
L 536.256033 362.50061 
L 542.184095 361.849027 
L 548.112157 361.406254 
L 554.887085 361.130509 
L 561.662012 361.07077 
L 570.977538 361.236179 
L 588.761724 361.603228 
L 598.924116 361.544642 
L 608.239642 361.258027 
L 616.708302 360.773479 
L 622.636364 360.292625 
L 622.636364 360.292625 
" clip-path="url(#pdcfbaf6ea4)" style="fill: none; stroke: #8dd3c7; stroke-width: 1.5; stroke-linecap: square"/>
   </g>
   <g id="line2d_66">
    <path d="M 115.363636 294.320128 
L 117.057368 307.198759 
L 118.7511 318.851566 
L 120.444832 329.33591 
L 122.138564 338.709152 
L 123.832296 347.028655 
L 125.526028 354.351778 
L 127.21976 360.735884 
L 128.913492 366.238334 
L 130.607224 370.91649 
L 132.300956 374.827712 
L 133.994688 378.029362 
L 135.68842 380.578802 
L 137.382152 382.533393 
L 139.075884 383.950495 
L 140.769616 384.887472 
L 142.463348 385.401683 
L 144.15708 385.550491 
L 145.850812 385.391256 
L 147.544544 384.98134 
L 150.085142 384.021918 
L 153.472606 382.400677 
L 156.86007 380.809217 
L 159.400668 379.897683 
L 161.941266 379.285077 
L 164.481864 378.923664 
L 167.022462 378.764554 
L 170.409926 378.782602 
L 176.337988 379.121902 
L 181.419183 379.33473 
L 186.500379 379.292405 
L 192.428441 378.980669 
L 199.203369 378.381068 
L 216.140689 376.739669 
L 221.221885 376.557147 
L 226.303081 376.638299 
L 233.078009 377.010533 
L 243.240401 377.597697 
L 249.168463 377.690461 
L 255.096525 377.536668 
L 260.17772 377.195772 
L 265.258916 376.652002 
L 275.421308 375.237438 
L 281.34937 374.555111 
L 285.5837 374.283685 
L 290.664896 374.214947 
L 299.980422 374.168482 
L 304.214752 373.884262 
L 307.602216 373.422443 
L 311.836546 372.591337 
L 321.998938 370.473316 
L 325.386402 370.054043 
L 327.927 369.928849 
L 331.314463 370.013704 
L 335.548793 370.386231 
L 344.864319 371.319081 
L 348.251783 371.38031 
L 351.639247 371.174072 
L 355.873577 370.62958 
L 363.495371 369.306468 
L 368.576567 368.544231 
L 371.964031 368.232189 
L 376.198361 368.077013 
L 380.432691 368.141961 
L 385.513887 368.448769 
L 392.288815 369.121047 
L 402.451207 370.170842 
L 406.685537 370.391307 
L 410.073 370.391777 
L 413.460464 370.193913 
L 417.694794 369.694722 
L 423.622856 368.706371 
L 432.938382 367.088539 
L 438.019578 366.454618 
L 443.94764 365.949458 
L 451.569434 365.553067 
L 461.731826 365.259674 
L 469.35362 365.262095 
L 475.281682 365.468614 
L 482.903475 365.992171 
L 493.065867 366.673209 
L 498.147063 366.792523 
L 504.075125 366.673461 
L 510.850053 366.286347 
L 521.012445 365.441473 
L 529.481105 364.544275 
L 535.409167 363.717698 
L 541.337229 362.661654 
L 551.499621 360.530482 
L 558.274548 359.21068 
L 563.355744 358.438639 
L 567.590074 358.005322 
L 571.824404 357.809379 
L 575.211868 357.852764 
L 578.599332 358.098179 
L 581.986796 358.5655 
L 586.221126 359.391805 
L 593.84292 360.927793 
L 597.230384 361.366334 
L 599.770982 361.501814 
L 602.31158 361.420694 
L 604.852178 361.077248 
L 607.392776 360.425751 
L 609.086508 359.797699 
L 610.78024 358.998864 
L 612.473972 358.015698 
L 614.167704 356.834653 
L 615.861436 355.44218 
L 617.555168 353.82473 
L 619.2489 351.968756 
L 620.942632 349.860709 
L 622.636364 347.48704 
L 622.636364 347.48704 
" clip-path="url(#pdcfbaf6ea4)" style="fill: none; stroke: #feffb3; stroke-width: 1.5; stroke-linecap: square"/>
   </g>
   <g id="line2d_67">
    <path d="M 115.363636 295.243676 
L 117.057368 307.946992 
L 118.7511 319.447455 
L 120.444832 329.801108 
L 122.138564 339.063993 
L 123.832296 347.292152 
L 125.526028 354.541626 
L 127.21976 360.868458 
L 128.913492 366.32869 
L 130.607224 370.978363 
L 132.300956 374.87352 
L 133.994688 378.070203 
L 135.68842 380.624453 
L 137.382152 382.592313 
L 139.075884 384.029825 
L 140.769616 384.99303 
L 142.463348 385.537971 
L 144.15708 385.720689 
L 145.850812 385.597227 
L 147.544544 385.223627 
L 149.238276 384.65593 
L 151.778874 383.563046 
L 157.706936 380.867469 
L 160.247534 380.062803 
L 162.788132 379.526303 
L 165.32873 379.212793 
L 168.716194 379.063575 
L 172.950524 379.158459 
L 182.266049 379.508561 
L 188.194111 379.409897 
L 194.969039 379.050793 
L 206.825163 378.133554 
L 218.681287 377.284172 
L 226.303081 376.96463 
L 236.465473 376.791576 
L 260.17772 376.462294 
L 272.033844 376.081359 
L 279.655638 375.627422 
L 286.430566 374.989466 
L 294.899226 373.919501 
L 305.061618 372.678262 
L 310.98968 372.182197 
L 318.611474 371.791456 
L 329.620732 371.49217 
L 343.170587 371.098124 
L 350.792381 370.66185 
L 366.035969 369.661072 
L 371.117165 369.575288 
L 377.045227 369.701705 
L 393.982547 370.236559 
L 399.910609 370.09985 
L 404.991805 369.751723 
L 409.226134 369.269191 
L 413.460464 368.591232 
L 428.704052 365.866097 
L 432.091516 365.596603 
L 435.47898 365.571031 
L 439.71331 365.804544 
L 452.4163 366.777034 
L 455.803764 366.733439 
L 460.038094 366.435819 
L 472.741084 365.336919 
L 476.128548 365.350187 
L 480.362878 365.649465 
L 486.290939 366.349041 
L 492.219001 367.018464 
L 496.453331 367.25941 
L 499.840795 367.230803 
L 504.075125 366.961828 
L 509.156321 366.401203 
L 529.481105 363.863871 
L 538.796631 363.03899 
L 555.733951 361.648212 
L 561.662012 360.899285 
L 573.518136 359.279259 
L 577.752466 358.977764 
L 581.13993 358.950103 
L 585.37426 359.193736 
L 598.924116 360.312437 
L 602.31158 360.236202 
L 604.852178 359.98015 
L 607.392776 359.514336 
L 609.933374 358.803392 
L 612.473972 357.811948 
L 615.01457 356.504638 
L 617.555168 354.846093 
L 620.095766 352.800946 
L 622.636364 350.333828 
L 622.636364 350.333828 
" clip-path="url(#pdcfbaf6ea4)" style="fill: none; stroke: #bfbbd9; stroke-width: 1.5; stroke-linecap: square"/>
   </g>
   <g id="line2d_68">
    <path d="M 115.363636 295.368808 
L 117.057368 307.98844 
L 118.7511 319.417448 
L 120.444832 329.710992 
L 122.138564 338.924232 
L 123.832296 347.112329 
L 125.526028 354.330442 
L 127.21976 360.633731 
L 128.913492 366.077357 
L 130.607224 370.716479 
L 132.300956 374.606257 
L 133.994688 377.801851 
L 135.68842 380.358423 
L 137.382152 382.33113 
L 139.075884 383.775134 
L 140.769616 384.745594 
L 142.463348 385.297671 
L 144.15708 385.486524 
L 145.850812 385.367314 
L 147.544544 384.9952 
L 149.238276 384.425343 
L 151.778874 383.320451 
L 157.706936 380.540505 
L 160.247534 379.670097 
L 162.788132 379.054604 
L 165.32873 378.655447 
L 168.716194 378.39308 
L 172.103658 378.355278 
L 178.03172 378.554427 
L 185.653513 378.747011 
L 192.428441 378.710076 
L 199.203369 378.468217 
L 206.825163 377.9641 
L 225.456215 376.619273 
L 233.078009 376.360756 
L 241.546669 376.304455 
L 262.718318 376.395203 
L 268.64638 376.05086 
L 277.961906 375.225065 
L 286.430566 374.531411 
L 295.746092 374.038472 
L 306.75535 373.422603 
L 316.070876 372.61841 
L 329.620732 371.448782 
L 337.242525 371.030645 
L 344.864319 370.833026 
L 352.486113 370.861287 
L 364.342237 370.932657 
L 369.423433 370.746596 
L 375.351495 370.274982 
L 387.207619 369.222704 
L 391.441949 369.06583 
L 396.523145 369.115433 
L 415.154196 369.614438 
L 421.082258 369.375635 
L 430.397784 368.73186 
L 447.335104 367.544441 
L 460.88496 366.81332 
L 474.434816 366.313152 
L 491.372135 365.954037 
L 505.768857 365.597514 
L 512.543785 365.224616 
L 518.471847 364.685318 
L 526.093641 363.716143 
L 537.102899 362.314679 
L 543.030961 361.825489 
L 548.959023 361.555508 
L 556.580817 361.443169 
L 576.058734 361.325676 
L 581.13993 360.967774 
L 586.221126 360.364734 
L 592.996054 359.314644 
L 604.852178 357.426357 
L 609.933374 356.841252 
L 614.167704 356.556208 
L 618.402034 356.513365 
L 621.789498 356.690056 
L 622.636364 356.767159 
L 622.636364 356.767159 
" clip-path="url(#pdcfbaf6ea4)" style="fill: none; stroke: #fa8174; stroke-width: 1.5; stroke-linecap: square"/>
   </g>
   <g id="line2d_69">
    <path d="M 115.363636 296.772548 
L 117.057368 309.300777 
L 118.7511 320.636659 
L 120.444832 330.835951 
L 122.138564 339.954414 
L 123.832296 348.047808 
L 125.526028 355.171891 
L 127.21976 361.382424 
L 128.913492 366.735167 
L 130.607224 371.285878 
L 132.300956 375.090318 
L 133.994688 378.204246 
L 135.68842 380.683421 
L 137.382152 382.583604 
L 139.075884 383.960554 
L 140.769616 384.870031 
L 142.463348 385.367794 
L 144.15708 385.509603 
L 145.850812 385.351217 
L 147.544544 384.948396 
L 150.085142 384.007824 
L 153.472606 382.418629 
L 156.86007 380.855367 
L 159.400668 379.955082 
L 161.941266 379.343126 
L 164.481864 378.972305 
L 167.869328 378.769461 
L 172.103658 378.823461 
L 181.419183 379.10689 
L 186.500379 378.952515 
L 194.969039 378.409603 
L 203.437699 377.931922 
L 214.446957 377.627095 
L 223.762483 377.298633 
L 237.312339 376.503021 
L 246.627865 376.077793 
L 255.94339 375.896286 
L 267.799514 375.909764 
L 278.808772 375.875744 
L 284.736834 375.660626 
L 290.664896 375.231617 
L 298.28669 374.433681 
L 311.836546 372.711612 
L 320.305206 371.739004 
L 326.233268 371.249516 
L 332.161329 370.98506 
L 339.783123 370.900605 
L 366.035969 370.868316 
L 374.504629 370.522456 
L 386.360753 370.012523 
L 392.288815 369.990113 
L 401.604341 370.269001 
L 408.379268 370.381298 
L 413.460464 370.233804 
L 418.54166 369.850174 
L 425.316588 369.106656 
L 439.71331 367.461755 
L 447.335104 366.837034 
L 454.956898 366.442973 
L 462.578692 366.29161 
L 471.047352 366.351289 
L 483.750341 366.704466 
L 493.065867 366.880132 
L 499.840795 366.790995 
L 506.615723 366.460771 
L 513.390651 365.887158 
L 520.165579 365.072646 
L 537.102899 362.843646 
L 542.184095 362.452904 
L 551.499621 362.019881 
L 559.121414 361.571871 
L 565.049476 360.979395 
L 580.293064 359.318001 
L 585.37426 359.051065 
L 591.302322 358.960722 
L 598.924116 359.075091 
L 617.555168 359.470352 
L 622.636364 359.37253 
L 622.636364 359.37253 
" clip-path="url(#pdcfbaf6ea4)" style="fill: none; stroke: #81b1d2; stroke-width: 1.5; stroke-linecap: square"/>
   </g>
   <g id="line2d_70">
    <path d="M 115.363636 296.069933 
L 117.057368 308.749733 
L 118.7511 320.215283 
L 120.444832 330.523809 
L 122.138564 339.732534 
L 123.832296 347.898686 
L 125.526028 355.079489 
L 127.21976 361.332169 
L 128.913492 366.713951 
L 130.607224 371.28206 
L 132.300956 375.093722 
L 133.994688 378.206163 
L 135.68842 380.676608 
L 137.382152 382.562281 
L 139.075884 383.92041 
L 140.769616 384.808218 
L 142.463348 385.282931 
L 144.15708 385.401775 
L 145.850812 385.221976 
L 147.544544 384.800758 
L 150.085142 383.841451 
L 158.553802 380.128433 
L 161.0944 379.501964 
L 163.634998 379.150952 
L 166.175596 379.018615 
L 169.56306 379.084187 
L 181.419183 379.651847 
L 185.653513 379.451334 
L 191.581575 378.913201 
L 200.050235 378.13151 
L 205.131431 377.902949 
L 216.140689 377.732246 
L 222.068751 377.509119 
L 228.843679 376.980161 
L 240.699803 375.975679 
L 245.780999 375.774975 
L 252.555927 375.76319 
L 273.727576 375.97876 
L 279.655638 375.756238 
L 285.5837 375.308488 
L 292.358628 374.521351 
L 311.836546 372.042411 
L 318.611474 371.503326 
L 325.386402 371.193182 
L 332.161329 371.111037 
L 346.558051 371.032472 
L 352.486113 370.732848 
L 371.964031 369.494799 
L 377.892093 369.475173 
L 385.513887 369.698382 
L 406.685537 370.533388 
L 410.919866 370.369351 
L 415.154196 369.983658 
L 421.082258 369.18366 
L 432.091516 367.632707 
L 437.172712 367.192841 
L 443.94764 366.865072 
L 458.344362 366.254258 
L 468.506754 365.735614 
L 473.58795 365.694017 
L 477.82228 365.857728 
L 484.597207 366.372967 
L 492.219001 366.914993 
L 496.453331 367.010817 
L 500.687661 366.877193 
L 505.768857 366.453037 
L 511.696919 365.682721 
L 519.318713 364.427791 
L 528.634239 362.887306 
L 533.715435 362.263443 
L 537.949765 361.962278 
L 542.184095 361.902464 
L 548.112157 362.080328 
L 556.580817 362.353018 
L 560.815146 362.273766 
L 565.896342 361.910965 
L 573.518136 361.074852 
L 581.13993 360.282132 
L 587.067992 359.912105 
L 593.84292 359.714006 
L 605.699044 359.63704 
L 615.861436 359.479366 
L 622.636364 359.14009 
L 622.636364 359.14009 
" clip-path="url(#pdcfbaf6ea4)" style="fill: none; stroke: #fdb462; stroke-width: 1.5; stroke-linecap: square"/>
   </g>
   <g id="patch_3">
    <path d="M 90 384.48 
L 90 51.84 
" style="fill: none; stroke: #ffffff; stroke-width: 0.8; stroke-linejoin: miter; stroke-linecap: square"/>
   </g>
   <g id="patch_4">
    <path d="M 648 384.48 
L 648 51.84 
" style="fill: none; stroke: #ffffff; stroke-width: 0.8; stroke-linejoin: miter; stroke-linecap: square"/>
   </g>
   <g id="patch_5">
    <path d="M 90 384.48 
L 648 384.48 
" style="fill: none; stroke: #ffffff; stroke-width: 0.8; stroke-linejoin: miter; stroke-linecap: square"/>
   </g>
   <g id="patch_6">
    <path d="M 90 51.84 
L 648 51.84 
" style="fill: none; stroke: #ffffff; stroke-width: 0.8; stroke-linejoin: miter; stroke-linecap: square"/>
   </g>
   <g id="text_35">
    <!-- caio.python_aio_asyncio - write (Time vs Concurrency) -->
    <g style="fill: #ffffff" transform="translate(205.461563 45.84) scale(0.12 -0.12)">
     <defs>
      <path id="DejaVuSans-61" d="M 2194 1759 
Q 1497 1759 1228 1600 
Q 959 1441 959 1056 
Q 959 750 1161 570 
Q 1363 391 1709 391 
Q 2188 391 2477 730 
Q 2766 1069 2766 1631 
L 2766 1759 
L 2194 1759 
z
M 3341 1997 
L 3341 0 
L 2766 0 
L 2766 531 
Q 2569 213 2275 61 
Q 1981 -91 1556 -91 
Q 1019 -91 701 211 
Q 384 513 384 1019 
Q 384 1609 779 1909 
Q 1175 2209 1959 2209 
L 2766 2209 
L 2766 2266 
Q 2766 2663 2505 2880 
Q 2244 3097 1772 3097 
Q 1472 3097 1187 3025 
Q 903 2953 641 2809 
L 641 3341 
Q 956 3463 1253 3523 
Q 1550 3584 1831 3584 
Q 2591 3584 2966 3190 
Q 3341 2797 3341 1997 
z
" transform="scale(0.015625)"/>
      <path id="DejaVuSans-2e" d="M 684 794 
L 1344 794 
L 1344 0 
L 684 0 
L 684 794 
z
" transform="scale(0.015625)"/>
      <path id="DejaVuSans-70" d="M 1159 525 
L 1159 -1331 
L 581 -1331 
L 581 3500 
L 1159 3500 
L 1159 2969 
Q 1341 3281 1617 3432 
Q 1894 3584 2278 3584 
Q 2916 3584 3314 3078 
Q 3713 2572 3713 1747 
Q 3713 922 3314 415 
Q 2916 -91 2278 -91 
Q 1894 -91 1617 61 
Q 1341 213 1159 525 
z
M 3116 1747 
Q 3116 2381 2855 2742 
Q 2594 3103 2138 3103 
Q 1681 3103 1420 2742 
Q 1159 2381 1159 1747 
Q 1159 1113 1420 752 
Q 1681 391 2138 391 
Q 2594 391 2855 752 
Q 3116 1113 3116 1747 
z
" transform="scale(0.015625)"/>
      <path id="DejaVuSans-68" d="M 3513 2113 
L 3513 0 
L 2938 0 
L 2938 2094 
Q 2938 2591 2744 2837 
Q 2550 3084 2163 3084 
Q 1697 3084 1428 2787 
Q 1159 2491 1159 1978 
L 1159 0 
L 581 0 
L 581 4863 
L 1159 4863 
L 1159 2956 
Q 1366 3272 1645 3428 
Q 1925 3584 2291 3584 
Q 2894 3584 3203 3211 
Q 3513 2838 3513 2113 
z
" transform="scale(0.015625)"/>
      <path id="DejaVuSans-5f" d="M 3263 -1063 
L 3263 -1509 
L -63 -1509 
L -63 -1063 
L 3263 -1063 
z
" transform="scale(0.015625)"/>
      <path id="DejaVuSans-2d" d="M 313 2009 
L 1997 2009 
L 1997 1497 
L 313 1497 
L 313 2009 
z
" transform="scale(0.015625)"/>
      <path id="DejaVuSans-77" d="M 269 3500 
L 844 3500 
L 1563 769 
L 2278 3500 
L 2956 3500 
L 3675 769 
L 4391 3500 
L 4966 3500 
L 4050 0 
L 3372 0 
L 2619 2869 
L 1863 0 
L 1184 0 
L 269 3500 
z
" transform="scale(0.015625)"/>
      <path id="DejaVuSans-54" d="M -19 4666 
L 3928 4666 
L 3928 4134 
L 2272 4134 
L 2272 0 
L 1638 0 
L 1638 4134 
L -19 4134 
L -19 4666 
z
" transform="scale(0.015625)"/>
      <path id="DejaVuSans-76" d="M 191 3500 
L 800 3500 
L 1894 563 
L 2988 3500 
L 3597 3500 
L 2284 0 
L 1503 0 
L 191 3500 
z
" transform="scale(0.015625)"/>
      <path id="DejaVuSans-43" d="M 4122 4306 
L 4122 3641 
Q 3803 3938 3442 4084 
Q 3081 4231 2675 4231 
Q 1875 4231 1450 3742 
Q 1025 3253 1025 2328 
Q 1025 1406 1450 917 
Q 1875 428 2675 428 
Q 3081 428 3442 575 
Q 3803 722 4122 1019 
L 4122 359 
Q 3791 134 3420 21 
Q 3050 -91 2638 -91 
Q 1578 -91 968 557 
Q 359 1206 359 2328 
Q 359 3453 968 4101 
Q 1578 4750 2638 4750 
Q 3056 4750 3426 4639 
Q 3797 4528 4122 4306 
z
" transform="scale(0.015625)"/>
     </defs>
     <use xlink:href="#DejaVuSans-63"/>
     <use xlink:href="#DejaVuSans-61" x="54.980469"/>
     <use xlink:href="#DejaVuSans-69" x="116.259766"/>
     <use xlink:href="#DejaVuSans-6f" x="144.042969"/>
     <use xlink:href="#DejaVuSans-2e" x="203.474609"/>
     <use xlink:href="#DejaVuSans-70" x="235.261719"/>
     <use xlink:href="#DejaVuSans-79" x="298.738281"/>
     <use xlink:href="#DejaVuSans-74" x="357.917969"/>
     <use xlink:href="#DejaVuSans-68" x="397.126953"/>
     <use xlink:href="#DejaVuSans-6f" x="460.505859"/>
     <use xlink:href="#DejaVuSans-6e" x="521.6875"/>
     <use xlink:href="#DejaVuSans-5f" x="585.066406"/>
     <use xlink:href="#DejaVuSans-61" x="635.066406"/>
     <use xlink:href="#DejaVuSans-69" x="696.345703"/>
     <use xlink:href="#DejaVuSans-6f" x="724.128906"/>
     <use xlink:href="#DejaVuSans-5f" x="785.310547"/>
     <use xlink:href="#DejaVuSans-61" x="835.310547"/>
     <use xlink:href="#DejaVuSans-73" x="896.589844"/>
     <use xlink:href="#DejaVuSans-79" x="948.689453"/>
     <use xlink:href="#DejaVuSans-6e" x="1007.869141"/>
     <use xlink:href="#DejaVuSans-63" x="1071.248047"/>
     <use xlink:href="#DejaVuSans-69" x="1126.228516"/>
     <use xlink:href="#DejaVuSans-6f" x="1154.011719"/>
     <use xlink:href="#DejaVuSans-20" x="1215.193359"/>
     <use xlink:href="#DejaVuSans-2d" x="1246.980469"/>
     <use xlink:href="#DejaVuSans-20" x="1283.064453"/>
     <use xlink:href="#DejaVuSans-77" x="1314.851562"/>
     <use xlink:href="#DejaVuSans-72" x="1396.638672"/>
     <use xlink:href="#DejaVuSans-69" x="1437.751953"/>
     <use xlink:href="#DejaVuSans-74" x="1465.535156"/>
     <use xlink:href="#DejaVuSans-65" x="1504.744141"/>
     <use xlink:href="#DejaVuSans-20" x="1566.267578"/>
     <use xlink:href="#DejaVuSans-28" x="1598.054688"/>
     <use xlink:href="#DejaVuSans-54" x="1637.068359"/>
     <use xlink:href="#DejaVuSans-69" x="1695.027344"/>
     <use xlink:href="#DejaVuSans-6d" x="1722.810547"/>
     <use xlink:href="#DejaVuSans-65" x="1820.222656"/>
     <use xlink:href="#DejaVuSans-20" x="1881.746094"/>
     <use xlink:href="#DejaVuSans-76" x="1913.533203"/>
     <use xlink:href="#DejaVuSans-73" x="1972.712891"/>
     <use xlink:href="#DejaVuSans-20" x="2024.8125"/>
     <use xlink:href="#DejaVuSans-43" x="2056.599609"/>
     <use xlink:href="#DejaVuSans-6f" x="2126.423828"/>
     <use xlink:href="#DejaVuSans-6e" x="2187.605469"/>
     <use xlink:href="#DejaVuSans-63" x="2250.984375"/>
     <use xlink:href="#DejaVuSans-75" x="2305.964844"/>
     <use xlink:href="#DejaVuSans-72" x="2369.34375"/>
     <use xlink:href="#DejaVuSans-72" x="2408.707031"/>
     <use xlink:href="#DejaVuSans-65" x="2447.570312"/>
     <use xlink:href="#DejaVuSans-6e" x="2509.09375"/>
     <use xlink:href="#DejaVuSans-63" x="2572.472656"/>
     <use xlink:href="#DejaVuSans-79" x="2627.453125"/>
     <use xlink:href="#DejaVuSans-29" x="2686.632812"/>
    </g>
   </g>
   <g id="legend_1">
    <g id="patch_7">
     <path d="M 543.43125 149.5775 
L 641 149.5775 
Q 643 149.5775 643 147.5775 
L 643 58.84 
Q 643 56.84 641 56.84 
L 543.43125 56.84 
Q 541.43125 56.84 541.43125 58.84 
L 541.43125 147.5775 
Q 541.43125 149.5775 543.43125 149.5775 
z
" style="opacity: 0.8; stroke: #cccccc; stroke-linejoin: miter"/>
    </g>
    <g id="line2d_71">
     <path d="M 545.43125 64.938437 
L 555.43125 64.938437 
L 565.43125 64.938437 
" style="fill: none; stroke: #8dd3c7; stroke-width: 1.5; stroke-linecap: square"/>
    </g>
    <g id="text_36">
     <!-- max_ops=1 -->
     <g style="fill: #ffffff" transform="translate(573.43125 68.438437) scale(0.1 -0.1)">
      <defs>
       <path id="DejaVuSans-78" d="M 3513 3500 
L 2247 1797 
L 3578 0 
L 2900 0 
L 1881 1375 
L 863 0 
L 184 0 
L 1544 1831 
L 300 3500 
L 978 3500 
L 1906 2253 
L 2834 3500 
L 3513 3500 
z
" transform="scale(0.015625)"/>
       <path id="DejaVuSans-3d" d="M 678 2906 
L 4684 2906 
L 4684 2381 
L 678 2381 
L 678 2906 
z
M 678 1631 
L 4684 1631 
L 4684 1100 
L 678 1100 
L 678 1631 
z
" transform="scale(0.015625)"/>
      </defs>
      <use xlink:href="#DejaVuSans-6d"/>
      <use xlink:href="#DejaVuSans-61" x="97.412109"/>
      <use xlink:href="#DejaVuSans-78" x="158.691406"/>
      <use xlink:href="#DejaVuSans-5f" x="217.871094"/>
      <use xlink:href="#DejaVuSans-6f" x="267.871094"/>
      <use xlink:href="#DejaVuSans-70" x="329.052734"/>
      <use xlink:href="#DejaVuSans-73" x="392.529297"/>
      <use xlink:href="#DejaVuSans-3d" x="444.628906"/>
      <use xlink:href="#DejaVuSans-31" x="528.417969"/>
     </g>
    </g>
    <g id="line2d_72">
     <path d="M 545.43125 79.894687 
L 555.43125 79.894687 
L 565.43125 79.894687 
" style="fill: none; stroke: #feffb3; stroke-width: 1.5; stroke-linecap: square"/>
    </g>
    <g id="text_37">
     <!-- max_ops=4 -->
     <g style="fill: #ffffff" transform="translate(573.43125 83.394687) scale(0.1 -0.1)">
      <use xlink:href="#DejaVuSans-6d"/>
      <use xlink:href="#DejaVuSans-61" x="97.412109"/>
      <use xlink:href="#DejaVuSans-78" x="158.691406"/>
      <use xlink:href="#DejaVuSans-5f" x="217.871094"/>
      <use xlink:href="#DejaVuSans-6f" x="267.871094"/>
      <use xlink:href="#DejaVuSans-70" x="329.052734"/>
      <use xlink:href="#DejaVuSans-73" x="392.529297"/>
      <use xlink:href="#DejaVuSans-3d" x="444.628906"/>
      <use xlink:href="#DejaVuSans-34" x="528.417969"/>
     </g>
    </g>
    <g id="line2d_73">
     <path d="M 545.43125 94.850937 
L 555.43125 94.850937 
L 565.43125 94.850937 
" style="fill: none; stroke: #bfbbd9; stroke-width: 1.5; stroke-linecap: square"/>
    </g>
    <g id="text_38">
     <!-- max_ops=8 -->
     <g style="fill: #ffffff" transform="translate(573.43125 98.350937) scale(0.1 -0.1)">
      <use xlink:href="#DejaVuSans-6d"/>
      <use xlink:href="#DejaVuSans-61" x="97.412109"/>
      <use xlink:href="#DejaVuSans-78" x="158.691406"/>
      <use xlink:href="#DejaVuSans-5f" x="217.871094"/>
      <use xlink:href="#DejaVuSans-6f" x="267.871094"/>
      <use xlink:href="#DejaVuSans-70" x="329.052734"/>
      <use xlink:href="#DejaVuSans-73" x="392.529297"/>
      <use xlink:href="#DejaVuSans-3d" x="444.628906"/>
      <use xlink:href="#DejaVuSans-38" x="528.417969"/>
     </g>
    </g>
    <g id="line2d_74">
     <path d="M 545.43125 109.807187 
L 555.43125 109.807187 
L 565.43125 109.807187 
" style="fill: none; stroke: #fa8174; stroke-width: 1.5; stroke-linecap: square"/>
    </g>
    <g id="text_39">
     <!-- max_ops=16 -->
     <g style="fill: #ffffff" transform="translate(573.43125 113.307187) scale(0.1 -0.1)">
      <use xlink:href="#DejaVuSans-6d"/>
      <use xlink:href="#DejaVuSans-61" x="97.412109"/>
      <use xlink:href="#DejaVuSans-78" x="158.691406"/>
      <use xlink:href="#DejaVuSans-5f" x="217.871094"/>
      <use xlink:href="#DejaVuSans-6f" x="267.871094"/>
      <use xlink:href="#DejaVuSans-70" x="329.052734"/>
      <use xlink:href="#DejaVuSans-73" x="392.529297"/>
      <use xlink:href="#DejaVuSans-3d" x="444.628906"/>
      <use xlink:href="#DejaVuSans-31" x="528.417969"/>
      <use xlink:href="#DejaVuSans-36" x="592.041016"/>
     </g>
    </g>
    <g id="line2d_75">
     <path d="M 545.43125 124.763437 
L 555.43125 124.763437 
L 565.43125 124.763437 
" style="fill: none; stroke: #81b1d2; stroke-width: 1.5; stroke-linecap: square"/>
    </g>
    <g id="text_40">
     <!-- max_ops=32 -->
     <g style="fill: #ffffff" transform="translate(573.43125 128.263437) scale(0.1 -0.1)">
      <use xlink:href="#DejaVuSans-6d"/>
      <use xlink:href="#DejaVuSans-61" x="97.412109"/>
      <use xlink:href="#DejaVuSans-78" x="158.691406"/>
      <use xlink:href="#DejaVuSans-5f" x="217.871094"/>
      <use xlink:href="#DejaVuSans-6f" x="267.871094"/>
      <use xlink:href="#DejaVuSans-70" x="329.052734"/>
      <use xlink:href="#DejaVuSans-73" x="392.529297"/>
      <use xlink:href="#DejaVuSans-3d" x="444.628906"/>
      <use xlink:href="#DejaVuSans-33" x="528.417969"/>
      <use xlink:href="#DejaVuSans-32" x="592.041016"/>
     </g>
    </g>
    <g id="line2d_76">
     <path d="M 545.43125 139.719687 
L 555.43125 139.719687 
L 565.43125 139.719687 
" style="fill: none; stroke: #fdb462; stroke-width: 1.5; stroke-linecap: square"/>
    </g>
    <g id="text_41">
     <!-- max_ops=64 -->
     <g style="fill: #ffffff" transform="translate(573.43125 143.219687) scale(0.1 -0.1)">
      <use xlink:href="#DejaVuSans-6d"/>
      <use xlink:href="#DejaVuSans-61" x="97.412109"/>
      <use xlink:href="#DejaVuSans-78" x="158.691406"/>
      <use xlink:href="#DejaVuSans-5f" x="217.871094"/>
      <use xlink:href="#DejaVuSans-6f" x="267.871094"/>
      <use xlink:href="#DejaVuSans-70" x="329.052734"/>
      <use xlink:href="#DejaVuSans-73" x="392.529297"/>
      <use xlink:href="#DejaVuSans-3d" x="444.628906"/>
      <use xlink:href="#DejaVuSans-36" x="528.417969"/>
      <use xlink:href="#DejaVuSans-34" x="592.041016"/>
     </g>
    </g>
   </g>
  </g>
 </g>
 <defs>
  <clipPath id="pdcfbaf6ea4">
   <rect x="90" y="51.84" width="558" height="332.64"/>
  </clipPath>
 </defs>
</svg>
