<?xml version="1.0" encoding="utf-8" standalone="no"?>
<!DOCTYPE svg PUBLIC "-//W3C//DTD SVG 1.1//EN"
  "http://www.w3.org/Graphics/SVG/1.1/DTD/svg11.dtd">
<svg xmlns:xlink="http://www.w3.org/1999/xlink" width="864pt" height="576pt" viewBox="0 0 864 576" xmlns="http://www.w3.org/2000/svg" version="1.1">
 <metadata>
  <rdf:RDF xmlns:dc="http://purl.org/dc/elements/1.1/" xmlns:cc="http://creativecommons.org/ns#" xmlns:rdf="http://www.w3.org/1999/02/22-rdf-syntax-ns#">
   <cc:Work>
    <dc:type rdf:resource="http://purl.org/dc/dcmitype/StillImage"/>
    <dc:date>2024-01-19T18:12:42.748990</dc:date>
    <dc:format>image/svg+xml</dc:format>
    <dc:creator>
     <cc:Agent>
      <dc:title>Matplotlib v3.8.2, https://matplotlib.org/</dc:title>
     </cc:Agent>
    </dc:creator>
   </cc:Work>
  </rdf:RDF>
 </metadata>
 <defs>
  <style type="text/css">*{stroke-linejoin: round; stroke-linecap: butt}</style>
 </defs>
 <g id="figure_1">
  <g id="patch_1">
   <path d="M 0 576 
L 864 576 
L 864 0 
L 0 0 
z
"/>
  </g>
  <g id="axes_1">
   <g id="patch_2">
    <path d="M 108 512.64 
L 777.6 512.64 
L 777.6 69.12 
L 108 69.12 
z
"/>
   </g>
   <g id="PolyCollection_1">
    <defs>
     <path id="m51d0d5dd1a" d="M 143.082163 -63.770915 
L 143.082163 -63.36 
L 144.019259 -63.36 
L 144.956355 -63.36 
L 145.893451 -63.36 
L 146.830547 -63.36 
L 147.767643 -63.36 
L 148.704739 -63.36 
L 149.641835 -63.36 
L 150.578931 -63.36 
L 151.516027 -63.36 
L 152.453123 -63.36 
L 153.390219 -63.36 
L 154.327315 -63.36 
L 155.264411 -63.36 
L 156.201507 -63.36 
L 157.138603 -63.36 
L 158.075699 -63.36 
L 159.012795 -63.36 
L 159.949891 -63.36 
L 160.886987 -63.36 
L 161.824083 -63.36 
L 162.761179 -63.36 
L 163.698275 -63.36 
L 164.635371 -63.36 
L 165.572467 -63.36 
L 166.509563 -63.36 
L 167.446659 -63.36 
L 168.383755 -63.36 
L 169.320851 -63.36 
L 170.257947 -63.36 
L 171.195043 -63.36 
L 172.132139 -63.36 
L 173.069235 -63.36 
L 174.006331 -63.36 
L 174.943427 -63.36 
L 175.880523 -63.36 
L 176.817619 -63.36 
L 177.754715 -63.36 
L 178.691811 -63.36 
L 179.628907 -63.36 
L 180.566003 -63.36 
L 181.503099 -63.36 
L 182.440195 -63.36 
L 183.377291 -63.36 
L 184.314387 -63.36 
L 185.251483 -63.36 
L 186.188579 -63.36 
L 187.125675 -63.36 
L 188.062771 -63.36 
L 188.999867 -63.36 
L 189.936963 -63.36 
L 190.874059 -63.36 
L 191.811155 -63.36 
L 192.748251 -63.36 
L 193.685347 -63.36 
L 194.622443 -63.36 
L 195.559539 -63.36 
L 196.496635 -63.36 
L 197.433731 -63.36 
L 198.370827 -63.36 
L 199.307923 -63.36 
L 200.245019 -63.36 
L 201.182115 -63.36 
L 202.119211 -63.36 
L 203.056307 -63.36 
L 203.993403 -63.36 
L 204.930499 -63.36 
L 205.867595 -63.36 
L 206.804691 -63.36 
L 207.741787 -63.36 
L 208.678883 -63.36 
L 209.615979 -63.36 
L 210.553075 -63.36 
L 211.490171 -63.36 
L 212.427267 -63.36 
L 213.364363 -63.36 
L 214.301459 -63.36 
L 215.238555 -63.36 
L 216.175651 -63.36 
L 217.112747 -63.36 
L 218.049843 -63.36 
L 218.986939 -63.36 
L 219.924035 -63.36 
L 220.861131 -63.36 
L 221.798227 -63.36 
L 222.735323 -63.36 
L 223.672419 -63.36 
L 224.609515 -63.36 
L 225.546611 -63.36 
L 226.483707 -63.36 
L 227.420803 -63.36 
L 228.357899 -63.36 
L 229.294995 -63.36 
L 230.232091 -63.36 
L 231.169187 -63.36 
L 232.106283 -63.36 
L 233.043379 -63.36 
L 233.980475 -63.36 
L 234.917571 -63.36 
L 235.854667 -63.36 
L 236.791763 -63.36 
L 237.728859 -63.36 
L 238.665955 -63.36 
L 239.603051 -63.36 
L 240.540147 -63.36 
L 241.477243 -63.36 
L 242.414339 -63.36 
L 243.351435 -63.36 
L 244.288531 -63.36 
L 245.225627 -63.36 
L 246.162723 -63.36 
L 247.099819 -63.36 
L 248.036915 -63.36 
L 248.974011 -63.36 
L 249.911107 -63.36 
L 250.848203 -63.36 
L 251.785299 -63.36 
L 252.722395 -63.36 
L 253.659491 -63.36 
L 254.596587 -63.36 
L 255.533683 -63.36 
L 256.470779 -63.36 
L 257.407875 -63.36 
L 258.344971 -63.36 
L 259.282067 -63.36 
L 260.219163 -63.36 
L 261.156259 -63.36 
L 262.093355 -63.36 
L 263.030451 -63.36 
L 263.967547 -63.36 
L 264.904643 -63.36 
L 265.841739 -63.36 
L 266.778835 -63.36 
L 267.715931 -63.36 
L 268.653027 -63.36 
L 269.590123 -63.36 
L 270.527219 -63.36 
L 271.464315 -63.36 
L 272.401411 -63.36 
L 273.338507 -63.36 
L 274.275603 -63.36 
L 275.212699 -63.36 
L 276.149795 -63.36 
L 277.086891 -63.36 
L 278.023987 -63.36 
L 278.961083 -63.36 
L 279.898179 -63.36 
L 280.835275 -63.36 
L 281.772371 -63.36 
L 282.709467 -63.36 
L 283.646563 -63.36 
L 284.583659 -63.36 
L 285.520755 -63.36 
L 286.457851 -63.36 
L 287.394947 -63.36 
L 288.332043 -63.36 
L 289.269139 -63.36 
L 290.206235 -63.36 
L 291.143331 -63.36 
L 292.080427 -63.36 
L 293.017523 -63.36 
L 293.954619 -63.36 
L 294.891715 -63.36 
L 295.828811 -63.36 
L 296.765907 -63.36 
L 297.703003 -63.36 
L 298.640099 -63.36 
L 299.577195 -63.36 
L 300.514291 -63.36 
L 301.451387 -63.36 
L 302.388483 -63.36 
L 303.325579 -63.36 
L 304.262675 -63.36 
L 305.199771 -63.36 
L 306.136867 -63.36 
L 307.073963 -63.36 
L 308.011059 -63.36 
L 308.948155 -63.36 
L 309.885251 -63.36 
L 310.822347 -63.36 
L 311.759443 -63.36 
L 312.696539 -63.36 
L 313.633635 -63.36 
L 314.570731 -63.36 
L 315.507827 -63.36 
L 316.444923 -63.36 
L 317.382019 -63.36 
L 318.319115 -63.36 
L 319.256211 -63.36 
L 320.193307 -63.36 
L 321.130403 -63.36 
L 322.067499 -63.36 
L 323.004595 -63.36 
L 323.941691 -63.36 
L 324.878787 -63.36 
L 325.815882 -63.36 
L 326.752978 -63.36 
L 327.690074 -63.36 
L 328.62717 -63.36 
L 329.564266 -63.36 
L 329.564266 -63.383371 
L 329.564266 -63.383371 
L 328.62717 -63.402181 
L 327.690074 -63.4341 
L 326.752978 -63.486737 
L 325.815882 -63.5711 
L 324.878787 -63.702498 
L 323.941691 -63.901355 
L 323.004595 -64.193671 
L 322.067499 -64.610845 
L 321.130403 -65.18846 
L 320.193307 -65.963699 
L 319.256211 -66.971141 
L 318.319115 -68.236981 
L 317.382019 -69.772072 
L 316.444923 -71.564698 
L 315.507827 -73.574395 
L 314.570731 -75.728429 
L 313.633635 -77.922484 
L 312.696539 -80.026592 
L 311.759443 -81.896463 
L 310.822347 -83.389163 
L 309.885251 -84.380937 
L 308.948155 -84.784131 
L 308.011059 -84.560031 
L 307.073963 -83.724974 
L 306.136867 -82.348426 
L 305.199771 -80.543306 
L 304.262675 -78.450479 
L 303.325579 -76.220388 
L 302.388483 -73.995205 
L 301.451387 -71.894409 
L 300.514291 -70.005696 
L 299.577195 -68.381786 
L 298.640099 -67.042519 
L 297.703003 -65.980748 
L 296.765907 -65.170209 
L 295.828811 -64.573639 
L 294.891715 -64.149852 
L 293.954619 -63.859042 
L 293.017523 -63.666129 
L 292.080427 -63.542343 
L 291.143331 -63.465471 
L 290.206235 -63.419247 
L 289.269139 -63.392325 
L 288.332043 -63.37713 
L 287.394947 -63.368818 
L 286.457851 -63.364409 
L 285.520755 -63.362142 
L 284.583659 -63.361011 
L 283.646563 -63.360463 
L 282.709467 -63.360206 
L 281.772371 -63.360089 
L 280.835275 -63.360037 
L 279.898179 -63.360015 
L 278.961083 -63.360006 
L 278.023987 -63.360002 
L 277.086891 -63.360001 
L 276.149795 -63.36 
L 275.212699 -63.36 
L 274.275603 -63.36 
L 273.338507 -63.36 
L 272.401411 -63.36 
L 271.464315 -63.36 
L 270.527219 -63.36 
L 269.590123 -63.36 
L 268.653027 -63.36 
L 267.715931 -63.36 
L 266.778835 -63.36 
L 265.841739 -63.36 
L 264.904643 -63.36 
L 263.967547 -63.36 
L 263.030451 -63.36 
L 262.093355 -63.36 
L 261.156259 -63.36 
L 260.219163 -63.36 
L 259.282067 -63.36 
L 258.344971 -63.360001 
L 257.407875 -63.360003 
L 256.470779 -63.360008 
L 255.533683 -63.360019 
L 254.596587 -63.360044 
L 253.659491 -63.360099 
L 252.722395 -63.360214 
L 251.785299 -63.360449 
L 250.848203 -63.360911 
L 249.911107 -63.361792 
L 248.974011 -63.363411 
L 248.036915 -63.366286 
L 247.099819 -63.371215 
L 246.162723 -63.379373 
L 245.225627 -63.392399 
L 244.288531 -63.412461 
L 243.351435 -63.442248 
L 242.414339 -63.484857 
L 241.477243 -63.543536 
L 240.540147 -63.621269 
L 239.603051 -63.720217 
L 238.665955 -63.841086 
L 237.728859 -63.982552 
L 236.791763 -64.140883 
L 235.854667 -64.309949 
L 234.917571 -64.48173 
L 233.980475 -64.647371 
L 233.043379 -64.798714 
L 232.106283 -64.930092 
L 231.169187 -65.040091 
L 230.232091 -65.132943 
L 229.294995 -65.219274 
L 228.357899 -65.316029 
L 227.420803 -65.445599 
L 226.483707 -65.634331 
L 225.546611 -65.910732 
L 224.609515 -66.303746 
L 223.672419 -66.841459 
L 222.735323 -67.550479 
L 221.798227 -68.456114 
L 220.861131 -69.58334 
L 219.924035 -70.958394 
L 218.986939 -72.610809 
L 218.049843 -74.575561 
L 217.112747 -76.895051 
L 216.175651 -79.620549 
L 215.238555 -82.812776 
L 214.301459 -86.541276 
L 213.364363 -90.882336 
L 212.427267 -95.91532 
L 211.490171 -101.717505 
L 210.553075 -108.357717 
L 209.615979 -115.88938 
L 208.678883 -124.343739 
L 207.741787 -133.724203 
L 206.804691 -144.002711 
L 205.867595 -155.118898 
L 204.930499 -166.982512 
L 203.993403 -179.479145 
L 203.056307 -192.478833 
L 202.119211 -205.846604 
L 201.182115 -219.45361 
L 200.245019 -233.187215 
L 199.307923 -246.958324 
L 198.370827 -260.704477 
L 197.433731 -274.387696 
L 196.496635 -287.986896 
L 195.559539 -301.485592 
L 194.622443 -314.856637 
L 193.685347 -328.04652 
L 192.748251 -340.962218 
L 191.811155 -353.463545 
L 190.874059 -365.363318 
L 189.936963 -376.436513 
L 188.999867 -386.438093 
L 188.062771 -395.127599 
L 187.125675 -402.297173 
L 186.188579 -407.798764 
L 185.251483 -411.566084 
L 184.314387 -413.627473 
L 183.377291 -414.107253 
L 182.440195 -413.215045 
L 181.503099 -411.224649 
L 180.566003 -408.445922 
L 179.628907 -405.194245 
L 178.691811 -401.762376 
L 177.754715 -398.398659 
L 176.817619 -395.2939 
L 175.880523 -392.577118 
L 174.943427 -390.318301 
L 174.006331 -388.534786 
L 173.069235 -387.197247 
L 172.132139 -386.231771 
L 171.195043 -385.515927 
L 170.257947 -384.869028 
L 169.320851 -384.039374 
L 168.383755 -382.693586 
L 167.446659 -380.414644 
L 166.509563 -376.715114 
L 165.572467 -371.070038 
L 164.635371 -362.969974 
L 163.698275 -351.989401 
L 162.761179 -337.860402 
L 161.824083 -320.537737 
L 160.886987 -300.240656 
L 159.949891 -277.459765 
L 159.012795 -252.923676 
L 158.075699 -227.528521 
L 157.138603 -202.241521 
L 156.201507 -177.99543 
L 155.264411 -155.592197 
L 154.327315 -135.631486 
L 153.390219 -118.47349 
L 152.453123 -104.237849 
L 151.516027 -92.833395 
L 150.578931 -84.008628 
L 149.641835 -77.410986 
L 148.704739 -72.644037 
L 147.767643 -69.314721 
L 146.830547 -67.066617 
L 145.893451 -65.598705 
L 144.956355 -64.671723 
L 144.019259 -64.105498 
L 143.082163 -63.770915 
z
" style="stroke: #1ac938"/>
    </defs>
    <g clip-path="url(#p5c45baa45c)">
     <use xlink:href="#m51d0d5dd1a" x="0" y="576" style="fill: #1ac938; fill-opacity: 0.25; stroke: #1ac938"/>
    </g>
   </g>
   <g id="PolyCollection_2">
    <defs>
     <path id="m8d6fe7f2da" d="M 138.436364 -63.915015 
L 138.436364 -63.36 
L 141.495295 -63.36 
L 144.554226 -63.36 
L 147.613157 -63.36 
L 150.672088 -63.36 
L 153.731019 -63.36 
L 156.78995 -63.36 
L 159.848881 -63.36 
L 162.907812 -63.36 
L 165.966743 -63.36 
L 169.025674 -63.36 
L 172.084605 -63.36 
L 175.143536 -63.36 
L 178.202467 -63.36 
L 181.261398 -63.36 
L 184.320329 -63.36 
L 187.37926 -63.36 
L 190.438191 -63.36 
L 193.497122 -63.36 
L 196.556053 -63.36 
L 199.614984 -63.36 
L 202.673915 -63.36 
L 205.732846 -63.36 
L 208.791777 -63.36 
L 211.850708 -63.36 
L 214.909639 -63.36 
L 217.96857 -63.36 
L 221.027501 -63.36 
L 224.086432 -63.36 
L 227.145363 -63.36 
L 230.204294 -63.36 
L 233.263225 -63.36 
L 236.322156 -63.36 
L 239.381087 -63.36 
L 242.440018 -63.36 
L 245.498949 -63.36 
L 248.55788 -63.36 
L 251.616811 -63.36 
L 254.675742 -63.36 
L 257.734673 -63.36 
L 260.793604 -63.36 
L 263.852535 -63.36 
L 266.911466 -63.36 
L 269.970397 -63.36 
L 273.029328 -63.36 
L 276.088259 -63.36 
L 279.14719 -63.36 
L 282.206122 -63.36 
L 285.265053 -63.36 
L 288.323984 -63.36 
L 291.382915 -63.36 
L 294.441846 -63.36 
L 297.500777 -63.36 
L 300.559708 -63.36 
L 303.618639 -63.36 
L 306.67757 -63.36 
L 309.736501 -63.36 
L 312.795432 -63.36 
L 315.854363 -63.36 
L 318.913294 -63.36 
L 321.972225 -63.36 
L 325.031156 -63.36 
L 328.090087 -63.36 
L 331.149018 -63.36 
L 334.207949 -63.36 
L 337.26688 -63.36 
L 340.325811 -63.36 
L 343.384742 -63.36 
L 346.443673 -63.36 
L 349.502604 -63.36 
L 352.561535 -63.36 
L 355.620466 -63.36 
L 358.679397 -63.36 
L 361.738328 -63.36 
L 364.797259 -63.36 
L 367.85619 -63.36 
L 370.915121 -63.36 
L 373.974052 -63.36 
L 377.032983 -63.36 
L 380.091914 -63.36 
L 383.150845 -63.36 
L 386.209776 -63.36 
L 389.268707 -63.36 
L 392.327638 -63.36 
L 395.386569 -63.36 
L 398.4455 -63.36 
L 401.504431 -63.36 
L 404.563362 -63.36 
L 407.622293 -63.36 
L 410.681224 -63.36 
L 413.740155 -63.36 
L 416.799086 -63.36 
L 419.858017 -63.36 
L 422.916948 -63.36 
L 425.975879 -63.36 
L 429.03481 -63.36 
L 432.093741 -63.36 
L 435.152672 -63.36 
L 438.211603 -63.36 
L 441.270534 -63.36 
L 444.329466 -63.36 
L 447.388397 -63.36 
L 450.447328 -63.36 
L 453.506259 -63.36 
L 456.56519 -63.36 
L 459.624121 -63.36 
L 462.683052 -63.36 
L 465.741983 -63.36 
L 468.800914 -63.36 
L 471.859845 -63.36 
L 474.918776 -63.36 
L 477.977707 -63.36 
L 481.036638 -63.36 
L 484.095569 -63.36 
L 487.1545 -63.36 
L 490.213431 -63.36 
L 493.272362 -63.36 
L 496.331293 -63.36 
L 499.390224 -63.36 
L 502.449155 -63.36 
L 505.508086 -63.36 
L 508.567017 -63.36 
L 511.625948 -63.36 
L 514.684879 -63.36 
L 517.74381 -63.36 
L 520.802741 -63.36 
L 523.861672 -63.36 
L 526.920603 -63.36 
L 529.979534 -63.36 
L 533.038465 -63.36 
L 536.097396 -63.36 
L 539.156327 -63.36 
L 542.215258 -63.36 
L 545.274189 -63.36 
L 548.33312 -63.36 
L 551.392051 -63.36 
L 554.450982 -63.36 
L 557.509913 -63.36 
L 560.568844 -63.36 
L 563.627775 -63.36 
L 566.686706 -63.36 
L 569.745637 -63.36 
L 572.804568 -63.36 
L 575.863499 -63.36 
L 578.92243 -63.36 
L 581.981361 -63.36 
L 585.040292 -63.36 
L 588.099223 -63.36 
L 591.158154 -63.36 
L 594.217085 -63.36 
L 597.276016 -63.36 
L 600.334947 -63.36 
L 603.393878 -63.36 
L 606.45281 -63.36 
L 609.511741 -63.36 
L 612.570672 -63.36 
L 615.629603 -63.36 
L 618.688534 -63.36 
L 621.747465 -63.36 
L 624.806396 -63.36 
L 627.865327 -63.36 
L 630.924258 -63.36 
L 633.983189 -63.36 
L 637.04212 -63.36 
L 640.101051 -63.36 
L 643.159982 -63.36 
L 646.218913 -63.36 
L 649.277844 -63.36 
L 652.336775 -63.36 
L 655.395706 -63.36 
L 658.454637 -63.36 
L 661.513568 -63.36 
L 664.572499 -63.36 
L 667.63143 -63.36 
L 670.690361 -63.36 
L 673.749292 -63.36 
L 676.808223 -63.36 
L 679.867154 -63.36 
L 682.926085 -63.36 
L 685.985016 -63.36 
L 689.043947 -63.36 
L 692.102878 -63.36 
L 695.161809 -63.36 
L 698.22074 -63.36 
L 701.279671 -63.36 
L 704.338602 -63.36 
L 707.397533 -63.36 
L 710.456464 -63.36 
L 713.515395 -63.36 
L 716.574326 -63.36 
L 719.633257 -63.36 
L 722.692188 -63.36 
L 725.751119 -63.36 
L 728.81005 -63.36 
L 731.868981 -63.36 
L 734.927912 -63.36 
L 737.986843 -63.36 
L 741.045774 -63.36 
L 744.104705 -63.36 
L 747.163636 -63.36 
L 747.163636 -63.366677 
L 747.163636 -63.366677 
L 744.104705 -63.384506 
L 741.045774 -63.432098 
L 737.986843 -63.530029 
L 734.927912 -63.681416 
L 731.868981 -63.847027 
L 728.81005 -63.951537 
L 725.751119 -63.935909 
L 722.692188 -63.809437 
L 719.633257 -63.641143 
L 716.574326 -63.50097 
L 713.515395 -63.416659 
L 710.456464 -63.378254 
L 707.397533 -63.364714 
L 704.338602 -63.360976 
L 701.279671 -63.360162 
L 698.22074 -63.360022 
L 695.161809 -63.360002 
L 692.102878 -63.36 
L 689.043947 -63.36 
L 685.985016 -63.36 
L 682.926085 -63.36 
L 679.867154 -63.36 
L 676.808223 -63.36 
L 673.749292 -63.36 
L 670.690361 -63.36 
L 667.63143 -63.36 
L 664.572499 -63.36 
L 661.513568 -63.36 
L 658.454637 -63.36 
L 655.395706 -63.36 
L 652.336775 -63.36 
L 649.277844 -63.36 
L 646.218913 -63.36 
L 643.159982 -63.36 
L 640.101051 -63.36 
L 637.04212 -63.36 
L 633.983189 -63.36 
L 630.924258 -63.36 
L 627.865327 -63.36 
L 624.806396 -63.36 
L 621.747465 -63.36 
L 618.688534 -63.36 
L 615.629603 -63.36 
L 612.570672 -63.36 
L 609.511741 -63.36 
L 606.45281 -63.36 
L 603.393878 -63.36 
L 600.334947 -63.36 
L 597.276016 -63.36 
L 594.217085 -63.36 
L 591.158154 -63.36 
L 588.099223 -63.36 
L 585.040292 -63.36 
L 581.981361 -63.36 
L 578.92243 -63.36 
L 575.863499 -63.36 
L 572.804568 -63.36 
L 569.745637 -63.360003 
L 566.686706 -63.360026 
L 563.627775 -63.36019 
L 560.568844 -63.361125 
L 557.509913 -63.365334 
L 554.450982 -63.380272 
L 551.392051 -63.421751 
L 548.33312 -63.510777 
L 545.274189 -63.655103 
L 542.215258 -63.82297 
L 539.156327 -63.942205 
L 536.097396 -63.94687 
L 533.038465 -63.834189 
L 529.979534 -63.667117 
L 526.920603 -63.51944 
L 523.861672 -63.426349 
L 520.802741 -63.382132 
L 517.74381 -63.365918 
L 514.684879 -63.361268 
L 511.625948 -63.360218 
L 508.567017 -63.36003 
L 505.508086 -63.360003 
L 502.449155 -63.36 
L 499.390224 -63.36 
L 496.331293 -63.36 
L 493.272362 -63.36 
L 490.213431 -63.36 
L 487.1545 -63.36 
L 484.095569 -63.36 
L 481.036638 -63.36 
L 477.977707 -63.36 
L 474.918776 -63.36 
L 471.859845 -63.36 
L 468.800914 -63.36 
L 465.741983 -63.36 
L 462.683052 -63.36 
L 459.624121 -63.36 
L 456.56519 -63.36 
L 453.506259 -63.36 
L 450.447328 -63.36 
L 447.388397 -63.36 
L 444.329466 -63.36 
L 441.270534 -63.36 
L 438.211603 -63.36 
L 435.152672 -63.36 
L 432.093741 -63.36 
L 429.03481 -63.36 
L 425.975879 -63.36 
L 422.916948 -63.36 
L 419.858017 -63.36 
L 416.799086 -63.36 
L 413.740155 -63.36 
L 410.681224 -63.36 
L 407.622293 -63.36 
L 404.563362 -63.36 
L 401.504431 -63.36 
L 398.4455 -63.36 
L 395.386569 -63.36 
L 392.327638 -63.360001 
L 389.268707 -63.360007 
L 386.209776 -63.360059 
L 383.150845 -63.360398 
L 380.091914 -63.362156 
L 377.032983 -63.369352 
L 373.974052 -63.392527 
L 370.915121 -63.450681 
L 367.85619 -63.562646 
L 364.797259 -63.723039 
L 361.738328 -63.881618 
L 358.679397 -63.9623 
L 355.620466 -63.924154 
L 352.561535 -63.806928 
L 349.502604 -63.70947 
L 346.443673 -63.723703 
L 343.384742 -63.886456 
L 340.325811 -64.186364 
L 337.26688 -64.634891 
L 334.207949 -65.382057 
L 331.149018 -66.779389 
L 328.090087 -69.21156 
L 325.031156 -72.623864 
L 321.972225 -76.085377 
L 318.913294 -78.042103 
L 315.854363 -77.388858 
L 312.795432 -74.407609 
L 309.736501 -70.532354 
L 306.67757 -67.213772 
L 303.618639 -65.08507 
L 300.559708 -64.008591 
L 297.500777 -63.566405 
L 294.441846 -63.415851 
L 291.382915 -63.372842 
L 288.323984 -63.362494 
L 285.265053 -63.360405 
L 282.206122 -63.360055 
L 279.14719 -63.360006 
L 276.088259 -63.360001 
L 273.029328 -63.36 
L 269.970397 -63.36 
L 266.911466 -63.36 
L 263.852535 -63.36 
L 260.793604 -63.36 
L 257.734673 -63.36 
L 254.675742 -63.36 
L 251.616811 -63.36 
L 248.55788 -63.36 
L 245.498949 -63.360005 
L 242.440018 -63.360044 
L 239.381087 -63.360314 
L 236.322156 -63.361821 
L 233.263225 -63.368523 
L 230.204294 -63.392297 
L 227.145363 -63.459536 
L 224.086432 -63.611779 
L 221.027501 -63.894193 
L 217.96857 -64.361908 
L 214.909639 -65.207371 
L 211.850708 -67.145186 
L 208.791777 -72.053617 
L 205.732846 -83.501265 
L 202.673915 -106.371441 
L 199.614984 -144.929642 
L 196.556053 -199.905151 
L 193.497122 -266.695052 
L 190.438191 -336.524529 
L 187.37926 -399.751897 
L 184.320329 -448.534676 
L 181.261398 -477.734908 
L 178.202467 -485.76 
L 175.143536 -475.934594 
L 172.084605 -455.416528 
L 169.025674 -429.820046 
L 165.966743 -398.030564 
L 162.907812 -353.894222 
L 159.848881 -294.447825 
L 156.78995 -226.191515 
L 153.731019 -162.424964 
L 150.672088 -114.446346 
L 147.613157 -85.394906 
L 144.554226 -71.231647 
L 141.495295 -65.671779 
L 138.436364 -63.915015 
z
" style="stroke: #ff7c00"/>
    </defs>
    <g clip-path="url(#p5c45baa45c)">
     <use xlink:href="#m8d6fe7f2da" x="0" y="576" style="fill: #ff7c00; fill-opacity: 0.25; stroke: #ff7c00"/>
    </g>
   </g>
   <g id="PolyCollection_3">
    <defs>
     <path id="mcf08bb48c7" d="M 146.790799 -63.664747 
L 146.790799 -63.36 
L 147.887026 -63.36 
L 148.983253 -63.36 
L 150.07948 -63.36 
L 151.175707 -63.36 
L 152.271934 -63.36 
L 153.368161 -63.36 
L 154.464388 -63.36 
L 155.560615 -63.36 
L 156.656842 -63.36 
L 157.753069 -63.36 
L 158.849296 -63.36 
L 159.945523 -63.36 
L 161.041751 -63.36 
L 162.137978 -63.36 
L 163.234205 -63.36 
L 164.330432 -63.36 
L 165.426659 -63.36 
L 166.522886 -63.36 
L 167.619113 -63.36 
L 168.71534 -63.36 
L 169.811567 -63.36 
L 170.907794 -63.36 
L 172.004021 -63.36 
L 173.100248 -63.36 
L 174.196475 -63.36 
L 175.292702 -63.36 
L 176.388929 -63.36 
L 177.485156 -63.36 
L 178.581383 -63.36 
L 179.67761 -63.36 
L 180.773837 -63.36 
L 181.870064 -63.36 
L 182.966291 -63.36 
L 184.062518 -63.36 
L 185.158745 -63.36 
L 186.254973 -63.36 
L 187.3512 -63.36 
L 188.447427 -63.36 
L 189.543654 -63.36 
L 190.639881 -63.36 
L 191.736108 -63.36 
L 192.832335 -63.36 
L 193.928562 -63.36 
L 195.024789 -63.36 
L 196.121016 -63.36 
L 197.217243 -63.36 
L 198.31347 -63.36 
L 199.409697 -63.36 
L 200.505924 -63.36 
L 201.602151 -63.36 
L 202.698378 -63.36 
L 203.794605 -63.36 
L 204.890832 -63.36 
L 205.987059 -63.36 
L 207.083286 -63.36 
L 208.179513 -63.36 
L 209.27574 -63.36 
L 210.371967 -63.36 
L 211.468195 -63.36 
L 212.564422 -63.36 
L 213.660649 -63.36 
L 214.756876 -63.36 
L 215.853103 -63.36 
L 216.94933 -63.36 
L 218.045557 -63.36 
L 219.141784 -63.36 
L 220.238011 -63.36 
L 221.334238 -63.36 
L 222.430465 -63.36 
L 223.526692 -63.36 
L 224.622919 -63.36 
L 225.719146 -63.36 
L 226.815373 -63.36 
L 227.9116 -63.36 
L 229.007827 -63.36 
L 230.104054 -63.36 
L 231.200281 -63.36 
L 232.296508 -63.36 
L 233.392735 -63.36 
L 234.488962 -63.36 
L 235.585189 -63.36 
L 236.681417 -63.36 
L 237.777644 -63.36 
L 238.873871 -63.36 
L 239.970098 -63.36 
L 241.066325 -63.36 
L 242.162552 -63.36 
L 243.258779 -63.36 
L 244.355006 -63.36 
L 245.451233 -63.36 
L 246.54746 -63.36 
L 247.643687 -63.36 
L 248.739914 -63.36 
L 249.836141 -63.36 
L 250.932368 -63.36 
L 252.028595 -63.36 
L 253.124822 -63.36 
L 254.221049 -63.36 
L 255.317276 -63.36 
L 256.413503 -63.36 
L 257.50973 -63.36 
L 258.605957 -63.36 
L 259.702184 -63.36 
L 260.798411 -63.36 
L 261.894639 -63.36 
L 262.990866 -63.36 
L 264.087093 -63.36 
L 265.18332 -63.36 
L 266.279547 -63.36 
L 267.375774 -63.36 
L 268.472001 -63.36 
L 269.568228 -63.36 
L 270.664455 -63.36 
L 271.760682 -63.36 
L 272.856909 -63.36 
L 273.953136 -63.36 
L 275.049363 -63.36 
L 276.14559 -63.36 
L 277.241817 -63.36 
L 278.338044 -63.36 
L 279.434271 -63.36 
L 280.530498 -63.36 
L 281.626725 -63.36 
L 282.722952 -63.36 
L 283.819179 -63.36 
L 284.915406 -63.36 
L 286.011633 -63.36 
L 287.107861 -63.36 
L 288.204088 -63.36 
L 289.300315 -63.36 
L 290.396542 -63.36 
L 291.492769 -63.36 
L 292.588996 -63.36 
L 293.685223 -63.36 
L 294.78145 -63.36 
L 295.877677 -63.36 
L 296.973904 -63.36 
L 298.070131 -63.36 
L 299.166358 -63.36 
L 300.262585 -63.36 
L 301.358812 -63.36 
L 302.455039 -63.36 
L 303.551266 -63.36 
L 304.647493 -63.36 
L 305.74372 -63.36 
L 306.839947 -63.36 
L 307.936174 -63.36 
L 309.032401 -63.36 
L 310.128628 -63.36 
L 311.224855 -63.36 
L 312.321082 -63.36 
L 313.41731 -63.36 
L 314.513537 -63.36 
L 315.609764 -63.36 
L 316.705991 -63.36 
L 317.802218 -63.36 
L 318.898445 -63.36 
L 319.994672 -63.36 
L 321.090899 -63.36 
L 322.187126 -63.36 
L 323.283353 -63.36 
L 324.37958 -63.36 
L 325.475807 -63.36 
L 326.572034 -63.36 
L 327.668261 -63.36 
L 328.764488 -63.36 
L 329.860715 -63.36 
L 330.956942 -63.36 
L 332.053169 -63.36 
L 333.149396 -63.36 
L 334.245623 -63.36 
L 335.34185 -63.36 
L 336.438077 -63.36 
L 337.534304 -63.36 
L 338.630532 -63.36 
L 339.726759 -63.36 
L 340.822986 -63.36 
L 341.919213 -63.36 
L 343.01544 -63.36 
L 344.111667 -63.36 
L 345.207894 -63.36 
L 346.304121 -63.36 
L 347.400348 -63.36 
L 348.496575 -63.36 
L 349.592802 -63.36 
L 350.689029 -63.36 
L 351.785256 -63.36 
L 352.881483 -63.36 
L 353.97771 -63.36 
L 355.073937 -63.36 
L 356.170164 -63.36 
L 357.266391 -63.36 
L 358.362618 -63.36 
L 359.458845 -63.36 
L 360.555072 -63.36 
L 361.651299 -63.36 
L 362.747526 -63.36 
L 363.843754 -63.36 
L 364.939981 -63.36 
L 364.939981 -63.368314 
L 364.939981 -63.368314 
L 363.843754 -63.375266 
L 362.747526 -63.386821 
L 361.651299 -63.405093 
L 360.555072 -63.432544 
L 359.458845 -63.471678 
L 358.362618 -63.524513 
L 357.266391 -63.5919 
L 356.170164 -63.672803 
L 355.073937 -63.763748 
L 353.97771 -63.858675 
L 352.881483 -63.949377 
L 351.785256 -64.026559 
L 350.689029 -64.081361 
L 349.592802 -64.10703 
L 348.496575 -64.100283 
L 347.400348 -64.062008 
L 346.304121 -63.997086 
L 345.207894 -63.913398 
L 344.111667 -63.820312 
L 343.01544 -63.72708 
L 341.919213 -63.64154 
L 340.822986 -63.569412 
L 339.726759 -63.514251 
L 338.630532 -63.477918 
L 337.534304 -63.461348 
L 336.438077 -63.465319 
L 335.34185 -63.491018 
L 334.245623 -63.540265 
L 333.149396 -63.615391 
L 332.053169 -63.718903 
L 330.956942 -63.853113 
L 329.860715 -64.019984 
L 328.764488 -64.221408 
L 327.668261 -64.460053 
L 326.572034 -64.74078 
L 325.475807 -65.072463 
L 324.37958 -65.469902 
L 323.283353 -65.955331 
L 322.187126 -66.558884 
L 321.090899 -67.317292 
L 319.994672 -68.270038 
L 318.898445 -69.452468 
L 317.802218 -70.885959 
L 316.705991 -72.566214 
L 315.609764 -74.452033 
L 314.513537 -76.457871 
L 313.41731 -78.453791 
L 312.321082 -80.275381 
L 311.224855 -81.743944 
L 310.128628 -82.694157 
L 309.032401 -83.00353 
L 307.936174 -82.616547 
L 306.839947 -81.557036 
L 305.74372 -79.925241 
L 304.647493 -77.880136 
L 303.551266 -75.611586 
L 302.455039 -73.309328 
L 301.358812 -71.135951 
L 300.262585 -69.209101 
L 299.166358 -67.594961 
L 298.070131 -66.311946 
L 296.973904 -65.341335 
L 295.877677 -64.640862 
L 294.78145 -64.15772 
L 293.685223 -63.838751 
L 292.588996 -63.636935 
L 291.492769 -63.514432 
L 290.396542 -63.443032 
L 289.300315 -63.403047 
L 288.204088 -63.381521 
L 287.107861 -63.370377 
L 286.011633 -63.364833 
L 284.915406 -63.362195 
L 283.819179 -63.361024 
L 282.722952 -63.360609 
L 281.626725 -63.360661 
L 280.530498 -63.361164 
L 279.434271 -63.362327 
L 278.338044 -63.364612 
L 277.241817 -63.368802 
L 276.14559 -63.376092 
L 275.049363 -63.38816 
L 273.953136 -63.407155 
L 272.856909 -63.43556 
L 271.760682 -63.47586 
L 270.664455 -63.529996 
L 269.568228 -63.598679 
L 268.472001 -63.68067 
L 267.375774 -63.77226 
L 266.279547 -63.867171 
L 265.18332 -63.957045 
L 264.087093 -64.032565 
L 262.990866 -64.085006 
L 261.894639 -64.107904 
L 260.798411 -64.098388 
L 259.702184 -64.057828 
L 258.605957 -63.99161 
L 257.50973 -63.908131 
L 256.413503 -63.817314 
L 255.317276 -63.729067 
L 254.221049 -63.652048 
L 253.124822 -63.592956 
L 252.028595 -63.556339 
L 250.932368 -63.54474 
L 249.836141 -63.558921 
L 248.739914 -63.597968 
L 247.643687 -63.659182 
L 246.54746 -63.737873 
L 245.451233 -63.827286 
L 244.355006 -63.918917 
L 243.258779 -64.003424 
L 242.162552 -64.072148 
L 241.066325 -64.119047 
L 239.970098 -64.142709 
L 238.873871 -64.148034 
L 237.777644 -64.147297 
L 236.681417 -64.160433 
L 235.585189 -64.214629 
L 234.488962 -64.34338 
L 233.392735 -64.585262 
L 232.296508 -64.982647 
L 231.200281 -65.58057 
L 230.104054 -66.425997 
L 229.007827 -67.567778 
L 227.9116 -69.057561 
L 226.815373 -70.951716 
L 225.719146 -73.313957 
L 224.622919 -76.217747 
L 223.526692 -79.747141 
L 222.430465 -83.994595 
L 221.334238 -89.054745 
L 220.238011 -95.014242 
L 219.141784 -101.939185 
L 218.045557 -109.862971 
L 216.94933 -118.778085 
L 215.853103 -128.634919 
L 214.756876 -139.349181 
L 213.660649 -150.817095 
L 212.564422 -162.935078 
L 211.468195 -175.618631 
L 210.371967 -188.814511 
L 209.27574 -202.501319 
L 208.179513 -216.676259 
L 207.083286 -231.329688 
L 205.987059 -246.413152 
L 204.890832 -261.809754 
L 203.794605 -277.316861 
L 202.698378 -292.649371 
L 201.602151 -307.467055 
L 200.505924 -321.422757 
L 199.409697 -334.221245 
L 198.31347 -345.673762 
L 197.217243 -355.732809 
L 196.121016 -364.496234 
L 195.024789 -372.178225 
L 193.928562 -379.05454 
L 192.832335 -385.396655 
L 191.736108 -391.41182 
L 190.639881 -397.202495 
L 189.543654 -402.75118 
L 188.447427 -407.928608 
L 187.3512 -412.518059 
L 186.254973 -416.247852 
L 185.158745 -418.826848 
L 184.062518 -419.981345 
L 182.966291 -419.492975 
L 181.870064 -417.234936 
L 180.773837 -413.199563 
L 179.67761 -407.507093 
L 178.581383 -400.386895 
L 177.485156 -392.12928 
L 176.388929 -383.016188 
L 175.292702 -373.248267 
L 174.196475 -362.889528 
L 173.100248 -351.846976 
L 172.004021 -339.892555 
L 170.907794 -326.722386 
L 169.811567 -312.038155 
L 168.71534 -295.630943 
L 167.619113 -277.449139 
L 166.522886 -257.637817 
L 165.426659 -236.544288 
L 164.330432 -214.691122 
L 163.234205 -192.722796 
L 162.137978 -171.33513 
L 161.041751 -151.198399 
L 159.945523 -132.885542 
L 158.849296 -116.816092 
L 157.753069 -103.223848 
L 156.656842 -92.152018 
L 155.560615 -83.47431 
L 154.464388 -76.935515 
L 153.368161 -72.202037 
L 152.271934 -68.91223 
L 151.175707 -66.718315 
L 150.07948 -65.315134 
L 148.983253 -64.454799 
L 147.887026 -63.949294 
L 146.790799 -63.664747 
z
" style="stroke: #023eff"/>
    </defs>
    <g clip-path="url(#p5c45baa45c)">
     <use xlink:href="#mcf08bb48c7" x="0" y="576" style="fill: #023eff; fill-opacity: 0.25; stroke: #023eff"/>
    </g>
   </g>
   <g id="matplotlib.axis_1">
    <g id="xtick_1">
     <g id="line2d_1">
      <path d="M 148.469011 512.64 
L 148.469011 69.12 
" clip-path="url(#p5c45baa45c)" style="fill: none; stroke: #ffffff; stroke-width: 0.8; stroke-linecap: square"/>
     </g>
     <g id="line2d_2">
      <defs>
       <path id="m21b5f6ff5d" d="M 0 0 
L 0 3.5 
" style="stroke: #ffffff; stroke-width: 0.8"/>
      </defs>
      <g>
       <use xlink:href="#m21b5f6ff5d" x="148.469011" y="512.64" style="fill: #ffffff; stroke: #ffffff; stroke-width: 0.8"/>
      </g>
     </g>
     <g id="text_1">
      <!-- 0 -->
      <g style="fill: #ffffff" transform="translate(145.287761 527.238438) scale(0.1 -0.1)">
       <defs>
        <path id="DejaVuSans-30" d="M 2034 4250 
Q 1547 4250 1301 3770 
Q 1056 3291 1056 2328 
Q 1056 1369 1301 889 
Q 1547 409 2034 409 
Q 2525 409 2770 889 
Q 3016 1369 3016 2328 
Q 3016 3291 2770 3770 
Q 2525 4250 2034 4250 
z
M 2034 4750 
Q 2819 4750 3233 4129 
Q 3647 3509 3647 2328 
Q 3647 1150 3233 529 
Q 2819 -91 2034 -91 
Q 1250 -91 836 529 
Q 422 1150 422 2328 
Q 422 3509 836 4129 
Q 1250 4750 2034 4750 
z
" transform="scale(0.015625)"/>
       </defs>
       <use xlink:href="#DejaVuSans-30"/>
      </g>
     </g>
    </g>
    <g id="xtick_2">
     <g id="line2d_3">
      <path d="M 225.988938 512.64 
L 225.988938 69.12 
" clip-path="url(#p5c45baa45c)" style="fill: none; stroke: #ffffff; stroke-width: 0.8; stroke-linecap: square"/>
     </g>
     <g id="line2d_4">
      <g>
       <use xlink:href="#m21b5f6ff5d" x="225.988938" y="512.64" style="fill: #ffffff; stroke: #ffffff; stroke-width: 0.8"/>
      </g>
     </g>
     <g id="text_2">
      <!-- 250 -->
      <g style="fill: #ffffff" transform="translate(216.445188 527.238438) scale(0.1 -0.1)">
       <defs>
        <path id="DejaVuSans-32" d="M 1228 531 
L 3431 531 
L 3431 0 
L 469 0 
L 469 531 
Q 828 903 1448 1529 
Q 2069 2156 2228 2338 
Q 2531 2678 2651 2914 
Q 2772 3150 2772 3378 
Q 2772 3750 2511 3984 
Q 2250 4219 1831 4219 
Q 1534 4219 1204 4116 
Q 875 4013 500 3803 
L 500 4441 
Q 881 4594 1212 4672 
Q 1544 4750 1819 4750 
Q 2544 4750 2975 4387 
Q 3406 4025 3406 3419 
Q 3406 3131 3298 2873 
Q 3191 2616 2906 2266 
Q 2828 2175 2409 1742 
Q 1991 1309 1228 531 
z
" transform="scale(0.015625)"/>
        <path id="DejaVuSans-35" d="M 691 4666 
L 3169 4666 
L 3169 4134 
L 1269 4134 
L 1269 2991 
Q 1406 3038 1543 3061 
Q 1681 3084 1819 3084 
Q 2600 3084 3056 2656 
Q 3513 2228 3513 1497 
Q 3513 744 3044 326 
Q 2575 -91 1722 -91 
Q 1428 -91 1123 -41 
Q 819 9 494 109 
L 494 744 
Q 775 591 1075 516 
Q 1375 441 1709 441 
Q 2250 441 2565 725 
Q 2881 1009 2881 1497 
Q 2881 1984 2565 2268 
Q 2250 2553 1709 2553 
Q 1456 2553 1204 2497 
Q 953 2441 691 2322 
L 691 4666 
z
" transform="scale(0.015625)"/>
       </defs>
       <use xlink:href="#DejaVuSans-32"/>
       <use xlink:href="#DejaVuSans-35" x="63.623047"/>
       <use xlink:href="#DejaVuSans-30" x="127.246094"/>
      </g>
     </g>
    </g>
    <g id="xtick_3">
     <g id="line2d_5">
      <path d="M 303.508865 512.64 
L 303.508865 69.12 
" clip-path="url(#p5c45baa45c)" style="fill: none; stroke: #ffffff; stroke-width: 0.8; stroke-linecap: square"/>
     </g>
     <g id="line2d_6">
      <g>
       <use xlink:href="#m21b5f6ff5d" x="303.508865" y="512.64" style="fill: #ffffff; stroke: #ffffff; stroke-width: 0.8"/>
      </g>
     </g>
     <g id="text_3">
      <!-- 500 -->
      <g style="fill: #ffffff" transform="translate(293.965115 527.238438) scale(0.1 -0.1)">
       <use xlink:href="#DejaVuSans-35"/>
       <use xlink:href="#DejaVuSans-30" x="63.623047"/>
       <use xlink:href="#DejaVuSans-30" x="127.246094"/>
      </g>
     </g>
    </g>
    <g id="xtick_4">
     <g id="line2d_7">
      <path d="M 381.028791 512.64 
L 381.028791 69.12 
" clip-path="url(#p5c45baa45c)" style="fill: none; stroke: #ffffff; stroke-width: 0.8; stroke-linecap: square"/>
     </g>
     <g id="line2d_8">
      <g>
       <use xlink:href="#m21b5f6ff5d" x="381.028791" y="512.64" style="fill: #ffffff; stroke: #ffffff; stroke-width: 0.8"/>
      </g>
     </g>
     <g id="text_4">
      <!-- 750 -->
      <g style="fill: #ffffff" transform="translate(371.485041 527.238438) scale(0.1 -0.1)">
       <defs>
        <path id="DejaVuSans-37" d="M 525 4666 
L 3525 4666 
L 3525 4397 
L 1831 0 
L 1172 0 
L 2766 4134 
L 525 4134 
L 525 4666 
z
" transform="scale(0.015625)"/>
       </defs>
       <use xlink:href="#DejaVuSans-37"/>
       <use xlink:href="#DejaVuSans-35" x="63.623047"/>
       <use xlink:href="#DejaVuSans-30" x="127.246094"/>
      </g>
     </g>
    </g>
    <g id="xtick_5">
     <g id="line2d_9">
      <path d="M 458.548718 512.64 
L 458.548718 69.12 
" clip-path="url(#p5c45baa45c)" style="fill: none; stroke: #ffffff; stroke-width: 0.8; stroke-linecap: square"/>
     </g>
     <g id="line2d_10">
      <g>
       <use xlink:href="#m21b5f6ff5d" x="458.548718" y="512.64" style="fill: #ffffff; stroke: #ffffff; stroke-width: 0.8"/>
      </g>
     </g>
     <g id="text_5">
      <!-- 1000 -->
      <g style="fill: #ffffff" transform="translate(445.823718 527.238438) scale(0.1 -0.1)">
       <defs>
        <path id="DejaVuSans-31" d="M 794 531 
L 1825 531 
L 1825 4091 
L 703 3866 
L 703 4441 
L 1819 4666 
L 2450 4666 
L 2450 531 
L 3481 531 
L 3481 0 
L 794 0 
L 794 531 
z
" transform="scale(0.015625)"/>
       </defs>
       <use xlink:href="#DejaVuSans-31"/>
       <use xlink:href="#DejaVuSans-30" x="63.623047"/>
       <use xlink:href="#DejaVuSans-30" x="127.246094"/>
       <use xlink:href="#DejaVuSans-30" x="190.869141"/>
      </g>
     </g>
    </g>
    <g id="xtick_6">
     <g id="line2d_11">
      <path d="M 536.068644 512.64 
L 536.068644 69.12 
" clip-path="url(#p5c45baa45c)" style="fill: none; stroke: #ffffff; stroke-width: 0.8; stroke-linecap: square"/>
     </g>
     <g id="line2d_12">
      <g>
       <use xlink:href="#m21b5f6ff5d" x="536.068644" y="512.64" style="fill: #ffffff; stroke: #ffffff; stroke-width: 0.8"/>
      </g>
     </g>
     <g id="text_6">
      <!-- 1250 -->
      <g style="fill: #ffffff" transform="translate(523.343644 527.238438) scale(0.1 -0.1)">
       <use xlink:href="#DejaVuSans-31"/>
       <use xlink:href="#DejaVuSans-32" x="63.623047"/>
       <use xlink:href="#DejaVuSans-35" x="127.246094"/>
       <use xlink:href="#DejaVuSans-30" x="190.869141"/>
      </g>
     </g>
    </g>
    <g id="xtick_7">
     <g id="line2d_13">
      <path d="M 613.588571 512.64 
L 613.588571 69.12 
" clip-path="url(#p5c45baa45c)" style="fill: none; stroke: #ffffff; stroke-width: 0.8; stroke-linecap: square"/>
     </g>
     <g id="line2d_14">
      <g>
       <use xlink:href="#m21b5f6ff5d" x="613.588571" y="512.64" style="fill: #ffffff; stroke: #ffffff; stroke-width: 0.8"/>
      </g>
     </g>
     <g id="text_7">
      <!-- 1500 -->
      <g style="fill: #ffffff" transform="translate(600.863571 527.238438) scale(0.1 -0.1)">
       <use xlink:href="#DejaVuSans-31"/>
       <use xlink:href="#DejaVuSans-35" x="63.623047"/>
       <use xlink:href="#DejaVuSans-30" x="127.246094"/>
       <use xlink:href="#DejaVuSans-30" x="190.869141"/>
      </g>
     </g>
    </g>
    <g id="xtick_8">
     <g id="line2d_15">
      <path d="M 691.108497 512.64 
L 691.108497 69.12 
" clip-path="url(#p5c45baa45c)" style="fill: none; stroke: #ffffff; stroke-width: 0.8; stroke-linecap: square"/>
     </g>
     <g id="line2d_16">
      <g>
       <use xlink:href="#m21b5f6ff5d" x="691.108497" y="512.64" style="fill: #ffffff; stroke: #ffffff; stroke-width: 0.8"/>
      </g>
     </g>
     <g id="text_8">
      <!-- 1750 -->
      <g style="fill: #ffffff" transform="translate(678.383497 527.238438) scale(0.1 -0.1)">
       <use xlink:href="#DejaVuSans-31"/>
       <use xlink:href="#DejaVuSans-37" x="63.623047"/>
       <use xlink:href="#DejaVuSans-35" x="127.246094"/>
       <use xlink:href="#DejaVuSans-30" x="190.869141"/>
      </g>
     </g>
    </g>
    <g id="xtick_9">
     <g id="line2d_17">
      <path d="M 768.628424 512.64 
L 768.628424 69.12 
" clip-path="url(#p5c45baa45c)" style="fill: none; stroke: #ffffff; stroke-width: 0.8; stroke-linecap: square"/>
     </g>
     <g id="line2d_18">
      <g>
       <use xlink:href="#m21b5f6ff5d" x="768.628424" y="512.64" style="fill: #ffffff; stroke: #ffffff; stroke-width: 0.8"/>
      </g>
     </g>
     <g id="text_9">
      <!-- 2000 -->
      <g style="fill: #ffffff" transform="translate(755.903424 527.238438) scale(0.1 -0.1)">
       <use xlink:href="#DejaVuSans-32"/>
       <use xlink:href="#DejaVuSans-30" x="63.623047"/>
       <use xlink:href="#DejaVuSans-30" x="127.246094"/>
       <use xlink:href="#DejaVuSans-30" x="190.869141"/>
      </g>
     </g>
    </g>
    <g id="text_10">
     <!-- Time (ms) -->
     <g style="fill: #ffffff" transform="translate(417.600781 540.916563) scale(0.1 -0.1)">
      <defs>
       <path id="DejaVuSans-54" d="M -19 4666 
L 3928 4666 
L 3928 4134 
L 2272 4134 
L 2272 0 
L 1638 0 
L 1638 4134 
L -19 4134 
L -19 4666 
z
" transform="scale(0.015625)"/>
       <path id="DejaVuSans-69" d="M 603 3500 
L 1178 3500 
L 1178 0 
L 603 0 
L 603 3500 
z
M 603 4863 
L 1178 4863 
L 1178 4134 
L 603 4134 
L 603 4863 
z
" transform="scale(0.015625)"/>
       <path id="DejaVuSans-6d" d="M 3328 2828 
Q 3544 3216 3844 3400 
Q 4144 3584 4550 3584 
Q 5097 3584 5394 3201 
Q 5691 2819 5691 2113 
L 5691 0 
L 5113 0 
L 5113 2094 
Q 5113 2597 4934 2840 
Q 4756 3084 4391 3084 
Q 3944 3084 3684 2787 
Q 3425 2491 3425 1978 
L 3425 0 
L 2847 0 
L 2847 2094 
Q 2847 2600 2669 2842 
Q 2491 3084 2119 3084 
Q 1678 3084 1418 2786 
Q 1159 2488 1159 1978 
L 1159 0 
L 581 0 
L 581 3500 
L 1159 3500 
L 1159 2956 
Q 1356 3278 1631 3431 
Q 1906 3584 2284 3584 
Q 2666 3584 2933 3390 
Q 3200 3197 3328 2828 
z
" transform="scale(0.015625)"/>
       <path id="DejaVuSans-65" d="M 3597 1894 
L 3597 1613 
L 953 1613 
Q 991 1019 1311 708 
Q 1631 397 2203 397 
Q 2534 397 2845 478 
Q 3156 559 3463 722 
L 3463 178 
Q 3153 47 2828 -22 
Q 2503 -91 2169 -91 
Q 1331 -91 842 396 
Q 353 884 353 1716 
Q 353 2575 817 3079 
Q 1281 3584 2069 3584 
Q 2775 3584 3186 3129 
Q 3597 2675 3597 1894 
z
M 3022 2063 
Q 3016 2534 2758 2815 
Q 2500 3097 2075 3097 
Q 1594 3097 1305 2825 
Q 1016 2553 972 2059 
L 3022 2063 
z
" transform="scale(0.015625)"/>
       <path id="DejaVuSans-20" transform="scale(0.015625)"/>
       <path id="DejaVuSans-28" d="M 1984 4856 
Q 1566 4138 1362 3434 
Q 1159 2731 1159 2009 
Q 1159 1288 1364 580 
Q 1569 -128 1984 -844 
L 1484 -844 
Q 1016 -109 783 600 
Q 550 1309 550 2009 
Q 550 2706 781 3412 
Q 1013 4119 1484 4856 
L 1984 4856 
z
" transform="scale(0.015625)"/>
       <path id="DejaVuSans-73" d="M 2834 3397 
L 2834 2853 
Q 2591 2978 2328 3040 
Q 2066 3103 1784 3103 
Q 1356 3103 1142 2972 
Q 928 2841 928 2578 
Q 928 2378 1081 2264 
Q 1234 2150 1697 2047 
L 1894 2003 
Q 2506 1872 2764 1633 
Q 3022 1394 3022 966 
Q 3022 478 2636 193 
Q 2250 -91 1575 -91 
Q 1294 -91 989 -36 
Q 684 19 347 128 
L 347 722 
Q 666 556 975 473 
Q 1284 391 1588 391 
Q 1994 391 2212 530 
Q 2431 669 2431 922 
Q 2431 1156 2273 1281 
Q 2116 1406 1581 1522 
L 1381 1569 
Q 847 1681 609 1914 
Q 372 2147 372 2553 
Q 372 3047 722 3315 
Q 1072 3584 1716 3584 
Q 2034 3584 2315 3537 
Q 2597 3491 2834 3397 
z
" transform="scale(0.015625)"/>
       <path id="DejaVuSans-29" d="M 513 4856 
L 1013 4856 
Q 1481 4119 1714 3412 
Q 1947 2706 1947 2009 
Q 1947 1309 1714 600 
Q 1481 -109 1013 -844 
L 513 -844 
Q 928 -128 1133 580 
Q 1338 1288 1338 2009 
Q 1338 2731 1133 3434 
Q 928 4138 513 4856 
z
" transform="scale(0.015625)"/>
      </defs>
      <use xlink:href="#DejaVuSans-54"/>
      <use xlink:href="#DejaVuSans-69" x="57.958984"/>
      <use xlink:href="#DejaVuSans-6d" x="85.742188"/>
      <use xlink:href="#DejaVuSans-65" x="183.154297"/>
      <use xlink:href="#DejaVuSans-20" x="244.677734"/>
      <use xlink:href="#DejaVuSans-28" x="276.464844"/>
      <use xlink:href="#DejaVuSans-6d" x="315.478516"/>
      <use xlink:href="#DejaVuSans-73" x="412.890625"/>
      <use xlink:href="#DejaVuSans-29" x="464.990234"/>
     </g>
    </g>
   </g>
   <g id="matplotlib.axis_2">
    <g id="ytick_1">
     <g id="line2d_19">
      <path d="M 108 512.64 
L 777.6 512.64 
" clip-path="url(#p5c45baa45c)" style="fill: none; stroke: #ffffff; stroke-width: 0.8; stroke-linecap: square"/>
     </g>
     <g id="line2d_20">
      <defs>
       <path id="m3c13dbffc3" d="M 0 0 
L -3.5 0 
" style="stroke: #ffffff; stroke-width: 0.8"/>
      </defs>
      <g>
       <use xlink:href="#m3c13dbffc3" x="108" y="512.64" style="fill: #ffffff; stroke: #ffffff; stroke-width: 0.8"/>
      </g>
     </g>
     <g id="text_11">
      <!-- 0.000 -->
      <g style="fill: #ffffff" transform="translate(72.371875 516.439219) scale(0.1 -0.1)">
       <defs>
        <path id="DejaVuSans-2e" d="M 684 794 
L 1344 794 
L 1344 0 
L 684 0 
L 684 794 
z
" transform="scale(0.015625)"/>
       </defs>
       <use xlink:href="#DejaVuSans-30"/>
       <use xlink:href="#DejaVuSans-2e" x="63.623047"/>
       <use xlink:href="#DejaVuSans-30" x="95.410156"/>
       <use xlink:href="#DejaVuSans-30" x="159.033203"/>
       <use xlink:href="#DejaVuSans-30" x="222.65625"/>
      </g>
     </g>
    </g>
    <g id="ytick_2">
     <g id="line2d_21">
      <path d="M 108 417.838792 
L 777.6 417.838792 
" clip-path="url(#p5c45baa45c)" style="fill: none; stroke: #ffffff; stroke-width: 0.8; stroke-linecap: square"/>
     </g>
     <g id="line2d_22">
      <g>
       <use xlink:href="#m3c13dbffc3" x="108" y="417.838792" style="fill: #ffffff; stroke: #ffffff; stroke-width: 0.8"/>
      </g>
     </g>
     <g id="text_12">
      <!-- 0.002 -->
      <g style="fill: #ffffff" transform="translate(72.371875 421.638011) scale(0.1 -0.1)">
       <use xlink:href="#DejaVuSans-30"/>
       <use xlink:href="#DejaVuSans-2e" x="63.623047"/>
       <use xlink:href="#DejaVuSans-30" x="95.410156"/>
       <use xlink:href="#DejaVuSans-30" x="159.033203"/>
       <use xlink:href="#DejaVuSans-32" x="222.65625"/>
      </g>
     </g>
    </g>
    <g id="ytick_3">
     <g id="line2d_23">
      <path d="M 108 323.037584 
L 777.6 323.037584 
" clip-path="url(#p5c45baa45c)" style="fill: none; stroke: #ffffff; stroke-width: 0.8; stroke-linecap: square"/>
     </g>
     <g id="line2d_24">
      <g>
       <use xlink:href="#m3c13dbffc3" x="108" y="323.037584" style="fill: #ffffff; stroke: #ffffff; stroke-width: 0.8"/>
      </g>
     </g>
     <g id="text_13">
      <!-- 0.004 -->
      <g style="fill: #ffffff" transform="translate(72.371875 326.836802) scale(0.1 -0.1)">
       <defs>
        <path id="DejaVuSans-34" d="M 2419 4116 
L 825 1625 
L 2419 1625 
L 2419 4116 
z
M 2253 4666 
L 3047 4666 
L 3047 1625 
L 3713 1625 
L 3713 1100 
L 3047 1100 
L 3047 0 
L 2419 0 
L 2419 1100 
L 313 1100 
L 313 1709 
L 2253 4666 
z
" transform="scale(0.015625)"/>
       </defs>
       <use xlink:href="#DejaVuSans-30"/>
       <use xlink:href="#DejaVuSans-2e" x="63.623047"/>
       <use xlink:href="#DejaVuSans-30" x="95.410156"/>
       <use xlink:href="#DejaVuSans-30" x="159.033203"/>
       <use xlink:href="#DejaVuSans-34" x="222.65625"/>
      </g>
     </g>
    </g>
    <g id="ytick_4">
     <g id="line2d_25">
      <path d="M 108 228.236376 
L 777.6 228.236376 
" clip-path="url(#p5c45baa45c)" style="fill: none; stroke: #ffffff; stroke-width: 0.8; stroke-linecap: square"/>
     </g>
     <g id="line2d_26">
      <g>
       <use xlink:href="#m3c13dbffc3" x="108" y="228.236376" style="fill: #ffffff; stroke: #ffffff; stroke-width: 0.8"/>
      </g>
     </g>
     <g id="text_14">
      <!-- 0.006 -->
      <g style="fill: #ffffff" transform="translate(72.371875 232.035594) scale(0.1 -0.1)">
       <defs>
        <path id="DejaVuSans-36" d="M 2113 2584 
Q 1688 2584 1439 2293 
Q 1191 2003 1191 1497 
Q 1191 994 1439 701 
Q 1688 409 2113 409 
Q 2538 409 2786 701 
Q 3034 994 3034 1497 
Q 3034 2003 2786 2293 
Q 2538 2584 2113 2584 
z
M 3366 4563 
L 3366 3988 
Q 3128 4100 2886 4159 
Q 2644 4219 2406 4219 
Q 1781 4219 1451 3797 
Q 1122 3375 1075 2522 
Q 1259 2794 1537 2939 
Q 1816 3084 2150 3084 
Q 2853 3084 3261 2657 
Q 3669 2231 3669 1497 
Q 3669 778 3244 343 
Q 2819 -91 2113 -91 
Q 1303 -91 875 529 
Q 447 1150 447 2328 
Q 447 3434 972 4092 
Q 1497 4750 2381 4750 
Q 2619 4750 2861 4703 
Q 3103 4656 3366 4563 
z
" transform="scale(0.015625)"/>
       </defs>
       <use xlink:href="#DejaVuSans-30"/>
       <use xlink:href="#DejaVuSans-2e" x="63.623047"/>
       <use xlink:href="#DejaVuSans-30" x="95.410156"/>
       <use xlink:href="#DejaVuSans-30" x="159.033203"/>
       <use xlink:href="#DejaVuSans-36" x="222.65625"/>
      </g>
     </g>
    </g>
    <g id="ytick_5">
     <g id="line2d_27">
      <path d="M 108 133.435167 
L 777.6 133.435167 
" clip-path="url(#p5c45baa45c)" style="fill: none; stroke: #ffffff; stroke-width: 0.8; stroke-linecap: square"/>
     </g>
     <g id="line2d_28">
      <g>
       <use xlink:href="#m3c13dbffc3" x="108" y="133.435167" style="fill: #ffffff; stroke: #ffffff; stroke-width: 0.8"/>
      </g>
     </g>
     <g id="text_15">
      <!-- 0.008 -->
      <g style="fill: #ffffff" transform="translate(72.371875 137.234386) scale(0.1 -0.1)">
       <defs>
        <path id="DejaVuSans-38" d="M 2034 2216 
Q 1584 2216 1326 1975 
Q 1069 1734 1069 1313 
Q 1069 891 1326 650 
Q 1584 409 2034 409 
Q 2484 409 2743 651 
Q 3003 894 3003 1313 
Q 3003 1734 2745 1975 
Q 2488 2216 2034 2216 
z
M 1403 2484 
Q 997 2584 770 2862 
Q 544 3141 544 3541 
Q 544 4100 942 4425 
Q 1341 4750 2034 4750 
Q 2731 4750 3128 4425 
Q 3525 4100 3525 3541 
Q 3525 3141 3298 2862 
Q 3072 2584 2669 2484 
Q 3125 2378 3379 2068 
Q 3634 1759 3634 1313 
Q 3634 634 3220 271 
Q 2806 -91 2034 -91 
Q 1263 -91 848 271 
Q 434 634 434 1313 
Q 434 1759 690 2068 
Q 947 2378 1403 2484 
z
M 1172 3481 
Q 1172 3119 1398 2916 
Q 1625 2713 2034 2713 
Q 2441 2713 2670 2916 
Q 2900 3119 2900 3481 
Q 2900 3844 2670 4047 
Q 2441 4250 2034 4250 
Q 1625 4250 1398 4047 
Q 1172 3844 1172 3481 
z
" transform="scale(0.015625)"/>
       </defs>
       <use xlink:href="#DejaVuSans-30"/>
       <use xlink:href="#DejaVuSans-2e" x="63.623047"/>
       <use xlink:href="#DejaVuSans-30" x="95.410156"/>
       <use xlink:href="#DejaVuSans-30" x="159.033203"/>
       <use xlink:href="#DejaVuSans-38" x="222.65625"/>
      </g>
     </g>
    </g>
    <g id="text_16">
     <!-- Density -->
     <g style="fill: #ffffff" transform="translate(66.292187 309.888594) rotate(-90) scale(0.1 -0.1)">
      <defs>
       <path id="DejaVuSans-44" d="M 1259 4147 
L 1259 519 
L 2022 519 
Q 2988 519 3436 956 
Q 3884 1394 3884 2338 
Q 3884 3275 3436 3711 
Q 2988 4147 2022 4147 
L 1259 4147 
z
M 628 4666 
L 1925 4666 
Q 3281 4666 3915 4102 
Q 4550 3538 4550 2338 
Q 4550 1131 3912 565 
Q 3275 0 1925 0 
L 628 0 
L 628 4666 
z
" transform="scale(0.015625)"/>
       <path id="DejaVuSans-6e" d="M 3513 2113 
L 3513 0 
L 2938 0 
L 2938 2094 
Q 2938 2591 2744 2837 
Q 2550 3084 2163 3084 
Q 1697 3084 1428 2787 
Q 1159 2491 1159 1978 
L 1159 0 
L 581 0 
L 581 3500 
L 1159 3500 
L 1159 2956 
Q 1366 3272 1645 3428 
Q 1925 3584 2291 3584 
Q 2894 3584 3203 3211 
Q 3513 2838 3513 2113 
z
" transform="scale(0.015625)"/>
       <path id="DejaVuSans-74" d="M 1172 4494 
L 1172 3500 
L 2356 3500 
L 2356 3053 
L 1172 3053 
L 1172 1153 
Q 1172 725 1289 603 
Q 1406 481 1766 481 
L 2356 481 
L 2356 0 
L 1766 0 
Q 1100 0 847 248 
Q 594 497 594 1153 
L 594 3053 
L 172 3053 
L 172 3500 
L 594 3500 
L 594 4494 
L 1172 4494 
z
" transform="scale(0.015625)"/>
       <path id="DejaVuSans-79" d="M 2059 -325 
Q 1816 -950 1584 -1140 
Q 1353 -1331 966 -1331 
L 506 -1331 
L 506 -850 
L 844 -850 
Q 1081 -850 1212 -737 
Q 1344 -625 1503 -206 
L 1606 56 
L 191 3500 
L 800 3500 
L 1894 763 
L 2988 3500 
L 3597 3500 
L 2059 -325 
z
" transform="scale(0.015625)"/>
      </defs>
      <use xlink:href="#DejaVuSans-44"/>
      <use xlink:href="#DejaVuSans-65" x="77.001953"/>
      <use xlink:href="#DejaVuSans-6e" x="138.525391"/>
      <use xlink:href="#DejaVuSans-73" x="201.904297"/>
      <use xlink:href="#DejaVuSans-69" x="254.003906"/>
      <use xlink:href="#DejaVuSans-74" x="281.787109"/>
      <use xlink:href="#DejaVuSans-79" x="320.996094"/>
     </g>
    </g>
   </g>
   <g id="patch_3">
    <path d="M 108 512.64 
L 108 69.12 
" style="fill: none; stroke: #ffffff; stroke-width: 0.8; stroke-linejoin: miter; stroke-linecap: square"/>
   </g>
   <g id="patch_4">
    <path d="M 777.6 512.64 
L 777.6 69.12 
" style="fill: none; stroke: #ffffff; stroke-width: 0.8; stroke-linejoin: miter; stroke-linecap: square"/>
   </g>
   <g id="patch_5">
    <path d="M 108 512.64 
L 777.6 512.64 
" style="fill: none; stroke: #ffffff; stroke-width: 0.8; stroke-linejoin: miter; stroke-linecap: square"/>
   </g>
   <g id="patch_6">
    <path d="M 108 69.12 
L 777.6 69.12 
" style="fill: none; stroke: #ffffff; stroke-width: 0.8; stroke-linejoin: miter; stroke-linecap: square"/>
   </g>
   <g id="text_17">
    <!-- Density Plot of Execution Time across Implementations -->
    <g style="fill: #ffffff" transform="translate(277.336875 63.12) scale(0.12 -0.12)">
     <defs>
      <path id="DejaVuSans-50" d="M 1259 4147 
L 1259 2394 
L 2053 2394 
Q 2494 2394 2734 2622 
Q 2975 2850 2975 3272 
Q 2975 3691 2734 3919 
Q 2494 4147 2053 4147 
L 1259 4147 
z
M 628 4666 
L 2053 4666 
Q 2838 4666 3239 4311 
Q 3641 3956 3641 3272 
Q 3641 2581 3239 2228 
Q 2838 1875 2053 1875 
L 1259 1875 
L 1259 0 
L 628 0 
L 628 4666 
z
" transform="scale(0.015625)"/>
      <path id="DejaVuSans-6c" d="M 603 4863 
L 1178 4863 
L 1178 0 
L 603 0 
L 603 4863 
z
" transform="scale(0.015625)"/>
      <path id="DejaVuSans-6f" d="M 1959 3097 
Q 1497 3097 1228 2736 
Q 959 2375 959 1747 
Q 959 1119 1226 758 
Q 1494 397 1959 397 
Q 2419 397 2687 759 
Q 2956 1122 2956 1747 
Q 2956 2369 2687 2733 
Q 2419 3097 1959 3097 
z
M 1959 3584 
Q 2709 3584 3137 3096 
Q 3566 2609 3566 1747 
Q 3566 888 3137 398 
Q 2709 -91 1959 -91 
Q 1206 -91 779 398 
Q 353 888 353 1747 
Q 353 2609 779 3096 
Q 1206 3584 1959 3584 
z
" transform="scale(0.015625)"/>
      <path id="DejaVuSans-66" d="M 2375 4863 
L 2375 4384 
L 1825 4384 
Q 1516 4384 1395 4259 
Q 1275 4134 1275 3809 
L 1275 3500 
L 2222 3500 
L 2222 3053 
L 1275 3053 
L 1275 0 
L 697 0 
L 697 3053 
L 147 3053 
L 147 3500 
L 697 3500 
L 697 3744 
Q 697 4328 969 4595 
Q 1241 4863 1831 4863 
L 2375 4863 
z
" transform="scale(0.015625)"/>
      <path id="DejaVuSans-45" d="M 628 4666 
L 3578 4666 
L 3578 4134 
L 1259 4134 
L 1259 2753 
L 3481 2753 
L 3481 2222 
L 1259 2222 
L 1259 531 
L 3634 531 
L 3634 0 
L 628 0 
L 628 4666 
z
" transform="scale(0.015625)"/>
      <path id="DejaVuSans-78" d="M 3513 3500 
L 2247 1797 
L 3578 0 
L 2900 0 
L 1881 1375 
L 863 0 
L 184 0 
L 1544 1831 
L 300 3500 
L 978 3500 
L 1906 2253 
L 2834 3500 
L 3513 3500 
z
" transform="scale(0.015625)"/>
      <path id="DejaVuSans-63" d="M 3122 3366 
L 3122 2828 
Q 2878 2963 2633 3030 
Q 2388 3097 2138 3097 
Q 1578 3097 1268 2742 
Q 959 2388 959 1747 
Q 959 1106 1268 751 
Q 1578 397 2138 397 
Q 2388 397 2633 464 
Q 2878 531 3122 666 
L 3122 134 
Q 2881 22 2623 -34 
Q 2366 -91 2075 -91 
Q 1284 -91 818 406 
Q 353 903 353 1747 
Q 353 2603 823 3093 
Q 1294 3584 2113 3584 
Q 2378 3584 2631 3529 
Q 2884 3475 3122 3366 
z
" transform="scale(0.015625)"/>
      <path id="DejaVuSans-75" d="M 544 1381 
L 544 3500 
L 1119 3500 
L 1119 1403 
Q 1119 906 1312 657 
Q 1506 409 1894 409 
Q 2359 409 2629 706 
Q 2900 1003 2900 1516 
L 2900 3500 
L 3475 3500 
L 3475 0 
L 2900 0 
L 2900 538 
Q 2691 219 2414 64 
Q 2138 -91 1772 -91 
Q 1169 -91 856 284 
Q 544 659 544 1381 
z
M 1991 3584 
L 1991 3584 
z
" transform="scale(0.015625)"/>
      <path id="DejaVuSans-61" d="M 2194 1759 
Q 1497 1759 1228 1600 
Q 959 1441 959 1056 
Q 959 750 1161 570 
Q 1363 391 1709 391 
Q 2188 391 2477 730 
Q 2766 1069 2766 1631 
L 2766 1759 
L 2194 1759 
z
M 3341 1997 
L 3341 0 
L 2766 0 
L 2766 531 
Q 2569 213 2275 61 
Q 1981 -91 1556 -91 
Q 1019 -91 701 211 
Q 384 513 384 1019 
Q 384 1609 779 1909 
Q 1175 2209 1959 2209 
L 2766 2209 
L 2766 2266 
Q 2766 2663 2505 2880 
Q 2244 3097 1772 3097 
Q 1472 3097 1187 3025 
Q 903 2953 641 2809 
L 641 3341 
Q 956 3463 1253 3523 
Q 1550 3584 1831 3584 
Q 2591 3584 2966 3190 
Q 3341 2797 3341 1997 
z
" transform="scale(0.015625)"/>
      <path id="DejaVuSans-72" d="M 2631 2963 
Q 2534 3019 2420 3045 
Q 2306 3072 2169 3072 
Q 1681 3072 1420 2755 
Q 1159 2438 1159 1844 
L 1159 0 
L 581 0 
L 581 3500 
L 1159 3500 
L 1159 2956 
Q 1341 3275 1631 3429 
Q 1922 3584 2338 3584 
Q 2397 3584 2469 3576 
Q 2541 3569 2628 3553 
L 2631 2963 
z
" transform="scale(0.015625)"/>
      <path id="DejaVuSans-49" d="M 628 4666 
L 1259 4666 
L 1259 0 
L 628 0 
L 628 4666 
z
" transform="scale(0.015625)"/>
      <path id="DejaVuSans-70" d="M 1159 525 
L 1159 -1331 
L 581 -1331 
L 581 3500 
L 1159 3500 
L 1159 2969 
Q 1341 3281 1617 3432 
Q 1894 3584 2278 3584 
Q 2916 3584 3314 3078 
Q 3713 2572 3713 1747 
Q 3713 922 3314 415 
Q 2916 -91 2278 -91 
Q 1894 -91 1617 61 
Q 1341 213 1159 525 
z
M 3116 1747 
Q 3116 2381 2855 2742 
Q 2594 3103 2138 3103 
Q 1681 3103 1420 2742 
Q 1159 2381 1159 1747 
Q 1159 1113 1420 752 
Q 1681 391 2138 391 
Q 2594 391 2855 752 
Q 3116 1113 3116 1747 
z
" transform="scale(0.015625)"/>
     </defs>
     <use xlink:href="#DejaVuSans-44"/>
     <use xlink:href="#DejaVuSans-65" x="77.001953"/>
     <use xlink:href="#DejaVuSans-6e" x="138.525391"/>
     <use xlink:href="#DejaVuSans-73" x="201.904297"/>
     <use xlink:href="#DejaVuSans-69" x="254.003906"/>
     <use xlink:href="#DejaVuSans-74" x="281.787109"/>
     <use xlink:href="#DejaVuSans-79" x="320.996094"/>
     <use xlink:href="#DejaVuSans-20" x="380.175781"/>
     <use xlink:href="#DejaVuSans-50" x="411.962891"/>
     <use xlink:href="#DejaVuSans-6c" x="472.265625"/>
     <use xlink:href="#DejaVuSans-6f" x="500.048828"/>
     <use xlink:href="#DejaVuSans-74" x="561.230469"/>
     <use xlink:href="#DejaVuSans-20" x="600.439453"/>
     <use xlink:href="#DejaVuSans-6f" x="632.226562"/>
     <use xlink:href="#DejaVuSans-66" x="693.408203"/>
     <use xlink:href="#DejaVuSans-20" x="728.613281"/>
     <use xlink:href="#DejaVuSans-45" x="760.400391"/>
     <use xlink:href="#DejaVuSans-78" x="823.583984"/>
     <use xlink:href="#DejaVuSans-65" x="879.638672"/>
     <use xlink:href="#DejaVuSans-63" x="941.162109"/>
     <use xlink:href="#DejaVuSans-75" x="996.142578"/>
     <use xlink:href="#DejaVuSans-74" x="1059.521484"/>
     <use xlink:href="#DejaVuSans-69" x="1098.730469"/>
     <use xlink:href="#DejaVuSans-6f" x="1126.513672"/>
     <use xlink:href="#DejaVuSans-6e" x="1187.695312"/>
     <use xlink:href="#DejaVuSans-20" x="1251.074219"/>
     <use xlink:href="#DejaVuSans-54" x="1282.861328"/>
     <use xlink:href="#DejaVuSans-69" x="1340.820312"/>
     <use xlink:href="#DejaVuSans-6d" x="1368.603516"/>
     <use xlink:href="#DejaVuSans-65" x="1466.015625"/>
     <use xlink:href="#DejaVuSans-20" x="1527.539062"/>
     <use xlink:href="#DejaVuSans-61" x="1559.326172"/>
     <use xlink:href="#DejaVuSans-63" x="1620.605469"/>
     <use xlink:href="#DejaVuSans-72" x="1675.585938"/>
     <use xlink:href="#DejaVuSans-6f" x="1714.449219"/>
     <use xlink:href="#DejaVuSans-73" x="1775.630859"/>
     <use xlink:href="#DejaVuSans-73" x="1827.730469"/>
     <use xlink:href="#DejaVuSans-20" x="1879.830078"/>
     <use xlink:href="#DejaVuSans-49" x="1911.617188"/>
     <use xlink:href="#DejaVuSans-6d" x="1941.109375"/>
     <use xlink:href="#DejaVuSans-70" x="2038.521484"/>
     <use xlink:href="#DejaVuSans-6c" x="2101.998047"/>
     <use xlink:href="#DejaVuSans-65" x="2129.78125"/>
     <use xlink:href="#DejaVuSans-6d" x="2191.304688"/>
     <use xlink:href="#DejaVuSans-65" x="2288.716797"/>
     <use xlink:href="#DejaVuSans-6e" x="2350.240234"/>
     <use xlink:href="#DejaVuSans-74" x="2413.619141"/>
     <use xlink:href="#DejaVuSans-61" x="2452.828125"/>
     <use xlink:href="#DejaVuSans-74" x="2514.107422"/>
     <use xlink:href="#DejaVuSans-69" x="2553.316406"/>
     <use xlink:href="#DejaVuSans-6f" x="2581.099609"/>
     <use xlink:href="#DejaVuSans-6e" x="2642.28125"/>
     <use xlink:href="#DejaVuSans-73" x="2705.660156"/>
    </g>
   </g>
   <g id="legend_1">
    <g id="patch_7">
     <path d="M 617.078125 136.666875 
L 770.6 136.666875 
Q 772.6 136.666875 772.6 134.666875 
L 772.6 76.12 
Q 772.6 74.12 770.6 74.12 
L 617.078125 74.12 
Q 615.078125 74.12 615.078125 76.12 
L 615.078125 134.666875 
Q 615.078125 136.666875 617.078125 136.666875 
z
" style="opacity: 0.8; stroke: #cccccc; stroke-linejoin: miter"/>
    </g>
    <g id="text_18">
     <!-- implementation -->
     <g style="fill: #ffffff" transform="translate(654.222656 85.718437) scale(0.1 -0.1)">
      <use xlink:href="#DejaVuSans-69"/>
      <use xlink:href="#DejaVuSans-6d" x="27.783203"/>
      <use xlink:href="#DejaVuSans-70" x="125.195312"/>
      <use xlink:href="#DejaVuSans-6c" x="188.671875"/>
      <use xlink:href="#DejaVuSans-65" x="216.455078"/>
      <use xlink:href="#DejaVuSans-6d" x="277.978516"/>
      <use xlink:href="#DejaVuSans-65" x="375.390625"/>
      <use xlink:href="#DejaVuSans-6e" x="436.914062"/>
      <use xlink:href="#DejaVuSans-74" x="500.292969"/>
      <use xlink:href="#DejaVuSans-61" x="539.501953"/>
      <use xlink:href="#DejaVuSans-74" x="600.78125"/>
      <use xlink:href="#DejaVuSans-69" x="639.990234"/>
      <use xlink:href="#DejaVuSans-6f" x="667.773438"/>
      <use xlink:href="#DejaVuSans-6e" x="728.955078"/>
     </g>
    </g>
    <g id="patch_8">
     <path d="M 619.078125 100.396563 
L 639.078125 100.396563 
L 639.078125 93.396563 
L 619.078125 93.396563 
z
" style="fill: #023eff; fill-opacity: 0.25; stroke: #023eff; stroke-linejoin: miter"/>
    </g>
    <g id="text_19">
     <!-- caio.python_aio_asyncio -->
     <g style="fill: #ffffff" transform="translate(647.078125 100.396563) scale(0.1 -0.1)">
      <defs>
       <path id="DejaVuSans-68" d="M 3513 2113 
L 3513 0 
L 2938 0 
L 2938 2094 
Q 2938 2591 2744 2837 
Q 2550 3084 2163 3084 
Q 1697 3084 1428 2787 
Q 1159 2491 1159 1978 
L 1159 0 
L 581 0 
L 581 4863 
L 1159 4863 
L 1159 2956 
Q 1366 3272 1645 3428 
Q 1925 3584 2291 3584 
Q 2894 3584 3203 3211 
Q 3513 2838 3513 2113 
z
" transform="scale(0.015625)"/>
       <path id="DejaVuSans-5f" d="M 3263 -1063 
L 3263 -1509 
L -63 -1509 
L -63 -1063 
L 3263 -1063 
z
" transform="scale(0.015625)"/>
      </defs>
      <use xlink:href="#DejaVuSans-63"/>
      <use xlink:href="#DejaVuSans-61" x="54.980469"/>
      <use xlink:href="#DejaVuSans-69" x="116.259766"/>
      <use xlink:href="#DejaVuSans-6f" x="144.042969"/>
      <use xlink:href="#DejaVuSans-2e" x="203.474609"/>
      <use xlink:href="#DejaVuSans-70" x="235.261719"/>
      <use xlink:href="#DejaVuSans-79" x="298.738281"/>
      <use xlink:href="#DejaVuSans-74" x="357.917969"/>
      <use xlink:href="#DejaVuSans-68" x="397.126953"/>
      <use xlink:href="#DejaVuSans-6f" x="460.505859"/>
      <use xlink:href="#DejaVuSans-6e" x="521.6875"/>
      <use xlink:href="#DejaVuSans-5f" x="585.066406"/>
      <use xlink:href="#DejaVuSans-61" x="635.066406"/>
      <use xlink:href="#DejaVuSans-69" x="696.345703"/>
      <use xlink:href="#DejaVuSans-6f" x="724.128906"/>
      <use xlink:href="#DejaVuSans-5f" x="785.310547"/>
      <use xlink:href="#DejaVuSans-61" x="835.310547"/>
      <use xlink:href="#DejaVuSans-73" x="896.589844"/>
      <use xlink:href="#DejaVuSans-79" x="948.689453"/>
      <use xlink:href="#DejaVuSans-6e" x="1007.869141"/>
      <use xlink:href="#DejaVuSans-63" x="1071.248047"/>
      <use xlink:href="#DejaVuSans-69" x="1126.228516"/>
      <use xlink:href="#DejaVuSans-6f" x="1154.011719"/>
     </g>
    </g>
    <g id="patch_9">
     <path d="M 619.078125 115.352813 
L 639.078125 115.352813 
L 639.078125 108.352813 
L 619.078125 108.352813 
z
" style="fill: #ff7c00; fill-opacity: 0.25; stroke: #ff7c00; stroke-linejoin: miter"/>
    </g>
    <g id="text_20">
     <!-- caio.linux_aio_asyncio -->
     <g style="fill: #ffffff" transform="translate(647.078125 115.352813) scale(0.1 -0.1)">
      <use xlink:href="#DejaVuSans-63"/>
      <use xlink:href="#DejaVuSans-61" x="54.980469"/>
      <use xlink:href="#DejaVuSans-69" x="116.259766"/>
      <use xlink:href="#DejaVuSans-6f" x="144.042969"/>
      <use xlink:href="#DejaVuSans-2e" x="203.474609"/>
      <use xlink:href="#DejaVuSans-6c" x="235.261719"/>
      <use xlink:href="#DejaVuSans-69" x="263.044922"/>
      <use xlink:href="#DejaVuSans-6e" x="290.828125"/>
      <use xlink:href="#DejaVuSans-75" x="354.207031"/>
      <use xlink:href="#DejaVuSans-78" x="417.585938"/>
      <use xlink:href="#DejaVuSans-5f" x="476.765625"/>
      <use xlink:href="#DejaVuSans-61" x="526.765625"/>
      <use xlink:href="#DejaVuSans-69" x="588.044922"/>
      <use xlink:href="#DejaVuSans-6f" x="615.828125"/>
      <use xlink:href="#DejaVuSans-5f" x="677.009766"/>
      <use xlink:href="#DejaVuSans-61" x="727.009766"/>
      <use xlink:href="#DejaVuSans-73" x="788.289062"/>
      <use xlink:href="#DejaVuSans-79" x="840.388672"/>
      <use xlink:href="#DejaVuSans-6e" x="899.568359"/>
      <use xlink:href="#DejaVuSans-63" x="962.947266"/>
      <use xlink:href="#DejaVuSans-69" x="1017.927734"/>
      <use xlink:href="#DejaVuSans-6f" x="1045.710938"/>
     </g>
    </g>
    <g id="patch_10">
     <path d="M 619.078125 130.309063 
L 639.078125 130.309063 
L 639.078125 123.309063 
L 619.078125 123.309063 
z
" style="fill: #1ac938; fill-opacity: 0.25; stroke: #1ac938; stroke-linejoin: miter"/>
    </g>
    <g id="text_21">
     <!-- caio.thread_aio_asyncio -->
     <g style="fill: #ffffff" transform="translate(647.078125 130.309063) scale(0.1 -0.1)">
      <defs>
       <path id="DejaVuSans-64" d="M 2906 2969 
L 2906 4863 
L 3481 4863 
L 3481 0 
L 2906 0 
L 2906 525 
Q 2725 213 2448 61 
Q 2172 -91 1784 -91 
Q 1150 -91 751 415 
Q 353 922 353 1747 
Q 353 2572 751 3078 
Q 1150 3584 1784 3584 
Q 2172 3584 2448 3432 
Q 2725 3281 2906 2969 
z
M 947 1747 
Q 947 1113 1208 752 
Q 1469 391 1925 391 
Q 2381 391 2643 752 
Q 2906 1113 2906 1747 
Q 2906 2381 2643 2742 
Q 2381 3103 1925 3103 
Q 1469 3103 1208 2742 
Q 947 2381 947 1747 
z
" transform="scale(0.015625)"/>
      </defs>
      <use xlink:href="#DejaVuSans-63"/>
      <use xlink:href="#DejaVuSans-61" x="54.980469"/>
      <use xlink:href="#DejaVuSans-69" x="116.259766"/>
      <use xlink:href="#DejaVuSans-6f" x="144.042969"/>
      <use xlink:href="#DejaVuSans-2e" x="203.474609"/>
      <use xlink:href="#DejaVuSans-74" x="235.261719"/>
      <use xlink:href="#DejaVuSans-68" x="274.470703"/>
      <use xlink:href="#DejaVuSans-72" x="337.849609"/>
      <use xlink:href="#DejaVuSans-65" x="376.712891"/>
      <use xlink:href="#DejaVuSans-61" x="438.236328"/>
      <use xlink:href="#DejaVuSans-64" x="499.515625"/>
      <use xlink:href="#DejaVuSans-5f" x="562.992188"/>
      <use xlink:href="#DejaVuSans-61" x="612.992188"/>
      <use xlink:href="#DejaVuSans-69" x="674.271484"/>
      <use xlink:href="#DejaVuSans-6f" x="702.054688"/>
      <use xlink:href="#DejaVuSans-5f" x="763.236328"/>
      <use xlink:href="#DejaVuSans-61" x="813.236328"/>
      <use xlink:href="#DejaVuSans-73" x="874.515625"/>
      <use xlink:href="#DejaVuSans-79" x="926.615234"/>
      <use xlink:href="#DejaVuSans-6e" x="985.794922"/>
      <use xlink:href="#DejaVuSans-63" x="1049.173828"/>
      <use xlink:href="#DejaVuSans-69" x="1104.154297"/>
      <use xlink:href="#DejaVuSans-6f" x="1131.9375"/>
     </g>
    </g>
   </g>
  </g>
 </g>
 <defs>
  <clipPath id="p5c45baa45c">
   <rect x="108" y="69.12" width="669.6" height="443.52"/>
  </clipPath>
 </defs>
</svg>
