<?xml version="1.0" encoding="utf-8" standalone="no"?>
<!DOCTYPE svg PUBLIC "-//W3C//DTD SVG 1.1//EN"
  "http://www.w3.org/Graphics/SVG/1.1/DTD/svg11.dtd">
<svg xmlns:xlink="http://www.w3.org/1999/xlink" width="720pt" height="432pt" viewBox="0 0 720 432" xmlns="http://www.w3.org/2000/svg" version="1.1">
 <metadata>
  <rdf:RDF xmlns:dc="http://purl.org/dc/elements/1.1/" xmlns:cc="http://creativecommons.org/ns#" xmlns:rdf="http://www.w3.org/1999/02/22-rdf-syntax-ns#">
   <cc:Work>
    <dc:type rdf:resource="http://purl.org/dc/dcmitype/StillImage"/>
    <dc:date>2024-01-19T20:47:02.052980</dc:date>
    <dc:format>image/svg+xml</dc:format>
    <dc:creator>
     <cc:Agent>
      <dc:title>Matplotlib v3.8.2, https://matplotlib.org/</dc:title>
     </cc:Agent>
    </dc:creator>
   </cc:Work>
  </rdf:RDF>
 </metadata>
 <defs>
  <style type="text/css">*{stroke-linejoin: round; stroke-linecap: butt}</style>
 </defs>
 <g id="figure_1">
  <g id="patch_1">
   <path d="M 0 432 
L 720 432 
L 720 0 
L 0 0 
z
"/>
  </g>
  <g id="axes_1">
   <g id="patch_2">
    <path d="M 90 384.48 
L 648 384.48 
L 648 51.84 
L 90 51.84 
z
"/>
   </g>
   <g id="matplotlib.axis_1">
    <g id="xtick_1">
     <g id="line2d_1">
      <path d="M 115.363636 384.48 
L 115.363636 51.84 
" clip-path="url(#p21b0e7fb48)" style="fill: none; stroke: #ffffff; stroke-width: 0.8; stroke-linecap: square"/>
     </g>
     <g id="line2d_2">
      <defs>
       <path id="m479a532016" d="M 0 0 
L 0 3.5 
" style="stroke: #ffffff; stroke-width: 0.8"/>
      </defs>
      <g>
       <use xlink:href="#m479a532016" x="115.363636" y="384.48" style="fill: #ffffff; stroke: #ffffff; stroke-width: 0.8"/>
      </g>
     </g>
     <g id="text_1">
      <!-- 55912 -->
      <g style="fill: #ffffff" transform="translate(106.067392 419.347741) rotate(-45) scale(0.1 -0.1)">
       <defs>
        <path id="DejaVuSans-35" d="M 691 4666 
L 3169 4666 
L 3169 4134 
L 1269 4134 
L 1269 2991 
Q 1406 3038 1543 3061 
Q 1681 3084 1819 3084 
Q 2600 3084 3056 2656 
Q 3513 2228 3513 1497 
Q 3513 744 3044 326 
Q 2575 -91 1722 -91 
Q 1428 -91 1123 -41 
Q 819 9 494 109 
L 494 744 
Q 775 591 1075 516 
Q 1375 441 1709 441 
Q 2250 441 2565 725 
Q 2881 1009 2881 1497 
Q 2881 1984 2565 2268 
Q 2250 2553 1709 2553 
Q 1456 2553 1204 2497 
Q 953 2441 691 2322 
L 691 4666 
z
" transform="scale(0.015625)"/>
        <path id="DejaVuSans-39" d="M 703 97 
L 703 672 
Q 941 559 1184 500 
Q 1428 441 1663 441 
Q 2288 441 2617 861 
Q 2947 1281 2994 2138 
Q 2813 1869 2534 1725 
Q 2256 1581 1919 1581 
Q 1219 1581 811 2004 
Q 403 2428 403 3163 
Q 403 3881 828 4315 
Q 1253 4750 1959 4750 
Q 2769 4750 3195 4129 
Q 3622 3509 3622 2328 
Q 3622 1225 3098 567 
Q 2575 -91 1691 -91 
Q 1453 -91 1209 -44 
Q 966 3 703 97 
z
M 1959 2075 
Q 2384 2075 2632 2365 
Q 2881 2656 2881 3163 
Q 2881 3666 2632 3958 
Q 2384 4250 1959 4250 
Q 1534 4250 1286 3958 
Q 1038 3666 1038 3163 
Q 1038 2656 1286 2365 
Q 1534 2075 1959 2075 
z
" transform="scale(0.015625)"/>
        <path id="DejaVuSans-31" d="M 794 531 
L 1825 531 
L 1825 4091 
L 703 3866 
L 703 4441 
L 1819 4666 
L 2450 4666 
L 2450 531 
L 3481 531 
L 3481 0 
L 794 0 
L 794 531 
z
" transform="scale(0.015625)"/>
        <path id="DejaVuSans-32" d="M 1228 531 
L 3431 531 
L 3431 0 
L 469 0 
L 469 531 
Q 828 903 1448 1529 
Q 2069 2156 2228 2338 
Q 2531 2678 2651 2914 
Q 2772 3150 2772 3378 
Q 2772 3750 2511 3984 
Q 2250 4219 1831 4219 
Q 1534 4219 1204 4116 
Q 875 4013 500 3803 
L 500 4441 
Q 881 4594 1212 4672 
Q 1544 4750 1819 4750 
Q 2544 4750 2975 4387 
Q 3406 4025 3406 3419 
Q 3406 3131 3298 2873 
Q 3191 2616 2906 2266 
Q 2828 2175 2409 1742 
Q 1991 1309 1228 531 
z
" transform="scale(0.015625)"/>
       </defs>
       <use xlink:href="#DejaVuSans-35"/>
       <use xlink:href="#DejaVuSans-35" x="63.623047"/>
       <use xlink:href="#DejaVuSans-39" x="127.246094"/>
       <use xlink:href="#DejaVuSans-31" x="190.869141"/>
       <use xlink:href="#DejaVuSans-32" x="254.492188"/>
      </g>
     </g>
    </g>
    <g id="xtick_2">
     <g id="line2d_3">
      <path d="M 136.5 384.48 
L 136.5 51.84 
" clip-path="url(#p21b0e7fb48)" style="fill: none; stroke: #ffffff; stroke-width: 0.8; stroke-linecap: square"/>
     </g>
     <g id="line2d_4">
      <g>
       <use xlink:href="#m479a532016" x="136.5" y="384.48" style="fill: #ffffff; stroke: #ffffff; stroke-width: 0.8"/>
      </g>
     </g>
     <g id="text_2">
      <!-- 58342 -->
      <g style="fill: #ffffff" transform="translate(127.203756 419.347741) rotate(-45) scale(0.1 -0.1)">
       <defs>
        <path id="DejaVuSans-38" d="M 2034 2216 
Q 1584 2216 1326 1975 
Q 1069 1734 1069 1313 
Q 1069 891 1326 650 
Q 1584 409 2034 409 
Q 2484 409 2743 651 
Q 3003 894 3003 1313 
Q 3003 1734 2745 1975 
Q 2488 2216 2034 2216 
z
M 1403 2484 
Q 997 2584 770 2862 
Q 544 3141 544 3541 
Q 544 4100 942 4425 
Q 1341 4750 2034 4750 
Q 2731 4750 3128 4425 
Q 3525 4100 3525 3541 
Q 3525 3141 3298 2862 
Q 3072 2584 2669 2484 
Q 3125 2378 3379 2068 
Q 3634 1759 3634 1313 
Q 3634 634 3220 271 
Q 2806 -91 2034 -91 
Q 1263 -91 848 271 
Q 434 634 434 1313 
Q 434 1759 690 2068 
Q 947 2378 1403 2484 
z
M 1172 3481 
Q 1172 3119 1398 2916 
Q 1625 2713 2034 2713 
Q 2441 2713 2670 2916 
Q 2900 3119 2900 3481 
Q 2900 3844 2670 4047 
Q 2441 4250 2034 4250 
Q 1625 4250 1398 4047 
Q 1172 3844 1172 3481 
z
" transform="scale(0.015625)"/>
        <path id="DejaVuSans-33" d="M 2597 2516 
Q 3050 2419 3304 2112 
Q 3559 1806 3559 1356 
Q 3559 666 3084 287 
Q 2609 -91 1734 -91 
Q 1441 -91 1130 -33 
Q 819 25 488 141 
L 488 750 
Q 750 597 1062 519 
Q 1375 441 1716 441 
Q 2309 441 2620 675 
Q 2931 909 2931 1356 
Q 2931 1769 2642 2001 
Q 2353 2234 1838 2234 
L 1294 2234 
L 1294 2753 
L 1863 2753 
Q 2328 2753 2575 2939 
Q 2822 3125 2822 3475 
Q 2822 3834 2567 4026 
Q 2313 4219 1838 4219 
Q 1578 4219 1281 4162 
Q 984 4106 628 3988 
L 628 4550 
Q 988 4650 1302 4700 
Q 1616 4750 1894 4750 
Q 2613 4750 3031 4423 
Q 3450 4097 3450 3541 
Q 3450 3153 3228 2886 
Q 3006 2619 2597 2516 
z
" transform="scale(0.015625)"/>
        <path id="DejaVuSans-34" d="M 2419 4116 
L 825 1625 
L 2419 1625 
L 2419 4116 
z
M 2253 4666 
L 3047 4666 
L 3047 1625 
L 3713 1625 
L 3713 1100 
L 3047 1100 
L 3047 0 
L 2419 0 
L 2419 1100 
L 313 1100 
L 313 1709 
L 2253 4666 
z
" transform="scale(0.015625)"/>
       </defs>
       <use xlink:href="#DejaVuSans-35"/>
       <use xlink:href="#DejaVuSans-38" x="63.623047"/>
       <use xlink:href="#DejaVuSans-33" x="127.246094"/>
       <use xlink:href="#DejaVuSans-34" x="190.869141"/>
       <use xlink:href="#DejaVuSans-32" x="254.492188"/>
      </g>
     </g>
    </g>
    <g id="xtick_3">
     <g id="line2d_5">
      <path d="M 157.636364 384.48 
L 157.636364 51.84 
" clip-path="url(#p21b0e7fb48)" style="fill: none; stroke: #ffffff; stroke-width: 0.8; stroke-linecap: square"/>
     </g>
     <g id="line2d_6">
      <g>
       <use xlink:href="#m479a532016" x="157.636364" y="384.48" style="fill: #ffffff; stroke: #ffffff; stroke-width: 0.8"/>
      </g>
     </g>
     <g id="text_3">
      <!-- 60994 -->
      <g style="fill: #ffffff" transform="translate(148.340119 419.347741) rotate(-45) scale(0.1 -0.1)">
       <defs>
        <path id="DejaVuSans-36" d="M 2113 2584 
Q 1688 2584 1439 2293 
Q 1191 2003 1191 1497 
Q 1191 994 1439 701 
Q 1688 409 2113 409 
Q 2538 409 2786 701 
Q 3034 994 3034 1497 
Q 3034 2003 2786 2293 
Q 2538 2584 2113 2584 
z
M 3366 4563 
L 3366 3988 
Q 3128 4100 2886 4159 
Q 2644 4219 2406 4219 
Q 1781 4219 1451 3797 
Q 1122 3375 1075 2522 
Q 1259 2794 1537 2939 
Q 1816 3084 2150 3084 
Q 2853 3084 3261 2657 
Q 3669 2231 3669 1497 
Q 3669 778 3244 343 
Q 2819 -91 2113 -91 
Q 1303 -91 875 529 
Q 447 1150 447 2328 
Q 447 3434 972 4092 
Q 1497 4750 2381 4750 
Q 2619 4750 2861 4703 
Q 3103 4656 3366 4563 
z
" transform="scale(0.015625)"/>
        <path id="DejaVuSans-30" d="M 2034 4250 
Q 1547 4250 1301 3770 
Q 1056 3291 1056 2328 
Q 1056 1369 1301 889 
Q 1547 409 2034 409 
Q 2525 409 2770 889 
Q 3016 1369 3016 2328 
Q 3016 3291 2770 3770 
Q 2525 4250 2034 4250 
z
M 2034 4750 
Q 2819 4750 3233 4129 
Q 3647 3509 3647 2328 
Q 3647 1150 3233 529 
Q 2819 -91 2034 -91 
Q 1250 -91 836 529 
Q 422 1150 422 2328 
Q 422 3509 836 4129 
Q 1250 4750 2034 4750 
z
" transform="scale(0.015625)"/>
       </defs>
       <use xlink:href="#DejaVuSans-36"/>
       <use xlink:href="#DejaVuSans-30" x="63.623047"/>
       <use xlink:href="#DejaVuSans-39" x="127.246094"/>
       <use xlink:href="#DejaVuSans-39" x="190.869141"/>
       <use xlink:href="#DejaVuSans-34" x="254.492188"/>
      </g>
     </g>
    </g>
    <g id="xtick_4">
     <g id="line2d_7">
      <path d="M 178.772727 384.48 
L 178.772727 51.84 
" clip-path="url(#p21b0e7fb48)" style="fill: none; stroke: #ffffff; stroke-width: 0.8; stroke-linecap: square"/>
     </g>
     <g id="line2d_8">
      <g>
       <use xlink:href="#m479a532016" x="178.772727" y="384.48" style="fill: #ffffff; stroke: #ffffff; stroke-width: 0.8"/>
      </g>
     </g>
     <g id="text_4">
      <!-- 63897 -->
      <g style="fill: #ffffff" transform="translate(169.476483 419.347741) rotate(-45) scale(0.1 -0.1)">
       <defs>
        <path id="DejaVuSans-37" d="M 525 4666 
L 3525 4666 
L 3525 4397 
L 1831 0 
L 1172 0 
L 2766 4134 
L 525 4134 
L 525 4666 
z
" transform="scale(0.015625)"/>
       </defs>
       <use xlink:href="#DejaVuSans-36"/>
       <use xlink:href="#DejaVuSans-33" x="63.623047"/>
       <use xlink:href="#DejaVuSans-38" x="127.246094"/>
       <use xlink:href="#DejaVuSans-39" x="190.869141"/>
       <use xlink:href="#DejaVuSans-37" x="254.492188"/>
      </g>
     </g>
    </g>
    <g id="xtick_5">
     <g id="line2d_9">
      <path d="M 199.909091 384.48 
L 199.909091 51.84 
" clip-path="url(#p21b0e7fb48)" style="fill: none; stroke: #ffffff; stroke-width: 0.8; stroke-linecap: square"/>
     </g>
     <g id="line2d_10">
      <g>
       <use xlink:href="#m479a532016" x="199.909091" y="384.48" style="fill: #ffffff; stroke: #ffffff; stroke-width: 0.8"/>
      </g>
     </g>
     <g id="text_5">
      <!-- 67092 -->
      <g style="fill: #ffffff" transform="translate(190.612846 419.347741) rotate(-45) scale(0.1 -0.1)">
       <use xlink:href="#DejaVuSans-36"/>
       <use xlink:href="#DejaVuSans-37" x="63.623047"/>
       <use xlink:href="#DejaVuSans-30" x="127.246094"/>
       <use xlink:href="#DejaVuSans-39" x="190.869141"/>
       <use xlink:href="#DejaVuSans-32" x="254.492188"/>
      </g>
     </g>
    </g>
    <g id="xtick_6">
     <g id="line2d_11">
      <path d="M 221.045455 384.48 
L 221.045455 51.84 
" clip-path="url(#p21b0e7fb48)" style="fill: none; stroke: #ffffff; stroke-width: 0.8; stroke-linecap: square"/>
     </g>
     <g id="line2d_12">
      <g>
       <use xlink:href="#m479a532016" x="221.045455" y="384.48" style="fill: #ffffff; stroke: #ffffff; stroke-width: 0.8"/>
      </g>
     </g>
     <g id="text_6">
      <!-- 70622 -->
      <g style="fill: #ffffff" transform="translate(211.74921 419.347741) rotate(-45) scale(0.1 -0.1)">
       <use xlink:href="#DejaVuSans-37"/>
       <use xlink:href="#DejaVuSans-30" x="63.623047"/>
       <use xlink:href="#DejaVuSans-36" x="127.246094"/>
       <use xlink:href="#DejaVuSans-32" x="190.869141"/>
       <use xlink:href="#DejaVuSans-32" x="254.492188"/>
      </g>
     </g>
    </g>
    <g id="xtick_7">
     <g id="line2d_13">
      <path d="M 242.181818 384.48 
L 242.181818 51.84 
" clip-path="url(#p21b0e7fb48)" style="fill: none; stroke: #ffffff; stroke-width: 0.8; stroke-linecap: square"/>
     </g>
     <g id="line2d_14">
      <g>
       <use xlink:href="#m479a532016" x="242.181818" y="384.48" style="fill: #ffffff; stroke: #ffffff; stroke-width: 0.8"/>
      </g>
     </g>
     <g id="text_7">
      <!-- 74544 -->
      <g style="fill: #ffffff" transform="translate(232.885574 419.347741) rotate(-45) scale(0.1 -0.1)">
       <use xlink:href="#DejaVuSans-37"/>
       <use xlink:href="#DejaVuSans-34" x="63.623047"/>
       <use xlink:href="#DejaVuSans-35" x="127.246094"/>
       <use xlink:href="#DejaVuSans-34" x="190.869141"/>
       <use xlink:href="#DejaVuSans-34" x="254.492188"/>
      </g>
     </g>
    </g>
    <g id="xtick_8">
     <g id="line2d_15">
      <path d="M 263.318182 384.48 
L 263.318182 51.84 
" clip-path="url(#p21b0e7fb48)" style="fill: none; stroke: #ffffff; stroke-width: 0.8; stroke-linecap: square"/>
     </g>
     <g id="line2d_16">
      <g>
       <use xlink:href="#m479a532016" x="263.318182" y="384.48" style="fill: #ffffff; stroke: #ffffff; stroke-width: 0.8"/>
      </g>
     </g>
     <g id="text_8">
      <!-- 78928 -->
      <g style="fill: #ffffff" transform="translate(254.021937 419.347741) rotate(-45) scale(0.1 -0.1)">
       <use xlink:href="#DejaVuSans-37"/>
       <use xlink:href="#DejaVuSans-38" x="63.623047"/>
       <use xlink:href="#DejaVuSans-39" x="127.246094"/>
       <use xlink:href="#DejaVuSans-32" x="190.869141"/>
       <use xlink:href="#DejaVuSans-38" x="254.492188"/>
      </g>
     </g>
    </g>
    <g id="xtick_9">
     <g id="line2d_17">
      <path d="M 284.454545 384.48 
L 284.454545 51.84 
" clip-path="url(#p21b0e7fb48)" style="fill: none; stroke: #ffffff; stroke-width: 0.8; stroke-linecap: square"/>
     </g>
     <g id="line2d_18">
      <g>
       <use xlink:href="#m479a532016" x="284.454545" y="384.48" style="fill: #ffffff; stroke: #ffffff; stroke-width: 0.8"/>
      </g>
     </g>
     <g id="text_9">
      <!-- 83859 -->
      <g style="fill: #ffffff" transform="translate(275.158301 419.347741) rotate(-45) scale(0.1 -0.1)">
       <use xlink:href="#DejaVuSans-38"/>
       <use xlink:href="#DejaVuSans-33" x="63.623047"/>
       <use xlink:href="#DejaVuSans-38" x="127.246094"/>
       <use xlink:href="#DejaVuSans-35" x="190.869141"/>
       <use xlink:href="#DejaVuSans-39" x="254.492188"/>
      </g>
     </g>
    </g>
    <g id="xtick_10">
     <g id="line2d_19">
      <path d="M 305.590909 384.48 
L 305.590909 51.84 
" clip-path="url(#p21b0e7fb48)" style="fill: none; stroke: #ffffff; stroke-width: 0.8; stroke-linecap: square"/>
     </g>
     <g id="line2d_20">
      <g>
       <use xlink:href="#m479a532016" x="305.590909" y="384.48" style="fill: #ffffff; stroke: #ffffff; stroke-width: 0.8"/>
      </g>
     </g>
     <g id="text_10">
      <!-- 89448 -->
      <g style="fill: #ffffff" transform="translate(296.294665 419.347741) rotate(-45) scale(0.1 -0.1)">
       <use xlink:href="#DejaVuSans-38"/>
       <use xlink:href="#DejaVuSans-39" x="63.623047"/>
       <use xlink:href="#DejaVuSans-34" x="127.246094"/>
       <use xlink:href="#DejaVuSans-34" x="190.869141"/>
       <use xlink:href="#DejaVuSans-38" x="254.492188"/>
      </g>
     </g>
    </g>
    <g id="xtick_11">
     <g id="line2d_21">
      <path d="M 326.727273 384.48 
L 326.727273 51.84 
" clip-path="url(#p21b0e7fb48)" style="fill: none; stroke: #ffffff; stroke-width: 0.8; stroke-linecap: square"/>
     </g>
     <g id="line2d_22">
      <g>
       <use xlink:href="#m479a532016" x="326.727273" y="384.48" style="fill: #ffffff; stroke: #ffffff; stroke-width: 0.8"/>
      </g>
     </g>
     <g id="text_11">
      <!-- 95835 -->
      <g style="fill: #ffffff" transform="translate(317.431028 419.347741) rotate(-45) scale(0.1 -0.1)">
       <use xlink:href="#DejaVuSans-39"/>
       <use xlink:href="#DejaVuSans-35" x="63.623047"/>
       <use xlink:href="#DejaVuSans-38" x="127.246094"/>
       <use xlink:href="#DejaVuSans-33" x="190.869141"/>
       <use xlink:href="#DejaVuSans-35" x="254.492188"/>
      </g>
     </g>
    </g>
    <g id="xtick_12">
     <g id="line2d_23">
      <path d="M 347.863636 384.48 
L 347.863636 51.84 
" clip-path="url(#p21b0e7fb48)" style="fill: none; stroke: #ffffff; stroke-width: 0.8; stroke-linecap: square"/>
     </g>
     <g id="line2d_24">
      <g>
       <use xlink:href="#m479a532016" x="347.863636" y="384.48" style="fill: #ffffff; stroke: #ffffff; stroke-width: 0.8"/>
      </g>
     </g>
     <g id="text_12">
      <!-- 103204 -->
      <g style="fill: #ffffff" transform="translate(336.317908 423.846708) rotate(-45) scale(0.1 -0.1)">
       <use xlink:href="#DejaVuSans-31"/>
       <use xlink:href="#DejaVuSans-30" x="63.623047"/>
       <use xlink:href="#DejaVuSans-33" x="127.246094"/>
       <use xlink:href="#DejaVuSans-32" x="190.869141"/>
       <use xlink:href="#DejaVuSans-30" x="254.492188"/>
       <use xlink:href="#DejaVuSans-34" x="318.115234"/>
      </g>
     </g>
    </g>
    <g id="xtick_13">
     <g id="line2d_25">
      <path d="M 369 384.48 
L 369 51.84 
" clip-path="url(#p21b0e7fb48)" style="fill: none; stroke: #ffffff; stroke-width: 0.8; stroke-linecap: square"/>
     </g>
     <g id="line2d_26">
      <g>
       <use xlink:href="#m479a532016" x="369" y="384.48" style="fill: #ffffff; stroke: #ffffff; stroke-width: 0.8"/>
      </g>
     </g>
     <g id="text_13">
      <!-- 111801 -->
      <g style="fill: #ffffff" transform="translate(357.454272 423.846708) rotate(-45) scale(0.1 -0.1)">
       <use xlink:href="#DejaVuSans-31"/>
       <use xlink:href="#DejaVuSans-31" x="63.623047"/>
       <use xlink:href="#DejaVuSans-31" x="127.246094"/>
       <use xlink:href="#DejaVuSans-38" x="190.869141"/>
       <use xlink:href="#DejaVuSans-30" x="254.492188"/>
       <use xlink:href="#DejaVuSans-31" x="318.115234"/>
      </g>
     </g>
    </g>
    <g id="xtick_14">
     <g id="line2d_27">
      <path d="M 390.136364 384.48 
L 390.136364 51.84 
" clip-path="url(#p21b0e7fb48)" style="fill: none; stroke: #ffffff; stroke-width: 0.8; stroke-linecap: square"/>
     </g>
     <g id="line2d_28">
      <g>
       <use xlink:href="#m479a532016" x="390.136364" y="384.48" style="fill: #ffffff; stroke: #ffffff; stroke-width: 0.8"/>
      </g>
     </g>
     <g id="text_14">
      <!-- 121960 -->
      <g style="fill: #ffffff" transform="translate(378.590636 423.846708) rotate(-45) scale(0.1 -0.1)">
       <use xlink:href="#DejaVuSans-31"/>
       <use xlink:href="#DejaVuSans-32" x="63.623047"/>
       <use xlink:href="#DejaVuSans-31" x="127.246094"/>
       <use xlink:href="#DejaVuSans-39" x="190.869141"/>
       <use xlink:href="#DejaVuSans-36" x="254.492188"/>
       <use xlink:href="#DejaVuSans-30" x="318.115234"/>
      </g>
     </g>
    </g>
    <g id="xtick_15">
     <g id="line2d_29">
      <path d="M 411.272727 384.48 
L 411.272727 51.84 
" clip-path="url(#p21b0e7fb48)" style="fill: none; stroke: #ffffff; stroke-width: 0.8; stroke-linecap: square"/>
     </g>
     <g id="line2d_30">
      <g>
       <use xlink:href="#m479a532016" x="411.272727" y="384.48" style="fill: #ffffff; stroke: #ffffff; stroke-width: 0.8"/>
      </g>
     </g>
     <g id="text_15">
      <!-- 134150 -->
      <g style="fill: #ffffff" transform="translate(399.726999 423.846708) rotate(-45) scale(0.1 -0.1)">
       <use xlink:href="#DejaVuSans-31"/>
       <use xlink:href="#DejaVuSans-33" x="63.623047"/>
       <use xlink:href="#DejaVuSans-34" x="127.246094"/>
       <use xlink:href="#DejaVuSans-31" x="190.869141"/>
       <use xlink:href="#DejaVuSans-35" x="254.492188"/>
       <use xlink:href="#DejaVuSans-30" x="318.115234"/>
      </g>
     </g>
    </g>
    <g id="xtick_16">
     <g id="line2d_31">
      <path d="M 432.409091 384.48 
L 432.409091 51.84 
" clip-path="url(#p21b0e7fb48)" style="fill: none; stroke: #ffffff; stroke-width: 0.8; stroke-linecap: square"/>
     </g>
     <g id="line2d_32">
      <g>
       <use xlink:href="#m479a532016" x="432.409091" y="384.48" style="fill: #ffffff; stroke: #ffffff; stroke-width: 0.8"/>
      </g>
     </g>
     <g id="text_16">
      <!-- 149048 -->
      <g style="fill: #ffffff" transform="translate(420.863363 423.846708) rotate(-45) scale(0.1 -0.1)">
       <use xlink:href="#DejaVuSans-31"/>
       <use xlink:href="#DejaVuSans-34" x="63.623047"/>
       <use xlink:href="#DejaVuSans-39" x="127.246094"/>
       <use xlink:href="#DejaVuSans-30" x="190.869141"/>
       <use xlink:href="#DejaVuSans-34" x="254.492188"/>
       <use xlink:href="#DejaVuSans-38" x="318.115234"/>
      </g>
     </g>
    </g>
    <g id="xtick_17">
     <g id="line2d_33">
      <path d="M 453.545455 384.48 
L 453.545455 51.84 
" clip-path="url(#p21b0e7fb48)" style="fill: none; stroke: #ffffff; stroke-width: 0.8; stroke-linecap: square"/>
     </g>
     <g id="line2d_34">
      <g>
       <use xlink:href="#m479a532016" x="453.545455" y="384.48" style="fill: #ffffff; stroke: #ffffff; stroke-width: 0.8"/>
      </g>
     </g>
     <g id="text_17">
      <!-- 167667 -->
      <g style="fill: #ffffff" transform="translate(441.999727 423.846708) rotate(-45) scale(0.1 -0.1)">
       <use xlink:href="#DejaVuSans-31"/>
       <use xlink:href="#DejaVuSans-36" x="63.623047"/>
       <use xlink:href="#DejaVuSans-37" x="127.246094"/>
       <use xlink:href="#DejaVuSans-36" x="190.869141"/>
       <use xlink:href="#DejaVuSans-36" x="254.492188"/>
       <use xlink:href="#DejaVuSans-37" x="318.115234"/>
      </g>
     </g>
    </g>
    <g id="xtick_18">
     <g id="line2d_35">
      <path d="M 474.681818 384.48 
L 474.681818 51.84 
" clip-path="url(#p21b0e7fb48)" style="fill: none; stroke: #ffffff; stroke-width: 0.8; stroke-linecap: square"/>
     </g>
     <g id="line2d_36">
      <g>
       <use xlink:href="#m479a532016" x="474.681818" y="384.48" style="fill: #ffffff; stroke: #ffffff; stroke-width: 0.8"/>
      </g>
     </g>
     <g id="text_18">
      <!-- 191602 -->
      <g style="fill: #ffffff" transform="translate(463.13609 423.846708) rotate(-45) scale(0.1 -0.1)">
       <use xlink:href="#DejaVuSans-31"/>
       <use xlink:href="#DejaVuSans-39" x="63.623047"/>
       <use xlink:href="#DejaVuSans-31" x="127.246094"/>
       <use xlink:href="#DejaVuSans-36" x="190.869141"/>
       <use xlink:href="#DejaVuSans-30" x="254.492188"/>
       <use xlink:href="#DejaVuSans-32" x="318.115234"/>
      </g>
     </g>
    </g>
    <g id="xtick_19">
     <g id="line2d_37">
      <path d="M 495.818182 384.48 
L 495.818182 51.84 
" clip-path="url(#p21b0e7fb48)" style="fill: none; stroke: #ffffff; stroke-width: 0.8; stroke-linecap: square"/>
     </g>
     <g id="line2d_38">
      <g>
       <use xlink:href="#m479a532016" x="495.818182" y="384.48" style="fill: #ffffff; stroke: #ffffff; stroke-width: 0.8"/>
      </g>
     </g>
     <g id="text_19">
      <!-- 223509 -->
      <g style="fill: #ffffff" transform="translate(484.272454 423.846708) rotate(-45) scale(0.1 -0.1)">
       <use xlink:href="#DejaVuSans-32"/>
       <use xlink:href="#DejaVuSans-32" x="63.623047"/>
       <use xlink:href="#DejaVuSans-33" x="127.246094"/>
       <use xlink:href="#DejaVuSans-35" x="190.869141"/>
       <use xlink:href="#DejaVuSans-30" x="254.492188"/>
       <use xlink:href="#DejaVuSans-39" x="318.115234"/>
      </g>
     </g>
    </g>
    <g id="xtick_20">
     <g id="line2d_39">
      <path d="M 516.954545 384.48 
L 516.954545 51.84 
" clip-path="url(#p21b0e7fb48)" style="fill: none; stroke: #ffffff; stroke-width: 0.8; stroke-linecap: square"/>
     </g>
     <g id="line2d_40">
      <g>
       <use xlink:href="#m479a532016" x="516.954545" y="384.48" style="fill: #ffffff; stroke: #ffffff; stroke-width: 0.8"/>
      </g>
     </g>
     <g id="text_20">
      <!-- 268167 -->
      <g style="fill: #ffffff" transform="translate(505.408818 423.846708) rotate(-45) scale(0.1 -0.1)">
       <use xlink:href="#DejaVuSans-32"/>
       <use xlink:href="#DejaVuSans-36" x="63.623047"/>
       <use xlink:href="#DejaVuSans-38" x="127.246094"/>
       <use xlink:href="#DejaVuSans-31" x="190.869141"/>
       <use xlink:href="#DejaVuSans-36" x="254.492188"/>
       <use xlink:href="#DejaVuSans-37" x="318.115234"/>
      </g>
     </g>
    </g>
    <g id="xtick_21">
     <g id="line2d_41">
      <path d="M 538.090909 384.48 
L 538.090909 51.84 
" clip-path="url(#p21b0e7fb48)" style="fill: none; stroke: #ffffff; stroke-width: 0.8; stroke-linecap: square"/>
     </g>
     <g id="line2d_42">
      <g>
       <use xlink:href="#m479a532016" x="538.090909" y="384.48" style="fill: #ffffff; stroke: #ffffff; stroke-width: 0.8"/>
      </g>
     </g>
     <g id="text_21">
      <!-- 335125 -->
      <g style="fill: #ffffff" transform="translate(526.545181 423.846708) rotate(-45) scale(0.1 -0.1)">
       <use xlink:href="#DejaVuSans-33"/>
       <use xlink:href="#DejaVuSans-33" x="63.623047"/>
       <use xlink:href="#DejaVuSans-35" x="127.246094"/>
       <use xlink:href="#DejaVuSans-31" x="190.869141"/>
       <use xlink:href="#DejaVuSans-32" x="254.492188"/>
       <use xlink:href="#DejaVuSans-35" x="318.115234"/>
      </g>
     </g>
    </g>
    <g id="xtick_22">
     <g id="line2d_43">
      <path d="M 559.227273 384.48 
L 559.227273 51.84 
" clip-path="url(#p21b0e7fb48)" style="fill: none; stroke: #ffffff; stroke-width: 0.8; stroke-linecap: square"/>
     </g>
     <g id="line2d_44">
      <g>
       <use xlink:href="#m479a532016" x="559.227273" y="384.48" style="fill: #ffffff; stroke: #ffffff; stroke-width: 0.8"/>
      </g>
     </g>
     <g id="text_22">
      <!-- 446648 -->
      <g style="fill: #ffffff" transform="translate(547.681545 423.846708) rotate(-45) scale(0.1 -0.1)">
       <use xlink:href="#DejaVuSans-34"/>
       <use xlink:href="#DejaVuSans-34" x="63.623047"/>
       <use xlink:href="#DejaVuSans-36" x="127.246094"/>
       <use xlink:href="#DejaVuSans-36" x="190.869141"/>
       <use xlink:href="#DejaVuSans-34" x="254.492188"/>
       <use xlink:href="#DejaVuSans-38" x="318.115234"/>
      </g>
     </g>
    </g>
    <g id="xtick_23">
     <g id="line2d_45">
      <path d="M 580.363636 384.48 
L 580.363636 51.84 
" clip-path="url(#p21b0e7fb48)" style="fill: none; stroke: #ffffff; stroke-width: 0.8; stroke-linecap: square"/>
     </g>
     <g id="line2d_46">
      <g>
       <use xlink:href="#m479a532016" x="580.363636" y="384.48" style="fill: #ffffff; stroke: #ffffff; stroke-width: 0.8"/>
      </g>
     </g>
     <g id="text_23">
      <!-- 669415 -->
      <g style="fill: #ffffff" transform="translate(568.817908 423.846708) rotate(-45) scale(0.1 -0.1)">
       <use xlink:href="#DejaVuSans-36"/>
       <use xlink:href="#DejaVuSans-36" x="63.623047"/>
       <use xlink:href="#DejaVuSans-39" x="127.246094"/>
       <use xlink:href="#DejaVuSans-34" x="190.869141"/>
       <use xlink:href="#DejaVuSans-31" x="254.492188"/>
       <use xlink:href="#DejaVuSans-35" x="318.115234"/>
      </g>
     </g>
    </g>
    <g id="xtick_24">
     <g id="line2d_47">
      <path d="M 601.5 384.48 
L 601.5 51.84 
" clip-path="url(#p21b0e7fb48)" style="fill: none; stroke: #ffffff; stroke-width: 0.8; stroke-linecap: square"/>
     </g>
     <g id="line2d_48">
      <g>
       <use xlink:href="#m479a532016" x="601.5" y="384.48" style="fill: #ffffff; stroke: #ffffff; stroke-width: 0.8"/>
      </g>
     </g>
     <g id="text_24">
      <!-- 1335499 -->
      <g style="fill: #ffffff" transform="translate(587.704789 428.345675) rotate(-45) scale(0.1 -0.1)">
       <use xlink:href="#DejaVuSans-31"/>
       <use xlink:href="#DejaVuSans-33" x="63.623047"/>
       <use xlink:href="#DejaVuSans-33" x="127.246094"/>
       <use xlink:href="#DejaVuSans-35" x="190.869141"/>
       <use xlink:href="#DejaVuSans-34" x="254.492188"/>
       <use xlink:href="#DejaVuSans-39" x="318.115234"/>
       <use xlink:href="#DejaVuSans-39" x="381.738281"/>
      </g>
     </g>
    </g>
    <g id="xtick_25">
     <g id="line2d_49">
      <path d="M 622.636364 384.48 
L 622.636364 51.84 
" clip-path="url(#p21b0e7fb48)" style="fill: none; stroke: #ffffff; stroke-width: 0.8; stroke-linecap: square"/>
     </g>
     <g id="line2d_50">
      <g>
       <use xlink:href="#m479a532016" x="622.636364" y="384.48" style="fill: #ffffff; stroke: #ffffff; stroke-width: 0.8"/>
      </g>
     </g>
     <g id="text_25">
      <!-- 268435456 -->
      <g style="fill: #ffffff" transform="translate(604.342185 437.343609) rotate(-45) scale(0.1 -0.1)">
       <use xlink:href="#DejaVuSans-32"/>
       <use xlink:href="#DejaVuSans-36" x="63.623047"/>
       <use xlink:href="#DejaVuSans-38" x="127.246094"/>
       <use xlink:href="#DejaVuSans-34" x="190.869141"/>
       <use xlink:href="#DejaVuSans-33" x="254.492188"/>
       <use xlink:href="#DejaVuSans-35" x="318.115234"/>
       <use xlink:href="#DejaVuSans-34" x="381.738281"/>
       <use xlink:href="#DejaVuSans-35" x="445.361328"/>
       <use xlink:href="#DejaVuSans-36" x="508.984375"/>
      </g>
     </g>
    </g>
    <g id="text_26">
     <!-- chunk_size -->
     <g style="fill: #ffffff" transform="translate(341.654688 450.412607) scale(0.1 -0.1)">
      <defs>
       <path id="DejaVuSans-63" d="M 3122 3366 
L 3122 2828 
Q 2878 2963 2633 3030 
Q 2388 3097 2138 3097 
Q 1578 3097 1268 2742 
Q 959 2388 959 1747 
Q 959 1106 1268 751 
Q 1578 397 2138 397 
Q 2388 397 2633 464 
Q 2878 531 3122 666 
L 3122 134 
Q 2881 22 2623 -34 
Q 2366 -91 2075 -91 
Q 1284 -91 818 406 
Q 353 903 353 1747 
Q 353 2603 823 3093 
Q 1294 3584 2113 3584 
Q 2378 3584 2631 3529 
Q 2884 3475 3122 3366 
z
" transform="scale(0.015625)"/>
       <path id="DejaVuSans-68" d="M 3513 2113 
L 3513 0 
L 2938 0 
L 2938 2094 
Q 2938 2591 2744 2837 
Q 2550 3084 2163 3084 
Q 1697 3084 1428 2787 
Q 1159 2491 1159 1978 
L 1159 0 
L 581 0 
L 581 4863 
L 1159 4863 
L 1159 2956 
Q 1366 3272 1645 3428 
Q 1925 3584 2291 3584 
Q 2894 3584 3203 3211 
Q 3513 2838 3513 2113 
z
" transform="scale(0.015625)"/>
       <path id="DejaVuSans-75" d="M 544 1381 
L 544 3500 
L 1119 3500 
L 1119 1403 
Q 1119 906 1312 657 
Q 1506 409 1894 409 
Q 2359 409 2629 706 
Q 2900 1003 2900 1516 
L 2900 3500 
L 3475 3500 
L 3475 0 
L 2900 0 
L 2900 538 
Q 2691 219 2414 64 
Q 2138 -91 1772 -91 
Q 1169 -91 856 284 
Q 544 659 544 1381 
z
M 1991 3584 
L 1991 3584 
z
" transform="scale(0.015625)"/>
       <path id="DejaVuSans-6e" d="M 3513 2113 
L 3513 0 
L 2938 0 
L 2938 2094 
Q 2938 2591 2744 2837 
Q 2550 3084 2163 3084 
Q 1697 3084 1428 2787 
Q 1159 2491 1159 1978 
L 1159 0 
L 581 0 
L 581 3500 
L 1159 3500 
L 1159 2956 
Q 1366 3272 1645 3428 
Q 1925 3584 2291 3584 
Q 2894 3584 3203 3211 
Q 3513 2838 3513 2113 
z
" transform="scale(0.015625)"/>
       <path id="DejaVuSans-6b" d="M 581 4863 
L 1159 4863 
L 1159 1991 
L 2875 3500 
L 3609 3500 
L 1753 1863 
L 3688 0 
L 2938 0 
L 1159 1709 
L 1159 0 
L 581 0 
L 581 4863 
z
" transform="scale(0.015625)"/>
       <path id="DejaVuSans-5f" d="M 3263 -1063 
L 3263 -1509 
L -63 -1509 
L -63 -1063 
L 3263 -1063 
z
" transform="scale(0.015625)"/>
       <path id="DejaVuSans-73" d="M 2834 3397 
L 2834 2853 
Q 2591 2978 2328 3040 
Q 2066 3103 1784 3103 
Q 1356 3103 1142 2972 
Q 928 2841 928 2578 
Q 928 2378 1081 2264 
Q 1234 2150 1697 2047 
L 1894 2003 
Q 2506 1872 2764 1633 
Q 3022 1394 3022 966 
Q 3022 478 2636 193 
Q 2250 -91 1575 -91 
Q 1294 -91 989 -36 
Q 684 19 347 128 
L 347 722 
Q 666 556 975 473 
Q 1284 391 1588 391 
Q 1994 391 2212 530 
Q 2431 669 2431 922 
Q 2431 1156 2273 1281 
Q 2116 1406 1581 1522 
L 1381 1569 
Q 847 1681 609 1914 
Q 372 2147 372 2553 
Q 372 3047 722 3315 
Q 1072 3584 1716 3584 
Q 2034 3584 2315 3537 
Q 2597 3491 2834 3397 
z
" transform="scale(0.015625)"/>
       <path id="DejaVuSans-69" d="M 603 3500 
L 1178 3500 
L 1178 0 
L 603 0 
L 603 3500 
z
M 603 4863 
L 1178 4863 
L 1178 4134 
L 603 4134 
L 603 4863 
z
" transform="scale(0.015625)"/>
       <path id="DejaVuSans-7a" d="M 353 3500 
L 3084 3500 
L 3084 2975 
L 922 459 
L 3084 459 
L 3084 0 
L 275 0 
L 275 525 
L 2438 3041 
L 353 3041 
L 353 3500 
z
" transform="scale(0.015625)"/>
       <path id="DejaVuSans-65" d="M 3597 1894 
L 3597 1613 
L 953 1613 
Q 991 1019 1311 708 
Q 1631 397 2203 397 
Q 2534 397 2845 478 
Q 3156 559 3463 722 
L 3463 178 
Q 3153 47 2828 -22 
Q 2503 -91 2169 -91 
Q 1331 -91 842 396 
Q 353 884 353 1716 
Q 353 2575 817 3079 
Q 1281 3584 2069 3584 
Q 2775 3584 3186 3129 
Q 3597 2675 3597 1894 
z
M 3022 2063 
Q 3016 2534 2758 2815 
Q 2500 3097 2075 3097 
Q 1594 3097 1305 2825 
Q 1016 2553 972 2059 
L 3022 2063 
z
" transform="scale(0.015625)"/>
      </defs>
      <use xlink:href="#DejaVuSans-63"/>
      <use xlink:href="#DejaVuSans-68" x="54.980469"/>
      <use xlink:href="#DejaVuSans-75" x="118.359375"/>
      <use xlink:href="#DejaVuSans-6e" x="181.738281"/>
      <use xlink:href="#DejaVuSans-6b" x="245.117188"/>
      <use xlink:href="#DejaVuSans-5f" x="303.027344"/>
      <use xlink:href="#DejaVuSans-73" x="353.027344"/>
      <use xlink:href="#DejaVuSans-69" x="405.126953"/>
      <use xlink:href="#DejaVuSans-7a" x="432.910156"/>
      <use xlink:href="#DejaVuSans-65" x="485.400391"/>
     </g>
    </g>
   </g>
   <g id="matplotlib.axis_2">
    <g id="ytick_1">
     <g id="line2d_51">
      <path d="M 90 337.987631 
L 648 337.987631 
" clip-path="url(#p21b0e7fb48)" style="fill: none; stroke: #ffffff; stroke-width: 0.8; stroke-linecap: square"/>
     </g>
     <g id="line2d_52">
      <defs>
       <path id="m0929fb6c4e" d="M 0 0 
L -3.5 0 
" style="stroke: #ffffff; stroke-width: 0.8"/>
      </defs>
      <g>
       <use xlink:href="#m0929fb6c4e" x="90" y="337.987631" style="fill: #ffffff; stroke: #ffffff; stroke-width: 0.8"/>
      </g>
     </g>
     <g id="text_27">
      <!-- 200 -->
      <g style="fill: #ffffff" transform="translate(63.9125 341.78685) scale(0.1 -0.1)">
       <use xlink:href="#DejaVuSans-32"/>
       <use xlink:href="#DejaVuSans-30" x="63.623047"/>
       <use xlink:href="#DejaVuSans-30" x="127.246094"/>
      </g>
     </g>
    </g>
    <g id="ytick_2">
     <g id="line2d_53">
      <path d="M 90 266.486223 
L 648 266.486223 
" clip-path="url(#p21b0e7fb48)" style="fill: none; stroke: #ffffff; stroke-width: 0.8; stroke-linecap: square"/>
     </g>
     <g id="line2d_54">
      <g>
       <use xlink:href="#m0929fb6c4e" x="90" y="266.486223" style="fill: #ffffff; stroke: #ffffff; stroke-width: 0.8"/>
      </g>
     </g>
     <g id="text_28">
      <!-- 400 -->
      <g style="fill: #ffffff" transform="translate(63.9125 270.285442) scale(0.1 -0.1)">
       <use xlink:href="#DejaVuSans-34"/>
       <use xlink:href="#DejaVuSans-30" x="63.623047"/>
       <use xlink:href="#DejaVuSans-30" x="127.246094"/>
      </g>
     </g>
    </g>
    <g id="ytick_3">
     <g id="line2d_55">
      <path d="M 90 194.984814 
L 648 194.984814 
" clip-path="url(#p21b0e7fb48)" style="fill: none; stroke: #ffffff; stroke-width: 0.8; stroke-linecap: square"/>
     </g>
     <g id="line2d_56">
      <g>
       <use xlink:href="#m0929fb6c4e" x="90" y="194.984814" style="fill: #ffffff; stroke: #ffffff; stroke-width: 0.8"/>
      </g>
     </g>
     <g id="text_29">
      <!-- 600 -->
      <g style="fill: #ffffff" transform="translate(63.9125 198.784033) scale(0.1 -0.1)">
       <use xlink:href="#DejaVuSans-36"/>
       <use xlink:href="#DejaVuSans-30" x="63.623047"/>
       <use xlink:href="#DejaVuSans-30" x="127.246094"/>
      </g>
     </g>
    </g>
    <g id="ytick_4">
     <g id="line2d_57">
      <path d="M 90 123.483406 
L 648 123.483406 
" clip-path="url(#p21b0e7fb48)" style="fill: none; stroke: #ffffff; stroke-width: 0.8; stroke-linecap: square"/>
     </g>
     <g id="line2d_58">
      <g>
       <use xlink:href="#m0929fb6c4e" x="90" y="123.483406" style="fill: #ffffff; stroke: #ffffff; stroke-width: 0.8"/>
      </g>
     </g>
     <g id="text_30">
      <!-- 800 -->
      <g style="fill: #ffffff" transform="translate(63.9125 127.282625) scale(0.1 -0.1)">
       <use xlink:href="#DejaVuSans-38"/>
       <use xlink:href="#DejaVuSans-30" x="63.623047"/>
       <use xlink:href="#DejaVuSans-30" x="127.246094"/>
      </g>
     </g>
    </g>
    <g id="ytick_5">
     <g id="line2d_59">
      <path d="M 90 51.981998 
L 648 51.981998 
" clip-path="url(#p21b0e7fb48)" style="fill: none; stroke: #ffffff; stroke-width: 0.8; stroke-linecap: square"/>
     </g>
     <g id="line2d_60">
      <g>
       <use xlink:href="#m0929fb6c4e" x="90" y="51.981998" style="fill: #ffffff; stroke: #ffffff; stroke-width: 0.8"/>
      </g>
     </g>
     <g id="text_31">
      <!-- 1000 -->
      <g style="fill: #ffffff" transform="translate(57.55 55.781216) scale(0.1 -0.1)">
       <use xlink:href="#DejaVuSans-31"/>
       <use xlink:href="#DejaVuSans-30" x="63.623047"/>
       <use xlink:href="#DejaVuSans-30" x="127.246094"/>
       <use xlink:href="#DejaVuSans-30" x="190.869141"/>
      </g>
     </g>
    </g>
    <g id="text_32">
     <!-- time (ms) -->
     <g style="fill: #ffffff" transform="translate(51.470312 242.421719) rotate(-90) scale(0.1 -0.1)">
      <defs>
       <path id="DejaVuSans-74" d="M 1172 4494 
L 1172 3500 
L 2356 3500 
L 2356 3053 
L 1172 3053 
L 1172 1153 
Q 1172 725 1289 603 
Q 1406 481 1766 481 
L 2356 481 
L 2356 0 
L 1766 0 
Q 1100 0 847 248 
Q 594 497 594 1153 
L 594 3053 
L 172 3053 
L 172 3500 
L 594 3500 
L 594 4494 
L 1172 4494 
z
" transform="scale(0.015625)"/>
       <path id="DejaVuSans-6d" d="M 3328 2828 
Q 3544 3216 3844 3400 
Q 4144 3584 4550 3584 
Q 5097 3584 5394 3201 
Q 5691 2819 5691 2113 
L 5691 0 
L 5113 0 
L 5113 2094 
Q 5113 2597 4934 2840 
Q 4756 3084 4391 3084 
Q 3944 3084 3684 2787 
Q 3425 2491 3425 1978 
L 3425 0 
L 2847 0 
L 2847 2094 
Q 2847 2600 2669 2842 
Q 2491 3084 2119 3084 
Q 1678 3084 1418 2786 
Q 1159 2488 1159 1978 
L 1159 0 
L 581 0 
L 581 3500 
L 1159 3500 
L 1159 2956 
Q 1356 3278 1631 3431 
Q 1906 3584 2284 3584 
Q 2666 3584 2933 3390 
Q 3200 3197 3328 2828 
z
" transform="scale(0.015625)"/>
       <path id="DejaVuSans-20" transform="scale(0.015625)"/>
       <path id="DejaVuSans-28" d="M 1984 4856 
Q 1566 4138 1362 3434 
Q 1159 2731 1159 2009 
Q 1159 1288 1364 580 
Q 1569 -128 1984 -844 
L 1484 -844 
Q 1016 -109 783 600 
Q 550 1309 550 2009 
Q 550 2706 781 3412 
Q 1013 4119 1484 4856 
L 1984 4856 
z
" transform="scale(0.015625)"/>
       <path id="DejaVuSans-29" d="M 513 4856 
L 1013 4856 
Q 1481 4119 1714 3412 
Q 1947 2706 1947 2009 
Q 1947 1309 1714 600 
Q 1481 -109 1013 -844 
L 513 -844 
Q 928 -128 1133 580 
Q 1338 1288 1338 2009 
Q 1338 2731 1133 3434 
Q 928 4138 513 4856 
z
" transform="scale(0.015625)"/>
      </defs>
      <use xlink:href="#DejaVuSans-74"/>
      <use xlink:href="#DejaVuSans-69" x="39.208984"/>
      <use xlink:href="#DejaVuSans-6d" x="66.992188"/>
      <use xlink:href="#DejaVuSans-65" x="164.404297"/>
      <use xlink:href="#DejaVuSans-20" x="225.927734"/>
      <use xlink:href="#DejaVuSans-28" x="257.714844"/>
      <use xlink:href="#DejaVuSans-6d" x="296.728516"/>
      <use xlink:href="#DejaVuSans-73" x="394.140625"/>
      <use xlink:href="#DejaVuSans-29" x="446.240234"/>
     </g>
    </g>
   </g>
   <g id="line2d_61">
    <path d="M 115.363636 270.380195 
L 117.904234 271.752085 
L 120.444832 272.889016 
L 122.98543 273.814891 
L 126.372894 274.762398 
L 129.760358 275.43385 
L 133.147822 275.885907 
L 137.382152 276.228775 
L 145.003946 276.558411 
L 150.932008 276.906262 
L 155.166338 277.389644 
L 158.553802 278.001935 
L 161.941266 278.840525 
L 166.175596 280.139922 
L 172.103658 282.251455 
L 182.266049 285.953288 
L 187.347245 287.576742 
L 192.428441 288.975084 
L 196.662771 289.937284 
L 200.897101 290.688449 
L 205.978297 291.32502 
L 213.600091 291.993823 
L 221.221885 292.714331 
L 227.149947 293.538522 
L 234.771741 294.863316 
L 253.402793 298.424833 
L 257.637122 299.460602 
L 261.871452 300.725539 
L 265.258916 301.94661 
L 271.186978 304.387245 
L 277.11504 306.766556 
L 280.502504 307.895764 
L 283.043102 308.557399 
L 285.5837 309.015534 
L 288.124298 309.272775 
L 291.511762 309.393556 
L 302.52102 309.525113 
L 305.061618 309.823034 
L 307.602216 310.328231 
L 310.98968 311.286414 
L 315.22401 312.778783 
L 323.69267 315.885027 
L 327.080134 316.851622 
L 330.467598 317.531262 
L 333.855061 317.983488 
L 338.936257 318.417936 
L 345.711185 318.979962 
L 349.098649 319.440286 
L 353.332979 320.264248 
L 358.414175 321.515401 
L 377.045227 326.392535 
L 392.288815 329.995547 
L 401.604341 332.536571 
L 413.460464 335.760266 
L 420.235392 337.382187 
L 426.163454 338.594547 
L 432.091516 339.567362 
L 438.019578 340.295323 
L 448.18197 341.517204 
L 452.4163 342.246831 
L 456.65063 343.216878 
L 462.578692 344.8641 
L 470.200486 346.996427 
L 474.434816 347.953405 
L 478.669146 348.634983 
L 493.065867 350.628197 
L 496.453331 351.488855 
L 499.840795 352.621473 
L 504.075125 354.304264 
L 515.084383 358.862372 
L 518.471847 359.969689 
L 521.859311 360.844665 
L 526.093641 361.677025 
L 531.174837 362.412252 
L 544.724693 363.992311 
L 549.805889 364.423108 
L 554.040219 364.5331 
L 557.427683 364.384079 
L 560.815146 363.973654 
L 566.743208 363.104012 
L 569.283806 363.010108 
L 570.977538 363.138735 
L 572.67127 363.466218 
L 574.365002 364.031876 
L 576.058734 364.875029 
L 577.752466 366.034994 
L 579.446198 367.551091 
L 581.13993 369.459151 
L 583.680528 372.885329 
L 587.067992 377.587784 
L 588.761724 379.595873 
L 590.455456 381.137776 
L 591.302322 381.67826 
L 592.149188 382.03542 
L 592.996054 382.186999 
L 593.84292 382.110736 
L 594.689786 381.784374 
L 595.536652 381.185652 
L 596.383518 380.292313 
L 597.230384 379.082098 
L 598.07725 377.532747 
L 598.924116 375.622002 
L 599.770982 373.327603 
L 600.617848 370.627293 
L 601.464714 367.498811 
L 603.158446 359.868301 
L 604.852178 350.257999 
L 606.54591 338.489837 
L 608.239642 324.385743 
L 609.933374 307.767645 
L 611.627106 288.457474 
L 613.320838 266.277157 
L 615.01457 241.048625 
L 616.708302 212.593805 
L 618.402034 180.734628 
L 620.095766 145.293021 
L 621.789498 106.090915 
L 622.636364 85.024027 
L 622.636364 85.024027 
" clip-path="url(#p21b0e7fb48)" style="fill: none; stroke: #8dd3c7; stroke-width: 1.5; stroke-linecap: square"/>
   </g>
   <g id="line2d_62">
    <path d="M 115.363636 270.956894 
L 117.057368 272.627148 
L 118.7511 274.067021 
L 120.444832 275.290908 
L 122.138564 276.313206 
L 123.832296 277.148313 
L 125.526028 277.810625 
L 128.066626 278.511596 
L 130.607224 278.904762 
L 133.147822 279.038712 
L 135.68842 278.962036 
L 139.075884 278.616142 
L 144.15708 277.809125 
L 150.085142 276.894537 
L 153.472606 276.60929 
L 156.013204 276.596828 
L 158.553802 276.81025 
L 161.0944 277.257957 
L 164.481864 278.135083 
L 168.716194 279.506074 
L 175.491122 281.758966 
L 178.878586 282.647266 
L 182.266049 283.249782 
L 185.653513 283.625291 
L 191.581575 284.011692 
L 196.662771 284.384911 
L 200.050235 284.817462 
L 203.437699 285.477014 
L 207.672029 286.572454 
L 212.753225 288.153087 
L 227.149947 292.81683 
L 235.618607 295.202376 
L 260.17772 301.76024 
L 269.493246 303.996304 
L 291.511762 309.143694 
L 303.367886 311.978571 
L 310.142814 313.380215 
L 321.152072 315.381339 
L 332.161329 317.450148 
L 348.251783 320.552119 
L 364.342237 323.406689 
L 369.423433 324.629556 
L 374.504629 326.124388 
L 388.054485 330.297075 
L 392.288815 331.282093 
L 396.523145 332.034361 
L 402.451207 332.840792 
L 414.30733 334.387324 
L 421.929124 335.705271 
L 448.18197 340.662361 
L 452.4163 341.769443 
L 456.65063 343.110977 
L 462.578692 345.260078 
L 470.200486 348.017959 
L 474.434816 349.318553 
L 478.669146 350.338388 
L 483.750341 351.296178 
L 493.912733 353.120824 
L 498.147063 354.144831 
L 504.921991 356.106011 
L 510.850053 357.747153 
L 514.237517 358.491454 
L 517.624981 359.00219 
L 521.012445 359.256697 
L 526.093641 359.366506 
L 532.021703 359.520532 
L 535.409167 359.833038 
L 537.949765 360.257874 
L 540.490363 360.879535 
L 544.724693 362.19463 
L 549.805889 363.786954 
L 552.346487 364.406419 
L 554.887085 364.803794 
L 556.580817 364.906701 
L 558.274548 364.852961 
L 559.96828 364.62053 
L 562.508878 363.9794 
L 569.283806 361.911212 
L 570.977538 361.625989 
L 572.67127 361.549177 
L 574.365002 361.738617 
L 576.058734 362.252149 
L 577.752466 363.147615 
L 579.446198 364.482854 
L 581.13993 366.311672 
L 582.833662 368.574004 
L 588.761724 377.16232 
L 590.455456 379.008675 
L 591.302322 379.709562 
L 592.149188 380.229975 
L 592.996054 380.545705 
L 593.84292 380.632543 
L 594.689786 380.466277 
L 595.536652 380.022699 
L 596.383518 379.277599 
L 597.230384 378.206766 
L 598.07725 376.785992 
L 598.924116 374.991066 
L 599.770982 372.797779 
L 600.617848 370.18192 
L 601.464714 367.119281 
L 602.31158 363.585651 
L 604.005312 355.008579 
L 605.699044 344.257027 
L 607.392776 331.137316 
L 609.086508 315.455768 
L 610.78024 297.018705 
L 612.473972 275.632449 
L 614.167704 251.103321 
L 615.861436 223.237643 
L 617.555168 191.841738 
L 619.2489 156.721926 
L 620.942632 117.684529 
L 622.636364 74.53587 
L 622.636364 74.53587 
" clip-path="url(#p21b0e7fb48)" style="fill: none; stroke: #feffb3; stroke-width: 1.5; stroke-linecap: square"/>
   </g>
   <g id="line2d_63">
    <path d="M 115.363636 272.258867 
L 117.904234 271.891613 
L 120.444832 271.734831 
L 122.98543 271.766248 
L 126.372894 272.062389 
L 129.760358 272.600705 
L 133.994688 273.53372 
L 139.075884 274.898725 
L 150.085142 277.959471 
L 154.319472 278.877298 
L 157.706936 279.398907 
L 161.0944 279.70322 
L 173.79739 280.565674 
L 176.337988 281.026794 
L 178.878586 281.692761 
L 181.419183 282.588851 
L 184.806647 284.052542 
L 195.815905 289.118938 
L 198.356503 289.961529 
L 200.897101 290.542651 
L 203.437699 290.850378 
L 205.978297 290.943998 
L 209.365761 290.846841 
L 217.834421 290.438107 
L 220.375019 290.532284 
L 222.915617 290.834208 
L 225.456215 291.3418 
L 228.843679 292.279606 
L 233.078009 293.756832 
L 239.852937 296.450252 
L 245.780999 298.715904 
L 253.402793 301.337002 
L 266.105782 305.66921 
L 272.88071 307.985458 
L 276.268174 308.949257 
L 279.655638 309.683152 
L 282.196236 310.037421 
L 284.736834 310.188298 
L 287.277432 310.123193 
L 290.664896 309.77553 
L 295.746092 308.946955 
L 301.674154 308.014135 
L 305.061618 307.739024 
L 307.602216 307.745605 
L 310.142814 307.94797 
L 312.683412 308.336442 
L 315.22401 308.901255 
L 318.611474 309.911761 
L 321.998938 311.195239 
L 325.386402 312.728533 
L 329.620732 314.949238 
L 338.089391 319.584901 
L 341.476855 321.129824 
L 344.017453 322.044088 
L 346.558051 322.684092 
L 348.251783 322.929707 
L 350.792381 323.021984 
L 353.332979 322.860535 
L 357.567309 322.283859 
L 361.801639 321.70123 
L 364.342237 321.530495 
L 366.882835 321.609201 
L 368.576567 321.846839 
L 370.270299 322.261139 
L 372.810897 323.182572 
L 375.351495 324.373851 
L 379.585825 326.682735 
L 383.820155 328.987816 
L 386.360753 330.17316 
L 388.901351 331.08592 
L 390.595083 331.492955 
L 392.288815 331.722757 
L 394.829413 331.787824 
L 397.370011 331.599108 
L 401.604341 330.970499 
L 406.685537 330.222682 
L 409.226134 330.066108 
L 411.766732 330.176897 
L 414.30733 330.60231 
L 416.847928 331.288657 
L 420.235392 332.492855 
L 432.091516 337.101116 
L 434.632114 337.735083 
L 438.019578 338.321721 
L 443.100774 338.912724 
L 448.18197 339.548982 
L 451.569434 340.216074 
L 454.110032 340.936618 
L 456.65063 341.873926 
L 460.038094 343.377542 
L 466.813022 346.756955 
L 471.047352 348.738759 
L 474.434816 350.04027 
L 476.975414 350.775855 
L 480.362878 351.470804 
L 484.597207 352.02678 
L 495.606465 353.244657 
L 498.993929 353.93902 
L 503.228259 355.085737 
L 508.309455 356.752914 
L 526.940507 363.241497 
L 531.174837 364.378603 
L 535.409167 365.270682 
L 538.796631 365.771506 
L 542.184095 366.066096 
L 545.571559 366.168051 
L 549.805889 366.051002 
L 554.040219 365.693884 
L 558.274548 365.130545 
L 565.896342 364.002511 
L 568.43694 363.923458 
L 570.130672 364.044797 
L 571.824404 364.342024 
L 573.518136 364.846554 
L 575.211868 365.589804 
L 576.9056 366.603193 
L 578.599332 367.918137 
L 580.293064 369.566054 
L 581.986796 371.54882 
L 587.914858 378.970406 
L 589.60859 380.527481 
L 590.455456 381.1059 
L 591.302322 381.522581 
L 592.149188 381.75628 
L 592.996054 381.785751 
L 593.84292 381.589751 
L 594.689786 381.147035 
L 595.536652 380.436358 
L 596.383518 379.436477 
L 597.230384 378.126146 
L 598.07725 376.484122 
L 598.924116 374.489159 
L 599.770982 372.120014 
L 600.617848 369.355442 
L 601.464714 366.174199 
L 603.158446 358.47672 
L 604.852178 348.857623 
L 606.54591 337.146951 
L 608.239642 323.174749 
L 609.933374 306.771062 
L 611.627106 287.765934 
L 613.320838 265.989409 
L 615.01457 241.271534 
L 616.708302 213.44235 
L 618.402034 182.331905 
L 620.095766 147.770241 
L 621.789498 109.587403 
L 622.636364 89.084933 
L 622.636364 89.084933 
" clip-path="url(#p21b0e7fb48)" style="fill: none; stroke: #bfbbd9; stroke-width: 1.5; stroke-linecap: square"/>
   </g>
   <g id="line2d_64">
    <path d="M 115.363636 275.411735 
L 117.904234 274.281007 
L 120.444832 273.45673 
L 122.98543 272.911364 
L 125.526028 272.617371 
L 128.066626 272.54721 
L 130.607224 272.673343 
L 133.994688 273.099266 
L 137.382152 273.759918 
L 141.616482 274.816371 
L 156.013204 278.672137 
L 159.400668 279.270553 
L 163.634998 279.770869 
L 178.03172 281.169029 
L 181.419183 281.820279 
L 185.653513 282.875791 
L 191.581575 284.617538 
L 200.050235 287.119219 
L 205.131431 288.365358 
L 211.059493 289.584182 
L 221.221885 291.385581 
L 229.690545 292.954786 
L 234.771741 294.086091 
L 239.852937 295.457137 
L 244.087267 296.837815 
L 250.015329 299.064044 
L 258.483988 302.262374 
L 262.718318 303.60988 
L 266.105782 304.470586 
L 270.340112 305.31447 
L 277.961906 306.533401 
L 283.889968 307.577622 
L 288.124298 308.548147 
L 294.05236 310.168034 
L 305.908484 313.504035 
L 310.98968 314.660533 
L 316.917742 315.756172 
L 322.845804 316.628524 
L 330.467598 317.508896 
L 344.864319 319.0902 
L 350.792381 320.015918 
L 357.567309 321.329526 
L 374.504629 324.747212 
L 390.595083 327.772933 
L 397.370011 329.341827 
L 403.298073 330.946772 
L 409.226134 332.798781 
L 415.154196 334.915873 
L 430.397784 340.555665 
L 434.632114 341.831139 
L 439.71331 343.092329 
L 444.794506 344.118997 
L 451.569434 345.236513 
L 471.894218 348.366913 
L 476.975414 349.45495 
L 484.597207 351.361624 
L 492.219001 353.22462 
L 497.300197 354.230594 
L 502.381393 354.981614 
L 510.003187 355.845414 
L 518.471847 356.840274 
L 523.553043 357.641595 
L 528.634239 358.679197 
L 532.868569 359.767602 
L 537.102899 361.096408 
L 541.337229 362.673304 
L 547.265291 364.864543 
L 549.805889 365.603282 
L 552.346487 366.120466 
L 554.887085 366.345937 
L 556.580817 366.299544 
L 558.274548 366.071532 
L 559.96828 365.642319 
L 562.508878 364.675095 
L 569.283806 361.736913 
L 570.977538 361.275546 
L 572.67127 361.054436 
L 574.365002 361.139076 
L 576.058734 361.594959 
L 577.752466 362.487576 
L 579.446198 363.88242 
L 581.13993 365.840659 
L 582.833662 368.301403 
L 586.221126 373.935417 
L 588.761724 377.980723 
L 590.455456 380.209087 
L 591.302322 381.106177 
L 592.149188 381.824522 
L 592.996054 382.33861 
L 593.84292 382.622926 
L 594.689786 382.651958 
L 595.536652 382.400192 
L 596.383518 381.842116 
L 597.230384 380.952217 
L 598.07725 379.704981 
L 598.924116 378.074895 
L 599.770982 376.036447 
L 600.617848 373.564123 
L 601.464714 370.63241 
L 602.31158 367.215795 
L 603.158446 363.288765 
L 604.852178 353.801408 
L 606.54591 341.966234 
L 608.239642 327.579139 
L 609.933374 310.436018 
L 611.627106 290.332766 
L 613.320838 267.065279 
L 615.01457 240.429452 
L 616.708302 210.221181 
L 618.402034 176.236361 
L 620.095766 138.270887 
L 621.789498 96.120655 
L 622.636364 73.412472 
L 622.636364 73.412472 
" clip-path="url(#p21b0e7fb48)" style="fill: none; stroke: #fa8174; stroke-width: 1.5; stroke-linecap: square"/>
   </g>
   <g id="line2d_65">
    <path d="M 115.363636 267.833124 
L 117.904234 269.610015 
L 120.444832 271.076625 
L 122.98543 272.262524 
L 125.526028 273.197281 
L 128.066626 273.910467 
L 130.607224 274.43165 
L 133.994688 274.878999 
L 137.382152 275.10767 
L 142.463348 275.193979 
L 151.778874 275.268957 
L 155.166338 275.499495 
L 158.553802 275.949017 
L 161.941266 276.646861 
L 166.175596 277.799383 
L 171.256792 279.457776 
L 185.653513 284.347702 
L 191.581575 286.027337 
L 196.662771 287.236362 
L 201.743967 288.198481 
L 208.518895 289.195397 
L 216.140689 290.363203 
L 220.375019 291.231277 
L 224.609349 292.356309 
L 230.537411 294.222395 
L 238.159205 296.621499 
L 242.393535 297.711489 
L 246.627865 298.524666 
L 260.17772 300.790992 
L 263.565184 301.687608 
L 266.952648 302.834223 
L 272.88071 305.163459 
L 277.961906 307.096228 
L 281.34937 308.151774 
L 283.889968 308.740713 
L 286.430566 309.110521 
L 288.971164 309.281846 
L 292.358628 309.287295 
L 305.061618 308.964843 
L 308.449082 309.30587 
L 311.836546 309.902917 
L 316.070876 310.904444 
L 332.161329 315.071475 
L 339.783123 316.537337 
L 350.792381 318.644199 
L 356.720443 320.013209 
L 362.648505 321.625847 
L 367.729701 323.239749 
L 372.810897 325.08458 
L 383.820155 329.188678 
L 388.054485 330.47999 
L 391.441949 331.279601 
L 394.829413 331.861035 
L 399.910609 332.462869 
L 410.073 333.529987 
L 414.30733 334.252217 
L 419.388526 335.394255 
L 427.01032 337.394241 
L 434.632114 339.340257 
L 441.407042 340.813252 
L 450.722568 342.571926 
L 477.82228 347.528289 
L 484.597207 348.983104 
L 489.678403 350.276948 
L 493.912733 351.546548 
L 498.147063 353.029718 
L 511.696919 358.070154 
L 515.084383 359.002225 
L 517.624981 359.518726 
L 521.012445 359.954039 
L 525.246775 360.229912 
L 533.715435 360.678766 
L 537.102899 361.115325 
L 539.643497 361.633953 
L 543.030961 362.543226 
L 550.652755 364.719241 
L 553.193353 365.242786 
L 555.733951 365.552071 
L 558.274548 365.579079 
L 559.96828 365.407674 
L 562.508878 364.898877 
L 569.283806 363.273245 
L 570.977538 363.08447 
L 572.67127 363.085665 
L 574.365002 363.328289 
L 576.058734 363.8638 
L 577.752466 364.743657 
L 579.446198 366.019318 
L 581.13993 367.738507 
L 582.833662 369.843597 
L 588.761724 377.682182 
L 590.455456 379.308643 
L 591.302322 379.906406 
L 592.149188 380.330315 
L 592.996054 380.557716 
L 593.84292 380.565952 
L 594.689786 380.332368 
L 595.536652 379.834308 
L 596.383518 379.049117 
L 597.230384 377.954137 
L 598.07725 376.526714 
L 598.924116 374.744193 
L 599.770982 372.583916 
L 600.617848 370.023229 
L 601.464714 367.039475 
L 602.31158 363.609999 
L 604.005312 355.323258 
L 605.699044 344.981758 
L 607.392776 332.404255 
L 609.086508 317.409502 
L 610.78024 299.816253 
L 612.473972 279.443261 
L 614.167704 256.109281 
L 615.861436 229.633066 
L 617.555168 199.833371 
L 619.2489 166.528949 
L 620.942632 129.538554 
L 622.636364 88.68094 
L 622.636364 88.68094 
" clip-path="url(#p21b0e7fb48)" style="fill: none; stroke: #81b1d2; stroke-width: 1.5; stroke-linecap: square"/>
   </g>
   <g id="line2d_66">
    <path d="M 115.363636 268.553053 
L 117.904234 270.712748 
L 120.444832 272.488546 
L 122.98543 273.917165 
L 125.526028 275.035319 
L 128.066626 275.879723 
L 130.607224 276.487094 
L 133.147822 276.894146 
L 136.535286 277.188736 
L 140.769616 277.28055 
L 152.62574 277.290239 
L 156.013204 277.601359 
L 158.553802 278.02393 
L 161.941266 278.844488 
L 166.175596 280.136575 
L 174.644256 282.792801 
L 178.03172 283.577584 
L 180.572317 283.965571 
L 183.959781 284.243728 
L 189.887843 284.408005 
L 194.969039 284.636239 
L 198.356503 285.045591 
L 200.897101 285.571955 
L 203.437699 286.302581 
L 206.825163 287.522533 
L 211.906359 289.662946 
L 218.681287 292.537628 
L 222.068751 293.745134 
L 225.456215 294.713733 
L 229.690545 295.654605 
L 234.771741 296.520994 
L 248.321597 298.667511 
L 254.249659 299.924151 
L 259.330854 301.229432 
L 264.41205 302.78058 
L 271.186978 305.150822 
L 277.961906 307.475143 
L 282.196236 308.701464 
L 285.5837 309.466773 
L 288.971164 310.019678 
L 293.205494 310.484109 
L 299.980422 310.943806 
L 307.602216 311.4998 
L 313.530278 312.197065 
L 320.305206 313.237974 
L 328.773866 314.782043 
L 336.395659 316.363816 
L 342.323721 317.802027 
L 347.404917 319.23725 
L 353.332979 321.167457 
L 364.342237 324.810402 
L 368.576567 325.960002 
L 372.810897 326.847708 
L 377.045227 327.490142 
L 382.126423 328.003576 
L 388.054485 328.35041 
L 401.604341 328.985432 
L 405.838671 329.509516 
L 409.226134 330.166392 
L 412.613598 331.091402 
L 416.001062 332.283181 
L 420.235392 334.037744 
L 433.785248 339.949894 
L 438.019578 341.406436 
L 442.253908 342.604954 
L 446.488238 343.559979 
L 450.722568 344.286039 
L 454.956898 344.798487 
L 468.506754 346.144861 
L 471.894218 346.801409 
L 474.434816 347.473164 
L 477.82228 348.640806 
L 482.05661 350.389795 
L 488.831537 353.236703 
L 492.219001 354.396203 
L 494.759599 355.039807 
L 497.300197 355.430537 
L 499.840795 355.57992 
L 503.228259 355.513307 
L 514.237517 354.965656 
L 516.778115 355.151067 
L 519.318713 355.576188 
L 521.859311 356.223297 
L 525.246775 357.364335 
L 529.481105 359.108383 
L 543.030961 365.052924 
L 546.418425 366.159389 
L 548.959023 366.782059 
L 551.499621 367.187589 
L 554.040219 367.340377 
L 556.580817 367.204822 
L 558.274548 366.93668 
L 560.815146 366.250384 
L 564.20261 364.9873 
L 567.590074 363.723921 
L 570.130672 363.038953 
L 571.824404 362.809712 
L 573.518136 362.826092 
L 575.211868 363.142694 
L 576.9056 363.814116 
L 578.599332 364.894957 
L 580.293064 366.439817 
L 581.986796 368.467084 
L 584.527394 372.079135 
L 587.914858 376.952067 
L 589.60859 378.980351 
L 590.455456 379.80834 
L 591.302322 380.480186 
L 592.149188 380.971858 
L 592.996054 381.259326 
L 593.84292 381.318559 
L 594.689786 381.125525 
L 595.536652 380.656196 
L 596.383518 379.886539 
L 597.230384 378.792524 
L 598.07725 377.35012 
L 598.924116 375.535297 
L 599.770982 373.324023 
L 600.617848 370.692269 
L 601.464714 367.616003 
L 602.31158 364.071195 
L 604.005312 355.479829 
L 605.699044 344.725926 
L 607.392776 331.617238 
L 609.086508 315.961522 
L 610.78024 297.566531 
L 612.473972 276.240019 
L 614.167704 251.78974 
L 615.861436 224.02345 
L 617.555168 192.748901 
L 619.2489 157.773849 
L 620.942632 118.906048 
L 622.636364 75.953252 
L 622.636364 75.953252 
" clip-path="url(#p21b0e7fb48)" style="fill: none; stroke: #fdb462; stroke-width: 1.5; stroke-linecap: square"/>
   </g>
   <g id="patch_3">
    <path d="M 90 384.48 
L 90 51.84 
" style="fill: none; stroke: #ffffff; stroke-width: 0.8; stroke-linejoin: miter; stroke-linecap: square"/>
   </g>
   <g id="patch_4">
    <path d="M 648 384.48 
L 648 51.84 
" style="fill: none; stroke: #ffffff; stroke-width: 0.8; stroke-linejoin: miter; stroke-linecap: square"/>
   </g>
   <g id="patch_5">
    <path d="M 90 384.48 
L 648 384.48 
" style="fill: none; stroke: #ffffff; stroke-width: 0.8; stroke-linejoin: miter; stroke-linecap: square"/>
   </g>
   <g id="patch_6">
    <path d="M 90 51.84 
L 648 51.84 
" style="fill: none; stroke: #ffffff; stroke-width: 0.8; stroke-linejoin: miter; stroke-linecap: square"/>
   </g>
   <g id="text_33">
    <!-- caio.python_aio_asyncio - write (Time vs Chunk Size) -->
    <g style="fill: #ffffff" transform="translate(209.969063 45.84) scale(0.12 -0.12)">
     <defs>
      <path id="DejaVuSans-61" d="M 2194 1759 
Q 1497 1759 1228 1600 
Q 959 1441 959 1056 
Q 959 750 1161 570 
Q 1363 391 1709 391 
Q 2188 391 2477 730 
Q 2766 1069 2766 1631 
L 2766 1759 
L 2194 1759 
z
M 3341 1997 
L 3341 0 
L 2766 0 
L 2766 531 
Q 2569 213 2275 61 
Q 1981 -91 1556 -91 
Q 1019 -91 701 211 
Q 384 513 384 1019 
Q 384 1609 779 1909 
Q 1175 2209 1959 2209 
L 2766 2209 
L 2766 2266 
Q 2766 2663 2505 2880 
Q 2244 3097 1772 3097 
Q 1472 3097 1187 3025 
Q 903 2953 641 2809 
L 641 3341 
Q 956 3463 1253 3523 
Q 1550 3584 1831 3584 
Q 2591 3584 2966 3190 
Q 3341 2797 3341 1997 
z
" transform="scale(0.015625)"/>
      <path id="DejaVuSans-6f" d="M 1959 3097 
Q 1497 3097 1228 2736 
Q 959 2375 959 1747 
Q 959 1119 1226 758 
Q 1494 397 1959 397 
Q 2419 397 2687 759 
Q 2956 1122 2956 1747 
Q 2956 2369 2687 2733 
Q 2419 3097 1959 3097 
z
M 1959 3584 
Q 2709 3584 3137 3096 
Q 3566 2609 3566 1747 
Q 3566 888 3137 398 
Q 2709 -91 1959 -91 
Q 1206 -91 779 398 
Q 353 888 353 1747 
Q 353 2609 779 3096 
Q 1206 3584 1959 3584 
z
" transform="scale(0.015625)"/>
      <path id="DejaVuSans-2e" d="M 684 794 
L 1344 794 
L 1344 0 
L 684 0 
L 684 794 
z
" transform="scale(0.015625)"/>
      <path id="DejaVuSans-70" d="M 1159 525 
L 1159 -1331 
L 581 -1331 
L 581 3500 
L 1159 3500 
L 1159 2969 
Q 1341 3281 1617 3432 
Q 1894 3584 2278 3584 
Q 2916 3584 3314 3078 
Q 3713 2572 3713 1747 
Q 3713 922 3314 415 
Q 2916 -91 2278 -91 
Q 1894 -91 1617 61 
Q 1341 213 1159 525 
z
M 3116 1747 
Q 3116 2381 2855 2742 
Q 2594 3103 2138 3103 
Q 1681 3103 1420 2742 
Q 1159 2381 1159 1747 
Q 1159 1113 1420 752 
Q 1681 391 2138 391 
Q 2594 391 2855 752 
Q 3116 1113 3116 1747 
z
" transform="scale(0.015625)"/>
      <path id="DejaVuSans-79" d="M 2059 -325 
Q 1816 -950 1584 -1140 
Q 1353 -1331 966 -1331 
L 506 -1331 
L 506 -850 
L 844 -850 
Q 1081 -850 1212 -737 
Q 1344 -625 1503 -206 
L 1606 56 
L 191 3500 
L 800 3500 
L 1894 763 
L 2988 3500 
L 3597 3500 
L 2059 -325 
z
" transform="scale(0.015625)"/>
      <path id="DejaVuSans-2d" d="M 313 2009 
L 1997 2009 
L 1997 1497 
L 313 1497 
L 313 2009 
z
" transform="scale(0.015625)"/>
      <path id="DejaVuSans-77" d="M 269 3500 
L 844 3500 
L 1563 769 
L 2278 3500 
L 2956 3500 
L 3675 769 
L 4391 3500 
L 4966 3500 
L 4050 0 
L 3372 0 
L 2619 2869 
L 1863 0 
L 1184 0 
L 269 3500 
z
" transform="scale(0.015625)"/>
      <path id="DejaVuSans-72" d="M 2631 2963 
Q 2534 3019 2420 3045 
Q 2306 3072 2169 3072 
Q 1681 3072 1420 2755 
Q 1159 2438 1159 1844 
L 1159 0 
L 581 0 
L 581 3500 
L 1159 3500 
L 1159 2956 
Q 1341 3275 1631 3429 
Q 1922 3584 2338 3584 
Q 2397 3584 2469 3576 
Q 2541 3569 2628 3553 
L 2631 2963 
z
" transform="scale(0.015625)"/>
      <path id="DejaVuSans-54" d="M -19 4666 
L 3928 4666 
L 3928 4134 
L 2272 4134 
L 2272 0 
L 1638 0 
L 1638 4134 
L -19 4134 
L -19 4666 
z
" transform="scale(0.015625)"/>
      <path id="DejaVuSans-76" d="M 191 3500 
L 800 3500 
L 1894 563 
L 2988 3500 
L 3597 3500 
L 2284 0 
L 1503 0 
L 191 3500 
z
" transform="scale(0.015625)"/>
      <path id="DejaVuSans-43" d="M 4122 4306 
L 4122 3641 
Q 3803 3938 3442 4084 
Q 3081 4231 2675 4231 
Q 1875 4231 1450 3742 
Q 1025 3253 1025 2328 
Q 1025 1406 1450 917 
Q 1875 428 2675 428 
Q 3081 428 3442 575 
Q 3803 722 4122 1019 
L 4122 359 
Q 3791 134 3420 21 
Q 3050 -91 2638 -91 
Q 1578 -91 968 557 
Q 359 1206 359 2328 
Q 359 3453 968 4101 
Q 1578 4750 2638 4750 
Q 3056 4750 3426 4639 
Q 3797 4528 4122 4306 
z
" transform="scale(0.015625)"/>
      <path id="DejaVuSans-53" d="M 3425 4513 
L 3425 3897 
Q 3066 4069 2747 4153 
Q 2428 4238 2131 4238 
Q 1616 4238 1336 4038 
Q 1056 3838 1056 3469 
Q 1056 3159 1242 3001 
Q 1428 2844 1947 2747 
L 2328 2669 
Q 3034 2534 3370 2195 
Q 3706 1856 3706 1288 
Q 3706 609 3251 259 
Q 2797 -91 1919 -91 
Q 1588 -91 1214 -16 
Q 841 59 441 206 
L 441 856 
Q 825 641 1194 531 
Q 1563 422 1919 422 
Q 2459 422 2753 634 
Q 3047 847 3047 1241 
Q 3047 1584 2836 1778 
Q 2625 1972 2144 2069 
L 1759 2144 
Q 1053 2284 737 2584 
Q 422 2884 422 3419 
Q 422 4038 858 4394 
Q 1294 4750 2059 4750 
Q 2388 4750 2728 4690 
Q 3069 4631 3425 4513 
z
" transform="scale(0.015625)"/>
     </defs>
     <use xlink:href="#DejaVuSans-63"/>
     <use xlink:href="#DejaVuSans-61" x="54.980469"/>
     <use xlink:href="#DejaVuSans-69" x="116.259766"/>
     <use xlink:href="#DejaVuSans-6f" x="144.042969"/>
     <use xlink:href="#DejaVuSans-2e" x="203.474609"/>
     <use xlink:href="#DejaVuSans-70" x="235.261719"/>
     <use xlink:href="#DejaVuSans-79" x="298.738281"/>
     <use xlink:href="#DejaVuSans-74" x="357.917969"/>
     <use xlink:href="#DejaVuSans-68" x="397.126953"/>
     <use xlink:href="#DejaVuSans-6f" x="460.505859"/>
     <use xlink:href="#DejaVuSans-6e" x="521.6875"/>
     <use xlink:href="#DejaVuSans-5f" x="585.066406"/>
     <use xlink:href="#DejaVuSans-61" x="635.066406"/>
     <use xlink:href="#DejaVuSans-69" x="696.345703"/>
     <use xlink:href="#DejaVuSans-6f" x="724.128906"/>
     <use xlink:href="#DejaVuSans-5f" x="785.310547"/>
     <use xlink:href="#DejaVuSans-61" x="835.310547"/>
     <use xlink:href="#DejaVuSans-73" x="896.589844"/>
     <use xlink:href="#DejaVuSans-79" x="948.689453"/>
     <use xlink:href="#DejaVuSans-6e" x="1007.869141"/>
     <use xlink:href="#DejaVuSans-63" x="1071.248047"/>
     <use xlink:href="#DejaVuSans-69" x="1126.228516"/>
     <use xlink:href="#DejaVuSans-6f" x="1154.011719"/>
     <use xlink:href="#DejaVuSans-20" x="1215.193359"/>
     <use xlink:href="#DejaVuSans-2d" x="1246.980469"/>
     <use xlink:href="#DejaVuSans-20" x="1283.064453"/>
     <use xlink:href="#DejaVuSans-77" x="1314.851562"/>
     <use xlink:href="#DejaVuSans-72" x="1396.638672"/>
     <use xlink:href="#DejaVuSans-69" x="1437.751953"/>
     <use xlink:href="#DejaVuSans-74" x="1465.535156"/>
     <use xlink:href="#DejaVuSans-65" x="1504.744141"/>
     <use xlink:href="#DejaVuSans-20" x="1566.267578"/>
     <use xlink:href="#DejaVuSans-28" x="1598.054688"/>
     <use xlink:href="#DejaVuSans-54" x="1637.068359"/>
     <use xlink:href="#DejaVuSans-69" x="1695.027344"/>
     <use xlink:href="#DejaVuSans-6d" x="1722.810547"/>
     <use xlink:href="#DejaVuSans-65" x="1820.222656"/>
     <use xlink:href="#DejaVuSans-20" x="1881.746094"/>
     <use xlink:href="#DejaVuSans-76" x="1913.533203"/>
     <use xlink:href="#DejaVuSans-73" x="1972.712891"/>
     <use xlink:href="#DejaVuSans-20" x="2024.8125"/>
     <use xlink:href="#DejaVuSans-43" x="2056.599609"/>
     <use xlink:href="#DejaVuSans-68" x="2126.423828"/>
     <use xlink:href="#DejaVuSans-75" x="2189.802734"/>
     <use xlink:href="#DejaVuSans-6e" x="2253.181641"/>
     <use xlink:href="#DejaVuSans-6b" x="2316.560547"/>
     <use xlink:href="#DejaVuSans-20" x="2374.470703"/>
     <use xlink:href="#DejaVuSans-53" x="2406.257812"/>
     <use xlink:href="#DejaVuSans-69" x="2469.734375"/>
     <use xlink:href="#DejaVuSans-7a" x="2497.517578"/>
     <use xlink:href="#DejaVuSans-65" x="2550.007812"/>
     <use xlink:href="#DejaVuSans-29" x="2611.53125"/>
    </g>
   </g>
   <g id="legend_1">
    <g id="patch_7">
     <path d="M 97 149.5775 
L 194.56875 149.5775 
Q 196.56875 149.5775 196.56875 147.5775 
L 196.56875 58.84 
Q 196.56875 56.84 194.56875 56.84 
L 97 56.84 
Q 95 56.84 95 58.84 
L 95 147.5775 
Q 95 149.5775 97 149.5775 
z
" style="opacity: 0.8; stroke: #cccccc; stroke-linejoin: miter"/>
    </g>
    <g id="line2d_67">
     <path d="M 99 64.938437 
L 109 64.938437 
L 119 64.938437 
" style="fill: none; stroke: #8dd3c7; stroke-width: 1.5; stroke-linecap: square"/>
    </g>
    <g id="text_34">
     <!-- max_ops=1 -->
     <g style="fill: #ffffff" transform="translate(127 68.438437) scale(0.1 -0.1)">
      <defs>
       <path id="DejaVuSans-78" d="M 3513 3500 
L 2247 1797 
L 3578 0 
L 2900 0 
L 1881 1375 
L 863 0 
L 184 0 
L 1544 1831 
L 300 3500 
L 978 3500 
L 1906 2253 
L 2834 3500 
L 3513 3500 
z
" transform="scale(0.015625)"/>
       <path id="DejaVuSans-3d" d="M 678 2906 
L 4684 2906 
L 4684 2381 
L 678 2381 
L 678 2906 
z
M 678 1631 
L 4684 1631 
L 4684 1100 
L 678 1100 
L 678 1631 
z
" transform="scale(0.015625)"/>
      </defs>
      <use xlink:href="#DejaVuSans-6d"/>
      <use xlink:href="#DejaVuSans-61" x="97.412109"/>
      <use xlink:href="#DejaVuSans-78" x="158.691406"/>
      <use xlink:href="#DejaVuSans-5f" x="217.871094"/>
      <use xlink:href="#DejaVuSans-6f" x="267.871094"/>
      <use xlink:href="#DejaVuSans-70" x="329.052734"/>
      <use xlink:href="#DejaVuSans-73" x="392.529297"/>
      <use xlink:href="#DejaVuSans-3d" x="444.628906"/>
      <use xlink:href="#DejaVuSans-31" x="528.417969"/>
     </g>
    </g>
    <g id="line2d_68">
     <path d="M 99 79.894687 
L 109 79.894687 
L 119 79.894687 
" style="fill: none; stroke: #feffb3; stroke-width: 1.5; stroke-linecap: square"/>
    </g>
    <g id="text_35">
     <!-- max_ops=4 -->
     <g style="fill: #ffffff" transform="translate(127 83.394687) scale(0.1 -0.1)">
      <use xlink:href="#DejaVuSans-6d"/>
      <use xlink:href="#DejaVuSans-61" x="97.412109"/>
      <use xlink:href="#DejaVuSans-78" x="158.691406"/>
      <use xlink:href="#DejaVuSans-5f" x="217.871094"/>
      <use xlink:href="#DejaVuSans-6f" x="267.871094"/>
      <use xlink:href="#DejaVuSans-70" x="329.052734"/>
      <use xlink:href="#DejaVuSans-73" x="392.529297"/>
      <use xlink:href="#DejaVuSans-3d" x="444.628906"/>
      <use xlink:href="#DejaVuSans-34" x="528.417969"/>
     </g>
    </g>
    <g id="line2d_69">
     <path d="M 99 94.850937 
L 109 94.850937 
L 119 94.850937 
" style="fill: none; stroke: #bfbbd9; stroke-width: 1.5; stroke-linecap: square"/>
    </g>
    <g id="text_36">
     <!-- max_ops=8 -->
     <g style="fill: #ffffff" transform="translate(127 98.350937) scale(0.1 -0.1)">
      <use xlink:href="#DejaVuSans-6d"/>
      <use xlink:href="#DejaVuSans-61" x="97.412109"/>
      <use xlink:href="#DejaVuSans-78" x="158.691406"/>
      <use xlink:href="#DejaVuSans-5f" x="217.871094"/>
      <use xlink:href="#DejaVuSans-6f" x="267.871094"/>
      <use xlink:href="#DejaVuSans-70" x="329.052734"/>
      <use xlink:href="#DejaVuSans-73" x="392.529297"/>
      <use xlink:href="#DejaVuSans-3d" x="444.628906"/>
      <use xlink:href="#DejaVuSans-38" x="528.417969"/>
     </g>
    </g>
    <g id="line2d_70">
     <path d="M 99 109.807187 
L 109 109.807187 
L 119 109.807187 
" style="fill: none; stroke: #fa8174; stroke-width: 1.5; stroke-linecap: square"/>
    </g>
    <g id="text_37">
     <!-- max_ops=16 -->
     <g style="fill: #ffffff" transform="translate(127 113.307187) scale(0.1 -0.1)">
      <use xlink:href="#DejaVuSans-6d"/>
      <use xlink:href="#DejaVuSans-61" x="97.412109"/>
      <use xlink:href="#DejaVuSans-78" x="158.691406"/>
      <use xlink:href="#DejaVuSans-5f" x="217.871094"/>
      <use xlink:href="#DejaVuSans-6f" x="267.871094"/>
      <use xlink:href="#DejaVuSans-70" x="329.052734"/>
      <use xlink:href="#DejaVuSans-73" x="392.529297"/>
      <use xlink:href="#DejaVuSans-3d" x="444.628906"/>
      <use xlink:href="#DejaVuSans-31" x="528.417969"/>
      <use xlink:href="#DejaVuSans-36" x="592.041016"/>
     </g>
    </g>
    <g id="line2d_71">
     <path d="M 99 124.763437 
L 109 124.763437 
L 119 124.763437 
" style="fill: none; stroke: #81b1d2; stroke-width: 1.5; stroke-linecap: square"/>
    </g>
    <g id="text_38">
     <!-- max_ops=32 -->
     <g style="fill: #ffffff" transform="translate(127 128.263437) scale(0.1 -0.1)">
      <use xlink:href="#DejaVuSans-6d"/>
      <use xlink:href="#DejaVuSans-61" x="97.412109"/>
      <use xlink:href="#DejaVuSans-78" x="158.691406"/>
      <use xlink:href="#DejaVuSans-5f" x="217.871094"/>
      <use xlink:href="#DejaVuSans-6f" x="267.871094"/>
      <use xlink:href="#DejaVuSans-70" x="329.052734"/>
      <use xlink:href="#DejaVuSans-73" x="392.529297"/>
      <use xlink:href="#DejaVuSans-3d" x="444.628906"/>
      <use xlink:href="#DejaVuSans-33" x="528.417969"/>
      <use xlink:href="#DejaVuSans-32" x="592.041016"/>
     </g>
    </g>
    <g id="line2d_72">
     <path d="M 99 139.719687 
L 109 139.719687 
L 119 139.719687 
" style="fill: none; stroke: #fdb462; stroke-width: 1.5; stroke-linecap: square"/>
    </g>
    <g id="text_39">
     <!-- max_ops=64 -->
     <g style="fill: #ffffff" transform="translate(127 143.219687) scale(0.1 -0.1)">
      <use xlink:href="#DejaVuSans-6d"/>
      <use xlink:href="#DejaVuSans-61" x="97.412109"/>
      <use xlink:href="#DejaVuSans-78" x="158.691406"/>
      <use xlink:href="#DejaVuSans-5f" x="217.871094"/>
      <use xlink:href="#DejaVuSans-6f" x="267.871094"/>
      <use xlink:href="#DejaVuSans-70" x="329.052734"/>
      <use xlink:href="#DejaVuSans-73" x="392.529297"/>
      <use xlink:href="#DejaVuSans-3d" x="444.628906"/>
      <use xlink:href="#DejaVuSans-36" x="528.417969"/>
      <use xlink:href="#DejaVuSans-34" x="592.041016"/>
     </g>
    </g>
   </g>
  </g>
 </g>
 <defs>
  <clipPath id="p21b0e7fb48">
   <rect x="90" y="51.84" width="558" height="332.64"/>
  </clipPath>
 </defs>
</svg>
