<?xml version="1.0" encoding="utf-8" standalone="no"?>
<!DOCTYPE svg PUBLIC "-//W3C//DTD SVG 1.1//EN"
  "http://www.w3.org/Graphics/SVG/1.1/DTD/svg11.dtd">
<svg xmlns:xlink="http://www.w3.org/1999/xlink" width="720pt" height="432pt" viewBox="0 0 720 432" xmlns="http://www.w3.org/2000/svg" version="1.1">
 <metadata>
  <rdf:RDF xmlns:dc="http://purl.org/dc/elements/1.1/" xmlns:cc="http://creativecommons.org/ns#" xmlns:rdf="http://www.w3.org/1999/02/22-rdf-syntax-ns#">
   <cc:Work>
    <dc:type rdf:resource="http://purl.org/dc/dcmitype/StillImage"/>
    <dc:date>2024-01-19T20:47:01.947121</dc:date>
    <dc:format>image/svg+xml</dc:format>
    <dc:creator>
     <cc:Agent>
      <dc:title>Matplotlib v3.8.2, https://matplotlib.org/</dc:title>
     </cc:Agent>
    </dc:creator>
   </cc:Work>
  </rdf:RDF>
 </metadata>
 <defs>
  <style type="text/css">*{stroke-linejoin: round; stroke-linecap: butt}</style>
 </defs>
 <g id="figure_1">
  <g id="patch_1">
   <path d="M 0 432 
L 720 432 
L 720 0 
L 0 0 
z
"/>
  </g>
  <g id="axes_1">
   <g id="patch_2">
    <path d="M 90 384.48 
L 648 384.48 
L 648 51.84 
L 90 51.84 
z
"/>
   </g>
   <g id="matplotlib.axis_1">
    <g id="xtick_1">
     <g id="line2d_1">
      <path d="M 115.363636 384.48 
L 115.363636 51.84 
" clip-path="url(#pd7de9a3e88)" style="fill: none; stroke: #ffffff; stroke-width: 0.8; stroke-linecap: square"/>
     </g>
     <g id="line2d_2">
      <defs>
       <path id="ma9eb24d69f" d="M 0 0 
L 0 3.5 
" style="stroke: #ffffff; stroke-width: 0.8"/>
      </defs>
      <g>
       <use xlink:href="#ma9eb24d69f" x="115.363636" y="384.48" style="fill: #ffffff; stroke: #ffffff; stroke-width: 0.8"/>
      </g>
     </g>
     <g id="text_1">
      <!-- 55912 -->
      <g style="fill: #ffffff" transform="translate(106.067392 419.347741) rotate(-45) scale(0.1 -0.1)">
       <defs>
        <path id="DejaVuSans-35" d="M 691 4666 
L 3169 4666 
L 3169 4134 
L 1269 4134 
L 1269 2991 
Q 1406 3038 1543 3061 
Q 1681 3084 1819 3084 
Q 2600 3084 3056 2656 
Q 3513 2228 3513 1497 
Q 3513 744 3044 326 
Q 2575 -91 1722 -91 
Q 1428 -91 1123 -41 
Q 819 9 494 109 
L 494 744 
Q 775 591 1075 516 
Q 1375 441 1709 441 
Q 2250 441 2565 725 
Q 2881 1009 2881 1497 
Q 2881 1984 2565 2268 
Q 2250 2553 1709 2553 
Q 1456 2553 1204 2497 
Q 953 2441 691 2322 
L 691 4666 
z
" transform="scale(0.015625)"/>
        <path id="DejaVuSans-39" d="M 703 97 
L 703 672 
Q 941 559 1184 500 
Q 1428 441 1663 441 
Q 2288 441 2617 861 
Q 2947 1281 2994 2138 
Q 2813 1869 2534 1725 
Q 2256 1581 1919 1581 
Q 1219 1581 811 2004 
Q 403 2428 403 3163 
Q 403 3881 828 4315 
Q 1253 4750 1959 4750 
Q 2769 4750 3195 4129 
Q 3622 3509 3622 2328 
Q 3622 1225 3098 567 
Q 2575 -91 1691 -91 
Q 1453 -91 1209 -44 
Q 966 3 703 97 
z
M 1959 2075 
Q 2384 2075 2632 2365 
Q 2881 2656 2881 3163 
Q 2881 3666 2632 3958 
Q 2384 4250 1959 4250 
Q 1534 4250 1286 3958 
Q 1038 3666 1038 3163 
Q 1038 2656 1286 2365 
Q 1534 2075 1959 2075 
z
" transform="scale(0.015625)"/>
        <path id="DejaVuSans-31" d="M 794 531 
L 1825 531 
L 1825 4091 
L 703 3866 
L 703 4441 
L 1819 4666 
L 2450 4666 
L 2450 531 
L 3481 531 
L 3481 0 
L 794 0 
L 794 531 
z
" transform="scale(0.015625)"/>
        <path id="DejaVuSans-32" d="M 1228 531 
L 3431 531 
L 3431 0 
L 469 0 
L 469 531 
Q 828 903 1448 1529 
Q 2069 2156 2228 2338 
Q 2531 2678 2651 2914 
Q 2772 3150 2772 3378 
Q 2772 3750 2511 3984 
Q 2250 4219 1831 4219 
Q 1534 4219 1204 4116 
Q 875 4013 500 3803 
L 500 4441 
Q 881 4594 1212 4672 
Q 1544 4750 1819 4750 
Q 2544 4750 2975 4387 
Q 3406 4025 3406 3419 
Q 3406 3131 3298 2873 
Q 3191 2616 2906 2266 
Q 2828 2175 2409 1742 
Q 1991 1309 1228 531 
z
" transform="scale(0.015625)"/>
       </defs>
       <use xlink:href="#DejaVuSans-35"/>
       <use xlink:href="#DejaVuSans-35" x="63.623047"/>
       <use xlink:href="#DejaVuSans-39" x="127.246094"/>
       <use xlink:href="#DejaVuSans-31" x="190.869141"/>
       <use xlink:href="#DejaVuSans-32" x="254.492188"/>
      </g>
     </g>
    </g>
    <g id="xtick_2">
     <g id="line2d_3">
      <path d="M 136.5 384.48 
L 136.5 51.84 
" clip-path="url(#pd7de9a3e88)" style="fill: none; stroke: #ffffff; stroke-width: 0.8; stroke-linecap: square"/>
     </g>
     <g id="line2d_4">
      <g>
       <use xlink:href="#ma9eb24d69f" x="136.5" y="384.48" style="fill: #ffffff; stroke: #ffffff; stroke-width: 0.8"/>
      </g>
     </g>
     <g id="text_2">
      <!-- 58342 -->
      <g style="fill: #ffffff" transform="translate(127.203756 419.347741) rotate(-45) scale(0.1 -0.1)">
       <defs>
        <path id="DejaVuSans-38" d="M 2034 2216 
Q 1584 2216 1326 1975 
Q 1069 1734 1069 1313 
Q 1069 891 1326 650 
Q 1584 409 2034 409 
Q 2484 409 2743 651 
Q 3003 894 3003 1313 
Q 3003 1734 2745 1975 
Q 2488 2216 2034 2216 
z
M 1403 2484 
Q 997 2584 770 2862 
Q 544 3141 544 3541 
Q 544 4100 942 4425 
Q 1341 4750 2034 4750 
Q 2731 4750 3128 4425 
Q 3525 4100 3525 3541 
Q 3525 3141 3298 2862 
Q 3072 2584 2669 2484 
Q 3125 2378 3379 2068 
Q 3634 1759 3634 1313 
Q 3634 634 3220 271 
Q 2806 -91 2034 -91 
Q 1263 -91 848 271 
Q 434 634 434 1313 
Q 434 1759 690 2068 
Q 947 2378 1403 2484 
z
M 1172 3481 
Q 1172 3119 1398 2916 
Q 1625 2713 2034 2713 
Q 2441 2713 2670 2916 
Q 2900 3119 2900 3481 
Q 2900 3844 2670 4047 
Q 2441 4250 2034 4250 
Q 1625 4250 1398 4047 
Q 1172 3844 1172 3481 
z
" transform="scale(0.015625)"/>
        <path id="DejaVuSans-33" d="M 2597 2516 
Q 3050 2419 3304 2112 
Q 3559 1806 3559 1356 
Q 3559 666 3084 287 
Q 2609 -91 1734 -91 
Q 1441 -91 1130 -33 
Q 819 25 488 141 
L 488 750 
Q 750 597 1062 519 
Q 1375 441 1716 441 
Q 2309 441 2620 675 
Q 2931 909 2931 1356 
Q 2931 1769 2642 2001 
Q 2353 2234 1838 2234 
L 1294 2234 
L 1294 2753 
L 1863 2753 
Q 2328 2753 2575 2939 
Q 2822 3125 2822 3475 
Q 2822 3834 2567 4026 
Q 2313 4219 1838 4219 
Q 1578 4219 1281 4162 
Q 984 4106 628 3988 
L 628 4550 
Q 988 4650 1302 4700 
Q 1616 4750 1894 4750 
Q 2613 4750 3031 4423 
Q 3450 4097 3450 3541 
Q 3450 3153 3228 2886 
Q 3006 2619 2597 2516 
z
" transform="scale(0.015625)"/>
        <path id="DejaVuSans-34" d="M 2419 4116 
L 825 1625 
L 2419 1625 
L 2419 4116 
z
M 2253 4666 
L 3047 4666 
L 3047 1625 
L 3713 1625 
L 3713 1100 
L 3047 1100 
L 3047 0 
L 2419 0 
L 2419 1100 
L 313 1100 
L 313 1709 
L 2253 4666 
z
" transform="scale(0.015625)"/>
       </defs>
       <use xlink:href="#DejaVuSans-35"/>
       <use xlink:href="#DejaVuSans-38" x="63.623047"/>
       <use xlink:href="#DejaVuSans-33" x="127.246094"/>
       <use xlink:href="#DejaVuSans-34" x="190.869141"/>
       <use xlink:href="#DejaVuSans-32" x="254.492188"/>
      </g>
     </g>
    </g>
    <g id="xtick_3">
     <g id="line2d_5">
      <path d="M 157.636364 384.48 
L 157.636364 51.84 
" clip-path="url(#pd7de9a3e88)" style="fill: none; stroke: #ffffff; stroke-width: 0.8; stroke-linecap: square"/>
     </g>
     <g id="line2d_6">
      <g>
       <use xlink:href="#ma9eb24d69f" x="157.636364" y="384.48" style="fill: #ffffff; stroke: #ffffff; stroke-width: 0.8"/>
      </g>
     </g>
     <g id="text_3">
      <!-- 60994 -->
      <g style="fill: #ffffff" transform="translate(148.340119 419.347741) rotate(-45) scale(0.1 -0.1)">
       <defs>
        <path id="DejaVuSans-36" d="M 2113 2584 
Q 1688 2584 1439 2293 
Q 1191 2003 1191 1497 
Q 1191 994 1439 701 
Q 1688 409 2113 409 
Q 2538 409 2786 701 
Q 3034 994 3034 1497 
Q 3034 2003 2786 2293 
Q 2538 2584 2113 2584 
z
M 3366 4563 
L 3366 3988 
Q 3128 4100 2886 4159 
Q 2644 4219 2406 4219 
Q 1781 4219 1451 3797 
Q 1122 3375 1075 2522 
Q 1259 2794 1537 2939 
Q 1816 3084 2150 3084 
Q 2853 3084 3261 2657 
Q 3669 2231 3669 1497 
Q 3669 778 3244 343 
Q 2819 -91 2113 -91 
Q 1303 -91 875 529 
Q 447 1150 447 2328 
Q 447 3434 972 4092 
Q 1497 4750 2381 4750 
Q 2619 4750 2861 4703 
Q 3103 4656 3366 4563 
z
" transform="scale(0.015625)"/>
        <path id="DejaVuSans-30" d="M 2034 4250 
Q 1547 4250 1301 3770 
Q 1056 3291 1056 2328 
Q 1056 1369 1301 889 
Q 1547 409 2034 409 
Q 2525 409 2770 889 
Q 3016 1369 3016 2328 
Q 3016 3291 2770 3770 
Q 2525 4250 2034 4250 
z
M 2034 4750 
Q 2819 4750 3233 4129 
Q 3647 3509 3647 2328 
Q 3647 1150 3233 529 
Q 2819 -91 2034 -91 
Q 1250 -91 836 529 
Q 422 1150 422 2328 
Q 422 3509 836 4129 
Q 1250 4750 2034 4750 
z
" transform="scale(0.015625)"/>
       </defs>
       <use xlink:href="#DejaVuSans-36"/>
       <use xlink:href="#DejaVuSans-30" x="63.623047"/>
       <use xlink:href="#DejaVuSans-39" x="127.246094"/>
       <use xlink:href="#DejaVuSans-39" x="190.869141"/>
       <use xlink:href="#DejaVuSans-34" x="254.492188"/>
      </g>
     </g>
    </g>
    <g id="xtick_4">
     <g id="line2d_7">
      <path d="M 178.772727 384.48 
L 178.772727 51.84 
" clip-path="url(#pd7de9a3e88)" style="fill: none; stroke: #ffffff; stroke-width: 0.8; stroke-linecap: square"/>
     </g>
     <g id="line2d_8">
      <g>
       <use xlink:href="#ma9eb24d69f" x="178.772727" y="384.48" style="fill: #ffffff; stroke: #ffffff; stroke-width: 0.8"/>
      </g>
     </g>
     <g id="text_4">
      <!-- 63897 -->
      <g style="fill: #ffffff" transform="translate(169.476483 419.347741) rotate(-45) scale(0.1 -0.1)">
       <defs>
        <path id="DejaVuSans-37" d="M 525 4666 
L 3525 4666 
L 3525 4397 
L 1831 0 
L 1172 0 
L 2766 4134 
L 525 4134 
L 525 4666 
z
" transform="scale(0.015625)"/>
       </defs>
       <use xlink:href="#DejaVuSans-36"/>
       <use xlink:href="#DejaVuSans-33" x="63.623047"/>
       <use xlink:href="#DejaVuSans-38" x="127.246094"/>
       <use xlink:href="#DejaVuSans-39" x="190.869141"/>
       <use xlink:href="#DejaVuSans-37" x="254.492188"/>
      </g>
     </g>
    </g>
    <g id="xtick_5">
     <g id="line2d_9">
      <path d="M 199.909091 384.48 
L 199.909091 51.84 
" clip-path="url(#pd7de9a3e88)" style="fill: none; stroke: #ffffff; stroke-width: 0.8; stroke-linecap: square"/>
     </g>
     <g id="line2d_10">
      <g>
       <use xlink:href="#ma9eb24d69f" x="199.909091" y="384.48" style="fill: #ffffff; stroke: #ffffff; stroke-width: 0.8"/>
      </g>
     </g>
     <g id="text_5">
      <!-- 67092 -->
      <g style="fill: #ffffff" transform="translate(190.612846 419.347741) rotate(-45) scale(0.1 -0.1)">
       <use xlink:href="#DejaVuSans-36"/>
       <use xlink:href="#DejaVuSans-37" x="63.623047"/>
       <use xlink:href="#DejaVuSans-30" x="127.246094"/>
       <use xlink:href="#DejaVuSans-39" x="190.869141"/>
       <use xlink:href="#DejaVuSans-32" x="254.492188"/>
      </g>
     </g>
    </g>
    <g id="xtick_6">
     <g id="line2d_11">
      <path d="M 221.045455 384.48 
L 221.045455 51.84 
" clip-path="url(#pd7de9a3e88)" style="fill: none; stroke: #ffffff; stroke-width: 0.8; stroke-linecap: square"/>
     </g>
     <g id="line2d_12">
      <g>
       <use xlink:href="#ma9eb24d69f" x="221.045455" y="384.48" style="fill: #ffffff; stroke: #ffffff; stroke-width: 0.8"/>
      </g>
     </g>
     <g id="text_6">
      <!-- 70622 -->
      <g style="fill: #ffffff" transform="translate(211.74921 419.347741) rotate(-45) scale(0.1 -0.1)">
       <use xlink:href="#DejaVuSans-37"/>
       <use xlink:href="#DejaVuSans-30" x="63.623047"/>
       <use xlink:href="#DejaVuSans-36" x="127.246094"/>
       <use xlink:href="#DejaVuSans-32" x="190.869141"/>
       <use xlink:href="#DejaVuSans-32" x="254.492188"/>
      </g>
     </g>
    </g>
    <g id="xtick_7">
     <g id="line2d_13">
      <path d="M 242.181818 384.48 
L 242.181818 51.84 
" clip-path="url(#pd7de9a3e88)" style="fill: none; stroke: #ffffff; stroke-width: 0.8; stroke-linecap: square"/>
     </g>
     <g id="line2d_14">
      <g>
       <use xlink:href="#ma9eb24d69f" x="242.181818" y="384.48" style="fill: #ffffff; stroke: #ffffff; stroke-width: 0.8"/>
      </g>
     </g>
     <g id="text_7">
      <!-- 74544 -->
      <g style="fill: #ffffff" transform="translate(232.885574 419.347741) rotate(-45) scale(0.1 -0.1)">
       <use xlink:href="#DejaVuSans-37"/>
       <use xlink:href="#DejaVuSans-34" x="63.623047"/>
       <use xlink:href="#DejaVuSans-35" x="127.246094"/>
       <use xlink:href="#DejaVuSans-34" x="190.869141"/>
       <use xlink:href="#DejaVuSans-34" x="254.492188"/>
      </g>
     </g>
    </g>
    <g id="xtick_8">
     <g id="line2d_15">
      <path d="M 263.318182 384.48 
L 263.318182 51.84 
" clip-path="url(#pd7de9a3e88)" style="fill: none; stroke: #ffffff; stroke-width: 0.8; stroke-linecap: square"/>
     </g>
     <g id="line2d_16">
      <g>
       <use xlink:href="#ma9eb24d69f" x="263.318182" y="384.48" style="fill: #ffffff; stroke: #ffffff; stroke-width: 0.8"/>
      </g>
     </g>
     <g id="text_8">
      <!-- 78928 -->
      <g style="fill: #ffffff" transform="translate(254.021937 419.347741) rotate(-45) scale(0.1 -0.1)">
       <use xlink:href="#DejaVuSans-37"/>
       <use xlink:href="#DejaVuSans-38" x="63.623047"/>
       <use xlink:href="#DejaVuSans-39" x="127.246094"/>
       <use xlink:href="#DejaVuSans-32" x="190.869141"/>
       <use xlink:href="#DejaVuSans-38" x="254.492188"/>
      </g>
     </g>
    </g>
    <g id="xtick_9">
     <g id="line2d_17">
      <path d="M 284.454545 384.48 
L 284.454545 51.84 
" clip-path="url(#pd7de9a3e88)" style="fill: none; stroke: #ffffff; stroke-width: 0.8; stroke-linecap: square"/>
     </g>
     <g id="line2d_18">
      <g>
       <use xlink:href="#ma9eb24d69f" x="284.454545" y="384.48" style="fill: #ffffff; stroke: #ffffff; stroke-width: 0.8"/>
      </g>
     </g>
     <g id="text_9">
      <!-- 83859 -->
      <g style="fill: #ffffff" transform="translate(275.158301 419.347741) rotate(-45) scale(0.1 -0.1)">
       <use xlink:href="#DejaVuSans-38"/>
       <use xlink:href="#DejaVuSans-33" x="63.623047"/>
       <use xlink:href="#DejaVuSans-38" x="127.246094"/>
       <use xlink:href="#DejaVuSans-35" x="190.869141"/>
       <use xlink:href="#DejaVuSans-39" x="254.492188"/>
      </g>
     </g>
    </g>
    <g id="xtick_10">
     <g id="line2d_19">
      <path d="M 305.590909 384.48 
L 305.590909 51.84 
" clip-path="url(#pd7de9a3e88)" style="fill: none; stroke: #ffffff; stroke-width: 0.8; stroke-linecap: square"/>
     </g>
     <g id="line2d_20">
      <g>
       <use xlink:href="#ma9eb24d69f" x="305.590909" y="384.48" style="fill: #ffffff; stroke: #ffffff; stroke-width: 0.8"/>
      </g>
     </g>
     <g id="text_10">
      <!-- 89448 -->
      <g style="fill: #ffffff" transform="translate(296.294665 419.347741) rotate(-45) scale(0.1 -0.1)">
       <use xlink:href="#DejaVuSans-38"/>
       <use xlink:href="#DejaVuSans-39" x="63.623047"/>
       <use xlink:href="#DejaVuSans-34" x="127.246094"/>
       <use xlink:href="#DejaVuSans-34" x="190.869141"/>
       <use xlink:href="#DejaVuSans-38" x="254.492188"/>
      </g>
     </g>
    </g>
    <g id="xtick_11">
     <g id="line2d_21">
      <path d="M 326.727273 384.48 
L 326.727273 51.84 
" clip-path="url(#pd7de9a3e88)" style="fill: none; stroke: #ffffff; stroke-width: 0.8; stroke-linecap: square"/>
     </g>
     <g id="line2d_22">
      <g>
       <use xlink:href="#ma9eb24d69f" x="326.727273" y="384.48" style="fill: #ffffff; stroke: #ffffff; stroke-width: 0.8"/>
      </g>
     </g>
     <g id="text_11">
      <!-- 95835 -->
      <g style="fill: #ffffff" transform="translate(317.431028 419.347741) rotate(-45) scale(0.1 -0.1)">
       <use xlink:href="#DejaVuSans-39"/>
       <use xlink:href="#DejaVuSans-35" x="63.623047"/>
       <use xlink:href="#DejaVuSans-38" x="127.246094"/>
       <use xlink:href="#DejaVuSans-33" x="190.869141"/>
       <use xlink:href="#DejaVuSans-35" x="254.492188"/>
      </g>
     </g>
    </g>
    <g id="xtick_12">
     <g id="line2d_23">
      <path d="M 347.863636 384.48 
L 347.863636 51.84 
" clip-path="url(#pd7de9a3e88)" style="fill: none; stroke: #ffffff; stroke-width: 0.8; stroke-linecap: square"/>
     </g>
     <g id="line2d_24">
      <g>
       <use xlink:href="#ma9eb24d69f" x="347.863636" y="384.48" style="fill: #ffffff; stroke: #ffffff; stroke-width: 0.8"/>
      </g>
     </g>
     <g id="text_12">
      <!-- 103204 -->
      <g style="fill: #ffffff" transform="translate(336.317908 423.846708) rotate(-45) scale(0.1 -0.1)">
       <use xlink:href="#DejaVuSans-31"/>
       <use xlink:href="#DejaVuSans-30" x="63.623047"/>
       <use xlink:href="#DejaVuSans-33" x="127.246094"/>
       <use xlink:href="#DejaVuSans-32" x="190.869141"/>
       <use xlink:href="#DejaVuSans-30" x="254.492188"/>
       <use xlink:href="#DejaVuSans-34" x="318.115234"/>
      </g>
     </g>
    </g>
    <g id="xtick_13">
     <g id="line2d_25">
      <path d="M 369 384.48 
L 369 51.84 
" clip-path="url(#pd7de9a3e88)" style="fill: none; stroke: #ffffff; stroke-width: 0.8; stroke-linecap: square"/>
     </g>
     <g id="line2d_26">
      <g>
       <use xlink:href="#ma9eb24d69f" x="369" y="384.48" style="fill: #ffffff; stroke: #ffffff; stroke-width: 0.8"/>
      </g>
     </g>
     <g id="text_13">
      <!-- 111801 -->
      <g style="fill: #ffffff" transform="translate(357.454272 423.846708) rotate(-45) scale(0.1 -0.1)">
       <use xlink:href="#DejaVuSans-31"/>
       <use xlink:href="#DejaVuSans-31" x="63.623047"/>
       <use xlink:href="#DejaVuSans-31" x="127.246094"/>
       <use xlink:href="#DejaVuSans-38" x="190.869141"/>
       <use xlink:href="#DejaVuSans-30" x="254.492188"/>
       <use xlink:href="#DejaVuSans-31" x="318.115234"/>
      </g>
     </g>
    </g>
    <g id="xtick_14">
     <g id="line2d_27">
      <path d="M 390.136364 384.48 
L 390.136364 51.84 
" clip-path="url(#pd7de9a3e88)" style="fill: none; stroke: #ffffff; stroke-width: 0.8; stroke-linecap: square"/>
     </g>
     <g id="line2d_28">
      <g>
       <use xlink:href="#ma9eb24d69f" x="390.136364" y="384.48" style="fill: #ffffff; stroke: #ffffff; stroke-width: 0.8"/>
      </g>
     </g>
     <g id="text_14">
      <!-- 121960 -->
      <g style="fill: #ffffff" transform="translate(378.590636 423.846708) rotate(-45) scale(0.1 -0.1)">
       <use xlink:href="#DejaVuSans-31"/>
       <use xlink:href="#DejaVuSans-32" x="63.623047"/>
       <use xlink:href="#DejaVuSans-31" x="127.246094"/>
       <use xlink:href="#DejaVuSans-39" x="190.869141"/>
       <use xlink:href="#DejaVuSans-36" x="254.492188"/>
       <use xlink:href="#DejaVuSans-30" x="318.115234"/>
      </g>
     </g>
    </g>
    <g id="xtick_15">
     <g id="line2d_29">
      <path d="M 411.272727 384.48 
L 411.272727 51.84 
" clip-path="url(#pd7de9a3e88)" style="fill: none; stroke: #ffffff; stroke-width: 0.8; stroke-linecap: square"/>
     </g>
     <g id="line2d_30">
      <g>
       <use xlink:href="#ma9eb24d69f" x="411.272727" y="384.48" style="fill: #ffffff; stroke: #ffffff; stroke-width: 0.8"/>
      </g>
     </g>
     <g id="text_15">
      <!-- 134150 -->
      <g style="fill: #ffffff" transform="translate(399.726999 423.846708) rotate(-45) scale(0.1 -0.1)">
       <use xlink:href="#DejaVuSans-31"/>
       <use xlink:href="#DejaVuSans-33" x="63.623047"/>
       <use xlink:href="#DejaVuSans-34" x="127.246094"/>
       <use xlink:href="#DejaVuSans-31" x="190.869141"/>
       <use xlink:href="#DejaVuSans-35" x="254.492188"/>
       <use xlink:href="#DejaVuSans-30" x="318.115234"/>
      </g>
     </g>
    </g>
    <g id="xtick_16">
     <g id="line2d_31">
      <path d="M 432.409091 384.48 
L 432.409091 51.84 
" clip-path="url(#pd7de9a3e88)" style="fill: none; stroke: #ffffff; stroke-width: 0.8; stroke-linecap: square"/>
     </g>
     <g id="line2d_32">
      <g>
       <use xlink:href="#ma9eb24d69f" x="432.409091" y="384.48" style="fill: #ffffff; stroke: #ffffff; stroke-width: 0.8"/>
      </g>
     </g>
     <g id="text_16">
      <!-- 149048 -->
      <g style="fill: #ffffff" transform="translate(420.863363 423.846708) rotate(-45) scale(0.1 -0.1)">
       <use xlink:href="#DejaVuSans-31"/>
       <use xlink:href="#DejaVuSans-34" x="63.623047"/>
       <use xlink:href="#DejaVuSans-39" x="127.246094"/>
       <use xlink:href="#DejaVuSans-30" x="190.869141"/>
       <use xlink:href="#DejaVuSans-34" x="254.492188"/>
       <use xlink:href="#DejaVuSans-38" x="318.115234"/>
      </g>
     </g>
    </g>
    <g id="xtick_17">
     <g id="line2d_33">
      <path d="M 453.545455 384.48 
L 453.545455 51.84 
" clip-path="url(#pd7de9a3e88)" style="fill: none; stroke: #ffffff; stroke-width: 0.8; stroke-linecap: square"/>
     </g>
     <g id="line2d_34">
      <g>
       <use xlink:href="#ma9eb24d69f" x="453.545455" y="384.48" style="fill: #ffffff; stroke: #ffffff; stroke-width: 0.8"/>
      </g>
     </g>
     <g id="text_17">
      <!-- 167667 -->
      <g style="fill: #ffffff" transform="translate(441.999727 423.846708) rotate(-45) scale(0.1 -0.1)">
       <use xlink:href="#DejaVuSans-31"/>
       <use xlink:href="#DejaVuSans-36" x="63.623047"/>
       <use xlink:href="#DejaVuSans-37" x="127.246094"/>
       <use xlink:href="#DejaVuSans-36" x="190.869141"/>
       <use xlink:href="#DejaVuSans-36" x="254.492188"/>
       <use xlink:href="#DejaVuSans-37" x="318.115234"/>
      </g>
     </g>
    </g>
    <g id="xtick_18">
     <g id="line2d_35">
      <path d="M 474.681818 384.48 
L 474.681818 51.84 
" clip-path="url(#pd7de9a3e88)" style="fill: none; stroke: #ffffff; stroke-width: 0.8; stroke-linecap: square"/>
     </g>
     <g id="line2d_36">
      <g>
       <use xlink:href="#ma9eb24d69f" x="474.681818" y="384.48" style="fill: #ffffff; stroke: #ffffff; stroke-width: 0.8"/>
      </g>
     </g>
     <g id="text_18">
      <!-- 191602 -->
      <g style="fill: #ffffff" transform="translate(463.13609 423.846708) rotate(-45) scale(0.1 -0.1)">
       <use xlink:href="#DejaVuSans-31"/>
       <use xlink:href="#DejaVuSans-39" x="63.623047"/>
       <use xlink:href="#DejaVuSans-31" x="127.246094"/>
       <use xlink:href="#DejaVuSans-36" x="190.869141"/>
       <use xlink:href="#DejaVuSans-30" x="254.492188"/>
       <use xlink:href="#DejaVuSans-32" x="318.115234"/>
      </g>
     </g>
    </g>
    <g id="xtick_19">
     <g id="line2d_37">
      <path d="M 495.818182 384.48 
L 495.818182 51.84 
" clip-path="url(#pd7de9a3e88)" style="fill: none; stroke: #ffffff; stroke-width: 0.8; stroke-linecap: square"/>
     </g>
     <g id="line2d_38">
      <g>
       <use xlink:href="#ma9eb24d69f" x="495.818182" y="384.48" style="fill: #ffffff; stroke: #ffffff; stroke-width: 0.8"/>
      </g>
     </g>
     <g id="text_19">
      <!-- 223509 -->
      <g style="fill: #ffffff" transform="translate(484.272454 423.846708) rotate(-45) scale(0.1 -0.1)">
       <use xlink:href="#DejaVuSans-32"/>
       <use xlink:href="#DejaVuSans-32" x="63.623047"/>
       <use xlink:href="#DejaVuSans-33" x="127.246094"/>
       <use xlink:href="#DejaVuSans-35" x="190.869141"/>
       <use xlink:href="#DejaVuSans-30" x="254.492188"/>
       <use xlink:href="#DejaVuSans-39" x="318.115234"/>
      </g>
     </g>
    </g>
    <g id="xtick_20">
     <g id="line2d_39">
      <path d="M 516.954545 384.48 
L 516.954545 51.84 
" clip-path="url(#pd7de9a3e88)" style="fill: none; stroke: #ffffff; stroke-width: 0.8; stroke-linecap: square"/>
     </g>
     <g id="line2d_40">
      <g>
       <use xlink:href="#ma9eb24d69f" x="516.954545" y="384.48" style="fill: #ffffff; stroke: #ffffff; stroke-width: 0.8"/>
      </g>
     </g>
     <g id="text_20">
      <!-- 268167 -->
      <g style="fill: #ffffff" transform="translate(505.408818 423.846708) rotate(-45) scale(0.1 -0.1)">
       <use xlink:href="#DejaVuSans-32"/>
       <use xlink:href="#DejaVuSans-36" x="63.623047"/>
       <use xlink:href="#DejaVuSans-38" x="127.246094"/>
       <use xlink:href="#DejaVuSans-31" x="190.869141"/>
       <use xlink:href="#DejaVuSans-36" x="254.492188"/>
       <use xlink:href="#DejaVuSans-37" x="318.115234"/>
      </g>
     </g>
    </g>
    <g id="xtick_21">
     <g id="line2d_41">
      <path d="M 538.090909 384.48 
L 538.090909 51.84 
" clip-path="url(#pd7de9a3e88)" style="fill: none; stroke: #ffffff; stroke-width: 0.8; stroke-linecap: square"/>
     </g>
     <g id="line2d_42">
      <g>
       <use xlink:href="#ma9eb24d69f" x="538.090909" y="384.48" style="fill: #ffffff; stroke: #ffffff; stroke-width: 0.8"/>
      </g>
     </g>
     <g id="text_21">
      <!-- 335125 -->
      <g style="fill: #ffffff" transform="translate(526.545181 423.846708) rotate(-45) scale(0.1 -0.1)">
       <use xlink:href="#DejaVuSans-33"/>
       <use xlink:href="#DejaVuSans-33" x="63.623047"/>
       <use xlink:href="#DejaVuSans-35" x="127.246094"/>
       <use xlink:href="#DejaVuSans-31" x="190.869141"/>
       <use xlink:href="#DejaVuSans-32" x="254.492188"/>
       <use xlink:href="#DejaVuSans-35" x="318.115234"/>
      </g>
     </g>
    </g>
    <g id="xtick_22">
     <g id="line2d_43">
      <path d="M 559.227273 384.48 
L 559.227273 51.84 
" clip-path="url(#pd7de9a3e88)" style="fill: none; stroke: #ffffff; stroke-width: 0.8; stroke-linecap: square"/>
     </g>
     <g id="line2d_44">
      <g>
       <use xlink:href="#ma9eb24d69f" x="559.227273" y="384.48" style="fill: #ffffff; stroke: #ffffff; stroke-width: 0.8"/>
      </g>
     </g>
     <g id="text_22">
      <!-- 446648 -->
      <g style="fill: #ffffff" transform="translate(547.681545 423.846708) rotate(-45) scale(0.1 -0.1)">
       <use xlink:href="#DejaVuSans-34"/>
       <use xlink:href="#DejaVuSans-34" x="63.623047"/>
       <use xlink:href="#DejaVuSans-36" x="127.246094"/>
       <use xlink:href="#DejaVuSans-36" x="190.869141"/>
       <use xlink:href="#DejaVuSans-34" x="254.492188"/>
       <use xlink:href="#DejaVuSans-38" x="318.115234"/>
      </g>
     </g>
    </g>
    <g id="xtick_23">
     <g id="line2d_45">
      <path d="M 580.363636 384.48 
L 580.363636 51.84 
" clip-path="url(#pd7de9a3e88)" style="fill: none; stroke: #ffffff; stroke-width: 0.8; stroke-linecap: square"/>
     </g>
     <g id="line2d_46">
      <g>
       <use xlink:href="#ma9eb24d69f" x="580.363636" y="384.48" style="fill: #ffffff; stroke: #ffffff; stroke-width: 0.8"/>
      </g>
     </g>
     <g id="text_23">
      <!-- 669415 -->
      <g style="fill: #ffffff" transform="translate(568.817908 423.846708) rotate(-45) scale(0.1 -0.1)">
       <use xlink:href="#DejaVuSans-36"/>
       <use xlink:href="#DejaVuSans-36" x="63.623047"/>
       <use xlink:href="#DejaVuSans-39" x="127.246094"/>
       <use xlink:href="#DejaVuSans-34" x="190.869141"/>
       <use xlink:href="#DejaVuSans-31" x="254.492188"/>
       <use xlink:href="#DejaVuSans-35" x="318.115234"/>
      </g>
     </g>
    </g>
    <g id="xtick_24">
     <g id="line2d_47">
      <path d="M 601.5 384.48 
L 601.5 51.84 
" clip-path="url(#pd7de9a3e88)" style="fill: none; stroke: #ffffff; stroke-width: 0.8; stroke-linecap: square"/>
     </g>
     <g id="line2d_48">
      <g>
       <use xlink:href="#ma9eb24d69f" x="601.5" y="384.48" style="fill: #ffffff; stroke: #ffffff; stroke-width: 0.8"/>
      </g>
     </g>
     <g id="text_24">
      <!-- 1335499 -->
      <g style="fill: #ffffff" transform="translate(587.704789 428.345675) rotate(-45) scale(0.1 -0.1)">
       <use xlink:href="#DejaVuSans-31"/>
       <use xlink:href="#DejaVuSans-33" x="63.623047"/>
       <use xlink:href="#DejaVuSans-33" x="127.246094"/>
       <use xlink:href="#DejaVuSans-35" x="190.869141"/>
       <use xlink:href="#DejaVuSans-34" x="254.492188"/>
       <use xlink:href="#DejaVuSans-39" x="318.115234"/>
       <use xlink:href="#DejaVuSans-39" x="381.738281"/>
      </g>
     </g>
    </g>
    <g id="xtick_25">
     <g id="line2d_49">
      <path d="M 622.636364 384.48 
L 622.636364 51.84 
" clip-path="url(#pd7de9a3e88)" style="fill: none; stroke: #ffffff; stroke-width: 0.8; stroke-linecap: square"/>
     </g>
     <g id="line2d_50">
      <g>
       <use xlink:href="#ma9eb24d69f" x="622.636364" y="384.48" style="fill: #ffffff; stroke: #ffffff; stroke-width: 0.8"/>
      </g>
     </g>
     <g id="text_25">
      <!-- 268435456 -->
      <g style="fill: #ffffff" transform="translate(604.342185 437.343609) rotate(-45) scale(0.1 -0.1)">
       <use xlink:href="#DejaVuSans-32"/>
       <use xlink:href="#DejaVuSans-36" x="63.623047"/>
       <use xlink:href="#DejaVuSans-38" x="127.246094"/>
       <use xlink:href="#DejaVuSans-34" x="190.869141"/>
       <use xlink:href="#DejaVuSans-33" x="254.492188"/>
       <use xlink:href="#DejaVuSans-35" x="318.115234"/>
       <use xlink:href="#DejaVuSans-34" x="381.738281"/>
       <use xlink:href="#DejaVuSans-35" x="445.361328"/>
       <use xlink:href="#DejaVuSans-36" x="508.984375"/>
      </g>
     </g>
    </g>
    <g id="text_26">
     <!-- chunk_size -->
     <g style="fill: #ffffff" transform="translate(341.654688 450.412607) scale(0.1 -0.1)">
      <defs>
       <path id="DejaVuSans-63" d="M 3122 3366 
L 3122 2828 
Q 2878 2963 2633 3030 
Q 2388 3097 2138 3097 
Q 1578 3097 1268 2742 
Q 959 2388 959 1747 
Q 959 1106 1268 751 
Q 1578 397 2138 397 
Q 2388 397 2633 464 
Q 2878 531 3122 666 
L 3122 134 
Q 2881 22 2623 -34 
Q 2366 -91 2075 -91 
Q 1284 -91 818 406 
Q 353 903 353 1747 
Q 353 2603 823 3093 
Q 1294 3584 2113 3584 
Q 2378 3584 2631 3529 
Q 2884 3475 3122 3366 
z
" transform="scale(0.015625)"/>
       <path id="DejaVuSans-68" d="M 3513 2113 
L 3513 0 
L 2938 0 
L 2938 2094 
Q 2938 2591 2744 2837 
Q 2550 3084 2163 3084 
Q 1697 3084 1428 2787 
Q 1159 2491 1159 1978 
L 1159 0 
L 581 0 
L 581 4863 
L 1159 4863 
L 1159 2956 
Q 1366 3272 1645 3428 
Q 1925 3584 2291 3584 
Q 2894 3584 3203 3211 
Q 3513 2838 3513 2113 
z
" transform="scale(0.015625)"/>
       <path id="DejaVuSans-75" d="M 544 1381 
L 544 3500 
L 1119 3500 
L 1119 1403 
Q 1119 906 1312 657 
Q 1506 409 1894 409 
Q 2359 409 2629 706 
Q 2900 1003 2900 1516 
L 2900 3500 
L 3475 3500 
L 3475 0 
L 2900 0 
L 2900 538 
Q 2691 219 2414 64 
Q 2138 -91 1772 -91 
Q 1169 -91 856 284 
Q 544 659 544 1381 
z
M 1991 3584 
L 1991 3584 
z
" transform="scale(0.015625)"/>
       <path id="DejaVuSans-6e" d="M 3513 2113 
L 3513 0 
L 2938 0 
L 2938 2094 
Q 2938 2591 2744 2837 
Q 2550 3084 2163 3084 
Q 1697 3084 1428 2787 
Q 1159 2491 1159 1978 
L 1159 0 
L 581 0 
L 581 3500 
L 1159 3500 
L 1159 2956 
Q 1366 3272 1645 3428 
Q 1925 3584 2291 3584 
Q 2894 3584 3203 3211 
Q 3513 2838 3513 2113 
z
" transform="scale(0.015625)"/>
       <path id="DejaVuSans-6b" d="M 581 4863 
L 1159 4863 
L 1159 1991 
L 2875 3500 
L 3609 3500 
L 1753 1863 
L 3688 0 
L 2938 0 
L 1159 1709 
L 1159 0 
L 581 0 
L 581 4863 
z
" transform="scale(0.015625)"/>
       <path id="DejaVuSans-5f" d="M 3263 -1063 
L 3263 -1509 
L -63 -1509 
L -63 -1063 
L 3263 -1063 
z
" transform="scale(0.015625)"/>
       <path id="DejaVuSans-73" d="M 2834 3397 
L 2834 2853 
Q 2591 2978 2328 3040 
Q 2066 3103 1784 3103 
Q 1356 3103 1142 2972 
Q 928 2841 928 2578 
Q 928 2378 1081 2264 
Q 1234 2150 1697 2047 
L 1894 2003 
Q 2506 1872 2764 1633 
Q 3022 1394 3022 966 
Q 3022 478 2636 193 
Q 2250 -91 1575 -91 
Q 1294 -91 989 -36 
Q 684 19 347 128 
L 347 722 
Q 666 556 975 473 
Q 1284 391 1588 391 
Q 1994 391 2212 530 
Q 2431 669 2431 922 
Q 2431 1156 2273 1281 
Q 2116 1406 1581 1522 
L 1381 1569 
Q 847 1681 609 1914 
Q 372 2147 372 2553 
Q 372 3047 722 3315 
Q 1072 3584 1716 3584 
Q 2034 3584 2315 3537 
Q 2597 3491 2834 3397 
z
" transform="scale(0.015625)"/>
       <path id="DejaVuSans-69" d="M 603 3500 
L 1178 3500 
L 1178 0 
L 603 0 
L 603 3500 
z
M 603 4863 
L 1178 4863 
L 1178 4134 
L 603 4134 
L 603 4863 
z
" transform="scale(0.015625)"/>
       <path id="DejaVuSans-7a" d="M 353 3500 
L 3084 3500 
L 3084 2975 
L 922 459 
L 3084 459 
L 3084 0 
L 275 0 
L 275 525 
L 2438 3041 
L 353 3041 
L 353 3500 
z
" transform="scale(0.015625)"/>
       <path id="DejaVuSans-65" d="M 3597 1894 
L 3597 1613 
L 953 1613 
Q 991 1019 1311 708 
Q 1631 397 2203 397 
Q 2534 397 2845 478 
Q 3156 559 3463 722 
L 3463 178 
Q 3153 47 2828 -22 
Q 2503 -91 2169 -91 
Q 1331 -91 842 396 
Q 353 884 353 1716 
Q 353 2575 817 3079 
Q 1281 3584 2069 3584 
Q 2775 3584 3186 3129 
Q 3597 2675 3597 1894 
z
M 3022 2063 
Q 3016 2534 2758 2815 
Q 2500 3097 2075 3097 
Q 1594 3097 1305 2825 
Q 1016 2553 972 2059 
L 3022 2063 
z
" transform="scale(0.015625)"/>
      </defs>
      <use xlink:href="#DejaVuSans-63"/>
      <use xlink:href="#DejaVuSans-68" x="54.980469"/>
      <use xlink:href="#DejaVuSans-75" x="118.359375"/>
      <use xlink:href="#DejaVuSans-6e" x="181.738281"/>
      <use xlink:href="#DejaVuSans-6b" x="245.117188"/>
      <use xlink:href="#DejaVuSans-5f" x="303.027344"/>
      <use xlink:href="#DejaVuSans-73" x="353.027344"/>
      <use xlink:href="#DejaVuSans-69" x="405.126953"/>
      <use xlink:href="#DejaVuSans-7a" x="432.910156"/>
      <use xlink:href="#DejaVuSans-65" x="485.400391"/>
     </g>
    </g>
   </g>
   <g id="matplotlib.axis_2">
    <g id="ytick_1">
     <g id="line2d_51">
      <path d="M 90 337.987631 
L 648 337.987631 
" clip-path="url(#pd7de9a3e88)" style="fill: none; stroke: #ffffff; stroke-width: 0.8; stroke-linecap: square"/>
     </g>
     <g id="line2d_52">
      <defs>
       <path id="m477493a718" d="M 0 0 
L -3.5 0 
" style="stroke: #ffffff; stroke-width: 0.8"/>
      </defs>
      <g>
       <use xlink:href="#m477493a718" x="90" y="337.987631" style="fill: #ffffff; stroke: #ffffff; stroke-width: 0.8"/>
      </g>
     </g>
     <g id="text_27">
      <!-- 200 -->
      <g style="fill: #ffffff" transform="translate(63.9125 341.78685) scale(0.1 -0.1)">
       <use xlink:href="#DejaVuSans-32"/>
       <use xlink:href="#DejaVuSans-30" x="63.623047"/>
       <use xlink:href="#DejaVuSans-30" x="127.246094"/>
      </g>
     </g>
    </g>
    <g id="ytick_2">
     <g id="line2d_53">
      <path d="M 90 266.486223 
L 648 266.486223 
" clip-path="url(#pd7de9a3e88)" style="fill: none; stroke: #ffffff; stroke-width: 0.8; stroke-linecap: square"/>
     </g>
     <g id="line2d_54">
      <g>
       <use xlink:href="#m477493a718" x="90" y="266.486223" style="fill: #ffffff; stroke: #ffffff; stroke-width: 0.8"/>
      </g>
     </g>
     <g id="text_28">
      <!-- 400 -->
      <g style="fill: #ffffff" transform="translate(63.9125 270.285442) scale(0.1 -0.1)">
       <use xlink:href="#DejaVuSans-34"/>
       <use xlink:href="#DejaVuSans-30" x="63.623047"/>
       <use xlink:href="#DejaVuSans-30" x="127.246094"/>
      </g>
     </g>
    </g>
    <g id="ytick_3">
     <g id="line2d_55">
      <path d="M 90 194.984814 
L 648 194.984814 
" clip-path="url(#pd7de9a3e88)" style="fill: none; stroke: #ffffff; stroke-width: 0.8; stroke-linecap: square"/>
     </g>
     <g id="line2d_56">
      <g>
       <use xlink:href="#m477493a718" x="90" y="194.984814" style="fill: #ffffff; stroke: #ffffff; stroke-width: 0.8"/>
      </g>
     </g>
     <g id="text_29">
      <!-- 600 -->
      <g style="fill: #ffffff" transform="translate(63.9125 198.784033) scale(0.1 -0.1)">
       <use xlink:href="#DejaVuSans-36"/>
       <use xlink:href="#DejaVuSans-30" x="63.623047"/>
       <use xlink:href="#DejaVuSans-30" x="127.246094"/>
      </g>
     </g>
    </g>
    <g id="ytick_4">
     <g id="line2d_57">
      <path d="M 90 123.483406 
L 648 123.483406 
" clip-path="url(#pd7de9a3e88)" style="fill: none; stroke: #ffffff; stroke-width: 0.8; stroke-linecap: square"/>
     </g>
     <g id="line2d_58">
      <g>
       <use xlink:href="#m477493a718" x="90" y="123.483406" style="fill: #ffffff; stroke: #ffffff; stroke-width: 0.8"/>
      </g>
     </g>
     <g id="text_30">
      <!-- 800 -->
      <g style="fill: #ffffff" transform="translate(63.9125 127.282625) scale(0.1 -0.1)">
       <use xlink:href="#DejaVuSans-38"/>
       <use xlink:href="#DejaVuSans-30" x="63.623047"/>
       <use xlink:href="#DejaVuSans-30" x="127.246094"/>
      </g>
     </g>
    </g>
    <g id="ytick_5">
     <g id="line2d_59">
      <path d="M 90 51.981998 
L 648 51.981998 
" clip-path="url(#pd7de9a3e88)" style="fill: none; stroke: #ffffff; stroke-width: 0.8; stroke-linecap: square"/>
     </g>
     <g id="line2d_60">
      <g>
       <use xlink:href="#m477493a718" x="90" y="51.981998" style="fill: #ffffff; stroke: #ffffff; stroke-width: 0.8"/>
      </g>
     </g>
     <g id="text_31">
      <!-- 1000 -->
      <g style="fill: #ffffff" transform="translate(57.55 55.781216) scale(0.1 -0.1)">
       <use xlink:href="#DejaVuSans-31"/>
       <use xlink:href="#DejaVuSans-30" x="63.623047"/>
       <use xlink:href="#DejaVuSans-30" x="127.246094"/>
       <use xlink:href="#DejaVuSans-30" x="190.869141"/>
      </g>
     </g>
    </g>
    <g id="text_32">
     <!-- time (ms) -->
     <g style="fill: #ffffff" transform="translate(51.470312 242.421719) rotate(-90) scale(0.1 -0.1)">
      <defs>
       <path id="DejaVuSans-74" d="M 1172 4494 
L 1172 3500 
L 2356 3500 
L 2356 3053 
L 1172 3053 
L 1172 1153 
Q 1172 725 1289 603 
Q 1406 481 1766 481 
L 2356 481 
L 2356 0 
L 1766 0 
Q 1100 0 847 248 
Q 594 497 594 1153 
L 594 3053 
L 172 3053 
L 172 3500 
L 594 3500 
L 594 4494 
L 1172 4494 
z
" transform="scale(0.015625)"/>
       <path id="DejaVuSans-6d" d="M 3328 2828 
Q 3544 3216 3844 3400 
Q 4144 3584 4550 3584 
Q 5097 3584 5394 3201 
Q 5691 2819 5691 2113 
L 5691 0 
L 5113 0 
L 5113 2094 
Q 5113 2597 4934 2840 
Q 4756 3084 4391 3084 
Q 3944 3084 3684 2787 
Q 3425 2491 3425 1978 
L 3425 0 
L 2847 0 
L 2847 2094 
Q 2847 2600 2669 2842 
Q 2491 3084 2119 3084 
Q 1678 3084 1418 2786 
Q 1159 2488 1159 1978 
L 1159 0 
L 581 0 
L 581 3500 
L 1159 3500 
L 1159 2956 
Q 1356 3278 1631 3431 
Q 1906 3584 2284 3584 
Q 2666 3584 2933 3390 
Q 3200 3197 3328 2828 
z
" transform="scale(0.015625)"/>
       <path id="DejaVuSans-20" transform="scale(0.015625)"/>
       <path id="DejaVuSans-28" d="M 1984 4856 
Q 1566 4138 1362 3434 
Q 1159 2731 1159 2009 
Q 1159 1288 1364 580 
Q 1569 -128 1984 -844 
L 1484 -844 
Q 1016 -109 783 600 
Q 550 1309 550 2009 
Q 550 2706 781 3412 
Q 1013 4119 1484 4856 
L 1984 4856 
z
" transform="scale(0.015625)"/>
       <path id="DejaVuSans-29" d="M 513 4856 
L 1013 4856 
Q 1481 4119 1714 3412 
Q 1947 2706 1947 2009 
Q 1947 1309 1714 600 
Q 1481 -109 1013 -844 
L 513 -844 
Q 928 -128 1133 580 
Q 1338 1288 1338 2009 
Q 1338 2731 1133 3434 
Q 928 4138 513 4856 
z
" transform="scale(0.015625)"/>
      </defs>
      <use xlink:href="#DejaVuSans-74"/>
      <use xlink:href="#DejaVuSans-69" x="39.208984"/>
      <use xlink:href="#DejaVuSans-6d" x="66.992188"/>
      <use xlink:href="#DejaVuSans-65" x="164.404297"/>
      <use xlink:href="#DejaVuSans-20" x="225.927734"/>
      <use xlink:href="#DejaVuSans-28" x="257.714844"/>
      <use xlink:href="#DejaVuSans-6d" x="296.728516"/>
      <use xlink:href="#DejaVuSans-73" x="394.140625"/>
      <use xlink:href="#DejaVuSans-29" x="446.240234"/>
     </g>
    </g>
   </g>
   <g id="line2d_61">
    <path d="M 115.363636 109.11556 
L 117.057368 110.978288 
L 118.7511 112.52877 
L 120.444832 113.791982 
L 122.138564 114.792897 
L 123.832296 115.556492 
L 125.526028 116.107741 
L 127.21976 116.471618 
L 129.760358 116.720744 
L 132.300956 116.688768 
L 135.68842 116.354548 
L 144.15708 115.299405 
L 146.697678 115.266654 
L 149.238276 115.514732 
L 150.932008 115.877759 
L 152.62574 116.428035 
L 154.319472 117.190536 
L 156.013204 118.190237 
L 157.706936 119.452111 
L 159.400668 120.987921 
L 161.941266 123.725744 
L 164.481864 126.848979 
L 168.716194 132.496751 
L 172.950524 138.085783 
L 175.491122 141.117383 
L 177.184854 142.910247 
L 178.878586 144.46785 
L 180.572317 145.758657 
L 182.266049 146.796379 
L 183.959781 147.604101 
L 185.653513 148.204909 
L 187.347245 148.621888 
L 189.887843 148.953176 
L 192.428441 149.000705 
L 195.815905 148.757337 
L 207.672029 147.513931 
L 210.212627 147.521018 
L 212.753225 147.717422 
L 215.293823 148.144012 
L 217.834421 148.841659 
L 220.375019 149.851233 
L 222.915617 151.205986 
L 225.456215 152.869702 
L 228.843679 155.44172 
L 233.924875 159.702772 
L 239.006071 163.923196 
L 242.393535 166.422991 
L 244.934133 168.025976 
L 247.474731 169.387005 
L 250.015329 170.513287 
L 252.555927 171.412026 
L 255.096525 172.090428 
L 257.637122 172.555698 
L 260.17772 172.815044 
L 262.718318 172.87567 
L 265.258916 172.747039 
L 268.64638 172.331494 
L 272.88071 171.544956 
L 283.889968 169.304936 
L 287.277432 168.900646 
L 290.664896 168.742687 
L 294.05236 168.864865 
L 296.592958 169.160648 
L 299.133556 169.647242 
L 301.674154 170.33889 
L 304.214752 171.249837 
L 306.75535 172.393406 
L 309.295948 173.756976 
L 312.683412 175.845221 
L 316.917742 178.746151 
L 327.080134 185.887072 
L 331.314463 188.482534 
L 334.701927 190.326655 
L 338.089391 191.965688 
L 341.476855 193.400884 
L 344.864319 194.633492 
L 348.251783 195.664786 
L 352.486113 196.710462 
L 362.648505 199.068562 
L 366.035969 200.124124 
L 368.576567 201.098364 
L 371.117165 202.264009 
L 374.504629 204.078736 
L 378.738959 206.632641 
L 389.748217 213.486113 
L 393.982547 215.735357 
L 399.910609 218.559582 
L 406.685537 221.81739 
L 410.919866 224.13747 
L 414.30733 226.252575 
L 427.01032 234.572185 
L 429.550918 235.928954 
L 432.091516 237.062209 
L 434.632114 237.935267 
L 438.019578 238.790455 
L 447.335104 240.870381 
L 449.875702 241.762665 
L 452.4163 242.953818 
L 454.110032 243.955345 
L 456.65063 245.777875 
L 459.191228 247.904469 
L 462.578692 251.047706 
L 470.200486 258.30152 
L 472.741084 260.435454 
L 475.281682 262.268463 
L 477.82228 263.759415 
L 480.362878 264.976268 
L 483.750341 266.312513 
L 492.219001 269.413243 
L 494.759599 270.608487 
L 497.300197 272.065011 
L 499.840795 273.775654 
L 503.228259 276.323658 
L 512.543785 283.514371 
L 515.084383 285.168279 
L 517.624981 286.547689 
L 520.165579 287.622364 
L 522.706177 288.446542 
L 526.093641 289.265537 
L 532.021703 290.351592 
L 536.256033 291.233114 
L 538.796631 291.945134 
L 541.337229 292.842342 
L 544.724693 294.292839 
L 548.112157 295.980504 
L 552.346487 298.33491 
L 559.121414 302.399722 
L 567.590074 307.445518 
L 572.67127 310.26074 
L 576.9056 312.402517 
L 581.13993 314.301378 
L 584.527394 315.608453 
L 587.914858 316.693996 
L 591.302322 317.527071 
L 594.689786 318.076744 
L 597.230384 318.284407 
L 599.770982 318.302204 
L 602.31158 318.117086 
L 604.852178 317.716001 
L 607.392776 317.085899 
L 609.933374 316.213728 
L 612.473972 315.08644 
L 615.01457 313.690982 
L 617.555168 312.014304 
L 620.095766 310.043356 
L 622.636364 307.765087 
L 622.636364 307.765087 
" clip-path="url(#pd7de9a3e88)" style="fill: none; stroke: #8dd3c7; stroke-width: 1.5; stroke-linecap: square"/>
   </g>
   <g id="line2d_62">
    <path d="M 115.363636 107.298727 
L 117.904234 110.920554 
L 120.444832 113.986281 
L 122.138564 115.742644 
L 123.832296 117.284086 
L 125.526028 118.6235 
L 128.066626 120.282025 
L 130.607224 121.558514 
L 133.147822 122.496483 
L 135.68842 123.139449 
L 138.229018 123.530929 
L 140.769616 123.714437 
L 144.15708 123.710818 
L 148.39141 123.452298 
L 156.86007 122.854169 
L 160.247534 122.878715 
L 162.788132 123.137843 
L 164.481864 123.474689 
L 166.175596 123.973636 
L 167.869328 124.661108 
L 169.56306 125.563528 
L 171.256792 126.707319 
L 172.950524 128.118905 
L 174.644256 129.824707 
L 176.337988 131.85115 
L 178.03172 134.224656 
L 179.725452 136.968461 
L 182.266049 141.693108 
L 185.653513 148.708153 
L 190.734709 159.447343 
L 193.275307 164.321938 
L 194.969039 167.202657 
L 196.662771 169.69364 
L 198.356503 171.713865 
L 200.050235 173.182322 
L 200.897101 173.689213 
L 201.743967 174.049468 
L 202.590833 174.271553 
L 203.437699 174.363936 
L 204.284565 174.335082 
L 205.978297 173.947529 
L 207.672029 173.176628 
L 209.365761 172.090107 
L 211.059493 170.755699 
L 213.600091 168.43746 
L 219.528153 162.735933 
L 221.221885 161.336539 
L 222.915617 160.148235 
L 224.609349 159.179262 
L 226.303081 158.429761 
L 227.996813 157.899871 
L 229.690545 157.589735 
L 231.384277 157.499493 
L 233.078009 157.629287 
L 234.771741 157.979256 
L 236.465473 158.549544 
L 238.159205 159.340289 
L 239.852937 160.351634 
L 241.546669 161.58372 
L 243.240401 163.034775 
L 245.780999 165.555461 
L 249.168463 169.313943 
L 254.249659 175.042433 
L 256.790256 177.605 
L 258.483988 179.094301 
L 260.17772 180.353694 
L 261.871452 181.336337 
L 263.565184 181.995432 
L 265.258916 182.304305 
L 266.952648 182.288644 
L 268.64638 181.982546 
L 270.340112 181.420104 
L 272.033844 180.635415 
L 274.574442 179.116247 
L 277.11504 177.288805 
L 281.34937 173.87055 
L 286.430566 169.805062 
L 289.81803 167.449814 
L 292.358628 165.957874 
L 294.899226 164.754583 
L 296.592958 164.136468 
L 298.28669 163.68222 
L 299.980422 163.406069 
L 301.674154 163.322247 
L 303.367886 163.444984 
L 305.061618 163.788513 
L 306.75535 164.364922 
L 308.449082 165.163188 
L 310.142814 166.158191 
L 312.683412 167.96418 
L 315.22401 170.070379 
L 318.611474 173.197919 
L 327.927 182.114764 
L 331.314463 184.956153 
L 334.701927 187.505298 
L 338.089391 189.772497 
L 341.476855 191.768049 
L 344.864319 193.502253 
L 348.251783 194.98541 
L 351.639247 196.230742 
L 355.026711 197.259773 
L 359.261041 198.276923 
L 363.495371 199.036949 
L 367.729701 199.584763 
L 378.738959 200.796431 
L 381.279557 201.35333 
L 383.820155 202.137638 
L 386.360753 203.207862 
L 388.901351 204.622509 
L 390.595083 205.78569 
L 393.135681 207.860797 
L 395.676279 210.24799 
L 399.063743 213.741743 
L 406.685537 221.733921 
L 409.226134 224.079101 
L 411.766732 226.09666 
L 414.30733 227.735987 
L 416.847928 229.060262 
L 419.388526 230.148334 
L 423.622856 231.651055 
L 429.550918 233.715613 
L 432.091516 234.805435 
L 434.632114 236.118969 
L 438.019578 238.193884 
L 441.407042 240.553254 
L 446.488238 244.421971 
L 455.803764 251.594033 
L 460.038094 254.554118 
L 464.272424 257.270335 
L 468.506754 259.728678 
L 472.741084 261.915143 
L 476.975414 263.818152 
L 481.209744 265.472384 
L 487.137805 267.515716 
L 499.840795 271.766395 
L 503.228259 273.173295 
L 505.768857 274.425656 
L 508.309455 275.900391 
L 510.850053 277.645522 
L 513.390651 279.709073 
L 515.931249 282.139064 
L 518.471847 284.976064 
L 521.859311 289.252016 
L 528.634239 298.065848 
L 531.174837 300.966146 
L 532.868569 302.647002 
L 534.562301 304.069727 
L 536.256033 305.186326 
L 537.949765 305.948808 
L 539.643497 306.322942 
L 541.337229 306.345262 
L 543.030961 306.074977 
L 544.724693 305.571308 
L 547.265291 304.507755 
L 554.887085 300.964584 
L 556.580817 300.485402 
L 558.274548 300.246601 
L 559.96828 300.305946 
L 561.662012 300.675406 
L 563.355744 301.313036 
L 565.049476 302.173798 
L 567.590074 303.784794 
L 570.977538 306.293395 
L 576.058734 310.097158 
L 578.599332 311.688087 
L 580.293064 312.530327 
L 581.986796 313.155626 
L 583.680528 313.575989 
L 585.37426 313.816652 
L 587.914858 313.895918 
L 590.455456 313.712825 
L 593.84292 313.207812 
L 600.617848 312.060458 
L 603.158446 311.843265 
L 605.699044 311.87479 
L 607.392776 312.076047 
L 609.086508 312.450942 
L 610.78024 313.024713 
L 612.473972 313.822597 
L 614.167704 314.869835 
L 615.861436 316.191663 
L 617.555168 317.813321 
L 619.2489 319.760046 
L 620.942632 322.057077 
L 622.636364 324.729653 
L 622.636364 324.729653 
" clip-path="url(#pd7de9a3e88)" style="fill: none; stroke: #feffb3; stroke-width: 1.5; stroke-linecap: square"/>
   </g>
   <g id="line2d_63">
    <path d="M 115.363636 133.332429 
L 117.904234 130.44803 
L 120.444832 127.973723 
L 122.98543 125.891836 
L 125.526028 124.184696 
L 128.066626 122.834628 
L 130.607224 121.82396 
L 133.147822 121.135019 
L 135.68842 120.750129 
L 138.229018 120.651619 
L 140.769616 120.821815 
L 143.310214 121.243043 
L 145.850812 121.89763 
L 148.39141 122.767902 
L 150.932008 123.836187 
L 154.319472 125.538038 
L 157.706936 127.518599 
L 161.941266 130.305352 
L 175.491122 139.610754 
L 178.878586 141.551445 
L 182.266049 143.182864 
L 185.653513 144.545726 
L 189.887843 145.969721 
L 195.815905 147.666747 
L 204.284565 150.096075 
L 210.212627 152.046472 
L 216.140689 154.235342 
L 222.068751 156.682281 
L 227.996813 159.40442 
L 233.078009 161.965235 
L 238.159205 164.742954 
L 244.087267 168.261733 
L 250.015329 171.777751 
L 253.402793 173.482715 
L 255.94339 174.49643 
L 258.483988 175.20963 
L 260.17772 175.485539 
L 261.871452 175.578976 
L 263.565184 175.470403 
L 265.258916 175.152201 
L 266.952648 174.647761 
L 269.493246 173.603966 
L 272.033844 172.300721 
L 276.268174 169.812152 
L 281.34937 166.849789 
L 283.889968 165.601811 
L 286.430566 164.632498 
L 288.124298 164.16969 
L 289.81803 163.86705 
L 291.511762 163.736059 
L 293.205494 163.788198 
L 294.899226 164.034945 
L 296.592958 164.487782 
L 298.28669 165.158188 
L 299.980422 166.057644 
L 301.674154 167.19763 
L 303.367886 168.589625 
L 305.061618 170.245111 
L 306.75535 172.171977 
L 309.295948 175.496287 
L 312.683412 180.45206 
L 318.611474 189.33301 
L 321.152072 192.740737 
L 322.845804 194.742739 
L 324.539536 196.464944 
L 326.233268 197.852545 
L 327.927 198.857213 
L 329.620732 199.495578 
L 331.314463 199.821743 
L 333.008195 199.890262 
L 334.701927 199.755689 
L 337.242525 199.292369 
L 344.017453 197.823159 
L 345.711185 197.698247 
L 347.404917 197.779399 
L 349.098649 198.114814 
L 350.792381 198.693343 
L 352.486113 199.471488 
L 355.026711 200.917122 
L 359.261041 203.703763 
L 362.648505 205.87819 
L 365.189103 207.246922 
L 366.882835 207.952438 
L 368.576567 208.441247 
L 370.270299 208.676001 
L 371.964031 208.675679 
L 373.657763 208.488269 
L 376.198361 207.96186 
L 382.973289 206.268438 
L 384.667021 206.040477 
L 386.360753 205.987127 
L 388.054485 206.156615 
L 389.748217 206.597167 
L 391.441949 207.350143 
L 393.135681 208.401119 
L 394.829413 209.708554 
L 397.370011 212.059295 
L 399.910609 214.752375 
L 404.991805 220.602288 
L 408.379268 224.393752 
L 410.919866 226.9431 
L 413.460464 229.107629 
L 416.001062 230.915813 
L 418.54166 232.450923 
L 421.929124 234.217046 
L 430.397784 238.453707 
L 432.938382 240.015914 
L 435.47898 241.818315 
L 438.866444 244.505504 
L 446.488238 251.013317 
L 450.722568 254.416965 
L 453.263166 256.228517 
L 455.803764 257.80295 
L 458.344362 259.160249 
L 461.731826 260.708941 
L 465.966156 262.37331 
L 474.434816 265.578369 
L 478.669146 267.483616 
L 484.597207 270.443426 
L 492.219001 274.227642 
L 496.453331 276.065688 
L 499.840795 277.313427 
L 504.075125 278.617248 
L 508.309455 279.682069 
L 513.390651 280.712681 
L 526.093641 283.037115 
L 528.634239 283.827403 
L 531.174837 284.868686 
L 533.715435 286.222721 
L 535.409167 287.329659 
L 537.102899 288.621344 
L 538.796631 290.11536 
L 541.337229 292.709308 
L 544.724693 296.616881 
L 552.346487 305.685551 
L 554.887085 308.301421 
L 556.580817 309.812655 
L 558.274548 311.089901 
L 559.96828 312.093173 
L 561.662012 312.81482 
L 563.355744 313.285256 
L 565.049476 313.537078 
L 566.743208 313.602884 
L 569.283806 313.424118 
L 571.824404 313.010176 
L 580.293064 311.344418 
L 582.833662 311.160202 
L 585.37426 311.184934 
L 588.761724 311.479532 
L 592.996054 312.145957 
L 606.54591 314.602672 
L 609.933374 314.841116 
L 612.473972 314.811941 
L 615.01457 314.56371 
L 617.555168 314.059737 
L 620.095766 313.263337 
L 622.636364 312.137823 
L 622.636364 312.137823 
" clip-path="url(#pd7de9a3e88)" style="fill: none; stroke: #bfbbd9; stroke-width: 1.5; stroke-linecap: square"/>
   </g>
   <g id="line2d_64">
    <path d="M 115.363636 111.017561 
L 117.904234 111.727493 
L 120.444832 112.671024 
L 123.832296 114.233339 
L 127.21976 116.069095 
L 131.45409 118.624836 
L 144.15708 126.512572 
L 147.544544 128.286821 
L 150.932008 129.767127 
L 153.472606 130.635695 
L 156.013204 131.259132 
L 158.553802 131.604256 
L 161.0944 131.688154 
L 164.481864 131.54924 
L 170.409926 131.249105 
L 172.950524 131.344724 
L 175.491122 131.71221 
L 177.184854 132.155185 
L 178.878586 132.789407 
L 180.572317 133.630082 
L 183.112915 135.2146 
L 185.653513 137.077198 
L 194.969039 144.283705 
L 197.509637 145.805887 
L 199.203369 146.592782 
L 200.897101 147.157132 
L 202.590833 147.506345 
L 205.131431 147.716337 
L 207.672029 147.674983 
L 214.446957 147.407479 
L 216.987555 147.650043 
L 218.681287 148.028726 
L 220.375019 148.629696 
L 222.068751 149.491799 
L 223.762483 150.61116 
L 225.456215 151.951372 
L 227.996813 154.294362 
L 231.384277 157.843922 
L 239.006071 166.157049 
L 241.546669 168.581923 
L 244.087267 170.634897 
L 246.627865 172.292819 
L 249.168463 173.579861 
L 251.709061 174.520586 
L 254.249659 175.139558 
L 256.790256 175.46134 
L 259.330854 175.510494 
L 261.871452 175.311585 
L 264.41205 174.889703 
L 267.799514 174.05704 
L 279.655638 170.795178 
L 282.196236 170.450567 
L 284.736834 170.373748 
L 287.277432 170.599471 
L 289.81803 171.077738 
L 293.205494 171.995683 
L 305.061618 175.602822 
L 307.602216 176.036415 
L 310.98968 176.380871 
L 318.611474 177.031154 
L 321.152072 177.471937 
L 323.69267 178.147734 
L 326.233268 179.132346 
L 327.927 179.994011 
L 330.467598 181.576662 
L 333.008195 183.434032 
L 336.395659 186.194351 
L 344.864319 193.294367 
L 347.404917 195.140037 
L 349.945515 196.719712 
L 352.486113 198.052496 
L 355.873577 199.544016 
L 360.954773 201.44452 
L 366.035969 203.347143 
L 369.423433 204.842356 
L 372.810897 206.622909 
L 377.045227 209.143541 
L 388.901351 216.457171 
L 392.288815 218.220095 
L 396.523145 220.123964 
L 401.604341 222.130571 
L 411.766732 226.056647 
L 417.694794 228.706461 
L 427.01032 232.923074 
L 431.24465 234.585132 
L 434.632114 235.700383 
L 441.407042 237.606074 
L 445.641372 238.905148 
L 449.028836 240.186735 
L 451.569434 241.364431 
L 454.110032 242.781192 
L 456.65063 244.454627 
L 460.038094 247.003589 
L 464.272424 250.518948 
L 472.741084 257.689172 
L 476.128548 260.254693 
L 479.516012 262.55396 
L 484.597207 265.694294 
L 493.065867 270.881386 
L 496.453331 273.21125 
L 500.687661 276.44087 
L 514.237517 287.11713 
L 517.624981 289.346559 
L 521.012445 291.244914 
L 524.399909 292.856942 
L 527.787373 294.241014 
L 532.021703 295.739467 
L 539.643497 298.132519 
L 546.418425 300.334909 
L 551.499621 302.231729 
L 555.733951 304.074234 
L 559.121414 305.772006 
L 563.355744 308.180553 
L 570.977538 312.5864 
L 574.365002 314.224152 
L 576.9056 315.197619 
L 579.446198 315.885435 
L 581.13993 316.156036 
L 583.680528 316.281198 
L 586.221126 316.130016 
L 589.60859 315.619886 
L 594.689786 314.531452 
L 598.924116 313.685567 
L 601.464714 313.350294 
L 604.005312 313.230001 
L 606.54591 313.394876 
L 608.239642 313.697882 
L 609.933374 314.179622 
L 611.627106 314.860892 
L 613.320838 315.76249 
L 615.01457 316.905212 
L 616.708302 318.309854 
L 618.402034 319.997215 
L 620.095766 321.988089 
L 621.789498 324.303275 
L 622.636364 325.588984 
L 622.636364 325.588984 
" clip-path="url(#pd7de9a3e88)" style="fill: none; stroke: #fa8174; stroke-width: 1.5; stroke-linecap: square"/>
   </g>
   <g id="line2d_65">
    <path d="M 115.363636 111.403379 
L 117.057368 111.160748 
L 118.7511 111.110424 
L 120.444832 111.234827 
L 122.98543 111.710589 
L 125.526028 112.4806 
L 128.066626 113.485529 
L 131.45409 115.088313 
L 144.15708 121.478114 
L 146.697678 122.392853 
L 149.238276 123.048078 
L 150.932008 123.31142 
L 152.62574 123.415472 
L 154.319472 123.342655 
L 156.013204 123.075389 
L 157.706936 122.596096 
L 159.400668 121.901784 
L 161.941266 120.566858 
L 168.716194 116.71274 
L 170.409926 116.006712 
L 172.103658 115.52346 
L 173.79739 115.322871 
L 175.491122 115.464833 
L 177.184854 116.009233 
L 178.878586 117.015954 
L 180.572317 118.517797 
L 182.266049 120.457695 
L 183.959781 122.759963 
L 186.500379 126.727248 
L 189.887843 132.578863 
L 194.122173 139.944983 
L 196.662771 143.938065 
L 198.356503 146.264697 
L 200.050235 148.234703 
L 201.743967 149.79772 
L 203.437699 150.982365 
L 205.131431 151.832616 
L 206.825163 152.39245 
L 208.518895 152.705845 
L 210.212627 152.816781 
L 212.753225 152.699772 
L 216.140689 152.245612 
L 220.375019 151.693496 
L 222.915617 151.624454 
L 225.456215 151.830302 
L 227.996813 152.310222 
L 230.537411 153.06294 
L 233.078009 154.087179 
L 235.618607 155.381666 
L 238.159205 156.945124 
L 240.699803 158.776279 
L 243.240401 160.872532 
L 246.627865 163.984839 
L 253.402793 170.327253 
L 255.94339 172.406975 
L 258.483988 174.151107 
L 260.17772 175.072606 
L 261.871452 175.76273 
L 263.565184 176.188628 
L 265.258916 176.336089 
L 266.952648 176.239402 
L 268.64638 175.940643 
L 271.186978 175.205658 
L 274.574442 173.911128 
L 278.808772 172.260783 
L 281.34937 171.505863 
L 283.043102 171.188276 
L 284.736834 171.068275 
L 286.430566 171.168645 
L 288.124298 171.465026 
L 290.664896 172.208318 
L 293.205494 173.215717 
L 297.439824 175.193314 
L 301.674154 177.118248 
L 304.214752 178.043492 
L 306.75535 178.669954 
L 309.295948 178.986256 
L 312.683412 179.083152 
L 320.305206 179.053356 
L 322.845804 179.308577 
L 325.386402 179.856409 
L 327.080134 180.431534 
L 328.773866 181.193615 
L 331.314463 182.650211 
L 333.855061 184.421751 
L 337.242525 187.154673 
L 341.476855 190.937271 
L 349.098649 197.809192 
L 353.332979 201.221417 
L 357.567309 204.310437 
L 361.801639 207.113584 
L 366.035969 209.66819 
L 371.117165 212.459386 
L 379.585825 216.755323 
L 386.360753 220.300232 
L 390.595083 222.752064 
L 397.370011 227.049315 
L 401.604341 229.633522 
L 404.991805 231.448452 
L 407.532402 232.581617 
L 410.073 233.461625 
L 412.613598 234.039248 
L 415.154196 234.319931 
L 417.694794 234.35998 
L 421.082258 234.139712 
L 426.163454 233.503281 
L 431.24465 232.913742 
L 434.632114 232.773161 
L 437.172712 232.870591 
L 439.71331 233.170369 
L 442.253908 233.697808 
L 444.794506 234.478222 
L 447.335104 235.536922 
L 449.875702 236.89922 
L 452.4163 238.59043 
L 454.956898 240.632624 
L 457.497496 242.989702 
L 460.88496 246.472648 
L 471.047352 257.270814 
L 473.58795 259.587395 
L 476.128548 261.579253 
L 478.669146 263.241018 
L 481.209744 264.632449 
L 484.597207 266.17391 
L 488.831537 267.802294 
L 494.759599 270.037273 
L 498.147063 271.546904 
L 502.381393 273.708818 
L 515.084383 280.48098 
L 518.471847 281.96773 
L 522.706177 283.52858 
L 529.481105 285.685921 
L 535.409167 287.65887 
L 538.796631 288.992488 
L 542.184095 290.549824 
L 545.571559 292.332632 
L 548.959023 294.335755 
L 552.346487 296.554039 
L 556.580817 299.621612 
L 560.815146 303.00488 
L 570.977538 311.408894 
L 574.365002 313.805902 
L 576.9056 315.32203 
L 579.446198 316.529563 
L 581.13993 317.133762 
L 582.833662 317.570663 
L 585.37426 317.937749 
L 587.914858 317.995836 
L 590.455456 317.786458 
L 592.996054 317.351148 
L 596.383518 316.491075 
L 600.617848 315.104975 
L 612.473972 310.95404 
L 615.861436 310.119586 
L 618.402034 309.709339 
L 620.942632 309.530035 
L 622.636364 309.559312 
L 622.636364 309.559312 
" clip-path="url(#pd7de9a3e88)" style="fill: none; stroke: #81b1d2; stroke-width: 1.5; stroke-linecap: square"/>
   </g>
   <g id="line2d_66">
    <path d="M 115.363636 110.460348 
L 117.904234 112.185861 
L 120.444832 113.668607 
L 122.98543 114.933171 
L 126.372894 116.322352 
L 129.760358 117.425631 
L 133.147822 118.301281 
L 137.382152 119.164516 
L 145.003946 120.414798 
L 150.932008 121.47435 
L 155.166338 122.469047 
L 158.553802 123.494659 
L 161.941266 124.759538 
L 165.32873 126.242686 
L 169.56306 128.363236 
L 173.79739 130.73177 
L 178.878586 133.828551 
L 191.581575 141.762943 
L 194.969039 143.559013 
L 198.356503 145.072321 
L 200.897101 145.9761 
L 204.284565 146.88153 
L 208.518895 147.704869 
L 216.140689 149.079742 
L 219.528153 149.958797 
L 222.068751 150.837545 
L 224.609349 151.930856 
L 227.996813 153.684768 
L 231.384277 155.724452 
L 235.618607 158.588332 
L 240.699803 162.337698 
L 250.015329 169.342216 
L 253.402793 171.567749 
L 255.94339 173.00132 
L 258.483988 174.174321 
L 261.024586 175.033976 
L 262.718318 175.406933 
L 264.41205 175.603324 
L 266.105782 175.631833 
L 268.64638 175.412522 
L 271.186978 174.951755 
L 274.574442 174.103816 
L 281.34937 172.337442 
L 283.889968 171.901879 
L 286.430566 171.707986 
L 288.971164 171.749692 
L 291.511762 171.983557 
L 294.899226 172.518806 
L 299.980422 173.590191 
L 305.908484 174.830367 
L 310.98968 175.605771 
L 320.305206 176.935205 
L 323.69267 177.634712 
L 327.080134 178.567981 
L 329.620732 179.461918 
L 332.161329 180.540346 
L 334.701927 181.816671 
L 337.242525 183.304304 
L 339.783123 185.016651 
L 342.323721 186.967122 
L 344.864319 189.169125 
L 347.404917 191.636067 
L 350.792381 195.330339 
L 357.567309 203.319708 
L 360.954773 207.11607 
L 363.495371 209.671968 
L 366.035969 211.861197 
L 367.729701 213.065015 
L 369.423433 214.028097 
L 371.117165 214.740364 
L 372.810897 215.232383 
L 374.504629 215.539388 
L 377.045227 215.730074 
L 380.432691 215.665642 
L 386.360753 215.467843 
L 388.901351 215.658251 
L 390.595083 215.964805 
L 393.135681 216.727429 
L 395.676279 217.786134 
L 399.063743 219.513947 
L 408.379268 224.597487 
L 410.919866 225.678644 
L 413.460464 226.490674 
L 416.847928 227.256899 
L 423.622856 228.587789 
L 426.163454 229.321425 
L 428.704052 230.337679 
L 430.397784 231.221298 
L 432.091516 232.304183 
L 433.785248 233.61021 
L 436.325846 235.947729 
L 438.866444 238.640445 
L 442.253908 242.590575 
L 449.875702 251.693721 
L 452.4163 254.397976 
L 454.956898 256.755367 
L 457.497496 258.730392 
L 460.038094 260.349798 
L 462.578692 261.642388 
L 465.11929 262.636962 
L 467.659888 263.362323 
L 470.200486 263.847272 
L 472.741084 264.12061 
L 476.128548 264.207288 
L 487.137805 264.095953 
L 489.678403 264.464539 
L 491.372135 264.882854 
L 493.065867 265.467383 
L 494.759599 266.242246 
L 496.453331 267.231113 
L 498.147063 268.437294 
L 500.687661 270.598823 
L 503.228259 273.101994 
L 506.615723 276.813371 
L 517.624981 289.337804 
L 520.165579 291.81617 
L 522.706177 294.043969 
L 525.246775 296.014647 
L 527.787373 297.721651 
L 530.327971 299.158427 
L 532.868569 300.318423 
L 535.409167 301.195085 
L 537.949765 301.78186 
L 540.490363 302.083339 
L 543.030961 302.156792 
L 546.418425 302.025881 
L 554.040219 301.616569 
L 556.580817 301.70374 
L 559.121414 302.024084 
L 561.662012 302.630338 
L 564.20261 303.484186 
L 567.590074 304.897006 
L 579.446198 310.217044 
L 581.986796 311.013876 
L 585.37426 311.779632 
L 588.761724 312.300114 
L 595.536652 313.020169 
L 599.770982 313.55141 
L 603.158446 314.186696 
L 605.699044 314.853903 
L 608.239642 315.733227 
L 610.78024 316.868428 
L 613.320838 318.303267 
L 615.861436 320.081503 
L 618.402034 322.246898 
L 620.942632 324.843211 
L 622.636364 326.835096 
L 622.636364 326.835096 
" clip-path="url(#pd7de9a3e88)" style="fill: none; stroke: #fdb462; stroke-width: 1.5; stroke-linecap: square"/>
   </g>
   <g id="patch_3">
    <path d="M 90 384.48 
L 90 51.84 
" style="fill: none; stroke: #ffffff; stroke-width: 0.8; stroke-linejoin: miter; stroke-linecap: square"/>
   </g>
   <g id="patch_4">
    <path d="M 648 384.48 
L 648 51.84 
" style="fill: none; stroke: #ffffff; stroke-width: 0.8; stroke-linejoin: miter; stroke-linecap: square"/>
   </g>
   <g id="patch_5">
    <path d="M 90 384.48 
L 648 384.48 
" style="fill: none; stroke: #ffffff; stroke-width: 0.8; stroke-linejoin: miter; stroke-linecap: square"/>
   </g>
   <g id="patch_6">
    <path d="M 90 51.84 
L 648 51.84 
" style="fill: none; stroke: #ffffff; stroke-width: 0.8; stroke-linejoin: miter; stroke-linecap: square"/>
   </g>
   <g id="text_33">
    <!-- caio.python_aio_asyncio - read (Time vs Chunk Size) -->
    <g style="fill: #ffffff" transform="translate(211.544062 45.84) scale(0.12 -0.12)">
     <defs>
      <path id="DejaVuSans-61" d="M 2194 1759 
Q 1497 1759 1228 1600 
Q 959 1441 959 1056 
Q 959 750 1161 570 
Q 1363 391 1709 391 
Q 2188 391 2477 730 
Q 2766 1069 2766 1631 
L 2766 1759 
L 2194 1759 
z
M 3341 1997 
L 3341 0 
L 2766 0 
L 2766 531 
Q 2569 213 2275 61 
Q 1981 -91 1556 -91 
Q 1019 -91 701 211 
Q 384 513 384 1019 
Q 384 1609 779 1909 
Q 1175 2209 1959 2209 
L 2766 2209 
L 2766 2266 
Q 2766 2663 2505 2880 
Q 2244 3097 1772 3097 
Q 1472 3097 1187 3025 
Q 903 2953 641 2809 
L 641 3341 
Q 956 3463 1253 3523 
Q 1550 3584 1831 3584 
Q 2591 3584 2966 3190 
Q 3341 2797 3341 1997 
z
" transform="scale(0.015625)"/>
      <path id="DejaVuSans-6f" d="M 1959 3097 
Q 1497 3097 1228 2736 
Q 959 2375 959 1747 
Q 959 1119 1226 758 
Q 1494 397 1959 397 
Q 2419 397 2687 759 
Q 2956 1122 2956 1747 
Q 2956 2369 2687 2733 
Q 2419 3097 1959 3097 
z
M 1959 3584 
Q 2709 3584 3137 3096 
Q 3566 2609 3566 1747 
Q 3566 888 3137 398 
Q 2709 -91 1959 -91 
Q 1206 -91 779 398 
Q 353 888 353 1747 
Q 353 2609 779 3096 
Q 1206 3584 1959 3584 
z
" transform="scale(0.015625)"/>
      <path id="DejaVuSans-2e" d="M 684 794 
L 1344 794 
L 1344 0 
L 684 0 
L 684 794 
z
" transform="scale(0.015625)"/>
      <path id="DejaVuSans-70" d="M 1159 525 
L 1159 -1331 
L 581 -1331 
L 581 3500 
L 1159 3500 
L 1159 2969 
Q 1341 3281 1617 3432 
Q 1894 3584 2278 3584 
Q 2916 3584 3314 3078 
Q 3713 2572 3713 1747 
Q 3713 922 3314 415 
Q 2916 -91 2278 -91 
Q 1894 -91 1617 61 
Q 1341 213 1159 525 
z
M 3116 1747 
Q 3116 2381 2855 2742 
Q 2594 3103 2138 3103 
Q 1681 3103 1420 2742 
Q 1159 2381 1159 1747 
Q 1159 1113 1420 752 
Q 1681 391 2138 391 
Q 2594 391 2855 752 
Q 3116 1113 3116 1747 
z
" transform="scale(0.015625)"/>
      <path id="DejaVuSans-79" d="M 2059 -325 
Q 1816 -950 1584 -1140 
Q 1353 -1331 966 -1331 
L 506 -1331 
L 506 -850 
L 844 -850 
Q 1081 -850 1212 -737 
Q 1344 -625 1503 -206 
L 1606 56 
L 191 3500 
L 800 3500 
L 1894 763 
L 2988 3500 
L 3597 3500 
L 2059 -325 
z
" transform="scale(0.015625)"/>
      <path id="DejaVuSans-2d" d="M 313 2009 
L 1997 2009 
L 1997 1497 
L 313 1497 
L 313 2009 
z
" transform="scale(0.015625)"/>
      <path id="DejaVuSans-72" d="M 2631 2963 
Q 2534 3019 2420 3045 
Q 2306 3072 2169 3072 
Q 1681 3072 1420 2755 
Q 1159 2438 1159 1844 
L 1159 0 
L 581 0 
L 581 3500 
L 1159 3500 
L 1159 2956 
Q 1341 3275 1631 3429 
Q 1922 3584 2338 3584 
Q 2397 3584 2469 3576 
Q 2541 3569 2628 3553 
L 2631 2963 
z
" transform="scale(0.015625)"/>
      <path id="DejaVuSans-64" d="M 2906 2969 
L 2906 4863 
L 3481 4863 
L 3481 0 
L 2906 0 
L 2906 525 
Q 2725 213 2448 61 
Q 2172 -91 1784 -91 
Q 1150 -91 751 415 
Q 353 922 353 1747 
Q 353 2572 751 3078 
Q 1150 3584 1784 3584 
Q 2172 3584 2448 3432 
Q 2725 3281 2906 2969 
z
M 947 1747 
Q 947 1113 1208 752 
Q 1469 391 1925 391 
Q 2381 391 2643 752 
Q 2906 1113 2906 1747 
Q 2906 2381 2643 2742 
Q 2381 3103 1925 3103 
Q 1469 3103 1208 2742 
Q 947 2381 947 1747 
z
" transform="scale(0.015625)"/>
      <path id="DejaVuSans-54" d="M -19 4666 
L 3928 4666 
L 3928 4134 
L 2272 4134 
L 2272 0 
L 1638 0 
L 1638 4134 
L -19 4134 
L -19 4666 
z
" transform="scale(0.015625)"/>
      <path id="DejaVuSans-76" d="M 191 3500 
L 800 3500 
L 1894 563 
L 2988 3500 
L 3597 3500 
L 2284 0 
L 1503 0 
L 191 3500 
z
" transform="scale(0.015625)"/>
      <path id="DejaVuSans-43" d="M 4122 4306 
L 4122 3641 
Q 3803 3938 3442 4084 
Q 3081 4231 2675 4231 
Q 1875 4231 1450 3742 
Q 1025 3253 1025 2328 
Q 1025 1406 1450 917 
Q 1875 428 2675 428 
Q 3081 428 3442 575 
Q 3803 722 4122 1019 
L 4122 359 
Q 3791 134 3420 21 
Q 3050 -91 2638 -91 
Q 1578 -91 968 557 
Q 359 1206 359 2328 
Q 359 3453 968 4101 
Q 1578 4750 2638 4750 
Q 3056 4750 3426 4639 
Q 3797 4528 4122 4306 
z
" transform="scale(0.015625)"/>
      <path id="DejaVuSans-53" d="M 3425 4513 
L 3425 3897 
Q 3066 4069 2747 4153 
Q 2428 4238 2131 4238 
Q 1616 4238 1336 4038 
Q 1056 3838 1056 3469 
Q 1056 3159 1242 3001 
Q 1428 2844 1947 2747 
L 2328 2669 
Q 3034 2534 3370 2195 
Q 3706 1856 3706 1288 
Q 3706 609 3251 259 
Q 2797 -91 1919 -91 
Q 1588 -91 1214 -16 
Q 841 59 441 206 
L 441 856 
Q 825 641 1194 531 
Q 1563 422 1919 422 
Q 2459 422 2753 634 
Q 3047 847 3047 1241 
Q 3047 1584 2836 1778 
Q 2625 1972 2144 2069 
L 1759 2144 
Q 1053 2284 737 2584 
Q 422 2884 422 3419 
Q 422 4038 858 4394 
Q 1294 4750 2059 4750 
Q 2388 4750 2728 4690 
Q 3069 4631 3425 4513 
z
" transform="scale(0.015625)"/>
     </defs>
     <use xlink:href="#DejaVuSans-63"/>
     <use xlink:href="#DejaVuSans-61" x="54.980469"/>
     <use xlink:href="#DejaVuSans-69" x="116.259766"/>
     <use xlink:href="#DejaVuSans-6f" x="144.042969"/>
     <use xlink:href="#DejaVuSans-2e" x="203.474609"/>
     <use xlink:href="#DejaVuSans-70" x="235.261719"/>
     <use xlink:href="#DejaVuSans-79" x="298.738281"/>
     <use xlink:href="#DejaVuSans-74" x="357.917969"/>
     <use xlink:href="#DejaVuSans-68" x="397.126953"/>
     <use xlink:href="#DejaVuSans-6f" x="460.505859"/>
     <use xlink:href="#DejaVuSans-6e" x="521.6875"/>
     <use xlink:href="#DejaVuSans-5f" x="585.066406"/>
     <use xlink:href="#DejaVuSans-61" x="635.066406"/>
     <use xlink:href="#DejaVuSans-69" x="696.345703"/>
     <use xlink:href="#DejaVuSans-6f" x="724.128906"/>
     <use xlink:href="#DejaVuSans-5f" x="785.310547"/>
     <use xlink:href="#DejaVuSans-61" x="835.310547"/>
     <use xlink:href="#DejaVuSans-73" x="896.589844"/>
     <use xlink:href="#DejaVuSans-79" x="948.689453"/>
     <use xlink:href="#DejaVuSans-6e" x="1007.869141"/>
     <use xlink:href="#DejaVuSans-63" x="1071.248047"/>
     <use xlink:href="#DejaVuSans-69" x="1126.228516"/>
     <use xlink:href="#DejaVuSans-6f" x="1154.011719"/>
     <use xlink:href="#DejaVuSans-20" x="1215.193359"/>
     <use xlink:href="#DejaVuSans-2d" x="1246.980469"/>
     <use xlink:href="#DejaVuSans-20" x="1283.064453"/>
     <use xlink:href="#DejaVuSans-72" x="1314.851562"/>
     <use xlink:href="#DejaVuSans-65" x="1353.714844"/>
     <use xlink:href="#DejaVuSans-61" x="1415.238281"/>
     <use xlink:href="#DejaVuSans-64" x="1476.517578"/>
     <use xlink:href="#DejaVuSans-20" x="1539.994141"/>
     <use xlink:href="#DejaVuSans-28" x="1571.78125"/>
     <use xlink:href="#DejaVuSans-54" x="1610.794922"/>
     <use xlink:href="#DejaVuSans-69" x="1668.753906"/>
     <use xlink:href="#DejaVuSans-6d" x="1696.537109"/>
     <use xlink:href="#DejaVuSans-65" x="1793.949219"/>
     <use xlink:href="#DejaVuSans-20" x="1855.472656"/>
     <use xlink:href="#DejaVuSans-76" x="1887.259766"/>
     <use xlink:href="#DejaVuSans-73" x="1946.439453"/>
     <use xlink:href="#DejaVuSans-20" x="1998.539062"/>
     <use xlink:href="#DejaVuSans-43" x="2030.326172"/>
     <use xlink:href="#DejaVuSans-68" x="2100.150391"/>
     <use xlink:href="#DejaVuSans-75" x="2163.529297"/>
     <use xlink:href="#DejaVuSans-6e" x="2226.908203"/>
     <use xlink:href="#DejaVuSans-6b" x="2290.287109"/>
     <use xlink:href="#DejaVuSans-20" x="2348.197266"/>
     <use xlink:href="#DejaVuSans-53" x="2379.984375"/>
     <use xlink:href="#DejaVuSans-69" x="2443.460938"/>
     <use xlink:href="#DejaVuSans-7a" x="2471.244141"/>
     <use xlink:href="#DejaVuSans-65" x="2523.734375"/>
     <use xlink:href="#DejaVuSans-29" x="2585.257812"/>
    </g>
   </g>
   <g id="legend_1">
    <g id="patch_7">
     <path d="M 543.43125 149.5775 
L 641 149.5775 
Q 643 149.5775 643 147.5775 
L 643 58.84 
Q 643 56.84 641 56.84 
L 543.43125 56.84 
Q 541.43125 56.84 541.43125 58.84 
L 541.43125 147.5775 
Q 541.43125 149.5775 543.43125 149.5775 
z
" style="opacity: 0.8; stroke: #cccccc; stroke-linejoin: miter"/>
    </g>
    <g id="line2d_67">
     <path d="M 545.43125 64.938437 
L 555.43125 64.938437 
L 565.43125 64.938437 
" style="fill: none; stroke: #8dd3c7; stroke-width: 1.5; stroke-linecap: square"/>
    </g>
    <g id="text_34">
     <!-- max_ops=1 -->
     <g style="fill: #ffffff" transform="translate(573.43125 68.438437) scale(0.1 -0.1)">
      <defs>
       <path id="DejaVuSans-78" d="M 3513 3500 
L 2247 1797 
L 3578 0 
L 2900 0 
L 1881 1375 
L 863 0 
L 184 0 
L 1544 1831 
L 300 3500 
L 978 3500 
L 1906 2253 
L 2834 3500 
L 3513 3500 
z
" transform="scale(0.015625)"/>
       <path id="DejaVuSans-3d" d="M 678 2906 
L 4684 2906 
L 4684 2381 
L 678 2381 
L 678 2906 
z
M 678 1631 
L 4684 1631 
L 4684 1100 
L 678 1100 
L 678 1631 
z
" transform="scale(0.015625)"/>
      </defs>
      <use xlink:href="#DejaVuSans-6d"/>
      <use xlink:href="#DejaVuSans-61" x="97.412109"/>
      <use xlink:href="#DejaVuSans-78" x="158.691406"/>
      <use xlink:href="#DejaVuSans-5f" x="217.871094"/>
      <use xlink:href="#DejaVuSans-6f" x="267.871094"/>
      <use xlink:href="#DejaVuSans-70" x="329.052734"/>
      <use xlink:href="#DejaVuSans-73" x="392.529297"/>
      <use xlink:href="#DejaVuSans-3d" x="444.628906"/>
      <use xlink:href="#DejaVuSans-31" x="528.417969"/>
     </g>
    </g>
    <g id="line2d_68">
     <path d="M 545.43125 79.894687 
L 555.43125 79.894687 
L 565.43125 79.894687 
" style="fill: none; stroke: #feffb3; stroke-width: 1.5; stroke-linecap: square"/>
    </g>
    <g id="text_35">
     <!-- max_ops=4 -->
     <g style="fill: #ffffff" transform="translate(573.43125 83.394687) scale(0.1 -0.1)">
      <use xlink:href="#DejaVuSans-6d"/>
      <use xlink:href="#DejaVuSans-61" x="97.412109"/>
      <use xlink:href="#DejaVuSans-78" x="158.691406"/>
      <use xlink:href="#DejaVuSans-5f" x="217.871094"/>
      <use xlink:href="#DejaVuSans-6f" x="267.871094"/>
      <use xlink:href="#DejaVuSans-70" x="329.052734"/>
      <use xlink:href="#DejaVuSans-73" x="392.529297"/>
      <use xlink:href="#DejaVuSans-3d" x="444.628906"/>
      <use xlink:href="#DejaVuSans-34" x="528.417969"/>
     </g>
    </g>
    <g id="line2d_69">
     <path d="M 545.43125 94.850937 
L 555.43125 94.850937 
L 565.43125 94.850937 
" style="fill: none; stroke: #bfbbd9; stroke-width: 1.5; stroke-linecap: square"/>
    </g>
    <g id="text_36">
     <!-- max_ops=8 -->
     <g style="fill: #ffffff" transform="translate(573.43125 98.350937) scale(0.1 -0.1)">
      <use xlink:href="#DejaVuSans-6d"/>
      <use xlink:href="#DejaVuSans-61" x="97.412109"/>
      <use xlink:href="#DejaVuSans-78" x="158.691406"/>
      <use xlink:href="#DejaVuSans-5f" x="217.871094"/>
      <use xlink:href="#DejaVuSans-6f" x="267.871094"/>
      <use xlink:href="#DejaVuSans-70" x="329.052734"/>
      <use xlink:href="#DejaVuSans-73" x="392.529297"/>
      <use xlink:href="#DejaVuSans-3d" x="444.628906"/>
      <use xlink:href="#DejaVuSans-38" x="528.417969"/>
     </g>
    </g>
    <g id="line2d_70">
     <path d="M 545.43125 109.807187 
L 555.43125 109.807187 
L 565.43125 109.807187 
" style="fill: none; stroke: #fa8174; stroke-width: 1.5; stroke-linecap: square"/>
    </g>
    <g id="text_37">
     <!-- max_ops=16 -->
     <g style="fill: #ffffff" transform="translate(573.43125 113.307187) scale(0.1 -0.1)">
      <use xlink:href="#DejaVuSans-6d"/>
      <use xlink:href="#DejaVuSans-61" x="97.412109"/>
      <use xlink:href="#DejaVuSans-78" x="158.691406"/>
      <use xlink:href="#DejaVuSans-5f" x="217.871094"/>
      <use xlink:href="#DejaVuSans-6f" x="267.871094"/>
      <use xlink:href="#DejaVuSans-70" x="329.052734"/>
      <use xlink:href="#DejaVuSans-73" x="392.529297"/>
      <use xlink:href="#DejaVuSans-3d" x="444.628906"/>
      <use xlink:href="#DejaVuSans-31" x="528.417969"/>
      <use xlink:href="#DejaVuSans-36" x="592.041016"/>
     </g>
    </g>
    <g id="line2d_71">
     <path d="M 545.43125 124.763437 
L 555.43125 124.763437 
L 565.43125 124.763437 
" style="fill: none; stroke: #81b1d2; stroke-width: 1.5; stroke-linecap: square"/>
    </g>
    <g id="text_38">
     <!-- max_ops=32 -->
     <g style="fill: #ffffff" transform="translate(573.43125 128.263437) scale(0.1 -0.1)">
      <use xlink:href="#DejaVuSans-6d"/>
      <use xlink:href="#DejaVuSans-61" x="97.412109"/>
      <use xlink:href="#DejaVuSans-78" x="158.691406"/>
      <use xlink:href="#DejaVuSans-5f" x="217.871094"/>
      <use xlink:href="#DejaVuSans-6f" x="267.871094"/>
      <use xlink:href="#DejaVuSans-70" x="329.052734"/>
      <use xlink:href="#DejaVuSans-73" x="392.529297"/>
      <use xlink:href="#DejaVuSans-3d" x="444.628906"/>
      <use xlink:href="#DejaVuSans-33" x="528.417969"/>
      <use xlink:href="#DejaVuSans-32" x="592.041016"/>
     </g>
    </g>
    <g id="line2d_72">
     <path d="M 545.43125 139.719687 
L 555.43125 139.719687 
L 565.43125 139.719687 
" style="fill: none; stroke: #fdb462; stroke-width: 1.5; stroke-linecap: square"/>
    </g>
    <g id="text_39">
     <!-- max_ops=64 -->
     <g style="fill: #ffffff" transform="translate(573.43125 143.219687) scale(0.1 -0.1)">
      <use xlink:href="#DejaVuSans-6d"/>
      <use xlink:href="#DejaVuSans-61" x="97.412109"/>
      <use xlink:href="#DejaVuSans-78" x="158.691406"/>
      <use xlink:href="#DejaVuSans-5f" x="217.871094"/>
      <use xlink:href="#DejaVuSans-6f" x="267.871094"/>
      <use xlink:href="#DejaVuSans-70" x="329.052734"/>
      <use xlink:href="#DejaVuSans-73" x="392.529297"/>
      <use xlink:href="#DejaVuSans-3d" x="444.628906"/>
      <use xlink:href="#DejaVuSans-36" x="528.417969"/>
      <use xlink:href="#DejaVuSans-34" x="592.041016"/>
     </g>
    </g>
   </g>
  </g>
 </g>
 <defs>
  <clipPath id="pd7de9a3e88">
   <rect x="90" y="51.84" width="558" height="332.64"/>
  </clipPath>
 </defs>
</svg>
