<?xml version="1.0" encoding="utf-8" standalone="no"?>
<!DOCTYPE svg PUBLIC "-//W3C//DTD SVG 1.1//EN"
  "http://www.w3.org/Graphics/SVG/1.1/DTD/svg11.dtd">
<svg xmlns:xlink="http://www.w3.org/1999/xlink" width="720pt" height="432pt" viewBox="0 0 720 432" xmlns="http://www.w3.org/2000/svg" version="1.1">
 <metadata>
  <rdf:RDF xmlns:dc="http://purl.org/dc/elements/1.1/" xmlns:cc="http://creativecommons.org/ns#" xmlns:rdf="http://www.w3.org/1999/02/22-rdf-syntax-ns#">
   <cc:Work>
    <dc:type rdf:resource="http://purl.org/dc/dcmitype/StillImage"/>
    <dc:date>2024-01-19T20:47:02.236807</dc:date>
    <dc:format>image/svg+xml</dc:format>
    <dc:creator>
     <cc:Agent>
      <dc:title>Matplotlib v3.8.2, https://matplotlib.org/</dc:title>
     </cc:Agent>
    </dc:creator>
   </cc:Work>
  </rdf:RDF>
 </metadata>
 <defs>
  <style type="text/css">*{stroke-linejoin: round; stroke-linecap: butt}</style>
 </defs>
 <g id="figure_1">
  <g id="patch_1">
   <path d="M 0 432 
L 720 432 
L 720 0 
L 0 0 
z
"/>
  </g>
  <g id="axes_1">
   <g id="patch_2">
    <path d="M 90 384.48 
L 648 384.48 
L 648 51.84 
L 90 51.84 
z
"/>
   </g>
   <g id="matplotlib.axis_1">
    <g id="xtick_1">
     <g id="line2d_1">
      <path d="M 115.363636 384.48 
L 115.363636 51.84 
" clip-path="url(#p27b051b309)" style="fill: none; stroke: #ffffff; stroke-width: 0.8; stroke-linecap: square"/>
     </g>
     <g id="line2d_2">
      <defs>
       <path id="md081505419" d="M 0 0 
L 0 3.5 
" style="stroke: #ffffff; stroke-width: 0.8"/>
      </defs>
      <g>
       <use xlink:href="#md081505419" x="115.363636" y="384.48" style="fill: #ffffff; stroke: #ffffff; stroke-width: 0.8"/>
      </g>
     </g>
     <g id="text_1">
      <!-- 1 -->
      <g style="fill: #ffffff" transform="translate(115.065326 401.351874) rotate(-45) scale(0.1 -0.1)">
       <defs>
        <path id="DejaVuSans-31" d="M 794 531 
L 1825 531 
L 1825 4091 
L 703 3866 
L 703 4441 
L 1819 4666 
L 2450 4666 
L 2450 531 
L 3481 531 
L 3481 0 
L 794 0 
L 794 531 
z
" transform="scale(0.015625)"/>
       </defs>
       <use xlink:href="#DejaVuSans-31"/>
      </g>
     </g>
    </g>
    <g id="xtick_2">
     <g id="line2d_3">
      <path d="M 136.5 384.48 
L 136.5 51.84 
" clip-path="url(#p27b051b309)" style="fill: none; stroke: #ffffff; stroke-width: 0.8; stroke-linecap: square"/>
     </g>
     <g id="line2d_4">
      <g>
       <use xlink:href="#md081505419" x="136.5" y="384.48" style="fill: #ffffff; stroke: #ffffff; stroke-width: 0.8"/>
      </g>
     </g>
     <g id="text_2">
      <!-- 201 -->
      <g style="fill: #ffffff" transform="translate(131.702722 410.349807) rotate(-45) scale(0.1 -0.1)">
       <defs>
        <path id="DejaVuSans-32" d="M 1228 531 
L 3431 531 
L 3431 0 
L 469 0 
L 469 531 
Q 828 903 1448 1529 
Q 2069 2156 2228 2338 
Q 2531 2678 2651 2914 
Q 2772 3150 2772 3378 
Q 2772 3750 2511 3984 
Q 2250 4219 1831 4219 
Q 1534 4219 1204 4116 
Q 875 4013 500 3803 
L 500 4441 
Q 881 4594 1212 4672 
Q 1544 4750 1819 4750 
Q 2544 4750 2975 4387 
Q 3406 4025 3406 3419 
Q 3406 3131 3298 2873 
Q 3191 2616 2906 2266 
Q 2828 2175 2409 1742 
Q 1991 1309 1228 531 
z
" transform="scale(0.015625)"/>
        <path id="DejaVuSans-30" d="M 2034 4250 
Q 1547 4250 1301 3770 
Q 1056 3291 1056 2328 
Q 1056 1369 1301 889 
Q 1547 409 2034 409 
Q 2525 409 2770 889 
Q 3016 1369 3016 2328 
Q 3016 3291 2770 3770 
Q 2525 4250 2034 4250 
z
M 2034 4750 
Q 2819 4750 3233 4129 
Q 3647 3509 3647 2328 
Q 3647 1150 3233 529 
Q 2819 -91 2034 -91 
Q 1250 -91 836 529 
Q 422 1150 422 2328 
Q 422 3509 836 4129 
Q 1250 4750 2034 4750 
z
" transform="scale(0.015625)"/>
       </defs>
       <use xlink:href="#DejaVuSans-32"/>
       <use xlink:href="#DejaVuSans-30" x="63.623047"/>
       <use xlink:href="#DejaVuSans-31" x="127.246094"/>
      </g>
     </g>
    </g>
    <g id="xtick_3">
     <g id="line2d_5">
      <path d="M 157.636364 384.48 
L 157.636364 51.84 
" clip-path="url(#p27b051b309)" style="fill: none; stroke: #ffffff; stroke-width: 0.8; stroke-linecap: square"/>
     </g>
     <g id="line2d_6">
      <g>
       <use xlink:href="#md081505419" x="157.636364" y="384.48" style="fill: #ffffff; stroke: #ffffff; stroke-width: 0.8"/>
      </g>
     </g>
     <g id="text_3">
      <!-- 401 -->
      <g style="fill: #ffffff" transform="translate(152.839086 410.349807) rotate(-45) scale(0.1 -0.1)">
       <defs>
        <path id="DejaVuSans-34" d="M 2419 4116 
L 825 1625 
L 2419 1625 
L 2419 4116 
z
M 2253 4666 
L 3047 4666 
L 3047 1625 
L 3713 1625 
L 3713 1100 
L 3047 1100 
L 3047 0 
L 2419 0 
L 2419 1100 
L 313 1100 
L 313 1709 
L 2253 4666 
z
" transform="scale(0.015625)"/>
       </defs>
       <use xlink:href="#DejaVuSans-34"/>
       <use xlink:href="#DejaVuSans-30" x="63.623047"/>
       <use xlink:href="#DejaVuSans-31" x="127.246094"/>
      </g>
     </g>
    </g>
    <g id="xtick_4">
     <g id="line2d_7">
      <path d="M 178.772727 384.48 
L 178.772727 51.84 
" clip-path="url(#p27b051b309)" style="fill: none; stroke: #ffffff; stroke-width: 0.8; stroke-linecap: square"/>
     </g>
     <g id="line2d_8">
      <g>
       <use xlink:href="#md081505419" x="178.772727" y="384.48" style="fill: #ffffff; stroke: #ffffff; stroke-width: 0.8"/>
      </g>
     </g>
     <g id="text_4">
      <!-- 601 -->
      <g style="fill: #ffffff" transform="translate(173.97545 410.349807) rotate(-45) scale(0.1 -0.1)">
       <defs>
        <path id="DejaVuSans-36" d="M 2113 2584 
Q 1688 2584 1439 2293 
Q 1191 2003 1191 1497 
Q 1191 994 1439 701 
Q 1688 409 2113 409 
Q 2538 409 2786 701 
Q 3034 994 3034 1497 
Q 3034 2003 2786 2293 
Q 2538 2584 2113 2584 
z
M 3366 4563 
L 3366 3988 
Q 3128 4100 2886 4159 
Q 2644 4219 2406 4219 
Q 1781 4219 1451 3797 
Q 1122 3375 1075 2522 
Q 1259 2794 1537 2939 
Q 1816 3084 2150 3084 
Q 2853 3084 3261 2657 
Q 3669 2231 3669 1497 
Q 3669 778 3244 343 
Q 2819 -91 2113 -91 
Q 1303 -91 875 529 
Q 447 1150 447 2328 
Q 447 3434 972 4092 
Q 1497 4750 2381 4750 
Q 2619 4750 2861 4703 
Q 3103 4656 3366 4563 
z
" transform="scale(0.015625)"/>
       </defs>
       <use xlink:href="#DejaVuSans-36"/>
       <use xlink:href="#DejaVuSans-30" x="63.623047"/>
       <use xlink:href="#DejaVuSans-31" x="127.246094"/>
      </g>
     </g>
    </g>
    <g id="xtick_5">
     <g id="line2d_9">
      <path d="M 199.909091 384.48 
L 199.909091 51.84 
" clip-path="url(#p27b051b309)" style="fill: none; stroke: #ffffff; stroke-width: 0.8; stroke-linecap: square"/>
     </g>
     <g id="line2d_10">
      <g>
       <use xlink:href="#md081505419" x="199.909091" y="384.48" style="fill: #ffffff; stroke: #ffffff; stroke-width: 0.8"/>
      </g>
     </g>
     <g id="text_5">
      <!-- 801 -->
      <g style="fill: #ffffff" transform="translate(195.111813 410.349807) rotate(-45) scale(0.1 -0.1)">
       <defs>
        <path id="DejaVuSans-38" d="M 2034 2216 
Q 1584 2216 1326 1975 
Q 1069 1734 1069 1313 
Q 1069 891 1326 650 
Q 1584 409 2034 409 
Q 2484 409 2743 651 
Q 3003 894 3003 1313 
Q 3003 1734 2745 1975 
Q 2488 2216 2034 2216 
z
M 1403 2484 
Q 997 2584 770 2862 
Q 544 3141 544 3541 
Q 544 4100 942 4425 
Q 1341 4750 2034 4750 
Q 2731 4750 3128 4425 
Q 3525 4100 3525 3541 
Q 3525 3141 3298 2862 
Q 3072 2584 2669 2484 
Q 3125 2378 3379 2068 
Q 3634 1759 3634 1313 
Q 3634 634 3220 271 
Q 2806 -91 2034 -91 
Q 1263 -91 848 271 
Q 434 634 434 1313 
Q 434 1759 690 2068 
Q 947 2378 1403 2484 
z
M 1172 3481 
Q 1172 3119 1398 2916 
Q 1625 2713 2034 2713 
Q 2441 2713 2670 2916 
Q 2900 3119 2900 3481 
Q 2900 3844 2670 4047 
Q 2441 4250 2034 4250 
Q 1625 4250 1398 4047 
Q 1172 3844 1172 3481 
z
" transform="scale(0.015625)"/>
       </defs>
       <use xlink:href="#DejaVuSans-38"/>
       <use xlink:href="#DejaVuSans-30" x="63.623047"/>
       <use xlink:href="#DejaVuSans-31" x="127.246094"/>
      </g>
     </g>
    </g>
    <g id="xtick_6">
     <g id="line2d_11">
      <path d="M 221.045455 384.48 
L 221.045455 51.84 
" clip-path="url(#p27b051b309)" style="fill: none; stroke: #ffffff; stroke-width: 0.8; stroke-linecap: square"/>
     </g>
     <g id="line2d_12">
      <g>
       <use xlink:href="#md081505419" x="221.045455" y="384.48" style="fill: #ffffff; stroke: #ffffff; stroke-width: 0.8"/>
      </g>
     </g>
     <g id="text_6">
      <!-- 1001 -->
      <g style="fill: #ffffff" transform="translate(213.998694 414.848774) rotate(-45) scale(0.1 -0.1)">
       <use xlink:href="#DejaVuSans-31"/>
       <use xlink:href="#DejaVuSans-30" x="63.623047"/>
       <use xlink:href="#DejaVuSans-30" x="127.246094"/>
       <use xlink:href="#DejaVuSans-31" x="190.869141"/>
      </g>
     </g>
    </g>
    <g id="xtick_7">
     <g id="line2d_13">
      <path d="M 242.181818 384.48 
L 242.181818 51.84 
" clip-path="url(#p27b051b309)" style="fill: none; stroke: #ffffff; stroke-width: 0.8; stroke-linecap: square"/>
     </g>
     <g id="line2d_14">
      <g>
       <use xlink:href="#md081505419" x="242.181818" y="384.48" style="fill: #ffffff; stroke: #ffffff; stroke-width: 0.8"/>
      </g>
     </g>
     <g id="text_7">
      <!-- 1201 -->
      <g style="fill: #ffffff" transform="translate(235.135057 414.848774) rotate(-45) scale(0.1 -0.1)">
       <use xlink:href="#DejaVuSans-31"/>
       <use xlink:href="#DejaVuSans-32" x="63.623047"/>
       <use xlink:href="#DejaVuSans-30" x="127.246094"/>
       <use xlink:href="#DejaVuSans-31" x="190.869141"/>
      </g>
     </g>
    </g>
    <g id="xtick_8">
     <g id="line2d_15">
      <path d="M 263.318182 384.48 
L 263.318182 51.84 
" clip-path="url(#p27b051b309)" style="fill: none; stroke: #ffffff; stroke-width: 0.8; stroke-linecap: square"/>
     </g>
     <g id="line2d_16">
      <g>
       <use xlink:href="#md081505419" x="263.318182" y="384.48" style="fill: #ffffff; stroke: #ffffff; stroke-width: 0.8"/>
      </g>
     </g>
     <g id="text_8">
      <!-- 1401 -->
      <g style="fill: #ffffff" transform="translate(256.271421 414.848774) rotate(-45) scale(0.1 -0.1)">
       <use xlink:href="#DejaVuSans-31"/>
       <use xlink:href="#DejaVuSans-34" x="63.623047"/>
       <use xlink:href="#DejaVuSans-30" x="127.246094"/>
       <use xlink:href="#DejaVuSans-31" x="190.869141"/>
      </g>
     </g>
    </g>
    <g id="xtick_9">
     <g id="line2d_17">
      <path d="M 284.454545 384.48 
L 284.454545 51.84 
" clip-path="url(#p27b051b309)" style="fill: none; stroke: #ffffff; stroke-width: 0.8; stroke-linecap: square"/>
     </g>
     <g id="line2d_18">
      <g>
       <use xlink:href="#md081505419" x="284.454545" y="384.48" style="fill: #ffffff; stroke: #ffffff; stroke-width: 0.8"/>
      </g>
     </g>
     <g id="text_9">
      <!-- 1601 -->
      <g style="fill: #ffffff" transform="translate(277.407784 414.848774) rotate(-45) scale(0.1 -0.1)">
       <use xlink:href="#DejaVuSans-31"/>
       <use xlink:href="#DejaVuSans-36" x="63.623047"/>
       <use xlink:href="#DejaVuSans-30" x="127.246094"/>
       <use xlink:href="#DejaVuSans-31" x="190.869141"/>
      </g>
     </g>
    </g>
    <g id="xtick_10">
     <g id="line2d_19">
      <path d="M 305.590909 384.48 
L 305.590909 51.84 
" clip-path="url(#p27b051b309)" style="fill: none; stroke: #ffffff; stroke-width: 0.8; stroke-linecap: square"/>
     </g>
     <g id="line2d_20">
      <g>
       <use xlink:href="#md081505419" x="305.590909" y="384.48" style="fill: #ffffff; stroke: #ffffff; stroke-width: 0.8"/>
      </g>
     </g>
     <g id="text_10">
      <!-- 1801 -->
      <g style="fill: #ffffff" transform="translate(298.544148 414.848774) rotate(-45) scale(0.1 -0.1)">
       <use xlink:href="#DejaVuSans-31"/>
       <use xlink:href="#DejaVuSans-38" x="63.623047"/>
       <use xlink:href="#DejaVuSans-30" x="127.246094"/>
       <use xlink:href="#DejaVuSans-31" x="190.869141"/>
      </g>
     </g>
    </g>
    <g id="xtick_11">
     <g id="line2d_21">
      <path d="M 326.727273 384.48 
L 326.727273 51.84 
" clip-path="url(#p27b051b309)" style="fill: none; stroke: #ffffff; stroke-width: 0.8; stroke-linecap: square"/>
     </g>
     <g id="line2d_22">
      <g>
       <use xlink:href="#md081505419" x="326.727273" y="384.48" style="fill: #ffffff; stroke: #ffffff; stroke-width: 0.8"/>
      </g>
     </g>
     <g id="text_11">
      <!-- 2001 -->
      <g style="fill: #ffffff" transform="translate(319.680512 414.848774) rotate(-45) scale(0.1 -0.1)">
       <use xlink:href="#DejaVuSans-32"/>
       <use xlink:href="#DejaVuSans-30" x="63.623047"/>
       <use xlink:href="#DejaVuSans-30" x="127.246094"/>
       <use xlink:href="#DejaVuSans-31" x="190.869141"/>
      </g>
     </g>
    </g>
    <g id="xtick_12">
     <g id="line2d_23">
      <path d="M 347.863636 384.48 
L 347.863636 51.84 
" clip-path="url(#p27b051b309)" style="fill: none; stroke: #ffffff; stroke-width: 0.8; stroke-linecap: square"/>
     </g>
     <g id="line2d_24">
      <g>
       <use xlink:href="#md081505419" x="347.863636" y="384.48" style="fill: #ffffff; stroke: #ffffff; stroke-width: 0.8"/>
      </g>
     </g>
     <g id="text_12">
      <!-- 2201 -->
      <g style="fill: #ffffff" transform="translate(340.816875 414.848774) rotate(-45) scale(0.1 -0.1)">
       <use xlink:href="#DejaVuSans-32"/>
       <use xlink:href="#DejaVuSans-32" x="63.623047"/>
       <use xlink:href="#DejaVuSans-30" x="127.246094"/>
       <use xlink:href="#DejaVuSans-31" x="190.869141"/>
      </g>
     </g>
    </g>
    <g id="xtick_13">
     <g id="line2d_25">
      <path d="M 369 384.48 
L 369 51.84 
" clip-path="url(#p27b051b309)" style="fill: none; stroke: #ffffff; stroke-width: 0.8; stroke-linecap: square"/>
     </g>
     <g id="line2d_26">
      <g>
       <use xlink:href="#md081505419" x="369" y="384.48" style="fill: #ffffff; stroke: #ffffff; stroke-width: 0.8"/>
      </g>
     </g>
     <g id="text_13">
      <!-- 2401 -->
      <g style="fill: #ffffff" transform="translate(361.953239 414.848774) rotate(-45) scale(0.1 -0.1)">
       <use xlink:href="#DejaVuSans-32"/>
       <use xlink:href="#DejaVuSans-34" x="63.623047"/>
       <use xlink:href="#DejaVuSans-30" x="127.246094"/>
       <use xlink:href="#DejaVuSans-31" x="190.869141"/>
      </g>
     </g>
    </g>
    <g id="xtick_14">
     <g id="line2d_27">
      <path d="M 390.136364 384.48 
L 390.136364 51.84 
" clip-path="url(#p27b051b309)" style="fill: none; stroke: #ffffff; stroke-width: 0.8; stroke-linecap: square"/>
     </g>
     <g id="line2d_28">
      <g>
       <use xlink:href="#md081505419" x="390.136364" y="384.48" style="fill: #ffffff; stroke: #ffffff; stroke-width: 0.8"/>
      </g>
     </g>
     <g id="text_14">
      <!-- 2601 -->
      <g style="fill: #ffffff" transform="translate(383.089603 414.848774) rotate(-45) scale(0.1 -0.1)">
       <use xlink:href="#DejaVuSans-32"/>
       <use xlink:href="#DejaVuSans-36" x="63.623047"/>
       <use xlink:href="#DejaVuSans-30" x="127.246094"/>
       <use xlink:href="#DejaVuSans-31" x="190.869141"/>
      </g>
     </g>
    </g>
    <g id="xtick_15">
     <g id="line2d_29">
      <path d="M 411.272727 384.48 
L 411.272727 51.84 
" clip-path="url(#p27b051b309)" style="fill: none; stroke: #ffffff; stroke-width: 0.8; stroke-linecap: square"/>
     </g>
     <g id="line2d_30">
      <g>
       <use xlink:href="#md081505419" x="411.272727" y="384.48" style="fill: #ffffff; stroke: #ffffff; stroke-width: 0.8"/>
      </g>
     </g>
     <g id="text_15">
      <!-- 2801 -->
      <g style="fill: #ffffff" transform="translate(404.225966 414.848774) rotate(-45) scale(0.1 -0.1)">
       <use xlink:href="#DejaVuSans-32"/>
       <use xlink:href="#DejaVuSans-38" x="63.623047"/>
       <use xlink:href="#DejaVuSans-30" x="127.246094"/>
       <use xlink:href="#DejaVuSans-31" x="190.869141"/>
      </g>
     </g>
    </g>
    <g id="xtick_16">
     <g id="line2d_31">
      <path d="M 432.409091 384.48 
L 432.409091 51.84 
" clip-path="url(#p27b051b309)" style="fill: none; stroke: #ffffff; stroke-width: 0.8; stroke-linecap: square"/>
     </g>
     <g id="line2d_32">
      <g>
       <use xlink:href="#md081505419" x="432.409091" y="384.48" style="fill: #ffffff; stroke: #ffffff; stroke-width: 0.8"/>
      </g>
     </g>
     <g id="text_16">
      <!-- 3001 -->
      <g style="fill: #ffffff" transform="translate(425.36233 414.848774) rotate(-45) scale(0.1 -0.1)">
       <defs>
        <path id="DejaVuSans-33" d="M 2597 2516 
Q 3050 2419 3304 2112 
Q 3559 1806 3559 1356 
Q 3559 666 3084 287 
Q 2609 -91 1734 -91 
Q 1441 -91 1130 -33 
Q 819 25 488 141 
L 488 750 
Q 750 597 1062 519 
Q 1375 441 1716 441 
Q 2309 441 2620 675 
Q 2931 909 2931 1356 
Q 2931 1769 2642 2001 
Q 2353 2234 1838 2234 
L 1294 2234 
L 1294 2753 
L 1863 2753 
Q 2328 2753 2575 2939 
Q 2822 3125 2822 3475 
Q 2822 3834 2567 4026 
Q 2313 4219 1838 4219 
Q 1578 4219 1281 4162 
Q 984 4106 628 3988 
L 628 4550 
Q 988 4650 1302 4700 
Q 1616 4750 1894 4750 
Q 2613 4750 3031 4423 
Q 3450 4097 3450 3541 
Q 3450 3153 3228 2886 
Q 3006 2619 2597 2516 
z
" transform="scale(0.015625)"/>
       </defs>
       <use xlink:href="#DejaVuSans-33"/>
       <use xlink:href="#DejaVuSans-30" x="63.623047"/>
       <use xlink:href="#DejaVuSans-30" x="127.246094"/>
       <use xlink:href="#DejaVuSans-31" x="190.869141"/>
      </g>
     </g>
    </g>
    <g id="xtick_17">
     <g id="line2d_33">
      <path d="M 453.545455 384.48 
L 453.545455 51.84 
" clip-path="url(#p27b051b309)" style="fill: none; stroke: #ffffff; stroke-width: 0.8; stroke-linecap: square"/>
     </g>
     <g id="line2d_34">
      <g>
       <use xlink:href="#md081505419" x="453.545455" y="384.48" style="fill: #ffffff; stroke: #ffffff; stroke-width: 0.8"/>
      </g>
     </g>
     <g id="text_17">
      <!-- 3201 -->
      <g style="fill: #ffffff" transform="translate(446.498694 414.848774) rotate(-45) scale(0.1 -0.1)">
       <use xlink:href="#DejaVuSans-33"/>
       <use xlink:href="#DejaVuSans-32" x="63.623047"/>
       <use xlink:href="#DejaVuSans-30" x="127.246094"/>
       <use xlink:href="#DejaVuSans-31" x="190.869141"/>
      </g>
     </g>
    </g>
    <g id="xtick_18">
     <g id="line2d_35">
      <path d="M 474.681818 384.48 
L 474.681818 51.84 
" clip-path="url(#p27b051b309)" style="fill: none; stroke: #ffffff; stroke-width: 0.8; stroke-linecap: square"/>
     </g>
     <g id="line2d_36">
      <g>
       <use xlink:href="#md081505419" x="474.681818" y="384.48" style="fill: #ffffff; stroke: #ffffff; stroke-width: 0.8"/>
      </g>
     </g>
     <g id="text_18">
      <!-- 3401 -->
      <g style="fill: #ffffff" transform="translate(467.635057 414.848774) rotate(-45) scale(0.1 -0.1)">
       <use xlink:href="#DejaVuSans-33"/>
       <use xlink:href="#DejaVuSans-34" x="63.623047"/>
       <use xlink:href="#DejaVuSans-30" x="127.246094"/>
       <use xlink:href="#DejaVuSans-31" x="190.869141"/>
      </g>
     </g>
    </g>
    <g id="xtick_19">
     <g id="line2d_37">
      <path d="M 495.818182 384.48 
L 495.818182 51.84 
" clip-path="url(#p27b051b309)" style="fill: none; stroke: #ffffff; stroke-width: 0.8; stroke-linecap: square"/>
     </g>
     <g id="line2d_38">
      <g>
       <use xlink:href="#md081505419" x="495.818182" y="384.48" style="fill: #ffffff; stroke: #ffffff; stroke-width: 0.8"/>
      </g>
     </g>
     <g id="text_19">
      <!-- 3601 -->
      <g style="fill: #ffffff" transform="translate(488.771421 414.848774) rotate(-45) scale(0.1 -0.1)">
       <use xlink:href="#DejaVuSans-33"/>
       <use xlink:href="#DejaVuSans-36" x="63.623047"/>
       <use xlink:href="#DejaVuSans-30" x="127.246094"/>
       <use xlink:href="#DejaVuSans-31" x="190.869141"/>
      </g>
     </g>
    </g>
    <g id="xtick_20">
     <g id="line2d_39">
      <path d="M 516.954545 384.48 
L 516.954545 51.84 
" clip-path="url(#p27b051b309)" style="fill: none; stroke: #ffffff; stroke-width: 0.8; stroke-linecap: square"/>
     </g>
     <g id="line2d_40">
      <g>
       <use xlink:href="#md081505419" x="516.954545" y="384.48" style="fill: #ffffff; stroke: #ffffff; stroke-width: 0.8"/>
      </g>
     </g>
     <g id="text_20">
      <!-- 3801 -->
      <g style="fill: #ffffff" transform="translate(509.907784 414.848774) rotate(-45) scale(0.1 -0.1)">
       <use xlink:href="#DejaVuSans-33"/>
       <use xlink:href="#DejaVuSans-38" x="63.623047"/>
       <use xlink:href="#DejaVuSans-30" x="127.246094"/>
       <use xlink:href="#DejaVuSans-31" x="190.869141"/>
      </g>
     </g>
    </g>
    <g id="xtick_21">
     <g id="line2d_41">
      <path d="M 538.090909 384.48 
L 538.090909 51.84 
" clip-path="url(#p27b051b309)" style="fill: none; stroke: #ffffff; stroke-width: 0.8; stroke-linecap: square"/>
     </g>
     <g id="line2d_42">
      <g>
       <use xlink:href="#md081505419" x="538.090909" y="384.48" style="fill: #ffffff; stroke: #ffffff; stroke-width: 0.8"/>
      </g>
     </g>
     <g id="text_21">
      <!-- 4001 -->
      <g style="fill: #ffffff" transform="translate(531.044148 414.848774) rotate(-45) scale(0.1 -0.1)">
       <use xlink:href="#DejaVuSans-34"/>
       <use xlink:href="#DejaVuSans-30" x="63.623047"/>
       <use xlink:href="#DejaVuSans-30" x="127.246094"/>
       <use xlink:href="#DejaVuSans-31" x="190.869141"/>
      </g>
     </g>
    </g>
    <g id="xtick_22">
     <g id="line2d_43">
      <path d="M 559.227273 384.48 
L 559.227273 51.84 
" clip-path="url(#p27b051b309)" style="fill: none; stroke: #ffffff; stroke-width: 0.8; stroke-linecap: square"/>
     </g>
     <g id="line2d_44">
      <g>
       <use xlink:href="#md081505419" x="559.227273" y="384.48" style="fill: #ffffff; stroke: #ffffff; stroke-width: 0.8"/>
      </g>
     </g>
     <g id="text_22">
      <!-- 4201 -->
      <g style="fill: #ffffff" transform="translate(552.180512 414.848774) rotate(-45) scale(0.1 -0.1)">
       <use xlink:href="#DejaVuSans-34"/>
       <use xlink:href="#DejaVuSans-32" x="63.623047"/>
       <use xlink:href="#DejaVuSans-30" x="127.246094"/>
       <use xlink:href="#DejaVuSans-31" x="190.869141"/>
      </g>
     </g>
    </g>
    <g id="xtick_23">
     <g id="line2d_45">
      <path d="M 580.363636 384.48 
L 580.363636 51.84 
" clip-path="url(#p27b051b309)" style="fill: none; stroke: #ffffff; stroke-width: 0.8; stroke-linecap: square"/>
     </g>
     <g id="line2d_46">
      <g>
       <use xlink:href="#md081505419" x="580.363636" y="384.48" style="fill: #ffffff; stroke: #ffffff; stroke-width: 0.8"/>
      </g>
     </g>
     <g id="text_23">
      <!-- 4401 -->
      <g style="fill: #ffffff" transform="translate(573.316875 414.848774) rotate(-45) scale(0.1 -0.1)">
       <use xlink:href="#DejaVuSans-34"/>
       <use xlink:href="#DejaVuSans-34" x="63.623047"/>
       <use xlink:href="#DejaVuSans-30" x="127.246094"/>
       <use xlink:href="#DejaVuSans-31" x="190.869141"/>
      </g>
     </g>
    </g>
    <g id="xtick_24">
     <g id="line2d_47">
      <path d="M 601.5 384.48 
L 601.5 51.84 
" clip-path="url(#p27b051b309)" style="fill: none; stroke: #ffffff; stroke-width: 0.8; stroke-linecap: square"/>
     </g>
     <g id="line2d_48">
      <g>
       <use xlink:href="#md081505419" x="601.5" y="384.48" style="fill: #ffffff; stroke: #ffffff; stroke-width: 0.8"/>
      </g>
     </g>
     <g id="text_24">
      <!-- 4601 -->
      <g style="fill: #ffffff" transform="translate(594.453239 414.848774) rotate(-45) scale(0.1 -0.1)">
       <use xlink:href="#DejaVuSans-34"/>
       <use xlink:href="#DejaVuSans-36" x="63.623047"/>
       <use xlink:href="#DejaVuSans-30" x="127.246094"/>
       <use xlink:href="#DejaVuSans-31" x="190.869141"/>
      </g>
     </g>
    </g>
    <g id="xtick_25">
     <g id="line2d_49">
      <path d="M 622.636364 384.48 
L 622.636364 51.84 
" clip-path="url(#p27b051b309)" style="fill: none; stroke: #ffffff; stroke-width: 0.8; stroke-linecap: square"/>
     </g>
     <g id="line2d_50">
      <g>
       <use xlink:href="#md081505419" x="622.636364" y="384.48" style="fill: #ffffff; stroke: #ffffff; stroke-width: 0.8"/>
      </g>
     </g>
     <g id="text_25">
      <!-- 4801 -->
      <g style="fill: #ffffff" transform="translate(615.589603 414.848774) rotate(-45) scale(0.1 -0.1)">
       <use xlink:href="#DejaVuSans-34"/>
       <use xlink:href="#DejaVuSans-38" x="63.623047"/>
       <use xlink:href="#DejaVuSans-30" x="127.246094"/>
       <use xlink:href="#DejaVuSans-31" x="190.869141"/>
      </g>
     </g>
    </g>
    <g id="text_26">
     <!-- concurrency -->
     <g style="fill: #ffffff" transform="translate(338.239844 427.917773) scale(0.1 -0.1)">
      <defs>
       <path id="DejaVuSans-63" d="M 3122 3366 
L 3122 2828 
Q 2878 2963 2633 3030 
Q 2388 3097 2138 3097 
Q 1578 3097 1268 2742 
Q 959 2388 959 1747 
Q 959 1106 1268 751 
Q 1578 397 2138 397 
Q 2388 397 2633 464 
Q 2878 531 3122 666 
L 3122 134 
Q 2881 22 2623 -34 
Q 2366 -91 2075 -91 
Q 1284 -91 818 406 
Q 353 903 353 1747 
Q 353 2603 823 3093 
Q 1294 3584 2113 3584 
Q 2378 3584 2631 3529 
Q 2884 3475 3122 3366 
z
" transform="scale(0.015625)"/>
       <path id="DejaVuSans-6f" d="M 1959 3097 
Q 1497 3097 1228 2736 
Q 959 2375 959 1747 
Q 959 1119 1226 758 
Q 1494 397 1959 397 
Q 2419 397 2687 759 
Q 2956 1122 2956 1747 
Q 2956 2369 2687 2733 
Q 2419 3097 1959 3097 
z
M 1959 3584 
Q 2709 3584 3137 3096 
Q 3566 2609 3566 1747 
Q 3566 888 3137 398 
Q 2709 -91 1959 -91 
Q 1206 -91 779 398 
Q 353 888 353 1747 
Q 353 2609 779 3096 
Q 1206 3584 1959 3584 
z
" transform="scale(0.015625)"/>
       <path id="DejaVuSans-6e" d="M 3513 2113 
L 3513 0 
L 2938 0 
L 2938 2094 
Q 2938 2591 2744 2837 
Q 2550 3084 2163 3084 
Q 1697 3084 1428 2787 
Q 1159 2491 1159 1978 
L 1159 0 
L 581 0 
L 581 3500 
L 1159 3500 
L 1159 2956 
Q 1366 3272 1645 3428 
Q 1925 3584 2291 3584 
Q 2894 3584 3203 3211 
Q 3513 2838 3513 2113 
z
" transform="scale(0.015625)"/>
       <path id="DejaVuSans-75" d="M 544 1381 
L 544 3500 
L 1119 3500 
L 1119 1403 
Q 1119 906 1312 657 
Q 1506 409 1894 409 
Q 2359 409 2629 706 
Q 2900 1003 2900 1516 
L 2900 3500 
L 3475 3500 
L 3475 0 
L 2900 0 
L 2900 538 
Q 2691 219 2414 64 
Q 2138 -91 1772 -91 
Q 1169 -91 856 284 
Q 544 659 544 1381 
z
M 1991 3584 
L 1991 3584 
z
" transform="scale(0.015625)"/>
       <path id="DejaVuSans-72" d="M 2631 2963 
Q 2534 3019 2420 3045 
Q 2306 3072 2169 3072 
Q 1681 3072 1420 2755 
Q 1159 2438 1159 1844 
L 1159 0 
L 581 0 
L 581 3500 
L 1159 3500 
L 1159 2956 
Q 1341 3275 1631 3429 
Q 1922 3584 2338 3584 
Q 2397 3584 2469 3576 
Q 2541 3569 2628 3553 
L 2631 2963 
z
" transform="scale(0.015625)"/>
       <path id="DejaVuSans-65" d="M 3597 1894 
L 3597 1613 
L 953 1613 
Q 991 1019 1311 708 
Q 1631 397 2203 397 
Q 2534 397 2845 478 
Q 3156 559 3463 722 
L 3463 178 
Q 3153 47 2828 -22 
Q 2503 -91 2169 -91 
Q 1331 -91 842 396 
Q 353 884 353 1716 
Q 353 2575 817 3079 
Q 1281 3584 2069 3584 
Q 2775 3584 3186 3129 
Q 3597 2675 3597 1894 
z
M 3022 2063 
Q 3016 2534 2758 2815 
Q 2500 3097 2075 3097 
Q 1594 3097 1305 2825 
Q 1016 2553 972 2059 
L 3022 2063 
z
" transform="scale(0.015625)"/>
       <path id="DejaVuSans-79" d="M 2059 -325 
Q 1816 -950 1584 -1140 
Q 1353 -1331 966 -1331 
L 506 -1331 
L 506 -850 
L 844 -850 
Q 1081 -850 1212 -737 
Q 1344 -625 1503 -206 
L 1606 56 
L 191 3500 
L 800 3500 
L 1894 763 
L 2988 3500 
L 3597 3500 
L 2059 -325 
z
" transform="scale(0.015625)"/>
      </defs>
      <use xlink:href="#DejaVuSans-63"/>
      <use xlink:href="#DejaVuSans-6f" x="54.980469"/>
      <use xlink:href="#DejaVuSans-6e" x="116.162109"/>
      <use xlink:href="#DejaVuSans-63" x="179.541016"/>
      <use xlink:href="#DejaVuSans-75" x="234.521484"/>
      <use xlink:href="#DejaVuSans-72" x="297.900391"/>
      <use xlink:href="#DejaVuSans-72" x="337.263672"/>
      <use xlink:href="#DejaVuSans-65" x="376.126953"/>
      <use xlink:href="#DejaVuSans-6e" x="437.650391"/>
      <use xlink:href="#DejaVuSans-63" x="501.029297"/>
      <use xlink:href="#DejaVuSans-79" x="556.009766"/>
     </g>
    </g>
   </g>
   <g id="matplotlib.axis_2">
    <g id="ytick_1">
     <g id="line2d_51">
      <path d="M 90 337.987631 
L 648 337.987631 
" clip-path="url(#p27b051b309)" style="fill: none; stroke: #ffffff; stroke-width: 0.8; stroke-linecap: square"/>
     </g>
     <g id="line2d_52">
      <defs>
       <path id="mf0ef567bcf" d="M 0 0 
L -3.5 0 
" style="stroke: #ffffff; stroke-width: 0.8"/>
      </defs>
      <g>
       <use xlink:href="#mf0ef567bcf" x="90" y="337.987631" style="fill: #ffffff; stroke: #ffffff; stroke-width: 0.8"/>
      </g>
     </g>
     <g id="text_27">
      <!-- 200 -->
      <g style="fill: #ffffff" transform="translate(63.9125 341.78685) scale(0.1 -0.1)">
       <use xlink:href="#DejaVuSans-32"/>
       <use xlink:href="#DejaVuSans-30" x="63.623047"/>
       <use xlink:href="#DejaVuSans-30" x="127.246094"/>
      </g>
     </g>
    </g>
    <g id="ytick_2">
     <g id="line2d_53">
      <path d="M 90 266.486223 
L 648 266.486223 
" clip-path="url(#p27b051b309)" style="fill: none; stroke: #ffffff; stroke-width: 0.8; stroke-linecap: square"/>
     </g>
     <g id="line2d_54">
      <g>
       <use xlink:href="#mf0ef567bcf" x="90" y="266.486223" style="fill: #ffffff; stroke: #ffffff; stroke-width: 0.8"/>
      </g>
     </g>
     <g id="text_28">
      <!-- 400 -->
      <g style="fill: #ffffff" transform="translate(63.9125 270.285442) scale(0.1 -0.1)">
       <use xlink:href="#DejaVuSans-34"/>
       <use xlink:href="#DejaVuSans-30" x="63.623047"/>
       <use xlink:href="#DejaVuSans-30" x="127.246094"/>
      </g>
     </g>
    </g>
    <g id="ytick_3">
     <g id="line2d_55">
      <path d="M 90 194.984814 
L 648 194.984814 
" clip-path="url(#p27b051b309)" style="fill: none; stroke: #ffffff; stroke-width: 0.8; stroke-linecap: square"/>
     </g>
     <g id="line2d_56">
      <g>
       <use xlink:href="#mf0ef567bcf" x="90" y="194.984814" style="fill: #ffffff; stroke: #ffffff; stroke-width: 0.8"/>
      </g>
     </g>
     <g id="text_29">
      <!-- 600 -->
      <g style="fill: #ffffff" transform="translate(63.9125 198.784033) scale(0.1 -0.1)">
       <use xlink:href="#DejaVuSans-36"/>
       <use xlink:href="#DejaVuSans-30" x="63.623047"/>
       <use xlink:href="#DejaVuSans-30" x="127.246094"/>
      </g>
     </g>
    </g>
    <g id="ytick_4">
     <g id="line2d_57">
      <path d="M 90 123.483406 
L 648 123.483406 
" clip-path="url(#p27b051b309)" style="fill: none; stroke: #ffffff; stroke-width: 0.8; stroke-linecap: square"/>
     </g>
     <g id="line2d_58">
      <g>
       <use xlink:href="#mf0ef567bcf" x="90" y="123.483406" style="fill: #ffffff; stroke: #ffffff; stroke-width: 0.8"/>
      </g>
     </g>
     <g id="text_30">
      <!-- 800 -->
      <g style="fill: #ffffff" transform="translate(63.9125 127.282625) scale(0.1 -0.1)">
       <use xlink:href="#DejaVuSans-38"/>
       <use xlink:href="#DejaVuSans-30" x="63.623047"/>
       <use xlink:href="#DejaVuSans-30" x="127.246094"/>
      </g>
     </g>
    </g>
    <g id="ytick_5">
     <g id="line2d_59">
      <path d="M 90 51.981998 
L 648 51.981998 
" clip-path="url(#p27b051b309)" style="fill: none; stroke: #ffffff; stroke-width: 0.8; stroke-linecap: square"/>
     </g>
     <g id="line2d_60">
      <g>
       <use xlink:href="#mf0ef567bcf" x="90" y="51.981998" style="fill: #ffffff; stroke: #ffffff; stroke-width: 0.8"/>
      </g>
     </g>
     <g id="text_31">
      <!-- 1000 -->
      <g style="fill: #ffffff" transform="translate(57.55 55.781216) scale(0.1 -0.1)">
       <use xlink:href="#DejaVuSans-31"/>
       <use xlink:href="#DejaVuSans-30" x="63.623047"/>
       <use xlink:href="#DejaVuSans-30" x="127.246094"/>
       <use xlink:href="#DejaVuSans-30" x="190.869141"/>
      </g>
     </g>
    </g>
    <g id="text_32">
     <!-- time (ms) -->
     <g style="fill: #ffffff" transform="translate(51.470312 242.421719) rotate(-90) scale(0.1 -0.1)">
      <defs>
       <path id="DejaVuSans-74" d="M 1172 4494 
L 1172 3500 
L 2356 3500 
L 2356 3053 
L 1172 3053 
L 1172 1153 
Q 1172 725 1289 603 
Q 1406 481 1766 481 
L 2356 481 
L 2356 0 
L 1766 0 
Q 1100 0 847 248 
Q 594 497 594 1153 
L 594 3053 
L 172 3053 
L 172 3500 
L 594 3500 
L 594 4494 
L 1172 4494 
z
" transform="scale(0.015625)"/>
       <path id="DejaVuSans-69" d="M 603 3500 
L 1178 3500 
L 1178 0 
L 603 0 
L 603 3500 
z
M 603 4863 
L 1178 4863 
L 1178 4134 
L 603 4134 
L 603 4863 
z
" transform="scale(0.015625)"/>
       <path id="DejaVuSans-6d" d="M 3328 2828 
Q 3544 3216 3844 3400 
Q 4144 3584 4550 3584 
Q 5097 3584 5394 3201 
Q 5691 2819 5691 2113 
L 5691 0 
L 5113 0 
L 5113 2094 
Q 5113 2597 4934 2840 
Q 4756 3084 4391 3084 
Q 3944 3084 3684 2787 
Q 3425 2491 3425 1978 
L 3425 0 
L 2847 0 
L 2847 2094 
Q 2847 2600 2669 2842 
Q 2491 3084 2119 3084 
Q 1678 3084 1418 2786 
Q 1159 2488 1159 1978 
L 1159 0 
L 581 0 
L 581 3500 
L 1159 3500 
L 1159 2956 
Q 1356 3278 1631 3431 
Q 1906 3584 2284 3584 
Q 2666 3584 2933 3390 
Q 3200 3197 3328 2828 
z
" transform="scale(0.015625)"/>
       <path id="DejaVuSans-20" transform="scale(0.015625)"/>
       <path id="DejaVuSans-28" d="M 1984 4856 
Q 1566 4138 1362 3434 
Q 1159 2731 1159 2009 
Q 1159 1288 1364 580 
Q 1569 -128 1984 -844 
L 1484 -844 
Q 1016 -109 783 600 
Q 550 1309 550 2009 
Q 550 2706 781 3412 
Q 1013 4119 1484 4856 
L 1984 4856 
z
" transform="scale(0.015625)"/>
       <path id="DejaVuSans-73" d="M 2834 3397 
L 2834 2853 
Q 2591 2978 2328 3040 
Q 2066 3103 1784 3103 
Q 1356 3103 1142 2972 
Q 928 2841 928 2578 
Q 928 2378 1081 2264 
Q 1234 2150 1697 2047 
L 1894 2003 
Q 2506 1872 2764 1633 
Q 3022 1394 3022 966 
Q 3022 478 2636 193 
Q 2250 -91 1575 -91 
Q 1294 -91 989 -36 
Q 684 19 347 128 
L 347 722 
Q 666 556 975 473 
Q 1284 391 1588 391 
Q 1994 391 2212 530 
Q 2431 669 2431 922 
Q 2431 1156 2273 1281 
Q 2116 1406 1581 1522 
L 1381 1569 
Q 847 1681 609 1914 
Q 372 2147 372 2553 
Q 372 3047 722 3315 
Q 1072 3584 1716 3584 
Q 2034 3584 2315 3537 
Q 2597 3491 2834 3397 
z
" transform="scale(0.015625)"/>
       <path id="DejaVuSans-29" d="M 513 4856 
L 1013 4856 
Q 1481 4119 1714 3412 
Q 1947 2706 1947 2009 
Q 1947 1309 1714 600 
Q 1481 -109 1013 -844 
L 513 -844 
Q 928 -128 1133 580 
Q 1338 1288 1338 2009 
Q 1338 2731 1133 3434 
Q 928 4138 513 4856 
z
" transform="scale(0.015625)"/>
      </defs>
      <use xlink:href="#DejaVuSans-74"/>
      <use xlink:href="#DejaVuSans-69" x="39.208984"/>
      <use xlink:href="#DejaVuSans-6d" x="66.992188"/>
      <use xlink:href="#DejaVuSans-65" x="164.404297"/>
      <use xlink:href="#DejaVuSans-20" x="225.927734"/>
      <use xlink:href="#DejaVuSans-28" x="257.714844"/>
      <use xlink:href="#DejaVuSans-6d" x="296.728516"/>
      <use xlink:href="#DejaVuSans-73" x="394.140625"/>
      <use xlink:href="#DejaVuSans-29" x="446.240234"/>
     </g>
    </g>
   </g>
   <g id="line2d_61">
    <path d="M 115.363636 305.465749 
L 117.057368 316.322269 
L 118.7511 326.113178 
L 120.444832 334.889187 
L 122.138564 342.701012 
L 123.832296 349.599366 
L 125.526028 355.634962 
L 127.21976 360.858515 
L 128.913492 365.320738 
L 130.607224 369.072344 
L 132.300956 372.164049 
L 133.994688 374.646564 
L 135.68842 376.570604 
L 137.382152 377.986883 
L 139.075884 378.946114 
L 140.769616 379.499011 
L 142.463348 379.696289 
L 144.15708 379.588659 
L 145.850812 379.226837 
L 147.544544 378.661536 
L 150.085142 377.542997 
L 157.706936 373.836637 
L 160.247534 373.013387 
L 162.788132 372.46698 
L 165.32873 372.139705 
L 168.716194 371.944462 
L 179.725452 371.639169 
L 183.112915 371.203523 
L 187.347245 370.402442 
L 193.275307 368.990691 
L 202.590833 366.72069 
L 211.059493 364.981519 
L 221.221885 362.861229 
L 228.843679 360.974333 
L 241.546669 357.789956 
L 247.474731 356.558469 
L 265.258916 353.064633 
L 284.736834 348.625917 
L 294.05236 347.007438 
L 296.592958 346.347005 
L 299.133556 345.484036 
L 301.674154 344.361001 
L 304.214752 342.920371 
L 306.75535 341.107563 
L 309.295948 338.951175 
L 312.683412 335.752084 
L 318.611474 330.102686 
L 321.152072 327.98883 
L 322.845804 326.775511 
L 324.539536 325.76255 
L 326.233268 324.98734 
L 327.927 324.482767 
L 329.620732 324.236547 
L 331.314463 324.210338 
L 333.008195 324.365485 
L 335.548793 324.853689 
L 338.936257 325.778589 
L 343.170587 326.940133 
L 345.711185 327.408016 
L 347.404917 327.54397 
L 349.098649 327.497831 
L 350.792381 327.269993 
L 353.332979 326.630535 
L 355.873577 325.693283 
L 358.414175 324.525114 
L 361.801639 322.723942 
L 371.117165 317.551279 
L 377.045227 314.71374 
L 383.820155 311.439816 
L 387.207619 309.585593 
L 390.595083 307.471634 
L 393.982547 305.075434 
L 402.451207 298.88394 
L 404.991805 297.275054 
L 407.532402 295.913184 
L 410.073 294.872746 
L 411.766732 294.394229 
L 413.460464 294.095564 
L 416.001062 293.925747 
L 418.54166 294.000903 
L 422.77599 294.399082 
L 427.01032 294.737384 
L 429.550918 294.719129 
L 432.091516 294.412789 
L 433.785248 294.004019 
L 436.325846 293.102644 
L 438.866444 291.929588 
L 442.253908 290.087351 
L 450.722568 285.318788 
L 453.263166 284.184863 
L 455.803764 283.318892 
L 458.344362 282.688765 
L 461.731826 282.100989 
L 471.894218 280.576233 
L 474.434816 279.90124 
L 476.975414 278.988228 
L 479.516012 277.847461 
L 482.903475 276.027115 
L 486.290939 273.933808 
L 490.525269 271.048204 
L 502.381393 262.755365 
L 504.921991 261.379244 
L 506.615723 260.645467 
L 508.309455 260.090694 
L 510.003187 259.742434 
L 511.696919 259.628196 
L 513.390651 259.77549 
L 515.084383 260.211823 
L 516.778115 260.964707 
L 518.471847 262.04761 
L 520.165579 263.397094 
L 522.706177 265.725065 
L 526.940507 269.667832 
L 528.634239 271.00541 
L 530.327971 272.071625 
L 532.021703 272.776813 
L 532.868569 272.966003 
L 533.715435 273.031314 
L 534.562301 272.961537 
L 535.409167 272.745466 
L 536.256033 272.371892 
L 537.102899 271.829608 
L 537.949765 271.107407 
L 538.796631 270.196785 
L 540.490363 267.855557 
L 542.184095 264.933247 
L 543.877827 261.564602 
L 546.418425 255.969516 
L 551.499621 244.495209 
L 553.193353 241.080325 
L 554.887085 238.094962 
L 556.580817 235.673866 
L 557.427683 234.717027 
L 558.274548 233.951784 
L 559.121414 233.394983 
L 559.96828 233.059871 
L 560.815146 232.938712 
L 561.662012 233.016171 
L 562.508878 233.276904 
L 563.355744 233.705567 
L 564.20261 234.286816 
L 565.896342 235.845691 
L 567.590074 237.830776 
L 570.130672 241.339017 
L 575.211868 248.746621 
L 576.9056 250.881609 
L 578.599332 252.644897 
L 580.293064 253.913732 
L 581.13993 254.3271 
L 581.986796 254.590334 
L 582.833662 254.709369 
L 583.680528 254.690144 
L 584.527394 254.538599 
L 585.37426 254.260672 
L 587.067992 253.349427 
L 588.761724 252.003918 
L 590.455456 250.271657 
L 592.149188 248.200152 
L 593.84292 245.836915 
L 596.383518 241.848988 
L 599.770982 235.954114 
L 608.239642 220.684446 
L 610.78024 216.611443 
L 613.320838 213.057915 
L 615.01457 211.056677 
L 616.708302 209.405092 
L 618.402034 208.150669 
L 620.095766 207.340919 
L 620.942632 207.117644 
L 621.789498 207.023353 
L 622.636364 207.063985 
L 622.636364 207.063985 
" clip-path="url(#p27b051b309)" style="fill: none; stroke: #8dd3c7; stroke-width: 1.5; stroke-linecap: square"/>
   </g>
   <g id="line2d_62">
    <path d="M 115.363636 321.547653 
L 117.057368 329.923549 
L 118.7511 337.482309 
L 120.444832 344.262409 
L 122.138564 350.302323 
L 123.832296 355.640528 
L 125.526028 360.315498 
L 127.21976 364.365708 
L 128.913492 367.829634 
L 130.607224 370.74575 
L 132.300956 373.152532 
L 133.994688 375.088455 
L 135.68842 376.591993 
L 137.382152 377.701623 
L 139.075884 378.45582 
L 140.769616 378.893057 
L 142.463348 379.051812 
L 144.15708 378.970558 
L 145.850812 378.687771 
L 148.39141 377.96988 
L 151.778874 376.666428 
L 157.706936 374.297246 
L 160.247534 373.552981 
L 163.634998 372.851337 
L 167.022462 372.389189 
L 173.79739 371.778683 
L 178.03172 371.318438 
L 181.419183 370.757864 
L 185.653513 369.825859 
L 192.428441 368.054486 
L 199.203369 366.326228 
L 204.284565 365.291889 
L 211.059493 364.190546 
L 220.375019 362.693444 
L 225.456215 361.662135 
L 233.078009 359.85014 
L 248.321597 356.148416 
L 263.565184 352.585523 
L 273.727576 349.867446 
L 282.196236 347.694975 
L 288.124298 346.411325 
L 295.746092 344.792428 
L 299.980422 343.66147 
L 303.367886 342.52758 
L 306.75535 341.120539 
L 310.142814 339.440467 
L 315.22401 336.622808 
L 321.998938 332.861076 
L 325.386402 331.21409 
L 328.773866 329.854624 
L 332.161329 328.75822 
L 344.864319 324.979188 
L 347.404917 323.918285 
L 349.945515 322.648963 
L 353.332979 320.693708 
L 364.342237 313.988331 
L 366.882835 312.739366 
L 369.423433 311.735683 
L 371.964031 311.010235 
L 374.504629 310.52201 
L 377.892093 310.149941 
L 382.126423 309.959285 
L 388.901351 309.719458 
L 392.288815 309.374164 
L 395.676279 308.816559 
L 399.910609 307.885288 
L 405.838671 306.296294 
L 422.77599 301.354915 
L 427.857186 299.602547 
L 432.091516 297.88991 
L 436.325846 295.908684 
L 445.641372 291.438048 
L 449.028836 290.11161 
L 451.569434 289.327808 
L 454.110032 288.775272 
L 456.65063 288.462385 
L 460.038094 288.296908 
L 467.659888 288.065388 
L 470.200486 287.75124 
L 472.741084 287.187217 
L 474.434816 286.63345 
L 476.128548 285.914614 
L 478.669146 284.548325 
L 481.209744 282.892841 
L 484.597207 280.345508 
L 488.831537 276.82671 
L 496.453331 270.445502 
L 499.840795 267.936548 
L 502.381393 266.273468 
L 504.921991 264.833747 
L 507.462589 263.649746 
L 510.003187 262.753825 
L 512.543785 262.178347 
L 514.237517 261.988698 
L 515.931249 261.96544 
L 517.624981 262.117605 
L 520.165579 262.637254 
L 523.553043 263.648307 
L 527.787373 264.927897 
L 530.327971 265.439742 
L 532.021703 265.582565 
L 533.715435 265.515267 
L 535.409167 265.193795 
L 537.102899 264.574095 
L 538.796631 263.613316 
L 540.490363 262.311057 
L 542.184095 260.719699 
L 544.724693 257.912402 
L 548.112157 253.677178 
L 553.193353 247.174514 
L 555.733951 244.262922 
L 557.427683 242.575292 
L 559.121414 241.155366 
L 560.815146 240.045853 
L 562.508878 239.226843 
L 564.20261 238.659558 
L 565.896342 238.305215 
L 568.43694 238.08813 
L 570.977538 238.132016 
L 578.599332 238.520584 
L 581.13993 238.300128 
L 582.833662 237.963524 
L 585.37426 237.175721 
L 587.914858 236.059939 
L 590.455456 234.629112 
L 592.996054 232.896175 
L 595.536652 230.87406 
L 598.07725 228.575703 
L 600.617848 226.014038 
L 604.005312 222.211248 
L 607.392776 217.994007 
L 610.78024 213.392972 
L 614.167704 208.438803 
L 618.402034 201.796203 
L 622.636364 194.709615 
L 622.636364 194.709615 
" clip-path="url(#p27b051b309)" style="fill: none; stroke: #feffb3; stroke-width: 1.5; stroke-linecap: square"/>
   </g>
   <g id="line2d_63">
    <path d="M 115.363636 307.207297 
L 117.057368 317.89552 
L 118.7511 327.52296 
L 120.444832 336.140305 
L 122.138564 343.798245 
L 123.832296 350.547468 
L 125.526028 356.438662 
L 127.21976 361.522517 
L 128.913492 365.849722 
L 130.607224 369.470965 
L 132.300956 372.436935 
L 133.994688 374.79832 
L 135.68842 376.60581 
L 137.382152 377.910093 
L 139.075884 378.761859 
L 140.769616 379.211795 
L 142.463348 379.310592 
L 144.15708 379.108936 
L 145.850812 378.657518 
L 147.544544 378.007026 
L 150.085142 376.768906 
L 157.706936 372.762093 
L 160.247534 371.858502 
L 162.788132 371.244941 
L 165.32873 370.867264 
L 168.716194 370.637042 
L 172.950524 370.608084 
L 179.725452 370.56955 
L 183.959781 370.248435 
L 188.194111 369.690658 
L 193.275307 368.771459 
L 199.203369 367.451538 
L 208.518895 365.110212 
L 218.681287 362.605283 
L 224.609349 361.35995 
L 232.231143 360.020984 
L 253.402793 356.504297 
L 257.637122 355.42509 
L 261.024586 354.345202 
L 264.41205 353.028863 
L 268.64638 351.088395 
L 277.11504 347.070527 
L 280.502504 345.741193 
L 283.043102 344.958739 
L 285.5837 344.413988 
L 288.124298 344.099403 
L 291.511762 343.912875 
L 299.133556 343.592611 
L 301.674154 343.247574 
L 304.214752 342.657359 
L 306.75535 341.748954 
L 309.295948 340.522891 
L 312.683412 338.537396 
L 322.845804 332.131184 
L 325.386402 330.882517 
L 327.927 329.945893 
L 330.467598 329.332291 
L 333.008195 328.974119 
L 336.395659 328.770358 
L 346.558051 328.427144 
L 349.098649 328.02877 
L 351.639247 327.409854 
L 354.179845 326.591438 
L 357.567309 325.229955 
L 360.954773 323.609977 
L 365.189103 321.305215 
L 371.117165 317.749853 
L 378.738959 313.16347 
L 382.126423 311.347441 
L 385.513887 309.789189 
L 388.054485 308.841021 
L 390.595083 308.12179 
L 393.135681 307.640912 
L 396.523145 307.277283 
L 402.451207 306.991382 
L 406.685537 306.69264 
L 409.226134 306.337731 
L 411.766732 305.77535 
L 414.30733 304.964556 
L 416.847928 303.912004 
L 419.388526 302.630905 
L 421.929124 301.13447 
L 425.316588 298.827087 
L 428.704052 296.191684 
L 432.091516 293.259572 
L 436.325846 289.254837 
L 444.794506 281.103004 
L 448.18197 278.197939 
L 450.722568 276.289689 
L 453.263166 274.682502 
L 455.803764 273.42692 
L 458.344362 272.50799 
L 460.88496 271.887991 
L 463.425558 271.529178 
L 465.966156 271.393809 
L 469.35362 271.495658 
L 472.741084 271.838171 
L 478.669146 272.737073 
L 482.903475 273.323035 
L 486.290939 273.566552 
L 488.831537 273.533747 
L 491.372135 273.256243 
L 493.912733 272.680011 
L 495.606465 272.103215 
L 497.300197 271.357884 
L 499.840795 269.955336 
L 502.381393 268.277601 
L 505.768857 265.741461 
L 516.778115 257.172752 
L 519.318713 255.558214 
L 521.859311 254.183034 
L 524.399909 253.060264 
L 526.940507 252.202951 
L 529.481105 251.624141 
L 532.021703 251.336882 
L 534.562301 251.354221 
L 537.102899 251.689205 
L 539.643497 252.348089 
L 543.030961 253.56062 
L 547.265291 255.065132 
L 549.805889 255.66764 
L 551.499621 255.84206 
L 553.193353 255.777461 
L 554.887085 255.424803 
L 556.580817 254.735044 
L 558.274548 253.659141 
L 559.96828 252.149781 
L 561.662012 250.214009 
L 563.355744 247.922869 
L 565.896342 243.983284 
L 569.283806 238.184057 
L 573.518136 230.897351 
L 576.058734 226.953526 
L 577.752466 224.658381 
L 579.446198 222.717662 
L 581.13993 221.204096 
L 582.833662 220.134325 
L 584.527394 219.462463 
L 586.221126 219.139343 
L 587.914858 219.115798 
L 589.60859 219.34266 
L 591.302322 219.770764 
L 593.84292 220.682691 
L 601.464714 223.812074 
L 603.158446 224.27218 
L 604.852178 224.54019 
L 606.54591 224.566936 
L 608.239642 224.303251 
L 609.933374 223.699968 
L 611.627106 222.707919 
L 613.320838 221.277938 
L 615.01457 219.360857 
L 616.708302 216.907509 
L 618.402034 213.868727 
L 620.095766 210.195344 
L 621.789498 205.838192 
L 622.636364 203.387838 
L 622.636364 203.387838 
" clip-path="url(#p27b051b309)" style="fill: none; stroke: #bfbbd9; stroke-width: 1.5; stroke-linecap: square"/>
   </g>
   <g id="line2d_64">
    <path d="M 115.363636 320.987683 
L 117.057368 329.335804 
L 118.7511 336.882547 
L 120.444832 343.665085 
L 122.138564 349.72059 
L 123.832296 355.086236 
L 125.526028 359.799195 
L 127.21976 363.896641 
L 128.913492 367.415746 
L 130.607224 370.393683 
L 132.300956 372.867626 
L 133.994688 374.874747 
L 135.68842 376.452219 
L 137.382152 377.637215 
L 139.075884 378.466908 
L 140.769616 378.978472 
L 142.463348 379.209078 
L 144.15708 379.195899 
L 145.850812 378.97611 
L 148.39141 378.340346 
L 150.932008 377.448804 
L 159.400668 374.231699 
L 162.788132 373.372458 
L 166.175596 372.751193 
L 171.256792 372.094454 
L 179.725452 371.082434 
L 184.806647 370.193643 
L 191.581575 368.739484 
L 205.978297 365.545261 
L 240.699803 358.382718 
L 261.871452 353.541039 
L 274.574442 350.486448 
L 281.34937 348.632644 
L 287.277432 346.776848 
L 306.75535 340.337527 
L 316.917742 337.460575 
L 320.305206 336.239814 
L 322.845804 335.143487 
L 325.386402 333.849433 
L 327.927 332.320809 
L 331.314463 329.938172 
L 335.548793 326.590523 
L 344.864319 319.014869 
L 348.251783 316.608773 
L 350.792381 315.043889 
L 353.332979 313.69294 
L 355.873577 312.554299 
L 358.414175 311.626336 
L 360.954773 310.907426 
L 363.495371 310.39594 
L 366.035969 310.090249 
L 368.576567 309.988728 
L 371.117165 310.083725 
L 374.504629 310.430851 
L 382.973289 311.460171 
L 385.513887 311.551783 
L 388.054485 311.429272 
L 390.595083 311.028686 
L 393.135681 310.316335 
L 395.676279 309.329843 
L 398.216877 308.117102 
L 401.604341 306.230943 
L 406.685537 303.055495 
L 414.30733 298.260087 
L 418.54166 295.858526 
L 422.77599 293.703005 
L 427.01032 291.827228 
L 430.397784 290.550671 
L 433.785248 289.490817 
L 438.019578 288.422699 
L 449.028836 285.844305 
L 452.4163 284.771706 
L 455.803764 283.426269 
L 460.038094 281.429064 
L 469.35362 276.849393 
L 472.741084 275.47998 
L 475.281682 274.669469 
L 477.82228 274.071288 
L 481.209744 273.545774 
L 485.444073 273.194197 
L 498.147063 272.421916 
L 502.381393 271.773569 
L 506.615723 270.899709 
L 511.696919 269.603535 
L 517.624981 267.82762 
L 521.859311 266.371683 
L 525.246775 264.962882 
L 527.787373 263.691281 
L 530.327971 262.183511 
L 532.868569 260.392879 
L 535.409167 258.27269 
L 537.949765 255.776249 
L 540.490363 252.886905 
L 544.724693 247.559404 
L 548.959023 242.263193 
L 551.499621 239.422667 
L 553.193353 237.772747 
L 554.887085 236.375665 
L 556.580817 235.280989 
L 558.274548 234.538284 
L 559.96828 234.195584 
L 561.662012 234.252681 
L 563.355744 234.652568 
L 565.049476 235.334983 
L 566.743208 236.239661 
L 569.283806 237.881598 
L 576.058734 242.495343 
L 577.752466 243.375818 
L 579.446198 244.026583 
L 581.13993 244.38868 
L 582.833662 244.440029 
L 584.527394 244.199663 
L 586.221126 243.688772 
L 587.914858 242.928544 
L 589.60859 241.94017 
L 591.302322 240.744839 
L 593.84292 238.610152 
L 596.383518 236.129005 
L 599.770982 232.405476 
L 604.005312 227.321952 
L 612.473972 216.982662 
L 615.861436 213.252348 
L 618.402034 210.764237 
L 620.942632 208.620979 
L 622.636364 207.419041 
L 622.636364 207.419041 
" clip-path="url(#p27b051b309)" style="fill: none; stroke: #fa8174; stroke-width: 1.5; stroke-linecap: square"/>
   </g>
   <g id="line2d_65">
    <path d="M 115.363636 306.936047 
L 117.057368 317.44346 
L 118.7511 326.93864 
L 120.444832 335.468809 
L 122.138564 343.081188 
L 123.832296 349.822997 
L 125.526028 355.741458 
L 127.21976 360.883791 
L 128.913492 365.297219 
L 130.607224 369.028961 
L 132.300956 372.126238 
L 133.994688 374.636273 
L 135.68842 376.606285 
L 137.382152 378.083496 
L 139.075884 379.115127 
L 140.769616 379.748399 
L 142.463348 380.030532 
L 144.15708 380.008749 
L 145.850812 379.730269 
L 147.544544 379.242315 
L 150.085142 378.220913 
L 154.319472 376.140166 
L 157.706936 374.559988 
L 160.247534 373.636143 
L 162.788132 372.940354 
L 166.175596 372.30024 
L 169.56306 371.904401 
L 174.644256 371.567212 
L 181.419183 371.12026 
L 186.500379 370.544798 
L 191.581575 369.739061 
L 196.662771 368.696894 
L 201.743967 367.413356 
L 209.365761 365.183074 
L 216.987555 363.020797 
L 221.221885 362.033641 
L 225.456215 361.273891 
L 232.231143 360.344475 
L 239.852937 359.283407 
L 244.087267 358.489716 
L 249.168463 357.29235 
L 258.483988 354.783205 
L 265.258916 353.066177 
L 277.961906 350.05159 
L 282.196236 348.758035 
L 285.5837 347.50572 
L 289.81803 345.688558 
L 297.439824 342.34014 
L 300.827288 341.090441 
L 303.367886 340.346576 
L 305.908484 339.82046 
L 308.449082 339.526098 
L 312.683412 339.335025 
L 316.917742 339.149158 
L 319.45834 338.862917 
L 321.998938 338.33317 
L 323.69267 337.799283 
L 325.386402 337.08901 
L 327.080134 336.175188 
L 328.773866 335.050353 
L 331.314463 333.0468 
L 334.701927 330.000854 
L 340.629989 324.563972 
L 343.170587 322.552205 
L 344.864319 321.419939 
L 346.558051 320.502777 
L 348.251783 319.841665 
L 349.945515 319.451318 
L 351.639247 319.292487 
L 353.332979 319.319281 
L 355.873577 319.607136 
L 363.495371 320.808335 
L 365.189103 320.849584 
L 366.882835 320.709336 
L 368.576567 320.341702 
L 370.270299 319.70693 
L 371.964031 318.818699 
L 373.657763 317.718197 
L 376.198361 315.760038 
L 379.585825 312.792769 
L 384.667021 308.251191 
L 387.207619 306.242458 
L 388.901351 305.095273 
L 390.595083 304.149736 
L 392.288815 303.422319 
L 393.982547 302.884189 
L 396.523145 302.358225 
L 399.063743 302.068682 
L 407.532402 301.351356 
L 410.073 300.772602 
L 411.766732 300.188585 
L 414.30733 299.000232 
L 417.694794 297.029131 
L 423.622856 293.408644 
L 426.163454 292.137959 
L 427.857186 291.4838 
L 429.550918 291.03036 
L 431.24465 290.817364 
L 432.938382 290.884025 
L 434.632114 291.233712 
L 436.325846 291.811038 
L 438.866444 292.97078 
L 445.641372 296.336956 
L 447.335104 296.911161 
L 449.028836 297.256766 
L 450.722568 297.31294 
L 452.4163 297.018851 
L 454.110032 296.314409 
L 455.803764 295.184031 
L 457.497496 293.681122 
L 459.191228 291.865021 
L 461.731826 288.683438 
L 465.11929 283.898984 
L 471.047352 275.367396 
L 473.58795 272.168348 
L 475.281682 270.33584 
L 476.975414 268.780597 
L 478.669146 267.483929 
L 480.362878 266.42348 
L 482.05661 265.576894 
L 483.750341 264.921814 
L 486.290939 264.249366 
L 488.831537 263.882053 
L 491.372135 263.744423 
L 494.759599 263.787789 
L 504.921991 264.102873 
L 508.309455 263.974334 
L 511.696919 263.600006 
L 514.237517 263.111428 
L 516.778115 262.40845 
L 519.318713 261.467665 
L 521.859311 260.311145 
L 525.246775 258.495858 
L 529.481105 255.907797 
L 537.102899 250.861128 
L 542.184095 247.611276 
L 546.418425 245.164984 
L 549.805889 243.457263 
L 553.193353 242.031094 
L 555.733951 241.17952 
L 558.274548 240.540785 
L 560.815146 240.134422 
L 564.20261 239.892083 
L 570.130672 239.827152 
L 573.518136 239.709107 
L 576.058734 239.454463 
L 578.599332 238.979391 
L 581.13993 238.214247 
L 583.680528 237.133737 
L 586.221126 235.786623 
L 589.60859 233.672196 
L 593.84292 230.703645 
L 602.31158 224.663123 
L 605.699044 222.574783 
L 608.239642 221.254442 
L 610.78024 220.206883 
L 612.473972 219.687611 
L 614.167704 219.330907 
L 615.861436 219.153304 
L 617.555168 219.171336 
L 619.2489 219.401535 
L 620.942632 219.860435 
L 622.636364 220.564567 
L 622.636364 220.564567 
" clip-path="url(#p27b051b309)" style="fill: none; stroke: #81b1d2; stroke-width: 1.5; stroke-linecap: square"/>
   </g>
   <g id="line2d_66">
    <path d="M 115.363636 322.830703 
L 117.057368 331.099825 
L 118.7511 338.55642 
L 120.444832 345.238992 
L 122.138564 351.186039 
L 123.832296 356.436064 
L 125.526028 361.027567 
L 127.21976 364.99905 
L 128.913492 368.389014 
L 130.607224 371.235959 
L 132.300956 373.578388 
L 133.994688 375.454801 
L 135.68842 376.903698 
L 137.382152 377.963582 
L 139.075884 378.672953 
L 140.769616 379.070313 
L 142.463348 379.194162 
L 144.15708 379.083001 
L 145.850812 378.775333 
L 148.39141 378.029597 
L 151.778874 376.706848 
L 156.86007 374.644577 
L 159.400668 373.84996 
L 161.941266 373.2694 
L 165.32873 372.749039 
L 169.56306 372.350979 
L 177.184854 371.68859 
L 180.572317 371.151529 
L 183.959781 370.400629 
L 189.040977 369.003709 
L 200.897101 365.56868 
L 205.978297 364.440098 
L 211.906359 363.364214 
L 229.690545 360.310225 
L 243.240401 357.59452 
L 261.871452 353.68248 
L 273.727576 350.93973 
L 287.277432 347.56754 
L 299.133556 344.420663 
L 308.449082 341.729453 
L 318.611474 338.77476 
L 323.69267 337.510942 
L 327.927 336.660925 
L 335.548793 335.265675 
L 338.089391 334.610505 
L 340.629989 333.754563 
L 343.170587 332.634412 
L 345.711185 331.186613 
L 347.404917 330.00806 
L 349.945515 327.892265 
L 352.486113 325.450122 
L 361.801639 316.03435 
L 364.342237 313.976778 
L 366.035969 312.869137 
L 367.729701 312.022648 
L 369.423433 311.479837 
L 371.117165 311.253738 
L 372.810897 311.300117 
L 374.504629 311.56816 
L 377.045227 312.274689 
L 381.279557 313.840693 
L 384.667021 314.985778 
L 386.360753 315.382677 
L 388.054485 315.594727 
L 389.748217 315.571115 
L 391.441949 315.267723 
L 393.135681 314.694848 
L 394.829413 313.889236 
L 396.523145 312.88781 
L 399.063743 311.099289 
L 402.451207 308.373861 
L 408.379268 303.49657 
L 410.919866 301.687383 
L 413.460464 300.203658 
L 416.001062 299.005493 
L 419.388526 297.691125 
L 426.163454 295.204432 
L 428.704052 294.035822 
L 431.24465 292.593376 
L 433.785248 290.790219 
L 436.325846 288.660908 
L 445.641372 280.411067 
L 447.335104 279.214765 
L 449.028836 278.221041 
L 450.722568 277.473551 
L 452.4163 277.015951 
L 454.110032 276.891125 
L 455.803764 277.095596 
L 457.497496 277.554031 
L 460.038094 278.53955 
L 464.272424 280.297096 
L 465.966156 280.802617 
L 467.659888 281.073008 
L 469.35362 281.026754 
L 471.047352 280.582341 
L 471.894218 280.18535 
L 472.741084 279.658251 
L 473.58795 278.990855 
L 474.434816 278.172971 
L 476.128548 276.066075 
L 477.82228 273.408513 
L 479.516012 270.321727 
L 482.05661 265.15264 
L 487.984671 252.703621 
L 489.678403 249.594001 
L 491.372135 246.905993 
L 493.065867 244.761146 
L 493.912733 243.930392 
L 494.759599 243.281008 
L 495.606465 242.828188 
L 496.453331 242.585065 
L 497.300197 242.546824 
L 498.147063 242.699413 
L 498.993929 243.028704 
L 499.840795 243.520566 
L 501.534527 244.93549 
L 503.228259 246.831154 
L 504.921991 249.094523 
L 507.462589 252.931768 
L 512.543785 260.799363 
L 514.237517 263.064658 
L 515.931249 264.962947 
L 517.624981 266.382927 
L 519.318713 267.2822 
L 521.012445 267.708869 
L 522.706177 267.717186 
L 524.399909 267.361401 
L 526.093641 266.695767 
L 527.787373 265.774534 
L 530.327971 264.032112 
L 533.715435 261.320631 
L 537.949765 257.917633 
L 540.490363 256.160446 
L 543.030961 254.639589 
L 546.418425 252.88206 
L 551.499621 250.553744 
L 556.580817 248.194465 
L 559.96828 246.382341 
L 563.355744 244.299674 
L 570.130672 239.759871 
L 574.365002 237.027726 
L 577.752466 235.099 
L 580.293064 233.884187 
L 582.833662 232.906934 
L 586.221126 231.880054 
L 595.536652 229.312125 
L 598.07725 228.327919 
L 600.617848 227.080786 
L 603.158446 225.495935 
L 604.852178 224.214814 
L 606.54591 222.728194 
L 608.239642 221.013917 
L 609.933374 219.049822 
L 611.627106 216.813749 
L 613.320838 214.283537 
L 615.01457 211.437027 
L 616.708302 208.252057 
L 618.402034 204.706469 
L 620.095766 200.7781 
L 621.789498 196.444792 
L 622.636364 194.119361 
L 622.636364 194.119361 
" clip-path="url(#p27b051b309)" style="fill: none; stroke: #fdb462; stroke-width: 1.5; stroke-linecap: square"/>
   </g>
   <g id="patch_3">
    <path d="M 90 384.48 
L 90 51.84 
" style="fill: none; stroke: #ffffff; stroke-width: 0.8; stroke-linejoin: miter; stroke-linecap: square"/>
   </g>
   <g id="patch_4">
    <path d="M 648 384.48 
L 648 51.84 
" style="fill: none; stroke: #ffffff; stroke-width: 0.8; stroke-linejoin: miter; stroke-linecap: square"/>
   </g>
   <g id="patch_5">
    <path d="M 90 384.48 
L 648 384.48 
" style="fill: none; stroke: #ffffff; stroke-width: 0.8; stroke-linejoin: miter; stroke-linecap: square"/>
   </g>
   <g id="patch_6">
    <path d="M 90 51.84 
L 648 51.84 
" style="fill: none; stroke: #ffffff; stroke-width: 0.8; stroke-linejoin: miter; stroke-linecap: square"/>
   </g>
   <g id="text_33">
    <!-- caio.thread_aio_asyncio - read (Time vs Concurrency) -->
    <g style="fill: #ffffff" transform="translate(208.36125 45.84) scale(0.12 -0.12)">
     <defs>
      <path id="DejaVuSans-61" d="M 2194 1759 
Q 1497 1759 1228 1600 
Q 959 1441 959 1056 
Q 959 750 1161 570 
Q 1363 391 1709 391 
Q 2188 391 2477 730 
Q 2766 1069 2766 1631 
L 2766 1759 
L 2194 1759 
z
M 3341 1997 
L 3341 0 
L 2766 0 
L 2766 531 
Q 2569 213 2275 61 
Q 1981 -91 1556 -91 
Q 1019 -91 701 211 
Q 384 513 384 1019 
Q 384 1609 779 1909 
Q 1175 2209 1959 2209 
L 2766 2209 
L 2766 2266 
Q 2766 2663 2505 2880 
Q 2244 3097 1772 3097 
Q 1472 3097 1187 3025 
Q 903 2953 641 2809 
L 641 3341 
Q 956 3463 1253 3523 
Q 1550 3584 1831 3584 
Q 2591 3584 2966 3190 
Q 3341 2797 3341 1997 
z
" transform="scale(0.015625)"/>
      <path id="DejaVuSans-2e" d="M 684 794 
L 1344 794 
L 1344 0 
L 684 0 
L 684 794 
z
" transform="scale(0.015625)"/>
      <path id="DejaVuSans-68" d="M 3513 2113 
L 3513 0 
L 2938 0 
L 2938 2094 
Q 2938 2591 2744 2837 
Q 2550 3084 2163 3084 
Q 1697 3084 1428 2787 
Q 1159 2491 1159 1978 
L 1159 0 
L 581 0 
L 581 4863 
L 1159 4863 
L 1159 2956 
Q 1366 3272 1645 3428 
Q 1925 3584 2291 3584 
Q 2894 3584 3203 3211 
Q 3513 2838 3513 2113 
z
" transform="scale(0.015625)"/>
      <path id="DejaVuSans-64" d="M 2906 2969 
L 2906 4863 
L 3481 4863 
L 3481 0 
L 2906 0 
L 2906 525 
Q 2725 213 2448 61 
Q 2172 -91 1784 -91 
Q 1150 -91 751 415 
Q 353 922 353 1747 
Q 353 2572 751 3078 
Q 1150 3584 1784 3584 
Q 2172 3584 2448 3432 
Q 2725 3281 2906 2969 
z
M 947 1747 
Q 947 1113 1208 752 
Q 1469 391 1925 391 
Q 2381 391 2643 752 
Q 2906 1113 2906 1747 
Q 2906 2381 2643 2742 
Q 2381 3103 1925 3103 
Q 1469 3103 1208 2742 
Q 947 2381 947 1747 
z
" transform="scale(0.015625)"/>
      <path id="DejaVuSans-5f" d="M 3263 -1063 
L 3263 -1509 
L -63 -1509 
L -63 -1063 
L 3263 -1063 
z
" transform="scale(0.015625)"/>
      <path id="DejaVuSans-2d" d="M 313 2009 
L 1997 2009 
L 1997 1497 
L 313 1497 
L 313 2009 
z
" transform="scale(0.015625)"/>
      <path id="DejaVuSans-54" d="M -19 4666 
L 3928 4666 
L 3928 4134 
L 2272 4134 
L 2272 0 
L 1638 0 
L 1638 4134 
L -19 4134 
L -19 4666 
z
" transform="scale(0.015625)"/>
      <path id="DejaVuSans-76" d="M 191 3500 
L 800 3500 
L 1894 563 
L 2988 3500 
L 3597 3500 
L 2284 0 
L 1503 0 
L 191 3500 
z
" transform="scale(0.015625)"/>
      <path id="DejaVuSans-43" d="M 4122 4306 
L 4122 3641 
Q 3803 3938 3442 4084 
Q 3081 4231 2675 4231 
Q 1875 4231 1450 3742 
Q 1025 3253 1025 2328 
Q 1025 1406 1450 917 
Q 1875 428 2675 428 
Q 3081 428 3442 575 
Q 3803 722 4122 1019 
L 4122 359 
Q 3791 134 3420 21 
Q 3050 -91 2638 -91 
Q 1578 -91 968 557 
Q 359 1206 359 2328 
Q 359 3453 968 4101 
Q 1578 4750 2638 4750 
Q 3056 4750 3426 4639 
Q 3797 4528 4122 4306 
z
" transform="scale(0.015625)"/>
     </defs>
     <use xlink:href="#DejaVuSans-63"/>
     <use xlink:href="#DejaVuSans-61" x="54.980469"/>
     <use xlink:href="#DejaVuSans-69" x="116.259766"/>
     <use xlink:href="#DejaVuSans-6f" x="144.042969"/>
     <use xlink:href="#DejaVuSans-2e" x="203.474609"/>
     <use xlink:href="#DejaVuSans-74" x="235.261719"/>
     <use xlink:href="#DejaVuSans-68" x="274.470703"/>
     <use xlink:href="#DejaVuSans-72" x="337.849609"/>
     <use xlink:href="#DejaVuSans-65" x="376.712891"/>
     <use xlink:href="#DejaVuSans-61" x="438.236328"/>
     <use xlink:href="#DejaVuSans-64" x="499.515625"/>
     <use xlink:href="#DejaVuSans-5f" x="562.992188"/>
     <use xlink:href="#DejaVuSans-61" x="612.992188"/>
     <use xlink:href="#DejaVuSans-69" x="674.271484"/>
     <use xlink:href="#DejaVuSans-6f" x="702.054688"/>
     <use xlink:href="#DejaVuSans-5f" x="763.236328"/>
     <use xlink:href="#DejaVuSans-61" x="813.236328"/>
     <use xlink:href="#DejaVuSans-73" x="874.515625"/>
     <use xlink:href="#DejaVuSans-79" x="926.615234"/>
     <use xlink:href="#DejaVuSans-6e" x="985.794922"/>
     <use xlink:href="#DejaVuSans-63" x="1049.173828"/>
     <use xlink:href="#DejaVuSans-69" x="1104.154297"/>
     <use xlink:href="#DejaVuSans-6f" x="1131.9375"/>
     <use xlink:href="#DejaVuSans-20" x="1193.119141"/>
     <use xlink:href="#DejaVuSans-2d" x="1224.90625"/>
     <use xlink:href="#DejaVuSans-20" x="1260.990234"/>
     <use xlink:href="#DejaVuSans-72" x="1292.777344"/>
     <use xlink:href="#DejaVuSans-65" x="1331.640625"/>
     <use xlink:href="#DejaVuSans-61" x="1393.164062"/>
     <use xlink:href="#DejaVuSans-64" x="1454.443359"/>
     <use xlink:href="#DejaVuSans-20" x="1517.919922"/>
     <use xlink:href="#DejaVuSans-28" x="1549.707031"/>
     <use xlink:href="#DejaVuSans-54" x="1588.720703"/>
     <use xlink:href="#DejaVuSans-69" x="1646.679688"/>
     <use xlink:href="#DejaVuSans-6d" x="1674.462891"/>
     <use xlink:href="#DejaVuSans-65" x="1771.875"/>
     <use xlink:href="#DejaVuSans-20" x="1833.398438"/>
     <use xlink:href="#DejaVuSans-76" x="1865.185547"/>
     <use xlink:href="#DejaVuSans-73" x="1924.365234"/>
     <use xlink:href="#DejaVuSans-20" x="1976.464844"/>
     <use xlink:href="#DejaVuSans-43" x="2008.251953"/>
     <use xlink:href="#DejaVuSans-6f" x="2078.076172"/>
     <use xlink:href="#DejaVuSans-6e" x="2139.257812"/>
     <use xlink:href="#DejaVuSans-63" x="2202.636719"/>
     <use xlink:href="#DejaVuSans-75" x="2257.617188"/>
     <use xlink:href="#DejaVuSans-72" x="2320.996094"/>
     <use xlink:href="#DejaVuSans-72" x="2360.359375"/>
     <use xlink:href="#DejaVuSans-65" x="2399.222656"/>
     <use xlink:href="#DejaVuSans-6e" x="2460.746094"/>
     <use xlink:href="#DejaVuSans-63" x="2524.125"/>
     <use xlink:href="#DejaVuSans-79" x="2579.105469"/>
     <use xlink:href="#DejaVuSans-29" x="2638.285156"/>
    </g>
   </g>
   <g id="legend_1">
    <g id="patch_7">
     <path d="M 543.43125 149.5775 
L 641 149.5775 
Q 643 149.5775 643 147.5775 
L 643 58.84 
Q 643 56.84 641 56.84 
L 543.43125 56.84 
Q 541.43125 56.84 541.43125 58.84 
L 541.43125 147.5775 
Q 541.43125 149.5775 543.43125 149.5775 
z
" style="opacity: 0.8; stroke: #cccccc; stroke-linejoin: miter"/>
    </g>
    <g id="line2d_67">
     <path d="M 545.43125 64.938437 
L 555.43125 64.938437 
L 565.43125 64.938437 
" style="fill: none; stroke: #8dd3c7; stroke-width: 1.5; stroke-linecap: square"/>
    </g>
    <g id="text_34">
     <!-- max_ops=1 -->
     <g style="fill: #ffffff" transform="translate(573.43125 68.438437) scale(0.1 -0.1)">
      <defs>
       <path id="DejaVuSans-78" d="M 3513 3500 
L 2247 1797 
L 3578 0 
L 2900 0 
L 1881 1375 
L 863 0 
L 184 0 
L 1544 1831 
L 300 3500 
L 978 3500 
L 1906 2253 
L 2834 3500 
L 3513 3500 
z
" transform="scale(0.015625)"/>
       <path id="DejaVuSans-70" d="M 1159 525 
L 1159 -1331 
L 581 -1331 
L 581 3500 
L 1159 3500 
L 1159 2969 
Q 1341 3281 1617 3432 
Q 1894 3584 2278 3584 
Q 2916 3584 3314 3078 
Q 3713 2572 3713 1747 
Q 3713 922 3314 415 
Q 2916 -91 2278 -91 
Q 1894 -91 1617 61 
Q 1341 213 1159 525 
z
M 3116 1747 
Q 3116 2381 2855 2742 
Q 2594 3103 2138 3103 
Q 1681 3103 1420 2742 
Q 1159 2381 1159 1747 
Q 1159 1113 1420 752 
Q 1681 391 2138 391 
Q 2594 391 2855 752 
Q 3116 1113 3116 1747 
z
" transform="scale(0.015625)"/>
       <path id="DejaVuSans-3d" d="M 678 2906 
L 4684 2906 
L 4684 2381 
L 678 2381 
L 678 2906 
z
M 678 1631 
L 4684 1631 
L 4684 1100 
L 678 1100 
L 678 1631 
z
" transform="scale(0.015625)"/>
      </defs>
      <use xlink:href="#DejaVuSans-6d"/>
      <use xlink:href="#DejaVuSans-61" x="97.412109"/>
      <use xlink:href="#DejaVuSans-78" x="158.691406"/>
      <use xlink:href="#DejaVuSans-5f" x="217.871094"/>
      <use xlink:href="#DejaVuSans-6f" x="267.871094"/>
      <use xlink:href="#DejaVuSans-70" x="329.052734"/>
      <use xlink:href="#DejaVuSans-73" x="392.529297"/>
      <use xlink:href="#DejaVuSans-3d" x="444.628906"/>
      <use xlink:href="#DejaVuSans-31" x="528.417969"/>
     </g>
    </g>
    <g id="line2d_68">
     <path d="M 545.43125 79.894687 
L 555.43125 79.894687 
L 565.43125 79.894687 
" style="fill: none; stroke: #feffb3; stroke-width: 1.5; stroke-linecap: square"/>
    </g>
    <g id="text_35">
     <!-- max_ops=4 -->
     <g style="fill: #ffffff" transform="translate(573.43125 83.394687) scale(0.1 -0.1)">
      <use xlink:href="#DejaVuSans-6d"/>
      <use xlink:href="#DejaVuSans-61" x="97.412109"/>
      <use xlink:href="#DejaVuSans-78" x="158.691406"/>
      <use xlink:href="#DejaVuSans-5f" x="217.871094"/>
      <use xlink:href="#DejaVuSans-6f" x="267.871094"/>
      <use xlink:href="#DejaVuSans-70" x="329.052734"/>
      <use xlink:href="#DejaVuSans-73" x="392.529297"/>
      <use xlink:href="#DejaVuSans-3d" x="444.628906"/>
      <use xlink:href="#DejaVuSans-34" x="528.417969"/>
     </g>
    </g>
    <g id="line2d_69">
     <path d="M 545.43125 94.850937 
L 555.43125 94.850937 
L 565.43125 94.850937 
" style="fill: none; stroke: #bfbbd9; stroke-width: 1.5; stroke-linecap: square"/>
    </g>
    <g id="text_36">
     <!-- max_ops=8 -->
     <g style="fill: #ffffff" transform="translate(573.43125 98.350937) scale(0.1 -0.1)">
      <use xlink:href="#DejaVuSans-6d"/>
      <use xlink:href="#DejaVuSans-61" x="97.412109"/>
      <use xlink:href="#DejaVuSans-78" x="158.691406"/>
      <use xlink:href="#DejaVuSans-5f" x="217.871094"/>
      <use xlink:href="#DejaVuSans-6f" x="267.871094"/>
      <use xlink:href="#DejaVuSans-70" x="329.052734"/>
      <use xlink:href="#DejaVuSans-73" x="392.529297"/>
      <use xlink:href="#DejaVuSans-3d" x="444.628906"/>
      <use xlink:href="#DejaVuSans-38" x="528.417969"/>
     </g>
    </g>
    <g id="line2d_70">
     <path d="M 545.43125 109.807187 
L 555.43125 109.807187 
L 565.43125 109.807187 
" style="fill: none; stroke: #fa8174; stroke-width: 1.5; stroke-linecap: square"/>
    </g>
    <g id="text_37">
     <!-- max_ops=16 -->
     <g style="fill: #ffffff" transform="translate(573.43125 113.307187) scale(0.1 -0.1)">
      <use xlink:href="#DejaVuSans-6d"/>
      <use xlink:href="#DejaVuSans-61" x="97.412109"/>
      <use xlink:href="#DejaVuSans-78" x="158.691406"/>
      <use xlink:href="#DejaVuSans-5f" x="217.871094"/>
      <use xlink:href="#DejaVuSans-6f" x="267.871094"/>
      <use xlink:href="#DejaVuSans-70" x="329.052734"/>
      <use xlink:href="#DejaVuSans-73" x="392.529297"/>
      <use xlink:href="#DejaVuSans-3d" x="444.628906"/>
      <use xlink:href="#DejaVuSans-31" x="528.417969"/>
      <use xlink:href="#DejaVuSans-36" x="592.041016"/>
     </g>
    </g>
    <g id="line2d_71">
     <path d="M 545.43125 124.763437 
L 555.43125 124.763437 
L 565.43125 124.763437 
" style="fill: none; stroke: #81b1d2; stroke-width: 1.5; stroke-linecap: square"/>
    </g>
    <g id="text_38">
     <!-- max_ops=32 -->
     <g style="fill: #ffffff" transform="translate(573.43125 128.263437) scale(0.1 -0.1)">
      <use xlink:href="#DejaVuSans-6d"/>
      <use xlink:href="#DejaVuSans-61" x="97.412109"/>
      <use xlink:href="#DejaVuSans-78" x="158.691406"/>
      <use xlink:href="#DejaVuSans-5f" x="217.871094"/>
      <use xlink:href="#DejaVuSans-6f" x="267.871094"/>
      <use xlink:href="#DejaVuSans-70" x="329.052734"/>
      <use xlink:href="#DejaVuSans-73" x="392.529297"/>
      <use xlink:href="#DejaVuSans-3d" x="444.628906"/>
      <use xlink:href="#DejaVuSans-33" x="528.417969"/>
      <use xlink:href="#DejaVuSans-32" x="592.041016"/>
     </g>
    </g>
    <g id="line2d_72">
     <path d="M 545.43125 139.719687 
L 555.43125 139.719687 
L 565.43125 139.719687 
" style="fill: none; stroke: #fdb462; stroke-width: 1.5; stroke-linecap: square"/>
    </g>
    <g id="text_39">
     <!-- max_ops=64 -->
     <g style="fill: #ffffff" transform="translate(573.43125 143.219687) scale(0.1 -0.1)">
      <use xlink:href="#DejaVuSans-6d"/>
      <use xlink:href="#DejaVuSans-61" x="97.412109"/>
      <use xlink:href="#DejaVuSans-78" x="158.691406"/>
      <use xlink:href="#DejaVuSans-5f" x="217.871094"/>
      <use xlink:href="#DejaVuSans-6f" x="267.871094"/>
      <use xlink:href="#DejaVuSans-70" x="329.052734"/>
      <use xlink:href="#DejaVuSans-73" x="392.529297"/>
      <use xlink:href="#DejaVuSans-3d" x="444.628906"/>
      <use xlink:href="#DejaVuSans-36" x="528.417969"/>
      <use xlink:href="#DejaVuSans-34" x="592.041016"/>
     </g>
    </g>
   </g>
  </g>
 </g>
 <defs>
  <clipPath id="p27b051b309">
   <rect x="90" y="51.84" width="558" height="332.64"/>
  </clipPath>
 </defs>
</svg>
