<?xml version="1.0" encoding="utf-8" standalone="no"?>
<!DOCTYPE svg PUBLIC "-//W3C//DTD SVG 1.1//EN"
  "http://www.w3.org/Graphics/SVG/1.1/DTD/svg11.dtd">
<svg xmlns:xlink="http://www.w3.org/1999/xlink" width="720pt" height="432pt" viewBox="0 0 720 432" xmlns="http://www.w3.org/2000/svg" version="1.1">
 <metadata>
  <rdf:RDF xmlns:dc="http://purl.org/dc/elements/1.1/" xmlns:cc="http://creativecommons.org/ns#" xmlns:rdf="http://www.w3.org/1999/02/22-rdf-syntax-ns#">
   <cc:Work>
    <dc:type rdf:resource="http://purl.org/dc/dcmitype/StillImage"/>
    <dc:date>2024-01-19T20:47:01.999472</dc:date>
    <dc:format>image/svg+xml</dc:format>
    <dc:creator>
     <cc:Agent>
      <dc:title>Matplotlib v3.8.2, https://matplotlib.org/</dc:title>
     </cc:Agent>
    </dc:creator>
   </cc:Work>
  </rdf:RDF>
 </metadata>
 <defs>
  <style type="text/css">*{stroke-linejoin: round; stroke-linecap: butt}</style>
 </defs>
 <g id="figure_1">
  <g id="patch_1">
   <path d="M 0 432 
L 720 432 
L 720 0 
L 0 0 
z
"/>
  </g>
  <g id="axes_1">
   <g id="patch_2">
    <path d="M 90 384.48 
L 648 384.48 
L 648 51.84 
L 90 51.84 
z
"/>
   </g>
   <g id="matplotlib.axis_1">
    <g id="xtick_1">
     <g id="line2d_1">
      <path d="M 115.363636 384.48 
L 115.363636 51.84 
" clip-path="url(#p7b698cdf8b)" style="fill: none; stroke: #ffffff; stroke-width: 0.8; stroke-linecap: square"/>
     </g>
     <g id="line2d_2">
      <defs>
       <path id="m13d4d0c10a" d="M 0 0 
L 0 3.5 
" style="stroke: #ffffff; stroke-width: 0.8"/>
      </defs>
      <g>
       <use xlink:href="#m13d4d0c10a" x="115.363636" y="384.48" style="fill: #ffffff; stroke: #ffffff; stroke-width: 0.8"/>
      </g>
     </g>
     <g id="text_1">
      <!-- 1 -->
      <g style="fill: #ffffff" transform="translate(115.065326 401.351874) rotate(-45) scale(0.1 -0.1)">
       <defs>
        <path id="DejaVuSans-31" d="M 794 531 
L 1825 531 
L 1825 4091 
L 703 3866 
L 703 4441 
L 1819 4666 
L 2450 4666 
L 2450 531 
L 3481 531 
L 3481 0 
L 794 0 
L 794 531 
z
" transform="scale(0.015625)"/>
       </defs>
       <use xlink:href="#DejaVuSans-31"/>
      </g>
     </g>
    </g>
    <g id="xtick_2">
     <g id="line2d_3">
      <path d="M 136.5 384.48 
L 136.5 51.84 
" clip-path="url(#p7b698cdf8b)" style="fill: none; stroke: #ffffff; stroke-width: 0.8; stroke-linecap: square"/>
     </g>
     <g id="line2d_4">
      <g>
       <use xlink:href="#m13d4d0c10a" x="136.5" y="384.48" style="fill: #ffffff; stroke: #ffffff; stroke-width: 0.8"/>
      </g>
     </g>
     <g id="text_2">
      <!-- 201 -->
      <g style="fill: #ffffff" transform="translate(131.702722 410.349807) rotate(-45) scale(0.1 -0.1)">
       <defs>
        <path id="DejaVuSans-32" d="M 1228 531 
L 3431 531 
L 3431 0 
L 469 0 
L 469 531 
Q 828 903 1448 1529 
Q 2069 2156 2228 2338 
Q 2531 2678 2651 2914 
Q 2772 3150 2772 3378 
Q 2772 3750 2511 3984 
Q 2250 4219 1831 4219 
Q 1534 4219 1204 4116 
Q 875 4013 500 3803 
L 500 4441 
Q 881 4594 1212 4672 
Q 1544 4750 1819 4750 
Q 2544 4750 2975 4387 
Q 3406 4025 3406 3419 
Q 3406 3131 3298 2873 
Q 3191 2616 2906 2266 
Q 2828 2175 2409 1742 
Q 1991 1309 1228 531 
z
" transform="scale(0.015625)"/>
        <path id="DejaVuSans-30" d="M 2034 4250 
Q 1547 4250 1301 3770 
Q 1056 3291 1056 2328 
Q 1056 1369 1301 889 
Q 1547 409 2034 409 
Q 2525 409 2770 889 
Q 3016 1369 3016 2328 
Q 3016 3291 2770 3770 
Q 2525 4250 2034 4250 
z
M 2034 4750 
Q 2819 4750 3233 4129 
Q 3647 3509 3647 2328 
Q 3647 1150 3233 529 
Q 2819 -91 2034 -91 
Q 1250 -91 836 529 
Q 422 1150 422 2328 
Q 422 3509 836 4129 
Q 1250 4750 2034 4750 
z
" transform="scale(0.015625)"/>
       </defs>
       <use xlink:href="#DejaVuSans-32"/>
       <use xlink:href="#DejaVuSans-30" x="63.623047"/>
       <use xlink:href="#DejaVuSans-31" x="127.246094"/>
      </g>
     </g>
    </g>
    <g id="xtick_3">
     <g id="line2d_5">
      <path d="M 157.636364 384.48 
L 157.636364 51.84 
" clip-path="url(#p7b698cdf8b)" style="fill: none; stroke: #ffffff; stroke-width: 0.8; stroke-linecap: square"/>
     </g>
     <g id="line2d_6">
      <g>
       <use xlink:href="#m13d4d0c10a" x="157.636364" y="384.48" style="fill: #ffffff; stroke: #ffffff; stroke-width: 0.8"/>
      </g>
     </g>
     <g id="text_3">
      <!-- 401 -->
      <g style="fill: #ffffff" transform="translate(152.839086 410.349807) rotate(-45) scale(0.1 -0.1)">
       <defs>
        <path id="DejaVuSans-34" d="M 2419 4116 
L 825 1625 
L 2419 1625 
L 2419 4116 
z
M 2253 4666 
L 3047 4666 
L 3047 1625 
L 3713 1625 
L 3713 1100 
L 3047 1100 
L 3047 0 
L 2419 0 
L 2419 1100 
L 313 1100 
L 313 1709 
L 2253 4666 
z
" transform="scale(0.015625)"/>
       </defs>
       <use xlink:href="#DejaVuSans-34"/>
       <use xlink:href="#DejaVuSans-30" x="63.623047"/>
       <use xlink:href="#DejaVuSans-31" x="127.246094"/>
      </g>
     </g>
    </g>
    <g id="xtick_4">
     <g id="line2d_7">
      <path d="M 178.772727 384.48 
L 178.772727 51.84 
" clip-path="url(#p7b698cdf8b)" style="fill: none; stroke: #ffffff; stroke-width: 0.8; stroke-linecap: square"/>
     </g>
     <g id="line2d_8">
      <g>
       <use xlink:href="#m13d4d0c10a" x="178.772727" y="384.48" style="fill: #ffffff; stroke: #ffffff; stroke-width: 0.8"/>
      </g>
     </g>
     <g id="text_4">
      <!-- 601 -->
      <g style="fill: #ffffff" transform="translate(173.97545 410.349807) rotate(-45) scale(0.1 -0.1)">
       <defs>
        <path id="DejaVuSans-36" d="M 2113 2584 
Q 1688 2584 1439 2293 
Q 1191 2003 1191 1497 
Q 1191 994 1439 701 
Q 1688 409 2113 409 
Q 2538 409 2786 701 
Q 3034 994 3034 1497 
Q 3034 2003 2786 2293 
Q 2538 2584 2113 2584 
z
M 3366 4563 
L 3366 3988 
Q 3128 4100 2886 4159 
Q 2644 4219 2406 4219 
Q 1781 4219 1451 3797 
Q 1122 3375 1075 2522 
Q 1259 2794 1537 2939 
Q 1816 3084 2150 3084 
Q 2853 3084 3261 2657 
Q 3669 2231 3669 1497 
Q 3669 778 3244 343 
Q 2819 -91 2113 -91 
Q 1303 -91 875 529 
Q 447 1150 447 2328 
Q 447 3434 972 4092 
Q 1497 4750 2381 4750 
Q 2619 4750 2861 4703 
Q 3103 4656 3366 4563 
z
" transform="scale(0.015625)"/>
       </defs>
       <use xlink:href="#DejaVuSans-36"/>
       <use xlink:href="#DejaVuSans-30" x="63.623047"/>
       <use xlink:href="#DejaVuSans-31" x="127.246094"/>
      </g>
     </g>
    </g>
    <g id="xtick_5">
     <g id="line2d_9">
      <path d="M 199.909091 384.48 
L 199.909091 51.84 
" clip-path="url(#p7b698cdf8b)" style="fill: none; stroke: #ffffff; stroke-width: 0.8; stroke-linecap: square"/>
     </g>
     <g id="line2d_10">
      <g>
       <use xlink:href="#m13d4d0c10a" x="199.909091" y="384.48" style="fill: #ffffff; stroke: #ffffff; stroke-width: 0.8"/>
      </g>
     </g>
     <g id="text_5">
      <!-- 801 -->
      <g style="fill: #ffffff" transform="translate(195.111813 410.349807) rotate(-45) scale(0.1 -0.1)">
       <defs>
        <path id="DejaVuSans-38" d="M 2034 2216 
Q 1584 2216 1326 1975 
Q 1069 1734 1069 1313 
Q 1069 891 1326 650 
Q 1584 409 2034 409 
Q 2484 409 2743 651 
Q 3003 894 3003 1313 
Q 3003 1734 2745 1975 
Q 2488 2216 2034 2216 
z
M 1403 2484 
Q 997 2584 770 2862 
Q 544 3141 544 3541 
Q 544 4100 942 4425 
Q 1341 4750 2034 4750 
Q 2731 4750 3128 4425 
Q 3525 4100 3525 3541 
Q 3525 3141 3298 2862 
Q 3072 2584 2669 2484 
Q 3125 2378 3379 2068 
Q 3634 1759 3634 1313 
Q 3634 634 3220 271 
Q 2806 -91 2034 -91 
Q 1263 -91 848 271 
Q 434 634 434 1313 
Q 434 1759 690 2068 
Q 947 2378 1403 2484 
z
M 1172 3481 
Q 1172 3119 1398 2916 
Q 1625 2713 2034 2713 
Q 2441 2713 2670 2916 
Q 2900 3119 2900 3481 
Q 2900 3844 2670 4047 
Q 2441 4250 2034 4250 
Q 1625 4250 1398 4047 
Q 1172 3844 1172 3481 
z
" transform="scale(0.015625)"/>
       </defs>
       <use xlink:href="#DejaVuSans-38"/>
       <use xlink:href="#DejaVuSans-30" x="63.623047"/>
       <use xlink:href="#DejaVuSans-31" x="127.246094"/>
      </g>
     </g>
    </g>
    <g id="xtick_6">
     <g id="line2d_11">
      <path d="M 221.045455 384.48 
L 221.045455 51.84 
" clip-path="url(#p7b698cdf8b)" style="fill: none; stroke: #ffffff; stroke-width: 0.8; stroke-linecap: square"/>
     </g>
     <g id="line2d_12">
      <g>
       <use xlink:href="#m13d4d0c10a" x="221.045455" y="384.48" style="fill: #ffffff; stroke: #ffffff; stroke-width: 0.8"/>
      </g>
     </g>
     <g id="text_6">
      <!-- 1001 -->
      <g style="fill: #ffffff" transform="translate(213.998694 414.848774) rotate(-45) scale(0.1 -0.1)">
       <use xlink:href="#DejaVuSans-31"/>
       <use xlink:href="#DejaVuSans-30" x="63.623047"/>
       <use xlink:href="#DejaVuSans-30" x="127.246094"/>
       <use xlink:href="#DejaVuSans-31" x="190.869141"/>
      </g>
     </g>
    </g>
    <g id="xtick_7">
     <g id="line2d_13">
      <path d="M 242.181818 384.48 
L 242.181818 51.84 
" clip-path="url(#p7b698cdf8b)" style="fill: none; stroke: #ffffff; stroke-width: 0.8; stroke-linecap: square"/>
     </g>
     <g id="line2d_14">
      <g>
       <use xlink:href="#m13d4d0c10a" x="242.181818" y="384.48" style="fill: #ffffff; stroke: #ffffff; stroke-width: 0.8"/>
      </g>
     </g>
     <g id="text_7">
      <!-- 1201 -->
      <g style="fill: #ffffff" transform="translate(235.135057 414.848774) rotate(-45) scale(0.1 -0.1)">
       <use xlink:href="#DejaVuSans-31"/>
       <use xlink:href="#DejaVuSans-32" x="63.623047"/>
       <use xlink:href="#DejaVuSans-30" x="127.246094"/>
       <use xlink:href="#DejaVuSans-31" x="190.869141"/>
      </g>
     </g>
    </g>
    <g id="xtick_8">
     <g id="line2d_15">
      <path d="M 263.318182 384.48 
L 263.318182 51.84 
" clip-path="url(#p7b698cdf8b)" style="fill: none; stroke: #ffffff; stroke-width: 0.8; stroke-linecap: square"/>
     </g>
     <g id="line2d_16">
      <g>
       <use xlink:href="#m13d4d0c10a" x="263.318182" y="384.48" style="fill: #ffffff; stroke: #ffffff; stroke-width: 0.8"/>
      </g>
     </g>
     <g id="text_8">
      <!-- 1401 -->
      <g style="fill: #ffffff" transform="translate(256.271421 414.848774) rotate(-45) scale(0.1 -0.1)">
       <use xlink:href="#DejaVuSans-31"/>
       <use xlink:href="#DejaVuSans-34" x="63.623047"/>
       <use xlink:href="#DejaVuSans-30" x="127.246094"/>
       <use xlink:href="#DejaVuSans-31" x="190.869141"/>
      </g>
     </g>
    </g>
    <g id="xtick_9">
     <g id="line2d_17">
      <path d="M 284.454545 384.48 
L 284.454545 51.84 
" clip-path="url(#p7b698cdf8b)" style="fill: none; stroke: #ffffff; stroke-width: 0.8; stroke-linecap: square"/>
     </g>
     <g id="line2d_18">
      <g>
       <use xlink:href="#m13d4d0c10a" x="284.454545" y="384.48" style="fill: #ffffff; stroke: #ffffff; stroke-width: 0.8"/>
      </g>
     </g>
     <g id="text_9">
      <!-- 1601 -->
      <g style="fill: #ffffff" transform="translate(277.407784 414.848774) rotate(-45) scale(0.1 -0.1)">
       <use xlink:href="#DejaVuSans-31"/>
       <use xlink:href="#DejaVuSans-36" x="63.623047"/>
       <use xlink:href="#DejaVuSans-30" x="127.246094"/>
       <use xlink:href="#DejaVuSans-31" x="190.869141"/>
      </g>
     </g>
    </g>
    <g id="xtick_10">
     <g id="line2d_19">
      <path d="M 305.590909 384.48 
L 305.590909 51.84 
" clip-path="url(#p7b698cdf8b)" style="fill: none; stroke: #ffffff; stroke-width: 0.8; stroke-linecap: square"/>
     </g>
     <g id="line2d_20">
      <g>
       <use xlink:href="#m13d4d0c10a" x="305.590909" y="384.48" style="fill: #ffffff; stroke: #ffffff; stroke-width: 0.8"/>
      </g>
     </g>
     <g id="text_10">
      <!-- 1801 -->
      <g style="fill: #ffffff" transform="translate(298.544148 414.848774) rotate(-45) scale(0.1 -0.1)">
       <use xlink:href="#DejaVuSans-31"/>
       <use xlink:href="#DejaVuSans-38" x="63.623047"/>
       <use xlink:href="#DejaVuSans-30" x="127.246094"/>
       <use xlink:href="#DejaVuSans-31" x="190.869141"/>
      </g>
     </g>
    </g>
    <g id="xtick_11">
     <g id="line2d_21">
      <path d="M 326.727273 384.48 
L 326.727273 51.84 
" clip-path="url(#p7b698cdf8b)" style="fill: none; stroke: #ffffff; stroke-width: 0.8; stroke-linecap: square"/>
     </g>
     <g id="line2d_22">
      <g>
       <use xlink:href="#m13d4d0c10a" x="326.727273" y="384.48" style="fill: #ffffff; stroke: #ffffff; stroke-width: 0.8"/>
      </g>
     </g>
     <g id="text_11">
      <!-- 2001 -->
      <g style="fill: #ffffff" transform="translate(319.680512 414.848774) rotate(-45) scale(0.1 -0.1)">
       <use xlink:href="#DejaVuSans-32"/>
       <use xlink:href="#DejaVuSans-30" x="63.623047"/>
       <use xlink:href="#DejaVuSans-30" x="127.246094"/>
       <use xlink:href="#DejaVuSans-31" x="190.869141"/>
      </g>
     </g>
    </g>
    <g id="xtick_12">
     <g id="line2d_23">
      <path d="M 347.863636 384.48 
L 347.863636 51.84 
" clip-path="url(#p7b698cdf8b)" style="fill: none; stroke: #ffffff; stroke-width: 0.8; stroke-linecap: square"/>
     </g>
     <g id="line2d_24">
      <g>
       <use xlink:href="#m13d4d0c10a" x="347.863636" y="384.48" style="fill: #ffffff; stroke: #ffffff; stroke-width: 0.8"/>
      </g>
     </g>
     <g id="text_12">
      <!-- 2201 -->
      <g style="fill: #ffffff" transform="translate(340.816875 414.848774) rotate(-45) scale(0.1 -0.1)">
       <use xlink:href="#DejaVuSans-32"/>
       <use xlink:href="#DejaVuSans-32" x="63.623047"/>
       <use xlink:href="#DejaVuSans-30" x="127.246094"/>
       <use xlink:href="#DejaVuSans-31" x="190.869141"/>
      </g>
     </g>
    </g>
    <g id="xtick_13">
     <g id="line2d_25">
      <path d="M 369 384.48 
L 369 51.84 
" clip-path="url(#p7b698cdf8b)" style="fill: none; stroke: #ffffff; stroke-width: 0.8; stroke-linecap: square"/>
     </g>
     <g id="line2d_26">
      <g>
       <use xlink:href="#m13d4d0c10a" x="369" y="384.48" style="fill: #ffffff; stroke: #ffffff; stroke-width: 0.8"/>
      </g>
     </g>
     <g id="text_13">
      <!-- 2401 -->
      <g style="fill: #ffffff" transform="translate(361.953239 414.848774) rotate(-45) scale(0.1 -0.1)">
       <use xlink:href="#DejaVuSans-32"/>
       <use xlink:href="#DejaVuSans-34" x="63.623047"/>
       <use xlink:href="#DejaVuSans-30" x="127.246094"/>
       <use xlink:href="#DejaVuSans-31" x="190.869141"/>
      </g>
     </g>
    </g>
    <g id="xtick_14">
     <g id="line2d_27">
      <path d="M 390.136364 384.48 
L 390.136364 51.84 
" clip-path="url(#p7b698cdf8b)" style="fill: none; stroke: #ffffff; stroke-width: 0.8; stroke-linecap: square"/>
     </g>
     <g id="line2d_28">
      <g>
       <use xlink:href="#m13d4d0c10a" x="390.136364" y="384.48" style="fill: #ffffff; stroke: #ffffff; stroke-width: 0.8"/>
      </g>
     </g>
     <g id="text_14">
      <!-- 2601 -->
      <g style="fill: #ffffff" transform="translate(383.089603 414.848774) rotate(-45) scale(0.1 -0.1)">
       <use xlink:href="#DejaVuSans-32"/>
       <use xlink:href="#DejaVuSans-36" x="63.623047"/>
       <use xlink:href="#DejaVuSans-30" x="127.246094"/>
       <use xlink:href="#DejaVuSans-31" x="190.869141"/>
      </g>
     </g>
    </g>
    <g id="xtick_15">
     <g id="line2d_29">
      <path d="M 411.272727 384.48 
L 411.272727 51.84 
" clip-path="url(#p7b698cdf8b)" style="fill: none; stroke: #ffffff; stroke-width: 0.8; stroke-linecap: square"/>
     </g>
     <g id="line2d_30">
      <g>
       <use xlink:href="#m13d4d0c10a" x="411.272727" y="384.48" style="fill: #ffffff; stroke: #ffffff; stroke-width: 0.8"/>
      </g>
     </g>
     <g id="text_15">
      <!-- 2801 -->
      <g style="fill: #ffffff" transform="translate(404.225966 414.848774) rotate(-45) scale(0.1 -0.1)">
       <use xlink:href="#DejaVuSans-32"/>
       <use xlink:href="#DejaVuSans-38" x="63.623047"/>
       <use xlink:href="#DejaVuSans-30" x="127.246094"/>
       <use xlink:href="#DejaVuSans-31" x="190.869141"/>
      </g>
     </g>
    </g>
    <g id="xtick_16">
     <g id="line2d_31">
      <path d="M 432.409091 384.48 
L 432.409091 51.84 
" clip-path="url(#p7b698cdf8b)" style="fill: none; stroke: #ffffff; stroke-width: 0.8; stroke-linecap: square"/>
     </g>
     <g id="line2d_32">
      <g>
       <use xlink:href="#m13d4d0c10a" x="432.409091" y="384.48" style="fill: #ffffff; stroke: #ffffff; stroke-width: 0.8"/>
      </g>
     </g>
     <g id="text_16">
      <!-- 3001 -->
      <g style="fill: #ffffff" transform="translate(425.36233 414.848774) rotate(-45) scale(0.1 -0.1)">
       <defs>
        <path id="DejaVuSans-33" d="M 2597 2516 
Q 3050 2419 3304 2112 
Q 3559 1806 3559 1356 
Q 3559 666 3084 287 
Q 2609 -91 1734 -91 
Q 1441 -91 1130 -33 
Q 819 25 488 141 
L 488 750 
Q 750 597 1062 519 
Q 1375 441 1716 441 
Q 2309 441 2620 675 
Q 2931 909 2931 1356 
Q 2931 1769 2642 2001 
Q 2353 2234 1838 2234 
L 1294 2234 
L 1294 2753 
L 1863 2753 
Q 2328 2753 2575 2939 
Q 2822 3125 2822 3475 
Q 2822 3834 2567 4026 
Q 2313 4219 1838 4219 
Q 1578 4219 1281 4162 
Q 984 4106 628 3988 
L 628 4550 
Q 988 4650 1302 4700 
Q 1616 4750 1894 4750 
Q 2613 4750 3031 4423 
Q 3450 4097 3450 3541 
Q 3450 3153 3228 2886 
Q 3006 2619 2597 2516 
z
" transform="scale(0.015625)"/>
       </defs>
       <use xlink:href="#DejaVuSans-33"/>
       <use xlink:href="#DejaVuSans-30" x="63.623047"/>
       <use xlink:href="#DejaVuSans-30" x="127.246094"/>
       <use xlink:href="#DejaVuSans-31" x="190.869141"/>
      </g>
     </g>
    </g>
    <g id="xtick_17">
     <g id="line2d_33">
      <path d="M 453.545455 384.48 
L 453.545455 51.84 
" clip-path="url(#p7b698cdf8b)" style="fill: none; stroke: #ffffff; stroke-width: 0.8; stroke-linecap: square"/>
     </g>
     <g id="line2d_34">
      <g>
       <use xlink:href="#m13d4d0c10a" x="453.545455" y="384.48" style="fill: #ffffff; stroke: #ffffff; stroke-width: 0.8"/>
      </g>
     </g>
     <g id="text_17">
      <!-- 3201 -->
      <g style="fill: #ffffff" transform="translate(446.498694 414.848774) rotate(-45) scale(0.1 -0.1)">
       <use xlink:href="#DejaVuSans-33"/>
       <use xlink:href="#DejaVuSans-32" x="63.623047"/>
       <use xlink:href="#DejaVuSans-30" x="127.246094"/>
       <use xlink:href="#DejaVuSans-31" x="190.869141"/>
      </g>
     </g>
    </g>
    <g id="xtick_18">
     <g id="line2d_35">
      <path d="M 474.681818 384.48 
L 474.681818 51.84 
" clip-path="url(#p7b698cdf8b)" style="fill: none; stroke: #ffffff; stroke-width: 0.8; stroke-linecap: square"/>
     </g>
     <g id="line2d_36">
      <g>
       <use xlink:href="#m13d4d0c10a" x="474.681818" y="384.48" style="fill: #ffffff; stroke: #ffffff; stroke-width: 0.8"/>
      </g>
     </g>
     <g id="text_18">
      <!-- 3401 -->
      <g style="fill: #ffffff" transform="translate(467.635057 414.848774) rotate(-45) scale(0.1 -0.1)">
       <use xlink:href="#DejaVuSans-33"/>
       <use xlink:href="#DejaVuSans-34" x="63.623047"/>
       <use xlink:href="#DejaVuSans-30" x="127.246094"/>
       <use xlink:href="#DejaVuSans-31" x="190.869141"/>
      </g>
     </g>
    </g>
    <g id="xtick_19">
     <g id="line2d_37">
      <path d="M 495.818182 384.48 
L 495.818182 51.84 
" clip-path="url(#p7b698cdf8b)" style="fill: none; stroke: #ffffff; stroke-width: 0.8; stroke-linecap: square"/>
     </g>
     <g id="line2d_38">
      <g>
       <use xlink:href="#m13d4d0c10a" x="495.818182" y="384.48" style="fill: #ffffff; stroke: #ffffff; stroke-width: 0.8"/>
      </g>
     </g>
     <g id="text_19">
      <!-- 3601 -->
      <g style="fill: #ffffff" transform="translate(488.771421 414.848774) rotate(-45) scale(0.1 -0.1)">
       <use xlink:href="#DejaVuSans-33"/>
       <use xlink:href="#DejaVuSans-36" x="63.623047"/>
       <use xlink:href="#DejaVuSans-30" x="127.246094"/>
       <use xlink:href="#DejaVuSans-31" x="190.869141"/>
      </g>
     </g>
    </g>
    <g id="xtick_20">
     <g id="line2d_39">
      <path d="M 516.954545 384.48 
L 516.954545 51.84 
" clip-path="url(#p7b698cdf8b)" style="fill: none; stroke: #ffffff; stroke-width: 0.8; stroke-linecap: square"/>
     </g>
     <g id="line2d_40">
      <g>
       <use xlink:href="#m13d4d0c10a" x="516.954545" y="384.48" style="fill: #ffffff; stroke: #ffffff; stroke-width: 0.8"/>
      </g>
     </g>
     <g id="text_20">
      <!-- 3801 -->
      <g style="fill: #ffffff" transform="translate(509.907784 414.848774) rotate(-45) scale(0.1 -0.1)">
       <use xlink:href="#DejaVuSans-33"/>
       <use xlink:href="#DejaVuSans-38" x="63.623047"/>
       <use xlink:href="#DejaVuSans-30" x="127.246094"/>
       <use xlink:href="#DejaVuSans-31" x="190.869141"/>
      </g>
     </g>
    </g>
    <g id="xtick_21">
     <g id="line2d_41">
      <path d="M 538.090909 384.48 
L 538.090909 51.84 
" clip-path="url(#p7b698cdf8b)" style="fill: none; stroke: #ffffff; stroke-width: 0.8; stroke-linecap: square"/>
     </g>
     <g id="line2d_42">
      <g>
       <use xlink:href="#m13d4d0c10a" x="538.090909" y="384.48" style="fill: #ffffff; stroke: #ffffff; stroke-width: 0.8"/>
      </g>
     </g>
     <g id="text_21">
      <!-- 4001 -->
      <g style="fill: #ffffff" transform="translate(531.044148 414.848774) rotate(-45) scale(0.1 -0.1)">
       <use xlink:href="#DejaVuSans-34"/>
       <use xlink:href="#DejaVuSans-30" x="63.623047"/>
       <use xlink:href="#DejaVuSans-30" x="127.246094"/>
       <use xlink:href="#DejaVuSans-31" x="190.869141"/>
      </g>
     </g>
    </g>
    <g id="xtick_22">
     <g id="line2d_43">
      <path d="M 559.227273 384.48 
L 559.227273 51.84 
" clip-path="url(#p7b698cdf8b)" style="fill: none; stroke: #ffffff; stroke-width: 0.8; stroke-linecap: square"/>
     </g>
     <g id="line2d_44">
      <g>
       <use xlink:href="#m13d4d0c10a" x="559.227273" y="384.48" style="fill: #ffffff; stroke: #ffffff; stroke-width: 0.8"/>
      </g>
     </g>
     <g id="text_22">
      <!-- 4201 -->
      <g style="fill: #ffffff" transform="translate(552.180512 414.848774) rotate(-45) scale(0.1 -0.1)">
       <use xlink:href="#DejaVuSans-34"/>
       <use xlink:href="#DejaVuSans-32" x="63.623047"/>
       <use xlink:href="#DejaVuSans-30" x="127.246094"/>
       <use xlink:href="#DejaVuSans-31" x="190.869141"/>
      </g>
     </g>
    </g>
    <g id="xtick_23">
     <g id="line2d_45">
      <path d="M 580.363636 384.48 
L 580.363636 51.84 
" clip-path="url(#p7b698cdf8b)" style="fill: none; stroke: #ffffff; stroke-width: 0.8; stroke-linecap: square"/>
     </g>
     <g id="line2d_46">
      <g>
       <use xlink:href="#m13d4d0c10a" x="580.363636" y="384.48" style="fill: #ffffff; stroke: #ffffff; stroke-width: 0.8"/>
      </g>
     </g>
     <g id="text_23">
      <!-- 4401 -->
      <g style="fill: #ffffff" transform="translate(573.316875 414.848774) rotate(-45) scale(0.1 -0.1)">
       <use xlink:href="#DejaVuSans-34"/>
       <use xlink:href="#DejaVuSans-34" x="63.623047"/>
       <use xlink:href="#DejaVuSans-30" x="127.246094"/>
       <use xlink:href="#DejaVuSans-31" x="190.869141"/>
      </g>
     </g>
    </g>
    <g id="xtick_24">
     <g id="line2d_47">
      <path d="M 601.5 384.48 
L 601.5 51.84 
" clip-path="url(#p7b698cdf8b)" style="fill: none; stroke: #ffffff; stroke-width: 0.8; stroke-linecap: square"/>
     </g>
     <g id="line2d_48">
      <g>
       <use xlink:href="#m13d4d0c10a" x="601.5" y="384.48" style="fill: #ffffff; stroke: #ffffff; stroke-width: 0.8"/>
      </g>
     </g>
     <g id="text_24">
      <!-- 4601 -->
      <g style="fill: #ffffff" transform="translate(594.453239 414.848774) rotate(-45) scale(0.1 -0.1)">
       <use xlink:href="#DejaVuSans-34"/>
       <use xlink:href="#DejaVuSans-36" x="63.623047"/>
       <use xlink:href="#DejaVuSans-30" x="127.246094"/>
       <use xlink:href="#DejaVuSans-31" x="190.869141"/>
      </g>
     </g>
    </g>
    <g id="xtick_25">
     <g id="line2d_49">
      <path d="M 622.636364 384.48 
L 622.636364 51.84 
" clip-path="url(#p7b698cdf8b)" style="fill: none; stroke: #ffffff; stroke-width: 0.8; stroke-linecap: square"/>
     </g>
     <g id="line2d_50">
      <g>
       <use xlink:href="#m13d4d0c10a" x="622.636364" y="384.48" style="fill: #ffffff; stroke: #ffffff; stroke-width: 0.8"/>
      </g>
     </g>
     <g id="text_25">
      <!-- 4801 -->
      <g style="fill: #ffffff" transform="translate(615.589603 414.848774) rotate(-45) scale(0.1 -0.1)">
       <use xlink:href="#DejaVuSans-34"/>
       <use xlink:href="#DejaVuSans-38" x="63.623047"/>
       <use xlink:href="#DejaVuSans-30" x="127.246094"/>
       <use xlink:href="#DejaVuSans-31" x="190.869141"/>
      </g>
     </g>
    </g>
    <g id="text_26">
     <!-- concurrency -->
     <g style="fill: #ffffff" transform="translate(338.239844 427.917773) scale(0.1 -0.1)">
      <defs>
       <path id="DejaVuSans-63" d="M 3122 3366 
L 3122 2828 
Q 2878 2963 2633 3030 
Q 2388 3097 2138 3097 
Q 1578 3097 1268 2742 
Q 959 2388 959 1747 
Q 959 1106 1268 751 
Q 1578 397 2138 397 
Q 2388 397 2633 464 
Q 2878 531 3122 666 
L 3122 134 
Q 2881 22 2623 -34 
Q 2366 -91 2075 -91 
Q 1284 -91 818 406 
Q 353 903 353 1747 
Q 353 2603 823 3093 
Q 1294 3584 2113 3584 
Q 2378 3584 2631 3529 
Q 2884 3475 3122 3366 
z
" transform="scale(0.015625)"/>
       <path id="DejaVuSans-6f" d="M 1959 3097 
Q 1497 3097 1228 2736 
Q 959 2375 959 1747 
Q 959 1119 1226 758 
Q 1494 397 1959 397 
Q 2419 397 2687 759 
Q 2956 1122 2956 1747 
Q 2956 2369 2687 2733 
Q 2419 3097 1959 3097 
z
M 1959 3584 
Q 2709 3584 3137 3096 
Q 3566 2609 3566 1747 
Q 3566 888 3137 398 
Q 2709 -91 1959 -91 
Q 1206 -91 779 398 
Q 353 888 353 1747 
Q 353 2609 779 3096 
Q 1206 3584 1959 3584 
z
" transform="scale(0.015625)"/>
       <path id="DejaVuSans-6e" d="M 3513 2113 
L 3513 0 
L 2938 0 
L 2938 2094 
Q 2938 2591 2744 2837 
Q 2550 3084 2163 3084 
Q 1697 3084 1428 2787 
Q 1159 2491 1159 1978 
L 1159 0 
L 581 0 
L 581 3500 
L 1159 3500 
L 1159 2956 
Q 1366 3272 1645 3428 
Q 1925 3584 2291 3584 
Q 2894 3584 3203 3211 
Q 3513 2838 3513 2113 
z
" transform="scale(0.015625)"/>
       <path id="DejaVuSans-75" d="M 544 1381 
L 544 3500 
L 1119 3500 
L 1119 1403 
Q 1119 906 1312 657 
Q 1506 409 1894 409 
Q 2359 409 2629 706 
Q 2900 1003 2900 1516 
L 2900 3500 
L 3475 3500 
L 3475 0 
L 2900 0 
L 2900 538 
Q 2691 219 2414 64 
Q 2138 -91 1772 -91 
Q 1169 -91 856 284 
Q 544 659 544 1381 
z
M 1991 3584 
L 1991 3584 
z
" transform="scale(0.015625)"/>
       <path id="DejaVuSans-72" d="M 2631 2963 
Q 2534 3019 2420 3045 
Q 2306 3072 2169 3072 
Q 1681 3072 1420 2755 
Q 1159 2438 1159 1844 
L 1159 0 
L 581 0 
L 581 3500 
L 1159 3500 
L 1159 2956 
Q 1341 3275 1631 3429 
Q 1922 3584 2338 3584 
Q 2397 3584 2469 3576 
Q 2541 3569 2628 3553 
L 2631 2963 
z
" transform="scale(0.015625)"/>
       <path id="DejaVuSans-65" d="M 3597 1894 
L 3597 1613 
L 953 1613 
Q 991 1019 1311 708 
Q 1631 397 2203 397 
Q 2534 397 2845 478 
Q 3156 559 3463 722 
L 3463 178 
Q 3153 47 2828 -22 
Q 2503 -91 2169 -91 
Q 1331 -91 842 396 
Q 353 884 353 1716 
Q 353 2575 817 3079 
Q 1281 3584 2069 3584 
Q 2775 3584 3186 3129 
Q 3597 2675 3597 1894 
z
M 3022 2063 
Q 3016 2534 2758 2815 
Q 2500 3097 2075 3097 
Q 1594 3097 1305 2825 
Q 1016 2553 972 2059 
L 3022 2063 
z
" transform="scale(0.015625)"/>
       <path id="DejaVuSans-79" d="M 2059 -325 
Q 1816 -950 1584 -1140 
Q 1353 -1331 966 -1331 
L 506 -1331 
L 506 -850 
L 844 -850 
Q 1081 -850 1212 -737 
Q 1344 -625 1503 -206 
L 1606 56 
L 191 3500 
L 800 3500 
L 1894 763 
L 2988 3500 
L 3597 3500 
L 2059 -325 
z
" transform="scale(0.015625)"/>
      </defs>
      <use xlink:href="#DejaVuSans-63"/>
      <use xlink:href="#DejaVuSans-6f" x="54.980469"/>
      <use xlink:href="#DejaVuSans-6e" x="116.162109"/>
      <use xlink:href="#DejaVuSans-63" x="179.541016"/>
      <use xlink:href="#DejaVuSans-75" x="234.521484"/>
      <use xlink:href="#DejaVuSans-72" x="297.900391"/>
      <use xlink:href="#DejaVuSans-72" x="337.263672"/>
      <use xlink:href="#DejaVuSans-65" x="376.126953"/>
      <use xlink:href="#DejaVuSans-6e" x="437.650391"/>
      <use xlink:href="#DejaVuSans-63" x="501.029297"/>
      <use xlink:href="#DejaVuSans-79" x="556.009766"/>
     </g>
    </g>
   </g>
   <g id="matplotlib.axis_2">
    <g id="ytick_1">
     <g id="line2d_51">
      <path d="M 90 337.987631 
L 648 337.987631 
" clip-path="url(#p7b698cdf8b)" style="fill: none; stroke: #ffffff; stroke-width: 0.8; stroke-linecap: square"/>
     </g>
     <g id="line2d_52">
      <defs>
       <path id="mc1f40b1234" d="M 0 0 
L -3.5 0 
" style="stroke: #ffffff; stroke-width: 0.8"/>
      </defs>
      <g>
       <use xlink:href="#mc1f40b1234" x="90" y="337.987631" style="fill: #ffffff; stroke: #ffffff; stroke-width: 0.8"/>
      </g>
     </g>
     <g id="text_27">
      <!-- 200 -->
      <g style="fill: #ffffff" transform="translate(63.9125 341.78685) scale(0.1 -0.1)">
       <use xlink:href="#DejaVuSans-32"/>
       <use xlink:href="#DejaVuSans-30" x="63.623047"/>
       <use xlink:href="#DejaVuSans-30" x="127.246094"/>
      </g>
     </g>
    </g>
    <g id="ytick_2">
     <g id="line2d_53">
      <path d="M 90 266.486223 
L 648 266.486223 
" clip-path="url(#p7b698cdf8b)" style="fill: none; stroke: #ffffff; stroke-width: 0.8; stroke-linecap: square"/>
     </g>
     <g id="line2d_54">
      <g>
       <use xlink:href="#mc1f40b1234" x="90" y="266.486223" style="fill: #ffffff; stroke: #ffffff; stroke-width: 0.8"/>
      </g>
     </g>
     <g id="text_28">
      <!-- 400 -->
      <g style="fill: #ffffff" transform="translate(63.9125 270.285442) scale(0.1 -0.1)">
       <use xlink:href="#DejaVuSans-34"/>
       <use xlink:href="#DejaVuSans-30" x="63.623047"/>
       <use xlink:href="#DejaVuSans-30" x="127.246094"/>
      </g>
     </g>
    </g>
    <g id="ytick_3">
     <g id="line2d_55">
      <path d="M 90 194.984814 
L 648 194.984814 
" clip-path="url(#p7b698cdf8b)" style="fill: none; stroke: #ffffff; stroke-width: 0.8; stroke-linecap: square"/>
     </g>
     <g id="line2d_56">
      <g>
       <use xlink:href="#mc1f40b1234" x="90" y="194.984814" style="fill: #ffffff; stroke: #ffffff; stroke-width: 0.8"/>
      </g>
     </g>
     <g id="text_29">
      <!-- 600 -->
      <g style="fill: #ffffff" transform="translate(63.9125 198.784033) scale(0.1 -0.1)">
       <use xlink:href="#DejaVuSans-36"/>
       <use xlink:href="#DejaVuSans-30" x="63.623047"/>
       <use xlink:href="#DejaVuSans-30" x="127.246094"/>
      </g>
     </g>
    </g>
    <g id="ytick_4">
     <g id="line2d_57">
      <path d="M 90 123.483406 
L 648 123.483406 
" clip-path="url(#p7b698cdf8b)" style="fill: none; stroke: #ffffff; stroke-width: 0.8; stroke-linecap: square"/>
     </g>
     <g id="line2d_58">
      <g>
       <use xlink:href="#mc1f40b1234" x="90" y="123.483406" style="fill: #ffffff; stroke: #ffffff; stroke-width: 0.8"/>
      </g>
     </g>
     <g id="text_30">
      <!-- 800 -->
      <g style="fill: #ffffff" transform="translate(63.9125 127.282625) scale(0.1 -0.1)">
       <use xlink:href="#DejaVuSans-38"/>
       <use xlink:href="#DejaVuSans-30" x="63.623047"/>
       <use xlink:href="#DejaVuSans-30" x="127.246094"/>
      </g>
     </g>
    </g>
    <g id="ytick_5">
     <g id="line2d_59">
      <path d="M 90 51.981998 
L 648 51.981998 
" clip-path="url(#p7b698cdf8b)" style="fill: none; stroke: #ffffff; stroke-width: 0.8; stroke-linecap: square"/>
     </g>
     <g id="line2d_60">
      <g>
       <use xlink:href="#mc1f40b1234" x="90" y="51.981998" style="fill: #ffffff; stroke: #ffffff; stroke-width: 0.8"/>
      </g>
     </g>
     <g id="text_31">
      <!-- 1000 -->
      <g style="fill: #ffffff" transform="translate(57.55 55.781216) scale(0.1 -0.1)">
       <use xlink:href="#DejaVuSans-31"/>
       <use xlink:href="#DejaVuSans-30" x="63.623047"/>
       <use xlink:href="#DejaVuSans-30" x="127.246094"/>
       <use xlink:href="#DejaVuSans-30" x="190.869141"/>
      </g>
     </g>
    </g>
    <g id="text_32">
     <!-- time (ms) -->
     <g style="fill: #ffffff" transform="translate(51.470312 242.421719) rotate(-90) scale(0.1 -0.1)">
      <defs>
       <path id="DejaVuSans-74" d="M 1172 4494 
L 1172 3500 
L 2356 3500 
L 2356 3053 
L 1172 3053 
L 1172 1153 
Q 1172 725 1289 603 
Q 1406 481 1766 481 
L 2356 481 
L 2356 0 
L 1766 0 
Q 1100 0 847 248 
Q 594 497 594 1153 
L 594 3053 
L 172 3053 
L 172 3500 
L 594 3500 
L 594 4494 
L 1172 4494 
z
" transform="scale(0.015625)"/>
       <path id="DejaVuSans-69" d="M 603 3500 
L 1178 3500 
L 1178 0 
L 603 0 
L 603 3500 
z
M 603 4863 
L 1178 4863 
L 1178 4134 
L 603 4134 
L 603 4863 
z
" transform="scale(0.015625)"/>
       <path id="DejaVuSans-6d" d="M 3328 2828 
Q 3544 3216 3844 3400 
Q 4144 3584 4550 3584 
Q 5097 3584 5394 3201 
Q 5691 2819 5691 2113 
L 5691 0 
L 5113 0 
L 5113 2094 
Q 5113 2597 4934 2840 
Q 4756 3084 4391 3084 
Q 3944 3084 3684 2787 
Q 3425 2491 3425 1978 
L 3425 0 
L 2847 0 
L 2847 2094 
Q 2847 2600 2669 2842 
Q 2491 3084 2119 3084 
Q 1678 3084 1418 2786 
Q 1159 2488 1159 1978 
L 1159 0 
L 581 0 
L 581 3500 
L 1159 3500 
L 1159 2956 
Q 1356 3278 1631 3431 
Q 1906 3584 2284 3584 
Q 2666 3584 2933 3390 
Q 3200 3197 3328 2828 
z
" transform="scale(0.015625)"/>
       <path id="DejaVuSans-20" transform="scale(0.015625)"/>
       <path id="DejaVuSans-28" d="M 1984 4856 
Q 1566 4138 1362 3434 
Q 1159 2731 1159 2009 
Q 1159 1288 1364 580 
Q 1569 -128 1984 -844 
L 1484 -844 
Q 1016 -109 783 600 
Q 550 1309 550 2009 
Q 550 2706 781 3412 
Q 1013 4119 1484 4856 
L 1984 4856 
z
" transform="scale(0.015625)"/>
       <path id="DejaVuSans-73" d="M 2834 3397 
L 2834 2853 
Q 2591 2978 2328 3040 
Q 2066 3103 1784 3103 
Q 1356 3103 1142 2972 
Q 928 2841 928 2578 
Q 928 2378 1081 2264 
Q 1234 2150 1697 2047 
L 1894 2003 
Q 2506 1872 2764 1633 
Q 3022 1394 3022 966 
Q 3022 478 2636 193 
Q 2250 -91 1575 -91 
Q 1294 -91 989 -36 
Q 684 19 347 128 
L 347 722 
Q 666 556 975 473 
Q 1284 391 1588 391 
Q 1994 391 2212 530 
Q 2431 669 2431 922 
Q 2431 1156 2273 1281 
Q 2116 1406 1581 1522 
L 1381 1569 
Q 847 1681 609 1914 
Q 372 2147 372 2553 
Q 372 3047 722 3315 
Q 1072 3584 1716 3584 
Q 2034 3584 2315 3537 
Q 2597 3491 2834 3397 
z
" transform="scale(0.015625)"/>
       <path id="DejaVuSans-29" d="M 513 4856 
L 1013 4856 
Q 1481 4119 1714 3412 
Q 1947 2706 1947 2009 
Q 1947 1309 1714 600 
Q 1481 -109 1013 -844 
L 513 -844 
Q 928 -128 1133 580 
Q 1338 1288 1338 2009 
Q 1338 2731 1133 3434 
Q 928 4138 513 4856 
z
" transform="scale(0.015625)"/>
      </defs>
      <use xlink:href="#DejaVuSans-74"/>
      <use xlink:href="#DejaVuSans-69" x="39.208984"/>
      <use xlink:href="#DejaVuSans-6d" x="66.992188"/>
      <use xlink:href="#DejaVuSans-65" x="164.404297"/>
      <use xlink:href="#DejaVuSans-20" x="225.927734"/>
      <use xlink:href="#DejaVuSans-28" x="257.714844"/>
      <use xlink:href="#DejaVuSans-6d" x="296.728516"/>
      <use xlink:href="#DejaVuSans-73" x="394.140625"/>
      <use xlink:href="#DejaVuSans-29" x="446.240234"/>
     </g>
    </g>
   </g>
   <g id="line2d_61">
    <path d="M 115.363636 307.765087 
L 117.904234 310.043356 
L 120.444832 312.014304 
L 122.98543 313.690982 
L 125.526028 315.08644 
L 128.066626 316.213728 
L 130.607224 317.085899 
L 133.147822 317.716001 
L 135.68842 318.117086 
L 138.229018 318.302204 
L 140.769616 318.284407 
L 143.310214 318.076744 
L 145.850812 317.692267 
L 149.238276 316.927142 
L 152.62574 315.901816 
L 156.013204 314.647224 
L 160.247534 312.803441 
L 164.481864 310.705952 
L 169.56306 307.929712 
L 176.337988 303.940359 
L 188.194111 296.895081 
L 192.428441 294.694795 
L 195.815905 293.179548 
L 199.203369 291.945134 
L 201.743967 291.233114 
L 205.131431 290.508301 
L 214.446957 288.676577 
L 216.987555 287.921787 
L 219.528153 286.937667 
L 222.068751 285.662233 
L 224.609349 284.091539 
L 227.996813 281.661388 
L 233.924875 276.989635 
L 238.159205 273.775654 
L 240.699803 272.065011 
L 243.240401 270.608487 
L 245.780999 269.413243 
L 249.168463 268.093947 
L 257.637122 264.976268 
L 260.17772 263.759415 
L 262.718318 262.268463 
L 265.258916 260.435454 
L 267.799514 258.30152 
L 271.186978 255.152778 
L 278.808772 247.904469 
L 281.34937 245.777875 
L 283.889968 243.955345 
L 285.5837 242.953818 
L 288.124298 241.762665 
L 290.664896 240.870381 
L 294.05236 239.999563 
L 303.367886 237.935267 
L 305.908484 237.062209 
L 308.449082 235.928954 
L 310.98968 234.572185 
L 314.377144 232.505198 
L 320.305206 228.524016 
L 325.386402 225.167804 
L 328.773866 223.16964 
L 333.008195 220.96781 
L 340.629989 217.373363 
L 345.711185 214.869957 
L 349.098649 212.99836 
L 354.179845 209.871582 
L 362.648505 204.569079 
L 366.035969 202.692731 
L 369.423433 201.098364 
L 372.810897 199.836984 
L 376.198361 198.838704 
L 381.279557 197.636431 
L 388.901351 195.89199 
L 392.288815 194.910136 
L 395.676279 193.72798 
L 399.063743 192.343548 
L 402.451207 190.755592 
L 405.838671 188.96286 
L 409.226134 186.964101 
L 413.460464 184.178664 
L 421.082258 178.746151 
L 425.316588 175.845221 
L 428.704052 173.756976 
L 431.24465 172.393406 
L 433.785248 171.249837 
L 436.325846 170.33889 
L 438.866444 169.647242 
L 441.407042 169.160648 
L 443.94764 168.864865 
L 446.488238 168.74565 
L 449.875702 168.83674 
L 453.263166 169.182644 
L 456.65063 169.742502 
L 462.578692 170.99737 
L 468.506754 172.19329 
L 471.894218 172.666525 
L 474.434816 172.852969 
L 476.975414 172.856977 
L 479.516012 172.664672 
L 482.05661 172.268843 
L 484.597207 171.662286 
L 487.137805 170.837793 
L 489.678403 169.78816 
L 492.219001 168.50618 
L 494.759599 166.984648 
L 497.300197 165.219035 
L 500.687661 162.557309 
L 511.696919 153.480268 
L 514.237517 151.72983 
L 516.778115 150.264132 
L 519.318713 149.141506 
L 521.859311 148.344425 
L 524.399909 147.832024 
L 526.940507 147.563433 
L 529.481105 147.497781 
L 532.868569 147.655289 
L 537.102899 148.109761 
L 543.877827 148.913222 
L 546.418425 149.011582 
L 548.959023 148.878123 
L 550.652755 148.621888 
L 552.346487 148.204909 
L 554.040219 147.604101 
L 555.733951 146.796379 
L 557.427683 145.758657 
L 559.121414 144.46785 
L 560.815146 142.910247 
L 563.355744 140.146843 
L 565.896342 137.006556 
L 570.977538 130.205165 
L 574.365002 125.774488 
L 576.9056 122.762784 
L 578.599332 120.987921 
L 580.293064 119.452111 
L 581.986796 118.190237 
L 583.680528 117.190536 
L 585.37426 116.428035 
L 587.067992 115.877759 
L 588.761724 115.514732 
L 591.302322 115.266654 
L 593.84292 115.299405 
L 597.230384 115.634233 
L 605.699044 116.688768 
L 608.239642 116.720744 
L 610.78024 116.471618 
L 612.473972 116.107741 
L 614.167704 115.556492 
L 615.861436 114.792897 
L 617.555168 113.791982 
L 619.2489 112.52877 
L 620.942632 110.978288 
L 622.636364 109.11556 
L 622.636364 109.11556 
" clip-path="url(#p7b698cdf8b)" style="fill: none; stroke: #8dd3c7; stroke-width: 1.5; stroke-linecap: square"/>
   </g>
   <g id="line2d_62">
    <path d="M 115.363636 324.729653 
L 117.057368 322.057077 
L 118.7511 319.760046 
L 120.444832 317.813321 
L 122.138564 316.191663 
L 123.832296 314.869835 
L 125.526028 313.822597 
L 127.21976 313.024713 
L 128.913492 312.450942 
L 130.607224 312.076047 
L 132.300956 311.87479 
L 134.841554 311.843265 
L 137.382152 312.060458 
L 140.769616 312.589721 
L 147.544544 313.712825 
L 150.085142 313.895918 
L 152.62574 313.816652 
L 154.319472 313.575989 
L 156.013204 313.155626 
L 157.706936 312.530327 
L 159.400668 311.688087 
L 161.941266 310.097158 
L 165.32873 307.600906 
L 170.409926 303.784794 
L 172.950524 302.173798 
L 174.644256 301.313036 
L 176.337988 300.675406 
L 178.03172 300.305946 
L 179.725452 300.246601 
L 181.419183 300.485402 
L 183.112915 300.964584 
L 185.653513 302.004524 
L 193.275307 305.571308 
L 194.969039 306.074977 
L 196.662771 306.345262 
L 198.356503 306.322942 
L 200.050235 305.948808 
L 201.743967 305.186326 
L 203.437699 304.069727 
L 205.131431 302.647002 
L 206.825163 300.966146 
L 209.365761 298.065848 
L 212.753225 293.743259 
L 218.681287 286.003871 
L 221.221885 283.038793 
L 223.762483 280.475983 
L 226.303081 278.295621 
L 228.843679 276.449686 
L 231.384277 274.890154 
L 233.924875 273.569005 
L 237.312339 272.095286 
L 241.546669 270.555623 
L 260.17772 264.166534 
L 264.41205 262.318578 
L 268.64638 260.188169 
L 272.88071 257.783081 
L 277.11504 255.117319 
L 281.34937 252.204888 
L 286.430566 248.406928 
L 297.439824 239.941836 
L 300.827288 237.64485 
L 304.214752 235.655599 
L 306.75535 234.419733 
L 310.142814 233.081739 
L 320.305206 229.445303 
L 322.845804 228.208524 
L 325.386402 226.682975 
L 327.927 224.792964 
L 330.467598 222.545837 
L 333.855061 219.16194 
L 344.017453 208.626841 
L 346.558051 206.436479 
L 349.098649 204.622509 
L 351.639247 203.207862 
L 354.179845 202.137638 
L 356.720443 201.35333 
L 359.261041 200.796431 
L 362.648505 200.306522 
L 376.198361 198.760919 
L 380.432691 197.903433 
L 383.820155 197.021536 
L 387.207619 195.940585 
L 390.595083 194.637591 
L 393.982547 193.09264 
L 397.370011 191.294064 
L 400.757475 189.231566 
L 404.144939 186.894846 
L 407.532402 184.273606 
L 410.919866 181.357546 
L 415.154196 177.33557 
L 421.929124 170.824387 
L 424.469722 168.63711 
L 427.01032 166.721555 
L 429.550918 165.163188 
L 431.24465 164.364922 
L 432.938382 163.788513 
L 434.632114 163.444984 
L 436.325846 163.322247 
L 438.019578 163.406069 
L 439.71331 163.68222 
L 441.407042 164.136468 
L 443.94764 165.120643 
L 446.488238 166.425487 
L 449.028836 168.00297 
L 452.4163 170.447371 
L 456.65063 173.87055 
L 460.88496 177.288805 
L 463.425558 179.116247 
L 465.966156 180.635415 
L 467.659888 181.420104 
L 469.35362 181.982546 
L 471.047352 182.288644 
L 472.741084 182.304305 
L 474.434816 181.995432 
L 476.128548 181.336337 
L 477.82228 180.353694 
L 479.516012 179.094301 
L 481.209744 177.605 
L 483.750341 175.042433 
L 487.137805 171.258178 
L 492.219001 165.555461 
L 494.759599 163.034775 
L 496.453331 161.58372 
L 498.147063 160.351634 
L 499.840795 159.340289 
L 501.534527 158.549544 
L 503.228259 157.979256 
L 504.921991 157.629287 
L 506.615723 157.499493 
L 508.309455 157.589735 
L 510.003187 157.899871 
L 511.696919 158.429761 
L 513.390651 159.179262 
L 515.084383 160.148235 
L 516.778115 161.336539 
L 519.318713 163.499293 
L 523.553043 167.614145 
L 526.940507 170.755699 
L 528.634239 172.090107 
L 530.327971 173.176628 
L 532.021703 173.947529 
L 533.715435 174.335082 
L 534.562301 174.363936 
L 535.409167 174.271553 
L 536.256033 174.049468 
L 537.102899 173.689213 
L 537.949765 173.182322 
L 538.796631 172.522123 
L 540.490363 170.767661 
L 542.184095 168.501929 
L 543.877827 165.80595 
L 546.418425 161.132506 
L 549.805889 154.151597 
L 555.733951 141.693108 
L 558.274548 136.968461 
L 559.96828 134.224656 
L 561.662012 131.85115 
L 563.355744 129.824707 
L 565.049476 128.118905 
L 566.743208 126.707319 
L 568.43694 125.563528 
L 570.130672 124.661108 
L 571.824404 123.973636 
L 573.518136 123.474689 
L 576.058734 123.021951 
L 578.599332 122.844765 
L 581.986796 122.885001 
L 587.067992 123.239084 
L 593.84292 123.710818 
L 597.230384 123.714437 
L 599.770982 123.530929 
L 602.31158 123.139449 
L 604.852178 122.496483 
L 607.392776 121.558514 
L 609.933374 120.282025 
L 611.627106 119.221476 
L 613.320838 117.978241 
L 615.01457 116.539425 
L 616.708302 114.892134 
L 618.402034 113.023475 
L 620.095766 110.920554 
L 621.789498 108.570477 
L 622.636364 107.298727 
L 622.636364 107.298727 
" clip-path="url(#p7b698cdf8b)" style="fill: none; stroke: #feffb3; stroke-width: 1.5; stroke-linecap: square"/>
   </g>
   <g id="line2d_63">
    <path d="M 115.363636 312.137823 
L 117.904234 313.263337 
L 120.444832 314.059737 
L 122.98543 314.56371 
L 125.526028 314.811941 
L 128.066626 314.841116 
L 131.45409 314.602672 
L 134.841554 314.126974 
L 139.92275 313.158802 
L 146.697678 311.849141 
L 150.085142 311.381928 
L 153.472606 311.155738 
L 156.013204 311.19658 
L 158.553802 311.457446 
L 161.941266 312.096465 
L 167.869328 313.306835 
L 170.409926 313.576217 
L 172.103658 313.591196 
L 173.79739 313.436456 
L 175.491122 313.079402 
L 177.184854 312.487435 
L 178.878586 311.627961 
L 180.572317 310.48309 
L 182.266049 309.083723 
L 184.806647 306.597208 
L 187.347245 303.768769 
L 192.428441 297.639772 
L 195.815905 293.648349 
L 198.356503 290.937687 
L 200.897101 288.621344 
L 202.590833 287.329659 
L 205.131431 285.732813 
L 207.672029 284.489891 
L 210.212627 283.539135 
L 212.753225 282.818788 
L 216.140689 282.109998 
L 229.690545 279.682069 
L 233.924875 278.617248 
L 238.159205 277.313427 
L 241.546669 276.065688 
L 244.934133 274.617253 
L 250.015329 272.166275 
L 261.024586 266.691297 
L 265.258916 264.893529 
L 272.88071 262.055797 
L 277.11504 260.344802 
L 280.502504 258.729203 
L 283.043102 257.304452 
L 285.5837 255.649308 
L 288.971164 253.101546 
L 293.205494 249.571542 
L 300.827288 243.129086 
L 304.214752 240.591782 
L 306.75535 238.948249 
L 310.142814 237.090628 
L 321.152072 231.453741 
L 323.69267 229.745845 
L 326.233268 227.709294 
L 328.773866 225.280251 
L 332.161329 221.576544 
L 339.783123 212.925904 
L 342.323721 210.445404 
L 344.017453 209.025387 
L 345.711185 207.840966 
L 347.404917 206.933865 
L 349.098649 206.339994 
L 350.792381 206.041002 
L 352.486113 205.988962 
L 354.179845 206.135645 
L 356.720443 206.622783 
L 364.342237 208.488269 
L 366.035969 208.675679 
L 367.729701 208.676001 
L 369.423433 208.441247 
L 371.117165 207.952438 
L 372.810897 207.246922 
L 375.351495 205.87819 
L 378.738959 203.703763 
L 383.820155 200.405426 
L 386.360753 199.060203 
L 388.054485 198.376388 
L 389.748217 197.914101 
L 391.441949 197.709655 
L 393.135681 197.738354 
L 395.676279 198.099581 
L 399.910609 199.095483 
L 402.451207 199.629291 
L 404.144939 199.844952 
L 405.838671 199.884799 
L 407.532402 199.694276 
L 409.226134 199.21883 
L 410.919866 198.403907 
L 412.613598 197.203996 
L 414.30733 195.642241 
L 416.001062 193.773287 
L 418.54166 190.513748 
L 421.929124 185.604034 
L 428.704052 175.496287 
L 431.24465 172.171977 
L 432.938382 170.245111 
L 434.632114 168.589625 
L 436.325846 167.19763 
L 438.019578 166.057644 
L 439.71331 165.158188 
L 441.407042 164.487782 
L 443.100774 164.034945 
L 444.794506 163.788198 
L 446.488238 163.736059 
L 448.18197 163.86705 
L 449.875702 164.16969 
L 452.4163 164.920379 
L 454.956898 165.991072 
L 457.497496 167.312152 
L 461.731826 169.812152 
L 465.966156 172.300721 
L 468.506754 173.603966 
L 471.047352 174.647761 
L 472.741084 175.152201 
L 474.434816 175.470403 
L 476.128548 175.578976 
L 477.82228 175.485539 
L 479.516012 175.20963 
L 482.05661 174.49643 
L 484.597207 173.482715 
L 487.137805 172.234514 
L 490.525269 170.31961 
L 502.381393 163.326575 
L 507.462589 160.65812 
L 513.390651 157.814505 
L 519.318713 155.25129 
L 525.246775 152.954216 
L 531.174837 150.904016 
L 537.102899 149.081086 
L 551.499621 144.852024 
L 554.887085 143.546242 
L 558.274548 141.987998 
L 561.662012 140.122578 
L 565.049476 137.988755 
L 570.130672 134.484435 
L 578.599332 128.59913 
L 581.986796 126.496098 
L 585.37426 124.649656 
L 588.761724 123.102869 
L 591.302322 122.164628 
L 593.84292 121.436183 
L 596.383518 120.935205 
L 598.924116 120.679368 
L 601.464714 120.686345 
L 604.005312 120.973811 
L 606.54591 121.559439 
L 609.086508 122.460901 
L 611.627106 123.695871 
L 614.167704 125.282024 
L 616.708302 127.237031 
L 619.2489 129.578568 
L 621.789498 132.324306 
L 622.636364 133.332429 
L 622.636364 133.332429 
" clip-path="url(#p7b698cdf8b)" style="fill: none; stroke: #bfbbd9; stroke-width: 1.5; stroke-linecap: square"/>
   </g>
   <g id="line2d_64">
    <path d="M 115.363636 325.588984 
L 117.057368 323.103844 
L 118.7511 320.953413 
L 120.444832 319.116895 
L 122.138564 317.573493 
L 123.832296 316.30241 
L 125.526028 315.28285 
L 127.21976 314.494016 
L 128.913492 313.915111 
L 130.607224 313.525337 
L 132.300956 313.3039 
L 134.841554 313.241879 
L 137.382152 313.441631 
L 140.769616 313.993855 
L 151.778874 316.130016 
L 154.319472 316.281198 
L 156.86007 316.156036 
L 158.553802 315.885435 
L 161.0944 315.197619 
L 163.634998 314.224152 
L 166.175596 313.025524 
L 169.56306 311.181647 
L 180.572317 304.89554 
L 183.959781 303.303431 
L 188.194111 301.566806 
L 193.275307 299.758622 
L 200.897101 297.348366 
L 207.672029 295.164586 
L 211.906359 293.573824 
L 215.293823 292.083071 
L 218.681287 290.335176 
L 222.068751 288.272495 
L 225.456215 285.892765 
L 229.690545 282.612064 
L 241.546669 273.21125 
L 244.934133 270.881386 
L 250.015329 267.717946 
L 258.483988 262.55396 
L 261.871452 260.254693 
L 265.258916 257.689172 
L 269.493246 254.164817 
L 277.961906 247.003589 
L 281.34937 244.454627 
L 283.889968 242.781192 
L 286.430566 241.364431 
L 288.971164 240.186735 
L 292.358628 238.905148 
L 296.592958 237.606074 
L 305.908484 234.883159 
L 310.142814 233.275411 
L 315.22401 231.056926 
L 327.927 225.357413 
L 334.701927 222.766489 
L 341.476855 220.123964 
L 345.711185 218.220095 
L 349.098649 216.457171 
L 353.332979 213.955058 
L 366.035969 206.153731 
L 369.423433 204.442072 
L 372.810897 203.010497 
L 378.738959 200.833353 
L 382.973289 199.19538 
L 386.360753 197.632156 
L 388.901351 196.223377 
L 391.441949 194.551697 
L 394.829413 191.950008 
L 399.910609 187.640793 
L 404.144939 184.099853 
L 407.532402 181.576662 
L 410.073 179.994011 
L 411.766732 179.132346 
L 414.30733 178.147734 
L 416.847928 177.471937 
L 419.388526 177.031154 
L 422.77599 176.681461 
L 430.397784 176.036415 
L 432.938382 175.602822 
L 436.325846 174.734801 
L 441.407042 173.092377 
L 446.488238 171.504716 
L 449.028836 170.894276 
L 451.569434 170.492953 
L 454.110032 170.365651 
L 456.65063 170.538852 
L 459.191228 170.958462 
L 462.578692 171.790214 
L 474.434816 175.053302 
L 476.975414 175.403935 
L 479.516012 175.522885 
L 482.05661 175.385584 
L 484.597207 174.967468 
L 487.137805 174.243975 
L 489.678403 173.19054 
L 492.219001 171.7826 
L 494.759599 169.995593 
L 497.300197 167.809923 
L 499.840795 165.28548 
L 504.075125 160.662424 
L 509.156321 155.145461 
L 511.696919 152.692665 
L 514.237517 150.61116 
L 515.931249 149.491799 
L 517.624981 148.629696 
L 519.318713 148.028726 
L 521.012445 147.650043 
L 522.706177 147.451898 
L 525.246775 147.401859 
L 534.562301 147.612967 
L 536.256033 147.356139 
L 537.949765 146.904104 
L 539.643497 146.225183 
L 541.337229 145.339483 
L 543.877827 143.703508 
L 547.265291 141.141069 
L 554.040219 135.810686 
L 556.580817 134.119709 
L 558.274548 133.185118 
L 559.96828 132.44663 
L 561.662012 131.911552 
L 563.355744 131.553639 
L 565.896342 131.287338 
L 568.43694 131.261216 
L 572.67127 131.493203 
L 576.9056 131.688154 
L 579.446198 131.604256 
L 581.986796 131.259132 
L 584.527394 130.635695 
L 587.067992 129.767127 
L 589.60859 128.687621 
L 592.996054 126.979259 
L 597.230384 124.525435 
L 604.005312 120.236713 
L 609.933374 116.561261 
L 613.320838 114.669809 
L 616.708302 113.031535 
L 619.2489 112.017736 
L 621.789498 111.226139 
L 622.636364 111.017561 
L 622.636364 111.017561 
" clip-path="url(#p7b698cdf8b)" style="fill: none; stroke: #fa8174; stroke-width: 1.5; stroke-linecap: square"/>
   </g>
   <g id="line2d_65">
    <path d="M 115.363636 309.559312 
L 117.904234 309.561579 
L 120.444832 309.822479 
L 122.98543 310.300477 
L 126.372894 311.20373 
L 130.607224 312.621725 
L 140.769616 316.236373 
L 144.15708 317.163017 
L 146.697678 317.664407 
L 149.238276 317.95371 
L 151.778874 317.989393 
L 154.319472 317.729922 
L 156.013204 317.372456 
L 157.706936 316.853044 
L 159.400668 316.165073 
L 161.941266 314.847956 
L 164.481864 313.242403 
L 167.869328 310.757521 
L 172.103658 307.299924 
L 180.572317 300.273617 
L 184.806647 297.141625 
L 189.040977 294.335755 
L 192.428441 292.332632 
L 195.815905 290.549824 
L 199.203369 288.992488 
L 202.590833 287.65887 
L 207.672029 285.951878 
L 216.987555 282.936101 
L 220.375019 281.618801 
L 223.762483 280.073615 
L 227.996813 277.883919 
L 239.852937 271.546904 
L 243.240401 270.037273 
L 247.474731 268.419503 
L 253.402793 266.17391 
L 256.790256 264.632449 
L 259.330854 263.241018 
L 261.871452 261.579253 
L 264.41205 259.587395 
L 266.952648 257.270814 
L 270.340112 253.821972 
L 281.34937 242.174274 
L 283.889968 239.912925 
L 286.430566 237.988585 
L 288.971164 236.409825 
L 291.511762 235.151538 
L 294.05236 234.188413 
L 296.592958 233.495137 
L 299.133556 233.046397 
L 301.674154 232.816881 
L 304.214752 232.781276 
L 307.602216 232.98897 
L 312.683412 233.618678 
L 317.764608 234.217629 
L 321.152072 234.369773 
L 323.69267 234.255983 
L 326.233268 233.882146 
L 328.773866 233.199623 
L 331.314463 232.229459 
L 333.855061 231.023449 
L 337.242525 229.138318 
L 342.323721 225.966828 
L 349.098649 221.74128 
L 354.179845 218.931403 
L 361.801639 215.055045 
L 368.576567 211.55802 
L 373.657763 208.673783 
L 377.892093 206.024241 
L 382.126423 203.111225 
L 386.360753 199.897402 
L 390.595083 196.345517 
L 396.523145 190.937271 
L 400.757475 187.154673 
L 404.144939 184.421751 
L 406.685537 182.650211 
L 409.226134 181.193615 
L 410.919866 180.431534 
L 412.613598 179.856409 
L 414.30733 179.453934 
L 416.847928 179.111844 
L 419.388526 178.998352 
L 425.316588 179.083152 
L 428.704052 178.986256 
L 431.24465 178.669954 
L 432.938382 178.290031 
L 435.47898 177.453668 
L 438.866444 175.997128 
L 446.488238 172.520014 
L 449.028836 171.676892 
L 450.722568 171.2943 
L 452.4163 171.091993 
L 454.110032 171.100969 
L 455.803764 171.324994 
L 458.344362 171.979017 
L 460.88496 172.888396 
L 467.659888 175.481887 
L 470.200486 176.112652 
L 471.894218 176.315634 
L 473.58795 176.295506 
L 475.281682 176.010748 
L 476.975414 175.448646 
L 478.669146 174.638723 
L 480.362878 173.613869 
L 482.903475 171.74554 
L 485.444073 169.578622 
L 489.678403 165.605053 
L 494.759599 160.872532 
L 497.300197 158.776279 
L 499.840795 156.945124 
L 502.381393 155.381666 
L 504.921991 154.087179 
L 507.462589 153.06294 
L 510.003187 152.310222 
L 512.543785 151.830302 
L 515.084383 151.624454 
L 517.624981 151.693496 
L 521.012445 152.115479 
L 525.246775 152.699772 
L 527.787373 152.816781 
L 529.481105 152.705845 
L 531.174837 152.39245 
L 532.868569 151.832616 
L 534.562301 150.982365 
L 536.256033 149.79772 
L 537.949765 148.234703 
L 539.643497 146.264697 
L 541.337229 143.938065 
L 543.877827 139.944983 
L 547.265291 134.079036 
L 551.499621 126.727248 
L 554.040219 122.759963 
L 555.733951 120.457695 
L 557.427683 118.517797 
L 559.121414 117.015954 
L 560.815146 116.009233 
L 562.508878 115.464833 
L 564.20261 115.322871 
L 565.896342 115.52346 
L 567.590074 116.006712 
L 569.283806 116.71274 
L 571.824404 118.058482 
L 578.599332 121.901784 
L 580.293064 122.596096 
L 581.986796 123.075389 
L 583.680528 123.342655 
L 585.37426 123.415472 
L 587.067992 123.31142 
L 589.60859 122.862167 
L 592.149188 122.113845 
L 594.689786 121.125786 
L 598.07725 119.537998 
L 604.005312 116.410647 
L 608.239642 114.256692 
L 611.627106 112.792404 
L 614.167704 111.937495 
L 616.708302 111.357057 
L 618.402034 111.151883 
L 620.095766 111.112646 
L 621.789498 111.256926 
L 622.636364 111.403379 
L 622.636364 111.403379 
" clip-path="url(#p7b698cdf8b)" style="fill: none; stroke: #81b1d2; stroke-width: 1.5; stroke-linecap: square"/>
   </g>
   <g id="line2d_66">
    <path d="M 115.363636 326.835096 
L 117.904234 323.927192 
L 120.444832 321.479381 
L 122.98543 319.447901 
L 125.526028 317.788993 
L 128.066626 316.458896 
L 130.607224 315.41385 
L 133.147822 314.610093 
L 135.68842 314.003867 
L 139.075884 313.427198 
L 144.15708 312.847854 
L 150.932008 312.06405 
L 154.319472 311.433896 
L 156.86007 310.771957 
L 159.400668 309.905137 
L 162.788132 308.481519 
L 173.79739 303.484186 
L 176.337988 302.630338 
L 178.878586 302.024084 
L 181.419183 301.70374 
L 183.959781 301.616569 
L 187.347245 301.737191 
L 194.969039 302.156792 
L 197.509637 302.083339 
L 200.050235 301.78186 
L 202.590833 301.195085 
L 205.131431 300.318423 
L 207.672029 299.158427 
L 210.212627 297.721651 
L 212.753225 296.014647 
L 215.293823 294.043969 
L 217.834421 291.81617 
L 220.375019 289.337804 
L 223.762483 285.672126 
L 230.537411 277.785449 
L 233.924875 273.996542 
L 236.465473 271.399757 
L 239.006071 269.114214 
L 240.699803 267.808468 
L 242.393535 266.70859 
L 244.087267 265.829515 
L 245.780999 265.152834 
L 247.474731 264.654427 
L 250.015329 264.188316 
L 252.555927 263.987646 
L 255.94339 263.992291 
L 263.565184 264.199497 
L 266.105782 264.051232 
L 268.64638 263.710557 
L 271.186978 263.148671 
L 273.727576 262.336773 
L 276.268174 261.24606 
L 278.808772 259.847731 
L 281.34937 258.112986 
L 283.889968 256.013022 
L 286.430566 253.530038 
L 288.971164 250.733601 
L 293.205494 245.678536 
L 298.28669 239.597682 
L 300.827288 236.81134 
L 303.367886 234.343035 
L 305.061618 232.92924 
L 306.75535 231.735991 
L 308.449082 230.756422 
L 310.98968 229.623863 
L 313.530278 228.80707 
L 316.917742 228.037334 
L 324.539536 226.490674 
L 327.080134 225.678644 
L 329.620732 224.597487 
L 333.008195 222.85138 
L 342.323721 217.786134 
L 344.864319 216.727429 
L 347.404917 215.964805 
L 349.098649 215.658251 
L 351.639247 215.467843 
L 355.026711 215.532462 
L 360.954773 215.730074 
L 363.495371 215.539388 
L 365.189103 215.232383 
L 366.882835 214.740364 
L 368.576567 214.028097 
L 370.270299 213.065015 
L 371.964031 211.861197 
L 374.504629 209.671968 
L 377.045227 207.11607 
L 380.432691 203.319708 
L 389.748217 192.519504 
L 392.288815 189.961339 
L 394.829413 187.672513 
L 397.370011 185.639688 
L 399.910609 183.849456 
L 402.451207 182.288408 
L 404.991805 180.943137 
L 407.532402 179.800233 
L 410.073 178.846289 
L 413.460464 177.843191 
L 416.847928 177.09226 
L 421.082258 176.394608 
L 433.785248 174.506744 
L 446.488238 171.983557 
L 449.028836 171.749692 
L 451.569434 171.707986 
L 454.110032 171.901879 
L 456.65063 172.337442 
L 460.038094 173.167457 
L 466.813022 174.951755 
L 469.35362 175.412522 
L 471.894218 175.631833 
L 473.58795 175.603324 
L 475.281682 175.406933 
L 476.975414 175.033976 
L 479.516012 174.174321 
L 482.05661 173.00132 
L 484.597207 171.567749 
L 487.984671 169.342216 
L 492.219001 166.231419 
L 502.381393 158.588332 
L 506.615723 155.724452 
L 510.003187 153.684768 
L 513.390651 151.930856 
L 515.931249 150.837545 
L 518.471847 149.958797 
L 521.859311 149.079742 
L 526.093641 148.272888 
L 533.715435 146.88153 
L 537.102899 145.9761 
L 539.643497 145.072321 
L 542.184095 143.966868 
L 545.571559 142.234243 
L 549.805889 139.761393 
L 556.580817 135.450976 
L 562.508878 131.737037 
L 567.590074 128.818759 
L 571.824404 126.644476 
L 575.211868 125.110896 
L 578.599332 123.788968 
L 581.986796 122.703611 
L 585.37426 121.840247 
L 589.60859 120.98725 
L 598.07725 119.602787 
L 603.158446 118.671955 
L 607.392776 117.663607 
L 610.78024 116.622699 
L 614.167704 115.310457 
L 616.708302 114.113157 
L 619.2489 112.70587 
L 621.789498 111.064011 
L 622.636364 110.460348 
L 622.636364 110.460348 
" clip-path="url(#p7b698cdf8b)" style="fill: none; stroke: #fdb462; stroke-width: 1.5; stroke-linecap: square"/>
   </g>
   <g id="patch_3">
    <path d="M 90 384.48 
L 90 51.84 
" style="fill: none; stroke: #ffffff; stroke-width: 0.8; stroke-linejoin: miter; stroke-linecap: square"/>
   </g>
   <g id="patch_4">
    <path d="M 648 384.48 
L 648 51.84 
" style="fill: none; stroke: #ffffff; stroke-width: 0.8; stroke-linejoin: miter; stroke-linecap: square"/>
   </g>
   <g id="patch_5">
    <path d="M 90 384.48 
L 648 384.48 
" style="fill: none; stroke: #ffffff; stroke-width: 0.8; stroke-linejoin: miter; stroke-linecap: square"/>
   </g>
   <g id="patch_6">
    <path d="M 90 51.84 
L 648 51.84 
" style="fill: none; stroke: #ffffff; stroke-width: 0.8; stroke-linejoin: miter; stroke-linecap: square"/>
   </g>
   <g id="text_33">
    <!-- caio.python_aio_asyncio - read (Time vs Concurrency) -->
    <g style="fill: #ffffff" transform="translate(207.036563 45.84) scale(0.12 -0.12)">
     <defs>
      <path id="DejaVuSans-61" d="M 2194 1759 
Q 1497 1759 1228 1600 
Q 959 1441 959 1056 
Q 959 750 1161 570 
Q 1363 391 1709 391 
Q 2188 391 2477 730 
Q 2766 1069 2766 1631 
L 2766 1759 
L 2194 1759 
z
M 3341 1997 
L 3341 0 
L 2766 0 
L 2766 531 
Q 2569 213 2275 61 
Q 1981 -91 1556 -91 
Q 1019 -91 701 211 
Q 384 513 384 1019 
Q 384 1609 779 1909 
Q 1175 2209 1959 2209 
L 2766 2209 
L 2766 2266 
Q 2766 2663 2505 2880 
Q 2244 3097 1772 3097 
Q 1472 3097 1187 3025 
Q 903 2953 641 2809 
L 641 3341 
Q 956 3463 1253 3523 
Q 1550 3584 1831 3584 
Q 2591 3584 2966 3190 
Q 3341 2797 3341 1997 
z
" transform="scale(0.015625)"/>
      <path id="DejaVuSans-2e" d="M 684 794 
L 1344 794 
L 1344 0 
L 684 0 
L 684 794 
z
" transform="scale(0.015625)"/>
      <path id="DejaVuSans-70" d="M 1159 525 
L 1159 -1331 
L 581 -1331 
L 581 3500 
L 1159 3500 
L 1159 2969 
Q 1341 3281 1617 3432 
Q 1894 3584 2278 3584 
Q 2916 3584 3314 3078 
Q 3713 2572 3713 1747 
Q 3713 922 3314 415 
Q 2916 -91 2278 -91 
Q 1894 -91 1617 61 
Q 1341 213 1159 525 
z
M 3116 1747 
Q 3116 2381 2855 2742 
Q 2594 3103 2138 3103 
Q 1681 3103 1420 2742 
Q 1159 2381 1159 1747 
Q 1159 1113 1420 752 
Q 1681 391 2138 391 
Q 2594 391 2855 752 
Q 3116 1113 3116 1747 
z
" transform="scale(0.015625)"/>
      <path id="DejaVuSans-68" d="M 3513 2113 
L 3513 0 
L 2938 0 
L 2938 2094 
Q 2938 2591 2744 2837 
Q 2550 3084 2163 3084 
Q 1697 3084 1428 2787 
Q 1159 2491 1159 1978 
L 1159 0 
L 581 0 
L 581 4863 
L 1159 4863 
L 1159 2956 
Q 1366 3272 1645 3428 
Q 1925 3584 2291 3584 
Q 2894 3584 3203 3211 
Q 3513 2838 3513 2113 
z
" transform="scale(0.015625)"/>
      <path id="DejaVuSans-5f" d="M 3263 -1063 
L 3263 -1509 
L -63 -1509 
L -63 -1063 
L 3263 -1063 
z
" transform="scale(0.015625)"/>
      <path id="DejaVuSans-2d" d="M 313 2009 
L 1997 2009 
L 1997 1497 
L 313 1497 
L 313 2009 
z
" transform="scale(0.015625)"/>
      <path id="DejaVuSans-64" d="M 2906 2969 
L 2906 4863 
L 3481 4863 
L 3481 0 
L 2906 0 
L 2906 525 
Q 2725 213 2448 61 
Q 2172 -91 1784 -91 
Q 1150 -91 751 415 
Q 353 922 353 1747 
Q 353 2572 751 3078 
Q 1150 3584 1784 3584 
Q 2172 3584 2448 3432 
Q 2725 3281 2906 2969 
z
M 947 1747 
Q 947 1113 1208 752 
Q 1469 391 1925 391 
Q 2381 391 2643 752 
Q 2906 1113 2906 1747 
Q 2906 2381 2643 2742 
Q 2381 3103 1925 3103 
Q 1469 3103 1208 2742 
Q 947 2381 947 1747 
z
" transform="scale(0.015625)"/>
      <path id="DejaVuSans-54" d="M -19 4666 
L 3928 4666 
L 3928 4134 
L 2272 4134 
L 2272 0 
L 1638 0 
L 1638 4134 
L -19 4134 
L -19 4666 
z
" transform="scale(0.015625)"/>
      <path id="DejaVuSans-76" d="M 191 3500 
L 800 3500 
L 1894 563 
L 2988 3500 
L 3597 3500 
L 2284 0 
L 1503 0 
L 191 3500 
z
" transform="scale(0.015625)"/>
      <path id="DejaVuSans-43" d="M 4122 4306 
L 4122 3641 
Q 3803 3938 3442 4084 
Q 3081 4231 2675 4231 
Q 1875 4231 1450 3742 
Q 1025 3253 1025 2328 
Q 1025 1406 1450 917 
Q 1875 428 2675 428 
Q 3081 428 3442 575 
Q 3803 722 4122 1019 
L 4122 359 
Q 3791 134 3420 21 
Q 3050 -91 2638 -91 
Q 1578 -91 968 557 
Q 359 1206 359 2328 
Q 359 3453 968 4101 
Q 1578 4750 2638 4750 
Q 3056 4750 3426 4639 
Q 3797 4528 4122 4306 
z
" transform="scale(0.015625)"/>
     </defs>
     <use xlink:href="#DejaVuSans-63"/>
     <use xlink:href="#DejaVuSans-61" x="54.980469"/>
     <use xlink:href="#DejaVuSans-69" x="116.259766"/>
     <use xlink:href="#DejaVuSans-6f" x="144.042969"/>
     <use xlink:href="#DejaVuSans-2e" x="203.474609"/>
     <use xlink:href="#DejaVuSans-70" x="235.261719"/>
     <use xlink:href="#DejaVuSans-79" x="298.738281"/>
     <use xlink:href="#DejaVuSans-74" x="357.917969"/>
     <use xlink:href="#DejaVuSans-68" x="397.126953"/>
     <use xlink:href="#DejaVuSans-6f" x="460.505859"/>
     <use xlink:href="#DejaVuSans-6e" x="521.6875"/>
     <use xlink:href="#DejaVuSans-5f" x="585.066406"/>
     <use xlink:href="#DejaVuSans-61" x="635.066406"/>
     <use xlink:href="#DejaVuSans-69" x="696.345703"/>
     <use xlink:href="#DejaVuSans-6f" x="724.128906"/>
     <use xlink:href="#DejaVuSans-5f" x="785.310547"/>
     <use xlink:href="#DejaVuSans-61" x="835.310547"/>
     <use xlink:href="#DejaVuSans-73" x="896.589844"/>
     <use xlink:href="#DejaVuSans-79" x="948.689453"/>
     <use xlink:href="#DejaVuSans-6e" x="1007.869141"/>
     <use xlink:href="#DejaVuSans-63" x="1071.248047"/>
     <use xlink:href="#DejaVuSans-69" x="1126.228516"/>
     <use xlink:href="#DejaVuSans-6f" x="1154.011719"/>
     <use xlink:href="#DejaVuSans-20" x="1215.193359"/>
     <use xlink:href="#DejaVuSans-2d" x="1246.980469"/>
     <use xlink:href="#DejaVuSans-20" x="1283.064453"/>
     <use xlink:href="#DejaVuSans-72" x="1314.851562"/>
     <use xlink:href="#DejaVuSans-65" x="1353.714844"/>
     <use xlink:href="#DejaVuSans-61" x="1415.238281"/>
     <use xlink:href="#DejaVuSans-64" x="1476.517578"/>
     <use xlink:href="#DejaVuSans-20" x="1539.994141"/>
     <use xlink:href="#DejaVuSans-28" x="1571.78125"/>
     <use xlink:href="#DejaVuSans-54" x="1610.794922"/>
     <use xlink:href="#DejaVuSans-69" x="1668.753906"/>
     <use xlink:href="#DejaVuSans-6d" x="1696.537109"/>
     <use xlink:href="#DejaVuSans-65" x="1793.949219"/>
     <use xlink:href="#DejaVuSans-20" x="1855.472656"/>
     <use xlink:href="#DejaVuSans-76" x="1887.259766"/>
     <use xlink:href="#DejaVuSans-73" x="1946.439453"/>
     <use xlink:href="#DejaVuSans-20" x="1998.539062"/>
     <use xlink:href="#DejaVuSans-43" x="2030.326172"/>
     <use xlink:href="#DejaVuSans-6f" x="2100.150391"/>
     <use xlink:href="#DejaVuSans-6e" x="2161.332031"/>
     <use xlink:href="#DejaVuSans-63" x="2224.710938"/>
     <use xlink:href="#DejaVuSans-75" x="2279.691406"/>
     <use xlink:href="#DejaVuSans-72" x="2343.070312"/>
     <use xlink:href="#DejaVuSans-72" x="2382.433594"/>
     <use xlink:href="#DejaVuSans-65" x="2421.296875"/>
     <use xlink:href="#DejaVuSans-6e" x="2482.820312"/>
     <use xlink:href="#DejaVuSans-63" x="2546.199219"/>
     <use xlink:href="#DejaVuSans-79" x="2601.179688"/>
     <use xlink:href="#DejaVuSans-29" x="2660.359375"/>
    </g>
   </g>
   <g id="legend_1">
    <g id="patch_7">
     <path d="M 97 149.5775 
L 194.56875 149.5775 
Q 196.56875 149.5775 196.56875 147.5775 
L 196.56875 58.84 
Q 196.56875 56.84 194.56875 56.84 
L 97 56.84 
Q 95 56.84 95 58.84 
L 95 147.5775 
Q 95 149.5775 97 149.5775 
z
" style="opacity: 0.8; stroke: #cccccc; stroke-linejoin: miter"/>
    </g>
    <g id="line2d_67">
     <path d="M 99 64.938437 
L 109 64.938437 
L 119 64.938437 
" style="fill: none; stroke: #8dd3c7; stroke-width: 1.5; stroke-linecap: square"/>
    </g>
    <g id="text_34">
     <!-- max_ops=1 -->
     <g style="fill: #ffffff" transform="translate(127 68.438437) scale(0.1 -0.1)">
      <defs>
       <path id="DejaVuSans-78" d="M 3513 3500 
L 2247 1797 
L 3578 0 
L 2900 0 
L 1881 1375 
L 863 0 
L 184 0 
L 1544 1831 
L 300 3500 
L 978 3500 
L 1906 2253 
L 2834 3500 
L 3513 3500 
z
" transform="scale(0.015625)"/>
       <path id="DejaVuSans-3d" d="M 678 2906 
L 4684 2906 
L 4684 2381 
L 678 2381 
L 678 2906 
z
M 678 1631 
L 4684 1631 
L 4684 1100 
L 678 1100 
L 678 1631 
z
" transform="scale(0.015625)"/>
      </defs>
      <use xlink:href="#DejaVuSans-6d"/>
      <use xlink:href="#DejaVuSans-61" x="97.412109"/>
      <use xlink:href="#DejaVuSans-78" x="158.691406"/>
      <use xlink:href="#DejaVuSans-5f" x="217.871094"/>
      <use xlink:href="#DejaVuSans-6f" x="267.871094"/>
      <use xlink:href="#DejaVuSans-70" x="329.052734"/>
      <use xlink:href="#DejaVuSans-73" x="392.529297"/>
      <use xlink:href="#DejaVuSans-3d" x="444.628906"/>
      <use xlink:href="#DejaVuSans-31" x="528.417969"/>
     </g>
    </g>
    <g id="line2d_68">
     <path d="M 99 79.894687 
L 109 79.894687 
L 119 79.894687 
" style="fill: none; stroke: #feffb3; stroke-width: 1.5; stroke-linecap: square"/>
    </g>
    <g id="text_35">
     <!-- max_ops=4 -->
     <g style="fill: #ffffff" transform="translate(127 83.394687) scale(0.1 -0.1)">
      <use xlink:href="#DejaVuSans-6d"/>
      <use xlink:href="#DejaVuSans-61" x="97.412109"/>
      <use xlink:href="#DejaVuSans-78" x="158.691406"/>
      <use xlink:href="#DejaVuSans-5f" x="217.871094"/>
      <use xlink:href="#DejaVuSans-6f" x="267.871094"/>
      <use xlink:href="#DejaVuSans-70" x="329.052734"/>
      <use xlink:href="#DejaVuSans-73" x="392.529297"/>
      <use xlink:href="#DejaVuSans-3d" x="444.628906"/>
      <use xlink:href="#DejaVuSans-34" x="528.417969"/>
     </g>
    </g>
    <g id="line2d_69">
     <path d="M 99 94.850937 
L 109 94.850937 
L 119 94.850937 
" style="fill: none; stroke: #bfbbd9; stroke-width: 1.5; stroke-linecap: square"/>
    </g>
    <g id="text_36">
     <!-- max_ops=8 -->
     <g style="fill: #ffffff" transform="translate(127 98.350937) scale(0.1 -0.1)">
      <use xlink:href="#DejaVuSans-6d"/>
      <use xlink:href="#DejaVuSans-61" x="97.412109"/>
      <use xlink:href="#DejaVuSans-78" x="158.691406"/>
      <use xlink:href="#DejaVuSans-5f" x="217.871094"/>
      <use xlink:href="#DejaVuSans-6f" x="267.871094"/>
      <use xlink:href="#DejaVuSans-70" x="329.052734"/>
      <use xlink:href="#DejaVuSans-73" x="392.529297"/>
      <use xlink:href="#DejaVuSans-3d" x="444.628906"/>
      <use xlink:href="#DejaVuSans-38" x="528.417969"/>
     </g>
    </g>
    <g id="line2d_70">
     <path d="M 99 109.807187 
L 109 109.807187 
L 119 109.807187 
" style="fill: none; stroke: #fa8174; stroke-width: 1.5; stroke-linecap: square"/>
    </g>
    <g id="text_37">
     <!-- max_ops=16 -->
     <g style="fill: #ffffff" transform="translate(127 113.307187) scale(0.1 -0.1)">
      <use xlink:href="#DejaVuSans-6d"/>
      <use xlink:href="#DejaVuSans-61" x="97.412109"/>
      <use xlink:href="#DejaVuSans-78" x="158.691406"/>
      <use xlink:href="#DejaVuSans-5f" x="217.871094"/>
      <use xlink:href="#DejaVuSans-6f" x="267.871094"/>
      <use xlink:href="#DejaVuSans-70" x="329.052734"/>
      <use xlink:href="#DejaVuSans-73" x="392.529297"/>
      <use xlink:href="#DejaVuSans-3d" x="444.628906"/>
      <use xlink:href="#DejaVuSans-31" x="528.417969"/>
      <use xlink:href="#DejaVuSans-36" x="592.041016"/>
     </g>
    </g>
    <g id="line2d_71">
     <path d="M 99 124.763437 
L 109 124.763437 
L 119 124.763437 
" style="fill: none; stroke: #81b1d2; stroke-width: 1.5; stroke-linecap: square"/>
    </g>
    <g id="text_38">
     <!-- max_ops=32 -->
     <g style="fill: #ffffff" transform="translate(127 128.263437) scale(0.1 -0.1)">
      <use xlink:href="#DejaVuSans-6d"/>
      <use xlink:href="#DejaVuSans-61" x="97.412109"/>
      <use xlink:href="#DejaVuSans-78" x="158.691406"/>
      <use xlink:href="#DejaVuSans-5f" x="217.871094"/>
      <use xlink:href="#DejaVuSans-6f" x="267.871094"/>
      <use xlink:href="#DejaVuSans-70" x="329.052734"/>
      <use xlink:href="#DejaVuSans-73" x="392.529297"/>
      <use xlink:href="#DejaVuSans-3d" x="444.628906"/>
      <use xlink:href="#DejaVuSans-33" x="528.417969"/>
      <use xlink:href="#DejaVuSans-32" x="592.041016"/>
     </g>
    </g>
    <g id="line2d_72">
     <path d="M 99 139.719687 
L 109 139.719687 
L 119 139.719687 
" style="fill: none; stroke: #fdb462; stroke-width: 1.5; stroke-linecap: square"/>
    </g>
    <g id="text_39">
     <!-- max_ops=64 -->
     <g style="fill: #ffffff" transform="translate(127 143.219687) scale(0.1 -0.1)">
      <use xlink:href="#DejaVuSans-6d"/>
      <use xlink:href="#DejaVuSans-61" x="97.412109"/>
      <use xlink:href="#DejaVuSans-78" x="158.691406"/>
      <use xlink:href="#DejaVuSans-5f" x="217.871094"/>
      <use xlink:href="#DejaVuSans-6f" x="267.871094"/>
      <use xlink:href="#DejaVuSans-70" x="329.052734"/>
      <use xlink:href="#DejaVuSans-73" x="392.529297"/>
      <use xlink:href="#DejaVuSans-3d" x="444.628906"/>
      <use xlink:href="#DejaVuSans-36" x="528.417969"/>
      <use xlink:href="#DejaVuSans-34" x="592.041016"/>
     </g>
    </g>
   </g>
  </g>
 </g>
 <defs>
  <clipPath id="p7b698cdf8b">
   <rect x="90" y="51.84" width="558" height="332.64"/>
  </clipPath>
 </defs>
</svg>
