<?xml version="1.0" encoding="utf-8" standalone="no"?>
<!DOCTYPE svg PUBLIC "-//W3C//DTD SVG 1.1//EN"
  "http://www.w3.org/Graphics/SVG/1.1/DTD/svg11.dtd">
<svg xmlns:xlink="http://www.w3.org/1999/xlink" width="864pt" height="576pt" viewBox="0 0 864 576" xmlns="http://www.w3.org/2000/svg" version="1.1">
 <metadata>
  <rdf:RDF xmlns:dc="http://purl.org/dc/elements/1.1/" xmlns:cc="http://creativecommons.org/ns#" xmlns:rdf="http://www.w3.org/1999/02/22-rdf-syntax-ns#">
   <cc:Work>
    <dc:type rdf:resource="http://purl.org/dc/dcmitype/StillImage"/>
    <dc:date>2024-01-19T20:47:02.493766</dc:date>
    <dc:format>image/svg+xml</dc:format>
    <dc:creator>
     <cc:Agent>
      <dc:title>Matplotlib v3.8.2, https://matplotlib.org/</dc:title>
     </cc:Agent>
    </dc:creator>
   </cc:Work>
  </rdf:RDF>
 </metadata>
 <defs>
  <style type="text/css">*{stroke-linejoin: round; stroke-linecap: butt}</style>
 </defs>
 <g id="figure_1">
  <g id="patch_1">
   <path d="M 0 576 
L 864 576 
L 864 0 
L 0 0 
z
"/>
  </g>
  <g id="axes_1">
   <g id="patch_2">
    <path d="M 108 512.64 
L 777.6 512.64 
L 777.6 69.12 
L 108 69.12 
z
"/>
   </g>
   <g id="PolyCollection_1">
    <defs>
     <path id="m2eb1709ae3" d="M 148.275039 -63.749642 
L 148.275039 -63.36 
L 151.278929 -63.36 
L 154.282819 -63.36 
L 157.286708 -63.36 
L 160.290598 -63.36 
L 163.294488 -63.36 
L 166.298378 -63.36 
L 169.302268 -63.36 
L 172.306158 -63.36 
L 175.310048 -63.36 
L 178.313938 -63.36 
L 181.317828 -63.36 
L 184.321718 -63.36 
L 187.325608 -63.36 
L 190.329498 -63.36 
L 193.333388 -63.36 
L 196.337278 -63.36 
L 199.341168 -63.36 
L 202.345058 -63.36 
L 205.348948 -63.36 
L 208.352838 -63.36 
L 211.356728 -63.36 
L 214.360618 -63.36 
L 217.364508 -63.36 
L 220.368398 -63.36 
L 223.372288 -63.36 
L 226.376178 -63.36 
L 229.380068 -63.36 
L 232.383958 -63.36 
L 235.387848 -63.36 
L 238.391738 -63.36 
L 241.395627 -63.36 
L 244.399517 -63.36 
L 247.403407 -63.36 
L 250.407297 -63.36 
L 253.411187 -63.36 
L 256.415077 -63.36 
L 259.418967 -63.36 
L 262.422857 -63.36 
L 265.426747 -63.36 
L 268.430637 -63.36 
L 271.434527 -63.36 
L 274.438417 -63.36 
L 277.442307 -63.36 
L 280.446197 -63.36 
L 283.450087 -63.36 
L 286.453977 -63.36 
L 289.457867 -63.36 
L 292.461757 -63.36 
L 295.465647 -63.36 
L 298.469537 -63.36 
L 301.473427 -63.36 
L 304.477317 -63.36 
L 307.481207 -63.36 
L 310.485097 -63.36 
L 313.488987 -63.36 
L 316.492877 -63.36 
L 319.496767 -63.36 
L 322.500657 -63.36 
L 325.504546 -63.36 
L 328.508436 -63.36 
L 331.512326 -63.36 
L 334.516216 -63.36 
L 337.520106 -63.36 
L 340.523996 -63.36 
L 343.527886 -63.36 
L 346.531776 -63.36 
L 349.535666 -63.36 
L 352.539556 -63.36 
L 355.543446 -63.36 
L 358.547336 -63.36 
L 361.551226 -63.36 
L 364.555116 -63.36 
L 367.559006 -63.36 
L 370.562896 -63.36 
L 373.566786 -63.36 
L 376.570676 -63.36 
L 379.574566 -63.36 
L 382.578456 -63.36 
L 385.582346 -63.36 
L 388.586236 -63.36 
L 391.590126 -63.36 
L 394.594016 -63.36 
L 397.597906 -63.36 
L 400.601796 -63.36 
L 403.605686 -63.36 
L 406.609576 -63.36 
L 409.613465 -63.36 
L 412.617355 -63.36 
L 415.621245 -63.36 
L 418.625135 -63.36 
L 421.629025 -63.36 
L 424.632915 -63.36 
L 427.636805 -63.36 
L 430.640695 -63.36 
L 433.644585 -63.36 
L 436.648475 -63.36 
L 439.652365 -63.36 
L 442.656255 -63.36 
L 445.660145 -63.36 
L 448.664035 -63.36 
L 451.667925 -63.36 
L 454.671815 -63.36 
L 457.675705 -63.36 
L 460.679595 -63.36 
L 463.683485 -63.36 
L 466.687375 -63.36 
L 469.691265 -63.36 
L 472.695155 -63.36 
L 475.699045 -63.36 
L 478.702935 -63.36 
L 481.706825 -63.36 
L 484.710715 -63.36 
L 487.714605 -63.36 
L 490.718495 -63.36 
L 493.722385 -63.36 
L 496.726274 -63.36 
L 499.730164 -63.36 
L 502.734054 -63.36 
L 505.737944 -63.36 
L 508.741834 -63.36 
L 511.745724 -63.36 
L 514.749614 -63.36 
L 517.753504 -63.36 
L 520.757394 -63.36 
L 523.761284 -63.36 
L 526.765174 -63.36 
L 529.769064 -63.36 
L 532.772954 -63.36 
L 535.776844 -63.36 
L 538.780734 -63.36 
L 541.784624 -63.36 
L 544.788514 -63.36 
L 547.792404 -63.36 
L 550.796294 -63.36 
L 553.800184 -63.36 
L 556.804074 -63.36 
L 559.807964 -63.36 
L 562.811854 -63.36 
L 565.815744 -63.36 
L 568.819634 -63.36 
L 571.823524 -63.36 
L 574.827414 -63.36 
L 577.831304 -63.36 
L 580.835193 -63.36 
L 583.839083 -63.36 
L 586.842973 -63.36 
L 589.846863 -63.36 
L 592.850753 -63.36 
L 595.854643 -63.36 
L 598.858533 -63.36 
L 601.862423 -63.36 
L 604.866313 -63.36 
L 607.870203 -63.36 
L 610.874093 -63.36 
L 613.877983 -63.36 
L 616.881873 -63.36 
L 619.885763 -63.36 
L 622.889653 -63.36 
L 625.893543 -63.36 
L 628.897433 -63.36 
L 631.901323 -63.36 
L 634.905213 -63.36 
L 637.909103 -63.36 
L 640.912993 -63.36 
L 643.916883 -63.36 
L 646.920773 -63.36 
L 649.924663 -63.36 
L 652.928553 -63.36 
L 655.932443 -63.36 
L 658.936333 -63.36 
L 661.940223 -63.36 
L 664.944112 -63.36 
L 667.948002 -63.36 
L 670.951892 -63.36 
L 673.955782 -63.36 
L 676.959672 -63.36 
L 679.963562 -63.36 
L 682.967452 -63.36 
L 685.971342 -63.36 
L 688.975232 -63.36 
L 691.979122 -63.36 
L 694.983012 -63.36 
L 697.986902 -63.36 
L 700.990792 -63.36 
L 703.994682 -63.36 
L 706.998572 -63.36 
L 710.002462 -63.36 
L 713.006352 -63.36 
L 716.010242 -63.36 
L 719.014132 -63.36 
L 722.018022 -63.36 
L 725.021912 -63.36 
L 728.025802 -63.36 
L 731.029692 -63.36 
L 734.033582 -63.36 
L 737.037472 -63.36 
L 740.041362 -63.36 
L 743.045252 -63.36 
L 746.049142 -63.36 
L 746.049142 -63.365799 
L 746.049142 -63.365799 
L 743.045252 -63.369297 
L 740.041362 -63.374614 
L 737.037472 -63.382536 
L 734.033582 -63.394106 
L 731.029692 -63.410687 
L 728.025802 -63.434016 
L 725.021912 -63.466265 
L 722.018022 -63.510101 
L 719.014132 -63.568732 
L 716.010242 -63.645954 
L 713.006352 -63.746172 
L 710.002462 -63.874392 
L 706.998572 -64.036172 
L 703.994682 -64.237499 
L 700.990792 -64.484591 
L 697.986902 -64.78357 
L 694.983012 -65.140028 
L 691.979122 -65.55845 
L 688.975232 -66.041539 
L 685.971342 -66.589464 
L 682.967452 -67.199124 
L 679.963562 -67.863503 
L 676.959672 -68.571225 
L 673.955782 -69.306421 
L 670.951892 -70.048977 
L 667.948002 -70.775213 
L 664.944112 -71.458992 
L 661.940223 -72.073196 
L 658.936333 -72.591455 
L 655.932443 -72.989986 
L 652.928553 -73.249353 
L 649.924663 -73.355982 
L 646.920773 -73.303272 
L 643.916883 -73.092188 
L 640.912993 -72.731261 
L 637.909103 -72.236006 
L 634.905213 -71.627812 
L 631.901323 -70.9324 
L 628.897433 -70.178018 
L 625.893543 -69.393529 
L 622.889653 -68.606584 
L 619.885763 -67.842021 
L 616.881873 -67.120636 
L 613.877983 -66.45839 
L 610.874093 -65.866085 
L 607.870203 -65.349482 
L 604.866313 -64.909789 
L 601.862423 -64.544424 
L 598.858533 -64.247927 
L 595.854643 -64.012923 
L 592.850753 -63.831035 
L 589.846863 -63.693665 
L 586.842973 -63.59262 
L 583.839083 -63.520564 
L 580.835193 -63.471296 
L 577.831304 -63.439893 
L 574.827414 -63.422743 
L 571.823524 -63.417509 
L 568.819634 -63.423042 
L 565.815744 -63.439266 
L 562.811854 -63.467052 
L 559.807964 -63.50807 
L 556.804074 -63.56463 
L 553.800184 -63.63949 
L 550.796294 -63.735654 
L 547.792404 -63.856137 
L 544.788514 -64.003736 
L 541.784624 -64.180806 
L 538.780734 -64.389079 
L 535.776844 -64.629552 
L 532.772954 -64.902459 
L 529.769064 -65.207352 
L 526.765174 -65.543282 
L 523.761284 -65.909065 
L 520.757394 -66.30361 
L 517.753504 -66.726252 
L 514.749614 -67.177064 
L 511.745724 -67.65708 
L 508.741834 -68.168413 
L 505.737944 -68.714237 
L 502.734054 -69.29864 
L 499.730164 -69.926352 
L 496.726274 -70.602403 
L 493.722385 -71.331735 
L 490.718495 -72.118839 
L 487.714605 -72.967436 
L 484.710715 -73.880262 
L 481.706825 -74.85896 
L 478.702935 -75.904085 
L 475.699045 -77.015209 
L 472.695155 -78.191092 
L 469.691265 -79.429884 
L 466.687375 -80.729313 
L 463.683485 -82.086829 
L 460.679595 -83.499684 
L 457.675705 -84.964929 
L 454.671815 -86.479349 
L 451.667925 -88.039357 
L 448.664035 -89.640896 
L 445.660145 -91.279381 
L 442.656255 -92.949726 
L 439.652365 -94.64648 
L 436.648475 -96.364063 
L 433.644585 -98.097093 
L 430.640695 -99.840739 
L 427.636805 -101.59108 
L 424.632915 -103.345404 
L 421.629025 -105.102439 
L 418.625135 -106.862521 
L 415.621245 -108.627716 
L 412.617355 -110.401943 
L 409.613465 -112.191107 
L 406.609576 -114.003246 
L 403.605686 -115.848645 
L 400.601796 -117.739812 
L 397.597906 -119.69123 
L 394.594016 -121.718766 
L 391.590126 -123.838687 
L 388.586236 -126.066295 
L 385.582346 -128.414295 
L 382.578456 -130.891071 
L 379.574566 -133.499134 
L 376.570676 -136.233997 
L 373.566786 -139.08369 
L 370.562896 -142.029061 
L 367.559006 -145.044864 
L 364.555116 -148.101507 
L 361.551226 -151.16723 
L 358.547336 -154.210387 
L 355.543446 -157.201507 
L 352.539556 -160.114847 
L 349.535666 -162.929235 
L 346.531776 -165.628161 
L 343.527886 -168.199175 
L 340.523996 -170.632802 
L 337.520106 -172.921233 
L 334.516216 -175.057088 
L 331.512326 -177.032502 
L 328.508436 -178.838698 
L 325.504546 -180.466125 
L 322.500657 -181.905139 
L 319.496767 -183.147118 
L 316.492877 -184.185894 
L 313.488987 -185.019354 
L 310.485097 -185.651106 
L 307.481207 -186.092115 
L 304.477317 -186.362231 
L 301.473427 -186.491505 
L 298.469537 -186.521186 
L 295.465647 -186.504235 
L 292.461757 -186.505188 
L 289.457867 -186.599231 
L 286.453977 -186.870391 
L 283.450087 -187.408846 
L 280.446197 -188.307445 
L 277.442307 -189.657602 
L 274.438417 -191.544738 
L 271.434527 -194.043411 
L 268.430637 -197.212205 
L 265.426747 -201.088332 
L 262.422857 -205.681884 
L 259.418967 -210.969691 
L 256.415077 -216.888922 
L 253.411187 -223.330817 
L 250.407297 -230.135344 
L 247.403407 -237.087901 
L 244.399517 -243.919441 
L 241.395627 -250.31146 
L 238.391738 -255.906977 
L 235.387848 -260.328047 
L 232.383958 -263.199418 
L 229.380068 -264.176857 
L 226.376178 -262.977567 
L 223.372288 -259.409292 
L 220.368398 -253.394324 
L 217.364508 -244.984806 
L 214.360618 -234.366635 
L 211.356728 -221.850649 
L 208.352838 -207.851492 
L 205.348948 -192.856363 
L 202.345058 -177.38723 
L 199.341168 -161.961029 
L 196.337278 -147.052476 
L 193.333388 -133.063563 
L 190.329498 -120.302603 
L 187.325608 -108.9742 
L 184.321718 -99.179887 
L 181.317828 -90.927882 
L 178.313938 -84.149415 
L 175.310048 -78.718724 
L 172.306158 -74.473859 
L 169.302268 -71.235927 
L 166.298378 -68.825155 
L 163.294488 -67.072871 
L 160.290598 -65.829287 
L 157.286708 -64.967459 
L 154.282819 -64.384168 
L 151.278929 -63.998595 
L 148.275039 -63.749642 
z
" style="stroke: #1ac938"/>
    </defs>
    <g clip-path="url(#p765eec5c8c)">
     <use xlink:href="#m2eb1709ae3" x="0" y="576" style="fill: #1ac938; fill-opacity: 0.25; stroke: #1ac938"/>
    </g>
   </g>
   <g id="PolyCollection_2">
    <defs>
     <path id="m119c9bd53c" d="M 160.343661 -63.648818 
L 160.343661 -63.36 
L 163.017091 -63.36 
L 165.690521 -63.36 
L 168.363951 -63.36 
L 171.037381 -63.36 
L 173.710811 -63.36 
L 176.384241 -63.36 
L 179.05767 -63.36 
L 181.7311 -63.36 
L 184.40453 -63.36 
L 187.07796 -63.36 
L 189.75139 -63.36 
L 192.42482 -63.36 
L 195.09825 -63.36 
L 197.77168 -63.36 
L 200.44511 -63.36 
L 203.11854 -63.36 
L 205.79197 -63.36 
L 208.4654 -63.36 
L 211.13883 -63.36 
L 213.81226 -63.36 
L 216.48569 -63.36 
L 219.15912 -63.36 
L 221.832549 -63.36 
L 224.505979 -63.36 
L 227.179409 -63.36 
L 229.852839 -63.36 
L 232.526269 -63.36 
L 235.199699 -63.36 
L 237.873129 -63.36 
L 240.546559 -63.36 
L 243.219989 -63.36 
L 245.893419 -63.36 
L 248.566849 -63.36 
L 251.240279 -63.36 
L 253.913709 -63.36 
L 256.587139 -63.36 
L 259.260569 -63.36 
L 261.933999 -63.36 
L 264.607429 -63.36 
L 267.280858 -63.36 
L 269.954288 -63.36 
L 272.627718 -63.36 
L 275.301148 -63.36 
L 277.974578 -63.36 
L 280.648008 -63.36 
L 283.321438 -63.36 
L 285.994868 -63.36 
L 288.668298 -63.36 
L 291.341728 -63.36 
L 294.015158 -63.36 
L 296.688588 -63.36 
L 299.362018 -63.36 
L 302.035448 -63.36 
L 304.708878 -63.36 
L 307.382308 -63.36 
L 310.055738 -63.36 
L 312.729167 -63.36 
L 315.402597 -63.36 
L 318.076027 -63.36 
L 320.749457 -63.36 
L 323.422887 -63.36 
L 326.096317 -63.36 
L 328.769747 -63.36 
L 331.443177 -63.36 
L 334.116607 -63.36 
L 336.790037 -63.36 
L 339.463467 -63.36 
L 342.136897 -63.36 
L 344.810327 -63.36 
L 347.483757 -63.36 
L 350.157187 -63.36 
L 352.830617 -63.36 
L 355.504047 -63.36 
L 358.177476 -63.36 
L 360.850906 -63.36 
L 363.524336 -63.36 
L 366.197766 -63.36 
L 368.871196 -63.36 
L 371.544626 -63.36 
L 374.218056 -63.36 
L 376.891486 -63.36 
L 379.564916 -63.36 
L 382.238346 -63.36 
L 384.911776 -63.36 
L 387.585206 -63.36 
L 390.258636 -63.36 
L 392.932066 -63.36 
L 395.605496 -63.36 
L 398.278926 -63.36 
L 400.952356 -63.36 
L 403.625785 -63.36 
L 406.299215 -63.36 
L 408.972645 -63.36 
L 411.646075 -63.36 
L 414.319505 -63.36 
L 416.992935 -63.36 
L 419.666365 -63.36 
L 422.339795 -63.36 
L 425.013225 -63.36 
L 427.686655 -63.36 
L 430.360085 -63.36 
L 433.033515 -63.36 
L 435.706945 -63.36 
L 438.380375 -63.36 
L 441.053805 -63.36 
L 443.727235 -63.36 
L 446.400664 -63.36 
L 449.074094 -63.36 
L 451.747524 -63.36 
L 454.420954 -63.36 
L 457.094384 -63.36 
L 459.767814 -63.36 
L 462.441244 -63.36 
L 465.114674 -63.36 
L 467.788104 -63.36 
L 470.461534 -63.36 
L 473.134964 -63.36 
L 475.808394 -63.36 
L 478.481824 -63.36 
L 481.155254 -63.36 
L 483.828684 -63.36 
L 486.502114 -63.36 
L 489.175544 -63.36 
L 491.848973 -63.36 
L 494.522403 -63.36 
L 497.195833 -63.36 
L 499.869263 -63.36 
L 502.542693 -63.36 
L 505.216123 -63.36 
L 507.889553 -63.36 
L 510.562983 -63.36 
L 513.236413 -63.36 
L 515.909843 -63.36 
L 518.583273 -63.36 
L 521.256703 -63.36 
L 523.930133 -63.36 
L 526.603563 -63.36 
L 529.276993 -63.36 
L 531.950423 -63.36 
L 534.623853 -63.36 
L 537.297282 -63.36 
L 539.970712 -63.36 
L 542.644142 -63.36 
L 545.317572 -63.36 
L 547.991002 -63.36 
L 550.664432 -63.36 
L 553.337862 -63.36 
L 556.011292 -63.36 
L 558.684722 -63.36 
L 561.358152 -63.36 
L 564.031582 -63.36 
L 566.705012 -63.36 
L 569.378442 -63.36 
L 572.051872 -63.36 
L 574.725302 -63.36 
L 577.398732 -63.36 
L 580.072162 -63.36 
L 582.745591 -63.36 
L 585.419021 -63.36 
L 588.092451 -63.36 
L 590.765881 -63.36 
L 593.439311 -63.36 
L 596.112741 -63.36 
L 598.786171 -63.36 
L 601.459601 -63.36 
L 604.133031 -63.36 
L 606.806461 -63.36 
L 609.479891 -63.36 
L 612.153321 -63.36 
L 614.826751 -63.36 
L 617.500181 -63.36 
L 620.173611 -63.36 
L 622.847041 -63.36 
L 625.520471 -63.36 
L 628.1939 -63.36 
L 630.86733 -63.36 
L 633.54076 -63.36 
L 636.21419 -63.36 
L 638.88762 -63.36 
L 641.56105 -63.36 
L 644.23448 -63.36 
L 646.90791 -63.36 
L 649.58134 -63.36 
L 652.25477 -63.36 
L 654.9282 -63.36 
L 657.60163 -63.36 
L 660.27506 -63.36 
L 662.94849 -63.36 
L 665.62192 -63.36 
L 668.29535 -63.36 
L 670.968779 -63.36 
L 673.642209 -63.36 
L 676.315639 -63.36 
L 678.989069 -63.36 
L 681.662499 -63.36 
L 684.335929 -63.36 
L 687.009359 -63.36 
L 689.682789 -63.36 
L 692.356219 -63.36 
L 692.356219 -63.377171 
L 692.356219 -63.377171 
L 689.682789 -63.392282 
L 687.009359 -63.418689 
L 684.335929 -63.463215 
L 681.662499 -63.535677 
L 678.989069 -63.649512 
L 676.315639 -63.822147 
L 673.642209 -64.074889 
L 670.968779 -64.432041 
L 668.29535 -64.919035 
L 665.62192 -65.559453 
L 662.94849 -66.371039 
L 660.27506 -67.361066 
L 657.60163 -68.52175 
L 654.9282 -69.82665 
L 652.25477 -71.229047 
L 649.58134 -72.6632 
L 646.90791 -74.048877 
L 644.23448 -75.298928 
L 641.56105 -76.328935 
L 638.88762 -77.067351 
L 636.21419 -77.4643 
L 633.54076 -77.497402 
L 630.86733 -77.173608 
L 628.1939 -76.526903 
L 625.520471 -75.612593 
L 622.847041 -74.499504 
L 620.173611 -73.261617 
L 617.500181 -71.97051 
L 614.826751 -70.689504 
L 612.153321 -69.469933 
L 609.479891 -68.349483 
L 606.806461 -67.352246 
L 604.133031 -66.490037 
L 601.459601 -65.764469 
L 598.786171 -65.169383 
L 596.112741 -64.693276 
L 593.439311 -64.321513 
L 590.765881 -64.038159 
L 588.092451 -63.827391 
L 585.419021 -63.674465 
L 582.745591 -63.566316 
L 580.072162 -63.491842 
L 577.398732 -63.441962 
L 574.725302 -63.40951 
L 572.051872 -63.389026 
L 569.378442 -63.376498 
L 566.705012 -63.369082 
L 564.031582 -63.364837 
L 561.358152 -63.362491 
L 558.684722 -63.361239 
L 556.011292 -63.360595 
L 553.337862 -63.360276 
L 550.664432 -63.360123 
L 547.991002 -63.360053 
L 545.317572 -63.360022 
L 542.644142 -63.360009 
L 539.970712 -63.360003 
L 537.297282 -63.360001 
L 534.623853 -63.36 
L 531.950423 -63.36 
L 529.276993 -63.36 
L 526.603563 -63.36 
L 523.930133 -63.36 
L 521.256703 -63.36 
L 518.583273 -63.36 
L 515.909843 -63.36 
L 513.236413 -63.36 
L 510.562983 -63.36 
L 507.889553 -63.36 
L 505.216123 -63.36 
L 502.542693 -63.36 
L 499.869263 -63.36 
L 497.195833 -63.36 
L 494.522403 -63.36 
L 491.848973 -63.36 
L 489.175544 -63.36 
L 486.502114 -63.36 
L 483.828684 -63.36 
L 481.155254 -63.36 
L 478.481824 -63.36 
L 475.808394 -63.36 
L 473.134964 -63.36 
L 470.461534 -63.36 
L 467.788104 -63.36 
L 465.114674 -63.36 
L 462.441244 -63.36 
L 459.767814 -63.36 
L 457.094384 -63.36 
L 454.420954 -63.36 
L 451.747524 -63.36 
L 449.074094 -63.36 
L 446.400664 -63.36 
L 443.727235 -63.36 
L 441.053805 -63.36 
L 438.380375 -63.36 
L 435.706945 -63.36 
L 433.033515 -63.36 
L 430.360085 -63.36 
L 427.686655 -63.36 
L 425.013225 -63.36 
L 422.339795 -63.36 
L 419.666365 -63.36 
L 416.992935 -63.36 
L 414.319505 -63.36 
L 411.646075 -63.36 
L 408.972645 -63.36 
L 406.299215 -63.36 
L 403.625785 -63.360001 
L 400.952356 -63.360002 
L 398.278926 -63.360005 
L 395.605496 -63.360014 
L 392.932066 -63.360033 
L 390.258636 -63.360078 
L 387.585206 -63.360175 
L 384.911776 -63.360379 
L 382.238346 -63.360789 
L 379.564916 -63.361582 
L 376.891486 -63.36305 
L 374.218056 -63.365662 
L 371.544626 -63.370116 
L 368.871196 -63.377402 
L 366.197766 -63.388832 
L 363.524336 -63.406028 
L 360.850906 -63.43086 
L 358.177476 -63.465314 
L 355.504047 -63.511352 
L 352.830617 -63.570831 
L 350.157187 -63.645611 
L 347.483757 -63.737983 
L 344.810327 -63.851542 
L 342.136897 -63.992487 
L 339.463467 -64.1712 
L 336.790037 -64.403744 
L 334.116607 -64.712785 
L 331.443177 -65.127448 
L 328.769747 -65.681862 
L 326.096317 -66.412631 
L 323.422887 -67.356172 
L 320.749457 -68.547509 
L 318.076027 -70.022499 
L 315.402597 -71.82517 
L 312.729167 -74.020816 
L 310.055738 -76.713664 
L 307.382308 -80.065782 
L 304.708878 -84.312021 
L 302.035448 -89.765051 
L 299.362018 -96.805329 
L 296.688588 -105.853421 
L 294.015158 -117.325855 
L 291.341728 -131.579731 
L 288.668298 -148.854468 
L 285.994868 -169.220532 
L 283.321438 -192.544181 
L 280.648008 -218.474712 
L 277.974578 -246.45684 
L 275.301148 -275.76679 
L 272.627718 -305.5672 
L 269.954288 -334.973498 
L 267.280858 -363.123386 
L 264.607429 -389.241317 
L 261.933999 -412.691147 
L 259.260569 -433.012168 
L 256.587139 -449.935907 
L 253.913709 -463.383028 
L 251.240279 -473.441259 
L 248.566849 -480.326463 
L 245.893419 -484.330341 
L 243.219989 -485.76 
L 240.546559 -484.876759 
L 237.873129 -481.843609 
L 235.199699 -476.691486 
L 232.526269 -469.313047 
L 229.852839 -459.488394 
L 227.179409 -446.940695 
L 224.505979 -431.412561 
L 221.832549 -412.748392 
L 219.15912 -390.965733 
L 216.48569 -366.300751 
L 213.81226 -339.218807 
L 211.13883 -310.388816 
L 208.4654 -280.627504 
L 205.79197 -250.824709 
L 203.11854 -221.8627 
L 200.44511 -194.541376 
L 197.77168 -169.518213 
L 195.09825 -147.268227 
L 192.42482 -128.065879 
L 189.75139 -111.988157 
L 187.07796 -98.935978 
L 184.40453 -88.669367 
L 181.7311 -80.850773 
L 179.05767 -75.090366 
L 176.384241 -70.987619 
L 173.710811 -68.164776 
L 171.037381 -66.289741 
L 168.363951 -65.088048 
L 165.690521 -64.345336 
L 163.017091 -63.902846 
L 160.343661 -63.648818 
z
" style="stroke: #ff7c00"/>
    </defs>
    <g clip-path="url(#p765eec5c8c)">
     <use xlink:href="#m119c9bd53c" x="0" y="576" style="fill: #ff7c00; fill-opacity: 0.25; stroke: #ff7c00"/>
    </g>
   </g>
   <g id="PolyCollection_3">
    <defs>
     <path id="m1a34206442" d="M 138.436364 -63.511683 
L 138.436364 -63.36 
L 141.495295 -63.36 
L 144.554226 -63.36 
L 147.613157 -63.36 
L 150.672088 -63.36 
L 153.731019 -63.36 
L 156.78995 -63.36 
L 159.848881 -63.36 
L 162.907812 -63.36 
L 165.966743 -63.36 
L 169.025674 -63.36 
L 172.084605 -63.36 
L 175.143536 -63.36 
L 178.202467 -63.36 
L 181.261398 -63.36 
L 184.320329 -63.36 
L 187.37926 -63.36 
L 190.438191 -63.36 
L 193.497122 -63.36 
L 196.556053 -63.36 
L 199.614984 -63.36 
L 202.673915 -63.36 
L 205.732846 -63.36 
L 208.791777 -63.36 
L 211.850708 -63.36 
L 214.909639 -63.36 
L 217.96857 -63.36 
L 221.027501 -63.36 
L 224.086432 -63.36 
L 227.145363 -63.36 
L 230.204294 -63.36 
L 233.263225 -63.36 
L 236.322156 -63.36 
L 239.381087 -63.36 
L 242.440018 -63.36 
L 245.498949 -63.36 
L 248.55788 -63.36 
L 251.616811 -63.36 
L 254.675742 -63.36 
L 257.734673 -63.36 
L 260.793604 -63.36 
L 263.852535 -63.36 
L 266.911466 -63.36 
L 269.970397 -63.36 
L 273.029328 -63.36 
L 276.088259 -63.36 
L 279.14719 -63.36 
L 282.206122 -63.36 
L 285.265053 -63.36 
L 288.323984 -63.36 
L 291.382915 -63.36 
L 294.441846 -63.36 
L 297.500777 -63.36 
L 300.559708 -63.36 
L 303.618639 -63.36 
L 306.67757 -63.36 
L 309.736501 -63.36 
L 312.795432 -63.36 
L 315.854363 -63.36 
L 318.913294 -63.36 
L 321.972225 -63.36 
L 325.031156 -63.36 
L 328.090087 -63.36 
L 331.149018 -63.36 
L 334.207949 -63.36 
L 337.26688 -63.36 
L 340.325811 -63.36 
L 343.384742 -63.36 
L 346.443673 -63.36 
L 349.502604 -63.36 
L 352.561535 -63.36 
L 355.620466 -63.36 
L 358.679397 -63.36 
L 361.738328 -63.36 
L 364.797259 -63.36 
L 367.85619 -63.36 
L 370.915121 -63.36 
L 373.974052 -63.36 
L 377.032983 -63.36 
L 380.091914 -63.36 
L 383.150845 -63.36 
L 386.209776 -63.36 
L 389.268707 -63.36 
L 392.327638 -63.36 
L 395.386569 -63.36 
L 398.4455 -63.36 
L 401.504431 -63.36 
L 404.563362 -63.36 
L 407.622293 -63.36 
L 410.681224 -63.36 
L 413.740155 -63.36 
L 416.799086 -63.36 
L 419.858017 -63.36 
L 422.916948 -63.36 
L 425.975879 -63.36 
L 429.03481 -63.36 
L 432.093741 -63.36 
L 435.152672 -63.36 
L 438.211603 -63.36 
L 441.270534 -63.36 
L 444.329466 -63.36 
L 447.388397 -63.36 
L 450.447328 -63.36 
L 453.506259 -63.36 
L 456.56519 -63.36 
L 459.624121 -63.36 
L 462.683052 -63.36 
L 465.741983 -63.36 
L 468.800914 -63.36 
L 471.859845 -63.36 
L 474.918776 -63.36 
L 477.977707 -63.36 
L 481.036638 -63.36 
L 484.095569 -63.36 
L 487.1545 -63.36 
L 490.213431 -63.36 
L 493.272362 -63.36 
L 496.331293 -63.36 
L 499.390224 -63.36 
L 502.449155 -63.36 
L 505.508086 -63.36 
L 508.567017 -63.36 
L 511.625948 -63.36 
L 514.684879 -63.36 
L 517.74381 -63.36 
L 520.802741 -63.36 
L 523.861672 -63.36 
L 526.920603 -63.36 
L 529.979534 -63.36 
L 533.038465 -63.36 
L 536.097396 -63.36 
L 539.156327 -63.36 
L 542.215258 -63.36 
L 545.274189 -63.36 
L 548.33312 -63.36 
L 551.392051 -63.36 
L 554.450982 -63.36 
L 557.509913 -63.36 
L 560.568844 -63.36 
L 563.627775 -63.36 
L 566.686706 -63.36 
L 569.745637 -63.36 
L 572.804568 -63.36 
L 575.863499 -63.36 
L 578.92243 -63.36 
L 581.981361 -63.36 
L 585.040292 -63.36 
L 588.099223 -63.36 
L 591.158154 -63.36 
L 594.217085 -63.36 
L 597.276016 -63.36 
L 600.334947 -63.36 
L 603.393878 -63.36 
L 606.45281 -63.36 
L 609.511741 -63.36 
L 612.570672 -63.36 
L 615.629603 -63.36 
L 618.688534 -63.36 
L 621.747465 -63.36 
L 624.806396 -63.36 
L 627.865327 -63.36 
L 630.924258 -63.36 
L 633.983189 -63.36 
L 637.04212 -63.36 
L 640.101051 -63.36 
L 643.159982 -63.36 
L 646.218913 -63.36 
L 649.277844 -63.36 
L 652.336775 -63.36 
L 655.395706 -63.36 
L 658.454637 -63.36 
L 661.513568 -63.36 
L 664.572499 -63.36 
L 667.63143 -63.36 
L 670.690361 -63.36 
L 673.749292 -63.36 
L 676.808223 -63.36 
L 679.867154 -63.36 
L 682.926085 -63.36 
L 685.985016 -63.36 
L 689.043947 -63.36 
L 692.102878 -63.36 
L 695.161809 -63.36 
L 698.22074 -63.36 
L 701.279671 -63.36 
L 704.338602 -63.36 
L 707.397533 -63.36 
L 710.456464 -63.36 
L 713.515395 -63.36 
L 716.574326 -63.36 
L 719.633257 -63.36 
L 722.692188 -63.36 
L 725.751119 -63.36 
L 728.81005 -63.36 
L 731.868981 -63.36 
L 734.927912 -63.36 
L 737.986843 -63.36 
L 741.045774 -63.36 
L 744.104705 -63.36 
L 747.163636 -63.36 
L 747.163636 -63.373779 
L 747.163636 -63.373779 
L 744.104705 -63.380125 
L 741.045774 -63.389049 
L 737.986843 -63.401438 
L 734.927912 -63.418423 
L 731.868981 -63.441413 
L 728.81005 -63.47214 
L 725.751119 -63.512691 
L 722.692188 -63.565533 
L 719.633257 -63.633527 
L 716.574326 -63.719918 
L 713.515395 -63.828307 
L 710.456464 -63.962591 
L 707.397533 -64.126876 
L 704.338602 -64.325358 
L 701.279671 -64.562176 
L 698.22074 -64.841239 
L 695.161809 -65.166042 
L 692.102878 -65.539473 
L 689.043947 -65.963639 
L 685.985016 -66.439713 
L 682.926085 -66.967828 
L 679.867154 -67.547033 
L 676.808223 -68.175319 
L 673.749292 -68.849724 
L 670.690361 -69.566529 
L 667.63143 -70.321513 
L 664.572499 -71.110283 
L 661.513568 -71.928636 
L 658.454637 -72.772923 
L 655.395706 -73.640395 
L 652.336775 -74.529488 
L 649.277844 -75.440004 
L 646.218913 -76.373179 
L 643.159982 -77.331602 
L 640.101051 -78.318992 
L 637.04212 -79.339826 
L 633.983189 -80.398853 
L 630.924258 -81.500519 
L 627.865327 -82.648357 
L 624.806396 -83.844389 
L 621.747465 -85.088601 
L 618.688534 -86.378544 
L 615.629603 -87.709109 
L 612.570672 -89.072504 
L 609.511741 -90.458457 
L 606.45281 -91.854642 
L 603.393878 -93.2473 
L 600.334947 -94.622033 
L 597.276016 -95.964697 
L 594.217085 -97.262353 
L 591.158154 -98.504186 
L 588.099223 -99.682328 
L 585.040292 -100.792529 
L 581.981361 -101.834598 
L 578.92243 -102.812586 
L 575.863499 -103.734675 
L 572.804568 -104.612757 
L 569.745637 -105.461729 
L 566.686706 -106.298505 
L 563.627775 -107.14082 
L 560.568844 -108.005879 
L 557.509913 -108.908923 
L 554.450982 -109.861836 
L 551.392051 -110.871853 
L 548.33312 -111.940512 
L 545.274189 -113.062907 
L 542.215258 -114.227349 
L 539.156327 -115.415474 
L 536.097396 -116.602831 
L 533.038465 -117.759931 
L 529.979534 -118.853723 
L 526.920603 -119.849387 
L 523.861672 -120.71235 
L 520.802741 -121.41037 
L 517.74381 -121.915532 
L 514.684879 -122.206008 
L 511.625948 -122.267454 
L 508.567017 -122.093921 
L 505.508086 -121.688225 
L 502.449155 -121.061751 
L 499.390224 -120.23373 
L 496.331293 -119.230034 
L 493.272362 -118.081631 
L 490.213431 -116.822804 
L 487.1545 -115.489297 
L 484.095569 -114.116515 
L 481.036638 -112.737912 
L 477.977707 -111.383666 
L 474.918776 -110.079697 
L 471.859845 -108.847078 
L 468.800914 -107.701813 
L 465.741983 -106.654977 
L 462.683052 -105.713145 
L 459.624121 -104.879055 
L 456.56519 -104.152429 
L 453.506259 -103.530879 
L 450.447328 -103.010856 
L 447.388397 -102.588556 
L 444.329466 -102.260784 
L 441.270534 -102.025718 
L 438.211603 -101.883571 
L 435.152672 -101.837132 
L 432.093741 -101.892177 
L 429.03481 -102.057729 
L 425.975879 -102.346166 
L 422.916948 -102.773137 
L 419.858017 -103.35729 
L 416.799086 -104.119771 
L 413.740155 -105.083494 
L 410.681224 -106.272182 
L 407.622293 -107.709185 
L 404.563362 -109.416131 
L 401.504431 -111.411451 
L 398.4455 -113.708873 
L 395.386569 -116.315992 
L 392.327638 -119.233006 
L 389.268707 -122.451764 
L 386.209776 -125.955206 
L 383.150845 -129.717283 
L 380.091914 -133.70341 
L 377.032983 -137.871443 
L 373.974052 -142.173154 
L 370.915121 -146.556079 
L 367.85619 -150.965641 
L 364.797259 -155.347355 
L 361.738328 -159.648949 
L 358.679397 -163.822218 
L 355.620466 -167.824474 
L 352.561535 -171.619464 
L 349.502604 -175.177722 
L 346.443673 -178.476353 
L 343.384742 -181.498324 
L 340.325811 -184.231377 
L 337.26688 -186.666752 
L 334.207949 -188.797873 
L 331.149018 -190.619199 
L 328.090087 -192.12539 
L 325.031156 -193.310898 
L 321.972225 -194.170041 
L 318.913294 -194.697541 
L 315.854363 -194.889474 
L 312.795432 -194.744487 
L 309.736501 -194.265131 
L 306.67757 -193.459126 
L 303.618639 -192.340383 
L 300.559708 -190.929615 
L 297.500777 -189.254433 
L 294.441846 -187.348853 
L 291.382915 -185.252201 
L 288.323984 -183.007472 
L 285.265053 -180.659234 
L 282.206122 -178.25123 
L 279.14719 -175.823835 
L 276.088259 -173.411577 
L 273.029328 -171.040897 
L 269.970397 -168.728335 
L 266.911466 -166.4793 
L 263.852535 -164.287532 
L 260.793604 -162.135338 
L 257.734673 -159.994631 
L 254.675742 -157.828715 
L 251.616811 -155.594757 
L 248.55788 -153.246779 
L 245.498949 -150.738984 
L 242.440018 -148.029211 
L 239.381087 -145.082238 
L 236.322156 -141.872731 
L 233.263225 -138.38758 
L 230.204294 -134.627454 
L 227.145363 -130.607454 
L 224.086432 -126.356796 
L 221.027501 -121.91755 
L 217.96857 -117.342555 
L 214.909639 -112.692638 
L 211.850708 -108.033404 
L 208.791777 -103.431804 
L 205.732846 -98.952769 
L 202.673915 -94.656132 
L 199.614984 -90.594048 
L 196.556053 -86.809049 
L 193.497122 -83.332831 
L 190.438191 -80.185769 
L 187.37926 -77.377137 
L 184.320329 -74.905923 
L 181.261398 -72.762115 
L 178.202467 -70.928305 
L 175.143536 -69.38146 
L 172.084605 -68.094712 
L 169.025674 -67.039058 
L 165.966743 -66.184863 
L 162.907812 -65.503115 
L 159.848881 -64.966398 
L 156.78995 -64.549586 
L 153.731019 -64.230262 
L 150.672088 -63.988921 
L 147.613157 -63.808967 
L 144.554226 -63.676583 
L 141.495295 -63.580496 
L 138.436364 -63.511683 
z
" style="stroke: #023eff"/>
    </defs>
    <g clip-path="url(#p765eec5c8c)">
     <use xlink:href="#m1a34206442" x="0" y="576" style="fill: #023eff; fill-opacity: 0.25; stroke: #023eff"/>
    </g>
   </g>
   <g id="matplotlib.axis_1">
    <g id="xtick_1">
     <g id="line2d_1">
      <path d="M 164.654977 512.64 
L 164.654977 69.12 
" clip-path="url(#p765eec5c8c)" style="fill: none; stroke: #ffffff; stroke-width: 0.8; stroke-linecap: square"/>
     </g>
     <g id="line2d_2">
      <defs>
       <path id="m5c293da1d5" d="M 0 0 
L 0 3.5 
" style="stroke: #ffffff; stroke-width: 0.8"/>
      </defs>
      <g>
       <use xlink:href="#m5c293da1d5" x="164.654977" y="512.64" style="fill: #ffffff; stroke: #ffffff; stroke-width: 0.8"/>
      </g>
     </g>
     <g id="text_1">
      <!-- 0 -->
      <g style="fill: #ffffff" transform="translate(161.473727 527.238438) scale(0.1 -0.1)">
       <defs>
        <path id="DejaVuSans-30" d="M 2034 4250 
Q 1547 4250 1301 3770 
Q 1056 3291 1056 2328 
Q 1056 1369 1301 889 
Q 1547 409 2034 409 
Q 2525 409 2770 889 
Q 3016 1369 3016 2328 
Q 3016 3291 2770 3770 
Q 2525 4250 2034 4250 
z
M 2034 4750 
Q 2819 4750 3233 4129 
Q 3647 3509 3647 2328 
Q 3647 1150 3233 529 
Q 2819 -91 2034 -91 
Q 1250 -91 836 529 
Q 422 1150 422 2328 
Q 422 3509 836 4129 
Q 1250 4750 2034 4750 
z
" transform="scale(0.015625)"/>
       </defs>
       <use xlink:href="#DejaVuSans-30"/>
      </g>
     </g>
    </g>
    <g id="xtick_2">
     <g id="line2d_3">
      <path d="M 269.036251 512.64 
L 269.036251 69.12 
" clip-path="url(#p765eec5c8c)" style="fill: none; stroke: #ffffff; stroke-width: 0.8; stroke-linecap: square"/>
     </g>
     <g id="line2d_4">
      <g>
       <use xlink:href="#m5c293da1d5" x="269.036251" y="512.64" style="fill: #ffffff; stroke: #ffffff; stroke-width: 0.8"/>
      </g>
     </g>
     <g id="text_2">
      <!-- 200 -->
      <g style="fill: #ffffff" transform="translate(259.492501 527.238438) scale(0.1 -0.1)">
       <defs>
        <path id="DejaVuSans-32" d="M 1228 531 
L 3431 531 
L 3431 0 
L 469 0 
L 469 531 
Q 828 903 1448 1529 
Q 2069 2156 2228 2338 
Q 2531 2678 2651 2914 
Q 2772 3150 2772 3378 
Q 2772 3750 2511 3984 
Q 2250 4219 1831 4219 
Q 1534 4219 1204 4116 
Q 875 4013 500 3803 
L 500 4441 
Q 881 4594 1212 4672 
Q 1544 4750 1819 4750 
Q 2544 4750 2975 4387 
Q 3406 4025 3406 3419 
Q 3406 3131 3298 2873 
Q 3191 2616 2906 2266 
Q 2828 2175 2409 1742 
Q 1991 1309 1228 531 
z
" transform="scale(0.015625)"/>
       </defs>
       <use xlink:href="#DejaVuSans-32"/>
       <use xlink:href="#DejaVuSans-30" x="63.623047"/>
       <use xlink:href="#DejaVuSans-30" x="127.246094"/>
      </g>
     </g>
    </g>
    <g id="xtick_3">
     <g id="line2d_5">
      <path d="M 373.417525 512.64 
L 373.417525 69.12 
" clip-path="url(#p765eec5c8c)" style="fill: none; stroke: #ffffff; stroke-width: 0.8; stroke-linecap: square"/>
     </g>
     <g id="line2d_6">
      <g>
       <use xlink:href="#m5c293da1d5" x="373.417525" y="512.64" style="fill: #ffffff; stroke: #ffffff; stroke-width: 0.8"/>
      </g>
     </g>
     <g id="text_3">
      <!-- 400 -->
      <g style="fill: #ffffff" transform="translate(363.873775 527.238438) scale(0.1 -0.1)">
       <defs>
        <path id="DejaVuSans-34" d="M 2419 4116 
L 825 1625 
L 2419 1625 
L 2419 4116 
z
M 2253 4666 
L 3047 4666 
L 3047 1625 
L 3713 1625 
L 3713 1100 
L 3047 1100 
L 3047 0 
L 2419 0 
L 2419 1100 
L 313 1100 
L 313 1709 
L 2253 4666 
z
" transform="scale(0.015625)"/>
       </defs>
       <use xlink:href="#DejaVuSans-34"/>
       <use xlink:href="#DejaVuSans-30" x="63.623047"/>
       <use xlink:href="#DejaVuSans-30" x="127.246094"/>
      </g>
     </g>
    </g>
    <g id="xtick_4">
     <g id="line2d_7">
      <path d="M 477.7988 512.64 
L 477.7988 69.12 
" clip-path="url(#p765eec5c8c)" style="fill: none; stroke: #ffffff; stroke-width: 0.8; stroke-linecap: square"/>
     </g>
     <g id="line2d_8">
      <g>
       <use xlink:href="#m5c293da1d5" x="477.7988" y="512.64" style="fill: #ffffff; stroke: #ffffff; stroke-width: 0.8"/>
      </g>
     </g>
     <g id="text_4">
      <!-- 600 -->
      <g style="fill: #ffffff" transform="translate(468.25505 527.238438) scale(0.1 -0.1)">
       <defs>
        <path id="DejaVuSans-36" d="M 2113 2584 
Q 1688 2584 1439 2293 
Q 1191 2003 1191 1497 
Q 1191 994 1439 701 
Q 1688 409 2113 409 
Q 2538 409 2786 701 
Q 3034 994 3034 1497 
Q 3034 2003 2786 2293 
Q 2538 2584 2113 2584 
z
M 3366 4563 
L 3366 3988 
Q 3128 4100 2886 4159 
Q 2644 4219 2406 4219 
Q 1781 4219 1451 3797 
Q 1122 3375 1075 2522 
Q 1259 2794 1537 2939 
Q 1816 3084 2150 3084 
Q 2853 3084 3261 2657 
Q 3669 2231 3669 1497 
Q 3669 778 3244 343 
Q 2819 -91 2113 -91 
Q 1303 -91 875 529 
Q 447 1150 447 2328 
Q 447 3434 972 4092 
Q 1497 4750 2381 4750 
Q 2619 4750 2861 4703 
Q 3103 4656 3366 4563 
z
" transform="scale(0.015625)"/>
       </defs>
       <use xlink:href="#DejaVuSans-36"/>
       <use xlink:href="#DejaVuSans-30" x="63.623047"/>
       <use xlink:href="#DejaVuSans-30" x="127.246094"/>
      </g>
     </g>
    </g>
    <g id="xtick_5">
     <g id="line2d_9">
      <path d="M 582.180074 512.64 
L 582.180074 69.12 
" clip-path="url(#p765eec5c8c)" style="fill: none; stroke: #ffffff; stroke-width: 0.8; stroke-linecap: square"/>
     </g>
     <g id="line2d_10">
      <g>
       <use xlink:href="#m5c293da1d5" x="582.180074" y="512.64" style="fill: #ffffff; stroke: #ffffff; stroke-width: 0.8"/>
      </g>
     </g>
     <g id="text_5">
      <!-- 800 -->
      <g style="fill: #ffffff" transform="translate(572.636324 527.238438) scale(0.1 -0.1)">
       <defs>
        <path id="DejaVuSans-38" d="M 2034 2216 
Q 1584 2216 1326 1975 
Q 1069 1734 1069 1313 
Q 1069 891 1326 650 
Q 1584 409 2034 409 
Q 2484 409 2743 651 
Q 3003 894 3003 1313 
Q 3003 1734 2745 1975 
Q 2488 2216 2034 2216 
z
M 1403 2484 
Q 997 2584 770 2862 
Q 544 3141 544 3541 
Q 544 4100 942 4425 
Q 1341 4750 2034 4750 
Q 2731 4750 3128 4425 
Q 3525 4100 3525 3541 
Q 3525 3141 3298 2862 
Q 3072 2584 2669 2484 
Q 3125 2378 3379 2068 
Q 3634 1759 3634 1313 
Q 3634 634 3220 271 
Q 2806 -91 2034 -91 
Q 1263 -91 848 271 
Q 434 634 434 1313 
Q 434 1759 690 2068 
Q 947 2378 1403 2484 
z
M 1172 3481 
Q 1172 3119 1398 2916 
Q 1625 2713 2034 2713 
Q 2441 2713 2670 2916 
Q 2900 3119 2900 3481 
Q 2900 3844 2670 4047 
Q 2441 4250 2034 4250 
Q 1625 4250 1398 4047 
Q 1172 3844 1172 3481 
z
" transform="scale(0.015625)"/>
       </defs>
       <use xlink:href="#DejaVuSans-38"/>
       <use xlink:href="#DejaVuSans-30" x="63.623047"/>
       <use xlink:href="#DejaVuSans-30" x="127.246094"/>
      </g>
     </g>
    </g>
    <g id="xtick_6">
     <g id="line2d_11">
      <path d="M 686.561348 512.64 
L 686.561348 69.12 
" clip-path="url(#p765eec5c8c)" style="fill: none; stroke: #ffffff; stroke-width: 0.8; stroke-linecap: square"/>
     </g>
     <g id="line2d_12">
      <g>
       <use xlink:href="#m5c293da1d5" x="686.561348" y="512.64" style="fill: #ffffff; stroke: #ffffff; stroke-width: 0.8"/>
      </g>
     </g>
     <g id="text_6">
      <!-- 1000 -->
      <g style="fill: #ffffff" transform="translate(673.836348 527.238438) scale(0.1 -0.1)">
       <defs>
        <path id="DejaVuSans-31" d="M 794 531 
L 1825 531 
L 1825 4091 
L 703 3866 
L 703 4441 
L 1819 4666 
L 2450 4666 
L 2450 531 
L 3481 531 
L 3481 0 
L 794 0 
L 794 531 
z
" transform="scale(0.015625)"/>
       </defs>
       <use xlink:href="#DejaVuSans-31"/>
       <use xlink:href="#DejaVuSans-30" x="63.623047"/>
       <use xlink:href="#DejaVuSans-30" x="127.246094"/>
       <use xlink:href="#DejaVuSans-30" x="190.869141"/>
      </g>
     </g>
    </g>
    <g id="text_7">
     <!-- Time (ms) -->
     <g style="fill: #ffffff" transform="translate(417.600781 540.916563) scale(0.1 -0.1)">
      <defs>
       <path id="DejaVuSans-54" d="M -19 4666 
L 3928 4666 
L 3928 4134 
L 2272 4134 
L 2272 0 
L 1638 0 
L 1638 4134 
L -19 4134 
L -19 4666 
z
" transform="scale(0.015625)"/>
       <path id="DejaVuSans-69" d="M 603 3500 
L 1178 3500 
L 1178 0 
L 603 0 
L 603 3500 
z
M 603 4863 
L 1178 4863 
L 1178 4134 
L 603 4134 
L 603 4863 
z
" transform="scale(0.015625)"/>
       <path id="DejaVuSans-6d" d="M 3328 2828 
Q 3544 3216 3844 3400 
Q 4144 3584 4550 3584 
Q 5097 3584 5394 3201 
Q 5691 2819 5691 2113 
L 5691 0 
L 5113 0 
L 5113 2094 
Q 5113 2597 4934 2840 
Q 4756 3084 4391 3084 
Q 3944 3084 3684 2787 
Q 3425 2491 3425 1978 
L 3425 0 
L 2847 0 
L 2847 2094 
Q 2847 2600 2669 2842 
Q 2491 3084 2119 3084 
Q 1678 3084 1418 2786 
Q 1159 2488 1159 1978 
L 1159 0 
L 581 0 
L 581 3500 
L 1159 3500 
L 1159 2956 
Q 1356 3278 1631 3431 
Q 1906 3584 2284 3584 
Q 2666 3584 2933 3390 
Q 3200 3197 3328 2828 
z
" transform="scale(0.015625)"/>
       <path id="DejaVuSans-65" d="M 3597 1894 
L 3597 1613 
L 953 1613 
Q 991 1019 1311 708 
Q 1631 397 2203 397 
Q 2534 397 2845 478 
Q 3156 559 3463 722 
L 3463 178 
Q 3153 47 2828 -22 
Q 2503 -91 2169 -91 
Q 1331 -91 842 396 
Q 353 884 353 1716 
Q 353 2575 817 3079 
Q 1281 3584 2069 3584 
Q 2775 3584 3186 3129 
Q 3597 2675 3597 1894 
z
M 3022 2063 
Q 3016 2534 2758 2815 
Q 2500 3097 2075 3097 
Q 1594 3097 1305 2825 
Q 1016 2553 972 2059 
L 3022 2063 
z
" transform="scale(0.015625)"/>
       <path id="DejaVuSans-20" transform="scale(0.015625)"/>
       <path id="DejaVuSans-28" d="M 1984 4856 
Q 1566 4138 1362 3434 
Q 1159 2731 1159 2009 
Q 1159 1288 1364 580 
Q 1569 -128 1984 -844 
L 1484 -844 
Q 1016 -109 783 600 
Q 550 1309 550 2009 
Q 550 2706 781 3412 
Q 1013 4119 1484 4856 
L 1984 4856 
z
" transform="scale(0.015625)"/>
       <path id="DejaVuSans-73" d="M 2834 3397 
L 2834 2853 
Q 2591 2978 2328 3040 
Q 2066 3103 1784 3103 
Q 1356 3103 1142 2972 
Q 928 2841 928 2578 
Q 928 2378 1081 2264 
Q 1234 2150 1697 2047 
L 1894 2003 
Q 2506 1872 2764 1633 
Q 3022 1394 3022 966 
Q 3022 478 2636 193 
Q 2250 -91 1575 -91 
Q 1294 -91 989 -36 
Q 684 19 347 128 
L 347 722 
Q 666 556 975 473 
Q 1284 391 1588 391 
Q 1994 391 2212 530 
Q 2431 669 2431 922 
Q 2431 1156 2273 1281 
Q 2116 1406 1581 1522 
L 1381 1569 
Q 847 1681 609 1914 
Q 372 2147 372 2553 
Q 372 3047 722 3315 
Q 1072 3584 1716 3584 
Q 2034 3584 2315 3537 
Q 2597 3491 2834 3397 
z
" transform="scale(0.015625)"/>
       <path id="DejaVuSans-29" d="M 513 4856 
L 1013 4856 
Q 1481 4119 1714 3412 
Q 1947 2706 1947 2009 
Q 1947 1309 1714 600 
Q 1481 -109 1013 -844 
L 513 -844 
Q 928 -128 1133 580 
Q 1338 1288 1338 2009 
Q 1338 2731 1133 3434 
Q 928 4138 513 4856 
z
" transform="scale(0.015625)"/>
      </defs>
      <use xlink:href="#DejaVuSans-54"/>
      <use xlink:href="#DejaVuSans-69" x="57.958984"/>
      <use xlink:href="#DejaVuSans-6d" x="85.742188"/>
      <use xlink:href="#DejaVuSans-65" x="183.154297"/>
      <use xlink:href="#DejaVuSans-20" x="244.677734"/>
      <use xlink:href="#DejaVuSans-28" x="276.464844"/>
      <use xlink:href="#DejaVuSans-6d" x="315.478516"/>
      <use xlink:href="#DejaVuSans-73" x="412.890625"/>
      <use xlink:href="#DejaVuSans-29" x="464.990234"/>
     </g>
    </g>
   </g>
   <g id="matplotlib.axis_2">
    <g id="ytick_1">
     <g id="line2d_13">
      <path d="M 108 512.64 
L 777.6 512.64 
" clip-path="url(#p765eec5c8c)" style="fill: none; stroke: #ffffff; stroke-width: 0.8; stroke-linecap: square"/>
     </g>
     <g id="line2d_14">
      <defs>
       <path id="mddf8ddf2d7" d="M 0 0 
L -3.5 0 
" style="stroke: #ffffff; stroke-width: 0.8"/>
      </defs>
      <g>
       <use xlink:href="#mddf8ddf2d7" x="108" y="512.64" style="fill: #ffffff; stroke: #ffffff; stroke-width: 0.8"/>
      </g>
     </g>
     <g id="text_8">
      <!-- 0.000 -->
      <g style="fill: #ffffff" transform="translate(72.371875 516.439219) scale(0.1 -0.1)">
       <defs>
        <path id="DejaVuSans-2e" d="M 684 794 
L 1344 794 
L 1344 0 
L 684 0 
L 684 794 
z
" transform="scale(0.015625)"/>
       </defs>
       <use xlink:href="#DejaVuSans-30"/>
       <use xlink:href="#DejaVuSans-2e" x="63.623047"/>
       <use xlink:href="#DejaVuSans-30" x="95.410156"/>
       <use xlink:href="#DejaVuSans-30" x="159.033203"/>
       <use xlink:href="#DejaVuSans-30" x="222.65625"/>
      </g>
     </g>
    </g>
    <g id="ytick_2">
     <g id="line2d_15">
      <path d="M 108 455.525347 
L 777.6 455.525347 
" clip-path="url(#p765eec5c8c)" style="fill: none; stroke: #ffffff; stroke-width: 0.8; stroke-linecap: square"/>
     </g>
     <g id="line2d_16">
      <g>
       <use xlink:href="#mddf8ddf2d7" x="108" y="455.525347" style="fill: #ffffff; stroke: #ffffff; stroke-width: 0.8"/>
      </g>
     </g>
     <g id="text_9">
      <!-- 0.001 -->
      <g style="fill: #ffffff" transform="translate(72.371875 459.324566) scale(0.1 -0.1)">
       <use xlink:href="#DejaVuSans-30"/>
       <use xlink:href="#DejaVuSans-2e" x="63.623047"/>
       <use xlink:href="#DejaVuSans-30" x="95.410156"/>
       <use xlink:href="#DejaVuSans-30" x="159.033203"/>
       <use xlink:href="#DejaVuSans-31" x="222.65625"/>
      </g>
     </g>
    </g>
    <g id="ytick_3">
     <g id="line2d_17">
      <path d="M 108 398.410694 
L 777.6 398.410694 
" clip-path="url(#p765eec5c8c)" style="fill: none; stroke: #ffffff; stroke-width: 0.8; stroke-linecap: square"/>
     </g>
     <g id="line2d_18">
      <g>
       <use xlink:href="#mddf8ddf2d7" x="108" y="398.410694" style="fill: #ffffff; stroke: #ffffff; stroke-width: 0.8"/>
      </g>
     </g>
     <g id="text_10">
      <!-- 0.002 -->
      <g style="fill: #ffffff" transform="translate(72.371875 402.209912) scale(0.1 -0.1)">
       <use xlink:href="#DejaVuSans-30"/>
       <use xlink:href="#DejaVuSans-2e" x="63.623047"/>
       <use xlink:href="#DejaVuSans-30" x="95.410156"/>
       <use xlink:href="#DejaVuSans-30" x="159.033203"/>
       <use xlink:href="#DejaVuSans-32" x="222.65625"/>
      </g>
     </g>
    </g>
    <g id="ytick_4">
     <g id="line2d_19">
      <path d="M 108 341.296041 
L 777.6 341.296041 
" clip-path="url(#p765eec5c8c)" style="fill: none; stroke: #ffffff; stroke-width: 0.8; stroke-linecap: square"/>
     </g>
     <g id="line2d_20">
      <g>
       <use xlink:href="#mddf8ddf2d7" x="108" y="341.296041" style="fill: #ffffff; stroke: #ffffff; stroke-width: 0.8"/>
      </g>
     </g>
     <g id="text_11">
      <!-- 0.003 -->
      <g style="fill: #ffffff" transform="translate(72.371875 345.095259) scale(0.1 -0.1)">
       <defs>
        <path id="DejaVuSans-33" d="M 2597 2516 
Q 3050 2419 3304 2112 
Q 3559 1806 3559 1356 
Q 3559 666 3084 287 
Q 2609 -91 1734 -91 
Q 1441 -91 1130 -33 
Q 819 25 488 141 
L 488 750 
Q 750 597 1062 519 
Q 1375 441 1716 441 
Q 2309 441 2620 675 
Q 2931 909 2931 1356 
Q 2931 1769 2642 2001 
Q 2353 2234 1838 2234 
L 1294 2234 
L 1294 2753 
L 1863 2753 
Q 2328 2753 2575 2939 
Q 2822 3125 2822 3475 
Q 2822 3834 2567 4026 
Q 2313 4219 1838 4219 
Q 1578 4219 1281 4162 
Q 984 4106 628 3988 
L 628 4550 
Q 988 4650 1302 4700 
Q 1616 4750 1894 4750 
Q 2613 4750 3031 4423 
Q 3450 4097 3450 3541 
Q 3450 3153 3228 2886 
Q 3006 2619 2597 2516 
z
" transform="scale(0.015625)"/>
       </defs>
       <use xlink:href="#DejaVuSans-30"/>
       <use xlink:href="#DejaVuSans-2e" x="63.623047"/>
       <use xlink:href="#DejaVuSans-30" x="95.410156"/>
       <use xlink:href="#DejaVuSans-30" x="159.033203"/>
       <use xlink:href="#DejaVuSans-33" x="222.65625"/>
      </g>
     </g>
    </g>
    <g id="ytick_5">
     <g id="line2d_21">
      <path d="M 108 284.181387 
L 777.6 284.181387 
" clip-path="url(#p765eec5c8c)" style="fill: none; stroke: #ffffff; stroke-width: 0.8; stroke-linecap: square"/>
     </g>
     <g id="line2d_22">
      <g>
       <use xlink:href="#mddf8ddf2d7" x="108" y="284.181387" style="fill: #ffffff; stroke: #ffffff; stroke-width: 0.8"/>
      </g>
     </g>
     <g id="text_12">
      <!-- 0.004 -->
      <g style="fill: #ffffff" transform="translate(72.371875 287.980606) scale(0.1 -0.1)">
       <use xlink:href="#DejaVuSans-30"/>
       <use xlink:href="#DejaVuSans-2e" x="63.623047"/>
       <use xlink:href="#DejaVuSans-30" x="95.410156"/>
       <use xlink:href="#DejaVuSans-30" x="159.033203"/>
       <use xlink:href="#DejaVuSans-34" x="222.65625"/>
      </g>
     </g>
    </g>
    <g id="ytick_6">
     <g id="line2d_23">
      <path d="M 108 227.066734 
L 777.6 227.066734 
" clip-path="url(#p765eec5c8c)" style="fill: none; stroke: #ffffff; stroke-width: 0.8; stroke-linecap: square"/>
     </g>
     <g id="line2d_24">
      <g>
       <use xlink:href="#mddf8ddf2d7" x="108" y="227.066734" style="fill: #ffffff; stroke: #ffffff; stroke-width: 0.8"/>
      </g>
     </g>
     <g id="text_13">
      <!-- 0.005 -->
      <g style="fill: #ffffff" transform="translate(72.371875 230.865953) scale(0.1 -0.1)">
       <defs>
        <path id="DejaVuSans-35" d="M 691 4666 
L 3169 4666 
L 3169 4134 
L 1269 4134 
L 1269 2991 
Q 1406 3038 1543 3061 
Q 1681 3084 1819 3084 
Q 2600 3084 3056 2656 
Q 3513 2228 3513 1497 
Q 3513 744 3044 326 
Q 2575 -91 1722 -91 
Q 1428 -91 1123 -41 
Q 819 9 494 109 
L 494 744 
Q 775 591 1075 516 
Q 1375 441 1709 441 
Q 2250 441 2565 725 
Q 2881 1009 2881 1497 
Q 2881 1984 2565 2268 
Q 2250 2553 1709 2553 
Q 1456 2553 1204 2497 
Q 953 2441 691 2322 
L 691 4666 
z
" transform="scale(0.015625)"/>
       </defs>
       <use xlink:href="#DejaVuSans-30"/>
       <use xlink:href="#DejaVuSans-2e" x="63.623047"/>
       <use xlink:href="#DejaVuSans-30" x="95.410156"/>
       <use xlink:href="#DejaVuSans-30" x="159.033203"/>
       <use xlink:href="#DejaVuSans-35" x="222.65625"/>
      </g>
     </g>
    </g>
    <g id="ytick_7">
     <g id="line2d_25">
      <path d="M 108 169.952081 
L 777.6 169.952081 
" clip-path="url(#p765eec5c8c)" style="fill: none; stroke: #ffffff; stroke-width: 0.8; stroke-linecap: square"/>
     </g>
     <g id="line2d_26">
      <g>
       <use xlink:href="#mddf8ddf2d7" x="108" y="169.952081" style="fill: #ffffff; stroke: #ffffff; stroke-width: 0.8"/>
      </g>
     </g>
     <g id="text_14">
      <!-- 0.006 -->
      <g style="fill: #ffffff" transform="translate(72.371875 173.7513) scale(0.1 -0.1)">
       <use xlink:href="#DejaVuSans-30"/>
       <use xlink:href="#DejaVuSans-2e" x="63.623047"/>
       <use xlink:href="#DejaVuSans-30" x="95.410156"/>
       <use xlink:href="#DejaVuSans-30" x="159.033203"/>
       <use xlink:href="#DejaVuSans-36" x="222.65625"/>
      </g>
     </g>
    </g>
    <g id="ytick_8">
     <g id="line2d_27">
      <path d="M 108 112.837428 
L 777.6 112.837428 
" clip-path="url(#p765eec5c8c)" style="fill: none; stroke: #ffffff; stroke-width: 0.8; stroke-linecap: square"/>
     </g>
     <g id="line2d_28">
      <g>
       <use xlink:href="#mddf8ddf2d7" x="108" y="112.837428" style="fill: #ffffff; stroke: #ffffff; stroke-width: 0.8"/>
      </g>
     </g>
     <g id="text_15">
      <!-- 0.007 -->
      <g style="fill: #ffffff" transform="translate(72.371875 116.636647) scale(0.1 -0.1)">
       <defs>
        <path id="DejaVuSans-37" d="M 525 4666 
L 3525 4666 
L 3525 4397 
L 1831 0 
L 1172 0 
L 2766 4134 
L 525 4134 
L 525 4666 
z
" transform="scale(0.015625)"/>
       </defs>
       <use xlink:href="#DejaVuSans-30"/>
       <use xlink:href="#DejaVuSans-2e" x="63.623047"/>
       <use xlink:href="#DejaVuSans-30" x="95.410156"/>
       <use xlink:href="#DejaVuSans-30" x="159.033203"/>
       <use xlink:href="#DejaVuSans-37" x="222.65625"/>
      </g>
     </g>
    </g>
    <g id="text_16">
     <!-- Density -->
     <g style="fill: #ffffff" transform="translate(66.292187 309.888594) rotate(-90) scale(0.1 -0.1)">
      <defs>
       <path id="DejaVuSans-44" d="M 1259 4147 
L 1259 519 
L 2022 519 
Q 2988 519 3436 956 
Q 3884 1394 3884 2338 
Q 3884 3275 3436 3711 
Q 2988 4147 2022 4147 
L 1259 4147 
z
M 628 4666 
L 1925 4666 
Q 3281 4666 3915 4102 
Q 4550 3538 4550 2338 
Q 4550 1131 3912 565 
Q 3275 0 1925 0 
L 628 0 
L 628 4666 
z
" transform="scale(0.015625)"/>
       <path id="DejaVuSans-6e" d="M 3513 2113 
L 3513 0 
L 2938 0 
L 2938 2094 
Q 2938 2591 2744 2837 
Q 2550 3084 2163 3084 
Q 1697 3084 1428 2787 
Q 1159 2491 1159 1978 
L 1159 0 
L 581 0 
L 581 3500 
L 1159 3500 
L 1159 2956 
Q 1366 3272 1645 3428 
Q 1925 3584 2291 3584 
Q 2894 3584 3203 3211 
Q 3513 2838 3513 2113 
z
" transform="scale(0.015625)"/>
       <path id="DejaVuSans-74" d="M 1172 4494 
L 1172 3500 
L 2356 3500 
L 2356 3053 
L 1172 3053 
L 1172 1153 
Q 1172 725 1289 603 
Q 1406 481 1766 481 
L 2356 481 
L 2356 0 
L 1766 0 
Q 1100 0 847 248 
Q 594 497 594 1153 
L 594 3053 
L 172 3053 
L 172 3500 
L 594 3500 
L 594 4494 
L 1172 4494 
z
" transform="scale(0.015625)"/>
       <path id="DejaVuSans-79" d="M 2059 -325 
Q 1816 -950 1584 -1140 
Q 1353 -1331 966 -1331 
L 506 -1331 
L 506 -850 
L 844 -850 
Q 1081 -850 1212 -737 
Q 1344 -625 1503 -206 
L 1606 56 
L 191 3500 
L 800 3500 
L 1894 763 
L 2988 3500 
L 3597 3500 
L 2059 -325 
z
" transform="scale(0.015625)"/>
      </defs>
      <use xlink:href="#DejaVuSans-44"/>
      <use xlink:href="#DejaVuSans-65" x="77.001953"/>
      <use xlink:href="#DejaVuSans-6e" x="138.525391"/>
      <use xlink:href="#DejaVuSans-73" x="201.904297"/>
      <use xlink:href="#DejaVuSans-69" x="254.003906"/>
      <use xlink:href="#DejaVuSans-74" x="281.787109"/>
      <use xlink:href="#DejaVuSans-79" x="320.996094"/>
     </g>
    </g>
   </g>
   <g id="patch_3">
    <path d="M 108 512.64 
L 108 69.12 
" style="fill: none; stroke: #ffffff; stroke-width: 0.8; stroke-linejoin: miter; stroke-linecap: square"/>
   </g>
   <g id="patch_4">
    <path d="M 777.6 512.64 
L 777.6 69.12 
" style="fill: none; stroke: #ffffff; stroke-width: 0.8; stroke-linejoin: miter; stroke-linecap: square"/>
   </g>
   <g id="patch_5">
    <path d="M 108 512.64 
L 777.6 512.64 
" style="fill: none; stroke: #ffffff; stroke-width: 0.8; stroke-linejoin: miter; stroke-linecap: square"/>
   </g>
   <g id="patch_6">
    <path d="M 108 69.12 
L 777.6 69.12 
" style="fill: none; stroke: #ffffff; stroke-width: 0.8; stroke-linejoin: miter; stroke-linecap: square"/>
   </g>
   <g id="text_17">
    <!-- Density Plot of Execution Time across Implementations -->
    <g style="fill: #ffffff" transform="translate(277.336875 63.12) scale(0.12 -0.12)">
     <defs>
      <path id="DejaVuSans-50" d="M 1259 4147 
L 1259 2394 
L 2053 2394 
Q 2494 2394 2734 2622 
Q 2975 2850 2975 3272 
Q 2975 3691 2734 3919 
Q 2494 4147 2053 4147 
L 1259 4147 
z
M 628 4666 
L 2053 4666 
Q 2838 4666 3239 4311 
Q 3641 3956 3641 3272 
Q 3641 2581 3239 2228 
Q 2838 1875 2053 1875 
L 1259 1875 
L 1259 0 
L 628 0 
L 628 4666 
z
" transform="scale(0.015625)"/>
      <path id="DejaVuSans-6c" d="M 603 4863 
L 1178 4863 
L 1178 0 
L 603 0 
L 603 4863 
z
" transform="scale(0.015625)"/>
      <path id="DejaVuSans-6f" d="M 1959 3097 
Q 1497 3097 1228 2736 
Q 959 2375 959 1747 
Q 959 1119 1226 758 
Q 1494 397 1959 397 
Q 2419 397 2687 759 
Q 2956 1122 2956 1747 
Q 2956 2369 2687 2733 
Q 2419 3097 1959 3097 
z
M 1959 3584 
Q 2709 3584 3137 3096 
Q 3566 2609 3566 1747 
Q 3566 888 3137 398 
Q 2709 -91 1959 -91 
Q 1206 -91 779 398 
Q 353 888 353 1747 
Q 353 2609 779 3096 
Q 1206 3584 1959 3584 
z
" transform="scale(0.015625)"/>
      <path id="DejaVuSans-66" d="M 2375 4863 
L 2375 4384 
L 1825 4384 
Q 1516 4384 1395 4259 
Q 1275 4134 1275 3809 
L 1275 3500 
L 2222 3500 
L 2222 3053 
L 1275 3053 
L 1275 0 
L 697 0 
L 697 3053 
L 147 3053 
L 147 3500 
L 697 3500 
L 697 3744 
Q 697 4328 969 4595 
Q 1241 4863 1831 4863 
L 2375 4863 
z
" transform="scale(0.015625)"/>
      <path id="DejaVuSans-45" d="M 628 4666 
L 3578 4666 
L 3578 4134 
L 1259 4134 
L 1259 2753 
L 3481 2753 
L 3481 2222 
L 1259 2222 
L 1259 531 
L 3634 531 
L 3634 0 
L 628 0 
L 628 4666 
z
" transform="scale(0.015625)"/>
      <path id="DejaVuSans-78" d="M 3513 3500 
L 2247 1797 
L 3578 0 
L 2900 0 
L 1881 1375 
L 863 0 
L 184 0 
L 1544 1831 
L 300 3500 
L 978 3500 
L 1906 2253 
L 2834 3500 
L 3513 3500 
z
" transform="scale(0.015625)"/>
      <path id="DejaVuSans-63" d="M 3122 3366 
L 3122 2828 
Q 2878 2963 2633 3030 
Q 2388 3097 2138 3097 
Q 1578 3097 1268 2742 
Q 959 2388 959 1747 
Q 959 1106 1268 751 
Q 1578 397 2138 397 
Q 2388 397 2633 464 
Q 2878 531 3122 666 
L 3122 134 
Q 2881 22 2623 -34 
Q 2366 -91 2075 -91 
Q 1284 -91 818 406 
Q 353 903 353 1747 
Q 353 2603 823 3093 
Q 1294 3584 2113 3584 
Q 2378 3584 2631 3529 
Q 2884 3475 3122 3366 
z
" transform="scale(0.015625)"/>
      <path id="DejaVuSans-75" d="M 544 1381 
L 544 3500 
L 1119 3500 
L 1119 1403 
Q 1119 906 1312 657 
Q 1506 409 1894 409 
Q 2359 409 2629 706 
Q 2900 1003 2900 1516 
L 2900 3500 
L 3475 3500 
L 3475 0 
L 2900 0 
L 2900 538 
Q 2691 219 2414 64 
Q 2138 -91 1772 -91 
Q 1169 -91 856 284 
Q 544 659 544 1381 
z
M 1991 3584 
L 1991 3584 
z
" transform="scale(0.015625)"/>
      <path id="DejaVuSans-61" d="M 2194 1759 
Q 1497 1759 1228 1600 
Q 959 1441 959 1056 
Q 959 750 1161 570 
Q 1363 391 1709 391 
Q 2188 391 2477 730 
Q 2766 1069 2766 1631 
L 2766 1759 
L 2194 1759 
z
M 3341 1997 
L 3341 0 
L 2766 0 
L 2766 531 
Q 2569 213 2275 61 
Q 1981 -91 1556 -91 
Q 1019 -91 701 211 
Q 384 513 384 1019 
Q 384 1609 779 1909 
Q 1175 2209 1959 2209 
L 2766 2209 
L 2766 2266 
Q 2766 2663 2505 2880 
Q 2244 3097 1772 3097 
Q 1472 3097 1187 3025 
Q 903 2953 641 2809 
L 641 3341 
Q 956 3463 1253 3523 
Q 1550 3584 1831 3584 
Q 2591 3584 2966 3190 
Q 3341 2797 3341 1997 
z
" transform="scale(0.015625)"/>
      <path id="DejaVuSans-72" d="M 2631 2963 
Q 2534 3019 2420 3045 
Q 2306 3072 2169 3072 
Q 1681 3072 1420 2755 
Q 1159 2438 1159 1844 
L 1159 0 
L 581 0 
L 581 3500 
L 1159 3500 
L 1159 2956 
Q 1341 3275 1631 3429 
Q 1922 3584 2338 3584 
Q 2397 3584 2469 3576 
Q 2541 3569 2628 3553 
L 2631 2963 
z
" transform="scale(0.015625)"/>
      <path id="DejaVuSans-49" d="M 628 4666 
L 1259 4666 
L 1259 0 
L 628 0 
L 628 4666 
z
" transform="scale(0.015625)"/>
      <path id="DejaVuSans-70" d="M 1159 525 
L 1159 -1331 
L 581 -1331 
L 581 3500 
L 1159 3500 
L 1159 2969 
Q 1341 3281 1617 3432 
Q 1894 3584 2278 3584 
Q 2916 3584 3314 3078 
Q 3713 2572 3713 1747 
Q 3713 922 3314 415 
Q 2916 -91 2278 -91 
Q 1894 -91 1617 61 
Q 1341 213 1159 525 
z
M 3116 1747 
Q 3116 2381 2855 2742 
Q 2594 3103 2138 3103 
Q 1681 3103 1420 2742 
Q 1159 2381 1159 1747 
Q 1159 1113 1420 752 
Q 1681 391 2138 391 
Q 2594 391 2855 752 
Q 3116 1113 3116 1747 
z
" transform="scale(0.015625)"/>
     </defs>
     <use xlink:href="#DejaVuSans-44"/>
     <use xlink:href="#DejaVuSans-65" x="77.001953"/>
     <use xlink:href="#DejaVuSans-6e" x="138.525391"/>
     <use xlink:href="#DejaVuSans-73" x="201.904297"/>
     <use xlink:href="#DejaVuSans-69" x="254.003906"/>
     <use xlink:href="#DejaVuSans-74" x="281.787109"/>
     <use xlink:href="#DejaVuSans-79" x="320.996094"/>
     <use xlink:href="#DejaVuSans-20" x="380.175781"/>
     <use xlink:href="#DejaVuSans-50" x="411.962891"/>
     <use xlink:href="#DejaVuSans-6c" x="472.265625"/>
     <use xlink:href="#DejaVuSans-6f" x="500.048828"/>
     <use xlink:href="#DejaVuSans-74" x="561.230469"/>
     <use xlink:href="#DejaVuSans-20" x="600.439453"/>
     <use xlink:href="#DejaVuSans-6f" x="632.226562"/>
     <use xlink:href="#DejaVuSans-66" x="693.408203"/>
     <use xlink:href="#DejaVuSans-20" x="728.613281"/>
     <use xlink:href="#DejaVuSans-45" x="760.400391"/>
     <use xlink:href="#DejaVuSans-78" x="823.583984"/>
     <use xlink:href="#DejaVuSans-65" x="879.638672"/>
     <use xlink:href="#DejaVuSans-63" x="941.162109"/>
     <use xlink:href="#DejaVuSans-75" x="996.142578"/>
     <use xlink:href="#DejaVuSans-74" x="1059.521484"/>
     <use xlink:href="#DejaVuSans-69" x="1098.730469"/>
     <use xlink:href="#DejaVuSans-6f" x="1126.513672"/>
     <use xlink:href="#DejaVuSans-6e" x="1187.695312"/>
     <use xlink:href="#DejaVuSans-20" x="1251.074219"/>
     <use xlink:href="#DejaVuSans-54" x="1282.861328"/>
     <use xlink:href="#DejaVuSans-69" x="1340.820312"/>
     <use xlink:href="#DejaVuSans-6d" x="1368.603516"/>
     <use xlink:href="#DejaVuSans-65" x="1466.015625"/>
     <use xlink:href="#DejaVuSans-20" x="1527.539062"/>
     <use xlink:href="#DejaVuSans-61" x="1559.326172"/>
     <use xlink:href="#DejaVuSans-63" x="1620.605469"/>
     <use xlink:href="#DejaVuSans-72" x="1675.585938"/>
     <use xlink:href="#DejaVuSans-6f" x="1714.449219"/>
     <use xlink:href="#DejaVuSans-73" x="1775.630859"/>
     <use xlink:href="#DejaVuSans-73" x="1827.730469"/>
     <use xlink:href="#DejaVuSans-20" x="1879.830078"/>
     <use xlink:href="#DejaVuSans-49" x="1911.617188"/>
     <use xlink:href="#DejaVuSans-6d" x="1941.109375"/>
     <use xlink:href="#DejaVuSans-70" x="2038.521484"/>
     <use xlink:href="#DejaVuSans-6c" x="2101.998047"/>
     <use xlink:href="#DejaVuSans-65" x="2129.78125"/>
     <use xlink:href="#DejaVuSans-6d" x="2191.304688"/>
     <use xlink:href="#DejaVuSans-65" x="2288.716797"/>
     <use xlink:href="#DejaVuSans-6e" x="2350.240234"/>
     <use xlink:href="#DejaVuSans-74" x="2413.619141"/>
     <use xlink:href="#DejaVuSans-61" x="2452.828125"/>
     <use xlink:href="#DejaVuSans-74" x="2514.107422"/>
     <use xlink:href="#DejaVuSans-69" x="2553.316406"/>
     <use xlink:href="#DejaVuSans-6f" x="2581.099609"/>
     <use xlink:href="#DejaVuSans-6e" x="2642.28125"/>
     <use xlink:href="#DejaVuSans-73" x="2705.660156"/>
    </g>
   </g>
   <g id="legend_1">
    <g id="patch_7">
     <path d="M 617.078125 136.666875 
L 770.6 136.666875 
Q 772.6 136.666875 772.6 134.666875 
L 772.6 76.12 
Q 772.6 74.12 770.6 74.12 
L 617.078125 74.12 
Q 615.078125 74.12 615.078125 76.12 
L 615.078125 134.666875 
Q 615.078125 136.666875 617.078125 136.666875 
z
" style="opacity: 0.8; stroke: #cccccc; stroke-linejoin: miter"/>
    </g>
    <g id="text_18">
     <!-- implementation -->
     <g style="fill: #ffffff" transform="translate(654.222656 85.718437) scale(0.1 -0.1)">
      <use xlink:href="#DejaVuSans-69"/>
      <use xlink:href="#DejaVuSans-6d" x="27.783203"/>
      <use xlink:href="#DejaVuSans-70" x="125.195312"/>
      <use xlink:href="#DejaVuSans-6c" x="188.671875"/>
      <use xlink:href="#DejaVuSans-65" x="216.455078"/>
      <use xlink:href="#DejaVuSans-6d" x="277.978516"/>
      <use xlink:href="#DejaVuSans-65" x="375.390625"/>
      <use xlink:href="#DejaVuSans-6e" x="436.914062"/>
      <use xlink:href="#DejaVuSans-74" x="500.292969"/>
      <use xlink:href="#DejaVuSans-61" x="539.501953"/>
      <use xlink:href="#DejaVuSans-74" x="600.78125"/>
      <use xlink:href="#DejaVuSans-69" x="639.990234"/>
      <use xlink:href="#DejaVuSans-6f" x="667.773438"/>
      <use xlink:href="#DejaVuSans-6e" x="728.955078"/>
     </g>
    </g>
    <g id="patch_8">
     <path d="M 619.078125 100.396563 
L 639.078125 100.396563 
L 639.078125 93.396563 
L 619.078125 93.396563 
z
" style="fill: #023eff; fill-opacity: 0.25; stroke: #023eff; stroke-linejoin: miter"/>
    </g>
    <g id="text_19">
     <!-- caio.python_aio_asyncio -->
     <g style="fill: #ffffff" transform="translate(647.078125 100.396563) scale(0.1 -0.1)">
      <defs>
       <path id="DejaVuSans-68" d="M 3513 2113 
L 3513 0 
L 2938 0 
L 2938 2094 
Q 2938 2591 2744 2837 
Q 2550 3084 2163 3084 
Q 1697 3084 1428 2787 
Q 1159 2491 1159 1978 
L 1159 0 
L 581 0 
L 581 4863 
L 1159 4863 
L 1159 2956 
Q 1366 3272 1645 3428 
Q 1925 3584 2291 3584 
Q 2894 3584 3203 3211 
Q 3513 2838 3513 2113 
z
" transform="scale(0.015625)"/>
       <path id="DejaVuSans-5f" d="M 3263 -1063 
L 3263 -1509 
L -63 -1509 
L -63 -1063 
L 3263 -1063 
z
" transform="scale(0.015625)"/>
      </defs>
      <use xlink:href="#DejaVuSans-63"/>
      <use xlink:href="#DejaVuSans-61" x="54.980469"/>
      <use xlink:href="#DejaVuSans-69" x="116.259766"/>
      <use xlink:href="#DejaVuSans-6f" x="144.042969"/>
      <use xlink:href="#DejaVuSans-2e" x="203.474609"/>
      <use xlink:href="#DejaVuSans-70" x="235.261719"/>
      <use xlink:href="#DejaVuSans-79" x="298.738281"/>
      <use xlink:href="#DejaVuSans-74" x="357.917969"/>
      <use xlink:href="#DejaVuSans-68" x="397.126953"/>
      <use xlink:href="#DejaVuSans-6f" x="460.505859"/>
      <use xlink:href="#DejaVuSans-6e" x="521.6875"/>
      <use xlink:href="#DejaVuSans-5f" x="585.066406"/>
      <use xlink:href="#DejaVuSans-61" x="635.066406"/>
      <use xlink:href="#DejaVuSans-69" x="696.345703"/>
      <use xlink:href="#DejaVuSans-6f" x="724.128906"/>
      <use xlink:href="#DejaVuSans-5f" x="785.310547"/>
      <use xlink:href="#DejaVuSans-61" x="835.310547"/>
      <use xlink:href="#DejaVuSans-73" x="896.589844"/>
      <use xlink:href="#DejaVuSans-79" x="948.689453"/>
      <use xlink:href="#DejaVuSans-6e" x="1007.869141"/>
      <use xlink:href="#DejaVuSans-63" x="1071.248047"/>
      <use xlink:href="#DejaVuSans-69" x="1126.228516"/>
      <use xlink:href="#DejaVuSans-6f" x="1154.011719"/>
     </g>
    </g>
    <g id="patch_9">
     <path d="M 619.078125 115.352813 
L 639.078125 115.352813 
L 639.078125 108.352813 
L 619.078125 108.352813 
z
" style="fill: #ff7c00; fill-opacity: 0.25; stroke: #ff7c00; stroke-linejoin: miter"/>
    </g>
    <g id="text_20">
     <!-- caio.linux_aio_asyncio -->
     <g style="fill: #ffffff" transform="translate(647.078125 115.352813) scale(0.1 -0.1)">
      <use xlink:href="#DejaVuSans-63"/>
      <use xlink:href="#DejaVuSans-61" x="54.980469"/>
      <use xlink:href="#DejaVuSans-69" x="116.259766"/>
      <use xlink:href="#DejaVuSans-6f" x="144.042969"/>
      <use xlink:href="#DejaVuSans-2e" x="203.474609"/>
      <use xlink:href="#DejaVuSans-6c" x="235.261719"/>
      <use xlink:href="#DejaVuSans-69" x="263.044922"/>
      <use xlink:href="#DejaVuSans-6e" x="290.828125"/>
      <use xlink:href="#DejaVuSans-75" x="354.207031"/>
      <use xlink:href="#DejaVuSans-78" x="417.585938"/>
      <use xlink:href="#DejaVuSans-5f" x="476.765625"/>
      <use xlink:href="#DejaVuSans-61" x="526.765625"/>
      <use xlink:href="#DejaVuSans-69" x="588.044922"/>
      <use xlink:href="#DejaVuSans-6f" x="615.828125"/>
      <use xlink:href="#DejaVuSans-5f" x="677.009766"/>
      <use xlink:href="#DejaVuSans-61" x="727.009766"/>
      <use xlink:href="#DejaVuSans-73" x="788.289062"/>
      <use xlink:href="#DejaVuSans-79" x="840.388672"/>
      <use xlink:href="#DejaVuSans-6e" x="899.568359"/>
      <use xlink:href="#DejaVuSans-63" x="962.947266"/>
      <use xlink:href="#DejaVuSans-69" x="1017.927734"/>
      <use xlink:href="#DejaVuSans-6f" x="1045.710938"/>
     </g>
    </g>
    <g id="patch_10">
     <path d="M 619.078125 130.309063 
L 639.078125 130.309063 
L 639.078125 123.309063 
L 619.078125 123.309063 
z
" style="fill: #1ac938; fill-opacity: 0.25; stroke: #1ac938; stroke-linejoin: miter"/>
    </g>
    <g id="text_21">
     <!-- caio.thread_aio_asyncio -->
     <g style="fill: #ffffff" transform="translate(647.078125 130.309063) scale(0.1 -0.1)">
      <defs>
       <path id="DejaVuSans-64" d="M 2906 2969 
L 2906 4863 
L 3481 4863 
L 3481 0 
L 2906 0 
L 2906 525 
Q 2725 213 2448 61 
Q 2172 -91 1784 -91 
Q 1150 -91 751 415 
Q 353 922 353 1747 
Q 353 2572 751 3078 
Q 1150 3584 1784 3584 
Q 2172 3584 2448 3432 
Q 2725 3281 2906 2969 
z
M 947 1747 
Q 947 1113 1208 752 
Q 1469 391 1925 391 
Q 2381 391 2643 752 
Q 2906 1113 2906 1747 
Q 2906 2381 2643 2742 
Q 2381 3103 1925 3103 
Q 1469 3103 1208 2742 
Q 947 2381 947 1747 
z
" transform="scale(0.015625)"/>
      </defs>
      <use xlink:href="#DejaVuSans-63"/>
      <use xlink:href="#DejaVuSans-61" x="54.980469"/>
      <use xlink:href="#DejaVuSans-69" x="116.259766"/>
      <use xlink:href="#DejaVuSans-6f" x="144.042969"/>
      <use xlink:href="#DejaVuSans-2e" x="203.474609"/>
      <use xlink:href="#DejaVuSans-74" x="235.261719"/>
      <use xlink:href="#DejaVuSans-68" x="274.470703"/>
      <use xlink:href="#DejaVuSans-72" x="337.849609"/>
      <use xlink:href="#DejaVuSans-65" x="376.712891"/>
      <use xlink:href="#DejaVuSans-61" x="438.236328"/>
      <use xlink:href="#DejaVuSans-64" x="499.515625"/>
      <use xlink:href="#DejaVuSans-5f" x="562.992188"/>
      <use xlink:href="#DejaVuSans-61" x="612.992188"/>
      <use xlink:href="#DejaVuSans-69" x="674.271484"/>
      <use xlink:href="#DejaVuSans-6f" x="702.054688"/>
      <use xlink:href="#DejaVuSans-5f" x="763.236328"/>
      <use xlink:href="#DejaVuSans-61" x="813.236328"/>
      <use xlink:href="#DejaVuSans-73" x="874.515625"/>
      <use xlink:href="#DejaVuSans-79" x="926.615234"/>
      <use xlink:href="#DejaVuSans-6e" x="985.794922"/>
      <use xlink:href="#DejaVuSans-63" x="1049.173828"/>
      <use xlink:href="#DejaVuSans-69" x="1104.154297"/>
      <use xlink:href="#DejaVuSans-6f" x="1131.9375"/>
     </g>
    </g>
   </g>
  </g>
 </g>
 <defs>
  <clipPath id="p765eec5c8c">
   <rect x="108" y="69.12" width="669.6" height="443.52"/>
  </clipPath>
 </defs>
</svg>
