<?xml version="1.0" encoding="utf-8" standalone="no"?>
<!DOCTYPE svg PUBLIC "-//W3C//DTD SVG 1.1//EN"
  "http://www.w3.org/Graphics/SVG/1.1/DTD/svg11.dtd">
<svg xmlns:xlink="http://www.w3.org/1999/xlink" width="864pt" height="576pt" viewBox="0 0 864 576" xmlns="http://www.w3.org/2000/svg" version="1.1">
 <metadata>
  <rdf:RDF xmlns:dc="http://purl.org/dc/elements/1.1/" xmlns:cc="http://creativecommons.org/ns#" xmlns:rdf="http://www.w3.org/1999/02/22-rdf-syntax-ns#">
   <cc:Work>
    <dc:type rdf:resource="http://purl.org/dc/dcmitype/StillImage"/>
    <dc:date>2024-01-19T17:59:55.076300</dc:date>
    <dc:format>image/svg+xml</dc:format>
    <dc:creator>
     <cc:Agent>
      <dc:title>Matplotlib v3.8.2, https://matplotlib.org/</dc:title>
     </cc:Agent>
    </dc:creator>
   </cc:Work>
  </rdf:RDF>
 </metadata>
 <defs>
  <style type="text/css">*{stroke-linejoin: round; stroke-linecap: butt}</style>
 </defs>
 <g id="figure_1">
  <g id="patch_1">
   <path d="M 0 576 
L 864 576 
L 864 0 
L 0 0 
z
"/>
  </g>
  <g id="axes_1">
   <g id="patch_2">
    <path d="M 108 512.64 
L 777.6 512.64 
L 777.6 69.12 
L 108 69.12 
z
"/>
   </g>
   <g id="patch_3">
    <path d="M 219.6 517.429282 
L 219.6 517.429282 
L 219.6 517.429282 
L 219.6 517.429282 
z
" clip-path="url(#p16441d7c0b)" style="fill: #96cac1; stroke: #6a6a6a; stroke-linejoin: miter"/>
   </g>
   <g id="patch_4">
    <path d="M 219.6 517.429282 
L 219.6 517.429282 
L 219.6 517.429282 
L 219.6 517.429282 
z
" clip-path="url(#p16441d7c0b)" style="fill: #f5f6bc; stroke: #6a6a6a; stroke-linejoin: miter"/>
   </g>
   <g id="matplotlib.axis_1">
    <g id="xtick_1">
     <g id="line2d_1">
      <path d="M 219.6 512.64 
L 219.6 69.12 
" clip-path="url(#p16441d7c0b)" style="fill: none; stroke: #ffffff; stroke-width: 0.8; stroke-linecap: square"/>
     </g>
     <g id="line2d_2">
      <defs>
       <path id="m2bc2ac2ce2" d="M 0 0 
L 0 3.5 
" style="stroke: #ffffff; stroke-width: 0.8"/>
      </defs>
      <g>
       <use xlink:href="#m2bc2ac2ce2" x="219.6" y="512.64" style="fill: #ffffff; stroke: #ffffff; stroke-width: 0.8"/>
      </g>
     </g>
     <g id="text_1">
      <!-- caio.python_aio_asyncio -->
      <g style="fill: #ffffff" transform="translate(158.839062 527.238438) scale(0.1 -0.1)">
       <defs>
        <path id="DejaVuSans-63" d="M 3122 3366 
L 3122 2828 
Q 2878 2963 2633 3030 
Q 2388 3097 2138 3097 
Q 1578 3097 1268 2742 
Q 959 2388 959 1747 
Q 959 1106 1268 751 
Q 1578 397 2138 397 
Q 2388 397 2633 464 
Q 2878 531 3122 666 
L 3122 134 
Q 2881 22 2623 -34 
Q 2366 -91 2075 -91 
Q 1284 -91 818 406 
Q 353 903 353 1747 
Q 353 2603 823 3093 
Q 1294 3584 2113 3584 
Q 2378 3584 2631 3529 
Q 2884 3475 3122 3366 
z
" transform="scale(0.015625)"/>
        <path id="DejaVuSans-61" d="M 2194 1759 
Q 1497 1759 1228 1600 
Q 959 1441 959 1056 
Q 959 750 1161 570 
Q 1363 391 1709 391 
Q 2188 391 2477 730 
Q 2766 1069 2766 1631 
L 2766 1759 
L 2194 1759 
z
M 3341 1997 
L 3341 0 
L 2766 0 
L 2766 531 
Q 2569 213 2275 61 
Q 1981 -91 1556 -91 
Q 1019 -91 701 211 
Q 384 513 384 1019 
Q 384 1609 779 1909 
Q 1175 2209 1959 2209 
L 2766 2209 
L 2766 2266 
Q 2766 2663 2505 2880 
Q 2244 3097 1772 3097 
Q 1472 3097 1187 3025 
Q 903 2953 641 2809 
L 641 3341 
Q 956 3463 1253 3523 
Q 1550 3584 1831 3584 
Q 2591 3584 2966 3190 
Q 3341 2797 3341 1997 
z
" transform="scale(0.015625)"/>
        <path id="DejaVuSans-69" d="M 603 3500 
L 1178 3500 
L 1178 0 
L 603 0 
L 603 3500 
z
M 603 4863 
L 1178 4863 
L 1178 4134 
L 603 4134 
L 603 4863 
z
" transform="scale(0.015625)"/>
        <path id="DejaVuSans-6f" d="M 1959 3097 
Q 1497 3097 1228 2736 
Q 959 2375 959 1747 
Q 959 1119 1226 758 
Q 1494 397 1959 397 
Q 2419 397 2687 759 
Q 2956 1122 2956 1747 
Q 2956 2369 2687 2733 
Q 2419 3097 1959 3097 
z
M 1959 3584 
Q 2709 3584 3137 3096 
Q 3566 2609 3566 1747 
Q 3566 888 3137 398 
Q 2709 -91 1959 -91 
Q 1206 -91 779 398 
Q 353 888 353 1747 
Q 353 2609 779 3096 
Q 1206 3584 1959 3584 
z
" transform="scale(0.015625)"/>
        <path id="DejaVuSans-2e" d="M 684 794 
L 1344 794 
L 1344 0 
L 684 0 
L 684 794 
z
" transform="scale(0.015625)"/>
        <path id="DejaVuSans-70" d="M 1159 525 
L 1159 -1331 
L 581 -1331 
L 581 3500 
L 1159 3500 
L 1159 2969 
Q 1341 3281 1617 3432 
Q 1894 3584 2278 3584 
Q 2916 3584 3314 3078 
Q 3713 2572 3713 1747 
Q 3713 922 3314 415 
Q 2916 -91 2278 -91 
Q 1894 -91 1617 61 
Q 1341 213 1159 525 
z
M 3116 1747 
Q 3116 2381 2855 2742 
Q 2594 3103 2138 3103 
Q 1681 3103 1420 2742 
Q 1159 2381 1159 1747 
Q 1159 1113 1420 752 
Q 1681 391 2138 391 
Q 2594 391 2855 752 
Q 3116 1113 3116 1747 
z
" transform="scale(0.015625)"/>
        <path id="DejaVuSans-79" d="M 2059 -325 
Q 1816 -950 1584 -1140 
Q 1353 -1331 966 -1331 
L 506 -1331 
L 506 -850 
L 844 -850 
Q 1081 -850 1212 -737 
Q 1344 -625 1503 -206 
L 1606 56 
L 191 3500 
L 800 3500 
L 1894 763 
L 2988 3500 
L 3597 3500 
L 2059 -325 
z
" transform="scale(0.015625)"/>
        <path id="DejaVuSans-74" d="M 1172 4494 
L 1172 3500 
L 2356 3500 
L 2356 3053 
L 1172 3053 
L 1172 1153 
Q 1172 725 1289 603 
Q 1406 481 1766 481 
L 2356 481 
L 2356 0 
L 1766 0 
Q 1100 0 847 248 
Q 594 497 594 1153 
L 594 3053 
L 172 3053 
L 172 3500 
L 594 3500 
L 594 4494 
L 1172 4494 
z
" transform="scale(0.015625)"/>
        <path id="DejaVuSans-68" d="M 3513 2113 
L 3513 0 
L 2938 0 
L 2938 2094 
Q 2938 2591 2744 2837 
Q 2550 3084 2163 3084 
Q 1697 3084 1428 2787 
Q 1159 2491 1159 1978 
L 1159 0 
L 581 0 
L 581 4863 
L 1159 4863 
L 1159 2956 
Q 1366 3272 1645 3428 
Q 1925 3584 2291 3584 
Q 2894 3584 3203 3211 
Q 3513 2838 3513 2113 
z
" transform="scale(0.015625)"/>
        <path id="DejaVuSans-6e" d="M 3513 2113 
L 3513 0 
L 2938 0 
L 2938 2094 
Q 2938 2591 2744 2837 
Q 2550 3084 2163 3084 
Q 1697 3084 1428 2787 
Q 1159 2491 1159 1978 
L 1159 0 
L 581 0 
L 581 3500 
L 1159 3500 
L 1159 2956 
Q 1366 3272 1645 3428 
Q 1925 3584 2291 3584 
Q 2894 3584 3203 3211 
Q 3513 2838 3513 2113 
z
" transform="scale(0.015625)"/>
        <path id="DejaVuSans-5f" d="M 3263 -1063 
L 3263 -1509 
L -63 -1509 
L -63 -1063 
L 3263 -1063 
z
" transform="scale(0.015625)"/>
        <path id="DejaVuSans-73" d="M 2834 3397 
L 2834 2853 
Q 2591 2978 2328 3040 
Q 2066 3103 1784 3103 
Q 1356 3103 1142 2972 
Q 928 2841 928 2578 
Q 928 2378 1081 2264 
Q 1234 2150 1697 2047 
L 1894 2003 
Q 2506 1872 2764 1633 
Q 3022 1394 3022 966 
Q 3022 478 2636 193 
Q 2250 -91 1575 -91 
Q 1294 -91 989 -36 
Q 684 19 347 128 
L 347 722 
Q 666 556 975 473 
Q 1284 391 1588 391 
Q 1994 391 2212 530 
Q 2431 669 2431 922 
Q 2431 1156 2273 1281 
Q 2116 1406 1581 1522 
L 1381 1569 
Q 847 1681 609 1914 
Q 372 2147 372 2553 
Q 372 3047 722 3315 
Q 1072 3584 1716 3584 
Q 2034 3584 2315 3537 
Q 2597 3491 2834 3397 
z
" transform="scale(0.015625)"/>
       </defs>
       <use xlink:href="#DejaVuSans-63"/>
       <use xlink:href="#DejaVuSans-61" x="54.980469"/>
       <use xlink:href="#DejaVuSans-69" x="116.259766"/>
       <use xlink:href="#DejaVuSans-6f" x="144.042969"/>
       <use xlink:href="#DejaVuSans-2e" x="203.474609"/>
       <use xlink:href="#DejaVuSans-70" x="235.261719"/>
       <use xlink:href="#DejaVuSans-79" x="298.738281"/>
       <use xlink:href="#DejaVuSans-74" x="357.917969"/>
       <use xlink:href="#DejaVuSans-68" x="397.126953"/>
       <use xlink:href="#DejaVuSans-6f" x="460.505859"/>
       <use xlink:href="#DejaVuSans-6e" x="521.6875"/>
       <use xlink:href="#DejaVuSans-5f" x="585.066406"/>
       <use xlink:href="#DejaVuSans-61" x="635.066406"/>
       <use xlink:href="#DejaVuSans-69" x="696.345703"/>
       <use xlink:href="#DejaVuSans-6f" x="724.128906"/>
       <use xlink:href="#DejaVuSans-5f" x="785.310547"/>
       <use xlink:href="#DejaVuSans-61" x="835.310547"/>
       <use xlink:href="#DejaVuSans-73" x="896.589844"/>
       <use xlink:href="#DejaVuSans-79" x="948.689453"/>
       <use xlink:href="#DejaVuSans-6e" x="1007.869141"/>
       <use xlink:href="#DejaVuSans-63" x="1071.248047"/>
       <use xlink:href="#DejaVuSans-69" x="1126.228516"/>
       <use xlink:href="#DejaVuSans-6f" x="1154.011719"/>
      </g>
     </g>
    </g>
    <g id="xtick_2">
     <g id="line2d_3">
      <path d="M 442.8 512.64 
L 442.8 69.12 
" clip-path="url(#p16441d7c0b)" style="fill: none; stroke: #ffffff; stroke-width: 0.8; stroke-linecap: square"/>
     </g>
     <g id="line2d_4">
      <g>
       <use xlink:href="#m2bc2ac2ce2" x="442.8" y="512.64" style="fill: #ffffff; stroke: #ffffff; stroke-width: 0.8"/>
      </g>
     </g>
     <g id="text_2">
      <!-- caio.linux_aio_asyncio -->
      <g style="fill: #ffffff" transform="translate(387.454687 527.238438) scale(0.1 -0.1)">
       <defs>
        <path id="DejaVuSans-6c" d="M 603 4863 
L 1178 4863 
L 1178 0 
L 603 0 
L 603 4863 
z
" transform="scale(0.015625)"/>
        <path id="DejaVuSans-75" d="M 544 1381 
L 544 3500 
L 1119 3500 
L 1119 1403 
Q 1119 906 1312 657 
Q 1506 409 1894 409 
Q 2359 409 2629 706 
Q 2900 1003 2900 1516 
L 2900 3500 
L 3475 3500 
L 3475 0 
L 2900 0 
L 2900 538 
Q 2691 219 2414 64 
Q 2138 -91 1772 -91 
Q 1169 -91 856 284 
Q 544 659 544 1381 
z
M 1991 3584 
L 1991 3584 
z
" transform="scale(0.015625)"/>
        <path id="DejaVuSans-78" d="M 3513 3500 
L 2247 1797 
L 3578 0 
L 2900 0 
L 1881 1375 
L 863 0 
L 184 0 
L 1544 1831 
L 300 3500 
L 978 3500 
L 1906 2253 
L 2834 3500 
L 3513 3500 
z
" transform="scale(0.015625)"/>
       </defs>
       <use xlink:href="#DejaVuSans-63"/>
       <use xlink:href="#DejaVuSans-61" x="54.980469"/>
       <use xlink:href="#DejaVuSans-69" x="116.259766"/>
       <use xlink:href="#DejaVuSans-6f" x="144.042969"/>
       <use xlink:href="#DejaVuSans-2e" x="203.474609"/>
       <use xlink:href="#DejaVuSans-6c" x="235.261719"/>
       <use xlink:href="#DejaVuSans-69" x="263.044922"/>
       <use xlink:href="#DejaVuSans-6e" x="290.828125"/>
       <use xlink:href="#DejaVuSans-75" x="354.207031"/>
       <use xlink:href="#DejaVuSans-78" x="417.585938"/>
       <use xlink:href="#DejaVuSans-5f" x="476.765625"/>
       <use xlink:href="#DejaVuSans-61" x="526.765625"/>
       <use xlink:href="#DejaVuSans-69" x="588.044922"/>
       <use xlink:href="#DejaVuSans-6f" x="615.828125"/>
       <use xlink:href="#DejaVuSans-5f" x="677.009766"/>
       <use xlink:href="#DejaVuSans-61" x="727.009766"/>
       <use xlink:href="#DejaVuSans-73" x="788.289062"/>
       <use xlink:href="#DejaVuSans-79" x="840.388672"/>
       <use xlink:href="#DejaVuSans-6e" x="899.568359"/>
       <use xlink:href="#DejaVuSans-63" x="962.947266"/>
       <use xlink:href="#DejaVuSans-69" x="1017.927734"/>
       <use xlink:href="#DejaVuSans-6f" x="1045.710938"/>
      </g>
     </g>
    </g>
    <g id="xtick_3">
     <g id="line2d_5">
      <path d="M 666 512.64 
L 666 69.12 
" clip-path="url(#p16441d7c0b)" style="fill: none; stroke: #ffffff; stroke-width: 0.8; stroke-linecap: square"/>
     </g>
     <g id="line2d_6">
      <g>
       <use xlink:href="#m2bc2ac2ce2" x="666" y="512.64" style="fill: #ffffff; stroke: #ffffff; stroke-width: 0.8"/>
      </g>
     </g>
     <g id="text_3">
      <!-- caio.thread_aio_asyncio -->
      <g style="fill: #ffffff" transform="translate(606.342969 527.238438) scale(0.1 -0.1)">
       <defs>
        <path id="DejaVuSans-72" d="M 2631 2963 
Q 2534 3019 2420 3045 
Q 2306 3072 2169 3072 
Q 1681 3072 1420 2755 
Q 1159 2438 1159 1844 
L 1159 0 
L 581 0 
L 581 3500 
L 1159 3500 
L 1159 2956 
Q 1341 3275 1631 3429 
Q 1922 3584 2338 3584 
Q 2397 3584 2469 3576 
Q 2541 3569 2628 3553 
L 2631 2963 
z
" transform="scale(0.015625)"/>
        <path id="DejaVuSans-65" d="M 3597 1894 
L 3597 1613 
L 953 1613 
Q 991 1019 1311 708 
Q 1631 397 2203 397 
Q 2534 397 2845 478 
Q 3156 559 3463 722 
L 3463 178 
Q 3153 47 2828 -22 
Q 2503 -91 2169 -91 
Q 1331 -91 842 396 
Q 353 884 353 1716 
Q 353 2575 817 3079 
Q 1281 3584 2069 3584 
Q 2775 3584 3186 3129 
Q 3597 2675 3597 1894 
z
M 3022 2063 
Q 3016 2534 2758 2815 
Q 2500 3097 2075 3097 
Q 1594 3097 1305 2825 
Q 1016 2553 972 2059 
L 3022 2063 
z
" transform="scale(0.015625)"/>
        <path id="DejaVuSans-64" d="M 2906 2969 
L 2906 4863 
L 3481 4863 
L 3481 0 
L 2906 0 
L 2906 525 
Q 2725 213 2448 61 
Q 2172 -91 1784 -91 
Q 1150 -91 751 415 
Q 353 922 353 1747 
Q 353 2572 751 3078 
Q 1150 3584 1784 3584 
Q 2172 3584 2448 3432 
Q 2725 3281 2906 2969 
z
M 947 1747 
Q 947 1113 1208 752 
Q 1469 391 1925 391 
Q 2381 391 2643 752 
Q 2906 1113 2906 1747 
Q 2906 2381 2643 2742 
Q 2381 3103 1925 3103 
Q 1469 3103 1208 2742 
Q 947 2381 947 1747 
z
" transform="scale(0.015625)"/>
       </defs>
       <use xlink:href="#DejaVuSans-63"/>
       <use xlink:href="#DejaVuSans-61" x="54.980469"/>
       <use xlink:href="#DejaVuSans-69" x="116.259766"/>
       <use xlink:href="#DejaVuSans-6f" x="144.042969"/>
       <use xlink:href="#DejaVuSans-2e" x="203.474609"/>
       <use xlink:href="#DejaVuSans-74" x="235.261719"/>
       <use xlink:href="#DejaVuSans-68" x="274.470703"/>
       <use xlink:href="#DejaVuSans-72" x="337.849609"/>
       <use xlink:href="#DejaVuSans-65" x="376.712891"/>
       <use xlink:href="#DejaVuSans-61" x="438.236328"/>
       <use xlink:href="#DejaVuSans-64" x="499.515625"/>
       <use xlink:href="#DejaVuSans-5f" x="562.992188"/>
       <use xlink:href="#DejaVuSans-61" x="612.992188"/>
       <use xlink:href="#DejaVuSans-69" x="674.271484"/>
       <use xlink:href="#DejaVuSans-6f" x="702.054688"/>
       <use xlink:href="#DejaVuSans-5f" x="763.236328"/>
       <use xlink:href="#DejaVuSans-61" x="813.236328"/>
       <use xlink:href="#DejaVuSans-73" x="874.515625"/>
       <use xlink:href="#DejaVuSans-79" x="926.615234"/>
       <use xlink:href="#DejaVuSans-6e" x="985.794922"/>
       <use xlink:href="#DejaVuSans-63" x="1049.173828"/>
       <use xlink:href="#DejaVuSans-69" x="1104.154297"/>
       <use xlink:href="#DejaVuSans-6f" x="1131.9375"/>
      </g>
     </g>
    </g>
    <g id="text_4">
     <!-- implementation -->
     <g style="fill: #ffffff" transform="translate(403.183594 541.194687) scale(0.1 -0.1)">
      <defs>
       <path id="DejaVuSans-6d" d="M 3328 2828 
Q 3544 3216 3844 3400 
Q 4144 3584 4550 3584 
Q 5097 3584 5394 3201 
Q 5691 2819 5691 2113 
L 5691 0 
L 5113 0 
L 5113 2094 
Q 5113 2597 4934 2840 
Q 4756 3084 4391 3084 
Q 3944 3084 3684 2787 
Q 3425 2491 3425 1978 
L 3425 0 
L 2847 0 
L 2847 2094 
Q 2847 2600 2669 2842 
Q 2491 3084 2119 3084 
Q 1678 3084 1418 2786 
Q 1159 2488 1159 1978 
L 1159 0 
L 581 0 
L 581 3500 
L 1159 3500 
L 1159 2956 
Q 1356 3278 1631 3431 
Q 1906 3584 2284 3584 
Q 2666 3584 2933 3390 
Q 3200 3197 3328 2828 
z
" transform="scale(0.015625)"/>
      </defs>
      <use xlink:href="#DejaVuSans-69"/>
      <use xlink:href="#DejaVuSans-6d" x="27.783203"/>
      <use xlink:href="#DejaVuSans-70" x="125.195312"/>
      <use xlink:href="#DejaVuSans-6c" x="188.671875"/>
      <use xlink:href="#DejaVuSans-65" x="216.455078"/>
      <use xlink:href="#DejaVuSans-6d" x="277.978516"/>
      <use xlink:href="#DejaVuSans-65" x="375.390625"/>
      <use xlink:href="#DejaVuSans-6e" x="436.914062"/>
      <use xlink:href="#DejaVuSans-74" x="500.292969"/>
      <use xlink:href="#DejaVuSans-61" x="539.501953"/>
      <use xlink:href="#DejaVuSans-74" x="600.78125"/>
      <use xlink:href="#DejaVuSans-69" x="639.990234"/>
      <use xlink:href="#DejaVuSans-6f" x="667.773438"/>
      <use xlink:href="#DejaVuSans-6e" x="728.955078"/>
     </g>
    </g>
   </g>
   <g id="matplotlib.axis_2">
    <g id="ytick_1">
     <g id="line2d_7">
      <path d="M 108 440.913531 
L 777.6 440.913531 
" clip-path="url(#p16441d7c0b)" style="fill: none; stroke: #ffffff; stroke-width: 0.8; stroke-linecap: square"/>
     </g>
     <g id="line2d_8">
      <defs>
       <path id="m5005bc1061" d="M 0 0 
L -3.5 0 
" style="stroke: #ffffff; stroke-width: 0.8"/>
      </defs>
      <g>
       <use xlink:href="#m5005bc1061" x="108" y="440.913531" style="fill: #ffffff; stroke: #ffffff; stroke-width: 0.8"/>
      </g>
     </g>
     <g id="text_5">
      <!-- 100 -->
      <g style="fill: #ffffff" transform="translate(81.9125 444.71275) scale(0.1 -0.1)">
       <defs>
        <path id="DejaVuSans-31" d="M 794 531 
L 1825 531 
L 1825 4091 
L 703 3866 
L 703 4441 
L 1819 4666 
L 2450 4666 
L 2450 531 
L 3481 531 
L 3481 0 
L 794 0 
L 794 531 
z
" transform="scale(0.015625)"/>
        <path id="DejaVuSans-30" d="M 2034 4250 
Q 1547 4250 1301 3770 
Q 1056 3291 1056 2328 
Q 1056 1369 1301 889 
Q 1547 409 2034 409 
Q 2525 409 2770 889 
Q 3016 1369 3016 2328 
Q 3016 3291 2770 3770 
Q 2525 4250 2034 4250 
z
M 2034 4750 
Q 2819 4750 3233 4129 
Q 3647 3509 3647 2328 
Q 3647 1150 3233 529 
Q 2819 -91 2034 -91 
Q 1250 -91 836 529 
Q 422 1150 422 2328 
Q 422 3509 836 4129 
Q 1250 4750 2034 4750 
z
" transform="scale(0.015625)"/>
       </defs>
       <use xlink:href="#DejaVuSans-31"/>
       <use xlink:href="#DejaVuSans-30" x="63.623047"/>
       <use xlink:href="#DejaVuSans-30" x="127.246094"/>
      </g>
     </g>
    </g>
    <g id="ytick_2">
     <g id="line2d_9">
      <path d="M 108 364.39778 
L 777.6 364.39778 
" clip-path="url(#p16441d7c0b)" style="fill: none; stroke: #ffffff; stroke-width: 0.8; stroke-linecap: square"/>
     </g>
     <g id="line2d_10">
      <g>
       <use xlink:href="#m5005bc1061" x="108" y="364.39778" style="fill: #ffffff; stroke: #ffffff; stroke-width: 0.8"/>
      </g>
     </g>
     <g id="text_6">
      <!-- 200 -->
      <g style="fill: #ffffff" transform="translate(81.9125 368.196999) scale(0.1 -0.1)">
       <defs>
        <path id="DejaVuSans-32" d="M 1228 531 
L 3431 531 
L 3431 0 
L 469 0 
L 469 531 
Q 828 903 1448 1529 
Q 2069 2156 2228 2338 
Q 2531 2678 2651 2914 
Q 2772 3150 2772 3378 
Q 2772 3750 2511 3984 
Q 2250 4219 1831 4219 
Q 1534 4219 1204 4116 
Q 875 4013 500 3803 
L 500 4441 
Q 881 4594 1212 4672 
Q 1544 4750 1819 4750 
Q 2544 4750 2975 4387 
Q 3406 4025 3406 3419 
Q 3406 3131 3298 2873 
Q 3191 2616 2906 2266 
Q 2828 2175 2409 1742 
Q 1991 1309 1228 531 
z
" transform="scale(0.015625)"/>
       </defs>
       <use xlink:href="#DejaVuSans-32"/>
       <use xlink:href="#DejaVuSans-30" x="63.623047"/>
       <use xlink:href="#DejaVuSans-30" x="127.246094"/>
      </g>
     </g>
    </g>
    <g id="ytick_3">
     <g id="line2d_11">
      <path d="M 108 287.882029 
L 777.6 287.882029 
" clip-path="url(#p16441d7c0b)" style="fill: none; stroke: #ffffff; stroke-width: 0.8; stroke-linecap: square"/>
     </g>
     <g id="line2d_12">
      <g>
       <use xlink:href="#m5005bc1061" x="108" y="287.882029" style="fill: #ffffff; stroke: #ffffff; stroke-width: 0.8"/>
      </g>
     </g>
     <g id="text_7">
      <!-- 300 -->
      <g style="fill: #ffffff" transform="translate(81.9125 291.681248) scale(0.1 -0.1)">
       <defs>
        <path id="DejaVuSans-33" d="M 2597 2516 
Q 3050 2419 3304 2112 
Q 3559 1806 3559 1356 
Q 3559 666 3084 287 
Q 2609 -91 1734 -91 
Q 1441 -91 1130 -33 
Q 819 25 488 141 
L 488 750 
Q 750 597 1062 519 
Q 1375 441 1716 441 
Q 2309 441 2620 675 
Q 2931 909 2931 1356 
Q 2931 1769 2642 2001 
Q 2353 2234 1838 2234 
L 1294 2234 
L 1294 2753 
L 1863 2753 
Q 2328 2753 2575 2939 
Q 2822 3125 2822 3475 
Q 2822 3834 2567 4026 
Q 2313 4219 1838 4219 
Q 1578 4219 1281 4162 
Q 984 4106 628 3988 
L 628 4550 
Q 988 4650 1302 4700 
Q 1616 4750 1894 4750 
Q 2613 4750 3031 4423 
Q 3450 4097 3450 3541 
Q 3450 3153 3228 2886 
Q 3006 2619 2597 2516 
z
" transform="scale(0.015625)"/>
       </defs>
       <use xlink:href="#DejaVuSans-33"/>
       <use xlink:href="#DejaVuSans-30" x="63.623047"/>
       <use xlink:href="#DejaVuSans-30" x="127.246094"/>
      </g>
     </g>
    </g>
    <g id="ytick_4">
     <g id="line2d_13">
      <path d="M 108 211.366278 
L 777.6 211.366278 
" clip-path="url(#p16441d7c0b)" style="fill: none; stroke: #ffffff; stroke-width: 0.8; stroke-linecap: square"/>
     </g>
     <g id="line2d_14">
      <g>
       <use xlink:href="#m5005bc1061" x="108" y="211.366278" style="fill: #ffffff; stroke: #ffffff; stroke-width: 0.8"/>
      </g>
     </g>
     <g id="text_8">
      <!-- 400 -->
      <g style="fill: #ffffff" transform="translate(81.9125 215.165497) scale(0.1 -0.1)">
       <defs>
        <path id="DejaVuSans-34" d="M 2419 4116 
L 825 1625 
L 2419 1625 
L 2419 4116 
z
M 2253 4666 
L 3047 4666 
L 3047 1625 
L 3713 1625 
L 3713 1100 
L 3047 1100 
L 3047 0 
L 2419 0 
L 2419 1100 
L 313 1100 
L 313 1709 
L 2253 4666 
z
" transform="scale(0.015625)"/>
       </defs>
       <use xlink:href="#DejaVuSans-34"/>
       <use xlink:href="#DejaVuSans-30" x="63.623047"/>
       <use xlink:href="#DejaVuSans-30" x="127.246094"/>
      </g>
     </g>
    </g>
    <g id="ytick_5">
     <g id="line2d_15">
      <path d="M 108 134.850527 
L 777.6 134.850527 
" clip-path="url(#p16441d7c0b)" style="fill: none; stroke: #ffffff; stroke-width: 0.8; stroke-linecap: square"/>
     </g>
     <g id="line2d_16">
      <g>
       <use xlink:href="#m5005bc1061" x="108" y="134.850527" style="fill: #ffffff; stroke: #ffffff; stroke-width: 0.8"/>
      </g>
     </g>
     <g id="text_9">
      <!-- 500 -->
      <g style="fill: #ffffff" transform="translate(81.9125 138.649746) scale(0.1 -0.1)">
       <defs>
        <path id="DejaVuSans-35" d="M 691 4666 
L 3169 4666 
L 3169 4134 
L 1269 4134 
L 1269 2991 
Q 1406 3038 1543 3061 
Q 1681 3084 1819 3084 
Q 2600 3084 3056 2656 
Q 3513 2228 3513 1497 
Q 3513 744 3044 326 
Q 2575 -91 1722 -91 
Q 1428 -91 1123 -41 
Q 819 9 494 109 
L 494 744 
Q 775 591 1075 516 
Q 1375 441 1709 441 
Q 2250 441 2565 725 
Q 2881 1009 2881 1497 
Q 2881 1984 2565 2268 
Q 2250 2553 1709 2553 
Q 1456 2553 1204 2497 
Q 953 2441 691 2322 
L 691 4666 
z
" transform="scale(0.015625)"/>
       </defs>
       <use xlink:href="#DejaVuSans-35"/>
       <use xlink:href="#DejaVuSans-30" x="63.623047"/>
       <use xlink:href="#DejaVuSans-30" x="127.246094"/>
      </g>
     </g>
    </g>
    <g id="text_10">
     <!-- Time (ms) -->
     <g style="fill: #ffffff" transform="translate(75.832812 316.079219) rotate(-90) scale(0.1 -0.1)">
      <defs>
       <path id="DejaVuSans-54" d="M -19 4666 
L 3928 4666 
L 3928 4134 
L 2272 4134 
L 2272 0 
L 1638 0 
L 1638 4134 
L -19 4134 
L -19 4666 
z
" transform="scale(0.015625)"/>
       <path id="DejaVuSans-20" transform="scale(0.015625)"/>
       <path id="DejaVuSans-28" d="M 1984 4856 
Q 1566 4138 1362 3434 
Q 1159 2731 1159 2009 
Q 1159 1288 1364 580 
Q 1569 -128 1984 -844 
L 1484 -844 
Q 1016 -109 783 600 
Q 550 1309 550 2009 
Q 550 2706 781 3412 
Q 1013 4119 1484 4856 
L 1984 4856 
z
" transform="scale(0.015625)"/>
       <path id="DejaVuSans-29" d="M 513 4856 
L 1013 4856 
Q 1481 4119 1714 3412 
Q 1947 2706 1947 2009 
Q 1947 1309 1714 600 
Q 1481 -109 1013 -844 
L 513 -844 
Q 928 -128 1133 580 
Q 1338 1288 1338 2009 
Q 1338 2731 1133 3434 
Q 928 4138 513 4856 
z
" transform="scale(0.015625)"/>
      </defs>
      <use xlink:href="#DejaVuSans-54"/>
      <use xlink:href="#DejaVuSans-69" x="57.958984"/>
      <use xlink:href="#DejaVuSans-6d" x="85.742188"/>
      <use xlink:href="#DejaVuSans-65" x="183.154297"/>
      <use xlink:href="#DejaVuSans-20" x="244.677734"/>
      <use xlink:href="#DejaVuSans-28" x="276.464844"/>
      <use xlink:href="#DejaVuSans-6d" x="315.478516"/>
      <use xlink:href="#DejaVuSans-73" x="412.890625"/>
      <use xlink:href="#DejaVuSans-29" x="464.990234"/>
     </g>
    </g>
   </g>
   <g id="patch_5">
    <path d="M 130.32 463.618554 
L 219.6 463.618554 
L 219.6 419.802282 
L 130.32 419.802282 
L 130.32 463.618554 
z
" clip-path="url(#p16441d7c0b)" style="fill: #96cac1; stroke: #6a6a6a; stroke-linejoin: miter"/>
   </g>
   <g id="line2d_17">
    <path d="M 174.96 463.618554 
L 174.96 488.203151 
" clip-path="url(#p16441d7c0b)" style="fill: none; stroke: #6a6a6a"/>
   </g>
   <g id="line2d_18">
    <path d="M 174.96 419.802282 
L 174.96 381.977745 
" clip-path="url(#p16441d7c0b)" style="fill: none; stroke: #6a6a6a"/>
   </g>
   <g id="line2d_19">
    <path d="M 152.64 488.203151 
L 197.28 488.203151 
" clip-path="url(#p16441d7c0b)" style="fill: none; stroke: #6a6a6a; stroke-linecap: square"/>
   </g>
   <g id="line2d_20">
    <path d="M 152.64 381.977745 
L 197.28 381.977745 
" clip-path="url(#p16441d7c0b)" style="fill: none; stroke: #6a6a6a; stroke-linecap: square"/>
   </g>
   <g id="line2d_21">
    <defs>
     <path id="m291c0f9ae9" d="M 0 3 
C 0.795609 3 1.55874 2.683901 2.12132 2.12132 
C 2.683901 1.55874 3 0.795609 3 0 
C 3 -0.795609 2.683901 -1.55874 2.12132 -2.12132 
C 1.55874 -2.683901 0.795609 -3 0 -3 
C -0.795609 -3 -1.55874 -2.683901 -2.12132 -2.12132 
C -2.683901 -1.55874 -3 -0.795609 -3 0 
C -3 0.795609 -2.683901 1.55874 -2.12132 2.12132 
C -1.55874 2.683901 -0.795609 3 0 3 
z
" style="stroke: #6a6a6a"/>
    </defs>
    <g clip-path="url(#p16441d7c0b)">
     <use xlink:href="#m291c0f9ae9" x="174.96" y="110.633932" style="fill-opacity: 0; stroke: #6a6a6a"/>
     <use xlink:href="#m291c0f9ae9" x="174.96" y="102.343828" style="fill-opacity: 0; stroke: #6a6a6a"/>
     <use xlink:href="#m291c0f9ae9" x="174.96" y="108.609451" style="fill-opacity: 0; stroke: #6a6a6a"/>
     <use xlink:href="#m291c0f9ae9" x="174.96" y="111.415126" style="fill-opacity: 0; stroke: #6a6a6a"/>
     <use xlink:href="#m291c0f9ae9" x="174.96" y="107.746704" style="fill-opacity: 0; stroke: #6a6a6a"/>
     <use xlink:href="#m291c0f9ae9" x="174.96" y="109.221354" style="fill-opacity: 0; stroke: #6a6a6a"/>
     <use xlink:href="#m291c0f9ae9" x="174.96" y="104.192194" style="fill-opacity: 0; stroke: #6a6a6a"/>
     <use xlink:href="#m291c0f9ae9" x="174.96" y="111.435084" style="fill-opacity: 0; stroke: #6a6a6a"/>
     <use xlink:href="#m291c0f9ae9" x="174.96" y="111.695174" style="fill-opacity: 0; stroke: #6a6a6a"/>
     <use xlink:href="#m291c0f9ae9" x="174.96" y="111.295411" style="fill-opacity: 0; stroke: #6a6a6a"/>
     <use xlink:href="#m291c0f9ae9" x="174.96" y="105.582327" style="fill-opacity: 0; stroke: #6a6a6a"/>
     <use xlink:href="#m291c0f9ae9" x="174.96" y="113.9939" style="fill-opacity: 0; stroke: #6a6a6a"/>
     <use xlink:href="#m291c0f9ae9" x="174.96" y="112.764642" style="fill-opacity: 0; stroke: #6a6a6a"/>
     <use xlink:href="#m291c0f9ae9" x="174.96" y="111.342148" style="fill-opacity: 0; stroke: #6a6a6a"/>
     <use xlink:href="#m291c0f9ae9" x="174.96" y="110.064016" style="fill-opacity: 0; stroke: #6a6a6a"/>
     <use xlink:href="#m291c0f9ae9" x="174.96" y="112.511087" style="fill-opacity: 0; stroke: #6a6a6a"/>
     <use xlink:href="#m291c0f9ae9" x="174.96" y="111.120763" style="fill-opacity: 0; stroke: #6a6a6a"/>
     <use xlink:href="#m291c0f9ae9" x="174.96" y="114.542932" style="fill-opacity: 0; stroke: #6a6a6a"/>
     <use xlink:href="#m291c0f9ae9" x="174.96" y="113.227148" style="fill-opacity: 0; stroke: #6a6a6a"/>
     <use xlink:href="#m291c0f9ae9" x="174.96" y="113.827796" style="fill-opacity: 0; stroke: #6a6a6a"/>
     <use xlink:href="#m291c0f9ae9" x="174.96" y="106.188332" style="fill-opacity: 0; stroke: #6a6a6a"/>
     <use xlink:href="#m291c0f9ae9" x="174.96" y="112.965846" style="fill-opacity: 0; stroke: #6a6a6a"/>
     <use xlink:href="#m291c0f9ae9" x="174.96" y="108.415069" style="fill-opacity: 0; stroke: #6a6a6a"/>
     <use xlink:href="#m291c0f9ae9" x="174.96" y="108.78209" style="fill-opacity: 0; stroke: #6a6a6a"/>
     <use xlink:href="#m291c0f9ae9" x="174.96" y="113.542392" style="fill-opacity: 0; stroke: #6a6a6a"/>
     <use xlink:href="#m291c0f9ae9" x="174.96" y="89.28" style="fill-opacity: 0; stroke: #6a6a6a"/>
     <use xlink:href="#m291c0f9ae9" x="174.96" y="103.569069" style="fill-opacity: 0; stroke: #6a6a6a"/>
     <use xlink:href="#m291c0f9ae9" x="174.96" y="111.324231" style="fill-opacity: 0; stroke: #6a6a6a"/>
     <use xlink:href="#m291c0f9ae9" x="174.96" y="105.694932" style="fill-opacity: 0; stroke: #6a6a6a"/>
     <use xlink:href="#m291c0f9ae9" x="174.96" y="108.941594" style="fill-opacity: 0; stroke: #6a6a6a"/>
    </g>
   </g>
   <g id="patch_6">
    <path d="M 353.52 485.195035 
L 442.8 485.195035 
L 442.8 466.981065 
L 353.52 466.981065 
L 353.52 485.195035 
z
" clip-path="url(#p16441d7c0b)" style="fill: #96cac1; stroke: #6a6a6a; stroke-linejoin: miter"/>
   </g>
   <g id="line2d_22">
    <path d="M 398.16 485.195035 
L 398.16 492.199283 
" clip-path="url(#p16441d7c0b)" style="fill: none; stroke: #6a6a6a"/>
   </g>
   <g id="line2d_23">
    <path d="M 398.16 466.981065 
L 398.16 451.58639 
" clip-path="url(#p16441d7c0b)" style="fill: none; stroke: #6a6a6a"/>
   </g>
   <g id="line2d_24">
    <path d="M 375.84 492.199283 
L 420.48 492.199283 
" clip-path="url(#p16441d7c0b)" style="fill: none; stroke: #6a6a6a; stroke-linecap: square"/>
   </g>
   <g id="line2d_25">
    <path d="M 375.84 451.58639 
L 420.48 451.58639 
" clip-path="url(#p16441d7c0b)" style="fill: none; stroke: #6a6a6a; stroke-linecap: square"/>
   </g>
   <g id="line2d_26">
    <g clip-path="url(#p16441d7c0b)">
     <use xlink:href="#m291c0f9ae9" x="398.16" y="113.001575" style="fill-opacity: 0; stroke: #6a6a6a"/>
     <use xlink:href="#m291c0f9ae9" x="398.16" y="110.980347" style="fill-opacity: 0; stroke: #6a6a6a"/>
     <use xlink:href="#m291c0f9ae9" x="398.16" y="108.486283" style="fill-opacity: 0; stroke: #6a6a6a"/>
     <use xlink:href="#m291c0f9ae9" x="398.16" y="109.597834" style="fill-opacity: 0; stroke: #6a6a6a"/>
     <use xlink:href="#m291c0f9ae9" x="398.16" y="109.958255" style="fill-opacity: 0; stroke: #6a6a6a"/>
     <use xlink:href="#m291c0f9ae9" x="398.16" y="110.286699" style="fill-opacity: 0; stroke: #6a6a6a"/>
     <use xlink:href="#m291c0f9ae9" x="398.16" y="109.846287" style="fill-opacity: 0; stroke: #6a6a6a"/>
     <use xlink:href="#m291c0f9ae9" x="398.16" y="100.726498" style="fill-opacity: 0; stroke: #6a6a6a"/>
     <use xlink:href="#m291c0f9ae9" x="398.16" y="106.367273" style="fill-opacity: 0; stroke: #6a6a6a"/>
     <use xlink:href="#m291c0f9ae9" x="398.16" y="109.707571" style="fill-opacity: 0; stroke: #6a6a6a"/>
     <use xlink:href="#m291c0f9ae9" x="398.16" y="106.676812" style="fill-opacity: 0; stroke: #6a6a6a"/>
     <use xlink:href="#m291c0f9ae9" x="398.16" y="110.030276" style="fill-opacity: 0; stroke: #6a6a6a"/>
     <use xlink:href="#m291c0f9ae9" x="398.16" y="107.732443" style="fill-opacity: 0; stroke: #6a6a6a"/>
     <use xlink:href="#m291c0f9ae9" x="398.16" y="112.124992" style="fill-opacity: 0; stroke: #6a6a6a"/>
     <use xlink:href="#m291c0f9ae9" x="398.16" y="107.75052" style="fill-opacity: 0; stroke: #6a6a6a"/>
     <use xlink:href="#m291c0f9ae9" x="398.16" y="109.901347" style="fill-opacity: 0; stroke: #6a6a6a"/>
     <use xlink:href="#m291c0f9ae9" x="398.16" y="109.755297" style="fill-opacity: 0; stroke: #6a6a6a"/>
     <use xlink:href="#m291c0f9ae9" x="398.16" y="106.493333" style="fill-opacity: 0; stroke: #6a6a6a"/>
     <use xlink:href="#m291c0f9ae9" x="398.16" y="106.980229" style="fill-opacity: 0; stroke: #6a6a6a"/>
     <use xlink:href="#m291c0f9ae9" x="398.16" y="109.253672" style="fill-opacity: 0; stroke: #6a6a6a"/>
     <use xlink:href="#m291c0f9ae9" x="398.16" y="105.149238" style="fill-opacity: 0; stroke: #6a6a6a"/>
     <use xlink:href="#m291c0f9ae9" x="398.16" y="107.640943" style="fill-opacity: 0; stroke: #6a6a6a"/>
     <use xlink:href="#m291c0f9ae9" x="398.16" y="107.698234" style="fill-opacity: 0; stroke: #6a6a6a"/>
     <use xlink:href="#m291c0f9ae9" x="398.16" y="111.921874" style="fill-opacity: 0; stroke: #6a6a6a"/>
     <use xlink:href="#m291c0f9ae9" x="398.16" y="106.836666" style="fill-opacity: 0; stroke: #6a6a6a"/>
     <use xlink:href="#m291c0f9ae9" x="398.16" y="112.056669" style="fill-opacity: 0; stroke: #6a6a6a"/>
     <use xlink:href="#m291c0f9ae9" x="398.16" y="107.359077" style="fill-opacity: 0; stroke: #6a6a6a"/>
     <use xlink:href="#m291c0f9ae9" x="398.16" y="110.294542" style="fill-opacity: 0; stroke: #6a6a6a"/>
     <use xlink:href="#m291c0f9ae9" x="398.16" y="107.061973" style="fill-opacity: 0; stroke: #6a6a6a"/>
     <use xlink:href="#m291c0f9ae9" x="398.16" y="106.82774" style="fill-opacity: 0; stroke: #6a6a6a"/>
    </g>
   </g>
   <g id="patch_7">
    <path d="M 576.72 476.70914 
L 666 476.70914 
L 666 433.828221 
L 576.72 433.828221 
L 576.72 476.70914 
z
" clip-path="url(#p16441d7c0b)" style="fill: #96cac1; stroke: #6a6a6a; stroke-linejoin: miter"/>
   </g>
   <g id="line2d_27">
    <path d="M 621.36 476.70914 
L 621.36 491.854485 
" clip-path="url(#p16441d7c0b)" style="fill: none; stroke: #6a6a6a"/>
   </g>
   <g id="line2d_28">
    <path d="M 621.36 433.828221 
L 621.36 399.847651 
" clip-path="url(#p16441d7c0b)" style="fill: none; stroke: #6a6a6a"/>
   </g>
   <g id="line2d_29">
    <path d="M 599.04 491.854485 
L 643.68 491.854485 
" clip-path="url(#p16441d7c0b)" style="fill: none; stroke: #6a6a6a; stroke-linecap: square"/>
   </g>
   <g id="line2d_30">
    <path d="M 599.04 399.847651 
L 643.68 399.847651 
" clip-path="url(#p16441d7c0b)" style="fill: none; stroke: #6a6a6a; stroke-linecap: square"/>
   </g>
   <g id="line2d_31">
    <g clip-path="url(#p16441d7c0b)">
     <use xlink:href="#m291c0f9ae9" x="621.36" y="115.192263" style="fill-opacity: 0; stroke: #6a6a6a"/>
     <use xlink:href="#m291c0f9ae9" x="621.36" y="110.729033" style="fill-opacity: 0; stroke: #6a6a6a"/>
     <use xlink:href="#m291c0f9ae9" x="621.36" y="111.536338" style="fill-opacity: 0; stroke: #6a6a6a"/>
     <use xlink:href="#m291c0f9ae9" x="621.36" y="114.745251" style="fill-opacity: 0; stroke: #6a6a6a"/>
     <use xlink:href="#m291c0f9ae9" x="621.36" y="106.141338" style="fill-opacity: 0; stroke: #6a6a6a"/>
     <use xlink:href="#m291c0f9ae9" x="621.36" y="111.138265" style="fill-opacity: 0; stroke: #6a6a6a"/>
     <use xlink:href="#m291c0f9ae9" x="621.36" y="111.050304" style="fill-opacity: 0; stroke: #6a6a6a"/>
     <use xlink:href="#m291c0f9ae9" x="621.36" y="113.559449" style="fill-opacity: 0; stroke: #6a6a6a"/>
     <use xlink:href="#m291c0f9ae9" x="621.36" y="113.165552" style="fill-opacity: 0; stroke: #6a6a6a"/>
     <use xlink:href="#m291c0f9ae9" x="621.36" y="116.754365" style="fill-opacity: 0; stroke: #6a6a6a"/>
     <use xlink:href="#m291c0f9ae9" x="621.36" y="108.111301" style="fill-opacity: 0; stroke: #6a6a6a"/>
     <use xlink:href="#m291c0f9ae9" x="621.36" y="115.833497" style="fill-opacity: 0; stroke: #6a6a6a"/>
     <use xlink:href="#m291c0f9ae9" x="621.36" y="111.799234" style="fill-opacity: 0; stroke: #6a6a6a"/>
     <use xlink:href="#m291c0f9ae9" x="621.36" y="115.311596" style="fill-opacity: 0; stroke: #6a6a6a"/>
     <use xlink:href="#m291c0f9ae9" x="621.36" y="111.939067" style="fill-opacity: 0; stroke: #6a6a6a"/>
     <use xlink:href="#m291c0f9ae9" x="621.36" y="114.322406" style="fill-opacity: 0; stroke: #6a6a6a"/>
     <use xlink:href="#m291c0f9ae9" x="621.36" y="112.075521" style="fill-opacity: 0; stroke: #6a6a6a"/>
     <use xlink:href="#m291c0f9ae9" x="621.36" y="106.981705" style="fill-opacity: 0; stroke: #6a6a6a"/>
     <use xlink:href="#m291c0f9ae9" x="621.36" y="109.261269" style="fill-opacity: 0; stroke: #6a6a6a"/>
     <use xlink:href="#m291c0f9ae9" x="621.36" y="109.88143" style="fill-opacity: 0; stroke: #6a6a6a"/>
     <use xlink:href="#m291c0f9ae9" x="621.36" y="115.421397" style="fill-opacity: 0; stroke: #6a6a6a"/>
     <use xlink:href="#m291c0f9ae9" x="621.36" y="111.937441" style="fill-opacity: 0; stroke: #6a6a6a"/>
     <use xlink:href="#m291c0f9ae9" x="621.36" y="114.055685" style="fill-opacity: 0; stroke: #6a6a6a"/>
     <use xlink:href="#m291c0f9ae9" x="621.36" y="114.991217" style="fill-opacity: 0; stroke: #6a6a6a"/>
     <use xlink:href="#m291c0f9ae9" x="621.36" y="111.36861" style="fill-opacity: 0; stroke: #6a6a6a"/>
     <use xlink:href="#m291c0f9ae9" x="621.36" y="115.276048" style="fill-opacity: 0; stroke: #6a6a6a"/>
     <use xlink:href="#m291c0f9ae9" x="621.36" y="110.910153" style="fill-opacity: 0; stroke: #6a6a6a"/>
     <use xlink:href="#m291c0f9ae9" x="621.36" y="111.103992" style="fill-opacity: 0; stroke: #6a6a6a"/>
     <use xlink:href="#m291c0f9ae9" x="621.36" y="99.526165" style="fill-opacity: 0; stroke: #6a6a6a"/>
     <use xlink:href="#m291c0f9ae9" x="621.36" y="110.106195" style="fill-opacity: 0; stroke: #6a6a6a"/>
    </g>
   </g>
   <g id="patch_8">
    <path d="M 219.6 439.222467 
L 308.88 439.222467 
L 308.88 386.729615 
L 219.6 386.729615 
L 219.6 439.222467 
z
" clip-path="url(#p16441d7c0b)" style="fill: #f5f6bc; stroke: #6a6a6a; stroke-linejoin: miter"/>
   </g>
   <g id="line2d_32">
    <path d="M 264.24 439.222467 
L 264.24 474.407641 
" clip-path="url(#p16441d7c0b)" style="fill: none; stroke: #6a6a6a"/>
   </g>
   <g id="line2d_33">
    <path d="M 264.24 386.729615 
L 264.24 351.918931 
" clip-path="url(#p16441d7c0b)" style="fill: none; stroke: #6a6a6a"/>
   </g>
   <g id="line2d_34">
    <path d="M 241.92 474.407641 
L 286.56 474.407641 
" clip-path="url(#p16441d7c0b)" style="fill: none; stroke: #6a6a6a; stroke-linecap: square"/>
   </g>
   <g id="line2d_35">
    <path d="M 241.92 351.918931 
L 286.56 351.918931 
" clip-path="url(#p16441d7c0b)" style="fill: none; stroke: #6a6a6a; stroke-linecap: square"/>
   </g>
   <g id="line2d_36"/>
   <g id="patch_9">
    <path d="M 442.8 439.689347 
L 532.08 439.689347 
L 532.08 421.403333 
L 442.8 421.403333 
L 442.8 439.689347 
z
" clip-path="url(#p16441d7c0b)" style="fill: #f5f6bc; stroke: #6a6a6a; stroke-linejoin: miter"/>
   </g>
   <g id="line2d_37">
    <path d="M 487.44 439.689347 
L 487.44 449.082027 
" clip-path="url(#p16441d7c0b)" style="fill: none; stroke: #6a6a6a"/>
   </g>
   <g id="line2d_38">
    <path d="M 487.44 421.403333 
L 487.44 402.057843 
" clip-path="url(#p16441d7c0b)" style="fill: none; stroke: #6a6a6a"/>
   </g>
   <g id="line2d_39">
    <path d="M 465.12 449.082027 
L 509.76 449.082027 
" clip-path="url(#p16441d7c0b)" style="fill: none; stroke: #6a6a6a; stroke-linecap: square"/>
   </g>
   <g id="line2d_40">
    <path d="M 465.12 402.057843 
L 509.76 402.057843 
" clip-path="url(#p16441d7c0b)" style="fill: none; stroke: #6a6a6a; stroke-linecap: square"/>
   </g>
   <g id="line2d_41">
    <g clip-path="url(#p16441d7c0b)">
     <use xlink:href="#m291c0f9ae9" x="487.44" y="390.061348" style="fill-opacity: 0; stroke: #6a6a6a"/>
    </g>
   </g>
   <g id="patch_10">
    <path d="M 666 458.135222 
L 755.28 458.135222 
L 755.28 411.764095 
L 666 411.764095 
L 666 458.135222 
z
" clip-path="url(#p16441d7c0b)" style="fill: #f5f6bc; stroke: #6a6a6a; stroke-linejoin: miter"/>
   </g>
   <g id="line2d_42">
    <path d="M 710.64 458.135222 
L 710.64 492.48 
" clip-path="url(#p16441d7c0b)" style="fill: none; stroke: #6a6a6a"/>
   </g>
   <g id="line2d_43">
    <path d="M 710.64 411.764095 
L 710.64 380.005991 
" clip-path="url(#p16441d7c0b)" style="fill: none; stroke: #6a6a6a"/>
   </g>
   <g id="line2d_44">
    <path d="M 688.32 492.48 
L 732.96 492.48 
" clip-path="url(#p16441d7c0b)" style="fill: none; stroke: #6a6a6a; stroke-linecap: square"/>
   </g>
   <g id="line2d_45">
    <path d="M 688.32 380.005991 
L 732.96 380.005991 
" clip-path="url(#p16441d7c0b)" style="fill: none; stroke: #6a6a6a; stroke-linecap: square"/>
   </g>
   <g id="line2d_46"/>
   <g id="line2d_47">
    <path d="M 130.32 442.400304 
L 219.6 442.400304 
" clip-path="url(#p16441d7c0b)" style="fill: none; stroke: #6a6a6a"/>
   </g>
   <g id="line2d_48">
    <path d="M 353.52 476.335025 
L 442.8 476.335025 
" clip-path="url(#p16441d7c0b)" style="fill: none; stroke: #6a6a6a"/>
   </g>
   <g id="line2d_49">
    <path d="M 576.72 457.293868 
L 666 457.293868 
" clip-path="url(#p16441d7c0b)" style="fill: none; stroke: #6a6a6a"/>
   </g>
   <g id="line2d_50">
    <path d="M 219.6 416.700515 
L 308.88 416.700515 
" clip-path="url(#p16441d7c0b)" style="fill: none; stroke: #6a6a6a"/>
   </g>
   <g id="line2d_51">
    <path d="M 442.8 431.637 
L 532.08 431.637 
" clip-path="url(#p16441d7c0b)" style="fill: none; stroke: #6a6a6a"/>
   </g>
   <g id="line2d_52">
    <path d="M 666 432.554585 
L 755.28 432.554585 
" clip-path="url(#p16441d7c0b)" style="fill: none; stroke: #6a6a6a"/>
   </g>
   <g id="patch_11">
    <path d="M 108 512.64 
L 108 69.12 
" style="fill: none; stroke: #ffffff; stroke-width: 0.8; stroke-linejoin: miter; stroke-linecap: square"/>
   </g>
   <g id="patch_12">
    <path d="M 777.6 512.64 
L 777.6 69.12 
" style="fill: none; stroke: #ffffff; stroke-width: 0.8; stroke-linejoin: miter; stroke-linecap: square"/>
   </g>
   <g id="patch_13">
    <path d="M 108 512.64 
L 777.6 512.64 
" style="fill: none; stroke: #ffffff; stroke-width: 0.8; stroke-linejoin: miter; stroke-linecap: square"/>
   </g>
   <g id="patch_14">
    <path d="M 108 69.12 
L 777.6 69.12 
" style="fill: none; stroke: #ffffff; stroke-width: 0.8; stroke-linejoin: miter; stroke-linecap: square"/>
   </g>
   <g id="text_11">
    <!-- Boxplot of Time across Implementations and Operations -->
    <g style="fill: #ffffff" transform="translate(273.97125 63.12) scale(0.12 -0.12)">
     <defs>
      <path id="DejaVuSans-42" d="M 1259 2228 
L 1259 519 
L 2272 519 
Q 2781 519 3026 730 
Q 3272 941 3272 1375 
Q 3272 1813 3026 2020 
Q 2781 2228 2272 2228 
L 1259 2228 
z
M 1259 4147 
L 1259 2741 
L 2194 2741 
Q 2656 2741 2882 2914 
Q 3109 3088 3109 3444 
Q 3109 3797 2882 3972 
Q 2656 4147 2194 4147 
L 1259 4147 
z
M 628 4666 
L 2241 4666 
Q 2963 4666 3353 4366 
Q 3744 4066 3744 3513 
Q 3744 3084 3544 2831 
Q 3344 2578 2956 2516 
Q 3422 2416 3680 2098 
Q 3938 1781 3938 1306 
Q 3938 681 3513 340 
Q 3088 0 2303 0 
L 628 0 
L 628 4666 
z
" transform="scale(0.015625)"/>
      <path id="DejaVuSans-66" d="M 2375 4863 
L 2375 4384 
L 1825 4384 
Q 1516 4384 1395 4259 
Q 1275 4134 1275 3809 
L 1275 3500 
L 2222 3500 
L 2222 3053 
L 1275 3053 
L 1275 0 
L 697 0 
L 697 3053 
L 147 3053 
L 147 3500 
L 697 3500 
L 697 3744 
Q 697 4328 969 4595 
Q 1241 4863 1831 4863 
L 2375 4863 
z
" transform="scale(0.015625)"/>
      <path id="DejaVuSans-49" d="M 628 4666 
L 1259 4666 
L 1259 0 
L 628 0 
L 628 4666 
z
" transform="scale(0.015625)"/>
      <path id="DejaVuSans-4f" d="M 2522 4238 
Q 1834 4238 1429 3725 
Q 1025 3213 1025 2328 
Q 1025 1447 1429 934 
Q 1834 422 2522 422 
Q 3209 422 3611 934 
Q 4013 1447 4013 2328 
Q 4013 3213 3611 3725 
Q 3209 4238 2522 4238 
z
M 2522 4750 
Q 3503 4750 4090 4092 
Q 4678 3434 4678 2328 
Q 4678 1225 4090 567 
Q 3503 -91 2522 -91 
Q 1538 -91 948 565 
Q 359 1222 359 2328 
Q 359 3434 948 4092 
Q 1538 4750 2522 4750 
z
" transform="scale(0.015625)"/>
     </defs>
     <use xlink:href="#DejaVuSans-42"/>
     <use xlink:href="#DejaVuSans-6f" x="68.603516"/>
     <use xlink:href="#DejaVuSans-78" x="126.660156"/>
     <use xlink:href="#DejaVuSans-70" x="185.839844"/>
     <use xlink:href="#DejaVuSans-6c" x="249.316406"/>
     <use xlink:href="#DejaVuSans-6f" x="277.099609"/>
     <use xlink:href="#DejaVuSans-74" x="338.28125"/>
     <use xlink:href="#DejaVuSans-20" x="377.490234"/>
     <use xlink:href="#DejaVuSans-6f" x="409.277344"/>
     <use xlink:href="#DejaVuSans-66" x="470.458984"/>
     <use xlink:href="#DejaVuSans-20" x="505.664062"/>
     <use xlink:href="#DejaVuSans-54" x="537.451172"/>
     <use xlink:href="#DejaVuSans-69" x="595.410156"/>
     <use xlink:href="#DejaVuSans-6d" x="623.193359"/>
     <use xlink:href="#DejaVuSans-65" x="720.605469"/>
     <use xlink:href="#DejaVuSans-20" x="782.128906"/>
     <use xlink:href="#DejaVuSans-61" x="813.916016"/>
     <use xlink:href="#DejaVuSans-63" x="875.195312"/>
     <use xlink:href="#DejaVuSans-72" x="930.175781"/>
     <use xlink:href="#DejaVuSans-6f" x="969.039062"/>
     <use xlink:href="#DejaVuSans-73" x="1030.220703"/>
     <use xlink:href="#DejaVuSans-73" x="1082.320312"/>
     <use xlink:href="#DejaVuSans-20" x="1134.419922"/>
     <use xlink:href="#DejaVuSans-49" x="1166.207031"/>
     <use xlink:href="#DejaVuSans-6d" x="1195.699219"/>
     <use xlink:href="#DejaVuSans-70" x="1293.111328"/>
     <use xlink:href="#DejaVuSans-6c" x="1356.587891"/>
     <use xlink:href="#DejaVuSans-65" x="1384.371094"/>
     <use xlink:href="#DejaVuSans-6d" x="1445.894531"/>
     <use xlink:href="#DejaVuSans-65" x="1543.306641"/>
     <use xlink:href="#DejaVuSans-6e" x="1604.830078"/>
     <use xlink:href="#DejaVuSans-74" x="1668.208984"/>
     <use xlink:href="#DejaVuSans-61" x="1707.417969"/>
     <use xlink:href="#DejaVuSans-74" x="1768.697266"/>
     <use xlink:href="#DejaVuSans-69" x="1807.90625"/>
     <use xlink:href="#DejaVuSans-6f" x="1835.689453"/>
     <use xlink:href="#DejaVuSans-6e" x="1896.871094"/>
     <use xlink:href="#DejaVuSans-73" x="1960.25"/>
     <use xlink:href="#DejaVuSans-20" x="2012.349609"/>
     <use xlink:href="#DejaVuSans-61" x="2044.136719"/>
     <use xlink:href="#DejaVuSans-6e" x="2105.416016"/>
     <use xlink:href="#DejaVuSans-64" x="2168.794922"/>
     <use xlink:href="#DejaVuSans-20" x="2232.271484"/>
     <use xlink:href="#DejaVuSans-4f" x="2264.058594"/>
     <use xlink:href="#DejaVuSans-70" x="2342.769531"/>
     <use xlink:href="#DejaVuSans-65" x="2406.246094"/>
     <use xlink:href="#DejaVuSans-72" x="2467.769531"/>
     <use xlink:href="#DejaVuSans-61" x="2508.882812"/>
     <use xlink:href="#DejaVuSans-74" x="2570.162109"/>
     <use xlink:href="#DejaVuSans-69" x="2609.371094"/>
     <use xlink:href="#DejaVuSans-6f" x="2637.154297"/>
     <use xlink:href="#DejaVuSans-6e" x="2698.335938"/>
     <use xlink:href="#DejaVuSans-73" x="2761.714844"/>
    </g>
   </g>
   <g id="legend_1">
    <g id="patch_15">
     <path d="M 713.459375 121.154375 
L 770.6 121.154375 
Q 772.6 121.154375 772.6 119.154375 
L 772.6 76.12 
Q 772.6 74.12 770.6 74.12 
L 713.459375 74.12 
Q 711.459375 74.12 711.459375 76.12 
L 711.459375 119.154375 
Q 711.459375 121.154375 713.459375 121.154375 
z
" style="opacity: 0.8; stroke: #cccccc; stroke-linejoin: miter"/>
    </g>
    <g id="text_12">
     <!-- operation -->
     <g style="fill: #ffffff" transform="translate(718.022656 85.718438) scale(0.1 -0.1)">
      <use xlink:href="#DejaVuSans-6f"/>
      <use xlink:href="#DejaVuSans-70" x="61.181641"/>
      <use xlink:href="#DejaVuSans-65" x="124.658203"/>
      <use xlink:href="#DejaVuSans-72" x="186.181641"/>
      <use xlink:href="#DejaVuSans-61" x="227.294922"/>
      <use xlink:href="#DejaVuSans-74" x="288.574219"/>
      <use xlink:href="#DejaVuSans-69" x="327.783203"/>
      <use xlink:href="#DejaVuSans-6f" x="355.566406"/>
      <use xlink:href="#DejaVuSans-6e" x="416.748047"/>
     </g>
    </g>
    <g id="patch_16">
     <path d="M 715.459375 100.396563 
L 735.459375 100.396563 
L 735.459375 93.396563 
L 715.459375 93.396563 
z
" style="fill: #96cac1; stroke: #6a6a6a; stroke-linejoin: miter"/>
    </g>
    <g id="text_13">
     <!-- write -->
     <g style="fill: #ffffff" transform="translate(743.459375 100.396563) scale(0.1 -0.1)">
      <defs>
       <path id="DejaVuSans-77" d="M 269 3500 
L 844 3500 
L 1563 769 
L 2278 3500 
L 2956 3500 
L 3675 769 
L 4391 3500 
L 4966 3500 
L 4050 0 
L 3372 0 
L 2619 2869 
L 1863 0 
L 1184 0 
L 269 3500 
z
" transform="scale(0.015625)"/>
      </defs>
      <use xlink:href="#DejaVuSans-77"/>
      <use xlink:href="#DejaVuSans-72" x="81.787109"/>
      <use xlink:href="#DejaVuSans-69" x="122.900391"/>
      <use xlink:href="#DejaVuSans-74" x="150.683594"/>
      <use xlink:href="#DejaVuSans-65" x="189.892578"/>
     </g>
    </g>
    <g id="patch_17">
     <path d="M 715.459375 115.074688 
L 735.459375 115.074688 
L 735.459375 108.074688 
L 715.459375 108.074688 
z
" style="fill: #f5f6bc; stroke: #6a6a6a; stroke-linejoin: miter"/>
    </g>
    <g id="text_14">
     <!-- read -->
     <g style="fill: #ffffff" transform="translate(743.459375 115.074688) scale(0.1 -0.1)">
      <use xlink:href="#DejaVuSans-72"/>
      <use xlink:href="#DejaVuSans-65" x="38.863281"/>
      <use xlink:href="#DejaVuSans-61" x="100.386719"/>
      <use xlink:href="#DejaVuSans-64" x="161.666016"/>
     </g>
    </g>
   </g>
  </g>
 </g>
 <defs>
  <clipPath id="p16441d7c0b">
   <rect x="108" y="69.12" width="669.6" height="443.52"/>
  </clipPath>
 </defs>
</svg>
