<?xml version="1.0" encoding="utf-8" standalone="no"?>
<!DOCTYPE svg PUBLIC "-//W3C//DTD SVG 1.1//EN"
  "http://www.w3.org/Graphics/SVG/1.1/DTD/svg11.dtd">
<svg xmlns:xlink="http://www.w3.org/1999/xlink" width="720pt" height="432pt" viewBox="0 0 720 432" xmlns="http://www.w3.org/2000/svg" version="1.1">
 <metadata>
  <rdf:RDF xmlns:dc="http://purl.org/dc/elements/1.1/" xmlns:cc="http://creativecommons.org/ns#" xmlns:rdf="http://www.w3.org/1999/02/22-rdf-syntax-ns#">
   <cc:Work>
    <dc:type rdf:resource="http://purl.org/dc/dcmitype/StillImage"/>
    <dc:date>2024-01-19T17:59:54.411367</dc:date>
    <dc:format>image/svg+xml</dc:format>
    <dc:creator>
     <cc:Agent>
      <dc:title>Matplotlib v3.8.2, https://matplotlib.org/</dc:title>
     </cc:Agent>
    </dc:creator>
   </cc:Work>
  </rdf:RDF>
 </metadata>
 <defs>
  <style type="text/css">*{stroke-linejoin: round; stroke-linecap: butt}</style>
 </defs>
 <g id="figure_1">
  <g id="patch_1">
   <path d="M 0 432 
L 720 432 
L 720 0 
L 0 0 
z
"/>
  </g>
  <g id="axes_1">
   <g id="patch_2">
    <path d="M 90 384.48 
L 648 384.48 
L 648 51.84 
L 90 51.84 
z
"/>
   </g>
   <g id="matplotlib.axis_1">
    <g id="xtick_1">
     <g id="line2d_1">
      <path d="M 115.363636 384.48 
L 115.363636 51.84 
" clip-path="url(#pa29fd46830)" style="fill: none; stroke: #ffffff; stroke-width: 0.8; stroke-linecap: square"/>
     </g>
     <g id="line2d_2">
      <defs>
       <path id="m7bdd66d770" d="M 0 0 
L 0 3.5 
" style="stroke: #ffffff; stroke-width: 0.8"/>
      </defs>
      <g>
       <use xlink:href="#m7bdd66d770" x="115.363636" y="384.48" style="fill: #ffffff; stroke: #ffffff; stroke-width: 0.8"/>
      </g>
     </g>
     <g id="text_1">
      <!-- 1 -->
      <g style="fill: #ffffff" transform="translate(115.065326 401.351874) rotate(-45) scale(0.1 -0.1)">
       <defs>
        <path id="DejaVuSans-31" d="M 794 531 
L 1825 531 
L 1825 4091 
L 703 3866 
L 703 4441 
L 1819 4666 
L 2450 4666 
L 2450 531 
L 3481 531 
L 3481 0 
L 794 0 
L 794 531 
z
" transform="scale(0.015625)"/>
       </defs>
       <use xlink:href="#DejaVuSans-31"/>
      </g>
     </g>
    </g>
    <g id="xtick_2">
     <g id="line2d_3">
      <path d="M 136.5 384.48 
L 136.5 51.84 
" clip-path="url(#pa29fd46830)" style="fill: none; stroke: #ffffff; stroke-width: 0.8; stroke-linecap: square"/>
     </g>
     <g id="line2d_4">
      <g>
       <use xlink:href="#m7bdd66d770" x="136.5" y="384.48" style="fill: #ffffff; stroke: #ffffff; stroke-width: 0.8"/>
      </g>
     </g>
     <g id="text_2">
      <!-- 201 -->
      <g style="fill: #ffffff" transform="translate(131.702722 410.349807) rotate(-45) scale(0.1 -0.1)">
       <defs>
        <path id="DejaVuSans-32" d="M 1228 531 
L 3431 531 
L 3431 0 
L 469 0 
L 469 531 
Q 828 903 1448 1529 
Q 2069 2156 2228 2338 
Q 2531 2678 2651 2914 
Q 2772 3150 2772 3378 
Q 2772 3750 2511 3984 
Q 2250 4219 1831 4219 
Q 1534 4219 1204 4116 
Q 875 4013 500 3803 
L 500 4441 
Q 881 4594 1212 4672 
Q 1544 4750 1819 4750 
Q 2544 4750 2975 4387 
Q 3406 4025 3406 3419 
Q 3406 3131 3298 2873 
Q 3191 2616 2906 2266 
Q 2828 2175 2409 1742 
Q 1991 1309 1228 531 
z
" transform="scale(0.015625)"/>
        <path id="DejaVuSans-30" d="M 2034 4250 
Q 1547 4250 1301 3770 
Q 1056 3291 1056 2328 
Q 1056 1369 1301 889 
Q 1547 409 2034 409 
Q 2525 409 2770 889 
Q 3016 1369 3016 2328 
Q 3016 3291 2770 3770 
Q 2525 4250 2034 4250 
z
M 2034 4750 
Q 2819 4750 3233 4129 
Q 3647 3509 3647 2328 
Q 3647 1150 3233 529 
Q 2819 -91 2034 -91 
Q 1250 -91 836 529 
Q 422 1150 422 2328 
Q 422 3509 836 4129 
Q 1250 4750 2034 4750 
z
" transform="scale(0.015625)"/>
       </defs>
       <use xlink:href="#DejaVuSans-32"/>
       <use xlink:href="#DejaVuSans-30" x="63.623047"/>
       <use xlink:href="#DejaVuSans-31" x="127.246094"/>
      </g>
     </g>
    </g>
    <g id="xtick_3">
     <g id="line2d_5">
      <path d="M 157.636364 384.48 
L 157.636364 51.84 
" clip-path="url(#pa29fd46830)" style="fill: none; stroke: #ffffff; stroke-width: 0.8; stroke-linecap: square"/>
     </g>
     <g id="line2d_6">
      <g>
       <use xlink:href="#m7bdd66d770" x="157.636364" y="384.48" style="fill: #ffffff; stroke: #ffffff; stroke-width: 0.8"/>
      </g>
     </g>
     <g id="text_3">
      <!-- 401 -->
      <g style="fill: #ffffff" transform="translate(152.839086 410.349807) rotate(-45) scale(0.1 -0.1)">
       <defs>
        <path id="DejaVuSans-34" d="M 2419 4116 
L 825 1625 
L 2419 1625 
L 2419 4116 
z
M 2253 4666 
L 3047 4666 
L 3047 1625 
L 3713 1625 
L 3713 1100 
L 3047 1100 
L 3047 0 
L 2419 0 
L 2419 1100 
L 313 1100 
L 313 1709 
L 2253 4666 
z
" transform="scale(0.015625)"/>
       </defs>
       <use xlink:href="#DejaVuSans-34"/>
       <use xlink:href="#DejaVuSans-30" x="63.623047"/>
       <use xlink:href="#DejaVuSans-31" x="127.246094"/>
      </g>
     </g>
    </g>
    <g id="xtick_4">
     <g id="line2d_7">
      <path d="M 178.772727 384.48 
L 178.772727 51.84 
" clip-path="url(#pa29fd46830)" style="fill: none; stroke: #ffffff; stroke-width: 0.8; stroke-linecap: square"/>
     </g>
     <g id="line2d_8">
      <g>
       <use xlink:href="#m7bdd66d770" x="178.772727" y="384.48" style="fill: #ffffff; stroke: #ffffff; stroke-width: 0.8"/>
      </g>
     </g>
     <g id="text_4">
      <!-- 601 -->
      <g style="fill: #ffffff" transform="translate(173.97545 410.349807) rotate(-45) scale(0.1 -0.1)">
       <defs>
        <path id="DejaVuSans-36" d="M 2113 2584 
Q 1688 2584 1439 2293 
Q 1191 2003 1191 1497 
Q 1191 994 1439 701 
Q 1688 409 2113 409 
Q 2538 409 2786 701 
Q 3034 994 3034 1497 
Q 3034 2003 2786 2293 
Q 2538 2584 2113 2584 
z
M 3366 4563 
L 3366 3988 
Q 3128 4100 2886 4159 
Q 2644 4219 2406 4219 
Q 1781 4219 1451 3797 
Q 1122 3375 1075 2522 
Q 1259 2794 1537 2939 
Q 1816 3084 2150 3084 
Q 2853 3084 3261 2657 
Q 3669 2231 3669 1497 
Q 3669 778 3244 343 
Q 2819 -91 2113 -91 
Q 1303 -91 875 529 
Q 447 1150 447 2328 
Q 447 3434 972 4092 
Q 1497 4750 2381 4750 
Q 2619 4750 2861 4703 
Q 3103 4656 3366 4563 
z
" transform="scale(0.015625)"/>
       </defs>
       <use xlink:href="#DejaVuSans-36"/>
       <use xlink:href="#DejaVuSans-30" x="63.623047"/>
       <use xlink:href="#DejaVuSans-31" x="127.246094"/>
      </g>
     </g>
    </g>
    <g id="xtick_5">
     <g id="line2d_9">
      <path d="M 199.909091 384.48 
L 199.909091 51.84 
" clip-path="url(#pa29fd46830)" style="fill: none; stroke: #ffffff; stroke-width: 0.8; stroke-linecap: square"/>
     </g>
     <g id="line2d_10">
      <g>
       <use xlink:href="#m7bdd66d770" x="199.909091" y="384.48" style="fill: #ffffff; stroke: #ffffff; stroke-width: 0.8"/>
      </g>
     </g>
     <g id="text_5">
      <!-- 801 -->
      <g style="fill: #ffffff" transform="translate(195.111813 410.349807) rotate(-45) scale(0.1 -0.1)">
       <defs>
        <path id="DejaVuSans-38" d="M 2034 2216 
Q 1584 2216 1326 1975 
Q 1069 1734 1069 1313 
Q 1069 891 1326 650 
Q 1584 409 2034 409 
Q 2484 409 2743 651 
Q 3003 894 3003 1313 
Q 3003 1734 2745 1975 
Q 2488 2216 2034 2216 
z
M 1403 2484 
Q 997 2584 770 2862 
Q 544 3141 544 3541 
Q 544 4100 942 4425 
Q 1341 4750 2034 4750 
Q 2731 4750 3128 4425 
Q 3525 4100 3525 3541 
Q 3525 3141 3298 2862 
Q 3072 2584 2669 2484 
Q 3125 2378 3379 2068 
Q 3634 1759 3634 1313 
Q 3634 634 3220 271 
Q 2806 -91 2034 -91 
Q 1263 -91 848 271 
Q 434 634 434 1313 
Q 434 1759 690 2068 
Q 947 2378 1403 2484 
z
M 1172 3481 
Q 1172 3119 1398 2916 
Q 1625 2713 2034 2713 
Q 2441 2713 2670 2916 
Q 2900 3119 2900 3481 
Q 2900 3844 2670 4047 
Q 2441 4250 2034 4250 
Q 1625 4250 1398 4047 
Q 1172 3844 1172 3481 
z
" transform="scale(0.015625)"/>
       </defs>
       <use xlink:href="#DejaVuSans-38"/>
       <use xlink:href="#DejaVuSans-30" x="63.623047"/>
       <use xlink:href="#DejaVuSans-31" x="127.246094"/>
      </g>
     </g>
    </g>
    <g id="xtick_6">
     <g id="line2d_11">
      <path d="M 221.045455 384.48 
L 221.045455 51.84 
" clip-path="url(#pa29fd46830)" style="fill: none; stroke: #ffffff; stroke-width: 0.8; stroke-linecap: square"/>
     </g>
     <g id="line2d_12">
      <g>
       <use xlink:href="#m7bdd66d770" x="221.045455" y="384.48" style="fill: #ffffff; stroke: #ffffff; stroke-width: 0.8"/>
      </g>
     </g>
     <g id="text_6">
      <!-- 1001 -->
      <g style="fill: #ffffff" transform="translate(213.998694 414.848774) rotate(-45) scale(0.1 -0.1)">
       <use xlink:href="#DejaVuSans-31"/>
       <use xlink:href="#DejaVuSans-30" x="63.623047"/>
       <use xlink:href="#DejaVuSans-30" x="127.246094"/>
       <use xlink:href="#DejaVuSans-31" x="190.869141"/>
      </g>
     </g>
    </g>
    <g id="xtick_7">
     <g id="line2d_13">
      <path d="M 242.181818 384.48 
L 242.181818 51.84 
" clip-path="url(#pa29fd46830)" style="fill: none; stroke: #ffffff; stroke-width: 0.8; stroke-linecap: square"/>
     </g>
     <g id="line2d_14">
      <g>
       <use xlink:href="#m7bdd66d770" x="242.181818" y="384.48" style="fill: #ffffff; stroke: #ffffff; stroke-width: 0.8"/>
      </g>
     </g>
     <g id="text_7">
      <!-- 1201 -->
      <g style="fill: #ffffff" transform="translate(235.135057 414.848774) rotate(-45) scale(0.1 -0.1)">
       <use xlink:href="#DejaVuSans-31"/>
       <use xlink:href="#DejaVuSans-32" x="63.623047"/>
       <use xlink:href="#DejaVuSans-30" x="127.246094"/>
       <use xlink:href="#DejaVuSans-31" x="190.869141"/>
      </g>
     </g>
    </g>
    <g id="xtick_8">
     <g id="line2d_15">
      <path d="M 263.318182 384.48 
L 263.318182 51.84 
" clip-path="url(#pa29fd46830)" style="fill: none; stroke: #ffffff; stroke-width: 0.8; stroke-linecap: square"/>
     </g>
     <g id="line2d_16">
      <g>
       <use xlink:href="#m7bdd66d770" x="263.318182" y="384.48" style="fill: #ffffff; stroke: #ffffff; stroke-width: 0.8"/>
      </g>
     </g>
     <g id="text_8">
      <!-- 1401 -->
      <g style="fill: #ffffff" transform="translate(256.271421 414.848774) rotate(-45) scale(0.1 -0.1)">
       <use xlink:href="#DejaVuSans-31"/>
       <use xlink:href="#DejaVuSans-34" x="63.623047"/>
       <use xlink:href="#DejaVuSans-30" x="127.246094"/>
       <use xlink:href="#DejaVuSans-31" x="190.869141"/>
      </g>
     </g>
    </g>
    <g id="xtick_9">
     <g id="line2d_17">
      <path d="M 284.454545 384.48 
L 284.454545 51.84 
" clip-path="url(#pa29fd46830)" style="fill: none; stroke: #ffffff; stroke-width: 0.8; stroke-linecap: square"/>
     </g>
     <g id="line2d_18">
      <g>
       <use xlink:href="#m7bdd66d770" x="284.454545" y="384.48" style="fill: #ffffff; stroke: #ffffff; stroke-width: 0.8"/>
      </g>
     </g>
     <g id="text_9">
      <!-- 1601 -->
      <g style="fill: #ffffff" transform="translate(277.407784 414.848774) rotate(-45) scale(0.1 -0.1)">
       <use xlink:href="#DejaVuSans-31"/>
       <use xlink:href="#DejaVuSans-36" x="63.623047"/>
       <use xlink:href="#DejaVuSans-30" x="127.246094"/>
       <use xlink:href="#DejaVuSans-31" x="190.869141"/>
      </g>
     </g>
    </g>
    <g id="xtick_10">
     <g id="line2d_19">
      <path d="M 305.590909 384.48 
L 305.590909 51.84 
" clip-path="url(#pa29fd46830)" style="fill: none; stroke: #ffffff; stroke-width: 0.8; stroke-linecap: square"/>
     </g>
     <g id="line2d_20">
      <g>
       <use xlink:href="#m7bdd66d770" x="305.590909" y="384.48" style="fill: #ffffff; stroke: #ffffff; stroke-width: 0.8"/>
      </g>
     </g>
     <g id="text_10">
      <!-- 1801 -->
      <g style="fill: #ffffff" transform="translate(298.544148 414.848774) rotate(-45) scale(0.1 -0.1)">
       <use xlink:href="#DejaVuSans-31"/>
       <use xlink:href="#DejaVuSans-38" x="63.623047"/>
       <use xlink:href="#DejaVuSans-30" x="127.246094"/>
       <use xlink:href="#DejaVuSans-31" x="190.869141"/>
      </g>
     </g>
    </g>
    <g id="xtick_11">
     <g id="line2d_21">
      <path d="M 326.727273 384.48 
L 326.727273 51.84 
" clip-path="url(#pa29fd46830)" style="fill: none; stroke: #ffffff; stroke-width: 0.8; stroke-linecap: square"/>
     </g>
     <g id="line2d_22">
      <g>
       <use xlink:href="#m7bdd66d770" x="326.727273" y="384.48" style="fill: #ffffff; stroke: #ffffff; stroke-width: 0.8"/>
      </g>
     </g>
     <g id="text_11">
      <!-- 2001 -->
      <g style="fill: #ffffff" transform="translate(319.680512 414.848774) rotate(-45) scale(0.1 -0.1)">
       <use xlink:href="#DejaVuSans-32"/>
       <use xlink:href="#DejaVuSans-30" x="63.623047"/>
       <use xlink:href="#DejaVuSans-30" x="127.246094"/>
       <use xlink:href="#DejaVuSans-31" x="190.869141"/>
      </g>
     </g>
    </g>
    <g id="xtick_12">
     <g id="line2d_23">
      <path d="M 347.863636 384.48 
L 347.863636 51.84 
" clip-path="url(#pa29fd46830)" style="fill: none; stroke: #ffffff; stroke-width: 0.8; stroke-linecap: square"/>
     </g>
     <g id="line2d_24">
      <g>
       <use xlink:href="#m7bdd66d770" x="347.863636" y="384.48" style="fill: #ffffff; stroke: #ffffff; stroke-width: 0.8"/>
      </g>
     </g>
     <g id="text_12">
      <!-- 2201 -->
      <g style="fill: #ffffff" transform="translate(340.816875 414.848774) rotate(-45) scale(0.1 -0.1)">
       <use xlink:href="#DejaVuSans-32"/>
       <use xlink:href="#DejaVuSans-32" x="63.623047"/>
       <use xlink:href="#DejaVuSans-30" x="127.246094"/>
       <use xlink:href="#DejaVuSans-31" x="190.869141"/>
      </g>
     </g>
    </g>
    <g id="xtick_13">
     <g id="line2d_25">
      <path d="M 369 384.48 
L 369 51.84 
" clip-path="url(#pa29fd46830)" style="fill: none; stroke: #ffffff; stroke-width: 0.8; stroke-linecap: square"/>
     </g>
     <g id="line2d_26">
      <g>
       <use xlink:href="#m7bdd66d770" x="369" y="384.48" style="fill: #ffffff; stroke: #ffffff; stroke-width: 0.8"/>
      </g>
     </g>
     <g id="text_13">
      <!-- 2401 -->
      <g style="fill: #ffffff" transform="translate(361.953239 414.848774) rotate(-45) scale(0.1 -0.1)">
       <use xlink:href="#DejaVuSans-32"/>
       <use xlink:href="#DejaVuSans-34" x="63.623047"/>
       <use xlink:href="#DejaVuSans-30" x="127.246094"/>
       <use xlink:href="#DejaVuSans-31" x="190.869141"/>
      </g>
     </g>
    </g>
    <g id="xtick_14">
     <g id="line2d_27">
      <path d="M 390.136364 384.48 
L 390.136364 51.84 
" clip-path="url(#pa29fd46830)" style="fill: none; stroke: #ffffff; stroke-width: 0.8; stroke-linecap: square"/>
     </g>
     <g id="line2d_28">
      <g>
       <use xlink:href="#m7bdd66d770" x="390.136364" y="384.48" style="fill: #ffffff; stroke: #ffffff; stroke-width: 0.8"/>
      </g>
     </g>
     <g id="text_14">
      <!-- 2601 -->
      <g style="fill: #ffffff" transform="translate(383.089603 414.848774) rotate(-45) scale(0.1 -0.1)">
       <use xlink:href="#DejaVuSans-32"/>
       <use xlink:href="#DejaVuSans-36" x="63.623047"/>
       <use xlink:href="#DejaVuSans-30" x="127.246094"/>
       <use xlink:href="#DejaVuSans-31" x="190.869141"/>
      </g>
     </g>
    </g>
    <g id="xtick_15">
     <g id="line2d_29">
      <path d="M 411.272727 384.48 
L 411.272727 51.84 
" clip-path="url(#pa29fd46830)" style="fill: none; stroke: #ffffff; stroke-width: 0.8; stroke-linecap: square"/>
     </g>
     <g id="line2d_30">
      <g>
       <use xlink:href="#m7bdd66d770" x="411.272727" y="384.48" style="fill: #ffffff; stroke: #ffffff; stroke-width: 0.8"/>
      </g>
     </g>
     <g id="text_15">
      <!-- 2801 -->
      <g style="fill: #ffffff" transform="translate(404.225966 414.848774) rotate(-45) scale(0.1 -0.1)">
       <use xlink:href="#DejaVuSans-32"/>
       <use xlink:href="#DejaVuSans-38" x="63.623047"/>
       <use xlink:href="#DejaVuSans-30" x="127.246094"/>
       <use xlink:href="#DejaVuSans-31" x="190.869141"/>
      </g>
     </g>
    </g>
    <g id="xtick_16">
     <g id="line2d_31">
      <path d="M 432.409091 384.48 
L 432.409091 51.84 
" clip-path="url(#pa29fd46830)" style="fill: none; stroke: #ffffff; stroke-width: 0.8; stroke-linecap: square"/>
     </g>
     <g id="line2d_32">
      <g>
       <use xlink:href="#m7bdd66d770" x="432.409091" y="384.48" style="fill: #ffffff; stroke: #ffffff; stroke-width: 0.8"/>
      </g>
     </g>
     <g id="text_16">
      <!-- 3001 -->
      <g style="fill: #ffffff" transform="translate(425.36233 414.848774) rotate(-45) scale(0.1 -0.1)">
       <defs>
        <path id="DejaVuSans-33" d="M 2597 2516 
Q 3050 2419 3304 2112 
Q 3559 1806 3559 1356 
Q 3559 666 3084 287 
Q 2609 -91 1734 -91 
Q 1441 -91 1130 -33 
Q 819 25 488 141 
L 488 750 
Q 750 597 1062 519 
Q 1375 441 1716 441 
Q 2309 441 2620 675 
Q 2931 909 2931 1356 
Q 2931 1769 2642 2001 
Q 2353 2234 1838 2234 
L 1294 2234 
L 1294 2753 
L 1863 2753 
Q 2328 2753 2575 2939 
Q 2822 3125 2822 3475 
Q 2822 3834 2567 4026 
Q 2313 4219 1838 4219 
Q 1578 4219 1281 4162 
Q 984 4106 628 3988 
L 628 4550 
Q 988 4650 1302 4700 
Q 1616 4750 1894 4750 
Q 2613 4750 3031 4423 
Q 3450 4097 3450 3541 
Q 3450 3153 3228 2886 
Q 3006 2619 2597 2516 
z
" transform="scale(0.015625)"/>
       </defs>
       <use xlink:href="#DejaVuSans-33"/>
       <use xlink:href="#DejaVuSans-30" x="63.623047"/>
       <use xlink:href="#DejaVuSans-30" x="127.246094"/>
       <use xlink:href="#DejaVuSans-31" x="190.869141"/>
      </g>
     </g>
    </g>
    <g id="xtick_17">
     <g id="line2d_33">
      <path d="M 453.545455 384.48 
L 453.545455 51.84 
" clip-path="url(#pa29fd46830)" style="fill: none; stroke: #ffffff; stroke-width: 0.8; stroke-linecap: square"/>
     </g>
     <g id="line2d_34">
      <g>
       <use xlink:href="#m7bdd66d770" x="453.545455" y="384.48" style="fill: #ffffff; stroke: #ffffff; stroke-width: 0.8"/>
      </g>
     </g>
     <g id="text_17">
      <!-- 3201 -->
      <g style="fill: #ffffff" transform="translate(446.498694 414.848774) rotate(-45) scale(0.1 -0.1)">
       <use xlink:href="#DejaVuSans-33"/>
       <use xlink:href="#DejaVuSans-32" x="63.623047"/>
       <use xlink:href="#DejaVuSans-30" x="127.246094"/>
       <use xlink:href="#DejaVuSans-31" x="190.869141"/>
      </g>
     </g>
    </g>
    <g id="xtick_18">
     <g id="line2d_35">
      <path d="M 474.681818 384.48 
L 474.681818 51.84 
" clip-path="url(#pa29fd46830)" style="fill: none; stroke: #ffffff; stroke-width: 0.8; stroke-linecap: square"/>
     </g>
     <g id="line2d_36">
      <g>
       <use xlink:href="#m7bdd66d770" x="474.681818" y="384.48" style="fill: #ffffff; stroke: #ffffff; stroke-width: 0.8"/>
      </g>
     </g>
     <g id="text_18">
      <!-- 3401 -->
      <g style="fill: #ffffff" transform="translate(467.635057 414.848774) rotate(-45) scale(0.1 -0.1)">
       <use xlink:href="#DejaVuSans-33"/>
       <use xlink:href="#DejaVuSans-34" x="63.623047"/>
       <use xlink:href="#DejaVuSans-30" x="127.246094"/>
       <use xlink:href="#DejaVuSans-31" x="190.869141"/>
      </g>
     </g>
    </g>
    <g id="xtick_19">
     <g id="line2d_37">
      <path d="M 495.818182 384.48 
L 495.818182 51.84 
" clip-path="url(#pa29fd46830)" style="fill: none; stroke: #ffffff; stroke-width: 0.8; stroke-linecap: square"/>
     </g>
     <g id="line2d_38">
      <g>
       <use xlink:href="#m7bdd66d770" x="495.818182" y="384.48" style="fill: #ffffff; stroke: #ffffff; stroke-width: 0.8"/>
      </g>
     </g>
     <g id="text_19">
      <!-- 3601 -->
      <g style="fill: #ffffff" transform="translate(488.771421 414.848774) rotate(-45) scale(0.1 -0.1)">
       <use xlink:href="#DejaVuSans-33"/>
       <use xlink:href="#DejaVuSans-36" x="63.623047"/>
       <use xlink:href="#DejaVuSans-30" x="127.246094"/>
       <use xlink:href="#DejaVuSans-31" x="190.869141"/>
      </g>
     </g>
    </g>
    <g id="xtick_20">
     <g id="line2d_39">
      <path d="M 516.954545 384.48 
L 516.954545 51.84 
" clip-path="url(#pa29fd46830)" style="fill: none; stroke: #ffffff; stroke-width: 0.8; stroke-linecap: square"/>
     </g>
     <g id="line2d_40">
      <g>
       <use xlink:href="#m7bdd66d770" x="516.954545" y="384.48" style="fill: #ffffff; stroke: #ffffff; stroke-width: 0.8"/>
      </g>
     </g>
     <g id="text_20">
      <!-- 3801 -->
      <g style="fill: #ffffff" transform="translate(509.907784 414.848774) rotate(-45) scale(0.1 -0.1)">
       <use xlink:href="#DejaVuSans-33"/>
       <use xlink:href="#DejaVuSans-38" x="63.623047"/>
       <use xlink:href="#DejaVuSans-30" x="127.246094"/>
       <use xlink:href="#DejaVuSans-31" x="190.869141"/>
      </g>
     </g>
    </g>
    <g id="xtick_21">
     <g id="line2d_41">
      <path d="M 538.090909 384.48 
L 538.090909 51.84 
" clip-path="url(#pa29fd46830)" style="fill: none; stroke: #ffffff; stroke-width: 0.8; stroke-linecap: square"/>
     </g>
     <g id="line2d_42">
      <g>
       <use xlink:href="#m7bdd66d770" x="538.090909" y="384.48" style="fill: #ffffff; stroke: #ffffff; stroke-width: 0.8"/>
      </g>
     </g>
     <g id="text_21">
      <!-- 4001 -->
      <g style="fill: #ffffff" transform="translate(531.044148 414.848774) rotate(-45) scale(0.1 -0.1)">
       <use xlink:href="#DejaVuSans-34"/>
       <use xlink:href="#DejaVuSans-30" x="63.623047"/>
       <use xlink:href="#DejaVuSans-30" x="127.246094"/>
       <use xlink:href="#DejaVuSans-31" x="190.869141"/>
      </g>
     </g>
    </g>
    <g id="xtick_22">
     <g id="line2d_43">
      <path d="M 559.227273 384.48 
L 559.227273 51.84 
" clip-path="url(#pa29fd46830)" style="fill: none; stroke: #ffffff; stroke-width: 0.8; stroke-linecap: square"/>
     </g>
     <g id="line2d_44">
      <g>
       <use xlink:href="#m7bdd66d770" x="559.227273" y="384.48" style="fill: #ffffff; stroke: #ffffff; stroke-width: 0.8"/>
      </g>
     </g>
     <g id="text_22">
      <!-- 4201 -->
      <g style="fill: #ffffff" transform="translate(552.180512 414.848774) rotate(-45) scale(0.1 -0.1)">
       <use xlink:href="#DejaVuSans-34"/>
       <use xlink:href="#DejaVuSans-32" x="63.623047"/>
       <use xlink:href="#DejaVuSans-30" x="127.246094"/>
       <use xlink:href="#DejaVuSans-31" x="190.869141"/>
      </g>
     </g>
    </g>
    <g id="xtick_23">
     <g id="line2d_45">
      <path d="M 580.363636 384.48 
L 580.363636 51.84 
" clip-path="url(#pa29fd46830)" style="fill: none; stroke: #ffffff; stroke-width: 0.8; stroke-linecap: square"/>
     </g>
     <g id="line2d_46">
      <g>
       <use xlink:href="#m7bdd66d770" x="580.363636" y="384.48" style="fill: #ffffff; stroke: #ffffff; stroke-width: 0.8"/>
      </g>
     </g>
     <g id="text_23">
      <!-- 4401 -->
      <g style="fill: #ffffff" transform="translate(573.316875 414.848774) rotate(-45) scale(0.1 -0.1)">
       <use xlink:href="#DejaVuSans-34"/>
       <use xlink:href="#DejaVuSans-34" x="63.623047"/>
       <use xlink:href="#DejaVuSans-30" x="127.246094"/>
       <use xlink:href="#DejaVuSans-31" x="190.869141"/>
      </g>
     </g>
    </g>
    <g id="xtick_24">
     <g id="line2d_47">
      <path d="M 601.5 384.48 
L 601.5 51.84 
" clip-path="url(#pa29fd46830)" style="fill: none; stroke: #ffffff; stroke-width: 0.8; stroke-linecap: square"/>
     </g>
     <g id="line2d_48">
      <g>
       <use xlink:href="#m7bdd66d770" x="601.5" y="384.48" style="fill: #ffffff; stroke: #ffffff; stroke-width: 0.8"/>
      </g>
     </g>
     <g id="text_24">
      <!-- 4601 -->
      <g style="fill: #ffffff" transform="translate(594.453239 414.848774) rotate(-45) scale(0.1 -0.1)">
       <use xlink:href="#DejaVuSans-34"/>
       <use xlink:href="#DejaVuSans-36" x="63.623047"/>
       <use xlink:href="#DejaVuSans-30" x="127.246094"/>
       <use xlink:href="#DejaVuSans-31" x="190.869141"/>
      </g>
     </g>
    </g>
    <g id="xtick_25">
     <g id="line2d_49">
      <path d="M 622.636364 384.48 
L 622.636364 51.84 
" clip-path="url(#pa29fd46830)" style="fill: none; stroke: #ffffff; stroke-width: 0.8; stroke-linecap: square"/>
     </g>
     <g id="line2d_50">
      <g>
       <use xlink:href="#m7bdd66d770" x="622.636364" y="384.48" style="fill: #ffffff; stroke: #ffffff; stroke-width: 0.8"/>
      </g>
     </g>
     <g id="text_25">
      <!-- 4801 -->
      <g style="fill: #ffffff" transform="translate(615.589603 414.848774) rotate(-45) scale(0.1 -0.1)">
       <use xlink:href="#DejaVuSans-34"/>
       <use xlink:href="#DejaVuSans-38" x="63.623047"/>
       <use xlink:href="#DejaVuSans-30" x="127.246094"/>
       <use xlink:href="#DejaVuSans-31" x="190.869141"/>
      </g>
     </g>
    </g>
    <g id="text_26">
     <!-- concurrency -->
     <g style="fill: #ffffff" transform="translate(338.239844 427.917773) scale(0.1 -0.1)">
      <defs>
       <path id="DejaVuSans-63" d="M 3122 3366 
L 3122 2828 
Q 2878 2963 2633 3030 
Q 2388 3097 2138 3097 
Q 1578 3097 1268 2742 
Q 959 2388 959 1747 
Q 959 1106 1268 751 
Q 1578 397 2138 397 
Q 2388 397 2633 464 
Q 2878 531 3122 666 
L 3122 134 
Q 2881 22 2623 -34 
Q 2366 -91 2075 -91 
Q 1284 -91 818 406 
Q 353 903 353 1747 
Q 353 2603 823 3093 
Q 1294 3584 2113 3584 
Q 2378 3584 2631 3529 
Q 2884 3475 3122 3366 
z
" transform="scale(0.015625)"/>
       <path id="DejaVuSans-6f" d="M 1959 3097 
Q 1497 3097 1228 2736 
Q 959 2375 959 1747 
Q 959 1119 1226 758 
Q 1494 397 1959 397 
Q 2419 397 2687 759 
Q 2956 1122 2956 1747 
Q 2956 2369 2687 2733 
Q 2419 3097 1959 3097 
z
M 1959 3584 
Q 2709 3584 3137 3096 
Q 3566 2609 3566 1747 
Q 3566 888 3137 398 
Q 2709 -91 1959 -91 
Q 1206 -91 779 398 
Q 353 888 353 1747 
Q 353 2609 779 3096 
Q 1206 3584 1959 3584 
z
" transform="scale(0.015625)"/>
       <path id="DejaVuSans-6e" d="M 3513 2113 
L 3513 0 
L 2938 0 
L 2938 2094 
Q 2938 2591 2744 2837 
Q 2550 3084 2163 3084 
Q 1697 3084 1428 2787 
Q 1159 2491 1159 1978 
L 1159 0 
L 581 0 
L 581 3500 
L 1159 3500 
L 1159 2956 
Q 1366 3272 1645 3428 
Q 1925 3584 2291 3584 
Q 2894 3584 3203 3211 
Q 3513 2838 3513 2113 
z
" transform="scale(0.015625)"/>
       <path id="DejaVuSans-75" d="M 544 1381 
L 544 3500 
L 1119 3500 
L 1119 1403 
Q 1119 906 1312 657 
Q 1506 409 1894 409 
Q 2359 409 2629 706 
Q 2900 1003 2900 1516 
L 2900 3500 
L 3475 3500 
L 3475 0 
L 2900 0 
L 2900 538 
Q 2691 219 2414 64 
Q 2138 -91 1772 -91 
Q 1169 -91 856 284 
Q 544 659 544 1381 
z
M 1991 3584 
L 1991 3584 
z
" transform="scale(0.015625)"/>
       <path id="DejaVuSans-72" d="M 2631 2963 
Q 2534 3019 2420 3045 
Q 2306 3072 2169 3072 
Q 1681 3072 1420 2755 
Q 1159 2438 1159 1844 
L 1159 0 
L 581 0 
L 581 3500 
L 1159 3500 
L 1159 2956 
Q 1341 3275 1631 3429 
Q 1922 3584 2338 3584 
Q 2397 3584 2469 3576 
Q 2541 3569 2628 3553 
L 2631 2963 
z
" transform="scale(0.015625)"/>
       <path id="DejaVuSans-65" d="M 3597 1894 
L 3597 1613 
L 953 1613 
Q 991 1019 1311 708 
Q 1631 397 2203 397 
Q 2534 397 2845 478 
Q 3156 559 3463 722 
L 3463 178 
Q 3153 47 2828 -22 
Q 2503 -91 2169 -91 
Q 1331 -91 842 396 
Q 353 884 353 1716 
Q 353 2575 817 3079 
Q 1281 3584 2069 3584 
Q 2775 3584 3186 3129 
Q 3597 2675 3597 1894 
z
M 3022 2063 
Q 3016 2534 2758 2815 
Q 2500 3097 2075 3097 
Q 1594 3097 1305 2825 
Q 1016 2553 972 2059 
L 3022 2063 
z
" transform="scale(0.015625)"/>
       <path id="DejaVuSans-79" d="M 2059 -325 
Q 1816 -950 1584 -1140 
Q 1353 -1331 966 -1331 
L 506 -1331 
L 506 -850 
L 844 -850 
Q 1081 -850 1212 -737 
Q 1344 -625 1503 -206 
L 1606 56 
L 191 3500 
L 800 3500 
L 1894 763 
L 2988 3500 
L 3597 3500 
L 2059 -325 
z
" transform="scale(0.015625)"/>
      </defs>
      <use xlink:href="#DejaVuSans-63"/>
      <use xlink:href="#DejaVuSans-6f" x="54.980469"/>
      <use xlink:href="#DejaVuSans-6e" x="116.162109"/>
      <use xlink:href="#DejaVuSans-63" x="179.541016"/>
      <use xlink:href="#DejaVuSans-75" x="234.521484"/>
      <use xlink:href="#DejaVuSans-72" x="297.900391"/>
      <use xlink:href="#DejaVuSans-72" x="337.263672"/>
      <use xlink:href="#DejaVuSans-65" x="376.126953"/>
      <use xlink:href="#DejaVuSans-6e" x="437.650391"/>
      <use xlink:href="#DejaVuSans-63" x="501.029297"/>
      <use xlink:href="#DejaVuSans-79" x="556.009766"/>
     </g>
    </g>
   </g>
   <g id="matplotlib.axis_2">
    <g id="ytick_1">
     <g id="line2d_51">
      <path d="M 90 341.937663 
L 648 341.937663 
" clip-path="url(#pa29fd46830)" style="fill: none; stroke: #ffffff; stroke-width: 0.8; stroke-linecap: square"/>
     </g>
     <g id="line2d_52">
      <defs>
       <path id="m23d94cb8c0" d="M 0 0 
L -3.5 0 
" style="stroke: #ffffff; stroke-width: 0.8"/>
      </defs>
      <g>
       <use xlink:href="#m23d94cb8c0" x="90" y="341.937663" style="fill: #ffffff; stroke: #ffffff; stroke-width: 0.8"/>
      </g>
     </g>
     <g id="text_27">
      <!-- 100 -->
      <g style="fill: #ffffff" transform="translate(63.9125 345.736882) scale(0.1 -0.1)">
       <use xlink:href="#DejaVuSans-31"/>
       <use xlink:href="#DejaVuSans-30" x="63.623047"/>
       <use xlink:href="#DejaVuSans-30" x="127.246094"/>
      </g>
     </g>
    </g>
    <g id="ytick_2">
     <g id="line2d_53">
      <path d="M 90 278.812169 
L 648 278.812169 
" clip-path="url(#pa29fd46830)" style="fill: none; stroke: #ffffff; stroke-width: 0.8; stroke-linecap: square"/>
     </g>
     <g id="line2d_54">
      <g>
       <use xlink:href="#m23d94cb8c0" x="90" y="278.812169" style="fill: #ffffff; stroke: #ffffff; stroke-width: 0.8"/>
      </g>
     </g>
     <g id="text_28">
      <!-- 200 -->
      <g style="fill: #ffffff" transform="translate(63.9125 282.611387) scale(0.1 -0.1)">
       <use xlink:href="#DejaVuSans-32"/>
       <use xlink:href="#DejaVuSans-30" x="63.623047"/>
       <use xlink:href="#DejaVuSans-30" x="127.246094"/>
      </g>
     </g>
    </g>
    <g id="ytick_3">
     <g id="line2d_55">
      <path d="M 90 215.686674 
L 648 215.686674 
" clip-path="url(#pa29fd46830)" style="fill: none; stroke: #ffffff; stroke-width: 0.8; stroke-linecap: square"/>
     </g>
     <g id="line2d_56">
      <g>
       <use xlink:href="#m23d94cb8c0" x="90" y="215.686674" style="fill: #ffffff; stroke: #ffffff; stroke-width: 0.8"/>
      </g>
     </g>
     <g id="text_29">
      <!-- 300 -->
      <g style="fill: #ffffff" transform="translate(63.9125 219.485893) scale(0.1 -0.1)">
       <use xlink:href="#DejaVuSans-33"/>
       <use xlink:href="#DejaVuSans-30" x="63.623047"/>
       <use xlink:href="#DejaVuSans-30" x="127.246094"/>
      </g>
     </g>
    </g>
    <g id="ytick_4">
     <g id="line2d_57">
      <path d="M 90 152.561179 
L 648 152.561179 
" clip-path="url(#pa29fd46830)" style="fill: none; stroke: #ffffff; stroke-width: 0.8; stroke-linecap: square"/>
     </g>
     <g id="line2d_58">
      <g>
       <use xlink:href="#m23d94cb8c0" x="90" y="152.561179" style="fill: #ffffff; stroke: #ffffff; stroke-width: 0.8"/>
      </g>
     </g>
     <g id="text_30">
      <!-- 400 -->
      <g style="fill: #ffffff" transform="translate(63.9125 156.360398) scale(0.1 -0.1)">
       <use xlink:href="#DejaVuSans-34"/>
       <use xlink:href="#DejaVuSans-30" x="63.623047"/>
       <use xlink:href="#DejaVuSans-30" x="127.246094"/>
      </g>
     </g>
    </g>
    <g id="ytick_5">
     <g id="line2d_59">
      <path d="M 90 89.435685 
L 648 89.435685 
" clip-path="url(#pa29fd46830)" style="fill: none; stroke: #ffffff; stroke-width: 0.8; stroke-linecap: square"/>
     </g>
     <g id="line2d_60">
      <g>
       <use xlink:href="#m23d94cb8c0" x="90" y="89.435685" style="fill: #ffffff; stroke: #ffffff; stroke-width: 0.8"/>
      </g>
     </g>
     <g id="text_31">
      <!-- 500 -->
      <g style="fill: #ffffff" transform="translate(63.9125 93.234904) scale(0.1 -0.1)">
       <defs>
        <path id="DejaVuSans-35" d="M 691 4666 
L 3169 4666 
L 3169 4134 
L 1269 4134 
L 1269 2991 
Q 1406 3038 1543 3061 
Q 1681 3084 1819 3084 
Q 2600 3084 3056 2656 
Q 3513 2228 3513 1497 
Q 3513 744 3044 326 
Q 2575 -91 1722 -91 
Q 1428 -91 1123 -41 
Q 819 9 494 109 
L 494 744 
Q 775 591 1075 516 
Q 1375 441 1709 441 
Q 2250 441 2565 725 
Q 2881 1009 2881 1497 
Q 2881 1984 2565 2268 
Q 2250 2553 1709 2553 
Q 1456 2553 1204 2497 
Q 953 2441 691 2322 
L 691 4666 
z
" transform="scale(0.015625)"/>
       </defs>
       <use xlink:href="#DejaVuSans-35"/>
       <use xlink:href="#DejaVuSans-30" x="63.623047"/>
       <use xlink:href="#DejaVuSans-30" x="127.246094"/>
      </g>
     </g>
    </g>
    <g id="text_32">
     <!-- time (ms) -->
     <g style="fill: #ffffff" transform="translate(57.832812 242.421719) rotate(-90) scale(0.1 -0.1)">
      <defs>
       <path id="DejaVuSans-74" d="M 1172 4494 
L 1172 3500 
L 2356 3500 
L 2356 3053 
L 1172 3053 
L 1172 1153 
Q 1172 725 1289 603 
Q 1406 481 1766 481 
L 2356 481 
L 2356 0 
L 1766 0 
Q 1100 0 847 248 
Q 594 497 594 1153 
L 594 3053 
L 172 3053 
L 172 3500 
L 594 3500 
L 594 4494 
L 1172 4494 
z
" transform="scale(0.015625)"/>
       <path id="DejaVuSans-69" d="M 603 3500 
L 1178 3500 
L 1178 0 
L 603 0 
L 603 3500 
z
M 603 4863 
L 1178 4863 
L 1178 4134 
L 603 4134 
L 603 4863 
z
" transform="scale(0.015625)"/>
       <path id="DejaVuSans-6d" d="M 3328 2828 
Q 3544 3216 3844 3400 
Q 4144 3584 4550 3584 
Q 5097 3584 5394 3201 
Q 5691 2819 5691 2113 
L 5691 0 
L 5113 0 
L 5113 2094 
Q 5113 2597 4934 2840 
Q 4756 3084 4391 3084 
Q 3944 3084 3684 2787 
Q 3425 2491 3425 1978 
L 3425 0 
L 2847 0 
L 2847 2094 
Q 2847 2600 2669 2842 
Q 2491 3084 2119 3084 
Q 1678 3084 1418 2786 
Q 1159 2488 1159 1978 
L 1159 0 
L 581 0 
L 581 3500 
L 1159 3500 
L 1159 2956 
Q 1356 3278 1631 3431 
Q 1906 3584 2284 3584 
Q 2666 3584 2933 3390 
Q 3200 3197 3328 2828 
z
" transform="scale(0.015625)"/>
       <path id="DejaVuSans-20" transform="scale(0.015625)"/>
       <path id="DejaVuSans-28" d="M 1984 4856 
Q 1566 4138 1362 3434 
Q 1159 2731 1159 2009 
Q 1159 1288 1364 580 
Q 1569 -128 1984 -844 
L 1484 -844 
Q 1016 -109 783 600 
Q 550 1309 550 2009 
Q 550 2706 781 3412 
Q 1013 4119 1484 4856 
L 1984 4856 
z
" transform="scale(0.015625)"/>
       <path id="DejaVuSans-73" d="M 2834 3397 
L 2834 2853 
Q 2591 2978 2328 3040 
Q 2066 3103 1784 3103 
Q 1356 3103 1142 2972 
Q 928 2841 928 2578 
Q 928 2378 1081 2264 
Q 1234 2150 1697 2047 
L 1894 2003 
Q 2506 1872 2764 1633 
Q 3022 1394 3022 966 
Q 3022 478 2636 193 
Q 2250 -91 1575 -91 
Q 1294 -91 989 -36 
Q 684 19 347 128 
L 347 722 
Q 666 556 975 473 
Q 1284 391 1588 391 
Q 1994 391 2212 530 
Q 2431 669 2431 922 
Q 2431 1156 2273 1281 
Q 2116 1406 1581 1522 
L 1381 1569 
Q 847 1681 609 1914 
Q 372 2147 372 2553 
Q 372 3047 722 3315 
Q 1072 3584 1716 3584 
Q 2034 3584 2315 3537 
Q 2597 3491 2834 3397 
z
" transform="scale(0.015625)"/>
       <path id="DejaVuSans-29" d="M 513 4856 
L 1013 4856 
Q 1481 4119 1714 3412 
Q 1947 2706 1947 2009 
Q 1947 1309 1714 600 
Q 1481 -109 1013 -844 
L 513 -844 
Q 928 -128 1133 580 
Q 1338 1288 1338 2009 
Q 1338 2731 1133 3434 
Q 928 4138 513 4856 
z
" transform="scale(0.015625)"/>
      </defs>
      <use xlink:href="#DejaVuSans-74"/>
      <use xlink:href="#DejaVuSans-69" x="39.208984"/>
      <use xlink:href="#DejaVuSans-6d" x="66.992188"/>
      <use xlink:href="#DejaVuSans-65" x="164.404297"/>
      <use xlink:href="#DejaVuSans-20" x="225.927734"/>
      <use xlink:href="#DejaVuSans-28" x="257.714844"/>
      <use xlink:href="#DejaVuSans-6d" x="296.728516"/>
      <use xlink:href="#DejaVuSans-73" x="394.140625"/>
      <use xlink:href="#DejaVuSans-29" x="446.240234"/>
     </g>
    </g>
   </g>
   <g id="line2d_61">
    <path d="M 115.363636 337.834411 
L 117.057368 342.2893 
L 118.7511 346.298432 
L 120.444832 349.88216 
L 122.138564 353.060838 
L 123.832296 355.854821 
L 125.526028 358.284462 
L 127.21976 360.370114 
L 128.913492 362.132132 
L 130.607224 363.59087 
L 132.300956 364.766682 
L 133.994688 365.679921 
L 135.68842 366.35094 
L 137.382152 366.800095 
L 139.075884 367.047739 
L 140.769616 367.114225 
L 143.310214 366.918809 
L 145.850812 366.430279 
L 148.39141 365.717329 
L 151.778874 364.536364 
L 160.247534 361.426385 
L 165.32873 359.918525 
L 171.256792 358.415064 
L 198.356503 352.053383 
L 203.437699 351.209159 
L 210.212627 350.334596 
L 221.221885 348.925381 
L 227.149947 347.884529 
L 233.078009 346.590781 
L 239.006071 345.054181 
L 244.934133 343.289491 
L 254.249659 340.455725 
L 258.483988 339.40037 
L 261.871452 338.763268 
L 265.258916 338.365415 
L 268.64638 338.188701 
L 273.727576 338.174008 
L 282.196236 338.179286 
L 285.5837 337.969295 
L 289.81803 337.443886 
L 294.899226 336.532165 
L 313.530278 332.831206 
L 320.305206 331.881968 
L 327.080134 331.15686 
L 340.629989 329.830338 
L 344.864319 329.136409 
L 348.251783 328.385624 
L 352.486113 327.182392 
L 360.107907 324.670769 
L 365.189103 323.101043 
L 368.576567 322.249582 
L 371.964031 321.625623 
L 376.198361 321.10873 
L 382.973289 320.57354 
L 388.901351 320.024262 
L 393.135681 319.384964 
L 398.216877 318.360739 
L 410.073 315.824523 
L 415.154196 315.059285 
L 421.929124 314.091124 
L 425.316588 313.400485 
L 427.857186 312.70844 
L 430.397784 311.819371 
L 432.938382 310.690427 
L 435.47898 309.31563 
L 439.71331 306.685235 
L 445.641372 302.951567 
L 448.18197 301.569215 
L 450.722568 300.44028 
L 452.4163 299.870409 
L 454.110032 299.475831 
L 455.803764 299.264557 
L 457.497496 299.218421 
L 460.038094 299.414188 
L 462.578692 299.866667 
L 465.966156 300.750202 
L 476.975414 303.960514 
L 480.362878 304.54172 
L 482.903475 304.786682 
L 485.444073 304.855849 
L 487.984671 304.738307 
L 490.525269 304.423139 
L 493.065867 303.89943 
L 495.606465 303.156262 
L 498.147063 302.19078 
L 501.534527 300.626607 
L 506.615723 297.936724 
L 512.543785 294.77254 
L 515.931249 293.191297 
L 518.471847 292.205251 
L 521.012445 291.407543 
L 524.399909 290.606221 
L 527.787373 290.064589 
L 531.174837 289.738936 
L 535.409167 289.568999 
L 540.490363 289.598512 
L 548.959023 289.685337 
L 552.346487 289.525365 
L 555.733951 289.146532 
L 558.274548 288.675627 
L 560.815146 288.014216 
L 564.20261 286.87017 
L 568.43694 285.180041 
L 576.058734 282.093181 
L 579.446198 280.984934 
L 581.986796 280.35837 
L 584.527394 279.917429 
L 587.914858 279.578702 
L 591.302322 279.473931 
L 595.536652 279.587487 
L 601.464714 280.008805 
L 609.933374 280.601499 
L 614.167704 280.655506 
L 617.555168 280.483607 
L 620.942632 280.060428 
L 622.636364 279.737278 
L 622.636364 279.737278 
" clip-path="url(#pa29fd46830)" style="fill: none; stroke: #8dd3c7; stroke-width: 1.5; stroke-linecap: square"/>
   </g>
   <g id="line2d_62">
    <path d="M 115.363636 334.630302 
L 117.057368 339.382615 
L 118.7511 343.677821 
L 120.444832 347.536039 
L 122.138564 350.977386 
L 123.832296 354.021982 
L 125.526028 356.689946 
L 127.21976 359.001396 
L 128.913492 360.976451 
L 130.607224 362.635229 
L 132.300956 363.99785 
L 133.994688 365.084432 
L 135.68842 365.915093 
L 137.382152 366.509953 
L 139.075884 366.889131 
L 140.769616 367.072744 
L 142.463348 367.080912 
L 145.003946 366.808214 
L 147.544544 366.253931 
L 150.085142 365.485965 
L 154.319472 363.915591 
L 161.941266 361.01809 
L 167.022462 359.361003 
L 172.103658 357.951526 
L 177.184854 356.802365 
L 182.266049 355.917859 
L 189.887843 354.882046 
L 196.662771 353.91315 
L 200.897101 353.128313 
L 205.978297 351.937295 
L 212.753225 350.08228 
L 223.762483 347.031829 
L 229.690545 345.636188 
L 234.771741 344.637381 
L 239.852937 343.8493 
L 244.934133 343.294149 
L 262.718318 341.658014 
L 266.952648 340.869044 
L 272.033844 339.666504 
L 289.81803 335.147787 
L 295.746092 334.026797 
L 301.674154 333.144862 
L 307.602216 332.494158 
L 321.998938 331.098486 
L 326.233268 330.405972 
L 330.467598 329.463767 
L 336.395659 327.860465 
L 344.864319 325.541569 
L 349.098649 324.61014 
L 353.332979 323.91859 
L 358.414175 323.336875 
L 365.189103 322.817908 
L 377.045227 321.962458 
L 382.126423 321.390494 
L 386.360753 320.734647 
L 390.595083 319.866557 
L 394.829413 318.76585 
L 399.910609 317.216049 
L 428.704052 307.757241 
L 433.785248 305.756257 
L 442.253908 302.279378 
L 444.794506 301.456374 
L 447.335104 300.839828 
L 449.875702 300.48874 
L 451.569434 300.431295 
L 453.263166 300.535536 
L 454.956898 300.814137 
L 457.497496 301.512687 
L 460.038094 302.450971 
L 469.35362 306.176801 
L 471.894218 306.789263 
L 473.58795 306.993553 
L 475.281682 306.997292 
L 476.975414 306.790819 
L 478.669146 306.397148 
L 481.209744 305.511684 
L 483.750341 304.349121 
L 487.137805 302.517427 
L 494.759599 298.218455 
L 497.300197 297.034248 
L 499.840795 296.04931 
L 503.228259 294.991021 
L 507.462589 293.967505 
L 514.237517 292.66019 
L 520.165579 291.436061 
L 528.634239 289.379424 
L 537.102899 287.393539 
L 542.184095 286.432779 
L 547.265291 285.685776 
L 552.346487 285.137675 
L 558.274548 284.729601 
L 565.896342 284.48305 
L 572.67127 284.213626 
L 576.9056 283.854374 
L 580.293064 283.389837 
L 584.527394 282.550441 
L 591.302322 280.882025 
L 597.230384 279.488596 
L 600.617848 278.877417 
L 604.005312 278.491105 
L 606.54591 278.392383 
L 609.086508 278.491238 
L 611.627106 278.818139 
L 614.167704 279.403552 
L 616.708302 280.277944 
L 619.2489 281.471782 
L 621.789498 283.015535 
L 622.636364 283.613144 
L 622.636364 283.613144 
" clip-path="url(#pa29fd46830)" style="fill: none; stroke: #feffb3; stroke-width: 1.5; stroke-linecap: square"/>
   </g>
   <g id="line2d_63">
    <path d="M 115.363636 337.882471 
L 117.057368 342.575862 
L 118.7511 346.776137 
L 120.444832 350.507092 
L 122.138564 353.792521 
L 123.832296 356.656221 
L 125.526028 359.121985 
L 127.21976 361.21361 
L 128.913492 362.95489 
L 130.607224 364.36962 
L 132.300956 365.481596 
L 133.994688 366.314614 
L 135.68842 366.892467 
L 137.382152 367.238952 
L 139.075884 367.377863 
L 140.769616 367.332996 
L 143.310214 366.973163 
L 145.850812 366.333676 
L 149.238276 365.184817 
L 158.553802 361.751353 
L 161.941266 360.877256 
L 166.175596 360.064769 
L 179.725452 357.801011 
L 183.959781 356.707968 
L 189.887843 354.915384 
L 198.356503 352.357277 
L 202.590833 351.306971 
L 207.672029 350.2789 
L 223.762483 347.214247 
L 231.384277 345.305368 
L 239.852937 343.219182 
L 244.934133 342.198209 
L 250.015329 341.399589 
L 256.790256 340.584785 
L 267.799514 339.546387 
L 295.746092 336.956444 
L 300.827288 336.214315 
L 305.061618 335.405909 
L 309.295948 334.392293 
L 316.070876 332.505576 
L 323.69267 330.404997 
L 327.927 329.435808 
L 333.008195 328.525433 
L 349.098649 325.894972 
L 354.179845 324.685085 
L 362.648505 322.379504 
L 370.270299 320.36527 
L 376.198361 319.033472 
L 382.126423 317.916992 
L 388.901351 316.884518 
L 395.676279 316.081808 
L 406.685537 315.042651 
L 416.847928 314.02825 
L 422.77599 313.226136 
L 427.857186 312.309395 
L 432.091516 311.329527 
L 436.325846 310.131426 
L 449.875702 306.057286 
L 453.263166 305.315209 
L 456.65063 304.795114 
L 460.88496 304.395043 
L 468.506754 303.983946 
L 473.58795 303.620188 
L 477.82228 303.086012 
L 482.903475 302.170229 
L 489.678403 300.677085 
L 499.840795 298.414967 
L 509.156321 296.631677 
L 532.021703 292.420744 
L 537.949765 291.04621 
L 552.346487 287.455757 
L 555.733951 286.910585 
L 559.121414 286.611671 
L 562.508878 286.592745 
L 567.590074 286.866677 
L 572.67127 287.105974 
L 576.058734 287.025474 
L 578.599332 286.744902 
L 581.13993 286.21406 
L 583.680528 285.41954 
L 587.067992 284.048972 
L 591.302322 282.046392 
L 597.230384 279.227255 
L 600.617848 277.882993 
L 603.158446 277.116835 
L 605.699044 276.628401 
L 607.392776 276.488298 
L 609.086508 276.518469 
L 610.78024 276.737653 
L 612.473972 277.164584 
L 614.167704 277.818001 
L 615.861436 278.71664 
L 617.555168 279.879238 
L 619.2489 281.324531 
L 620.942632 283.071257 
L 622.636364 285.138151 
L 622.636364 285.138151 
" clip-path="url(#pa29fd46830)" style="fill: none; stroke: #bfbbd9; stroke-width: 1.5; stroke-linecap: square"/>
   </g>
   <g id="line2d_64">
    <path d="M 115.363636 334.937486 
L 117.057368 340.187141 
L 118.7511 344.871805 
L 120.444832 349.019386 
L 122.138564 352.657792 
L 123.832296 355.814933 
L 125.526028 358.518715 
L 127.21976 360.797048 
L 128.913492 362.67784 
L 130.607224 364.188999 
L 132.300956 365.358434 
L 133.994688 366.214053 
L 135.68842 366.783764 
L 137.382152 367.095476 
L 139.075884 367.177097 
L 140.769616 367.056535 
L 142.463348 366.7617 
L 145.003946 366.053731 
L 147.544544 365.110631 
L 152.62574 362.895796 
L 156.013204 361.478147 
L 158.553802 360.603496 
L 161.0944 359.940915 
L 164.481864 359.323773 
L 168.716194 358.839922 
L 178.878586 357.868482 
L 182.266049 357.282473 
L 186.500379 356.33805 
L 194.122173 354.350503 
L 200.897101 352.676403 
L 206.825163 351.500183 
L 221.221885 348.809268 
L 227.149947 347.360449 
L 240.699803 343.913798 
L 245.780999 342.928705 
L 251.709061 342.054176 
L 260.17772 341.076272 
L 271.186978 339.764102 
L 279.655638 338.511696 
L 287.277432 337.141147 
L 296.592958 335.204709 
L 310.98968 332.213965 
L 319.45834 330.698011 
L 327.080134 329.539512 
L 342.323721 327.369247 
L 347.404917 326.331728 
L 351.639247 325.239022 
L 364.342237 321.77226 
L 367.729701 321.124018 
L 371.117165 320.716491 
L 375.351495 320.501331 
L 388.054485 320.182847 
L 391.441949 319.765356 
L 394.829413 319.110219 
L 399.910609 317.845554 
L 408.379268 315.655706 
L 411.766732 314.985389 
L 416.001062 314.414267 
L 427.857186 313.07325 
L 431.24465 312.367392 
L 433.785248 311.641687 
L 437.172712 310.428442 
L 442.253908 308.321701 
L 448.18197 305.911834 
L 451.569434 304.791556 
L 454.110032 304.165548 
L 456.65063 303.751995 
L 460.038094 303.471583 
L 464.272424 303.420337 
L 475.281682 303.544475 
L 479.516012 303.233164 
L 483.750341 302.693287 
L 489.678403 301.688148 
L 512.543785 297.341549 
L 518.471847 295.930585 
L 534.562301 291.802072 
L 537.949765 291.217204 
L 542.184095 290.747039 
L 555.733951 289.584999 
L 559.121414 288.937976 
L 562.508878 288.014147 
L 568.43694 286.054831 
L 572.67127 284.739241 
L 576.058734 283.94766 
L 578.599332 283.59827 
L 581.13993 283.523516 
L 583.680528 283.741121 
L 586.221126 284.200446 
L 589.60859 285.090139 
L 594.689786 286.743721 
L 599.770982 288.373876 
L 603.158446 289.22192 
L 605.699044 289.636341 
L 608.239642 289.797329 
L 609.933374 289.735644 
L 611.627106 289.519002 
L 613.320838 289.130472 
L 615.01457 288.553129 
L 616.708302 287.770042 
L 618.402034 286.764284 
L 620.095766 285.518927 
L 621.789498 284.017042 
L 622.636364 283.164611 
L 622.636364 283.164611 
" clip-path="url(#pa29fd46830)" style="fill: none; stroke: #fa8174; stroke-width: 1.5; stroke-linecap: square"/>
   </g>
   <g id="line2d_65">
    <path d="M 115.363636 337.991752 
L 117.057368 342.771808 
L 118.7511 347.033016 
L 120.444832 350.801173 
L 122.138564 354.102074 
L 123.832296 356.961517 
L 125.526028 359.405297 
L 127.21976 361.45921 
L 128.913492 363.149054 
L 130.607224 364.500624 
L 132.300956 365.539717 
L 133.994688 366.292129 
L 135.68842 366.783656 
L 137.382152 367.040095 
L 139.075884 367.087241 
L 140.769616 366.950892 
L 143.310214 366.458743 
L 145.850812 365.698832 
L 149.238276 364.419579 
L 156.013204 361.722827 
L 158.553802 360.929025 
L 161.0944 360.337134 
L 164.481864 359.796155 
L 168.716194 359.374819 
L 177.184854 358.621644 
L 180.572317 358.074368 
L 184.806647 357.115653 
L 191.581575 355.270509 
L 197.509637 353.736319 
L 200.897101 353.049725 
L 205.131431 352.431924 
L 217.834421 350.806298 
L 221.221885 350.063445 
L 224.609349 349.074001 
L 228.843679 347.589486 
L 239.006071 343.868512 
L 242.393535 342.881256 
L 245.780999 342.134291 
L 250.015329 341.467976 
L 255.94339 340.804802 
L 262.718318 340.022364 
L 266.952648 339.320255 
L 272.88071 338.096775 
L 283.043102 335.945392 
L 288.124298 335.126991 
L 293.205494 334.529729 
L 299.980422 333.970967 
L 317.764608 332.665877 
L 321.998938 332.070872 
L 326.233268 331.237294 
L 330.467598 330.125666 
L 337.242525 328.024016 
L 343.170587 326.255754 
L 346.558051 325.432949 
L 349.945515 324.832039 
L 353.332979 324.445576 
L 358.414175 324.130165 
L 369.423433 323.58623 
L 373.657763 323.098422 
L 377.892093 322.401545 
L 382.973289 321.311501 
L 388.054485 319.970307 
L 393.982547 318.134692 
L 404.991805 314.624309 
L 409.226134 313.530804 
L 412.613598 312.860264 
L 416.847928 312.260167 
L 426.163454 311.06751 
L 429.550918 310.39475 
L 432.091516 309.717503 
L 435.47898 308.540851 
L 439.71331 306.782819 
L 445.641372 304.289987 
L 449.028836 303.113296 
L 451.569434 302.459427 
L 454.110032 302.068884 
L 456.65063 301.962948 
L 459.191228 302.080479 
L 462.578692 302.46119 
L 470.200486 303.427373 
L 472.741084 303.528865 
L 475.281682 303.401164 
L 477.82228 303.013201 
L 480.362878 302.414953 
L 483.750341 301.393408 
L 493.912733 298.138515 
L 496.453331 297.595119 
L 499.840795 297.159441 
L 504.075125 296.91071 
L 510.850053 296.588349 
L 514.237517 296.181372 
L 516.778115 295.660247 
L 519.318713 294.90872 
L 522.706177 293.626083 
L 533.715435 289.087863 
L 536.256033 288.361054 
L 538.796631 287.896679 
L 541.337229 287.71395 
L 543.877827 287.745837 
L 548.112157 288.069361 
L 553.193353 288.469956 
L 555.733951 288.497868 
L 558.274548 288.309457 
L 560.815146 287.834421 
L 563.355744 287.080447 
L 565.896342 286.11143 
L 570.130672 284.195436 
L 576.9056 281.016379 
L 580.293064 279.702569 
L 582.833662 278.950972 
L 585.37426 278.397895 
L 588.761724 277.929306 
L 592.149188 277.717733 
L 596.383518 277.7312 
L 601.464714 278.013703 
L 613.320838 278.80375 
L 617.555168 278.791346 
L 620.942632 278.551624 
L 622.636364 278.336323 
L 622.636364 278.336323 
" clip-path="url(#pa29fd46830)" style="fill: none; stroke: #81b1d2; stroke-width: 1.5; stroke-linecap: square"/>
   </g>
   <g id="line2d_66">
    <path d="M 115.363636 335.355625 
L 117.057368 340.683963 
L 118.7511 345.422465 
L 120.444832 349.601129 
L 122.138564 353.249954 
L 123.832296 356.398939 
L 125.526028 359.078081 
L 127.21976 361.317381 
L 128.913492 363.146835 
L 130.607224 364.596443 
L 132.300956 365.696204 
L 133.994688 366.476116 
L 135.68842 366.966178 
L 137.382152 367.196388 
L 139.075884 367.196745 
L 140.769616 366.997247 
L 143.310214 366.388896 
L 145.850812 365.499614 
L 149.238276 364.051895 
L 155.166338 361.471576 
L 157.706936 360.609975 
L 160.247534 360.012699 
L 162.788132 359.647755 
L 166.175596 359.425621 
L 171.256792 359.389051 
L 176.337988 359.30957 
L 179.725452 359.011898 
L 183.112915 358.432084 
L 186.500379 357.626684 
L 191.581575 356.146682 
L 201.743967 353.059781 
L 207.672029 351.583667 
L 224.609349 347.572048 
L 245.780999 341.887027 
L 252.555927 340.517512 
L 261.024586 339.073162 
L 272.033844 337.431555 
L 278.808772 336.624029 
L 284.736834 336.132472 
L 291.511762 335.823269 
L 299.980422 335.423454 
L 305.061618 334.941268 
L 309.295948 334.297926 
L 314.377144 333.272582 
L 321.152072 331.644494 
L 334.701927 328.333098 
L 347.404917 325.523361 
L 360.954773 322.724307 
L 368.576567 321.363764 
L 377.045227 320.108677 
L 389.748217 318.260089 
L 397.370011 316.878084 
L 423.622856 311.637714 
L 428.704052 310.3961 
L 432.938382 309.147054 
L 438.866444 307.097098 
L 444.794506 305.116605 
L 448.18197 304.214302 
L 450.722568 303.720647 
L 453.263166 303.42896 
L 455.803764 303.367407 
L 459.191228 303.568102 
L 465.11929 304.26302 
L 469.35362 304.640719 
L 471.894218 304.674937 
L 474.434816 304.485141 
L 476.975414 304.022588 
L 479.516012 303.32691 
L 482.903475 302.156194 
L 491.372135 299.029628 
L 493.912733 298.319022 
L 496.453331 297.835901 
L 498.993929 297.601497 
L 502.381393 297.551185 
L 510.003187 297.589918 
L 512.543785 297.359181 
L 515.084383 296.870496 
L 516.778115 296.361069 
L 518.471847 295.683128 
L 521.012445 294.395125 
L 524.399909 292.335141 
L 532.021703 287.482384 
L 534.562301 286.171319 
L 536.256033 285.473209 
L 537.949765 284.952161 
L 539.643497 284.63183 
L 541.337229 284.497441 
L 543.877827 284.585242 
L 546.418425 284.939022 
L 549.805889 285.666428 
L 555.733951 287.034071 
L 558.274548 287.420021 
L 560.815146 287.559389 
L 563.355744 287.442511 
L 565.896342 287.114618 
L 569.283806 286.429452 
L 574.365002 285.093936 
L 581.13993 283.316433 
L 585.37426 282.491048 
L 589.60859 281.893652 
L 594.689786 281.418851 
L 600.617848 281.107365 
L 610.78024 280.863059 
L 619.2489 280.583286 
L 622.636364 280.370812 
L 622.636364 280.370812 
" clip-path="url(#pa29fd46830)" style="fill: none; stroke: #fdb462; stroke-width: 1.5; stroke-linecap: square"/>
   </g>
   <g id="patch_3">
    <path d="M 90 384.48 
L 90 51.84 
" style="fill: none; stroke: #ffffff; stroke-width: 0.8; stroke-linejoin: miter; stroke-linecap: square"/>
   </g>
   <g id="patch_4">
    <path d="M 648 384.48 
L 648 51.84 
" style="fill: none; stroke: #ffffff; stroke-width: 0.8; stroke-linejoin: miter; stroke-linecap: square"/>
   </g>
   <g id="patch_5">
    <path d="M 90 384.48 
L 648 384.48 
" style="fill: none; stroke: #ffffff; stroke-width: 0.8; stroke-linejoin: miter; stroke-linecap: square"/>
   </g>
   <g id="patch_6">
    <path d="M 90 51.84 
L 648 51.84 
" style="fill: none; stroke: #ffffff; stroke-width: 0.8; stroke-linejoin: miter; stroke-linecap: square"/>
   </g>
   <g id="text_33">
    <!-- caio.python_aio_asyncio - read (Time vs Concurrency) -->
    <g style="fill: #ffffff" transform="translate(207.036563 45.84) scale(0.12 -0.12)">
     <defs>
      <path id="DejaVuSans-61" d="M 2194 1759 
Q 1497 1759 1228 1600 
Q 959 1441 959 1056 
Q 959 750 1161 570 
Q 1363 391 1709 391 
Q 2188 391 2477 730 
Q 2766 1069 2766 1631 
L 2766 1759 
L 2194 1759 
z
M 3341 1997 
L 3341 0 
L 2766 0 
L 2766 531 
Q 2569 213 2275 61 
Q 1981 -91 1556 -91 
Q 1019 -91 701 211 
Q 384 513 384 1019 
Q 384 1609 779 1909 
Q 1175 2209 1959 2209 
L 2766 2209 
L 2766 2266 
Q 2766 2663 2505 2880 
Q 2244 3097 1772 3097 
Q 1472 3097 1187 3025 
Q 903 2953 641 2809 
L 641 3341 
Q 956 3463 1253 3523 
Q 1550 3584 1831 3584 
Q 2591 3584 2966 3190 
Q 3341 2797 3341 1997 
z
" transform="scale(0.015625)"/>
      <path id="DejaVuSans-2e" d="M 684 794 
L 1344 794 
L 1344 0 
L 684 0 
L 684 794 
z
" transform="scale(0.015625)"/>
      <path id="DejaVuSans-70" d="M 1159 525 
L 1159 -1331 
L 581 -1331 
L 581 3500 
L 1159 3500 
L 1159 2969 
Q 1341 3281 1617 3432 
Q 1894 3584 2278 3584 
Q 2916 3584 3314 3078 
Q 3713 2572 3713 1747 
Q 3713 922 3314 415 
Q 2916 -91 2278 -91 
Q 1894 -91 1617 61 
Q 1341 213 1159 525 
z
M 3116 1747 
Q 3116 2381 2855 2742 
Q 2594 3103 2138 3103 
Q 1681 3103 1420 2742 
Q 1159 2381 1159 1747 
Q 1159 1113 1420 752 
Q 1681 391 2138 391 
Q 2594 391 2855 752 
Q 3116 1113 3116 1747 
z
" transform="scale(0.015625)"/>
      <path id="DejaVuSans-68" d="M 3513 2113 
L 3513 0 
L 2938 0 
L 2938 2094 
Q 2938 2591 2744 2837 
Q 2550 3084 2163 3084 
Q 1697 3084 1428 2787 
Q 1159 2491 1159 1978 
L 1159 0 
L 581 0 
L 581 4863 
L 1159 4863 
L 1159 2956 
Q 1366 3272 1645 3428 
Q 1925 3584 2291 3584 
Q 2894 3584 3203 3211 
Q 3513 2838 3513 2113 
z
" transform="scale(0.015625)"/>
      <path id="DejaVuSans-5f" d="M 3263 -1063 
L 3263 -1509 
L -63 -1509 
L -63 -1063 
L 3263 -1063 
z
" transform="scale(0.015625)"/>
      <path id="DejaVuSans-2d" d="M 313 2009 
L 1997 2009 
L 1997 1497 
L 313 1497 
L 313 2009 
z
" transform="scale(0.015625)"/>
      <path id="DejaVuSans-64" d="M 2906 2969 
L 2906 4863 
L 3481 4863 
L 3481 0 
L 2906 0 
L 2906 525 
Q 2725 213 2448 61 
Q 2172 -91 1784 -91 
Q 1150 -91 751 415 
Q 353 922 353 1747 
Q 353 2572 751 3078 
Q 1150 3584 1784 3584 
Q 2172 3584 2448 3432 
Q 2725 3281 2906 2969 
z
M 947 1747 
Q 947 1113 1208 752 
Q 1469 391 1925 391 
Q 2381 391 2643 752 
Q 2906 1113 2906 1747 
Q 2906 2381 2643 2742 
Q 2381 3103 1925 3103 
Q 1469 3103 1208 2742 
Q 947 2381 947 1747 
z
" transform="scale(0.015625)"/>
      <path id="DejaVuSans-54" d="M -19 4666 
L 3928 4666 
L 3928 4134 
L 2272 4134 
L 2272 0 
L 1638 0 
L 1638 4134 
L -19 4134 
L -19 4666 
z
" transform="scale(0.015625)"/>
      <path id="DejaVuSans-76" d="M 191 3500 
L 800 3500 
L 1894 563 
L 2988 3500 
L 3597 3500 
L 2284 0 
L 1503 0 
L 191 3500 
z
" transform="scale(0.015625)"/>
      <path id="DejaVuSans-43" d="M 4122 4306 
L 4122 3641 
Q 3803 3938 3442 4084 
Q 3081 4231 2675 4231 
Q 1875 4231 1450 3742 
Q 1025 3253 1025 2328 
Q 1025 1406 1450 917 
Q 1875 428 2675 428 
Q 3081 428 3442 575 
Q 3803 722 4122 1019 
L 4122 359 
Q 3791 134 3420 21 
Q 3050 -91 2638 -91 
Q 1578 -91 968 557 
Q 359 1206 359 2328 
Q 359 3453 968 4101 
Q 1578 4750 2638 4750 
Q 3056 4750 3426 4639 
Q 3797 4528 4122 4306 
z
" transform="scale(0.015625)"/>
     </defs>
     <use xlink:href="#DejaVuSans-63"/>
     <use xlink:href="#DejaVuSans-61" x="54.980469"/>
     <use xlink:href="#DejaVuSans-69" x="116.259766"/>
     <use xlink:href="#DejaVuSans-6f" x="144.042969"/>
     <use xlink:href="#DejaVuSans-2e" x="203.474609"/>
     <use xlink:href="#DejaVuSans-70" x="235.261719"/>
     <use xlink:href="#DejaVuSans-79" x="298.738281"/>
     <use xlink:href="#DejaVuSans-74" x="357.917969"/>
     <use xlink:href="#DejaVuSans-68" x="397.126953"/>
     <use xlink:href="#DejaVuSans-6f" x="460.505859"/>
     <use xlink:href="#DejaVuSans-6e" x="521.6875"/>
     <use xlink:href="#DejaVuSans-5f" x="585.066406"/>
     <use xlink:href="#DejaVuSans-61" x="635.066406"/>
     <use xlink:href="#DejaVuSans-69" x="696.345703"/>
     <use xlink:href="#DejaVuSans-6f" x="724.128906"/>
     <use xlink:href="#DejaVuSans-5f" x="785.310547"/>
     <use xlink:href="#DejaVuSans-61" x="835.310547"/>
     <use xlink:href="#DejaVuSans-73" x="896.589844"/>
     <use xlink:href="#DejaVuSans-79" x="948.689453"/>
     <use xlink:href="#DejaVuSans-6e" x="1007.869141"/>
     <use xlink:href="#DejaVuSans-63" x="1071.248047"/>
     <use xlink:href="#DejaVuSans-69" x="1126.228516"/>
     <use xlink:href="#DejaVuSans-6f" x="1154.011719"/>
     <use xlink:href="#DejaVuSans-20" x="1215.193359"/>
     <use xlink:href="#DejaVuSans-2d" x="1246.980469"/>
     <use xlink:href="#DejaVuSans-20" x="1283.064453"/>
     <use xlink:href="#DejaVuSans-72" x="1314.851562"/>
     <use xlink:href="#DejaVuSans-65" x="1353.714844"/>
     <use xlink:href="#DejaVuSans-61" x="1415.238281"/>
     <use xlink:href="#DejaVuSans-64" x="1476.517578"/>
     <use xlink:href="#DejaVuSans-20" x="1539.994141"/>
     <use xlink:href="#DejaVuSans-28" x="1571.78125"/>
     <use xlink:href="#DejaVuSans-54" x="1610.794922"/>
     <use xlink:href="#DejaVuSans-69" x="1668.753906"/>
     <use xlink:href="#DejaVuSans-6d" x="1696.537109"/>
     <use xlink:href="#DejaVuSans-65" x="1793.949219"/>
     <use xlink:href="#DejaVuSans-20" x="1855.472656"/>
     <use xlink:href="#DejaVuSans-76" x="1887.259766"/>
     <use xlink:href="#DejaVuSans-73" x="1946.439453"/>
     <use xlink:href="#DejaVuSans-20" x="1998.539062"/>
     <use xlink:href="#DejaVuSans-43" x="2030.326172"/>
     <use xlink:href="#DejaVuSans-6f" x="2100.150391"/>
     <use xlink:href="#DejaVuSans-6e" x="2161.332031"/>
     <use xlink:href="#DejaVuSans-63" x="2224.710938"/>
     <use xlink:href="#DejaVuSans-75" x="2279.691406"/>
     <use xlink:href="#DejaVuSans-72" x="2343.070312"/>
     <use xlink:href="#DejaVuSans-72" x="2382.433594"/>
     <use xlink:href="#DejaVuSans-65" x="2421.296875"/>
     <use xlink:href="#DejaVuSans-6e" x="2482.820312"/>
     <use xlink:href="#DejaVuSans-63" x="2546.199219"/>
     <use xlink:href="#DejaVuSans-79" x="2601.179688"/>
     <use xlink:href="#DejaVuSans-29" x="2660.359375"/>
    </g>
   </g>
   <g id="legend_1">
    <g id="patch_7">
     <path d="M 543.43125 149.5775 
L 641 149.5775 
Q 643 149.5775 643 147.5775 
L 643 58.84 
Q 643 56.84 641 56.84 
L 543.43125 56.84 
Q 541.43125 56.84 541.43125 58.84 
L 541.43125 147.5775 
Q 541.43125 149.5775 543.43125 149.5775 
z
" style="opacity: 0.8; stroke: #cccccc; stroke-linejoin: miter"/>
    </g>
    <g id="line2d_67">
     <path d="M 545.43125 64.938437 
L 555.43125 64.938437 
L 565.43125 64.938437 
" style="fill: none; stroke: #8dd3c7; stroke-width: 1.5; stroke-linecap: square"/>
    </g>
    <g id="text_34">
     <!-- max_ops=1 -->
     <g style="fill: #ffffff" transform="translate(573.43125 68.438437) scale(0.1 -0.1)">
      <defs>
       <path id="DejaVuSans-78" d="M 3513 3500 
L 2247 1797 
L 3578 0 
L 2900 0 
L 1881 1375 
L 863 0 
L 184 0 
L 1544 1831 
L 300 3500 
L 978 3500 
L 1906 2253 
L 2834 3500 
L 3513 3500 
z
" transform="scale(0.015625)"/>
       <path id="DejaVuSans-3d" d="M 678 2906 
L 4684 2906 
L 4684 2381 
L 678 2381 
L 678 2906 
z
M 678 1631 
L 4684 1631 
L 4684 1100 
L 678 1100 
L 678 1631 
z
" transform="scale(0.015625)"/>
      </defs>
      <use xlink:href="#DejaVuSans-6d"/>
      <use xlink:href="#DejaVuSans-61" x="97.412109"/>
      <use xlink:href="#DejaVuSans-78" x="158.691406"/>
      <use xlink:href="#DejaVuSans-5f" x="217.871094"/>
      <use xlink:href="#DejaVuSans-6f" x="267.871094"/>
      <use xlink:href="#DejaVuSans-70" x="329.052734"/>
      <use xlink:href="#DejaVuSans-73" x="392.529297"/>
      <use xlink:href="#DejaVuSans-3d" x="444.628906"/>
      <use xlink:href="#DejaVuSans-31" x="528.417969"/>
     </g>
    </g>
    <g id="line2d_68">
     <path d="M 545.43125 79.894687 
L 555.43125 79.894687 
L 565.43125 79.894687 
" style="fill: none; stroke: #feffb3; stroke-width: 1.5; stroke-linecap: square"/>
    </g>
    <g id="text_35">
     <!-- max_ops=4 -->
     <g style="fill: #ffffff" transform="translate(573.43125 83.394687) scale(0.1 -0.1)">
      <use xlink:href="#DejaVuSans-6d"/>
      <use xlink:href="#DejaVuSans-61" x="97.412109"/>
      <use xlink:href="#DejaVuSans-78" x="158.691406"/>
      <use xlink:href="#DejaVuSans-5f" x="217.871094"/>
      <use xlink:href="#DejaVuSans-6f" x="267.871094"/>
      <use xlink:href="#DejaVuSans-70" x="329.052734"/>
      <use xlink:href="#DejaVuSans-73" x="392.529297"/>
      <use xlink:href="#DejaVuSans-3d" x="444.628906"/>
      <use xlink:href="#DejaVuSans-34" x="528.417969"/>
     </g>
    </g>
    <g id="line2d_69">
     <path d="M 545.43125 94.850937 
L 555.43125 94.850937 
L 565.43125 94.850937 
" style="fill: none; stroke: #bfbbd9; stroke-width: 1.5; stroke-linecap: square"/>
    </g>
    <g id="text_36">
     <!-- max_ops=8 -->
     <g style="fill: #ffffff" transform="translate(573.43125 98.350937) scale(0.1 -0.1)">
      <use xlink:href="#DejaVuSans-6d"/>
      <use xlink:href="#DejaVuSans-61" x="97.412109"/>
      <use xlink:href="#DejaVuSans-78" x="158.691406"/>
      <use xlink:href="#DejaVuSans-5f" x="217.871094"/>
      <use xlink:href="#DejaVuSans-6f" x="267.871094"/>
      <use xlink:href="#DejaVuSans-70" x="329.052734"/>
      <use xlink:href="#DejaVuSans-73" x="392.529297"/>
      <use xlink:href="#DejaVuSans-3d" x="444.628906"/>
      <use xlink:href="#DejaVuSans-38" x="528.417969"/>
     </g>
    </g>
    <g id="line2d_70">
     <path d="M 545.43125 109.807187 
L 555.43125 109.807187 
L 565.43125 109.807187 
" style="fill: none; stroke: #fa8174; stroke-width: 1.5; stroke-linecap: square"/>
    </g>
    <g id="text_37">
     <!-- max_ops=16 -->
     <g style="fill: #ffffff" transform="translate(573.43125 113.307187) scale(0.1 -0.1)">
      <use xlink:href="#DejaVuSans-6d"/>
      <use xlink:href="#DejaVuSans-61" x="97.412109"/>
      <use xlink:href="#DejaVuSans-78" x="158.691406"/>
      <use xlink:href="#DejaVuSans-5f" x="217.871094"/>
      <use xlink:href="#DejaVuSans-6f" x="267.871094"/>
      <use xlink:href="#DejaVuSans-70" x="329.052734"/>
      <use xlink:href="#DejaVuSans-73" x="392.529297"/>
      <use xlink:href="#DejaVuSans-3d" x="444.628906"/>
      <use xlink:href="#DejaVuSans-31" x="528.417969"/>
      <use xlink:href="#DejaVuSans-36" x="592.041016"/>
     </g>
    </g>
    <g id="line2d_71">
     <path d="M 545.43125 124.763437 
L 555.43125 124.763437 
L 565.43125 124.763437 
" style="fill: none; stroke: #81b1d2; stroke-width: 1.5; stroke-linecap: square"/>
    </g>
    <g id="text_38">
     <!-- max_ops=32 -->
     <g style="fill: #ffffff" transform="translate(573.43125 128.263437) scale(0.1 -0.1)">
      <use xlink:href="#DejaVuSans-6d"/>
      <use xlink:href="#DejaVuSans-61" x="97.412109"/>
      <use xlink:href="#DejaVuSans-78" x="158.691406"/>
      <use xlink:href="#DejaVuSans-5f" x="217.871094"/>
      <use xlink:href="#DejaVuSans-6f" x="267.871094"/>
      <use xlink:href="#DejaVuSans-70" x="329.052734"/>
      <use xlink:href="#DejaVuSans-73" x="392.529297"/>
      <use xlink:href="#DejaVuSans-3d" x="444.628906"/>
      <use xlink:href="#DejaVuSans-33" x="528.417969"/>
      <use xlink:href="#DejaVuSans-32" x="592.041016"/>
     </g>
    </g>
    <g id="line2d_72">
     <path d="M 545.43125 139.719687 
L 555.43125 139.719687 
L 565.43125 139.719687 
" style="fill: none; stroke: #fdb462; stroke-width: 1.5; stroke-linecap: square"/>
    </g>
    <g id="text_39">
     <!-- max_ops=64 -->
     <g style="fill: #ffffff" transform="translate(573.43125 143.219687) scale(0.1 -0.1)">
      <use xlink:href="#DejaVuSans-6d"/>
      <use xlink:href="#DejaVuSans-61" x="97.412109"/>
      <use xlink:href="#DejaVuSans-78" x="158.691406"/>
      <use xlink:href="#DejaVuSans-5f" x="217.871094"/>
      <use xlink:href="#DejaVuSans-6f" x="267.871094"/>
      <use xlink:href="#DejaVuSans-70" x="329.052734"/>
      <use xlink:href="#DejaVuSans-73" x="392.529297"/>
      <use xlink:href="#DejaVuSans-3d" x="444.628906"/>
      <use xlink:href="#DejaVuSans-36" x="528.417969"/>
      <use xlink:href="#DejaVuSans-34" x="592.041016"/>
     </g>
    </g>
   </g>
  </g>
 </g>
 <defs>
  <clipPath id="pa29fd46830">
   <rect x="90" y="51.84" width="558" height="332.64"/>
  </clipPath>
 </defs>
</svg>
