<?xml version="1.0" encoding="utf-8" standalone="no"?>
<!DOCTYPE svg PUBLIC "-//W3C//DTD SVG 1.1//EN"
  "http://www.w3.org/Graphics/SVG/1.1/DTD/svg11.dtd">
<svg xmlns:xlink="http://www.w3.org/1999/xlink" width="864pt" height="576pt" viewBox="0 0 864 576" xmlns="http://www.w3.org/2000/svg" version="1.1">
 <metadata>
  <rdf:RDF xmlns:dc="http://purl.org/dc/elements/1.1/" xmlns:cc="http://creativecommons.org/ns#" xmlns:rdf="http://www.w3.org/1999/02/22-rdf-syntax-ns#">
   <cc:Work>
    <dc:type rdf:resource="http://purl.org/dc/dcmitype/StillImage"/>
    <dc:date>2024-01-19T17:59:54.969774</dc:date>
    <dc:format>image/svg+xml</dc:format>
    <dc:creator>
     <cc:Agent>
      <dc:title>Matplotlib v3.8.2, https://matplotlib.org/</dc:title>
     </cc:Agent>
    </dc:creator>
   </cc:Work>
  </rdf:RDF>
 </metadata>
 <defs>
  <style type="text/css">*{stroke-linejoin: round; stroke-linecap: butt}</style>
 </defs>
 <g id="figure_1">
  <g id="patch_1">
   <path d="M 0 576 
L 864 576 
L 864 0 
L 0 0 
z
"/>
  </g>
  <g id="axes_1">
   <g id="patch_2">
    <path d="M 108 512.64 
L 777.6 512.64 
L 777.6 69.12 
L 108 69.12 
z
"/>
   </g>
   <g id="PolyCollection_1">
    <defs>
     <path id="m1aa19d27b7" d="M 138.436364 -63.825839 
L 138.436364 -63.36 
L 141.427343 -63.36 
L 144.418322 -63.36 
L 147.409301 -63.36 
L 150.40028 -63.36 
L 153.391259 -63.36 
L 156.382238 -63.36 
L 159.373217 -63.36 
L 162.364196 -63.36 
L 165.355175 -63.36 
L 168.346154 -63.36 
L 171.337133 -63.36 
L 174.328112 -63.36 
L 177.319091 -63.36 
L 180.31007 -63.36 
L 183.301049 -63.36 
L 186.292028 -63.36 
L 189.283008 -63.36 
L 192.273987 -63.36 
L 195.264966 -63.36 
L 198.255945 -63.36 
L 201.246924 -63.36 
L 204.237903 -63.36 
L 207.228882 -63.36 
L 210.219861 -63.36 
L 213.21084 -63.36 
L 216.201819 -63.36 
L 219.192798 -63.36 
L 222.183777 -63.36 
L 225.174756 -63.36 
L 228.165735 -63.36 
L 231.156714 -63.36 
L 234.147693 -63.36 
L 237.138672 -63.36 
L 240.129651 -63.36 
L 243.12063 -63.36 
L 246.11161 -63.36 
L 249.102589 -63.36 
L 252.093568 -63.36 
L 255.084547 -63.36 
L 258.075526 -63.36 
L 261.066505 -63.36 
L 264.057484 -63.36 
L 267.048463 -63.36 
L 270.039442 -63.36 
L 273.030421 -63.36 
L 276.0214 -63.36 
L 279.012379 -63.36 
L 282.003358 -63.36 
L 284.994337 -63.36 
L 287.985316 -63.36 
L 290.976295 -63.36 
L 293.967274 -63.36 
L 296.958253 -63.36 
L 299.949232 -63.36 
L 302.940212 -63.36 
L 305.931191 -63.36 
L 308.92217 -63.36 
L 311.913149 -63.36 
L 314.904128 -63.36 
L 317.895107 -63.36 
L 320.886086 -63.36 
L 323.877065 -63.36 
L 326.868044 -63.36 
L 329.859023 -63.36 
L 332.850002 -63.36 
L 335.840981 -63.36 
L 338.83196 -63.36 
L 341.822939 -63.36 
L 344.813918 -63.36 
L 347.804897 -63.36 
L 350.795876 -63.36 
L 353.786855 -63.36 
L 356.777834 -63.36 
L 359.768814 -63.36 
L 362.759793 -63.36 
L 365.750772 -63.36 
L 368.741751 -63.36 
L 371.73273 -63.36 
L 374.723709 -63.36 
L 377.714688 -63.36 
L 380.705667 -63.36 
L 383.696646 -63.36 
L 386.687625 -63.36 
L 389.678604 -63.36 
L 392.669583 -63.36 
L 395.660562 -63.36 
L 398.651541 -63.36 
L 401.64252 -63.36 
L 404.633499 -63.36 
L 407.624478 -63.36 
L 410.615457 -63.36 
L 413.606436 -63.36 
L 416.597416 -63.36 
L 419.588395 -63.36 
L 422.579374 -63.36 
L 425.570353 -63.36 
L 428.561332 -63.36 
L 431.552311 -63.36 
L 434.54329 -63.36 
L 437.534269 -63.36 
L 440.525248 -63.36 
L 443.516227 -63.36 
L 446.507206 -63.36 
L 449.498185 -63.36 
L 452.489164 -63.36 
L 455.480143 -63.36 
L 458.471122 -63.36 
L 461.462101 -63.36 
L 464.45308 -63.36 
L 467.444059 -63.36 
L 470.435038 -63.36 
L 473.426018 -63.36 
L 476.416997 -63.36 
L 479.407976 -63.36 
L 482.398955 -63.36 
L 485.389934 -63.36 
L 488.380913 -63.36 
L 491.371892 -63.36 
L 494.362871 -63.36 
L 497.35385 -63.36 
L 500.344829 -63.36 
L 503.335808 -63.36 
L 506.326787 -63.36 
L 509.317766 -63.36 
L 512.308745 -63.36 
L 515.299724 -63.36 
L 518.290703 -63.36 
L 521.281682 -63.36 
L 524.272661 -63.36 
L 527.26364 -63.36 
L 530.25462 -63.36 
L 533.245599 -63.36 
L 536.236578 -63.36 
L 539.227557 -63.36 
L 542.218536 -63.36 
L 545.209515 -63.36 
L 548.200494 -63.36 
L 551.191473 -63.36 
L 554.182452 -63.36 
L 557.173431 -63.36 
L 560.16441 -63.36 
L 563.155389 -63.36 
L 566.146368 -63.36 
L 569.137347 -63.36 
L 572.128326 -63.36 
L 575.119305 -63.36 
L 578.110284 -63.36 
L 581.101263 -63.36 
L 584.092242 -63.36 
L 587.083222 -63.36 
L 590.074201 -63.36 
L 593.06518 -63.36 
L 596.056159 -63.36 
L 599.047138 -63.36 
L 602.038117 -63.36 
L 605.029096 -63.36 
L 608.020075 -63.36 
L 611.011054 -63.36 
L 614.002033 -63.36 
L 616.993012 -63.36 
L 619.983991 -63.36 
L 622.97497 -63.36 
L 625.965949 -63.36 
L 628.956928 -63.36 
L 631.947907 -63.36 
L 634.938886 -63.36 
L 637.929865 -63.36 
L 640.920844 -63.36 
L 643.911823 -63.36 
L 646.902803 -63.36 
L 649.893782 -63.36 
L 652.884761 -63.36 
L 655.87574 -63.36 
L 658.866719 -63.36 
L 661.857698 -63.36 
L 664.848677 -63.36 
L 667.839656 -63.36 
L 670.830635 -63.36 
L 673.821614 -63.36 
L 676.812593 -63.36 
L 679.803572 -63.36 
L 682.794551 -63.36 
L 685.78553 -63.36 
L 688.776509 -63.36 
L 691.767488 -63.36 
L 694.758467 -63.36 
L 697.749446 -63.36 
L 700.740425 -63.36 
L 703.731405 -63.36 
L 706.722384 -63.36 
L 709.713363 -63.36 
L 712.704342 -63.36 
L 715.695321 -63.36 
L 718.6863 -63.36 
L 721.677279 -63.36 
L 724.668258 -63.36 
L 727.659237 -63.36 
L 730.650216 -63.36 
L 733.641195 -63.36 
L 733.641195 -63.378678 
L 733.641195 -63.378678 
L 730.650216 -63.395064 
L 727.659237 -63.424005 
L 724.668258 -63.4736 
L 721.677279 -63.556033 
L 718.6863 -63.68886 
L 715.695321 -63.896217 
L 712.704342 -64.209594 
L 709.713363 -64.667689 
L 706.722384 -65.314728 
L 703.731405 -66.196723 
L 700.740425 -67.355329 
L 697.749446 -68.819473 
L 694.758467 -70.595563 
L 691.767488 -72.657888 
L 688.776509 -74.941404 
L 685.78553 -77.339331 
L 682.794551 -79.707537 
L 679.803572 -81.876591 
L 676.812593 -83.670642 
L 673.821614 -84.930497 
L 670.830635 -85.536796 
L 667.839656 -85.428629 
L 664.848677 -84.613602 
L 661.857698 -83.167023 
L 658.866719 -81.220337 
L 655.87574 -78.941275 
L 652.884761 -76.509905 
L 649.893782 -74.095332 
L 646.902803 -71.837186 
L 643.911823 -69.834468 
L 640.920844 -68.14242 
L 637.929865 -66.77633 
L 634.938886 -65.720038 
L 631.947907 -64.936542 
L 628.956928 -64.378358 
L 625.965949 -63.996044 
L 622.97497 -63.744103 
L 619.983991 -63.584268 
L 616.993012 -63.486599 
L 614.002033 -63.429091 
L 611.011054 -63.396452 
L 608.020075 -63.378592 
L 605.029096 -63.369167 
L 602.038117 -63.364369 
L 599.047138 -63.362013 
L 596.056159 -63.360896 
L 593.06518 -63.360386 
L 590.074201 -63.360161 
L 587.083222 -63.360065 
L 584.092242 -63.360025 
L 581.101263 -63.360009 
L 578.110284 -63.360003 
L 575.119305 -63.360001 
L 572.128326 -63.36 
L 569.137347 -63.36 
L 566.146368 -63.36 
L 563.155389 -63.36 
L 560.16441 -63.36 
L 557.173431 -63.36 
L 554.182452 -63.36 
L 551.191473 -63.36 
L 548.200494 -63.36 
L 545.209515 -63.36 
L 542.218536 -63.36 
L 539.227557 -63.36 
L 536.236578 -63.36 
L 533.245599 -63.36 
L 530.25462 -63.36 
L 527.26364 -63.36 
L 524.272661 -63.36 
L 521.281682 -63.36 
L 518.290703 -63.36 
L 515.299724 -63.36 
L 512.308745 -63.36 
L 509.317766 -63.36 
L 506.326787 -63.36 
L 503.335808 -63.36 
L 500.344829 -63.36 
L 497.35385 -63.36 
L 494.362871 -63.36 
L 491.371892 -63.36 
L 488.380913 -63.36 
L 485.389934 -63.36 
L 482.398955 -63.36 
L 479.407976 -63.36 
L 476.416997 -63.36 
L 473.426018 -63.36 
L 470.435038 -63.36 
L 467.444059 -63.36 
L 464.45308 -63.36 
L 461.462101 -63.36 
L 458.471122 -63.36 
L 455.480143 -63.36 
L 452.489164 -63.36 
L 449.498185 -63.36 
L 446.507206 -63.36 
L 443.516227 -63.36 
L 440.525248 -63.36 
L 437.534269 -63.36 
L 434.54329 -63.36 
L 431.552311 -63.36 
L 428.561332 -63.36 
L 425.570353 -63.36 
L 422.579374 -63.36 
L 419.588395 -63.36 
L 416.597416 -63.360001 
L 413.606436 -63.360003 
L 410.615457 -63.360008 
L 407.624478 -63.36002 
L 404.633499 -63.360052 
L 401.64252 -63.360129 
L 398.651541 -63.36031 
L 395.660562 -63.360725 
L 392.669583 -63.361642 
L 389.678604 -63.363602 
L 386.687625 -63.367663 
L 383.696646 -63.375807 
L 380.705667 -63.391625 
L 377.714688 -63.421379 
L 374.723709 -63.47559 
L 371.73273 -63.571272 
L 368.741751 -63.734885 
L 365.750772 -64.005965 
L 362.759793 -64.441209 
L 359.768814 -65.118514 
L 356.777834 -66.140224 
L 353.786855 -67.634561 
L 350.795876 -69.754146 
L 347.804897 -72.670639 
L 344.813918 -76.564973 
L 341.822939 -81.613435 
L 338.83196 -87.970792 
L 335.840981 -95.752661 
L 332.850002 -105.019997 
L 329.859023 -115.768788 
L 326.868044 -127.927537 
L 323.877065 -141.3639 
L 320.886086 -155.90017 
L 317.895107 -171.335449 
L 314.904128 -187.470718 
L 311.913149 -204.132039 
L 308.92217 -221.187032 
L 305.931191 -238.550591 
L 302.940212 -256.177636 
L 299.949232 -274.043106 
L 296.958253 -292.11221 
L 293.967274 -310.306543 
L 290.976295 -328.473541 
L 287.985316 -346.367312 
L 284.994337 -363.647664 
L 282.003358 -379.901202 
L 279.012379 -394.68386 
L 276.0214 -407.579235 
L 273.030421 -418.262595 
L 270.039442 -426.557868 
L 267.048463 -432.475089 
L 264.057484 -436.219038 
L 261.066505 -438.165624 
L 258.075526 -438.809512 
L 255.084547 -438.692939 
L 252.093568 -438.329732 
L 249.102589 -438.139171 
L 246.11161 -438.401349 
L 243.12063 -439.239871 
L 240.129651 -440.630918 
L 237.138672 -442.431665 
L 234.147693 -444.417499 
L 231.156714 -446.3171 
L 228.165735 -447.837063 
L 225.174756 -448.672311 
L 222.183777 -448.503652 
L 219.192798 -446.988159 
L 216.201819 -443.750576 
L 213.21084 -438.384317 
L 210.219861 -430.468721 
L 207.228882 -419.605465 
L 204.237903 -405.472096 
L 201.246924 -387.885348 
L 198.255945 -366.862529 
L 195.264966 -342.667064 
L 192.273987 -315.825224 
L 189.283008 -287.105538 
L 186.292028 -257.459684 
L 183.301049 -227.932078 
L 180.31007 -199.552659 
L 177.319091 -173.231472 
L 174.328112 -149.673194 
L 171.337133 -129.325017 
L 168.346154 -112.363703 
L 165.355175 -98.719284 
L 162.364196 -88.126179 
L 159.373217 -80.188805 
L 156.382238 -74.448573 
L 153.391259 -70.441788 
L 150.40028 -67.742235 
L 147.409301 -65.986606 
L 144.418322 -64.884474 
L 141.427343 -64.216573 
L 138.436364 -63.825839 
z
" style="stroke: #1ac938"/>
    </defs>
    <g clip-path="url(#p5dbc758563)">
     <use xlink:href="#m1aa19d27b7" x="0" y="576" style="fill: #1ac938; fill-opacity: 0.25; stroke: #1ac938"/>
    </g>
   </g>
   <g id="PolyCollection_2">
    <defs>
     <path id="m492e0a377b" d="M 138.781442 -64.27947 
L 138.781442 -63.36 
L 141.763084 -63.36 
L 144.744725 -63.36 
L 147.726367 -63.36 
L 150.708008 -63.36 
L 153.68965 -63.36 
L 156.671291 -63.36 
L 159.652933 -63.36 
L 162.634574 -63.36 
L 165.616216 -63.36 
L 168.597857 -63.36 
L 171.579499 -63.36 
L 174.56114 -63.36 
L 177.542782 -63.36 
L 180.524423 -63.36 
L 183.506065 -63.36 
L 186.487706 -63.36 
L 189.469348 -63.36 
L 192.450989 -63.36 
L 195.432631 -63.36 
L 198.414272 -63.36 
L 201.395914 -63.36 
L 204.377555 -63.36 
L 207.359197 -63.36 
L 210.340838 -63.36 
L 213.32248 -63.36 
L 216.304121 -63.36 
L 219.285763 -63.36 
L 222.267404 -63.36 
L 225.249046 -63.36 
L 228.230687 -63.36 
L 231.212329 -63.36 
L 234.19397 -63.36 
L 237.175612 -63.36 
L 240.157253 -63.36 
L 243.138895 -63.36 
L 246.120536 -63.36 
L 249.102178 -63.36 
L 252.083819 -63.36 
L 255.065461 -63.36 
L 258.047102 -63.36 
L 261.028744 -63.36 
L 264.010385 -63.36 
L 266.992027 -63.36 
L 269.973668 -63.36 
L 272.95531 -63.36 
L 275.936951 -63.36 
L 278.918593 -63.36 
L 281.900234 -63.36 
L 284.881876 -63.36 
L 287.863517 -63.36 
L 290.845159 -63.36 
L 293.8268 -63.36 
L 296.808442 -63.36 
L 299.790083 -63.36 
L 302.771725 -63.36 
L 305.753366 -63.36 
L 308.735008 -63.36 
L 311.716649 -63.36 
L 314.698291 -63.36 
L 317.679932 -63.36 
L 320.661574 -63.36 
L 323.643215 -63.36 
L 326.624857 -63.36 
L 329.606498 -63.36 
L 332.58814 -63.36 
L 335.569781 -63.36 
L 338.551423 -63.36 
L 341.533064 -63.36 
L 344.514706 -63.36 
L 347.496347 -63.36 
L 350.477989 -63.36 
L 353.45963 -63.36 
L 356.441272 -63.36 
L 359.422913 -63.36 
L 362.404555 -63.36 
L 365.386196 -63.36 
L 368.367838 -63.36 
L 371.349479 -63.36 
L 374.331121 -63.36 
L 377.312762 -63.36 
L 380.294404 -63.36 
L 383.276045 -63.36 
L 386.257687 -63.36 
L 389.239328 -63.36 
L 392.22097 -63.36 
L 395.202611 -63.36 
L 398.184253 -63.36 
L 401.165894 -63.36 
L 404.147536 -63.36 
L 407.129177 -63.36 
L 410.110819 -63.36 
L 413.09246 -63.36 
L 416.074102 -63.36 
L 419.055743 -63.36 
L 422.037385 -63.36 
L 425.019026 -63.36 
L 428.000668 -63.36 
L 430.982309 -63.36 
L 433.963951 -63.36 
L 436.945592 -63.36 
L 439.927234 -63.36 
L 442.908875 -63.36 
L 445.890517 -63.36 
L 448.872158 -63.36 
L 451.8538 -63.36 
L 454.835441 -63.36 
L 457.817083 -63.36 
L 460.798724 -63.36 
L 463.780366 -63.36 
L 466.762007 -63.36 
L 469.743649 -63.36 
L 472.72529 -63.36 
L 475.706932 -63.36 
L 478.688573 -63.36 
L 481.670215 -63.36 
L 484.651856 -63.36 
L 487.633498 -63.36 
L 490.615139 -63.36 
L 493.596781 -63.36 
L 496.578422 -63.36 
L 499.560064 -63.36 
L 502.541705 -63.36 
L 505.523347 -63.36 
L 508.504988 -63.36 
L 511.48663 -63.36 
L 514.468271 -63.36 
L 517.449913 -63.36 
L 520.431554 -63.36 
L 523.413196 -63.36 
L 526.394837 -63.36 
L 529.376479 -63.36 
L 532.35812 -63.36 
L 535.339762 -63.36 
L 538.321403 -63.36 
L 541.303045 -63.36 
L 544.284686 -63.36 
L 547.266328 -63.36 
L 550.247969 -63.36 
L 553.229611 -63.36 
L 556.211252 -63.36 
L 559.192894 -63.36 
L 562.174535 -63.36 
L 565.156177 -63.36 
L 568.137818 -63.36 
L 571.11946 -63.36 
L 574.101101 -63.36 
L 577.082743 -63.36 
L 580.064384 -63.36 
L 583.046026 -63.36 
L 586.027667 -63.36 
L 589.009309 -63.36 
L 591.99095 -63.36 
L 594.972592 -63.36 
L 597.954233 -63.36 
L 600.935875 -63.36 
L 603.917516 -63.36 
L 606.899158 -63.36 
L 609.880799 -63.36 
L 612.862441 -63.36 
L 615.844082 -63.36 
L 618.825724 -63.36 
L 621.807365 -63.36 
L 624.789007 -63.36 
L 627.770648 -63.36 
L 630.75229 -63.36 
L 633.733931 -63.36 
L 636.715573 -63.36 
L 639.697214 -63.36 
L 642.678856 -63.36 
L 645.660497 -63.36 
L 648.642139 -63.36 
L 651.62378 -63.36 
L 654.605422 -63.36 
L 657.587063 -63.36 
L 660.568705 -63.36 
L 663.550346 -63.36 
L 666.531988 -63.36 
L 669.513629 -63.36 
L 672.495271 -63.36 
L 675.476912 -63.36 
L 678.458554 -63.36 
L 681.440195 -63.36 
L 684.421837 -63.36 
L 687.403478 -63.36 
L 690.38512 -63.36 
L 693.366761 -63.36 
L 696.348403 -63.36 
L 699.330044 -63.36 
L 702.311686 -63.36 
L 705.293327 -63.36 
L 708.274969 -63.36 
L 711.25661 -63.36 
L 714.238252 -63.36 
L 717.219893 -63.36 
L 720.201535 -63.36 
L 723.183176 -63.36 
L 726.164818 -63.36 
L 729.146459 -63.36 
L 732.128101 -63.36 
L 732.128101 -63.40171 
L 732.128101 -63.40171 
L 729.146459 -63.437992 
L 726.164818 -63.501187 
L 723.183176 -63.607428 
L 720.201535 -63.779741 
L 717.219893 -64.049224 
L 714.238252 -64.455357 
L 711.25661 -65.044751 
L 708.274969 -65.867676 
L 705.293327 -66.971888 
L 702.311686 -68.39381 
L 699.330044 -70.147858 
L 696.348403 -72.215585 
L 693.366761 -74.537044 
L 690.38512 -77.007078 
L 687.403478 -79.478875 
L 684.421837 -81.775894 
L 681.440195 -83.711475 
L 678.458554 -85.113404 
L 675.476912 -85.849059 
L 672.495271 -85.846075 
L 669.513629 -85.104077 
L 666.531988 -83.694848 
L 663.550346 -81.750859 
L 660.568705 -79.444725 
L 657.587063 -76.963976 
L 654.605422 -74.486267 
L 651.62378 -72.159457 
L 648.642139 -70.089409 
L 645.660497 -68.336283 
L 642.678856 -66.918221 
L 639.697214 -65.820106 
L 636.715573 -65.004603 
L 633.733931 -64.423036 
L 630.75229 -64.024369 
L 627.770648 -63.761456 
L 624.789007 -63.594547 
L 621.807365 -63.492488 
L 618.825724 -63.432356 
L 615.844082 -63.398205 
L 612.862441 -63.379503 
L 609.880799 -63.369625 
L 606.899158 -63.364593 
L 603.917516 -63.362119 
L 600.935875 -63.360945 
L 597.954233 -63.360407 
L 594.972592 -63.36017 
L 591.99095 -63.360068 
L 589.009309 -63.360027 
L 586.027667 -63.36001 
L 583.046026 -63.360004 
L 580.064384 -63.360001 
L 577.082743 -63.36 
L 574.101101 -63.36 
L 571.11946 -63.36 
L 568.137818 -63.36 
L 565.156177 -63.36 
L 562.174535 -63.36 
L 559.192894 -63.36 
L 556.211252 -63.36 
L 553.229611 -63.36 
L 550.247969 -63.36 
L 547.266328 -63.36 
L 544.284686 -63.36 
L 541.303045 -63.36 
L 538.321403 -63.36 
L 535.339762 -63.36 
L 532.35812 -63.36 
L 529.376479 -63.36 
L 526.394837 -63.36 
L 523.413196 -63.36 
L 520.431554 -63.36 
L 517.449913 -63.36 
L 514.468271 -63.36 
L 511.48663 -63.36 
L 508.504988 -63.36 
L 505.523347 -63.36 
L 502.541705 -63.36 
L 499.560064 -63.36 
L 496.578422 -63.36 
L 493.596781 -63.36 
L 490.615139 -63.36 
L 487.633498 -63.36 
L 484.651856 -63.36 
L 481.670215 -63.36 
L 478.688573 -63.36 
L 475.706932 -63.36 
L 472.72529 -63.36 
L 469.743649 -63.36 
L 466.762007 -63.36 
L 463.780366 -63.36 
L 460.798724 -63.36 
L 457.817083 -63.36 
L 454.835441 -63.36 
L 451.8538 -63.36 
L 448.872158 -63.36 
L 445.890517 -63.36 
L 442.908875 -63.36 
L 439.927234 -63.36 
L 436.945592 -63.36 
L 433.963951 -63.36 
L 430.982309 -63.36 
L 428.000668 -63.36 
L 425.019026 -63.36 
L 422.037385 -63.36 
L 419.055743 -63.36 
L 416.074102 -63.36 
L 413.09246 -63.36 
L 410.110819 -63.36 
L 407.129177 -63.36 
L 404.147536 -63.36 
L 401.165894 -63.360001 
L 398.184253 -63.360002 
L 395.202611 -63.360005 
L 392.22097 -63.360011 
L 389.239328 -63.360027 
L 386.257687 -63.360062 
L 383.276045 -63.360139 
L 380.294404 -63.3603 
L 377.312762 -63.360628 
L 374.331121 -63.361277 
L 371.349479 -63.362523 
L 368.367838 -63.364852 
L 365.386196 -63.369101 
L 362.404555 -63.376685 
L 359.422913 -63.38997 
L 356.441272 -63.412881 
L 353.45963 -63.451893 
L 350.477989 -63.517608 
L 347.496347 -63.627236 
L 344.514706 -63.80832 
L 341.533064 -64.104091 
L 338.551423 -64.580716 
L 335.569781 -65.336414 
L 332.58814 -66.511889 
L 329.606498 -68.300771 
L 326.624857 -70.957877 
L 323.643215 -74.802326 
L 320.661574 -80.21212 
L 317.679932 -87.607227 
L 314.698291 -97.419517 
L 311.716649 -110.050295 
L 308.735008 -125.819164 
L 305.753366 -144.91093 
L 302.771725 -167.329243 
L 299.790083 -192.865873 
L 296.808442 -221.092527 
L 293.8268 -251.378038 
L 290.845159 -282.928677 
L 287.863517 -314.844514 
L 284.881876 -346.18174 
L 281.900234 -376.01069 
L 278.918593 -403.462055 
L 275.936951 -427.758705 
L 272.95531 -448.236091 
L 269.973668 -464.358335 
L 266.992027 -475.738428 
L 264.010385 -482.168575 
L 261.028744 -483.661191 
L 258.047102 -480.493884 
L 255.065461 -473.245365 
L 252.083819 -462.806013 
L 249.102178 -450.348483 
L 246.120536 -437.250552 
L 243.138895 -424.972995 
L 240.157253 -414.90677 
L 237.175612 -408.212833 
L 234.19397 -405.681546 
L 231.212329 -407.635615 
L 228.230687 -413.891594 
L 225.249046 -423.78286 
L 222.267404 -436.235309 
L 219.285763 -449.879049 
L 216.304121 -463.176992 
L 213.32248 -474.554076 
L 210.340838 -482.516931 
L 207.359197 -485.76 
L 204.377555 -483.257923 
L 201.395914 -474.344016 
L 198.414272 -458.771513 
L 195.432631 -436.75007 
L 192.450989 -408.947433 
L 189.469348 -376.447478 
L 186.487706 -340.661506 
L 183.506065 -303.198626 
L 180.524423 -265.710586 
L 177.542782 -229.733312 
L 174.56114 -196.549382 
L 171.579499 -167.091793 
L 168.597857 -141.900784 
L 165.616216 -121.134652 
L 162.634574 -104.625425 
L 159.652933 -91.963423 
L 156.671291 -82.592387 
L 153.68965 -75.89877 
L 150.708008 -71.283668 
L 147.726367 -68.211852 
L 144.744725 -66.237894 
L 141.763084 -65.013171 
L 138.781442 -64.27947 
z
" style="stroke: #ff7c00"/>
    </defs>
    <g clip-path="url(#p5dbc758563)">
     <use xlink:href="#m492e0a377b" x="0" y="576" style="fill: #ff7c00; fill-opacity: 0.25; stroke: #ff7c00"/>
    </g>
   </g>
   <g id="PolyCollection_3">
    <defs>
     <path id="m850af8376f" d="M 143.359797 -63.602058 
L 143.359797 -63.36 
L 146.393987 -63.36 
L 149.428177 -63.36 
L 152.462368 -63.36 
L 155.496558 -63.36 
L 158.530748 -63.36 
L 161.564938 -63.36 
L 164.599128 -63.36 
L 167.633318 -63.36 
L 170.667508 -63.36 
L 173.701699 -63.36 
L 176.735889 -63.36 
L 179.770079 -63.36 
L 182.804269 -63.36 
L 185.838459 -63.36 
L 188.872649 -63.36 
L 191.906839 -63.36 
L 194.94103 -63.36 
L 197.97522 -63.36 
L 201.00941 -63.36 
L 204.0436 -63.36 
L 207.07779 -63.36 
L 210.11198 -63.36 
L 213.14617 -63.36 
L 216.180361 -63.36 
L 219.214551 -63.36 
L 222.248741 -63.36 
L 225.282931 -63.36 
L 228.317121 -63.36 
L 231.351311 -63.36 
L 234.385502 -63.36 
L 237.419692 -63.36 
L 240.453882 -63.36 
L 243.488072 -63.36 
L 246.522262 -63.36 
L 249.556452 -63.36 
L 252.590642 -63.36 
L 255.624833 -63.36 
L 258.659023 -63.36 
L 261.693213 -63.36 
L 264.727403 -63.36 
L 267.761593 -63.36 
L 270.795783 -63.36 
L 273.829973 -63.36 
L 276.864164 -63.36 
L 279.898354 -63.36 
L 282.932544 -63.36 
L 285.966734 -63.36 
L 289.000924 -63.36 
L 292.035114 -63.36 
L 295.069304 -63.36 
L 298.103495 -63.36 
L 301.137685 -63.36 
L 304.171875 -63.36 
L 307.206065 -63.36 
L 310.240255 -63.36 
L 313.274445 -63.36 
L 316.308635 -63.36 
L 319.342826 -63.36 
L 322.377016 -63.36 
L 325.411206 -63.36 
L 328.445396 -63.36 
L 331.479586 -63.36 
L 334.513776 -63.36 
L 337.547967 -63.36 
L 340.582157 -63.36 
L 343.616347 -63.36 
L 346.650537 -63.36 
L 349.684727 -63.36 
L 352.718917 -63.36 
L 355.753107 -63.36 
L 358.787298 -63.36 
L 361.821488 -63.36 
L 364.855678 -63.36 
L 367.889868 -63.36 
L 370.924058 -63.36 
L 373.958248 -63.36 
L 376.992438 -63.36 
L 380.026629 -63.36 
L 383.060819 -63.36 
L 386.095009 -63.36 
L 389.129199 -63.36 
L 392.163389 -63.36 
L 395.197579 -63.36 
L 398.231769 -63.36 
L 401.26596 -63.36 
L 404.30015 -63.36 
L 407.33434 -63.36 
L 410.36853 -63.36 
L 413.40272 -63.36 
L 416.43691 -63.36 
L 419.4711 -63.36 
L 422.505291 -63.36 
L 425.539481 -63.36 
L 428.573671 -63.36 
L 431.607861 -63.36 
L 434.642051 -63.36 
L 437.676241 -63.36 
L 440.710432 -63.36 
L 443.744622 -63.36 
L 446.778812 -63.36 
L 449.813002 -63.36 
L 452.847192 -63.36 
L 455.881382 -63.36 
L 458.915572 -63.36 
L 461.949763 -63.36 
L 464.983953 -63.36 
L 468.018143 -63.36 
L 471.052333 -63.36 
L 474.086523 -63.36 
L 477.120713 -63.36 
L 480.154903 -63.36 
L 483.189094 -63.36 
L 486.223284 -63.36 
L 489.257474 -63.36 
L 492.291664 -63.36 
L 495.325854 -63.36 
L 498.360044 -63.36 
L 501.394234 -63.36 
L 504.428425 -63.36 
L 507.462615 -63.36 
L 510.496805 -63.36 
L 513.530995 -63.36 
L 516.565185 -63.36 
L 519.599375 -63.36 
L 522.633565 -63.36 
L 525.667756 -63.36 
L 528.701946 -63.36 
L 531.736136 -63.36 
L 534.770326 -63.36 
L 537.804516 -63.36 
L 540.838706 -63.36 
L 543.872897 -63.36 
L 546.907087 -63.36 
L 549.941277 -63.36 
L 552.975467 -63.36 
L 556.009657 -63.36 
L 559.043847 -63.36 
L 562.078037 -63.36 
L 565.112228 -63.36 
L 568.146418 -63.36 
L 571.180608 -63.36 
L 574.214798 -63.36 
L 577.248988 -63.36 
L 580.283178 -63.36 
L 583.317368 -63.36 
L 586.351559 -63.36 
L 589.385749 -63.36 
L 592.419939 -63.36 
L 595.454129 -63.36 
L 598.488319 -63.36 
L 601.522509 -63.36 
L 604.556699 -63.36 
L 607.59089 -63.36 
L 610.62508 -63.36 
L 613.65927 -63.36 
L 616.69346 -63.36 
L 619.72765 -63.36 
L 622.76184 -63.36 
L 625.79603 -63.36 
L 628.830221 -63.36 
L 631.864411 -63.36 
L 634.898601 -63.36 
L 637.932791 -63.36 
L 640.966981 -63.36 
L 644.001171 -63.36 
L 647.035362 -63.36 
L 650.069552 -63.36 
L 653.103742 -63.36 
L 656.137932 -63.36 
L 659.172122 -63.36 
L 662.206312 -63.36 
L 665.240502 -63.36 
L 668.274693 -63.36 
L 671.308883 -63.36 
L 674.343073 -63.36 
L 677.377263 -63.36 
L 680.411453 -63.36 
L 683.445643 -63.36 
L 686.479833 -63.36 
L 689.514024 -63.36 
L 692.548214 -63.36 
L 695.582404 -63.36 
L 698.616594 -63.36 
L 701.650784 -63.36 
L 704.684974 -63.36 
L 707.719164 -63.36 
L 710.753355 -63.36 
L 713.787545 -63.36 
L 716.821735 -63.36 
L 719.855925 -63.36 
L 722.890115 -63.36 
L 725.924305 -63.36 
L 728.958495 -63.36 
L 731.992686 -63.36 
L 735.026876 -63.36 
L 738.061066 -63.36 
L 741.095256 -63.36 
L 744.129446 -63.36 
L 747.163636 -63.36 
L 747.163636 -63.369478 
L 747.163636 -63.369478 
L 744.129446 -63.376839 
L 741.095256 -63.3891 
L 738.061066 -63.408987 
L 735.026876 -63.440471 
L 731.992686 -63.489226 
L 728.958495 -63.563235 
L 725.924305 -63.673557 
L 722.890115 -63.835233 
L 719.855925 -64.068235 
L 716.821735 -64.398252 
L 713.787545 -64.856924 
L 710.753355 -65.481015 
L 707.719164 -66.309958 
L 704.684974 -67.381277 
L 701.650784 -68.723771 
L 698.616594 -70.348903 
L 695.582404 -72.241612 
L 692.548214 -74.352465 
L 689.514024 -76.593468 
L 686.479833 -78.839734 
L 683.445643 -80.938313 
L 680.411453 -82.724034 
L 677.377263 -84.040405 
L 674.343073 -84.762038 
L 671.308883 -84.814187 
L 668.274693 -84.185211 
L 665.240502 -82.929145 
L 662.206312 -81.157693 
L 659.172122 -79.023351 
L 656.137932 -76.697253 
L 653.103742 -74.346261 
L 650.069552 -72.113536 
L 647.035362 -70.105614 
L 644.001171 -68.38716 
L 640.966981 -66.982844 
L 637.932791 -65.884458 
L 634.898601 -65.060774 
L 631.864411 -64.467786 
L 628.830221 -64.057539 
L 625.79603 -63.784579 
L 622.76184 -63.609806 
L 619.72765 -63.502062 
L 616.69346 -63.438084 
L 613.65927 -63.40148 
L 610.62508 -63.381295 
L 607.59089 -63.370565 
L 604.556699 -63.365065 
L 601.522509 -63.362347 
L 598.488319 -63.361051 
L 595.454129 -63.360454 
L 592.419939 -63.36019 
L 589.385749 -63.360077 
L 586.351559 -63.36003 
L 583.317368 -63.360011 
L 580.283178 -63.360004 
L 577.248988 -63.360001 
L 574.214798 -63.36 
L 571.180608 -63.36 
L 568.146418 -63.36 
L 565.112228 -63.36 
L 562.078037 -63.36 
L 559.043847 -63.36 
L 556.009657 -63.36 
L 552.975467 -63.36 
L 549.941277 -63.36 
L 546.907087 -63.36 
L 543.872897 -63.36 
L 540.838706 -63.36 
L 537.804516 -63.36 
L 534.770326 -63.36 
L 531.736136 -63.36 
L 528.701946 -63.36 
L 525.667756 -63.36 
L 522.633565 -63.36 
L 519.599375 -63.36 
L 516.565185 -63.36 
L 513.530995 -63.36 
L 510.496805 -63.36 
L 507.462615 -63.36 
L 504.428425 -63.36 
L 501.394234 -63.36 
L 498.360044 -63.36 
L 495.325854 -63.36 
L 492.291664 -63.36 
L 489.257474 -63.36 
L 486.223284 -63.36 
L 483.189094 -63.36 
L 480.154903 -63.36 
L 477.120713 -63.36 
L 474.086523 -63.36 
L 471.052333 -63.36 
L 468.018143 -63.36 
L 464.983953 -63.36 
L 461.949763 -63.36 
L 458.915572 -63.36 
L 455.881382 -63.36 
L 452.847192 -63.360001 
L 449.813002 -63.360002 
L 446.778812 -63.360006 
L 443.744622 -63.360016 
L 440.710432 -63.360041 
L 437.676241 -63.360102 
L 434.642051 -63.360245 
L 431.607861 -63.360572 
L 428.573671 -63.361291 
L 425.539481 -63.362826 
L 422.505291 -63.366 
L 419.4711 -63.37236 
L 416.43691 -63.384713 
L 413.40272 -63.40797 
L 410.36853 -63.450433 
L 407.33434 -63.525633 
L 404.30015 -63.654835 
L 401.26596 -63.870241 
L 398.231769 -64.21878 
L 395.197579 -64.766179 
L 392.163389 -65.600716 
L 389.129199 -66.83577 
L 386.095009 -68.609991 
L 383.060819 -71.083821 
L 380.026629 -74.431179 
L 376.992438 -78.825684 
L 373.958248 -84.421616 
L 370.924058 -91.331096 
L 367.889868 -99.600326 
L 364.855678 -109.188855 
L 361.821488 -119.95649 
L 358.787298 -131.662046 
L 355.753107 -143.976755 
L 352.718917 -156.512699 
L 349.684727 -168.863772 
L 346.650537 -180.653829 
L 343.616347 -191.584806 
L 340.582157 -201.476955 
L 337.547967 -210.294394 
L 334.513776 -218.151441 
L 331.479586 -225.298444 
L 328.445396 -232.089042 
L 325.411206 -238.933706 
L 322.377016 -246.24625 
L 319.342826 -254.390866 
L 316.308635 -263.636896 
L 313.274445 -274.127289 
L 310.240255 -285.864661 
L 307.206065 -298.716274 
L 304.171875 -312.43645 
L 301.137685 -326.702203 
L 298.103495 -341.155753 
L 295.069304 -355.446386 
L 292.035114 -369.264357 
L 289.000924 -382.361225 
L 285.966734 -394.554056 
L 282.932544 -405.714723 
L 279.898354 -415.749222 
L 276.864164 -424.574415 
L 273.829973 -432.100179 
L 270.795783 -438.223128 
L 267.761593 -442.834333 
L 264.727403 -445.838819 
L 261.693213 -447.180536 
L 258.659023 -446.864311 
L 255.624833 -444.966833 
L 252.590642 -441.63181 
L 249.556452 -437.049136 
L 246.522262 -431.422599 
L 243.488072 -424.933903 
L 240.453882 -417.711592 
L 237.419692 -409.811774 
L 234.385502 -401.214069 
L 231.351311 -391.832231 
L 228.317121 -381.535639 
L 225.282931 -370.176198 
L 222.248741 -357.615324 
L 219.214551 -343.74722 
L 216.180361 -328.516748 
L 213.14617 -311.932046 
L 210.11198 -294.072948 
L 207.07779 -275.096089 
L 204.0436 -255.236621 
L 201.00941 -234.805239 
L 197.97522 -214.178545 
L 194.94103 -193.781038 
L 191.906839 -174.058478 
L 188.872649 -155.444472 
L 185.838459 -138.324394 
L 182.804269 -123.002174 
L 179.770079 -109.675595 
L 176.735889 -98.424357 
L 173.701699 -89.21263 
L 170.667508 -81.904925 
L 167.633318 -76.291611 
L 164.599128 -72.11901 
L 161.564938 -69.118889 
L 158.530748 -67.033208 
L 155.496558 -65.631688 
L 152.462368 -64.721602 
L 149.428177 -64.150637 
L 146.393987 -63.804608 
L 143.359797 -63.602058 
z
" style="stroke: #023eff"/>
    </defs>
    <g clip-path="url(#p5dbc758563)">
     <use xlink:href="#m850af8376f" x="0" y="576" style="fill: #023eff; fill-opacity: 0.25; stroke: #023eff"/>
    </g>
   </g>
   <g id="matplotlib.axis_1">
    <g id="xtick_1">
     <g id="line2d_1">
      <path d="M 154.802409 512.64 
L 154.802409 69.12 
" clip-path="url(#p5dbc758563)" style="fill: none; stroke: #ffffff; stroke-width: 0.8; stroke-linecap: square"/>
     </g>
     <g id="line2d_2">
      <defs>
       <path id="m0070bbf47d" d="M 0 0 
L 0 3.5 
" style="stroke: #ffffff; stroke-width: 0.8"/>
      </defs>
      <g>
       <use xlink:href="#m0070bbf47d" x="154.802409" y="512.64" style="fill: #ffffff; stroke: #ffffff; stroke-width: 0.8"/>
      </g>
     </g>
     <g id="text_1">
      <!-- 0 -->
      <g style="fill: #ffffff" transform="translate(151.621159 527.238438) scale(0.1 -0.1)">
       <defs>
        <path id="DejaVuSans-30" d="M 2034 4250 
Q 1547 4250 1301 3770 
Q 1056 3291 1056 2328 
Q 1056 1369 1301 889 
Q 1547 409 2034 409 
Q 2525 409 2770 889 
Q 3016 1369 3016 2328 
Q 3016 3291 2770 3770 
Q 2525 4250 2034 4250 
z
M 2034 4750 
Q 2819 4750 3233 4129 
Q 3647 3509 3647 2328 
Q 3647 1150 3233 529 
Q 2819 -91 2034 -91 
Q 1250 -91 836 529 
Q 422 1150 422 2328 
Q 422 3509 836 4129 
Q 1250 4750 2034 4750 
z
" transform="scale(0.015625)"/>
       </defs>
       <use xlink:href="#DejaVuSans-30"/>
      </g>
     </g>
    </g>
    <g id="xtick_2">
     <g id="line2d_3">
      <path d="M 251.986086 512.64 
L 251.986086 69.12 
" clip-path="url(#p5dbc758563)" style="fill: none; stroke: #ffffff; stroke-width: 0.8; stroke-linecap: square"/>
     </g>
     <g id="line2d_4">
      <g>
       <use xlink:href="#m0070bbf47d" x="251.986086" y="512.64" style="fill: #ffffff; stroke: #ffffff; stroke-width: 0.8"/>
      </g>
     </g>
     <g id="text_2">
      <!-- 100 -->
      <g style="fill: #ffffff" transform="translate(242.442336 527.238438) scale(0.1 -0.1)">
       <defs>
        <path id="DejaVuSans-31" d="M 794 531 
L 1825 531 
L 1825 4091 
L 703 3866 
L 703 4441 
L 1819 4666 
L 2450 4666 
L 2450 531 
L 3481 531 
L 3481 0 
L 794 0 
L 794 531 
z
" transform="scale(0.015625)"/>
       </defs>
       <use xlink:href="#DejaVuSans-31"/>
       <use xlink:href="#DejaVuSans-30" x="63.623047"/>
       <use xlink:href="#DejaVuSans-30" x="127.246094"/>
      </g>
     </g>
    </g>
    <g id="xtick_3">
     <g id="line2d_5">
      <path d="M 349.169762 512.64 
L 349.169762 69.12 
" clip-path="url(#p5dbc758563)" style="fill: none; stroke: #ffffff; stroke-width: 0.8; stroke-linecap: square"/>
     </g>
     <g id="line2d_6">
      <g>
       <use xlink:href="#m0070bbf47d" x="349.169762" y="512.64" style="fill: #ffffff; stroke: #ffffff; stroke-width: 0.8"/>
      </g>
     </g>
     <g id="text_3">
      <!-- 200 -->
      <g style="fill: #ffffff" transform="translate(339.626012 527.238438) scale(0.1 -0.1)">
       <defs>
        <path id="DejaVuSans-32" d="M 1228 531 
L 3431 531 
L 3431 0 
L 469 0 
L 469 531 
Q 828 903 1448 1529 
Q 2069 2156 2228 2338 
Q 2531 2678 2651 2914 
Q 2772 3150 2772 3378 
Q 2772 3750 2511 3984 
Q 2250 4219 1831 4219 
Q 1534 4219 1204 4116 
Q 875 4013 500 3803 
L 500 4441 
Q 881 4594 1212 4672 
Q 1544 4750 1819 4750 
Q 2544 4750 2975 4387 
Q 3406 4025 3406 3419 
Q 3406 3131 3298 2873 
Q 3191 2616 2906 2266 
Q 2828 2175 2409 1742 
Q 1991 1309 1228 531 
z
" transform="scale(0.015625)"/>
       </defs>
       <use xlink:href="#DejaVuSans-32"/>
       <use xlink:href="#DejaVuSans-30" x="63.623047"/>
       <use xlink:href="#DejaVuSans-30" x="127.246094"/>
      </g>
     </g>
    </g>
    <g id="xtick_4">
     <g id="line2d_7">
      <path d="M 446.353438 512.64 
L 446.353438 69.12 
" clip-path="url(#p5dbc758563)" style="fill: none; stroke: #ffffff; stroke-width: 0.8; stroke-linecap: square"/>
     </g>
     <g id="line2d_8">
      <g>
       <use xlink:href="#m0070bbf47d" x="446.353438" y="512.64" style="fill: #ffffff; stroke: #ffffff; stroke-width: 0.8"/>
      </g>
     </g>
     <g id="text_4">
      <!-- 300 -->
      <g style="fill: #ffffff" transform="translate(436.809688 527.238438) scale(0.1 -0.1)">
       <defs>
        <path id="DejaVuSans-33" d="M 2597 2516 
Q 3050 2419 3304 2112 
Q 3559 1806 3559 1356 
Q 3559 666 3084 287 
Q 2609 -91 1734 -91 
Q 1441 -91 1130 -33 
Q 819 25 488 141 
L 488 750 
Q 750 597 1062 519 
Q 1375 441 1716 441 
Q 2309 441 2620 675 
Q 2931 909 2931 1356 
Q 2931 1769 2642 2001 
Q 2353 2234 1838 2234 
L 1294 2234 
L 1294 2753 
L 1863 2753 
Q 2328 2753 2575 2939 
Q 2822 3125 2822 3475 
Q 2822 3834 2567 4026 
Q 2313 4219 1838 4219 
Q 1578 4219 1281 4162 
Q 984 4106 628 3988 
L 628 4550 
Q 988 4650 1302 4700 
Q 1616 4750 1894 4750 
Q 2613 4750 3031 4423 
Q 3450 4097 3450 3541 
Q 3450 3153 3228 2886 
Q 3006 2619 2597 2516 
z
" transform="scale(0.015625)"/>
       </defs>
       <use xlink:href="#DejaVuSans-33"/>
       <use xlink:href="#DejaVuSans-30" x="63.623047"/>
       <use xlink:href="#DejaVuSans-30" x="127.246094"/>
      </g>
     </g>
    </g>
    <g id="xtick_5">
     <g id="line2d_9">
      <path d="M 543.537114 512.64 
L 543.537114 69.12 
" clip-path="url(#p5dbc758563)" style="fill: none; stroke: #ffffff; stroke-width: 0.8; stroke-linecap: square"/>
     </g>
     <g id="line2d_10">
      <g>
       <use xlink:href="#m0070bbf47d" x="543.537114" y="512.64" style="fill: #ffffff; stroke: #ffffff; stroke-width: 0.8"/>
      </g>
     </g>
     <g id="text_5">
      <!-- 400 -->
      <g style="fill: #ffffff" transform="translate(533.993364 527.238438) scale(0.1 -0.1)">
       <defs>
        <path id="DejaVuSans-34" d="M 2419 4116 
L 825 1625 
L 2419 1625 
L 2419 4116 
z
M 2253 4666 
L 3047 4666 
L 3047 1625 
L 3713 1625 
L 3713 1100 
L 3047 1100 
L 3047 0 
L 2419 0 
L 2419 1100 
L 313 1100 
L 313 1709 
L 2253 4666 
z
" transform="scale(0.015625)"/>
       </defs>
       <use xlink:href="#DejaVuSans-34"/>
       <use xlink:href="#DejaVuSans-30" x="63.623047"/>
       <use xlink:href="#DejaVuSans-30" x="127.246094"/>
      </g>
     </g>
    </g>
    <g id="xtick_6">
     <g id="line2d_11">
      <path d="M 640.72079 512.64 
L 640.72079 69.12 
" clip-path="url(#p5dbc758563)" style="fill: none; stroke: #ffffff; stroke-width: 0.8; stroke-linecap: square"/>
     </g>
     <g id="line2d_12">
      <g>
       <use xlink:href="#m0070bbf47d" x="640.72079" y="512.64" style="fill: #ffffff; stroke: #ffffff; stroke-width: 0.8"/>
      </g>
     </g>
     <g id="text_6">
      <!-- 500 -->
      <g style="fill: #ffffff" transform="translate(631.17704 527.238438) scale(0.1 -0.1)">
       <defs>
        <path id="DejaVuSans-35" d="M 691 4666 
L 3169 4666 
L 3169 4134 
L 1269 4134 
L 1269 2991 
Q 1406 3038 1543 3061 
Q 1681 3084 1819 3084 
Q 2600 3084 3056 2656 
Q 3513 2228 3513 1497 
Q 3513 744 3044 326 
Q 2575 -91 1722 -91 
Q 1428 -91 1123 -41 
Q 819 9 494 109 
L 494 744 
Q 775 591 1075 516 
Q 1375 441 1709 441 
Q 2250 441 2565 725 
Q 2881 1009 2881 1497 
Q 2881 1984 2565 2268 
Q 2250 2553 1709 2553 
Q 1456 2553 1204 2497 
Q 953 2441 691 2322 
L 691 4666 
z
" transform="scale(0.015625)"/>
       </defs>
       <use xlink:href="#DejaVuSans-35"/>
       <use xlink:href="#DejaVuSans-30" x="63.623047"/>
       <use xlink:href="#DejaVuSans-30" x="127.246094"/>
      </g>
     </g>
    </g>
    <g id="xtick_7">
     <g id="line2d_13">
      <path d="M 737.904466 512.64 
L 737.904466 69.12 
" clip-path="url(#p5dbc758563)" style="fill: none; stroke: #ffffff; stroke-width: 0.8; stroke-linecap: square"/>
     </g>
     <g id="line2d_14">
      <g>
       <use xlink:href="#m0070bbf47d" x="737.904466" y="512.64" style="fill: #ffffff; stroke: #ffffff; stroke-width: 0.8"/>
      </g>
     </g>
     <g id="text_7">
      <!-- 600 -->
      <g style="fill: #ffffff" transform="translate(728.360716 527.238438) scale(0.1 -0.1)">
       <defs>
        <path id="DejaVuSans-36" d="M 2113 2584 
Q 1688 2584 1439 2293 
Q 1191 2003 1191 1497 
Q 1191 994 1439 701 
Q 1688 409 2113 409 
Q 2538 409 2786 701 
Q 3034 994 3034 1497 
Q 3034 2003 2786 2293 
Q 2538 2584 2113 2584 
z
M 3366 4563 
L 3366 3988 
Q 3128 4100 2886 4159 
Q 2644 4219 2406 4219 
Q 1781 4219 1451 3797 
Q 1122 3375 1075 2522 
Q 1259 2794 1537 2939 
Q 1816 3084 2150 3084 
Q 2853 3084 3261 2657 
Q 3669 2231 3669 1497 
Q 3669 778 3244 343 
Q 2819 -91 2113 -91 
Q 1303 -91 875 529 
Q 447 1150 447 2328 
Q 447 3434 972 4092 
Q 1497 4750 2381 4750 
Q 2619 4750 2861 4703 
Q 3103 4656 3366 4563 
z
" transform="scale(0.015625)"/>
       </defs>
       <use xlink:href="#DejaVuSans-36"/>
       <use xlink:href="#DejaVuSans-30" x="63.623047"/>
       <use xlink:href="#DejaVuSans-30" x="127.246094"/>
      </g>
     </g>
    </g>
    <g id="text_8">
     <!-- Time (ms) -->
     <g style="fill: #ffffff" transform="translate(417.600781 540.916563) scale(0.1 -0.1)">
      <defs>
       <path id="DejaVuSans-54" d="M -19 4666 
L 3928 4666 
L 3928 4134 
L 2272 4134 
L 2272 0 
L 1638 0 
L 1638 4134 
L -19 4134 
L -19 4666 
z
" transform="scale(0.015625)"/>
       <path id="DejaVuSans-69" d="M 603 3500 
L 1178 3500 
L 1178 0 
L 603 0 
L 603 3500 
z
M 603 4863 
L 1178 4863 
L 1178 4134 
L 603 4134 
L 603 4863 
z
" transform="scale(0.015625)"/>
       <path id="DejaVuSans-6d" d="M 3328 2828 
Q 3544 3216 3844 3400 
Q 4144 3584 4550 3584 
Q 5097 3584 5394 3201 
Q 5691 2819 5691 2113 
L 5691 0 
L 5113 0 
L 5113 2094 
Q 5113 2597 4934 2840 
Q 4756 3084 4391 3084 
Q 3944 3084 3684 2787 
Q 3425 2491 3425 1978 
L 3425 0 
L 2847 0 
L 2847 2094 
Q 2847 2600 2669 2842 
Q 2491 3084 2119 3084 
Q 1678 3084 1418 2786 
Q 1159 2488 1159 1978 
L 1159 0 
L 581 0 
L 581 3500 
L 1159 3500 
L 1159 2956 
Q 1356 3278 1631 3431 
Q 1906 3584 2284 3584 
Q 2666 3584 2933 3390 
Q 3200 3197 3328 2828 
z
" transform="scale(0.015625)"/>
       <path id="DejaVuSans-65" d="M 3597 1894 
L 3597 1613 
L 953 1613 
Q 991 1019 1311 708 
Q 1631 397 2203 397 
Q 2534 397 2845 478 
Q 3156 559 3463 722 
L 3463 178 
Q 3153 47 2828 -22 
Q 2503 -91 2169 -91 
Q 1331 -91 842 396 
Q 353 884 353 1716 
Q 353 2575 817 3079 
Q 1281 3584 2069 3584 
Q 2775 3584 3186 3129 
Q 3597 2675 3597 1894 
z
M 3022 2063 
Q 3016 2534 2758 2815 
Q 2500 3097 2075 3097 
Q 1594 3097 1305 2825 
Q 1016 2553 972 2059 
L 3022 2063 
z
" transform="scale(0.015625)"/>
       <path id="DejaVuSans-20" transform="scale(0.015625)"/>
       <path id="DejaVuSans-28" d="M 1984 4856 
Q 1566 4138 1362 3434 
Q 1159 2731 1159 2009 
Q 1159 1288 1364 580 
Q 1569 -128 1984 -844 
L 1484 -844 
Q 1016 -109 783 600 
Q 550 1309 550 2009 
Q 550 2706 781 3412 
Q 1013 4119 1484 4856 
L 1984 4856 
z
" transform="scale(0.015625)"/>
       <path id="DejaVuSans-73" d="M 2834 3397 
L 2834 2853 
Q 2591 2978 2328 3040 
Q 2066 3103 1784 3103 
Q 1356 3103 1142 2972 
Q 928 2841 928 2578 
Q 928 2378 1081 2264 
Q 1234 2150 1697 2047 
L 1894 2003 
Q 2506 1872 2764 1633 
Q 3022 1394 3022 966 
Q 3022 478 2636 193 
Q 2250 -91 1575 -91 
Q 1294 -91 989 -36 
Q 684 19 347 128 
L 347 722 
Q 666 556 975 473 
Q 1284 391 1588 391 
Q 1994 391 2212 530 
Q 2431 669 2431 922 
Q 2431 1156 2273 1281 
Q 2116 1406 1581 1522 
L 1381 1569 
Q 847 1681 609 1914 
Q 372 2147 372 2553 
Q 372 3047 722 3315 
Q 1072 3584 1716 3584 
Q 2034 3584 2315 3537 
Q 2597 3491 2834 3397 
z
" transform="scale(0.015625)"/>
       <path id="DejaVuSans-29" d="M 513 4856 
L 1013 4856 
Q 1481 4119 1714 3412 
Q 1947 2706 1947 2009 
Q 1947 1309 1714 600 
Q 1481 -109 1013 -844 
L 513 -844 
Q 928 -128 1133 580 
Q 1338 1288 1338 2009 
Q 1338 2731 1133 3434 
Q 928 4138 513 4856 
z
" transform="scale(0.015625)"/>
      </defs>
      <use xlink:href="#DejaVuSans-54"/>
      <use xlink:href="#DejaVuSans-69" x="57.958984"/>
      <use xlink:href="#DejaVuSans-6d" x="85.742188"/>
      <use xlink:href="#DejaVuSans-65" x="183.154297"/>
      <use xlink:href="#DejaVuSans-20" x="244.677734"/>
      <use xlink:href="#DejaVuSans-28" x="276.464844"/>
      <use xlink:href="#DejaVuSans-6d" x="315.478516"/>
      <use xlink:href="#DejaVuSans-73" x="412.890625"/>
      <use xlink:href="#DejaVuSans-29" x="464.990234"/>
     </g>
    </g>
   </g>
   <g id="matplotlib.axis_2">
    <g id="ytick_1">
     <g id="line2d_15">
      <path d="M 108 512.64 
L 777.6 512.64 
" clip-path="url(#p5dbc758563)" style="fill: none; stroke: #ffffff; stroke-width: 0.8; stroke-linecap: square"/>
     </g>
     <g id="line2d_16">
      <defs>
       <path id="ma0de76f39c" d="M 0 0 
L -3.5 0 
" style="stroke: #ffffff; stroke-width: 0.8"/>
      </defs>
      <g>
       <use xlink:href="#ma0de76f39c" x="108" y="512.64" style="fill: #ffffff; stroke: #ffffff; stroke-width: 0.8"/>
      </g>
     </g>
     <g id="text_9">
      <!-- 0.000 -->
      <g style="fill: #ffffff" transform="translate(72.371875 516.439219) scale(0.1 -0.1)">
       <defs>
        <path id="DejaVuSans-2e" d="M 684 794 
L 1344 794 
L 1344 0 
L 684 0 
L 684 794 
z
" transform="scale(0.015625)"/>
       </defs>
       <use xlink:href="#DejaVuSans-30"/>
       <use xlink:href="#DejaVuSans-2e" x="63.623047"/>
       <use xlink:href="#DejaVuSans-30" x="95.410156"/>
       <use xlink:href="#DejaVuSans-30" x="159.033203"/>
       <use xlink:href="#DejaVuSans-30" x="222.65625"/>
      </g>
     </g>
    </g>
    <g id="ytick_2">
     <g id="line2d_17">
      <path d="M 108 417.600473 
L 777.6 417.600473 
" clip-path="url(#p5dbc758563)" style="fill: none; stroke: #ffffff; stroke-width: 0.8; stroke-linecap: square"/>
     </g>
     <g id="line2d_18">
      <g>
       <use xlink:href="#ma0de76f39c" x="108" y="417.600473" style="fill: #ffffff; stroke: #ffffff; stroke-width: 0.8"/>
      </g>
     </g>
     <g id="text_10">
      <!-- 0.002 -->
      <g style="fill: #ffffff" transform="translate(72.371875 421.399692) scale(0.1 -0.1)">
       <use xlink:href="#DejaVuSans-30"/>
       <use xlink:href="#DejaVuSans-2e" x="63.623047"/>
       <use xlink:href="#DejaVuSans-30" x="95.410156"/>
       <use xlink:href="#DejaVuSans-30" x="159.033203"/>
       <use xlink:href="#DejaVuSans-32" x="222.65625"/>
      </g>
     </g>
    </g>
    <g id="ytick_3">
     <g id="line2d_19">
      <path d="M 108 322.560947 
L 777.6 322.560947 
" clip-path="url(#p5dbc758563)" style="fill: none; stroke: #ffffff; stroke-width: 0.8; stroke-linecap: square"/>
     </g>
     <g id="line2d_20">
      <g>
       <use xlink:href="#ma0de76f39c" x="108" y="322.560947" style="fill: #ffffff; stroke: #ffffff; stroke-width: 0.8"/>
      </g>
     </g>
     <g id="text_11">
      <!-- 0.004 -->
      <g style="fill: #ffffff" transform="translate(72.371875 326.360165) scale(0.1 -0.1)">
       <use xlink:href="#DejaVuSans-30"/>
       <use xlink:href="#DejaVuSans-2e" x="63.623047"/>
       <use xlink:href="#DejaVuSans-30" x="95.410156"/>
       <use xlink:href="#DejaVuSans-30" x="159.033203"/>
       <use xlink:href="#DejaVuSans-34" x="222.65625"/>
      </g>
     </g>
    </g>
    <g id="ytick_4">
     <g id="line2d_21">
      <path d="M 108 227.52142 
L 777.6 227.52142 
" clip-path="url(#p5dbc758563)" style="fill: none; stroke: #ffffff; stroke-width: 0.8; stroke-linecap: square"/>
     </g>
     <g id="line2d_22">
      <g>
       <use xlink:href="#ma0de76f39c" x="108" y="227.52142" style="fill: #ffffff; stroke: #ffffff; stroke-width: 0.8"/>
      </g>
     </g>
     <g id="text_12">
      <!-- 0.006 -->
      <g style="fill: #ffffff" transform="translate(72.371875 231.320639) scale(0.1 -0.1)">
       <use xlink:href="#DejaVuSans-30"/>
       <use xlink:href="#DejaVuSans-2e" x="63.623047"/>
       <use xlink:href="#DejaVuSans-30" x="95.410156"/>
       <use xlink:href="#DejaVuSans-30" x="159.033203"/>
       <use xlink:href="#DejaVuSans-36" x="222.65625"/>
      </g>
     </g>
    </g>
    <g id="ytick_5">
     <g id="line2d_23">
      <path d="M 108 132.481893 
L 777.6 132.481893 
" clip-path="url(#p5dbc758563)" style="fill: none; stroke: #ffffff; stroke-width: 0.8; stroke-linecap: square"/>
     </g>
     <g id="line2d_24">
      <g>
       <use xlink:href="#ma0de76f39c" x="108" y="132.481893" style="fill: #ffffff; stroke: #ffffff; stroke-width: 0.8"/>
      </g>
     </g>
     <g id="text_13">
      <!-- 0.008 -->
      <g style="fill: #ffffff" transform="translate(72.371875 136.281112) scale(0.1 -0.1)">
       <defs>
        <path id="DejaVuSans-38" d="M 2034 2216 
Q 1584 2216 1326 1975 
Q 1069 1734 1069 1313 
Q 1069 891 1326 650 
Q 1584 409 2034 409 
Q 2484 409 2743 651 
Q 3003 894 3003 1313 
Q 3003 1734 2745 1975 
Q 2488 2216 2034 2216 
z
M 1403 2484 
Q 997 2584 770 2862 
Q 544 3141 544 3541 
Q 544 4100 942 4425 
Q 1341 4750 2034 4750 
Q 2731 4750 3128 4425 
Q 3525 4100 3525 3541 
Q 3525 3141 3298 2862 
Q 3072 2584 2669 2484 
Q 3125 2378 3379 2068 
Q 3634 1759 3634 1313 
Q 3634 634 3220 271 
Q 2806 -91 2034 -91 
Q 1263 -91 848 271 
Q 434 634 434 1313 
Q 434 1759 690 2068 
Q 947 2378 1403 2484 
z
M 1172 3481 
Q 1172 3119 1398 2916 
Q 1625 2713 2034 2713 
Q 2441 2713 2670 2916 
Q 2900 3119 2900 3481 
Q 2900 3844 2670 4047 
Q 2441 4250 2034 4250 
Q 1625 4250 1398 4047 
Q 1172 3844 1172 3481 
z
" transform="scale(0.015625)"/>
       </defs>
       <use xlink:href="#DejaVuSans-30"/>
       <use xlink:href="#DejaVuSans-2e" x="63.623047"/>
       <use xlink:href="#DejaVuSans-30" x="95.410156"/>
       <use xlink:href="#DejaVuSans-30" x="159.033203"/>
       <use xlink:href="#DejaVuSans-38" x="222.65625"/>
      </g>
     </g>
    </g>
    <g id="text_14">
     <!-- Density -->
     <g style="fill: #ffffff" transform="translate(66.292187 309.888594) rotate(-90) scale(0.1 -0.1)">
      <defs>
       <path id="DejaVuSans-44" d="M 1259 4147 
L 1259 519 
L 2022 519 
Q 2988 519 3436 956 
Q 3884 1394 3884 2338 
Q 3884 3275 3436 3711 
Q 2988 4147 2022 4147 
L 1259 4147 
z
M 628 4666 
L 1925 4666 
Q 3281 4666 3915 4102 
Q 4550 3538 4550 2338 
Q 4550 1131 3912 565 
Q 3275 0 1925 0 
L 628 0 
L 628 4666 
z
" transform="scale(0.015625)"/>
       <path id="DejaVuSans-6e" d="M 3513 2113 
L 3513 0 
L 2938 0 
L 2938 2094 
Q 2938 2591 2744 2837 
Q 2550 3084 2163 3084 
Q 1697 3084 1428 2787 
Q 1159 2491 1159 1978 
L 1159 0 
L 581 0 
L 581 3500 
L 1159 3500 
L 1159 2956 
Q 1366 3272 1645 3428 
Q 1925 3584 2291 3584 
Q 2894 3584 3203 3211 
Q 3513 2838 3513 2113 
z
" transform="scale(0.015625)"/>
       <path id="DejaVuSans-74" d="M 1172 4494 
L 1172 3500 
L 2356 3500 
L 2356 3053 
L 1172 3053 
L 1172 1153 
Q 1172 725 1289 603 
Q 1406 481 1766 481 
L 2356 481 
L 2356 0 
L 1766 0 
Q 1100 0 847 248 
Q 594 497 594 1153 
L 594 3053 
L 172 3053 
L 172 3500 
L 594 3500 
L 594 4494 
L 1172 4494 
z
" transform="scale(0.015625)"/>
       <path id="DejaVuSans-79" d="M 2059 -325 
Q 1816 -950 1584 -1140 
Q 1353 -1331 966 -1331 
L 506 -1331 
L 506 -850 
L 844 -850 
Q 1081 -850 1212 -737 
Q 1344 -625 1503 -206 
L 1606 56 
L 191 3500 
L 800 3500 
L 1894 763 
L 2988 3500 
L 3597 3500 
L 2059 -325 
z
" transform="scale(0.015625)"/>
      </defs>
      <use xlink:href="#DejaVuSans-44"/>
      <use xlink:href="#DejaVuSans-65" x="77.001953"/>
      <use xlink:href="#DejaVuSans-6e" x="138.525391"/>
      <use xlink:href="#DejaVuSans-73" x="201.904297"/>
      <use xlink:href="#DejaVuSans-69" x="254.003906"/>
      <use xlink:href="#DejaVuSans-74" x="281.787109"/>
      <use xlink:href="#DejaVuSans-79" x="320.996094"/>
     </g>
    </g>
   </g>
   <g id="patch_3">
    <path d="M 108 512.64 
L 108 69.12 
" style="fill: none; stroke: #ffffff; stroke-width: 0.8; stroke-linejoin: miter; stroke-linecap: square"/>
   </g>
   <g id="patch_4">
    <path d="M 777.6 512.64 
L 777.6 69.12 
" style="fill: none; stroke: #ffffff; stroke-width: 0.8; stroke-linejoin: miter; stroke-linecap: square"/>
   </g>
   <g id="patch_5">
    <path d="M 108 512.64 
L 777.6 512.64 
" style="fill: none; stroke: #ffffff; stroke-width: 0.8; stroke-linejoin: miter; stroke-linecap: square"/>
   </g>
   <g id="patch_6">
    <path d="M 108 69.12 
L 777.6 69.12 
" style="fill: none; stroke: #ffffff; stroke-width: 0.8; stroke-linejoin: miter; stroke-linecap: square"/>
   </g>
   <g id="text_15">
    <!-- Density Plot of Execution Time across Implementations -->
    <g style="fill: #ffffff" transform="translate(277.336875 63.12) scale(0.12 -0.12)">
     <defs>
      <path id="DejaVuSans-50" d="M 1259 4147 
L 1259 2394 
L 2053 2394 
Q 2494 2394 2734 2622 
Q 2975 2850 2975 3272 
Q 2975 3691 2734 3919 
Q 2494 4147 2053 4147 
L 1259 4147 
z
M 628 4666 
L 2053 4666 
Q 2838 4666 3239 4311 
Q 3641 3956 3641 3272 
Q 3641 2581 3239 2228 
Q 2838 1875 2053 1875 
L 1259 1875 
L 1259 0 
L 628 0 
L 628 4666 
z
" transform="scale(0.015625)"/>
      <path id="DejaVuSans-6c" d="M 603 4863 
L 1178 4863 
L 1178 0 
L 603 0 
L 603 4863 
z
" transform="scale(0.015625)"/>
      <path id="DejaVuSans-6f" d="M 1959 3097 
Q 1497 3097 1228 2736 
Q 959 2375 959 1747 
Q 959 1119 1226 758 
Q 1494 397 1959 397 
Q 2419 397 2687 759 
Q 2956 1122 2956 1747 
Q 2956 2369 2687 2733 
Q 2419 3097 1959 3097 
z
M 1959 3584 
Q 2709 3584 3137 3096 
Q 3566 2609 3566 1747 
Q 3566 888 3137 398 
Q 2709 -91 1959 -91 
Q 1206 -91 779 398 
Q 353 888 353 1747 
Q 353 2609 779 3096 
Q 1206 3584 1959 3584 
z
" transform="scale(0.015625)"/>
      <path id="DejaVuSans-66" d="M 2375 4863 
L 2375 4384 
L 1825 4384 
Q 1516 4384 1395 4259 
Q 1275 4134 1275 3809 
L 1275 3500 
L 2222 3500 
L 2222 3053 
L 1275 3053 
L 1275 0 
L 697 0 
L 697 3053 
L 147 3053 
L 147 3500 
L 697 3500 
L 697 3744 
Q 697 4328 969 4595 
Q 1241 4863 1831 4863 
L 2375 4863 
z
" transform="scale(0.015625)"/>
      <path id="DejaVuSans-45" d="M 628 4666 
L 3578 4666 
L 3578 4134 
L 1259 4134 
L 1259 2753 
L 3481 2753 
L 3481 2222 
L 1259 2222 
L 1259 531 
L 3634 531 
L 3634 0 
L 628 0 
L 628 4666 
z
" transform="scale(0.015625)"/>
      <path id="DejaVuSans-78" d="M 3513 3500 
L 2247 1797 
L 3578 0 
L 2900 0 
L 1881 1375 
L 863 0 
L 184 0 
L 1544 1831 
L 300 3500 
L 978 3500 
L 1906 2253 
L 2834 3500 
L 3513 3500 
z
" transform="scale(0.015625)"/>
      <path id="DejaVuSans-63" d="M 3122 3366 
L 3122 2828 
Q 2878 2963 2633 3030 
Q 2388 3097 2138 3097 
Q 1578 3097 1268 2742 
Q 959 2388 959 1747 
Q 959 1106 1268 751 
Q 1578 397 2138 397 
Q 2388 397 2633 464 
Q 2878 531 3122 666 
L 3122 134 
Q 2881 22 2623 -34 
Q 2366 -91 2075 -91 
Q 1284 -91 818 406 
Q 353 903 353 1747 
Q 353 2603 823 3093 
Q 1294 3584 2113 3584 
Q 2378 3584 2631 3529 
Q 2884 3475 3122 3366 
z
" transform="scale(0.015625)"/>
      <path id="DejaVuSans-75" d="M 544 1381 
L 544 3500 
L 1119 3500 
L 1119 1403 
Q 1119 906 1312 657 
Q 1506 409 1894 409 
Q 2359 409 2629 706 
Q 2900 1003 2900 1516 
L 2900 3500 
L 3475 3500 
L 3475 0 
L 2900 0 
L 2900 538 
Q 2691 219 2414 64 
Q 2138 -91 1772 -91 
Q 1169 -91 856 284 
Q 544 659 544 1381 
z
M 1991 3584 
L 1991 3584 
z
" transform="scale(0.015625)"/>
      <path id="DejaVuSans-61" d="M 2194 1759 
Q 1497 1759 1228 1600 
Q 959 1441 959 1056 
Q 959 750 1161 570 
Q 1363 391 1709 391 
Q 2188 391 2477 730 
Q 2766 1069 2766 1631 
L 2766 1759 
L 2194 1759 
z
M 3341 1997 
L 3341 0 
L 2766 0 
L 2766 531 
Q 2569 213 2275 61 
Q 1981 -91 1556 -91 
Q 1019 -91 701 211 
Q 384 513 384 1019 
Q 384 1609 779 1909 
Q 1175 2209 1959 2209 
L 2766 2209 
L 2766 2266 
Q 2766 2663 2505 2880 
Q 2244 3097 1772 3097 
Q 1472 3097 1187 3025 
Q 903 2953 641 2809 
L 641 3341 
Q 956 3463 1253 3523 
Q 1550 3584 1831 3584 
Q 2591 3584 2966 3190 
Q 3341 2797 3341 1997 
z
" transform="scale(0.015625)"/>
      <path id="DejaVuSans-72" d="M 2631 2963 
Q 2534 3019 2420 3045 
Q 2306 3072 2169 3072 
Q 1681 3072 1420 2755 
Q 1159 2438 1159 1844 
L 1159 0 
L 581 0 
L 581 3500 
L 1159 3500 
L 1159 2956 
Q 1341 3275 1631 3429 
Q 1922 3584 2338 3584 
Q 2397 3584 2469 3576 
Q 2541 3569 2628 3553 
L 2631 2963 
z
" transform="scale(0.015625)"/>
      <path id="DejaVuSans-49" d="M 628 4666 
L 1259 4666 
L 1259 0 
L 628 0 
L 628 4666 
z
" transform="scale(0.015625)"/>
      <path id="DejaVuSans-70" d="M 1159 525 
L 1159 -1331 
L 581 -1331 
L 581 3500 
L 1159 3500 
L 1159 2969 
Q 1341 3281 1617 3432 
Q 1894 3584 2278 3584 
Q 2916 3584 3314 3078 
Q 3713 2572 3713 1747 
Q 3713 922 3314 415 
Q 2916 -91 2278 -91 
Q 1894 -91 1617 61 
Q 1341 213 1159 525 
z
M 3116 1747 
Q 3116 2381 2855 2742 
Q 2594 3103 2138 3103 
Q 1681 3103 1420 2742 
Q 1159 2381 1159 1747 
Q 1159 1113 1420 752 
Q 1681 391 2138 391 
Q 2594 391 2855 752 
Q 3116 1113 3116 1747 
z
" transform="scale(0.015625)"/>
     </defs>
     <use xlink:href="#DejaVuSans-44"/>
     <use xlink:href="#DejaVuSans-65" x="77.001953"/>
     <use xlink:href="#DejaVuSans-6e" x="138.525391"/>
     <use xlink:href="#DejaVuSans-73" x="201.904297"/>
     <use xlink:href="#DejaVuSans-69" x="254.003906"/>
     <use xlink:href="#DejaVuSans-74" x="281.787109"/>
     <use xlink:href="#DejaVuSans-79" x="320.996094"/>
     <use xlink:href="#DejaVuSans-20" x="380.175781"/>
     <use xlink:href="#DejaVuSans-50" x="411.962891"/>
     <use xlink:href="#DejaVuSans-6c" x="472.265625"/>
     <use xlink:href="#DejaVuSans-6f" x="500.048828"/>
     <use xlink:href="#DejaVuSans-74" x="561.230469"/>
     <use xlink:href="#DejaVuSans-20" x="600.439453"/>
     <use xlink:href="#DejaVuSans-6f" x="632.226562"/>
     <use xlink:href="#DejaVuSans-66" x="693.408203"/>
     <use xlink:href="#DejaVuSans-20" x="728.613281"/>
     <use xlink:href="#DejaVuSans-45" x="760.400391"/>
     <use xlink:href="#DejaVuSans-78" x="823.583984"/>
     <use xlink:href="#DejaVuSans-65" x="879.638672"/>
     <use xlink:href="#DejaVuSans-63" x="941.162109"/>
     <use xlink:href="#DejaVuSans-75" x="996.142578"/>
     <use xlink:href="#DejaVuSans-74" x="1059.521484"/>
     <use xlink:href="#DejaVuSans-69" x="1098.730469"/>
     <use xlink:href="#DejaVuSans-6f" x="1126.513672"/>
     <use xlink:href="#DejaVuSans-6e" x="1187.695312"/>
     <use xlink:href="#DejaVuSans-20" x="1251.074219"/>
     <use xlink:href="#DejaVuSans-54" x="1282.861328"/>
     <use xlink:href="#DejaVuSans-69" x="1340.820312"/>
     <use xlink:href="#DejaVuSans-6d" x="1368.603516"/>
     <use xlink:href="#DejaVuSans-65" x="1466.015625"/>
     <use xlink:href="#DejaVuSans-20" x="1527.539062"/>
     <use xlink:href="#DejaVuSans-61" x="1559.326172"/>
     <use xlink:href="#DejaVuSans-63" x="1620.605469"/>
     <use xlink:href="#DejaVuSans-72" x="1675.585938"/>
     <use xlink:href="#DejaVuSans-6f" x="1714.449219"/>
     <use xlink:href="#DejaVuSans-73" x="1775.630859"/>
     <use xlink:href="#DejaVuSans-73" x="1827.730469"/>
     <use xlink:href="#DejaVuSans-20" x="1879.830078"/>
     <use xlink:href="#DejaVuSans-49" x="1911.617188"/>
     <use xlink:href="#DejaVuSans-6d" x="1941.109375"/>
     <use xlink:href="#DejaVuSans-70" x="2038.521484"/>
     <use xlink:href="#DejaVuSans-6c" x="2101.998047"/>
     <use xlink:href="#DejaVuSans-65" x="2129.78125"/>
     <use xlink:href="#DejaVuSans-6d" x="2191.304688"/>
     <use xlink:href="#DejaVuSans-65" x="2288.716797"/>
     <use xlink:href="#DejaVuSans-6e" x="2350.240234"/>
     <use xlink:href="#DejaVuSans-74" x="2413.619141"/>
     <use xlink:href="#DejaVuSans-61" x="2452.828125"/>
     <use xlink:href="#DejaVuSans-74" x="2514.107422"/>
     <use xlink:href="#DejaVuSans-69" x="2553.316406"/>
     <use xlink:href="#DejaVuSans-6f" x="2581.099609"/>
     <use xlink:href="#DejaVuSans-6e" x="2642.28125"/>
     <use xlink:href="#DejaVuSans-73" x="2705.660156"/>
    </g>
   </g>
   <g id="legend_1">
    <g id="patch_7">
     <path d="M 617.078125 136.666875 
L 770.6 136.666875 
Q 772.6 136.666875 772.6 134.666875 
L 772.6 76.12 
Q 772.6 74.12 770.6 74.12 
L 617.078125 74.12 
Q 615.078125 74.12 615.078125 76.12 
L 615.078125 134.666875 
Q 615.078125 136.666875 617.078125 136.666875 
z
" style="opacity: 0.8; stroke: #cccccc; stroke-linejoin: miter"/>
    </g>
    <g id="text_16">
     <!-- implementation -->
     <g style="fill: #ffffff" transform="translate(654.222656 85.718437) scale(0.1 -0.1)">
      <use xlink:href="#DejaVuSans-69"/>
      <use xlink:href="#DejaVuSans-6d" x="27.783203"/>
      <use xlink:href="#DejaVuSans-70" x="125.195312"/>
      <use xlink:href="#DejaVuSans-6c" x="188.671875"/>
      <use xlink:href="#DejaVuSans-65" x="216.455078"/>
      <use xlink:href="#DejaVuSans-6d" x="277.978516"/>
      <use xlink:href="#DejaVuSans-65" x="375.390625"/>
      <use xlink:href="#DejaVuSans-6e" x="436.914062"/>
      <use xlink:href="#DejaVuSans-74" x="500.292969"/>
      <use xlink:href="#DejaVuSans-61" x="539.501953"/>
      <use xlink:href="#DejaVuSans-74" x="600.78125"/>
      <use xlink:href="#DejaVuSans-69" x="639.990234"/>
      <use xlink:href="#DejaVuSans-6f" x="667.773438"/>
      <use xlink:href="#DejaVuSans-6e" x="728.955078"/>
     </g>
    </g>
    <g id="patch_8">
     <path d="M 619.078125 100.396563 
L 639.078125 100.396563 
L 639.078125 93.396563 
L 619.078125 93.396563 
z
" style="fill: #023eff; fill-opacity: 0.25; stroke: #023eff; stroke-linejoin: miter"/>
    </g>
    <g id="text_17">
     <!-- caio.python_aio_asyncio -->
     <g style="fill: #ffffff" transform="translate(647.078125 100.396563) scale(0.1 -0.1)">
      <defs>
       <path id="DejaVuSans-68" d="M 3513 2113 
L 3513 0 
L 2938 0 
L 2938 2094 
Q 2938 2591 2744 2837 
Q 2550 3084 2163 3084 
Q 1697 3084 1428 2787 
Q 1159 2491 1159 1978 
L 1159 0 
L 581 0 
L 581 4863 
L 1159 4863 
L 1159 2956 
Q 1366 3272 1645 3428 
Q 1925 3584 2291 3584 
Q 2894 3584 3203 3211 
Q 3513 2838 3513 2113 
z
" transform="scale(0.015625)"/>
       <path id="DejaVuSans-5f" d="M 3263 -1063 
L 3263 -1509 
L -63 -1509 
L -63 -1063 
L 3263 -1063 
z
" transform="scale(0.015625)"/>
      </defs>
      <use xlink:href="#DejaVuSans-63"/>
      <use xlink:href="#DejaVuSans-61" x="54.980469"/>
      <use xlink:href="#DejaVuSans-69" x="116.259766"/>
      <use xlink:href="#DejaVuSans-6f" x="144.042969"/>
      <use xlink:href="#DejaVuSans-2e" x="203.474609"/>
      <use xlink:href="#DejaVuSans-70" x="235.261719"/>
      <use xlink:href="#DejaVuSans-79" x="298.738281"/>
      <use xlink:href="#DejaVuSans-74" x="357.917969"/>
      <use xlink:href="#DejaVuSans-68" x="397.126953"/>
      <use xlink:href="#DejaVuSans-6f" x="460.505859"/>
      <use xlink:href="#DejaVuSans-6e" x="521.6875"/>
      <use xlink:href="#DejaVuSans-5f" x="585.066406"/>
      <use xlink:href="#DejaVuSans-61" x="635.066406"/>
      <use xlink:href="#DejaVuSans-69" x="696.345703"/>
      <use xlink:href="#DejaVuSans-6f" x="724.128906"/>
      <use xlink:href="#DejaVuSans-5f" x="785.310547"/>
      <use xlink:href="#DejaVuSans-61" x="835.310547"/>
      <use xlink:href="#DejaVuSans-73" x="896.589844"/>
      <use xlink:href="#DejaVuSans-79" x="948.689453"/>
      <use xlink:href="#DejaVuSans-6e" x="1007.869141"/>
      <use xlink:href="#DejaVuSans-63" x="1071.248047"/>
      <use xlink:href="#DejaVuSans-69" x="1126.228516"/>
      <use xlink:href="#DejaVuSans-6f" x="1154.011719"/>
     </g>
    </g>
    <g id="patch_9">
     <path d="M 619.078125 115.352813 
L 639.078125 115.352813 
L 639.078125 108.352813 
L 619.078125 108.352813 
z
" style="fill: #ff7c00; fill-opacity: 0.25; stroke: #ff7c00; stroke-linejoin: miter"/>
    </g>
    <g id="text_18">
     <!-- caio.linux_aio_asyncio -->
     <g style="fill: #ffffff" transform="translate(647.078125 115.352813) scale(0.1 -0.1)">
      <use xlink:href="#DejaVuSans-63"/>
      <use xlink:href="#DejaVuSans-61" x="54.980469"/>
      <use xlink:href="#DejaVuSans-69" x="116.259766"/>
      <use xlink:href="#DejaVuSans-6f" x="144.042969"/>
      <use xlink:href="#DejaVuSans-2e" x="203.474609"/>
      <use xlink:href="#DejaVuSans-6c" x="235.261719"/>
      <use xlink:href="#DejaVuSans-69" x="263.044922"/>
      <use xlink:href="#DejaVuSans-6e" x="290.828125"/>
      <use xlink:href="#DejaVuSans-75" x="354.207031"/>
      <use xlink:href="#DejaVuSans-78" x="417.585938"/>
      <use xlink:href="#DejaVuSans-5f" x="476.765625"/>
      <use xlink:href="#DejaVuSans-61" x="526.765625"/>
      <use xlink:href="#DejaVuSans-69" x="588.044922"/>
      <use xlink:href="#DejaVuSans-6f" x="615.828125"/>
      <use xlink:href="#DejaVuSans-5f" x="677.009766"/>
      <use xlink:href="#DejaVuSans-61" x="727.009766"/>
      <use xlink:href="#DejaVuSans-73" x="788.289062"/>
      <use xlink:href="#DejaVuSans-79" x="840.388672"/>
      <use xlink:href="#DejaVuSans-6e" x="899.568359"/>
      <use xlink:href="#DejaVuSans-63" x="962.947266"/>
      <use xlink:href="#DejaVuSans-69" x="1017.927734"/>
      <use xlink:href="#DejaVuSans-6f" x="1045.710938"/>
     </g>
    </g>
    <g id="patch_10">
     <path d="M 619.078125 130.309063 
L 639.078125 130.309063 
L 639.078125 123.309063 
L 619.078125 123.309063 
z
" style="fill: #1ac938; fill-opacity: 0.25; stroke: #1ac938; stroke-linejoin: miter"/>
    </g>
    <g id="text_19">
     <!-- caio.thread_aio_asyncio -->
     <g style="fill: #ffffff" transform="translate(647.078125 130.309063) scale(0.1 -0.1)">
      <defs>
       <path id="DejaVuSans-64" d="M 2906 2969 
L 2906 4863 
L 3481 4863 
L 3481 0 
L 2906 0 
L 2906 525 
Q 2725 213 2448 61 
Q 2172 -91 1784 -91 
Q 1150 -91 751 415 
Q 353 922 353 1747 
Q 353 2572 751 3078 
Q 1150 3584 1784 3584 
Q 2172 3584 2448 3432 
Q 2725 3281 2906 2969 
z
M 947 1747 
Q 947 1113 1208 752 
Q 1469 391 1925 391 
Q 2381 391 2643 752 
Q 2906 1113 2906 1747 
Q 2906 2381 2643 2742 
Q 2381 3103 1925 3103 
Q 1469 3103 1208 2742 
Q 947 2381 947 1747 
z
" transform="scale(0.015625)"/>
      </defs>
      <use xlink:href="#DejaVuSans-63"/>
      <use xlink:href="#DejaVuSans-61" x="54.980469"/>
      <use xlink:href="#DejaVuSans-69" x="116.259766"/>
      <use xlink:href="#DejaVuSans-6f" x="144.042969"/>
      <use xlink:href="#DejaVuSans-2e" x="203.474609"/>
      <use xlink:href="#DejaVuSans-74" x="235.261719"/>
      <use xlink:href="#DejaVuSans-68" x="274.470703"/>
      <use xlink:href="#DejaVuSans-72" x="337.849609"/>
      <use xlink:href="#DejaVuSans-65" x="376.712891"/>
      <use xlink:href="#DejaVuSans-61" x="438.236328"/>
      <use xlink:href="#DejaVuSans-64" x="499.515625"/>
      <use xlink:href="#DejaVuSans-5f" x="562.992188"/>
      <use xlink:href="#DejaVuSans-61" x="612.992188"/>
      <use xlink:href="#DejaVuSans-69" x="674.271484"/>
      <use xlink:href="#DejaVuSans-6f" x="702.054688"/>
      <use xlink:href="#DejaVuSans-5f" x="763.236328"/>
      <use xlink:href="#DejaVuSans-61" x="813.236328"/>
      <use xlink:href="#DejaVuSans-73" x="874.515625"/>
      <use xlink:href="#DejaVuSans-79" x="926.615234"/>
      <use xlink:href="#DejaVuSans-6e" x="985.794922"/>
      <use xlink:href="#DejaVuSans-63" x="1049.173828"/>
      <use xlink:href="#DejaVuSans-69" x="1104.154297"/>
      <use xlink:href="#DejaVuSans-6f" x="1131.9375"/>
     </g>
    </g>
   </g>
  </g>
 </g>
 <defs>
  <clipPath id="p5dbc758563">
   <rect x="108" y="69.12" width="669.6" height="443.52"/>
  </clipPath>
 </defs>
</svg>
