<?xml version="1.0" encoding="utf-8" standalone="no"?>
<!DOCTYPE svg PUBLIC "-//W3C//DTD SVG 1.1//EN"
  "http://www.w3.org/Graphics/SVG/1.1/DTD/svg11.dtd">
<svg xmlns:xlink="http://www.w3.org/1999/xlink" width="720pt" height="432pt" viewBox="0 0 720 432" xmlns="http://www.w3.org/2000/svg" version="1.1">
 <metadata>
  <rdf:RDF xmlns:dc="http://purl.org/dc/elements/1.1/" xmlns:cc="http://creativecommons.org/ns#" xmlns:rdf="http://www.w3.org/1999/02/22-rdf-syntax-ns#">
   <cc:Work>
    <dc:type rdf:resource="http://purl.org/dc/dcmitype/StillImage"/>
    <dc:date>2024-01-19T20:27:15.237308</dc:date>
    <dc:format>image/svg+xml</dc:format>
    <dc:creator>
     <cc:Agent>
      <dc:title>Matplotlib v3.8.2, https://matplotlib.org/</dc:title>
     </cc:Agent>
    </dc:creator>
   </cc:Work>
  </rdf:RDF>
 </metadata>
 <defs>
  <style type="text/css">*{stroke-linejoin: round; stroke-linecap: butt}</style>
 </defs>
 <g id="figure_1">
  <g id="patch_1">
   <path d="M 0 432 
L 720 432 
L 720 0 
L 0 0 
z
"/>
  </g>
  <g id="axes_1">
   <g id="patch_2">
    <path d="M 90 384.48 
L 648 384.48 
L 648 51.84 
L 90 51.84 
z
"/>
   </g>
   <g id="matplotlib.axis_1">
    <g id="xtick_1">
     <g id="line2d_1">
      <path d="M 115.363636 384.48 
L 115.363636 51.84 
" clip-path="url(#p328f8ff814)" style="fill: none; stroke: #ffffff; stroke-width: 0.8; stroke-linecap: square"/>
     </g>
     <g id="line2d_2">
      <defs>
       <path id="m727aa38c24" d="M 0 0 
L 0 3.5 
" style="stroke: #ffffff; stroke-width: 0.8"/>
      </defs>
      <g>
       <use xlink:href="#m727aa38c24" x="115.363636" y="384.48" style="fill: #ffffff; stroke: #ffffff; stroke-width: 0.8"/>
      </g>
     </g>
     <g id="text_1">
      <!-- 55912 -->
      <g style="fill: #ffffff" transform="translate(106.067392 419.347741) rotate(-45) scale(0.1 -0.1)">
       <defs>
        <path id="DejaVuSans-35" d="M 691 4666 
L 3169 4666 
L 3169 4134 
L 1269 4134 
L 1269 2991 
Q 1406 3038 1543 3061 
Q 1681 3084 1819 3084 
Q 2600 3084 3056 2656 
Q 3513 2228 3513 1497 
Q 3513 744 3044 326 
Q 2575 -91 1722 -91 
Q 1428 -91 1123 -41 
Q 819 9 494 109 
L 494 744 
Q 775 591 1075 516 
Q 1375 441 1709 441 
Q 2250 441 2565 725 
Q 2881 1009 2881 1497 
Q 2881 1984 2565 2268 
Q 2250 2553 1709 2553 
Q 1456 2553 1204 2497 
Q 953 2441 691 2322 
L 691 4666 
z
" transform="scale(0.015625)"/>
        <path id="DejaVuSans-39" d="M 703 97 
L 703 672 
Q 941 559 1184 500 
Q 1428 441 1663 441 
Q 2288 441 2617 861 
Q 2947 1281 2994 2138 
Q 2813 1869 2534 1725 
Q 2256 1581 1919 1581 
Q 1219 1581 811 2004 
Q 403 2428 403 3163 
Q 403 3881 828 4315 
Q 1253 4750 1959 4750 
Q 2769 4750 3195 4129 
Q 3622 3509 3622 2328 
Q 3622 1225 3098 567 
Q 2575 -91 1691 -91 
Q 1453 -91 1209 -44 
Q 966 3 703 97 
z
M 1959 2075 
Q 2384 2075 2632 2365 
Q 2881 2656 2881 3163 
Q 2881 3666 2632 3958 
Q 2384 4250 1959 4250 
Q 1534 4250 1286 3958 
Q 1038 3666 1038 3163 
Q 1038 2656 1286 2365 
Q 1534 2075 1959 2075 
z
" transform="scale(0.015625)"/>
        <path id="DejaVuSans-31" d="M 794 531 
L 1825 531 
L 1825 4091 
L 703 3866 
L 703 4441 
L 1819 4666 
L 2450 4666 
L 2450 531 
L 3481 531 
L 3481 0 
L 794 0 
L 794 531 
z
" transform="scale(0.015625)"/>
        <path id="DejaVuSans-32" d="M 1228 531 
L 3431 531 
L 3431 0 
L 469 0 
L 469 531 
Q 828 903 1448 1529 
Q 2069 2156 2228 2338 
Q 2531 2678 2651 2914 
Q 2772 3150 2772 3378 
Q 2772 3750 2511 3984 
Q 2250 4219 1831 4219 
Q 1534 4219 1204 4116 
Q 875 4013 500 3803 
L 500 4441 
Q 881 4594 1212 4672 
Q 1544 4750 1819 4750 
Q 2544 4750 2975 4387 
Q 3406 4025 3406 3419 
Q 3406 3131 3298 2873 
Q 3191 2616 2906 2266 
Q 2828 2175 2409 1742 
Q 1991 1309 1228 531 
z
" transform="scale(0.015625)"/>
       </defs>
       <use xlink:href="#DejaVuSans-35"/>
       <use xlink:href="#DejaVuSans-35" x="63.623047"/>
       <use xlink:href="#DejaVuSans-39" x="127.246094"/>
       <use xlink:href="#DejaVuSans-31" x="190.869141"/>
       <use xlink:href="#DejaVuSans-32" x="254.492188"/>
      </g>
     </g>
    </g>
    <g id="xtick_2">
     <g id="line2d_3">
      <path d="M 136.5 384.48 
L 136.5 51.84 
" clip-path="url(#p328f8ff814)" style="fill: none; stroke: #ffffff; stroke-width: 0.8; stroke-linecap: square"/>
     </g>
     <g id="line2d_4">
      <g>
       <use xlink:href="#m727aa38c24" x="136.5" y="384.48" style="fill: #ffffff; stroke: #ffffff; stroke-width: 0.8"/>
      </g>
     </g>
     <g id="text_2">
      <!-- 58342 -->
      <g style="fill: #ffffff" transform="translate(127.203756 419.347741) rotate(-45) scale(0.1 -0.1)">
       <defs>
        <path id="DejaVuSans-38" d="M 2034 2216 
Q 1584 2216 1326 1975 
Q 1069 1734 1069 1313 
Q 1069 891 1326 650 
Q 1584 409 2034 409 
Q 2484 409 2743 651 
Q 3003 894 3003 1313 
Q 3003 1734 2745 1975 
Q 2488 2216 2034 2216 
z
M 1403 2484 
Q 997 2584 770 2862 
Q 544 3141 544 3541 
Q 544 4100 942 4425 
Q 1341 4750 2034 4750 
Q 2731 4750 3128 4425 
Q 3525 4100 3525 3541 
Q 3525 3141 3298 2862 
Q 3072 2584 2669 2484 
Q 3125 2378 3379 2068 
Q 3634 1759 3634 1313 
Q 3634 634 3220 271 
Q 2806 -91 2034 -91 
Q 1263 -91 848 271 
Q 434 634 434 1313 
Q 434 1759 690 2068 
Q 947 2378 1403 2484 
z
M 1172 3481 
Q 1172 3119 1398 2916 
Q 1625 2713 2034 2713 
Q 2441 2713 2670 2916 
Q 2900 3119 2900 3481 
Q 2900 3844 2670 4047 
Q 2441 4250 2034 4250 
Q 1625 4250 1398 4047 
Q 1172 3844 1172 3481 
z
" transform="scale(0.015625)"/>
        <path id="DejaVuSans-33" d="M 2597 2516 
Q 3050 2419 3304 2112 
Q 3559 1806 3559 1356 
Q 3559 666 3084 287 
Q 2609 -91 1734 -91 
Q 1441 -91 1130 -33 
Q 819 25 488 141 
L 488 750 
Q 750 597 1062 519 
Q 1375 441 1716 441 
Q 2309 441 2620 675 
Q 2931 909 2931 1356 
Q 2931 1769 2642 2001 
Q 2353 2234 1838 2234 
L 1294 2234 
L 1294 2753 
L 1863 2753 
Q 2328 2753 2575 2939 
Q 2822 3125 2822 3475 
Q 2822 3834 2567 4026 
Q 2313 4219 1838 4219 
Q 1578 4219 1281 4162 
Q 984 4106 628 3988 
L 628 4550 
Q 988 4650 1302 4700 
Q 1616 4750 1894 4750 
Q 2613 4750 3031 4423 
Q 3450 4097 3450 3541 
Q 3450 3153 3228 2886 
Q 3006 2619 2597 2516 
z
" transform="scale(0.015625)"/>
        <path id="DejaVuSans-34" d="M 2419 4116 
L 825 1625 
L 2419 1625 
L 2419 4116 
z
M 2253 4666 
L 3047 4666 
L 3047 1625 
L 3713 1625 
L 3713 1100 
L 3047 1100 
L 3047 0 
L 2419 0 
L 2419 1100 
L 313 1100 
L 313 1709 
L 2253 4666 
z
" transform="scale(0.015625)"/>
       </defs>
       <use xlink:href="#DejaVuSans-35"/>
       <use xlink:href="#DejaVuSans-38" x="63.623047"/>
       <use xlink:href="#DejaVuSans-33" x="127.246094"/>
       <use xlink:href="#DejaVuSans-34" x="190.869141"/>
       <use xlink:href="#DejaVuSans-32" x="254.492188"/>
      </g>
     </g>
    </g>
    <g id="xtick_3">
     <g id="line2d_5">
      <path d="M 157.636364 384.48 
L 157.636364 51.84 
" clip-path="url(#p328f8ff814)" style="fill: none; stroke: #ffffff; stroke-width: 0.8; stroke-linecap: square"/>
     </g>
     <g id="line2d_6">
      <g>
       <use xlink:href="#m727aa38c24" x="157.636364" y="384.48" style="fill: #ffffff; stroke: #ffffff; stroke-width: 0.8"/>
      </g>
     </g>
     <g id="text_3">
      <!-- 60994 -->
      <g style="fill: #ffffff" transform="translate(148.340119 419.347741) rotate(-45) scale(0.1 -0.1)">
       <defs>
        <path id="DejaVuSans-36" d="M 2113 2584 
Q 1688 2584 1439 2293 
Q 1191 2003 1191 1497 
Q 1191 994 1439 701 
Q 1688 409 2113 409 
Q 2538 409 2786 701 
Q 3034 994 3034 1497 
Q 3034 2003 2786 2293 
Q 2538 2584 2113 2584 
z
M 3366 4563 
L 3366 3988 
Q 3128 4100 2886 4159 
Q 2644 4219 2406 4219 
Q 1781 4219 1451 3797 
Q 1122 3375 1075 2522 
Q 1259 2794 1537 2939 
Q 1816 3084 2150 3084 
Q 2853 3084 3261 2657 
Q 3669 2231 3669 1497 
Q 3669 778 3244 343 
Q 2819 -91 2113 -91 
Q 1303 -91 875 529 
Q 447 1150 447 2328 
Q 447 3434 972 4092 
Q 1497 4750 2381 4750 
Q 2619 4750 2861 4703 
Q 3103 4656 3366 4563 
z
" transform="scale(0.015625)"/>
        <path id="DejaVuSans-30" d="M 2034 4250 
Q 1547 4250 1301 3770 
Q 1056 3291 1056 2328 
Q 1056 1369 1301 889 
Q 1547 409 2034 409 
Q 2525 409 2770 889 
Q 3016 1369 3016 2328 
Q 3016 3291 2770 3770 
Q 2525 4250 2034 4250 
z
M 2034 4750 
Q 2819 4750 3233 4129 
Q 3647 3509 3647 2328 
Q 3647 1150 3233 529 
Q 2819 -91 2034 -91 
Q 1250 -91 836 529 
Q 422 1150 422 2328 
Q 422 3509 836 4129 
Q 1250 4750 2034 4750 
z
" transform="scale(0.015625)"/>
       </defs>
       <use xlink:href="#DejaVuSans-36"/>
       <use xlink:href="#DejaVuSans-30" x="63.623047"/>
       <use xlink:href="#DejaVuSans-39" x="127.246094"/>
       <use xlink:href="#DejaVuSans-39" x="190.869141"/>
       <use xlink:href="#DejaVuSans-34" x="254.492188"/>
      </g>
     </g>
    </g>
    <g id="xtick_4">
     <g id="line2d_7">
      <path d="M 178.772727 384.48 
L 178.772727 51.84 
" clip-path="url(#p328f8ff814)" style="fill: none; stroke: #ffffff; stroke-width: 0.8; stroke-linecap: square"/>
     </g>
     <g id="line2d_8">
      <g>
       <use xlink:href="#m727aa38c24" x="178.772727" y="384.48" style="fill: #ffffff; stroke: #ffffff; stroke-width: 0.8"/>
      </g>
     </g>
     <g id="text_4">
      <!-- 63897 -->
      <g style="fill: #ffffff" transform="translate(169.476483 419.347741) rotate(-45) scale(0.1 -0.1)">
       <defs>
        <path id="DejaVuSans-37" d="M 525 4666 
L 3525 4666 
L 3525 4397 
L 1831 0 
L 1172 0 
L 2766 4134 
L 525 4134 
L 525 4666 
z
" transform="scale(0.015625)"/>
       </defs>
       <use xlink:href="#DejaVuSans-36"/>
       <use xlink:href="#DejaVuSans-33" x="63.623047"/>
       <use xlink:href="#DejaVuSans-38" x="127.246094"/>
       <use xlink:href="#DejaVuSans-39" x="190.869141"/>
       <use xlink:href="#DejaVuSans-37" x="254.492188"/>
      </g>
     </g>
    </g>
    <g id="xtick_5">
     <g id="line2d_9">
      <path d="M 199.909091 384.48 
L 199.909091 51.84 
" clip-path="url(#p328f8ff814)" style="fill: none; stroke: #ffffff; stroke-width: 0.8; stroke-linecap: square"/>
     </g>
     <g id="line2d_10">
      <g>
       <use xlink:href="#m727aa38c24" x="199.909091" y="384.48" style="fill: #ffffff; stroke: #ffffff; stroke-width: 0.8"/>
      </g>
     </g>
     <g id="text_5">
      <!-- 67092 -->
      <g style="fill: #ffffff" transform="translate(190.612846 419.347741) rotate(-45) scale(0.1 -0.1)">
       <use xlink:href="#DejaVuSans-36"/>
       <use xlink:href="#DejaVuSans-37" x="63.623047"/>
       <use xlink:href="#DejaVuSans-30" x="127.246094"/>
       <use xlink:href="#DejaVuSans-39" x="190.869141"/>
       <use xlink:href="#DejaVuSans-32" x="254.492188"/>
      </g>
     </g>
    </g>
    <g id="xtick_6">
     <g id="line2d_11">
      <path d="M 221.045455 384.48 
L 221.045455 51.84 
" clip-path="url(#p328f8ff814)" style="fill: none; stroke: #ffffff; stroke-width: 0.8; stroke-linecap: square"/>
     </g>
     <g id="line2d_12">
      <g>
       <use xlink:href="#m727aa38c24" x="221.045455" y="384.48" style="fill: #ffffff; stroke: #ffffff; stroke-width: 0.8"/>
      </g>
     </g>
     <g id="text_6">
      <!-- 70622 -->
      <g style="fill: #ffffff" transform="translate(211.74921 419.347741) rotate(-45) scale(0.1 -0.1)">
       <use xlink:href="#DejaVuSans-37"/>
       <use xlink:href="#DejaVuSans-30" x="63.623047"/>
       <use xlink:href="#DejaVuSans-36" x="127.246094"/>
       <use xlink:href="#DejaVuSans-32" x="190.869141"/>
       <use xlink:href="#DejaVuSans-32" x="254.492188"/>
      </g>
     </g>
    </g>
    <g id="xtick_7">
     <g id="line2d_13">
      <path d="M 242.181818 384.48 
L 242.181818 51.84 
" clip-path="url(#p328f8ff814)" style="fill: none; stroke: #ffffff; stroke-width: 0.8; stroke-linecap: square"/>
     </g>
     <g id="line2d_14">
      <g>
       <use xlink:href="#m727aa38c24" x="242.181818" y="384.48" style="fill: #ffffff; stroke: #ffffff; stroke-width: 0.8"/>
      </g>
     </g>
     <g id="text_7">
      <!-- 74544 -->
      <g style="fill: #ffffff" transform="translate(232.885574 419.347741) rotate(-45) scale(0.1 -0.1)">
       <use xlink:href="#DejaVuSans-37"/>
       <use xlink:href="#DejaVuSans-34" x="63.623047"/>
       <use xlink:href="#DejaVuSans-35" x="127.246094"/>
       <use xlink:href="#DejaVuSans-34" x="190.869141"/>
       <use xlink:href="#DejaVuSans-34" x="254.492188"/>
      </g>
     </g>
    </g>
    <g id="xtick_8">
     <g id="line2d_15">
      <path d="M 263.318182 384.48 
L 263.318182 51.84 
" clip-path="url(#p328f8ff814)" style="fill: none; stroke: #ffffff; stroke-width: 0.8; stroke-linecap: square"/>
     </g>
     <g id="line2d_16">
      <g>
       <use xlink:href="#m727aa38c24" x="263.318182" y="384.48" style="fill: #ffffff; stroke: #ffffff; stroke-width: 0.8"/>
      </g>
     </g>
     <g id="text_8">
      <!-- 78928 -->
      <g style="fill: #ffffff" transform="translate(254.021937 419.347741) rotate(-45) scale(0.1 -0.1)">
       <use xlink:href="#DejaVuSans-37"/>
       <use xlink:href="#DejaVuSans-38" x="63.623047"/>
       <use xlink:href="#DejaVuSans-39" x="127.246094"/>
       <use xlink:href="#DejaVuSans-32" x="190.869141"/>
       <use xlink:href="#DejaVuSans-38" x="254.492188"/>
      </g>
     </g>
    </g>
    <g id="xtick_9">
     <g id="line2d_17">
      <path d="M 284.454545 384.48 
L 284.454545 51.84 
" clip-path="url(#p328f8ff814)" style="fill: none; stroke: #ffffff; stroke-width: 0.8; stroke-linecap: square"/>
     </g>
     <g id="line2d_18">
      <g>
       <use xlink:href="#m727aa38c24" x="284.454545" y="384.48" style="fill: #ffffff; stroke: #ffffff; stroke-width: 0.8"/>
      </g>
     </g>
     <g id="text_9">
      <!-- 83859 -->
      <g style="fill: #ffffff" transform="translate(275.158301 419.347741) rotate(-45) scale(0.1 -0.1)">
       <use xlink:href="#DejaVuSans-38"/>
       <use xlink:href="#DejaVuSans-33" x="63.623047"/>
       <use xlink:href="#DejaVuSans-38" x="127.246094"/>
       <use xlink:href="#DejaVuSans-35" x="190.869141"/>
       <use xlink:href="#DejaVuSans-39" x="254.492188"/>
      </g>
     </g>
    </g>
    <g id="xtick_10">
     <g id="line2d_19">
      <path d="M 305.590909 384.48 
L 305.590909 51.84 
" clip-path="url(#p328f8ff814)" style="fill: none; stroke: #ffffff; stroke-width: 0.8; stroke-linecap: square"/>
     </g>
     <g id="line2d_20">
      <g>
       <use xlink:href="#m727aa38c24" x="305.590909" y="384.48" style="fill: #ffffff; stroke: #ffffff; stroke-width: 0.8"/>
      </g>
     </g>
     <g id="text_10">
      <!-- 89448 -->
      <g style="fill: #ffffff" transform="translate(296.294665 419.347741) rotate(-45) scale(0.1 -0.1)">
       <use xlink:href="#DejaVuSans-38"/>
       <use xlink:href="#DejaVuSans-39" x="63.623047"/>
       <use xlink:href="#DejaVuSans-34" x="127.246094"/>
       <use xlink:href="#DejaVuSans-34" x="190.869141"/>
       <use xlink:href="#DejaVuSans-38" x="254.492188"/>
      </g>
     </g>
    </g>
    <g id="xtick_11">
     <g id="line2d_21">
      <path d="M 326.727273 384.48 
L 326.727273 51.84 
" clip-path="url(#p328f8ff814)" style="fill: none; stroke: #ffffff; stroke-width: 0.8; stroke-linecap: square"/>
     </g>
     <g id="line2d_22">
      <g>
       <use xlink:href="#m727aa38c24" x="326.727273" y="384.48" style="fill: #ffffff; stroke: #ffffff; stroke-width: 0.8"/>
      </g>
     </g>
     <g id="text_11">
      <!-- 95835 -->
      <g style="fill: #ffffff" transform="translate(317.431028 419.347741) rotate(-45) scale(0.1 -0.1)">
       <use xlink:href="#DejaVuSans-39"/>
       <use xlink:href="#DejaVuSans-35" x="63.623047"/>
       <use xlink:href="#DejaVuSans-38" x="127.246094"/>
       <use xlink:href="#DejaVuSans-33" x="190.869141"/>
       <use xlink:href="#DejaVuSans-35" x="254.492188"/>
      </g>
     </g>
    </g>
    <g id="xtick_12">
     <g id="line2d_23">
      <path d="M 347.863636 384.48 
L 347.863636 51.84 
" clip-path="url(#p328f8ff814)" style="fill: none; stroke: #ffffff; stroke-width: 0.8; stroke-linecap: square"/>
     </g>
     <g id="line2d_24">
      <g>
       <use xlink:href="#m727aa38c24" x="347.863636" y="384.48" style="fill: #ffffff; stroke: #ffffff; stroke-width: 0.8"/>
      </g>
     </g>
     <g id="text_12">
      <!-- 103204 -->
      <g style="fill: #ffffff" transform="translate(336.317908 423.846708) rotate(-45) scale(0.1 -0.1)">
       <use xlink:href="#DejaVuSans-31"/>
       <use xlink:href="#DejaVuSans-30" x="63.623047"/>
       <use xlink:href="#DejaVuSans-33" x="127.246094"/>
       <use xlink:href="#DejaVuSans-32" x="190.869141"/>
       <use xlink:href="#DejaVuSans-30" x="254.492188"/>
       <use xlink:href="#DejaVuSans-34" x="318.115234"/>
      </g>
     </g>
    </g>
    <g id="xtick_13">
     <g id="line2d_25">
      <path d="M 369 384.48 
L 369 51.84 
" clip-path="url(#p328f8ff814)" style="fill: none; stroke: #ffffff; stroke-width: 0.8; stroke-linecap: square"/>
     </g>
     <g id="line2d_26">
      <g>
       <use xlink:href="#m727aa38c24" x="369" y="384.48" style="fill: #ffffff; stroke: #ffffff; stroke-width: 0.8"/>
      </g>
     </g>
     <g id="text_13">
      <!-- 111801 -->
      <g style="fill: #ffffff" transform="translate(357.454272 423.846708) rotate(-45) scale(0.1 -0.1)">
       <use xlink:href="#DejaVuSans-31"/>
       <use xlink:href="#DejaVuSans-31" x="63.623047"/>
       <use xlink:href="#DejaVuSans-31" x="127.246094"/>
       <use xlink:href="#DejaVuSans-38" x="190.869141"/>
       <use xlink:href="#DejaVuSans-30" x="254.492188"/>
       <use xlink:href="#DejaVuSans-31" x="318.115234"/>
      </g>
     </g>
    </g>
    <g id="xtick_14">
     <g id="line2d_27">
      <path d="M 390.136364 384.48 
L 390.136364 51.84 
" clip-path="url(#p328f8ff814)" style="fill: none; stroke: #ffffff; stroke-width: 0.8; stroke-linecap: square"/>
     </g>
     <g id="line2d_28">
      <g>
       <use xlink:href="#m727aa38c24" x="390.136364" y="384.48" style="fill: #ffffff; stroke: #ffffff; stroke-width: 0.8"/>
      </g>
     </g>
     <g id="text_14">
      <!-- 121960 -->
      <g style="fill: #ffffff" transform="translate(378.590636 423.846708) rotate(-45) scale(0.1 -0.1)">
       <use xlink:href="#DejaVuSans-31"/>
       <use xlink:href="#DejaVuSans-32" x="63.623047"/>
       <use xlink:href="#DejaVuSans-31" x="127.246094"/>
       <use xlink:href="#DejaVuSans-39" x="190.869141"/>
       <use xlink:href="#DejaVuSans-36" x="254.492188"/>
       <use xlink:href="#DejaVuSans-30" x="318.115234"/>
      </g>
     </g>
    </g>
    <g id="xtick_15">
     <g id="line2d_29">
      <path d="M 411.272727 384.48 
L 411.272727 51.84 
" clip-path="url(#p328f8ff814)" style="fill: none; stroke: #ffffff; stroke-width: 0.8; stroke-linecap: square"/>
     </g>
     <g id="line2d_30">
      <g>
       <use xlink:href="#m727aa38c24" x="411.272727" y="384.48" style="fill: #ffffff; stroke: #ffffff; stroke-width: 0.8"/>
      </g>
     </g>
     <g id="text_15">
      <!-- 134150 -->
      <g style="fill: #ffffff" transform="translate(399.726999 423.846708) rotate(-45) scale(0.1 -0.1)">
       <use xlink:href="#DejaVuSans-31"/>
       <use xlink:href="#DejaVuSans-33" x="63.623047"/>
       <use xlink:href="#DejaVuSans-34" x="127.246094"/>
       <use xlink:href="#DejaVuSans-31" x="190.869141"/>
       <use xlink:href="#DejaVuSans-35" x="254.492188"/>
       <use xlink:href="#DejaVuSans-30" x="318.115234"/>
      </g>
     </g>
    </g>
    <g id="xtick_16">
     <g id="line2d_31">
      <path d="M 432.409091 384.48 
L 432.409091 51.84 
" clip-path="url(#p328f8ff814)" style="fill: none; stroke: #ffffff; stroke-width: 0.8; stroke-linecap: square"/>
     </g>
     <g id="line2d_32">
      <g>
       <use xlink:href="#m727aa38c24" x="432.409091" y="384.48" style="fill: #ffffff; stroke: #ffffff; stroke-width: 0.8"/>
      </g>
     </g>
     <g id="text_16">
      <!-- 149048 -->
      <g style="fill: #ffffff" transform="translate(420.863363 423.846708) rotate(-45) scale(0.1 -0.1)">
       <use xlink:href="#DejaVuSans-31"/>
       <use xlink:href="#DejaVuSans-34" x="63.623047"/>
       <use xlink:href="#DejaVuSans-39" x="127.246094"/>
       <use xlink:href="#DejaVuSans-30" x="190.869141"/>
       <use xlink:href="#DejaVuSans-34" x="254.492188"/>
       <use xlink:href="#DejaVuSans-38" x="318.115234"/>
      </g>
     </g>
    </g>
    <g id="xtick_17">
     <g id="line2d_33">
      <path d="M 453.545455 384.48 
L 453.545455 51.84 
" clip-path="url(#p328f8ff814)" style="fill: none; stroke: #ffffff; stroke-width: 0.8; stroke-linecap: square"/>
     </g>
     <g id="line2d_34">
      <g>
       <use xlink:href="#m727aa38c24" x="453.545455" y="384.48" style="fill: #ffffff; stroke: #ffffff; stroke-width: 0.8"/>
      </g>
     </g>
     <g id="text_17">
      <!-- 167667 -->
      <g style="fill: #ffffff" transform="translate(441.999727 423.846708) rotate(-45) scale(0.1 -0.1)">
       <use xlink:href="#DejaVuSans-31"/>
       <use xlink:href="#DejaVuSans-36" x="63.623047"/>
       <use xlink:href="#DejaVuSans-37" x="127.246094"/>
       <use xlink:href="#DejaVuSans-36" x="190.869141"/>
       <use xlink:href="#DejaVuSans-36" x="254.492188"/>
       <use xlink:href="#DejaVuSans-37" x="318.115234"/>
      </g>
     </g>
    </g>
    <g id="xtick_18">
     <g id="line2d_35">
      <path d="M 474.681818 384.48 
L 474.681818 51.84 
" clip-path="url(#p328f8ff814)" style="fill: none; stroke: #ffffff; stroke-width: 0.8; stroke-linecap: square"/>
     </g>
     <g id="line2d_36">
      <g>
       <use xlink:href="#m727aa38c24" x="474.681818" y="384.48" style="fill: #ffffff; stroke: #ffffff; stroke-width: 0.8"/>
      </g>
     </g>
     <g id="text_18">
      <!-- 191602 -->
      <g style="fill: #ffffff" transform="translate(463.13609 423.846708) rotate(-45) scale(0.1 -0.1)">
       <use xlink:href="#DejaVuSans-31"/>
       <use xlink:href="#DejaVuSans-39" x="63.623047"/>
       <use xlink:href="#DejaVuSans-31" x="127.246094"/>
       <use xlink:href="#DejaVuSans-36" x="190.869141"/>
       <use xlink:href="#DejaVuSans-30" x="254.492188"/>
       <use xlink:href="#DejaVuSans-32" x="318.115234"/>
      </g>
     </g>
    </g>
    <g id="xtick_19">
     <g id="line2d_37">
      <path d="M 495.818182 384.48 
L 495.818182 51.84 
" clip-path="url(#p328f8ff814)" style="fill: none; stroke: #ffffff; stroke-width: 0.8; stroke-linecap: square"/>
     </g>
     <g id="line2d_38">
      <g>
       <use xlink:href="#m727aa38c24" x="495.818182" y="384.48" style="fill: #ffffff; stroke: #ffffff; stroke-width: 0.8"/>
      </g>
     </g>
     <g id="text_19">
      <!-- 223509 -->
      <g style="fill: #ffffff" transform="translate(484.272454 423.846708) rotate(-45) scale(0.1 -0.1)">
       <use xlink:href="#DejaVuSans-32"/>
       <use xlink:href="#DejaVuSans-32" x="63.623047"/>
       <use xlink:href="#DejaVuSans-33" x="127.246094"/>
       <use xlink:href="#DejaVuSans-35" x="190.869141"/>
       <use xlink:href="#DejaVuSans-30" x="254.492188"/>
       <use xlink:href="#DejaVuSans-39" x="318.115234"/>
      </g>
     </g>
    </g>
    <g id="xtick_20">
     <g id="line2d_39">
      <path d="M 516.954545 384.48 
L 516.954545 51.84 
" clip-path="url(#p328f8ff814)" style="fill: none; stroke: #ffffff; stroke-width: 0.8; stroke-linecap: square"/>
     </g>
     <g id="line2d_40">
      <g>
       <use xlink:href="#m727aa38c24" x="516.954545" y="384.48" style="fill: #ffffff; stroke: #ffffff; stroke-width: 0.8"/>
      </g>
     </g>
     <g id="text_20">
      <!-- 268167 -->
      <g style="fill: #ffffff" transform="translate(505.408818 423.846708) rotate(-45) scale(0.1 -0.1)">
       <use xlink:href="#DejaVuSans-32"/>
       <use xlink:href="#DejaVuSans-36" x="63.623047"/>
       <use xlink:href="#DejaVuSans-38" x="127.246094"/>
       <use xlink:href="#DejaVuSans-31" x="190.869141"/>
       <use xlink:href="#DejaVuSans-36" x="254.492188"/>
       <use xlink:href="#DejaVuSans-37" x="318.115234"/>
      </g>
     </g>
    </g>
    <g id="xtick_21">
     <g id="line2d_41">
      <path d="M 538.090909 384.48 
L 538.090909 51.84 
" clip-path="url(#p328f8ff814)" style="fill: none; stroke: #ffffff; stroke-width: 0.8; stroke-linecap: square"/>
     </g>
     <g id="line2d_42">
      <g>
       <use xlink:href="#m727aa38c24" x="538.090909" y="384.48" style="fill: #ffffff; stroke: #ffffff; stroke-width: 0.8"/>
      </g>
     </g>
     <g id="text_21">
      <!-- 335125 -->
      <g style="fill: #ffffff" transform="translate(526.545181 423.846708) rotate(-45) scale(0.1 -0.1)">
       <use xlink:href="#DejaVuSans-33"/>
       <use xlink:href="#DejaVuSans-33" x="63.623047"/>
       <use xlink:href="#DejaVuSans-35" x="127.246094"/>
       <use xlink:href="#DejaVuSans-31" x="190.869141"/>
       <use xlink:href="#DejaVuSans-32" x="254.492188"/>
       <use xlink:href="#DejaVuSans-35" x="318.115234"/>
      </g>
     </g>
    </g>
    <g id="xtick_22">
     <g id="line2d_43">
      <path d="M 559.227273 384.48 
L 559.227273 51.84 
" clip-path="url(#p328f8ff814)" style="fill: none; stroke: #ffffff; stroke-width: 0.8; stroke-linecap: square"/>
     </g>
     <g id="line2d_44">
      <g>
       <use xlink:href="#m727aa38c24" x="559.227273" y="384.48" style="fill: #ffffff; stroke: #ffffff; stroke-width: 0.8"/>
      </g>
     </g>
     <g id="text_22">
      <!-- 446648 -->
      <g style="fill: #ffffff" transform="translate(547.681545 423.846708) rotate(-45) scale(0.1 -0.1)">
       <use xlink:href="#DejaVuSans-34"/>
       <use xlink:href="#DejaVuSans-34" x="63.623047"/>
       <use xlink:href="#DejaVuSans-36" x="127.246094"/>
       <use xlink:href="#DejaVuSans-36" x="190.869141"/>
       <use xlink:href="#DejaVuSans-34" x="254.492188"/>
       <use xlink:href="#DejaVuSans-38" x="318.115234"/>
      </g>
     </g>
    </g>
    <g id="xtick_23">
     <g id="line2d_45">
      <path d="M 580.363636 384.48 
L 580.363636 51.84 
" clip-path="url(#p328f8ff814)" style="fill: none; stroke: #ffffff; stroke-width: 0.8; stroke-linecap: square"/>
     </g>
     <g id="line2d_46">
      <g>
       <use xlink:href="#m727aa38c24" x="580.363636" y="384.48" style="fill: #ffffff; stroke: #ffffff; stroke-width: 0.8"/>
      </g>
     </g>
     <g id="text_23">
      <!-- 669415 -->
      <g style="fill: #ffffff" transform="translate(568.817908 423.846708) rotate(-45) scale(0.1 -0.1)">
       <use xlink:href="#DejaVuSans-36"/>
       <use xlink:href="#DejaVuSans-36" x="63.623047"/>
       <use xlink:href="#DejaVuSans-39" x="127.246094"/>
       <use xlink:href="#DejaVuSans-34" x="190.869141"/>
       <use xlink:href="#DejaVuSans-31" x="254.492188"/>
       <use xlink:href="#DejaVuSans-35" x="318.115234"/>
      </g>
     </g>
    </g>
    <g id="xtick_24">
     <g id="line2d_47">
      <path d="M 601.5 384.48 
L 601.5 51.84 
" clip-path="url(#p328f8ff814)" style="fill: none; stroke: #ffffff; stroke-width: 0.8; stroke-linecap: square"/>
     </g>
     <g id="line2d_48">
      <g>
       <use xlink:href="#m727aa38c24" x="601.5" y="384.48" style="fill: #ffffff; stroke: #ffffff; stroke-width: 0.8"/>
      </g>
     </g>
     <g id="text_24">
      <!-- 1335499 -->
      <g style="fill: #ffffff" transform="translate(587.704789 428.345675) rotate(-45) scale(0.1 -0.1)">
       <use xlink:href="#DejaVuSans-31"/>
       <use xlink:href="#DejaVuSans-33" x="63.623047"/>
       <use xlink:href="#DejaVuSans-33" x="127.246094"/>
       <use xlink:href="#DejaVuSans-35" x="190.869141"/>
       <use xlink:href="#DejaVuSans-34" x="254.492188"/>
       <use xlink:href="#DejaVuSans-39" x="318.115234"/>
       <use xlink:href="#DejaVuSans-39" x="381.738281"/>
      </g>
     </g>
    </g>
    <g id="xtick_25">
     <g id="line2d_49">
      <path d="M 622.636364 384.48 
L 622.636364 51.84 
" clip-path="url(#p328f8ff814)" style="fill: none; stroke: #ffffff; stroke-width: 0.8; stroke-linecap: square"/>
     </g>
     <g id="line2d_50">
      <g>
       <use xlink:href="#m727aa38c24" x="622.636364" y="384.48" style="fill: #ffffff; stroke: #ffffff; stroke-width: 0.8"/>
      </g>
     </g>
     <g id="text_25">
      <!-- 268435456 -->
      <g style="fill: #ffffff" transform="translate(604.342185 437.343609) rotate(-45) scale(0.1 -0.1)">
       <use xlink:href="#DejaVuSans-32"/>
       <use xlink:href="#DejaVuSans-36" x="63.623047"/>
       <use xlink:href="#DejaVuSans-38" x="127.246094"/>
       <use xlink:href="#DejaVuSans-34" x="190.869141"/>
       <use xlink:href="#DejaVuSans-33" x="254.492188"/>
       <use xlink:href="#DejaVuSans-35" x="318.115234"/>
       <use xlink:href="#DejaVuSans-34" x="381.738281"/>
       <use xlink:href="#DejaVuSans-35" x="445.361328"/>
       <use xlink:href="#DejaVuSans-36" x="508.984375"/>
      </g>
     </g>
    </g>
    <g id="text_26">
     <!-- chunk_size -->
     <g style="fill: #ffffff" transform="translate(341.654688 450.412607) scale(0.1 -0.1)">
      <defs>
       <path id="DejaVuSans-63" d="M 3122 3366 
L 3122 2828 
Q 2878 2963 2633 3030 
Q 2388 3097 2138 3097 
Q 1578 3097 1268 2742 
Q 959 2388 959 1747 
Q 959 1106 1268 751 
Q 1578 397 2138 397 
Q 2388 397 2633 464 
Q 2878 531 3122 666 
L 3122 134 
Q 2881 22 2623 -34 
Q 2366 -91 2075 -91 
Q 1284 -91 818 406 
Q 353 903 353 1747 
Q 353 2603 823 3093 
Q 1294 3584 2113 3584 
Q 2378 3584 2631 3529 
Q 2884 3475 3122 3366 
z
" transform="scale(0.015625)"/>
       <path id="DejaVuSans-68" d="M 3513 2113 
L 3513 0 
L 2938 0 
L 2938 2094 
Q 2938 2591 2744 2837 
Q 2550 3084 2163 3084 
Q 1697 3084 1428 2787 
Q 1159 2491 1159 1978 
L 1159 0 
L 581 0 
L 581 4863 
L 1159 4863 
L 1159 2956 
Q 1366 3272 1645 3428 
Q 1925 3584 2291 3584 
Q 2894 3584 3203 3211 
Q 3513 2838 3513 2113 
z
" transform="scale(0.015625)"/>
       <path id="DejaVuSans-75" d="M 544 1381 
L 544 3500 
L 1119 3500 
L 1119 1403 
Q 1119 906 1312 657 
Q 1506 409 1894 409 
Q 2359 409 2629 706 
Q 2900 1003 2900 1516 
L 2900 3500 
L 3475 3500 
L 3475 0 
L 2900 0 
L 2900 538 
Q 2691 219 2414 64 
Q 2138 -91 1772 -91 
Q 1169 -91 856 284 
Q 544 659 544 1381 
z
M 1991 3584 
L 1991 3584 
z
" transform="scale(0.015625)"/>
       <path id="DejaVuSans-6e" d="M 3513 2113 
L 3513 0 
L 2938 0 
L 2938 2094 
Q 2938 2591 2744 2837 
Q 2550 3084 2163 3084 
Q 1697 3084 1428 2787 
Q 1159 2491 1159 1978 
L 1159 0 
L 581 0 
L 581 3500 
L 1159 3500 
L 1159 2956 
Q 1366 3272 1645 3428 
Q 1925 3584 2291 3584 
Q 2894 3584 3203 3211 
Q 3513 2838 3513 2113 
z
" transform="scale(0.015625)"/>
       <path id="DejaVuSans-6b" d="M 581 4863 
L 1159 4863 
L 1159 1991 
L 2875 3500 
L 3609 3500 
L 1753 1863 
L 3688 0 
L 2938 0 
L 1159 1709 
L 1159 0 
L 581 0 
L 581 4863 
z
" transform="scale(0.015625)"/>
       <path id="DejaVuSans-5f" d="M 3263 -1063 
L 3263 -1509 
L -63 -1509 
L -63 -1063 
L 3263 -1063 
z
" transform="scale(0.015625)"/>
       <path id="DejaVuSans-73" d="M 2834 3397 
L 2834 2853 
Q 2591 2978 2328 3040 
Q 2066 3103 1784 3103 
Q 1356 3103 1142 2972 
Q 928 2841 928 2578 
Q 928 2378 1081 2264 
Q 1234 2150 1697 2047 
L 1894 2003 
Q 2506 1872 2764 1633 
Q 3022 1394 3022 966 
Q 3022 478 2636 193 
Q 2250 -91 1575 -91 
Q 1294 -91 989 -36 
Q 684 19 347 128 
L 347 722 
Q 666 556 975 473 
Q 1284 391 1588 391 
Q 1994 391 2212 530 
Q 2431 669 2431 922 
Q 2431 1156 2273 1281 
Q 2116 1406 1581 1522 
L 1381 1569 
Q 847 1681 609 1914 
Q 372 2147 372 2553 
Q 372 3047 722 3315 
Q 1072 3584 1716 3584 
Q 2034 3584 2315 3537 
Q 2597 3491 2834 3397 
z
" transform="scale(0.015625)"/>
       <path id="DejaVuSans-69" d="M 603 3500 
L 1178 3500 
L 1178 0 
L 603 0 
L 603 3500 
z
M 603 4863 
L 1178 4863 
L 1178 4134 
L 603 4134 
L 603 4863 
z
" transform="scale(0.015625)"/>
       <path id="DejaVuSans-7a" d="M 353 3500 
L 3084 3500 
L 3084 2975 
L 922 459 
L 3084 459 
L 3084 0 
L 275 0 
L 275 525 
L 2438 3041 
L 353 3041 
L 353 3500 
z
" transform="scale(0.015625)"/>
       <path id="DejaVuSans-65" d="M 3597 1894 
L 3597 1613 
L 953 1613 
Q 991 1019 1311 708 
Q 1631 397 2203 397 
Q 2534 397 2845 478 
Q 3156 559 3463 722 
L 3463 178 
Q 3153 47 2828 -22 
Q 2503 -91 2169 -91 
Q 1331 -91 842 396 
Q 353 884 353 1716 
Q 353 2575 817 3079 
Q 1281 3584 2069 3584 
Q 2775 3584 3186 3129 
Q 3597 2675 3597 1894 
z
M 3022 2063 
Q 3016 2534 2758 2815 
Q 2500 3097 2075 3097 
Q 1594 3097 1305 2825 
Q 1016 2553 972 2059 
L 3022 2063 
z
" transform="scale(0.015625)"/>
      </defs>
      <use xlink:href="#DejaVuSans-63"/>
      <use xlink:href="#DejaVuSans-68" x="54.980469"/>
      <use xlink:href="#DejaVuSans-75" x="118.359375"/>
      <use xlink:href="#DejaVuSans-6e" x="181.738281"/>
      <use xlink:href="#DejaVuSans-6b" x="245.117188"/>
      <use xlink:href="#DejaVuSans-5f" x="303.027344"/>
      <use xlink:href="#DejaVuSans-73" x="353.027344"/>
      <use xlink:href="#DejaVuSans-69" x="405.126953"/>
      <use xlink:href="#DejaVuSans-7a" x="432.910156"/>
      <use xlink:href="#DejaVuSans-65" x="485.400391"/>
     </g>
    </g>
   </g>
   <g id="matplotlib.axis_2">
    <g id="ytick_1">
     <g id="line2d_51">
      <path d="M 90 337.352934 
L 648 337.352934 
" clip-path="url(#p328f8ff814)" style="fill: none; stroke: #ffffff; stroke-width: 0.8; stroke-linecap: square"/>
     </g>
     <g id="line2d_52">
      <defs>
       <path id="mb3d59ea092" d="M 0 0 
L -3.5 0 
" style="stroke: #ffffff; stroke-width: 0.8"/>
      </defs>
      <g>
       <use xlink:href="#mb3d59ea092" x="90" y="337.352934" style="fill: #ffffff; stroke: #ffffff; stroke-width: 0.8"/>
      </g>
     </g>
     <g id="text_27">
      <!-- 200 -->
      <g style="fill: #ffffff" transform="translate(63.9125 341.152153) scale(0.1 -0.1)">
       <use xlink:href="#DejaVuSans-32"/>
       <use xlink:href="#DejaVuSans-30" x="63.623047"/>
       <use xlink:href="#DejaVuSans-30" x="127.246094"/>
      </g>
     </g>
    </g>
    <g id="ytick_2">
     <g id="line2d_53">
      <path d="M 90 264.751032 
L 648 264.751032 
" clip-path="url(#p328f8ff814)" style="fill: none; stroke: #ffffff; stroke-width: 0.8; stroke-linecap: square"/>
     </g>
     <g id="line2d_54">
      <g>
       <use xlink:href="#mb3d59ea092" x="90" y="264.751032" style="fill: #ffffff; stroke: #ffffff; stroke-width: 0.8"/>
      </g>
     </g>
     <g id="text_28">
      <!-- 400 -->
      <g style="fill: #ffffff" transform="translate(63.9125 268.55025) scale(0.1 -0.1)">
       <use xlink:href="#DejaVuSans-34"/>
       <use xlink:href="#DejaVuSans-30" x="63.623047"/>
       <use xlink:href="#DejaVuSans-30" x="127.246094"/>
      </g>
     </g>
    </g>
    <g id="ytick_3">
     <g id="line2d_55">
      <path d="M 90 192.149129 
L 648 192.149129 
" clip-path="url(#p328f8ff814)" style="fill: none; stroke: #ffffff; stroke-width: 0.8; stroke-linecap: square"/>
     </g>
     <g id="line2d_56">
      <g>
       <use xlink:href="#mb3d59ea092" x="90" y="192.149129" style="fill: #ffffff; stroke: #ffffff; stroke-width: 0.8"/>
      </g>
     </g>
     <g id="text_29">
      <!-- 600 -->
      <g style="fill: #ffffff" transform="translate(63.9125 195.948348) scale(0.1 -0.1)">
       <use xlink:href="#DejaVuSans-36"/>
       <use xlink:href="#DejaVuSans-30" x="63.623047"/>
       <use xlink:href="#DejaVuSans-30" x="127.246094"/>
      </g>
     </g>
    </g>
    <g id="ytick_4">
     <g id="line2d_57">
      <path d="M 90 119.547226 
L 648 119.547226 
" clip-path="url(#p328f8ff814)" style="fill: none; stroke: #ffffff; stroke-width: 0.8; stroke-linecap: square"/>
     </g>
     <g id="line2d_58">
      <g>
       <use xlink:href="#mb3d59ea092" x="90" y="119.547226" style="fill: #ffffff; stroke: #ffffff; stroke-width: 0.8"/>
      </g>
     </g>
     <g id="text_30">
      <!-- 800 -->
      <g style="fill: #ffffff" transform="translate(63.9125 123.346445) scale(0.1 -0.1)">
       <use xlink:href="#DejaVuSans-38"/>
       <use xlink:href="#DejaVuSans-30" x="63.623047"/>
       <use xlink:href="#DejaVuSans-30" x="127.246094"/>
      </g>
     </g>
    </g>
    <g id="text_31">
     <!-- time (ms) -->
     <g style="fill: #ffffff" transform="translate(57.832812 242.421719) rotate(-90) scale(0.1 -0.1)">
      <defs>
       <path id="DejaVuSans-74" d="M 1172 4494 
L 1172 3500 
L 2356 3500 
L 2356 3053 
L 1172 3053 
L 1172 1153 
Q 1172 725 1289 603 
Q 1406 481 1766 481 
L 2356 481 
L 2356 0 
L 1766 0 
Q 1100 0 847 248 
Q 594 497 594 1153 
L 594 3053 
L 172 3053 
L 172 3500 
L 594 3500 
L 594 4494 
L 1172 4494 
z
" transform="scale(0.015625)"/>
       <path id="DejaVuSans-6d" d="M 3328 2828 
Q 3544 3216 3844 3400 
Q 4144 3584 4550 3584 
Q 5097 3584 5394 3201 
Q 5691 2819 5691 2113 
L 5691 0 
L 5113 0 
L 5113 2094 
Q 5113 2597 4934 2840 
Q 4756 3084 4391 3084 
Q 3944 3084 3684 2787 
Q 3425 2491 3425 1978 
L 3425 0 
L 2847 0 
L 2847 2094 
Q 2847 2600 2669 2842 
Q 2491 3084 2119 3084 
Q 1678 3084 1418 2786 
Q 1159 2488 1159 1978 
L 1159 0 
L 581 0 
L 581 3500 
L 1159 3500 
L 1159 2956 
Q 1356 3278 1631 3431 
Q 1906 3584 2284 3584 
Q 2666 3584 2933 3390 
Q 3200 3197 3328 2828 
z
" transform="scale(0.015625)"/>
       <path id="DejaVuSans-20" transform="scale(0.015625)"/>
       <path id="DejaVuSans-28" d="M 1984 4856 
Q 1566 4138 1362 3434 
Q 1159 2731 1159 2009 
Q 1159 1288 1364 580 
Q 1569 -128 1984 -844 
L 1484 -844 
Q 1016 -109 783 600 
Q 550 1309 550 2009 
Q 550 2706 781 3412 
Q 1013 4119 1484 4856 
L 1984 4856 
z
" transform="scale(0.015625)"/>
       <path id="DejaVuSans-29" d="M 513 4856 
L 1013 4856 
Q 1481 4119 1714 3412 
Q 1947 2706 1947 2009 
Q 1947 1309 1714 600 
Q 1481 -109 1013 -844 
L 513 -844 
Q 928 -128 1133 580 
Q 1338 1288 1338 2009 
Q 1338 2731 1133 3434 
Q 928 4138 513 4856 
z
" transform="scale(0.015625)"/>
      </defs>
      <use xlink:href="#DejaVuSans-74"/>
      <use xlink:href="#DejaVuSans-69" x="39.208984"/>
      <use xlink:href="#DejaVuSans-6d" x="66.992188"/>
      <use xlink:href="#DejaVuSans-65" x="164.404297"/>
      <use xlink:href="#DejaVuSans-20" x="225.927734"/>
      <use xlink:href="#DejaVuSans-28" x="257.714844"/>
      <use xlink:href="#DejaVuSans-6d" x="296.728516"/>
      <use xlink:href="#DejaVuSans-73" x="394.140625"/>
      <use xlink:href="#DejaVuSans-29" x="446.240234"/>
     </g>
    </g>
   </g>
   <g id="line2d_59">
    <path d="M 115.363636 206.429853 
L 120.444832 208.771906 
L 133.147822 214.437299 
L 136.535286 216.22207 
L 139.92275 218.24608 
L 143.310214 220.573957 
L 145.850812 222.558157 
L 148.39141 224.776902 
L 150.932008 227.257456 
L 153.472606 230.027086 
L 156.013204 233.113055 
L 158.553802 236.540906 
L 162.788132 242.79103 
L 167.022462 248.960595 
L 169.56306 252.253231 
L 171.256792 254.159132 
L 172.950524 255.767194 
L 174.644256 257.020426 
L 176.337988 257.861839 
L 177.184854 258.110303 
L 178.03172 258.234442 
L 178.878586 258.227136 
L 179.725452 258.085525 
L 181.419183 257.436999 
L 183.112915 256.374156 
L 184.806647 254.984304 
L 187.347245 252.477364 
L 194.122173 245.396322 
L 195.815905 244.009002 
L 197.509637 242.94947 
L 199.203369 242.305034 
L 200.050235 242.165745 
L 200.897101 242.15791 
L 201.743967 242.275067 
L 203.437699 242.851089 
L 205.131431 243.827274 
L 206.825163 245.137087 
L 208.518895 246.713992 
L 211.059493 249.4346 
L 218.681287 258.05835 
L 220.375019 259.641896 
L 222.068751 260.963628 
L 223.762483 262.010123 
L 225.456215 262.805832 
L 227.149947 263.376153 
L 228.843679 263.746486 
L 230.537411 263.94223 
L 233.078009 263.964052 
L 235.618607 263.73592 
L 239.006071 263.191089 
L 245.780999 262.016808 
L 249.168463 261.679519 
L 251.709061 261.617579 
L 254.249659 261.764228 
L 256.790256 262.15983 
L 259.330854 262.844752 
L 261.871452 263.859358 
L 263.565184 264.738831 
L 266.105782 266.360553 
L 268.64638 268.259708 
L 272.88071 271.755325 
L 277.961906 275.894221 
L 280.502504 277.694987 
L 283.043102 279.176152 
L 284.736834 279.934061 
L 286.430566 280.48907 
L 288.971164 281.003944 
L 291.511762 281.239976 
L 295.746092 281.326372 
L 299.133556 281.426172 
L 301.674154 281.69799 
L 303.367886 282.036949 
L 305.061618 282.541898 
L 306.75535 283.243238 
L 309.295948 284.63484 
L 311.836546 286.331452 
L 316.070876 289.521827 
L 320.305206 292.700052 
L 322.845804 294.377711 
L 325.386402 295.741611 
L 327.080134 296.419374 
L 328.773866 296.890967 
L 330.467598 297.182586 
L 333.008195 297.351816 
L 335.548793 297.294183 
L 344.017453 296.835451 
L 346.558051 297.029399 
L 348.251783 297.342548 
L 349.945515 297.824955 
L 352.486113 298.835901 
L 355.026711 300.140945 
L 357.567309 301.683042 
L 360.954773 304.009328 
L 366.882835 308.443673 
L 371.964031 312.150326 
L 375.351495 314.369184 
L 377.892093 315.833697 
L 380.432691 317.083181 
L 382.973289 318.078108 
L 385.513887 318.778951 
L 387.207619 319.063281 
L 388.901351 319.187628 
L 390.595083 319.140441 
L 393.135681 318.766551 
L 395.676279 318.133497 
L 404.144939 315.743407 
L 406.685537 315.419954 
L 408.379268 315.42003 
L 410.073 315.635532 
L 411.766732 316.10289 
L 413.460464 316.833265 
L 415.154196 317.794016 
L 417.694794 319.586134 
L 420.235392 321.688413 
L 425.316588 326.323807 
L 428.704052 329.332261 
L 431.24465 331.335153 
L 433.785248 332.986955 
L 436.325846 334.261812 
L 438.866444 335.218289 
L 441.407042 335.917945 
L 444.794506 336.557716 
L 449.875702 337.185682 
L 454.956898 337.851212 
L 459.191228 338.657545 
L 464.272424 339.869407 
L 471.894218 341.956625 
L 482.05661 344.711995 
L 490.525269 346.760201 
L 498.147063 348.356975 
L 515.084383 351.729685 
L 520.165579 353.037391 
L 526.940507 355.030379 
L 537.949765 358.291711 
L 543.877827 359.771491 
L 549.805889 360.991096 
L 555.733951 361.953002 
L 561.662012 362.664352 
L 569.283806 363.526405 
L 572.67127 364.089849 
L 576.058734 364.871846 
L 578.599332 365.647454 
L 581.13993 366.619946 
L 586.221126 368.939944 
L 589.60859 370.333425 
L 592.149188 371.064445 
L 593.84292 371.325189 
L 595.536652 371.35672 
L 597.230384 371.117953 
L 598.924116 370.567802 
L 600.617848 369.665182 
L 602.31158 368.36901 
L 604.005312 366.638199 
L 605.699044 364.431665 
L 607.392776 361.708323 
L 609.086508 358.427089 
L 610.78024 354.546876 
L 612.473972 350.026601 
L 614.167704 344.825179 
L 615.861436 338.901524 
L 617.555168 332.214552 
L 619.2489 324.723177 
L 620.942632 316.386316 
L 622.636364 307.162882 
L 622.636364 307.162882 
" clip-path="url(#p328f8ff814)" style="fill: none; stroke: #8dd3c7; stroke-width: 1.5; stroke-linecap: square"/>
   </g>
   <g id="line2d_60">
    <path d="M 115.363636 212.637263 
L 117.904234 213.589733 
L 121.291698 215.132268 
L 124.679162 216.940373 
L 128.913492 219.497604 
L 133.994688 222.872809 
L 150.932008 234.434495 
L 155.166338 236.893893 
L 158.553802 238.601327 
L 161.941266 240.055196 
L 165.32873 241.295181 
L 169.56306 242.61428 
L 175.491122 244.190627 
L 186.500379 246.860076 
L 190.734709 247.675076 
L 194.122173 248.133216 
L 197.509637 248.360469 
L 200.050235 248.346868 
L 203.437699 248.093733 
L 209.365761 247.591872 
L 211.906359 247.60685 
L 214.446957 247.900821 
L 216.140689 248.299988 
L 217.834421 248.895438 
L 219.528153 249.716083 
L 221.221885 250.790824 
L 222.915617 252.130273 
L 225.456215 254.53851 
L 228.843679 258.21689 
L 233.924875 263.877023 
L 236.465473 266.384691 
L 238.159205 267.815922 
L 239.852937 268.993043 
L 241.546669 269.863192 
L 243.240401 270.377785 
L 244.934133 270.546318 
L 246.627865 270.42014 
L 248.321597 270.051528 
L 250.015329 269.492755 
L 252.555927 268.412397 
L 258.483988 265.676109 
L 261.024586 264.835811 
L 262.718318 264.517098 
L 264.41205 264.449132 
L 266.105782 264.637709 
L 267.799514 265.059272 
L 269.493246 265.689695 
L 271.186978 266.504854 
L 273.727576 268.021198 
L 276.268174 269.817497 
L 279.655638 272.507317 
L 289.81803 280.836796 
L 293.205494 283.250187 
L 295.746092 284.84846 
L 298.28669 286.225983 
L 300.827288 287.347447 
L 303.367886 288.177545 
L 305.908484 288.681008 
L 308.449082 288.851848 
L 310.98968 288.76497 
L 314.377144 288.401643 
L 320.305206 287.675844 
L 322.845804 287.559841 
L 325.386402 287.689075 
L 327.080134 287.955236 
L 328.773866 288.383146 
L 331.314463 289.295091 
L 333.855061 290.476107 
L 337.242525 292.362364 
L 342.323721 295.561356 
L 348.251783 299.263017 
L 351.639247 301.122405 
L 355.873577 303.191223 
L 360.954773 305.421531 
L 377.045227 312.290929 
L 396.523145 320.965583 
L 401.604341 322.927085 
L 405.838671 324.32924 
L 409.226134 325.255516 
L 412.613598 325.975912 
L 416.847928 326.623055 
L 427.857186 328.126642 
L 431.24465 328.87628 
L 434.632114 329.904402 
L 438.019578 331.182237 
L 443.94764 333.718674 
L 449.028836 335.848209 
L 452.4163 337.066242 
L 455.803764 338.014367 
L 459.191228 338.708017 
L 464.272424 339.456741 
L 472.741084 340.641098 
L 476.128548 341.340838 
L 480.362878 342.482049 
L 485.444073 344.105652 
L 496.453331 347.706892 
L 501.534527 349.060947 
L 509.156321 350.813085 
L 518.471847 352.979046 
L 534.562301 356.996285 
L 538.796631 357.741477 
L 543.030961 358.255692 
L 549.805889 358.801995 
L 557.427683 359.438337 
L 561.662012 359.995998 
L 565.896342 360.787685 
L 569.283806 361.615328 
L 572.67127 362.636525 
L 576.058734 363.870525 
L 579.446198 365.336573 
L 583.680528 367.480361 
L 587.914858 369.619204 
L 590.455456 370.685613 
L 592.996054 371.452923 
L 594.689786 371.743176 
L 596.383518 371.817813 
L 598.07725 371.643763 
L 599.770982 371.187952 
L 601.464714 370.417307 
L 603.158446 369.298755 
L 604.852178 367.799224 
L 606.54591 365.885639 
L 608.239642 363.52493 
L 609.933374 360.684022 
L 611.627106 357.329842 
L 613.320838 353.429318 
L 615.01457 348.949377 
L 616.708302 343.856946 
L 618.402034 338.118951 
L 620.095766 331.702321 
L 621.789498 324.573981 
L 622.636364 320.732585 
L 622.636364 320.732585 
" clip-path="url(#p328f8ff814)" style="fill: none; stroke: #feffb3; stroke-width: 1.5; stroke-linecap: square"/>
   </g>
   <g id="line2d_61">
    <path d="M 115.363636 205.344529 
L 117.057368 209.668121 
L 118.7511 213.431214 
L 120.444832 216.670056 
L 122.138564 219.420898 
L 123.832296 221.719989 
L 125.526028 223.603578 
L 127.21976 225.107913 
L 128.913492 226.269245 
L 130.607224 227.123822 
L 132.300956 227.707895 
L 133.994688 228.057711 
L 135.68842 228.20952 
L 138.229018 228.145267 
L 140.769616 227.8394 
L 148.39141 226.695531 
L 150.932008 226.646622 
L 152.62574 226.812071 
L 154.319472 227.178255 
L 156.013204 227.781423 
L 157.706936 228.657823 
L 159.400668 229.827243 
L 161.0944 231.251349 
L 163.634998 233.753149 
L 167.022462 237.502852 
L 172.103658 243.183242 
L 174.644256 245.674501 
L 176.337988 247.088879 
L 178.03172 248.246407 
L 179.725452 249.09844 
L 181.419183 249.640039 
L 183.112915 249.903394 
L 184.806647 249.921872 
L 186.500379 249.728842 
L 188.194111 249.357671 
L 190.734709 248.539896 
L 194.122173 247.137474 
L 200.050235 244.574475 
L 202.590833 243.706209 
L 205.131431 243.045678 
L 207.672029 242.606318 
L 210.212627 242.401564 
L 212.753225 242.44485 
L 215.293823 242.74961 
L 217.834421 243.329281 
L 220.375019 244.197297 
L 222.915617 245.365919 
L 225.456215 246.836718 
L 227.996813 248.605545 
L 230.537411 250.668196 
L 233.078009 253.02047 
L 235.618607 255.658162 
L 238.159205 258.57707 
L 240.699803 261.772991 
L 244.087267 266.446069 
L 250.862195 276.127723 
L 253.402793 279.352117 
L 255.096525 281.240638 
L 256.790256 282.860864 
L 258.483988 284.161849 
L 260.17772 285.09265 
L 261.871452 285.602321 
L 262.718318 285.683312 
L 263.565184 285.639988 
L 264.41205 285.471919 
L 266.105782 284.801554 
L 267.799514 283.757295 
L 269.493246 282.425237 
L 272.033844 280.075861 
L 277.11504 275.177879 
L 278.808772 273.801868 
L 280.502504 272.697672 
L 282.196236 271.951386 
L 283.043102 271.739364 
L 283.889968 271.649104 
L 284.736834 271.691239 
L 285.5837 271.868592 
L 287.277432 272.590791 
L 288.971164 273.734176 
L 290.664896 275.21618 
L 293.205494 277.893481 
L 300.827288 286.595465 
L 302.52102 288.135934 
L 304.214752 289.354488 
L 305.908484 290.168735 
L 307.602216 290.539878 
L 309.295948 290.529864 
L 310.98968 290.214828 
L 312.683412 289.670906 
L 315.22401 288.592404 
L 319.45834 286.729044 
L 321.152072 286.182709 
L 322.845804 285.864297 
L 324.539536 285.849942 
L 326.233268 286.215778 
L 327.927 287.02947 
L 329.620732 288.27373 
L 331.314463 289.882268 
L 333.008195 291.788204 
L 335.548793 295.058427 
L 339.783123 301.048314 
L 343.170587 305.723861 
L 345.711185 308.811521 
L 347.404917 310.545035 
L 349.098649 311.946799 
L 350.792381 313.014205 
L 352.486113 313.776288 
L 354.179845 314.262401 
L 355.873577 314.501898 
L 357.567309 314.524134 
L 359.261041 314.358461 
L 361.801639 313.821837 
L 364.342237 313.027535 
L 368.576567 311.40016 
L 373.657763 309.465503 
L 377.045227 308.421091 
L 379.585825 307.85803 
L 382.126423 307.544031 
L 384.667021 307.533344 
L 386.360753 307.721517 
L 388.054485 308.08468 
L 389.748217 308.638908 
L 391.441949 309.396916 
L 393.135681 310.344122 
L 395.676279 312.058728 
L 398.216877 314.042074 
L 402.451207 317.688746 
L 407.532402 322.089739 
L 410.073 324.080441 
L 412.613598 325.808737 
L 415.154196 327.247974 
L 417.694794 328.431446 
L 420.235392 329.39473 
L 423.622856 330.398081 
L 427.01032 331.157556 
L 432.091516 332.023966 
L 444.794506 334.050456 
L 449.875702 335.113577 
L 454.110032 336.22409 
L 458.344362 337.564604 
L 465.11929 339.97875 
L 472.741084 342.650803 
L 476.975414 343.918215 
L 482.05661 345.192778 
L 489.678403 346.832368 
L 498.147063 348.687234 
L 505.768857 350.615629 
L 528.634239 356.57589 
L 535.409167 358.043923 
L 541.337229 359.121696 
L 548.959023 360.252008 
L 569.283806 363.046763 
L 572.67127 363.807865 
L 576.058734 364.786434 
L 579.446198 366.035776 
L 582.833662 367.585138 
L 587.914858 370.00617 
L 590.455456 370.969546 
L 592.149188 371.428874 
L 593.84292 371.695339 
L 595.536652 371.72906 
L 597.230384 371.490159 
L 598.924116 370.938757 
L 600.617848 370.034974 
L 602.31158 368.738931 
L 604.005312 367.010749 
L 605.699044 364.810549 
L 607.392776 362.098452 
L 609.086508 358.834578 
L 610.78024 354.979049 
L 612.473972 350.491985 
L 614.167704 345.333507 
L 615.861436 339.463735 
L 617.555168 332.842792 
L 619.2489 325.430797 
L 620.942632 317.187871 
L 622.636364 308.074135 
L 622.636364 308.074135 
" clip-path="url(#p328f8ff814)" style="fill: none; stroke: #bfbbd9; stroke-width: 1.5; stroke-linecap: square"/>
   </g>
   <g id="line2d_62">
    <path d="M 115.363636 215.534838 
L 117.057368 214.673445 
L 118.7511 214.039218 
L 120.444832 213.617642 
L 122.138564 213.3942 
L 123.832296 213.354376 
L 125.526028 213.483655 
L 128.066626 213.962888 
L 130.607224 214.740948 
L 133.147822 215.768846 
L 136.535286 217.443336 
L 140.769616 219.861649 
L 150.932008 225.844298 
L 154.319472 227.48813 
L 156.86007 228.485369 
L 159.400668 229.234693 
L 162.788132 229.941844 
L 168.716194 231.060099 
L 171.256792 231.760257 
L 173.79739 232.741921 
L 175.491122 233.603684 
L 177.184854 234.666953 
L 178.878586 235.96228 
L 180.572317 237.503664 
L 183.112915 240.183983 
L 186.500379 244.17044 
L 191.581575 250.184244 
L 194.122173 252.823897 
L 195.815905 254.327742 
L 197.509637 255.565807 
L 199.203369 256.485769 
L 200.897101 257.038565 
L 202.590833 257.227253 
L 204.284565 257.09681 
L 205.978297 256.693401 
L 207.672029 256.06319 
L 210.212627 254.793608 
L 213.600091 252.737898 
L 218.681287 249.626801 
L 221.221885 248.396433 
L 222.915617 247.792136 
L 224.609349 247.371988 
L 226.303081 247.13624 
L 227.996813 247.085139 
L 229.690545 247.218937 
L 231.384277 247.537883 
L 233.078009 248.042227 
L 234.771741 248.732218 
L 236.465473 249.608107 
L 238.159205 250.670142 
L 239.852937 251.918574 
L 242.393535 254.141251 
L 244.934133 256.759794 
L 248.321597 260.688421 
L 257.637122 271.925294 
L 260.17772 274.554556 
L 261.871452 276.088274 
L 263.565184 277.406311 
L 265.258916 278.489207 
L 266.952648 279.356918 
L 268.64638 280.035728 
L 271.186978 280.757249 
L 273.727576 281.201591 
L 277.11504 281.516201 
L 283.889968 281.981327 
L 286.430566 282.361549 
L 289.81803 283.124361 
L 293.205494 284.127521 
L 297.439824 285.632429 
L 303.367886 288.007803 
L 313.530278 292.085428 
L 319.45834 294.240055 
L 324.539536 295.879692 
L 329.620732 297.282056 
L 345.711185 301.408577 
L 349.945515 302.874496 
L 354.179845 304.590636 
L 360.954773 307.635418 
L 369.423433 311.44991 
L 373.657763 313.141116 
L 377.045227 314.284585 
L 380.432691 315.171809 
L 382.973289 315.630182 
L 385.513887 315.880788 
L 388.054485 315.896356 
L 390.595083 315.649747 
L 393.135681 315.149482 
L 397.370011 314.009423 
L 401.604341 312.906469 
L 404.144939 312.464088 
L 405.838671 312.325191 
L 407.532402 312.347292 
L 409.226134 312.561406 
L 410.919866 312.998544 
L 412.613598 313.684352 
L 414.30733 314.603739 
L 416.001062 315.722921 
L 418.54166 317.702196 
L 421.929124 320.724294 
L 429.550918 327.803334 
L 432.091516 329.842392 
L 434.632114 331.54845 
L 437.172712 332.929523 
L 439.71331 334.031441 
L 442.253908 334.900085 
L 445.641372 335.774708 
L 449.875702 336.56519 
L 463.425558 338.822736 
L 469.35362 340.106583 
L 474.434816 341.439644 
L 479.516012 343.016171 
L 487.137805 345.656088 
L 496.453331 348.850631 
L 502.381393 350.614114 
L 507.462589 351.909684 
L 512.543785 352.993049 
L 517.624981 353.852121 
L 524.399909 354.721614 
L 532.021703 355.742177 
L 536.256033 356.527676 
L 539.643497 357.350135 
L 544.724693 358.867761 
L 553.193353 361.485745 
L 556.580817 362.325078 
L 559.96828 362.923155 
L 563.355744 363.260992 
L 575.211868 364.142562 
L 577.752466 364.634022 
L 580.293064 365.35443 
L 582.833662 366.330858 
L 592.149188 370.3278 
L 593.84292 370.79822 
L 595.536652 371.095553 
L 597.230384 371.182109 
L 598.924116 371.020196 
L 600.617848 370.572126 
L 602.31158 369.800207 
L 604.005312 368.666749 
L 605.699044 367.134062 
L 607.392776 365.164454 
L 609.086508 362.720236 
L 610.78024 359.763718 
L 612.473972 356.257208 
L 614.167704 352.163016 
L 615.861436 347.443451 
L 617.555168 342.060824 
L 619.2489 335.977444 
L 620.942632 329.155621 
L 622.636364 321.557663 
L 622.636364 321.557663 
" clip-path="url(#p328f8ff814)" style="fill: none; stroke: #fa8174; stroke-width: 1.5; stroke-linecap: square"/>
   </g>
   <g id="line2d_63">
    <path d="M 115.363636 211.141975 
L 117.057368 210.171625 
L 118.7511 209.463699 
L 120.444832 209.006006 
L 122.138564 208.786352 
L 123.832296 208.792546 
L 125.526028 209.012395 
L 127.21976 209.433708 
L 128.913492 210.044292 
L 130.607224 210.831956 
L 133.147822 212.318804 
L 135.68842 214.135501 
L 138.229018 216.240897 
L 140.769616 218.593845 
L 144.15708 222.045067 
L 148.39141 226.726511 
L 156.86007 236.590212 
L 161.941266 242.304948 
L 165.32873 245.783544 
L 167.869328 248.124469 
L 170.409926 250.17358 
L 172.950524 251.875007 
L 174.644256 252.788543 
L 176.337988 253.506166 
L 178.03172 254.011323 
L 179.725452 254.289093 
L 181.419183 254.353053 
L 183.112915 254.240984 
L 185.653513 253.827159 
L 189.887843 252.803447 
L 193.275307 252.030833 
L 195.815905 251.680804 
L 197.509637 251.628988 
L 199.203369 251.767377 
L 200.897101 252.132365 
L 202.590833 252.72583 
L 204.284565 253.52189 
L 206.825163 255.037513 
L 209.365761 256.858974 
L 212.753225 259.607777 
L 221.221885 266.758486 
L 224.609349 269.203743 
L 227.149947 270.780916 
L 229.690545 272.118932 
L 232.231143 273.20063 
L 234.771741 274.00885 
L 237.312339 274.526431 
L 239.852937 274.73621 
L 242.393535 274.621037 
L 244.934133 274.183669 
L 247.474731 273.488992 
L 250.862195 272.295529 
L 259.330854 269.106516 
L 261.871452 268.407609 
L 264.41205 267.963089 
L 266.952648 267.801777 
L 269.493246 267.896483 
L 272.033844 268.216709 
L 274.574442 268.731956 
L 277.961906 269.669607 
L 282.196236 271.142849 
L 287.277432 273.172012 
L 294.05236 276.129121 
L 302.52102 280.100472 
L 323.69267 290.204966 
L 330.467598 293.094965 
L 339.783123 297.02297 
L 344.017453 299.03877 
L 347.404917 300.849543 
L 351.639247 303.396402 
L 358.414175 307.56454 
L 361.801639 309.366479 
L 364.342237 310.468968 
L 366.882835 311.286326 
L 368.576567 311.640943 
L 370.270299 311.824561 
L 372.810897 311.817802 
L 375.351495 311.566192 
L 385.513887 310.226467 
L 388.054485 310.337018 
L 389.748217 310.620698 
L 391.441949 311.104614 
L 393.135681 311.780803 
L 395.676279 313.100937 
L 398.216877 314.71283 
L 401.604341 317.169533 
L 410.919866 324.185373 
L 413.460464 325.781259 
L 416.001062 327.16874 
L 419.388526 328.733687 
L 422.77599 330.022207 
L 426.163454 331.088103 
L 430.397784 332.189373 
L 436.325846 333.478578 
L 444.794506 335.075253 
L 457.497496 337.460004 
L 465.11929 339.126504 
L 472.741084 341.033772 
L 480.362878 343.202374 
L 497.300197 348.168677 
L 509.156321 351.199171 
L 515.931249 353.053701 
L 521.859311 354.906808 
L 532.868569 358.401774 
L 537.102899 359.514638 
L 541.337229 360.382163 
L 545.571559 361.022589 
L 551.499621 361.657292 
L 567.590074 363.18214 
L 570.977538 363.772535 
L 574.365002 364.574436 
L 577.752466 365.641581 
L 580.293064 366.648335 
L 583.680528 368.248786 
L 587.914858 370.261747 
L 590.455456 371.227955 
L 592.149188 371.685266 
L 593.84292 371.944856 
L 595.536652 371.965362 
L 597.230384 371.705421 
L 598.924116 371.123668 
L 600.617848 370.17874 
L 602.31158 368.829273 
L 604.005312 367.033904 
L 605.699044 364.751269 
L 607.392776 361.940004 
L 609.086508 358.558745 
L 610.78024 354.566129 
L 612.473972 349.920792 
L 614.167704 344.581371 
L 615.861436 338.5065 
L 617.555168 331.654818 
L 619.2489 323.98496 
L 620.942632 315.455563 
L 622.636364 306.025262 
L 622.636364 306.025262 
" clip-path="url(#p328f8ff814)" style="fill: none; stroke: #81b1d2; stroke-width: 1.5; stroke-linecap: square"/>
   </g>
   <g id="line2d_64">
    <path d="M 115.363636 216.74669 
L 117.057368 216.553947 
L 118.7511 216.590095 
L 120.444832 216.83984 
L 122.138564 217.287889 
L 123.832296 217.918949 
L 126.372894 219.175232 
L 128.913492 220.757267 
L 131.45409 222.613439 
L 134.841554 225.425564 
L 139.075884 229.310645 
L 150.085142 239.695296 
L 153.472606 242.496308 
L 156.013204 244.341494 
L 158.553802 245.910887 
L 161.0944 247.184102 
L 163.634998 248.184823 
L 166.175596 248.940152 
L 168.716194 249.477194 
L 171.256792 249.823053 
L 174.644256 250.033647 
L 178.03172 250.016792 
L 182.266049 249.775548 
L 193.275307 248.977837 
L 196.662771 248.971551 
L 200.050235 249.2075 
L 203.437699 249.736287 
L 206.825163 250.525514 
L 210.212627 251.524478 
L 214.446957 252.990876 
L 221.221885 255.606779 
L 227.996813 258.390398 
L 231.384277 259.988293 
L 234.771741 261.83258 
L 237.312339 263.426669 
L 239.852937 265.239828 
L 242.393535 267.306531 
L 245.780999 270.440661 
L 253.402793 277.744486 
L 255.94339 279.812429 
L 257.637122 280.981238 
L 259.330854 281.939004 
L 261.024586 282.648708 
L 262.718318 283.073333 
L 264.41205 283.179387 
L 266.105782 282.977615 
L 267.799514 282.508933 
L 269.493246 281.814839 
L 272.033844 280.441827 
L 275.421308 278.20951 
L 281.34937 274.130424 
L 283.889968 272.678127 
L 285.5837 271.910013 
L 287.277432 271.321064 
L 288.971164 270.906772 
L 290.664896 270.662342 
L 292.358628 270.582982 
L 294.05236 270.663899 
L 295.746092 270.900298 
L 298.28669 271.535943 
L 300.827288 272.494461 
L 303.367886 273.759676 
L 305.908484 275.315392 
L 308.449082 277.13248 
L 311.836546 279.848675 
L 322.845804 289.055507 
L 325.386402 290.841886 
L 327.927 292.353777 
L 330.467598 293.58065 
L 333.008195 294.57459 
L 336.395659 295.632876 
L 341.476855 296.913897 
L 346.558051 298.219607 
L 349.945515 299.313645 
L 354.179845 300.96285 
L 368.576567 306.918294 
L 371.964031 307.962718 
L 376.198361 309.033239 
L 388.054485 311.828486 
L 391.441949 312.892673 
L 394.829413 314.16298 
L 399.063743 315.984473 
L 404.991805 318.826957 
L 420.235392 326.330408 
L 426.163454 328.924562 
L 431.24465 330.885797 
L 435.47898 332.295192 
L 441.407042 333.993424 
L 458.344362 338.617555 
L 472.741084 342.937492 
L 477.82228 344.191315 
L 484.597207 345.61138 
L 494.759599 347.733091 
L 500.687661 349.240154 
L 515.084383 353.063661 
L 519.318713 353.929188 
L 526.940507 355.188783 
L 532.868569 356.241102 
L 537.102899 357.214889 
L 540.490363 358.202523 
L 545.571559 359.942144 
L 553.193353 362.556562 
L 556.580817 363.497854 
L 559.96828 364.18115 
L 563.355744 364.581391 
L 568.43694 364.88433 
L 574.365002 365.273216 
L 577.752466 365.747837 
L 580.293064 366.316732 
L 582.833662 367.099159 
L 591.302322 369.976455 
L 593.84292 370.473011 
L 595.536652 370.602493 
L 597.230384 370.53058 
L 598.924116 370.222856 
L 600.617848 369.644907 
L 602.31158 368.762318 
L 604.005312 367.540672 
L 605.699044 365.945556 
L 607.392776 363.942555 
L 609.086508 361.497252 
L 610.78024 358.575234 
L 612.473972 355.142085 
L 614.167704 351.16339 
L 615.861436 346.604734 
L 617.555168 341.431701 
L 619.2489 335.609878 
L 620.942632 329.104848 
L 622.636364 321.882197 
L 622.636364 321.882197 
" clip-path="url(#p328f8ff814)" style="fill: none; stroke: #fdb462; stroke-width: 1.5; stroke-linecap: square"/>
   </g>
   <g id="patch_3">
    <path d="M 90 384.48 
L 90 51.84 
" style="fill: none; stroke: #ffffff; stroke-width: 0.8; stroke-linejoin: miter; stroke-linecap: square"/>
   </g>
   <g id="patch_4">
    <path d="M 648 384.48 
L 648 51.84 
" style="fill: none; stroke: #ffffff; stroke-width: 0.8; stroke-linejoin: miter; stroke-linecap: square"/>
   </g>
   <g id="patch_5">
    <path d="M 90 384.48 
L 648 384.48 
" style="fill: none; stroke: #ffffff; stroke-width: 0.8; stroke-linejoin: miter; stroke-linecap: square"/>
   </g>
   <g id="patch_6">
    <path d="M 90 51.84 
L 648 51.84 
" style="fill: none; stroke: #ffffff; stroke-width: 0.8; stroke-linejoin: miter; stroke-linecap: square"/>
   </g>
   <g id="text_32">
    <!-- caio.thread_aio_asyncio - read (Time vs Chunk Size) -->
    <g style="fill: #ffffff" transform="translate(212.86875 45.84) scale(0.12 -0.12)">
     <defs>
      <path id="DejaVuSans-61" d="M 2194 1759 
Q 1497 1759 1228 1600 
Q 959 1441 959 1056 
Q 959 750 1161 570 
Q 1363 391 1709 391 
Q 2188 391 2477 730 
Q 2766 1069 2766 1631 
L 2766 1759 
L 2194 1759 
z
M 3341 1997 
L 3341 0 
L 2766 0 
L 2766 531 
Q 2569 213 2275 61 
Q 1981 -91 1556 -91 
Q 1019 -91 701 211 
Q 384 513 384 1019 
Q 384 1609 779 1909 
Q 1175 2209 1959 2209 
L 2766 2209 
L 2766 2266 
Q 2766 2663 2505 2880 
Q 2244 3097 1772 3097 
Q 1472 3097 1187 3025 
Q 903 2953 641 2809 
L 641 3341 
Q 956 3463 1253 3523 
Q 1550 3584 1831 3584 
Q 2591 3584 2966 3190 
Q 3341 2797 3341 1997 
z
" transform="scale(0.015625)"/>
      <path id="DejaVuSans-6f" d="M 1959 3097 
Q 1497 3097 1228 2736 
Q 959 2375 959 1747 
Q 959 1119 1226 758 
Q 1494 397 1959 397 
Q 2419 397 2687 759 
Q 2956 1122 2956 1747 
Q 2956 2369 2687 2733 
Q 2419 3097 1959 3097 
z
M 1959 3584 
Q 2709 3584 3137 3096 
Q 3566 2609 3566 1747 
Q 3566 888 3137 398 
Q 2709 -91 1959 -91 
Q 1206 -91 779 398 
Q 353 888 353 1747 
Q 353 2609 779 3096 
Q 1206 3584 1959 3584 
z
" transform="scale(0.015625)"/>
      <path id="DejaVuSans-2e" d="M 684 794 
L 1344 794 
L 1344 0 
L 684 0 
L 684 794 
z
" transform="scale(0.015625)"/>
      <path id="DejaVuSans-72" d="M 2631 2963 
Q 2534 3019 2420 3045 
Q 2306 3072 2169 3072 
Q 1681 3072 1420 2755 
Q 1159 2438 1159 1844 
L 1159 0 
L 581 0 
L 581 3500 
L 1159 3500 
L 1159 2956 
Q 1341 3275 1631 3429 
Q 1922 3584 2338 3584 
Q 2397 3584 2469 3576 
Q 2541 3569 2628 3553 
L 2631 2963 
z
" transform="scale(0.015625)"/>
      <path id="DejaVuSans-64" d="M 2906 2969 
L 2906 4863 
L 3481 4863 
L 3481 0 
L 2906 0 
L 2906 525 
Q 2725 213 2448 61 
Q 2172 -91 1784 -91 
Q 1150 -91 751 415 
Q 353 922 353 1747 
Q 353 2572 751 3078 
Q 1150 3584 1784 3584 
Q 2172 3584 2448 3432 
Q 2725 3281 2906 2969 
z
M 947 1747 
Q 947 1113 1208 752 
Q 1469 391 1925 391 
Q 2381 391 2643 752 
Q 2906 1113 2906 1747 
Q 2906 2381 2643 2742 
Q 2381 3103 1925 3103 
Q 1469 3103 1208 2742 
Q 947 2381 947 1747 
z
" transform="scale(0.015625)"/>
      <path id="DejaVuSans-79" d="M 2059 -325 
Q 1816 -950 1584 -1140 
Q 1353 -1331 966 -1331 
L 506 -1331 
L 506 -850 
L 844 -850 
Q 1081 -850 1212 -737 
Q 1344 -625 1503 -206 
L 1606 56 
L 191 3500 
L 800 3500 
L 1894 763 
L 2988 3500 
L 3597 3500 
L 2059 -325 
z
" transform="scale(0.015625)"/>
      <path id="DejaVuSans-2d" d="M 313 2009 
L 1997 2009 
L 1997 1497 
L 313 1497 
L 313 2009 
z
" transform="scale(0.015625)"/>
      <path id="DejaVuSans-54" d="M -19 4666 
L 3928 4666 
L 3928 4134 
L 2272 4134 
L 2272 0 
L 1638 0 
L 1638 4134 
L -19 4134 
L -19 4666 
z
" transform="scale(0.015625)"/>
      <path id="DejaVuSans-76" d="M 191 3500 
L 800 3500 
L 1894 563 
L 2988 3500 
L 3597 3500 
L 2284 0 
L 1503 0 
L 191 3500 
z
" transform="scale(0.015625)"/>
      <path id="DejaVuSans-43" d="M 4122 4306 
L 4122 3641 
Q 3803 3938 3442 4084 
Q 3081 4231 2675 4231 
Q 1875 4231 1450 3742 
Q 1025 3253 1025 2328 
Q 1025 1406 1450 917 
Q 1875 428 2675 428 
Q 3081 428 3442 575 
Q 3803 722 4122 1019 
L 4122 359 
Q 3791 134 3420 21 
Q 3050 -91 2638 -91 
Q 1578 -91 968 557 
Q 359 1206 359 2328 
Q 359 3453 968 4101 
Q 1578 4750 2638 4750 
Q 3056 4750 3426 4639 
Q 3797 4528 4122 4306 
z
" transform="scale(0.015625)"/>
      <path id="DejaVuSans-53" d="M 3425 4513 
L 3425 3897 
Q 3066 4069 2747 4153 
Q 2428 4238 2131 4238 
Q 1616 4238 1336 4038 
Q 1056 3838 1056 3469 
Q 1056 3159 1242 3001 
Q 1428 2844 1947 2747 
L 2328 2669 
Q 3034 2534 3370 2195 
Q 3706 1856 3706 1288 
Q 3706 609 3251 259 
Q 2797 -91 1919 -91 
Q 1588 -91 1214 -16 
Q 841 59 441 206 
L 441 856 
Q 825 641 1194 531 
Q 1563 422 1919 422 
Q 2459 422 2753 634 
Q 3047 847 3047 1241 
Q 3047 1584 2836 1778 
Q 2625 1972 2144 2069 
L 1759 2144 
Q 1053 2284 737 2584 
Q 422 2884 422 3419 
Q 422 4038 858 4394 
Q 1294 4750 2059 4750 
Q 2388 4750 2728 4690 
Q 3069 4631 3425 4513 
z
" transform="scale(0.015625)"/>
     </defs>
     <use xlink:href="#DejaVuSans-63"/>
     <use xlink:href="#DejaVuSans-61" x="54.980469"/>
     <use xlink:href="#DejaVuSans-69" x="116.259766"/>
     <use xlink:href="#DejaVuSans-6f" x="144.042969"/>
     <use xlink:href="#DejaVuSans-2e" x="203.474609"/>
     <use xlink:href="#DejaVuSans-74" x="235.261719"/>
     <use xlink:href="#DejaVuSans-68" x="274.470703"/>
     <use xlink:href="#DejaVuSans-72" x="337.849609"/>
     <use xlink:href="#DejaVuSans-65" x="376.712891"/>
     <use xlink:href="#DejaVuSans-61" x="438.236328"/>
     <use xlink:href="#DejaVuSans-64" x="499.515625"/>
     <use xlink:href="#DejaVuSans-5f" x="562.992188"/>
     <use xlink:href="#DejaVuSans-61" x="612.992188"/>
     <use xlink:href="#DejaVuSans-69" x="674.271484"/>
     <use xlink:href="#DejaVuSans-6f" x="702.054688"/>
     <use xlink:href="#DejaVuSans-5f" x="763.236328"/>
     <use xlink:href="#DejaVuSans-61" x="813.236328"/>
     <use xlink:href="#DejaVuSans-73" x="874.515625"/>
     <use xlink:href="#DejaVuSans-79" x="926.615234"/>
     <use xlink:href="#DejaVuSans-6e" x="985.794922"/>
     <use xlink:href="#DejaVuSans-63" x="1049.173828"/>
     <use xlink:href="#DejaVuSans-69" x="1104.154297"/>
     <use xlink:href="#DejaVuSans-6f" x="1131.9375"/>
     <use xlink:href="#DejaVuSans-20" x="1193.119141"/>
     <use xlink:href="#DejaVuSans-2d" x="1224.90625"/>
     <use xlink:href="#DejaVuSans-20" x="1260.990234"/>
     <use xlink:href="#DejaVuSans-72" x="1292.777344"/>
     <use xlink:href="#DejaVuSans-65" x="1331.640625"/>
     <use xlink:href="#DejaVuSans-61" x="1393.164062"/>
     <use xlink:href="#DejaVuSans-64" x="1454.443359"/>
     <use xlink:href="#DejaVuSans-20" x="1517.919922"/>
     <use xlink:href="#DejaVuSans-28" x="1549.707031"/>
     <use xlink:href="#DejaVuSans-54" x="1588.720703"/>
     <use xlink:href="#DejaVuSans-69" x="1646.679688"/>
     <use xlink:href="#DejaVuSans-6d" x="1674.462891"/>
     <use xlink:href="#DejaVuSans-65" x="1771.875"/>
     <use xlink:href="#DejaVuSans-20" x="1833.398438"/>
     <use xlink:href="#DejaVuSans-76" x="1865.185547"/>
     <use xlink:href="#DejaVuSans-73" x="1924.365234"/>
     <use xlink:href="#DejaVuSans-20" x="1976.464844"/>
     <use xlink:href="#DejaVuSans-43" x="2008.251953"/>
     <use xlink:href="#DejaVuSans-68" x="2078.076172"/>
     <use xlink:href="#DejaVuSans-75" x="2141.455078"/>
     <use xlink:href="#DejaVuSans-6e" x="2204.833984"/>
     <use xlink:href="#DejaVuSans-6b" x="2268.212891"/>
     <use xlink:href="#DejaVuSans-20" x="2326.123047"/>
     <use xlink:href="#DejaVuSans-53" x="2357.910156"/>
     <use xlink:href="#DejaVuSans-69" x="2421.386719"/>
     <use xlink:href="#DejaVuSans-7a" x="2449.169922"/>
     <use xlink:href="#DejaVuSans-65" x="2501.660156"/>
     <use xlink:href="#DejaVuSans-29" x="2563.183594"/>
    </g>
   </g>
   <g id="legend_1">
    <g id="patch_7">
     <path d="M 543.43125 149.5775 
L 641 149.5775 
Q 643 149.5775 643 147.5775 
L 643 58.84 
Q 643 56.84 641 56.84 
L 543.43125 56.84 
Q 541.43125 56.84 541.43125 58.84 
L 541.43125 147.5775 
Q 541.43125 149.5775 543.43125 149.5775 
z
" style="opacity: 0.8; stroke: #cccccc; stroke-linejoin: miter"/>
    </g>
    <g id="line2d_65">
     <path d="M 545.43125 64.938437 
L 555.43125 64.938437 
L 565.43125 64.938437 
" style="fill: none; stroke: #8dd3c7; stroke-width: 1.5; stroke-linecap: square"/>
    </g>
    <g id="text_33">
     <!-- max_ops=1 -->
     <g style="fill: #ffffff" transform="translate(573.43125 68.438437) scale(0.1 -0.1)">
      <defs>
       <path id="DejaVuSans-78" d="M 3513 3500 
L 2247 1797 
L 3578 0 
L 2900 0 
L 1881 1375 
L 863 0 
L 184 0 
L 1544 1831 
L 300 3500 
L 978 3500 
L 1906 2253 
L 2834 3500 
L 3513 3500 
z
" transform="scale(0.015625)"/>
       <path id="DejaVuSans-70" d="M 1159 525 
L 1159 -1331 
L 581 -1331 
L 581 3500 
L 1159 3500 
L 1159 2969 
Q 1341 3281 1617 3432 
Q 1894 3584 2278 3584 
Q 2916 3584 3314 3078 
Q 3713 2572 3713 1747 
Q 3713 922 3314 415 
Q 2916 -91 2278 -91 
Q 1894 -91 1617 61 
Q 1341 213 1159 525 
z
M 3116 1747 
Q 3116 2381 2855 2742 
Q 2594 3103 2138 3103 
Q 1681 3103 1420 2742 
Q 1159 2381 1159 1747 
Q 1159 1113 1420 752 
Q 1681 391 2138 391 
Q 2594 391 2855 752 
Q 3116 1113 3116 1747 
z
" transform="scale(0.015625)"/>
       <path id="DejaVuSans-3d" d="M 678 2906 
L 4684 2906 
L 4684 2381 
L 678 2381 
L 678 2906 
z
M 678 1631 
L 4684 1631 
L 4684 1100 
L 678 1100 
L 678 1631 
z
" transform="scale(0.015625)"/>
      </defs>
      <use xlink:href="#DejaVuSans-6d"/>
      <use xlink:href="#DejaVuSans-61" x="97.412109"/>
      <use xlink:href="#DejaVuSans-78" x="158.691406"/>
      <use xlink:href="#DejaVuSans-5f" x="217.871094"/>
      <use xlink:href="#DejaVuSans-6f" x="267.871094"/>
      <use xlink:href="#DejaVuSans-70" x="329.052734"/>
      <use xlink:href="#DejaVuSans-73" x="392.529297"/>
      <use xlink:href="#DejaVuSans-3d" x="444.628906"/>
      <use xlink:href="#DejaVuSans-31" x="528.417969"/>
     </g>
    </g>
    <g id="line2d_66">
     <path d="M 545.43125 79.894687 
L 555.43125 79.894687 
L 565.43125 79.894687 
" style="fill: none; stroke: #feffb3; stroke-width: 1.5; stroke-linecap: square"/>
    </g>
    <g id="text_34">
     <!-- max_ops=4 -->
     <g style="fill: #ffffff" transform="translate(573.43125 83.394687) scale(0.1 -0.1)">
      <use xlink:href="#DejaVuSans-6d"/>
      <use xlink:href="#DejaVuSans-61" x="97.412109"/>
      <use xlink:href="#DejaVuSans-78" x="158.691406"/>
      <use xlink:href="#DejaVuSans-5f" x="217.871094"/>
      <use xlink:href="#DejaVuSans-6f" x="267.871094"/>
      <use xlink:href="#DejaVuSans-70" x="329.052734"/>
      <use xlink:href="#DejaVuSans-73" x="392.529297"/>
      <use xlink:href="#DejaVuSans-3d" x="444.628906"/>
      <use xlink:href="#DejaVuSans-34" x="528.417969"/>
     </g>
    </g>
    <g id="line2d_67">
     <path d="M 545.43125 94.850937 
L 555.43125 94.850937 
L 565.43125 94.850937 
" style="fill: none; stroke: #bfbbd9; stroke-width: 1.5; stroke-linecap: square"/>
    </g>
    <g id="text_35">
     <!-- max_ops=8 -->
     <g style="fill: #ffffff" transform="translate(573.43125 98.350937) scale(0.1 -0.1)">
      <use xlink:href="#DejaVuSans-6d"/>
      <use xlink:href="#DejaVuSans-61" x="97.412109"/>
      <use xlink:href="#DejaVuSans-78" x="158.691406"/>
      <use xlink:href="#DejaVuSans-5f" x="217.871094"/>
      <use xlink:href="#DejaVuSans-6f" x="267.871094"/>
      <use xlink:href="#DejaVuSans-70" x="329.052734"/>
      <use xlink:href="#DejaVuSans-73" x="392.529297"/>
      <use xlink:href="#DejaVuSans-3d" x="444.628906"/>
      <use xlink:href="#DejaVuSans-38" x="528.417969"/>
     </g>
    </g>
    <g id="line2d_68">
     <path d="M 545.43125 109.807187 
L 555.43125 109.807187 
L 565.43125 109.807187 
" style="fill: none; stroke: #fa8174; stroke-width: 1.5; stroke-linecap: square"/>
    </g>
    <g id="text_36">
     <!-- max_ops=16 -->
     <g style="fill: #ffffff" transform="translate(573.43125 113.307187) scale(0.1 -0.1)">
      <use xlink:href="#DejaVuSans-6d"/>
      <use xlink:href="#DejaVuSans-61" x="97.412109"/>
      <use xlink:href="#DejaVuSans-78" x="158.691406"/>
      <use xlink:href="#DejaVuSans-5f" x="217.871094"/>
      <use xlink:href="#DejaVuSans-6f" x="267.871094"/>
      <use xlink:href="#DejaVuSans-70" x="329.052734"/>
      <use xlink:href="#DejaVuSans-73" x="392.529297"/>
      <use xlink:href="#DejaVuSans-3d" x="444.628906"/>
      <use xlink:href="#DejaVuSans-31" x="528.417969"/>
      <use xlink:href="#DejaVuSans-36" x="592.041016"/>
     </g>
    </g>
    <g id="line2d_69">
     <path d="M 545.43125 124.763437 
L 555.43125 124.763437 
L 565.43125 124.763437 
" style="fill: none; stroke: #81b1d2; stroke-width: 1.5; stroke-linecap: square"/>
    </g>
    <g id="text_37">
     <!-- max_ops=32 -->
     <g style="fill: #ffffff" transform="translate(573.43125 128.263437) scale(0.1 -0.1)">
      <use xlink:href="#DejaVuSans-6d"/>
      <use xlink:href="#DejaVuSans-61" x="97.412109"/>
      <use xlink:href="#DejaVuSans-78" x="158.691406"/>
      <use xlink:href="#DejaVuSans-5f" x="217.871094"/>
      <use xlink:href="#DejaVuSans-6f" x="267.871094"/>
      <use xlink:href="#DejaVuSans-70" x="329.052734"/>
      <use xlink:href="#DejaVuSans-73" x="392.529297"/>
      <use xlink:href="#DejaVuSans-3d" x="444.628906"/>
      <use xlink:href="#DejaVuSans-33" x="528.417969"/>
      <use xlink:href="#DejaVuSans-32" x="592.041016"/>
     </g>
    </g>
    <g id="line2d_70">
     <path d="M 545.43125 139.719687 
L 555.43125 139.719687 
L 565.43125 139.719687 
" style="fill: none; stroke: #fdb462; stroke-width: 1.5; stroke-linecap: square"/>
    </g>
    <g id="text_38">
     <!-- max_ops=64 -->
     <g style="fill: #ffffff" transform="translate(573.43125 143.219687) scale(0.1 -0.1)">
      <use xlink:href="#DejaVuSans-6d"/>
      <use xlink:href="#DejaVuSans-61" x="97.412109"/>
      <use xlink:href="#DejaVuSans-78" x="158.691406"/>
      <use xlink:href="#DejaVuSans-5f" x="217.871094"/>
      <use xlink:href="#DejaVuSans-6f" x="267.871094"/>
      <use xlink:href="#DejaVuSans-70" x="329.052734"/>
      <use xlink:href="#DejaVuSans-73" x="392.529297"/>
      <use xlink:href="#DejaVuSans-3d" x="444.628906"/>
      <use xlink:href="#DejaVuSans-36" x="528.417969"/>
      <use xlink:href="#DejaVuSans-34" x="592.041016"/>
     </g>
    </g>
   </g>
  </g>
 </g>
 <defs>
  <clipPath id="p328f8ff814">
   <rect x="90" y="51.84" width="558" height="332.64"/>
  </clipPath>
 </defs>
</svg>
