<?xml version="1.0" encoding="utf-8" standalone="no"?>
<!DOCTYPE svg PUBLIC "-//W3C//DTD SVG 1.1//EN"
  "http://www.w3.org/Graphics/SVG/1.1/DTD/svg11.dtd">
<svg xmlns:xlink="http://www.w3.org/1999/xlink" width="720pt" height="432pt" viewBox="0 0 720 432" xmlns="http://www.w3.org/2000/svg" version="1.1">
 <metadata>
  <rdf:RDF xmlns:dc="http://purl.org/dc/elements/1.1/" xmlns:cc="http://creativecommons.org/ns#" xmlns:rdf="http://www.w3.org/1999/02/22-rdf-syntax-ns#">
   <cc:Work>
    <dc:type rdf:resource="http://purl.org/dc/dcmitype/StillImage"/>
    <dc:date>2024-01-19T20:27:15.362348</dc:date>
    <dc:format>image/svg+xml</dc:format>
    <dc:creator>
     <cc:Agent>
      <dc:title>Matplotlib v3.8.2, https://matplotlib.org/</dc:title>
     </cc:Agent>
    </dc:creator>
   </cc:Work>
  </rdf:RDF>
 </metadata>
 <defs>
  <style type="text/css">*{stroke-linejoin: round; stroke-linecap: butt}</style>
 </defs>
 <g id="figure_1">
  <g id="patch_1">
   <path d="M 0 432 
L 720 432 
L 720 0 
L 0 0 
z
"/>
  </g>
  <g id="axes_1">
   <g id="patch_2">
    <path d="M 90 384.48 
L 648 384.48 
L 648 51.84 
L 90 51.84 
z
"/>
   </g>
   <g id="matplotlib.axis_1">
    <g id="xtick_1">
     <g id="line2d_1">
      <path d="M 115.363636 384.48 
L 115.363636 51.84 
" clip-path="url(#pf72a57a339)" style="fill: none; stroke: #ffffff; stroke-width: 0.8; stroke-linecap: square"/>
     </g>
     <g id="line2d_2">
      <defs>
       <path id="macce1a5b8e" d="M 0 0 
L 0 3.5 
" style="stroke: #ffffff; stroke-width: 0.8"/>
      </defs>
      <g>
       <use xlink:href="#macce1a5b8e" x="115.363636" y="384.48" style="fill: #ffffff; stroke: #ffffff; stroke-width: 0.8"/>
      </g>
     </g>
     <g id="text_1">
      <!-- 55912 -->
      <g style="fill: #ffffff" transform="translate(106.067392 419.347741) rotate(-45) scale(0.1 -0.1)">
       <defs>
        <path id="DejaVuSans-35" d="M 691 4666 
L 3169 4666 
L 3169 4134 
L 1269 4134 
L 1269 2991 
Q 1406 3038 1543 3061 
Q 1681 3084 1819 3084 
Q 2600 3084 3056 2656 
Q 3513 2228 3513 1497 
Q 3513 744 3044 326 
Q 2575 -91 1722 -91 
Q 1428 -91 1123 -41 
Q 819 9 494 109 
L 494 744 
Q 775 591 1075 516 
Q 1375 441 1709 441 
Q 2250 441 2565 725 
Q 2881 1009 2881 1497 
Q 2881 1984 2565 2268 
Q 2250 2553 1709 2553 
Q 1456 2553 1204 2497 
Q 953 2441 691 2322 
L 691 4666 
z
" transform="scale(0.015625)"/>
        <path id="DejaVuSans-39" d="M 703 97 
L 703 672 
Q 941 559 1184 500 
Q 1428 441 1663 441 
Q 2288 441 2617 861 
Q 2947 1281 2994 2138 
Q 2813 1869 2534 1725 
Q 2256 1581 1919 1581 
Q 1219 1581 811 2004 
Q 403 2428 403 3163 
Q 403 3881 828 4315 
Q 1253 4750 1959 4750 
Q 2769 4750 3195 4129 
Q 3622 3509 3622 2328 
Q 3622 1225 3098 567 
Q 2575 -91 1691 -91 
Q 1453 -91 1209 -44 
Q 966 3 703 97 
z
M 1959 2075 
Q 2384 2075 2632 2365 
Q 2881 2656 2881 3163 
Q 2881 3666 2632 3958 
Q 2384 4250 1959 4250 
Q 1534 4250 1286 3958 
Q 1038 3666 1038 3163 
Q 1038 2656 1286 2365 
Q 1534 2075 1959 2075 
z
" transform="scale(0.015625)"/>
        <path id="DejaVuSans-31" d="M 794 531 
L 1825 531 
L 1825 4091 
L 703 3866 
L 703 4441 
L 1819 4666 
L 2450 4666 
L 2450 531 
L 3481 531 
L 3481 0 
L 794 0 
L 794 531 
z
" transform="scale(0.015625)"/>
        <path id="DejaVuSans-32" d="M 1228 531 
L 3431 531 
L 3431 0 
L 469 0 
L 469 531 
Q 828 903 1448 1529 
Q 2069 2156 2228 2338 
Q 2531 2678 2651 2914 
Q 2772 3150 2772 3378 
Q 2772 3750 2511 3984 
Q 2250 4219 1831 4219 
Q 1534 4219 1204 4116 
Q 875 4013 500 3803 
L 500 4441 
Q 881 4594 1212 4672 
Q 1544 4750 1819 4750 
Q 2544 4750 2975 4387 
Q 3406 4025 3406 3419 
Q 3406 3131 3298 2873 
Q 3191 2616 2906 2266 
Q 2828 2175 2409 1742 
Q 1991 1309 1228 531 
z
" transform="scale(0.015625)"/>
       </defs>
       <use xlink:href="#DejaVuSans-35"/>
       <use xlink:href="#DejaVuSans-35" x="63.623047"/>
       <use xlink:href="#DejaVuSans-39" x="127.246094"/>
       <use xlink:href="#DejaVuSans-31" x="190.869141"/>
       <use xlink:href="#DejaVuSans-32" x="254.492188"/>
      </g>
     </g>
    </g>
    <g id="xtick_2">
     <g id="line2d_3">
      <path d="M 136.5 384.48 
L 136.5 51.84 
" clip-path="url(#pf72a57a339)" style="fill: none; stroke: #ffffff; stroke-width: 0.8; stroke-linecap: square"/>
     </g>
     <g id="line2d_4">
      <g>
       <use xlink:href="#macce1a5b8e" x="136.5" y="384.48" style="fill: #ffffff; stroke: #ffffff; stroke-width: 0.8"/>
      </g>
     </g>
     <g id="text_2">
      <!-- 58342 -->
      <g style="fill: #ffffff" transform="translate(127.203756 419.347741) rotate(-45) scale(0.1 -0.1)">
       <defs>
        <path id="DejaVuSans-38" d="M 2034 2216 
Q 1584 2216 1326 1975 
Q 1069 1734 1069 1313 
Q 1069 891 1326 650 
Q 1584 409 2034 409 
Q 2484 409 2743 651 
Q 3003 894 3003 1313 
Q 3003 1734 2745 1975 
Q 2488 2216 2034 2216 
z
M 1403 2484 
Q 997 2584 770 2862 
Q 544 3141 544 3541 
Q 544 4100 942 4425 
Q 1341 4750 2034 4750 
Q 2731 4750 3128 4425 
Q 3525 4100 3525 3541 
Q 3525 3141 3298 2862 
Q 3072 2584 2669 2484 
Q 3125 2378 3379 2068 
Q 3634 1759 3634 1313 
Q 3634 634 3220 271 
Q 2806 -91 2034 -91 
Q 1263 -91 848 271 
Q 434 634 434 1313 
Q 434 1759 690 2068 
Q 947 2378 1403 2484 
z
M 1172 3481 
Q 1172 3119 1398 2916 
Q 1625 2713 2034 2713 
Q 2441 2713 2670 2916 
Q 2900 3119 2900 3481 
Q 2900 3844 2670 4047 
Q 2441 4250 2034 4250 
Q 1625 4250 1398 4047 
Q 1172 3844 1172 3481 
z
" transform="scale(0.015625)"/>
        <path id="DejaVuSans-33" d="M 2597 2516 
Q 3050 2419 3304 2112 
Q 3559 1806 3559 1356 
Q 3559 666 3084 287 
Q 2609 -91 1734 -91 
Q 1441 -91 1130 -33 
Q 819 25 488 141 
L 488 750 
Q 750 597 1062 519 
Q 1375 441 1716 441 
Q 2309 441 2620 675 
Q 2931 909 2931 1356 
Q 2931 1769 2642 2001 
Q 2353 2234 1838 2234 
L 1294 2234 
L 1294 2753 
L 1863 2753 
Q 2328 2753 2575 2939 
Q 2822 3125 2822 3475 
Q 2822 3834 2567 4026 
Q 2313 4219 1838 4219 
Q 1578 4219 1281 4162 
Q 984 4106 628 3988 
L 628 4550 
Q 988 4650 1302 4700 
Q 1616 4750 1894 4750 
Q 2613 4750 3031 4423 
Q 3450 4097 3450 3541 
Q 3450 3153 3228 2886 
Q 3006 2619 2597 2516 
z
" transform="scale(0.015625)"/>
        <path id="DejaVuSans-34" d="M 2419 4116 
L 825 1625 
L 2419 1625 
L 2419 4116 
z
M 2253 4666 
L 3047 4666 
L 3047 1625 
L 3713 1625 
L 3713 1100 
L 3047 1100 
L 3047 0 
L 2419 0 
L 2419 1100 
L 313 1100 
L 313 1709 
L 2253 4666 
z
" transform="scale(0.015625)"/>
       </defs>
       <use xlink:href="#DejaVuSans-35"/>
       <use xlink:href="#DejaVuSans-38" x="63.623047"/>
       <use xlink:href="#DejaVuSans-33" x="127.246094"/>
       <use xlink:href="#DejaVuSans-34" x="190.869141"/>
       <use xlink:href="#DejaVuSans-32" x="254.492188"/>
      </g>
     </g>
    </g>
    <g id="xtick_3">
     <g id="line2d_5">
      <path d="M 157.636364 384.48 
L 157.636364 51.84 
" clip-path="url(#pf72a57a339)" style="fill: none; stroke: #ffffff; stroke-width: 0.8; stroke-linecap: square"/>
     </g>
     <g id="line2d_6">
      <g>
       <use xlink:href="#macce1a5b8e" x="157.636364" y="384.48" style="fill: #ffffff; stroke: #ffffff; stroke-width: 0.8"/>
      </g>
     </g>
     <g id="text_3">
      <!-- 60994 -->
      <g style="fill: #ffffff" transform="translate(148.340119 419.347741) rotate(-45) scale(0.1 -0.1)">
       <defs>
        <path id="DejaVuSans-36" d="M 2113 2584 
Q 1688 2584 1439 2293 
Q 1191 2003 1191 1497 
Q 1191 994 1439 701 
Q 1688 409 2113 409 
Q 2538 409 2786 701 
Q 3034 994 3034 1497 
Q 3034 2003 2786 2293 
Q 2538 2584 2113 2584 
z
M 3366 4563 
L 3366 3988 
Q 3128 4100 2886 4159 
Q 2644 4219 2406 4219 
Q 1781 4219 1451 3797 
Q 1122 3375 1075 2522 
Q 1259 2794 1537 2939 
Q 1816 3084 2150 3084 
Q 2853 3084 3261 2657 
Q 3669 2231 3669 1497 
Q 3669 778 3244 343 
Q 2819 -91 2113 -91 
Q 1303 -91 875 529 
Q 447 1150 447 2328 
Q 447 3434 972 4092 
Q 1497 4750 2381 4750 
Q 2619 4750 2861 4703 
Q 3103 4656 3366 4563 
z
" transform="scale(0.015625)"/>
        <path id="DejaVuSans-30" d="M 2034 4250 
Q 1547 4250 1301 3770 
Q 1056 3291 1056 2328 
Q 1056 1369 1301 889 
Q 1547 409 2034 409 
Q 2525 409 2770 889 
Q 3016 1369 3016 2328 
Q 3016 3291 2770 3770 
Q 2525 4250 2034 4250 
z
M 2034 4750 
Q 2819 4750 3233 4129 
Q 3647 3509 3647 2328 
Q 3647 1150 3233 529 
Q 2819 -91 2034 -91 
Q 1250 -91 836 529 
Q 422 1150 422 2328 
Q 422 3509 836 4129 
Q 1250 4750 2034 4750 
z
" transform="scale(0.015625)"/>
       </defs>
       <use xlink:href="#DejaVuSans-36"/>
       <use xlink:href="#DejaVuSans-30" x="63.623047"/>
       <use xlink:href="#DejaVuSans-39" x="127.246094"/>
       <use xlink:href="#DejaVuSans-39" x="190.869141"/>
       <use xlink:href="#DejaVuSans-34" x="254.492188"/>
      </g>
     </g>
    </g>
    <g id="xtick_4">
     <g id="line2d_7">
      <path d="M 178.772727 384.48 
L 178.772727 51.84 
" clip-path="url(#pf72a57a339)" style="fill: none; stroke: #ffffff; stroke-width: 0.8; stroke-linecap: square"/>
     </g>
     <g id="line2d_8">
      <g>
       <use xlink:href="#macce1a5b8e" x="178.772727" y="384.48" style="fill: #ffffff; stroke: #ffffff; stroke-width: 0.8"/>
      </g>
     </g>
     <g id="text_4">
      <!-- 63897 -->
      <g style="fill: #ffffff" transform="translate(169.476483 419.347741) rotate(-45) scale(0.1 -0.1)">
       <defs>
        <path id="DejaVuSans-37" d="M 525 4666 
L 3525 4666 
L 3525 4397 
L 1831 0 
L 1172 0 
L 2766 4134 
L 525 4134 
L 525 4666 
z
" transform="scale(0.015625)"/>
       </defs>
       <use xlink:href="#DejaVuSans-36"/>
       <use xlink:href="#DejaVuSans-33" x="63.623047"/>
       <use xlink:href="#DejaVuSans-38" x="127.246094"/>
       <use xlink:href="#DejaVuSans-39" x="190.869141"/>
       <use xlink:href="#DejaVuSans-37" x="254.492188"/>
      </g>
     </g>
    </g>
    <g id="xtick_5">
     <g id="line2d_9">
      <path d="M 199.909091 384.48 
L 199.909091 51.84 
" clip-path="url(#pf72a57a339)" style="fill: none; stroke: #ffffff; stroke-width: 0.8; stroke-linecap: square"/>
     </g>
     <g id="line2d_10">
      <g>
       <use xlink:href="#macce1a5b8e" x="199.909091" y="384.48" style="fill: #ffffff; stroke: #ffffff; stroke-width: 0.8"/>
      </g>
     </g>
     <g id="text_5">
      <!-- 67092 -->
      <g style="fill: #ffffff" transform="translate(190.612846 419.347741) rotate(-45) scale(0.1 -0.1)">
       <use xlink:href="#DejaVuSans-36"/>
       <use xlink:href="#DejaVuSans-37" x="63.623047"/>
       <use xlink:href="#DejaVuSans-30" x="127.246094"/>
       <use xlink:href="#DejaVuSans-39" x="190.869141"/>
       <use xlink:href="#DejaVuSans-32" x="254.492188"/>
      </g>
     </g>
    </g>
    <g id="xtick_6">
     <g id="line2d_11">
      <path d="M 221.045455 384.48 
L 221.045455 51.84 
" clip-path="url(#pf72a57a339)" style="fill: none; stroke: #ffffff; stroke-width: 0.8; stroke-linecap: square"/>
     </g>
     <g id="line2d_12">
      <g>
       <use xlink:href="#macce1a5b8e" x="221.045455" y="384.48" style="fill: #ffffff; stroke: #ffffff; stroke-width: 0.8"/>
      </g>
     </g>
     <g id="text_6">
      <!-- 70622 -->
      <g style="fill: #ffffff" transform="translate(211.74921 419.347741) rotate(-45) scale(0.1 -0.1)">
       <use xlink:href="#DejaVuSans-37"/>
       <use xlink:href="#DejaVuSans-30" x="63.623047"/>
       <use xlink:href="#DejaVuSans-36" x="127.246094"/>
       <use xlink:href="#DejaVuSans-32" x="190.869141"/>
       <use xlink:href="#DejaVuSans-32" x="254.492188"/>
      </g>
     </g>
    </g>
    <g id="xtick_7">
     <g id="line2d_13">
      <path d="M 242.181818 384.48 
L 242.181818 51.84 
" clip-path="url(#pf72a57a339)" style="fill: none; stroke: #ffffff; stroke-width: 0.8; stroke-linecap: square"/>
     </g>
     <g id="line2d_14">
      <g>
       <use xlink:href="#macce1a5b8e" x="242.181818" y="384.48" style="fill: #ffffff; stroke: #ffffff; stroke-width: 0.8"/>
      </g>
     </g>
     <g id="text_7">
      <!-- 74544 -->
      <g style="fill: #ffffff" transform="translate(232.885574 419.347741) rotate(-45) scale(0.1 -0.1)">
       <use xlink:href="#DejaVuSans-37"/>
       <use xlink:href="#DejaVuSans-34" x="63.623047"/>
       <use xlink:href="#DejaVuSans-35" x="127.246094"/>
       <use xlink:href="#DejaVuSans-34" x="190.869141"/>
       <use xlink:href="#DejaVuSans-34" x="254.492188"/>
      </g>
     </g>
    </g>
    <g id="xtick_8">
     <g id="line2d_15">
      <path d="M 263.318182 384.48 
L 263.318182 51.84 
" clip-path="url(#pf72a57a339)" style="fill: none; stroke: #ffffff; stroke-width: 0.8; stroke-linecap: square"/>
     </g>
     <g id="line2d_16">
      <g>
       <use xlink:href="#macce1a5b8e" x="263.318182" y="384.48" style="fill: #ffffff; stroke: #ffffff; stroke-width: 0.8"/>
      </g>
     </g>
     <g id="text_8">
      <!-- 78928 -->
      <g style="fill: #ffffff" transform="translate(254.021937 419.347741) rotate(-45) scale(0.1 -0.1)">
       <use xlink:href="#DejaVuSans-37"/>
       <use xlink:href="#DejaVuSans-38" x="63.623047"/>
       <use xlink:href="#DejaVuSans-39" x="127.246094"/>
       <use xlink:href="#DejaVuSans-32" x="190.869141"/>
       <use xlink:href="#DejaVuSans-38" x="254.492188"/>
      </g>
     </g>
    </g>
    <g id="xtick_9">
     <g id="line2d_17">
      <path d="M 284.454545 384.48 
L 284.454545 51.84 
" clip-path="url(#pf72a57a339)" style="fill: none; stroke: #ffffff; stroke-width: 0.8; stroke-linecap: square"/>
     </g>
     <g id="line2d_18">
      <g>
       <use xlink:href="#macce1a5b8e" x="284.454545" y="384.48" style="fill: #ffffff; stroke: #ffffff; stroke-width: 0.8"/>
      </g>
     </g>
     <g id="text_9">
      <!-- 83859 -->
      <g style="fill: #ffffff" transform="translate(275.158301 419.347741) rotate(-45) scale(0.1 -0.1)">
       <use xlink:href="#DejaVuSans-38"/>
       <use xlink:href="#DejaVuSans-33" x="63.623047"/>
       <use xlink:href="#DejaVuSans-38" x="127.246094"/>
       <use xlink:href="#DejaVuSans-35" x="190.869141"/>
       <use xlink:href="#DejaVuSans-39" x="254.492188"/>
      </g>
     </g>
    </g>
    <g id="xtick_10">
     <g id="line2d_19">
      <path d="M 305.590909 384.48 
L 305.590909 51.84 
" clip-path="url(#pf72a57a339)" style="fill: none; stroke: #ffffff; stroke-width: 0.8; stroke-linecap: square"/>
     </g>
     <g id="line2d_20">
      <g>
       <use xlink:href="#macce1a5b8e" x="305.590909" y="384.48" style="fill: #ffffff; stroke: #ffffff; stroke-width: 0.8"/>
      </g>
     </g>
     <g id="text_10">
      <!-- 89448 -->
      <g style="fill: #ffffff" transform="translate(296.294665 419.347741) rotate(-45) scale(0.1 -0.1)">
       <use xlink:href="#DejaVuSans-38"/>
       <use xlink:href="#DejaVuSans-39" x="63.623047"/>
       <use xlink:href="#DejaVuSans-34" x="127.246094"/>
       <use xlink:href="#DejaVuSans-34" x="190.869141"/>
       <use xlink:href="#DejaVuSans-38" x="254.492188"/>
      </g>
     </g>
    </g>
    <g id="xtick_11">
     <g id="line2d_21">
      <path d="M 326.727273 384.48 
L 326.727273 51.84 
" clip-path="url(#pf72a57a339)" style="fill: none; stroke: #ffffff; stroke-width: 0.8; stroke-linecap: square"/>
     </g>
     <g id="line2d_22">
      <g>
       <use xlink:href="#macce1a5b8e" x="326.727273" y="384.48" style="fill: #ffffff; stroke: #ffffff; stroke-width: 0.8"/>
      </g>
     </g>
     <g id="text_11">
      <!-- 95835 -->
      <g style="fill: #ffffff" transform="translate(317.431028 419.347741) rotate(-45) scale(0.1 -0.1)">
       <use xlink:href="#DejaVuSans-39"/>
       <use xlink:href="#DejaVuSans-35" x="63.623047"/>
       <use xlink:href="#DejaVuSans-38" x="127.246094"/>
       <use xlink:href="#DejaVuSans-33" x="190.869141"/>
       <use xlink:href="#DejaVuSans-35" x="254.492188"/>
      </g>
     </g>
    </g>
    <g id="xtick_12">
     <g id="line2d_23">
      <path d="M 347.863636 384.48 
L 347.863636 51.84 
" clip-path="url(#pf72a57a339)" style="fill: none; stroke: #ffffff; stroke-width: 0.8; stroke-linecap: square"/>
     </g>
     <g id="line2d_24">
      <g>
       <use xlink:href="#macce1a5b8e" x="347.863636" y="384.48" style="fill: #ffffff; stroke: #ffffff; stroke-width: 0.8"/>
      </g>
     </g>
     <g id="text_12">
      <!-- 103204 -->
      <g style="fill: #ffffff" transform="translate(336.317908 423.846708) rotate(-45) scale(0.1 -0.1)">
       <use xlink:href="#DejaVuSans-31"/>
       <use xlink:href="#DejaVuSans-30" x="63.623047"/>
       <use xlink:href="#DejaVuSans-33" x="127.246094"/>
       <use xlink:href="#DejaVuSans-32" x="190.869141"/>
       <use xlink:href="#DejaVuSans-30" x="254.492188"/>
       <use xlink:href="#DejaVuSans-34" x="318.115234"/>
      </g>
     </g>
    </g>
    <g id="xtick_13">
     <g id="line2d_25">
      <path d="M 369 384.48 
L 369 51.84 
" clip-path="url(#pf72a57a339)" style="fill: none; stroke: #ffffff; stroke-width: 0.8; stroke-linecap: square"/>
     </g>
     <g id="line2d_26">
      <g>
       <use xlink:href="#macce1a5b8e" x="369" y="384.48" style="fill: #ffffff; stroke: #ffffff; stroke-width: 0.8"/>
      </g>
     </g>
     <g id="text_13">
      <!-- 111801 -->
      <g style="fill: #ffffff" transform="translate(357.454272 423.846708) rotate(-45) scale(0.1 -0.1)">
       <use xlink:href="#DejaVuSans-31"/>
       <use xlink:href="#DejaVuSans-31" x="63.623047"/>
       <use xlink:href="#DejaVuSans-31" x="127.246094"/>
       <use xlink:href="#DejaVuSans-38" x="190.869141"/>
       <use xlink:href="#DejaVuSans-30" x="254.492188"/>
       <use xlink:href="#DejaVuSans-31" x="318.115234"/>
      </g>
     </g>
    </g>
    <g id="xtick_14">
     <g id="line2d_27">
      <path d="M 390.136364 384.48 
L 390.136364 51.84 
" clip-path="url(#pf72a57a339)" style="fill: none; stroke: #ffffff; stroke-width: 0.8; stroke-linecap: square"/>
     </g>
     <g id="line2d_28">
      <g>
       <use xlink:href="#macce1a5b8e" x="390.136364" y="384.48" style="fill: #ffffff; stroke: #ffffff; stroke-width: 0.8"/>
      </g>
     </g>
     <g id="text_14">
      <!-- 121960 -->
      <g style="fill: #ffffff" transform="translate(378.590636 423.846708) rotate(-45) scale(0.1 -0.1)">
       <use xlink:href="#DejaVuSans-31"/>
       <use xlink:href="#DejaVuSans-32" x="63.623047"/>
       <use xlink:href="#DejaVuSans-31" x="127.246094"/>
       <use xlink:href="#DejaVuSans-39" x="190.869141"/>
       <use xlink:href="#DejaVuSans-36" x="254.492188"/>
       <use xlink:href="#DejaVuSans-30" x="318.115234"/>
      </g>
     </g>
    </g>
    <g id="xtick_15">
     <g id="line2d_29">
      <path d="M 411.272727 384.48 
L 411.272727 51.84 
" clip-path="url(#pf72a57a339)" style="fill: none; stroke: #ffffff; stroke-width: 0.8; stroke-linecap: square"/>
     </g>
     <g id="line2d_30">
      <g>
       <use xlink:href="#macce1a5b8e" x="411.272727" y="384.48" style="fill: #ffffff; stroke: #ffffff; stroke-width: 0.8"/>
      </g>
     </g>
     <g id="text_15">
      <!-- 134150 -->
      <g style="fill: #ffffff" transform="translate(399.726999 423.846708) rotate(-45) scale(0.1 -0.1)">
       <use xlink:href="#DejaVuSans-31"/>
       <use xlink:href="#DejaVuSans-33" x="63.623047"/>
       <use xlink:href="#DejaVuSans-34" x="127.246094"/>
       <use xlink:href="#DejaVuSans-31" x="190.869141"/>
       <use xlink:href="#DejaVuSans-35" x="254.492188"/>
       <use xlink:href="#DejaVuSans-30" x="318.115234"/>
      </g>
     </g>
    </g>
    <g id="xtick_16">
     <g id="line2d_31">
      <path d="M 432.409091 384.48 
L 432.409091 51.84 
" clip-path="url(#pf72a57a339)" style="fill: none; stroke: #ffffff; stroke-width: 0.8; stroke-linecap: square"/>
     </g>
     <g id="line2d_32">
      <g>
       <use xlink:href="#macce1a5b8e" x="432.409091" y="384.48" style="fill: #ffffff; stroke: #ffffff; stroke-width: 0.8"/>
      </g>
     </g>
     <g id="text_16">
      <!-- 149048 -->
      <g style="fill: #ffffff" transform="translate(420.863363 423.846708) rotate(-45) scale(0.1 -0.1)">
       <use xlink:href="#DejaVuSans-31"/>
       <use xlink:href="#DejaVuSans-34" x="63.623047"/>
       <use xlink:href="#DejaVuSans-39" x="127.246094"/>
       <use xlink:href="#DejaVuSans-30" x="190.869141"/>
       <use xlink:href="#DejaVuSans-34" x="254.492188"/>
       <use xlink:href="#DejaVuSans-38" x="318.115234"/>
      </g>
     </g>
    </g>
    <g id="xtick_17">
     <g id="line2d_33">
      <path d="M 453.545455 384.48 
L 453.545455 51.84 
" clip-path="url(#pf72a57a339)" style="fill: none; stroke: #ffffff; stroke-width: 0.8; stroke-linecap: square"/>
     </g>
     <g id="line2d_34">
      <g>
       <use xlink:href="#macce1a5b8e" x="453.545455" y="384.48" style="fill: #ffffff; stroke: #ffffff; stroke-width: 0.8"/>
      </g>
     </g>
     <g id="text_17">
      <!-- 167667 -->
      <g style="fill: #ffffff" transform="translate(441.999727 423.846708) rotate(-45) scale(0.1 -0.1)">
       <use xlink:href="#DejaVuSans-31"/>
       <use xlink:href="#DejaVuSans-36" x="63.623047"/>
       <use xlink:href="#DejaVuSans-37" x="127.246094"/>
       <use xlink:href="#DejaVuSans-36" x="190.869141"/>
       <use xlink:href="#DejaVuSans-36" x="254.492188"/>
       <use xlink:href="#DejaVuSans-37" x="318.115234"/>
      </g>
     </g>
    </g>
    <g id="xtick_18">
     <g id="line2d_35">
      <path d="M 474.681818 384.48 
L 474.681818 51.84 
" clip-path="url(#pf72a57a339)" style="fill: none; stroke: #ffffff; stroke-width: 0.8; stroke-linecap: square"/>
     </g>
     <g id="line2d_36">
      <g>
       <use xlink:href="#macce1a5b8e" x="474.681818" y="384.48" style="fill: #ffffff; stroke: #ffffff; stroke-width: 0.8"/>
      </g>
     </g>
     <g id="text_18">
      <!-- 191602 -->
      <g style="fill: #ffffff" transform="translate(463.13609 423.846708) rotate(-45) scale(0.1 -0.1)">
       <use xlink:href="#DejaVuSans-31"/>
       <use xlink:href="#DejaVuSans-39" x="63.623047"/>
       <use xlink:href="#DejaVuSans-31" x="127.246094"/>
       <use xlink:href="#DejaVuSans-36" x="190.869141"/>
       <use xlink:href="#DejaVuSans-30" x="254.492188"/>
       <use xlink:href="#DejaVuSans-32" x="318.115234"/>
      </g>
     </g>
    </g>
    <g id="xtick_19">
     <g id="line2d_37">
      <path d="M 495.818182 384.48 
L 495.818182 51.84 
" clip-path="url(#pf72a57a339)" style="fill: none; stroke: #ffffff; stroke-width: 0.8; stroke-linecap: square"/>
     </g>
     <g id="line2d_38">
      <g>
       <use xlink:href="#macce1a5b8e" x="495.818182" y="384.48" style="fill: #ffffff; stroke: #ffffff; stroke-width: 0.8"/>
      </g>
     </g>
     <g id="text_19">
      <!-- 223509 -->
      <g style="fill: #ffffff" transform="translate(484.272454 423.846708) rotate(-45) scale(0.1 -0.1)">
       <use xlink:href="#DejaVuSans-32"/>
       <use xlink:href="#DejaVuSans-32" x="63.623047"/>
       <use xlink:href="#DejaVuSans-33" x="127.246094"/>
       <use xlink:href="#DejaVuSans-35" x="190.869141"/>
       <use xlink:href="#DejaVuSans-30" x="254.492188"/>
       <use xlink:href="#DejaVuSans-39" x="318.115234"/>
      </g>
     </g>
    </g>
    <g id="xtick_20">
     <g id="line2d_39">
      <path d="M 516.954545 384.48 
L 516.954545 51.84 
" clip-path="url(#pf72a57a339)" style="fill: none; stroke: #ffffff; stroke-width: 0.8; stroke-linecap: square"/>
     </g>
     <g id="line2d_40">
      <g>
       <use xlink:href="#macce1a5b8e" x="516.954545" y="384.48" style="fill: #ffffff; stroke: #ffffff; stroke-width: 0.8"/>
      </g>
     </g>
     <g id="text_20">
      <!-- 268167 -->
      <g style="fill: #ffffff" transform="translate(505.408818 423.846708) rotate(-45) scale(0.1 -0.1)">
       <use xlink:href="#DejaVuSans-32"/>
       <use xlink:href="#DejaVuSans-36" x="63.623047"/>
       <use xlink:href="#DejaVuSans-38" x="127.246094"/>
       <use xlink:href="#DejaVuSans-31" x="190.869141"/>
       <use xlink:href="#DejaVuSans-36" x="254.492188"/>
       <use xlink:href="#DejaVuSans-37" x="318.115234"/>
      </g>
     </g>
    </g>
    <g id="xtick_21">
     <g id="line2d_41">
      <path d="M 538.090909 384.48 
L 538.090909 51.84 
" clip-path="url(#pf72a57a339)" style="fill: none; stroke: #ffffff; stroke-width: 0.8; stroke-linecap: square"/>
     </g>
     <g id="line2d_42">
      <g>
       <use xlink:href="#macce1a5b8e" x="538.090909" y="384.48" style="fill: #ffffff; stroke: #ffffff; stroke-width: 0.8"/>
      </g>
     </g>
     <g id="text_21">
      <!-- 335125 -->
      <g style="fill: #ffffff" transform="translate(526.545181 423.846708) rotate(-45) scale(0.1 -0.1)">
       <use xlink:href="#DejaVuSans-33"/>
       <use xlink:href="#DejaVuSans-33" x="63.623047"/>
       <use xlink:href="#DejaVuSans-35" x="127.246094"/>
       <use xlink:href="#DejaVuSans-31" x="190.869141"/>
       <use xlink:href="#DejaVuSans-32" x="254.492188"/>
       <use xlink:href="#DejaVuSans-35" x="318.115234"/>
      </g>
     </g>
    </g>
    <g id="xtick_22">
     <g id="line2d_43">
      <path d="M 559.227273 384.48 
L 559.227273 51.84 
" clip-path="url(#pf72a57a339)" style="fill: none; stroke: #ffffff; stroke-width: 0.8; stroke-linecap: square"/>
     </g>
     <g id="line2d_44">
      <g>
       <use xlink:href="#macce1a5b8e" x="559.227273" y="384.48" style="fill: #ffffff; stroke: #ffffff; stroke-width: 0.8"/>
      </g>
     </g>
     <g id="text_22">
      <!-- 446648 -->
      <g style="fill: #ffffff" transform="translate(547.681545 423.846708) rotate(-45) scale(0.1 -0.1)">
       <use xlink:href="#DejaVuSans-34"/>
       <use xlink:href="#DejaVuSans-34" x="63.623047"/>
       <use xlink:href="#DejaVuSans-36" x="127.246094"/>
       <use xlink:href="#DejaVuSans-36" x="190.869141"/>
       <use xlink:href="#DejaVuSans-34" x="254.492188"/>
       <use xlink:href="#DejaVuSans-38" x="318.115234"/>
      </g>
     </g>
    </g>
    <g id="xtick_23">
     <g id="line2d_45">
      <path d="M 580.363636 384.48 
L 580.363636 51.84 
" clip-path="url(#pf72a57a339)" style="fill: none; stroke: #ffffff; stroke-width: 0.8; stroke-linecap: square"/>
     </g>
     <g id="line2d_46">
      <g>
       <use xlink:href="#macce1a5b8e" x="580.363636" y="384.48" style="fill: #ffffff; stroke: #ffffff; stroke-width: 0.8"/>
      </g>
     </g>
     <g id="text_23">
      <!-- 669415 -->
      <g style="fill: #ffffff" transform="translate(568.817908 423.846708) rotate(-45) scale(0.1 -0.1)">
       <use xlink:href="#DejaVuSans-36"/>
       <use xlink:href="#DejaVuSans-36" x="63.623047"/>
       <use xlink:href="#DejaVuSans-39" x="127.246094"/>
       <use xlink:href="#DejaVuSans-34" x="190.869141"/>
       <use xlink:href="#DejaVuSans-31" x="254.492188"/>
       <use xlink:href="#DejaVuSans-35" x="318.115234"/>
      </g>
     </g>
    </g>
    <g id="xtick_24">
     <g id="line2d_47">
      <path d="M 601.5 384.48 
L 601.5 51.84 
" clip-path="url(#pf72a57a339)" style="fill: none; stroke: #ffffff; stroke-width: 0.8; stroke-linecap: square"/>
     </g>
     <g id="line2d_48">
      <g>
       <use xlink:href="#macce1a5b8e" x="601.5" y="384.48" style="fill: #ffffff; stroke: #ffffff; stroke-width: 0.8"/>
      </g>
     </g>
     <g id="text_24">
      <!-- 1335499 -->
      <g style="fill: #ffffff" transform="translate(587.704789 428.345675) rotate(-45) scale(0.1 -0.1)">
       <use xlink:href="#DejaVuSans-31"/>
       <use xlink:href="#DejaVuSans-33" x="63.623047"/>
       <use xlink:href="#DejaVuSans-33" x="127.246094"/>
       <use xlink:href="#DejaVuSans-35" x="190.869141"/>
       <use xlink:href="#DejaVuSans-34" x="254.492188"/>
       <use xlink:href="#DejaVuSans-39" x="318.115234"/>
       <use xlink:href="#DejaVuSans-39" x="381.738281"/>
      </g>
     </g>
    </g>
    <g id="xtick_25">
     <g id="line2d_49">
      <path d="M 622.636364 384.48 
L 622.636364 51.84 
" clip-path="url(#pf72a57a339)" style="fill: none; stroke: #ffffff; stroke-width: 0.8; stroke-linecap: square"/>
     </g>
     <g id="line2d_50">
      <g>
       <use xlink:href="#macce1a5b8e" x="622.636364" y="384.48" style="fill: #ffffff; stroke: #ffffff; stroke-width: 0.8"/>
      </g>
     </g>
     <g id="text_25">
      <!-- 268435456 -->
      <g style="fill: #ffffff" transform="translate(604.342185 437.343609) rotate(-45) scale(0.1 -0.1)">
       <use xlink:href="#DejaVuSans-32"/>
       <use xlink:href="#DejaVuSans-36" x="63.623047"/>
       <use xlink:href="#DejaVuSans-38" x="127.246094"/>
       <use xlink:href="#DejaVuSans-34" x="190.869141"/>
       <use xlink:href="#DejaVuSans-33" x="254.492188"/>
       <use xlink:href="#DejaVuSans-35" x="318.115234"/>
       <use xlink:href="#DejaVuSans-34" x="381.738281"/>
       <use xlink:href="#DejaVuSans-35" x="445.361328"/>
       <use xlink:href="#DejaVuSans-36" x="508.984375"/>
      </g>
     </g>
    </g>
    <g id="text_26">
     <!-- chunk_size -->
     <g style="fill: #ffffff" transform="translate(341.654688 450.412607) scale(0.1 -0.1)">
      <defs>
       <path id="DejaVuSans-63" d="M 3122 3366 
L 3122 2828 
Q 2878 2963 2633 3030 
Q 2388 3097 2138 3097 
Q 1578 3097 1268 2742 
Q 959 2388 959 1747 
Q 959 1106 1268 751 
Q 1578 397 2138 397 
Q 2388 397 2633 464 
Q 2878 531 3122 666 
L 3122 134 
Q 2881 22 2623 -34 
Q 2366 -91 2075 -91 
Q 1284 -91 818 406 
Q 353 903 353 1747 
Q 353 2603 823 3093 
Q 1294 3584 2113 3584 
Q 2378 3584 2631 3529 
Q 2884 3475 3122 3366 
z
" transform="scale(0.015625)"/>
       <path id="DejaVuSans-68" d="M 3513 2113 
L 3513 0 
L 2938 0 
L 2938 2094 
Q 2938 2591 2744 2837 
Q 2550 3084 2163 3084 
Q 1697 3084 1428 2787 
Q 1159 2491 1159 1978 
L 1159 0 
L 581 0 
L 581 4863 
L 1159 4863 
L 1159 2956 
Q 1366 3272 1645 3428 
Q 1925 3584 2291 3584 
Q 2894 3584 3203 3211 
Q 3513 2838 3513 2113 
z
" transform="scale(0.015625)"/>
       <path id="DejaVuSans-75" d="M 544 1381 
L 544 3500 
L 1119 3500 
L 1119 1403 
Q 1119 906 1312 657 
Q 1506 409 1894 409 
Q 2359 409 2629 706 
Q 2900 1003 2900 1516 
L 2900 3500 
L 3475 3500 
L 3475 0 
L 2900 0 
L 2900 538 
Q 2691 219 2414 64 
Q 2138 -91 1772 -91 
Q 1169 -91 856 284 
Q 544 659 544 1381 
z
M 1991 3584 
L 1991 3584 
z
" transform="scale(0.015625)"/>
       <path id="DejaVuSans-6e" d="M 3513 2113 
L 3513 0 
L 2938 0 
L 2938 2094 
Q 2938 2591 2744 2837 
Q 2550 3084 2163 3084 
Q 1697 3084 1428 2787 
Q 1159 2491 1159 1978 
L 1159 0 
L 581 0 
L 581 3500 
L 1159 3500 
L 1159 2956 
Q 1366 3272 1645 3428 
Q 1925 3584 2291 3584 
Q 2894 3584 3203 3211 
Q 3513 2838 3513 2113 
z
" transform="scale(0.015625)"/>
       <path id="DejaVuSans-6b" d="M 581 4863 
L 1159 4863 
L 1159 1991 
L 2875 3500 
L 3609 3500 
L 1753 1863 
L 3688 0 
L 2938 0 
L 1159 1709 
L 1159 0 
L 581 0 
L 581 4863 
z
" transform="scale(0.015625)"/>
       <path id="DejaVuSans-5f" d="M 3263 -1063 
L 3263 -1509 
L -63 -1509 
L -63 -1063 
L 3263 -1063 
z
" transform="scale(0.015625)"/>
       <path id="DejaVuSans-73" d="M 2834 3397 
L 2834 2853 
Q 2591 2978 2328 3040 
Q 2066 3103 1784 3103 
Q 1356 3103 1142 2972 
Q 928 2841 928 2578 
Q 928 2378 1081 2264 
Q 1234 2150 1697 2047 
L 1894 2003 
Q 2506 1872 2764 1633 
Q 3022 1394 3022 966 
Q 3022 478 2636 193 
Q 2250 -91 1575 -91 
Q 1294 -91 989 -36 
Q 684 19 347 128 
L 347 722 
Q 666 556 975 473 
Q 1284 391 1588 391 
Q 1994 391 2212 530 
Q 2431 669 2431 922 
Q 2431 1156 2273 1281 
Q 2116 1406 1581 1522 
L 1381 1569 
Q 847 1681 609 1914 
Q 372 2147 372 2553 
Q 372 3047 722 3315 
Q 1072 3584 1716 3584 
Q 2034 3584 2315 3537 
Q 2597 3491 2834 3397 
z
" transform="scale(0.015625)"/>
       <path id="DejaVuSans-69" d="M 603 3500 
L 1178 3500 
L 1178 0 
L 603 0 
L 603 3500 
z
M 603 4863 
L 1178 4863 
L 1178 4134 
L 603 4134 
L 603 4863 
z
" transform="scale(0.015625)"/>
       <path id="DejaVuSans-7a" d="M 353 3500 
L 3084 3500 
L 3084 2975 
L 922 459 
L 3084 459 
L 3084 0 
L 275 0 
L 275 525 
L 2438 3041 
L 353 3041 
L 353 3500 
z
" transform="scale(0.015625)"/>
       <path id="DejaVuSans-65" d="M 3597 1894 
L 3597 1613 
L 953 1613 
Q 991 1019 1311 708 
Q 1631 397 2203 397 
Q 2534 397 2845 478 
Q 3156 559 3463 722 
L 3463 178 
Q 3153 47 2828 -22 
Q 2503 -91 2169 -91 
Q 1331 -91 842 396 
Q 353 884 353 1716 
Q 353 2575 817 3079 
Q 1281 3584 2069 3584 
Q 2775 3584 3186 3129 
Q 3597 2675 3597 1894 
z
M 3022 2063 
Q 3016 2534 2758 2815 
Q 2500 3097 2075 3097 
Q 1594 3097 1305 2825 
Q 1016 2553 972 2059 
L 3022 2063 
z
" transform="scale(0.015625)"/>
      </defs>
      <use xlink:href="#DejaVuSans-63"/>
      <use xlink:href="#DejaVuSans-68" x="54.980469"/>
      <use xlink:href="#DejaVuSans-75" x="118.359375"/>
      <use xlink:href="#DejaVuSans-6e" x="181.738281"/>
      <use xlink:href="#DejaVuSans-6b" x="245.117188"/>
      <use xlink:href="#DejaVuSans-5f" x="303.027344"/>
      <use xlink:href="#DejaVuSans-73" x="353.027344"/>
      <use xlink:href="#DejaVuSans-69" x="405.126953"/>
      <use xlink:href="#DejaVuSans-7a" x="432.910156"/>
      <use xlink:href="#DejaVuSans-65" x="485.400391"/>
     </g>
    </g>
   </g>
   <g id="matplotlib.axis_2">
    <g id="ytick_1">
     <g id="line2d_51">
      <path d="M 90 337.352934 
L 648 337.352934 
" clip-path="url(#pf72a57a339)" style="fill: none; stroke: #ffffff; stroke-width: 0.8; stroke-linecap: square"/>
     </g>
     <g id="line2d_52">
      <defs>
       <path id="me827e0762e" d="M 0 0 
L -3.5 0 
" style="stroke: #ffffff; stroke-width: 0.8"/>
      </defs>
      <g>
       <use xlink:href="#me827e0762e" x="90" y="337.352934" style="fill: #ffffff; stroke: #ffffff; stroke-width: 0.8"/>
      </g>
     </g>
     <g id="text_27">
      <!-- 200 -->
      <g style="fill: #ffffff" transform="translate(63.9125 341.152153) scale(0.1 -0.1)">
       <use xlink:href="#DejaVuSans-32"/>
       <use xlink:href="#DejaVuSans-30" x="63.623047"/>
       <use xlink:href="#DejaVuSans-30" x="127.246094"/>
      </g>
     </g>
    </g>
    <g id="ytick_2">
     <g id="line2d_53">
      <path d="M 90 264.751032 
L 648 264.751032 
" clip-path="url(#pf72a57a339)" style="fill: none; stroke: #ffffff; stroke-width: 0.8; stroke-linecap: square"/>
     </g>
     <g id="line2d_54">
      <g>
       <use xlink:href="#me827e0762e" x="90" y="264.751032" style="fill: #ffffff; stroke: #ffffff; stroke-width: 0.8"/>
      </g>
     </g>
     <g id="text_28">
      <!-- 400 -->
      <g style="fill: #ffffff" transform="translate(63.9125 268.55025) scale(0.1 -0.1)">
       <use xlink:href="#DejaVuSans-34"/>
       <use xlink:href="#DejaVuSans-30" x="63.623047"/>
       <use xlink:href="#DejaVuSans-30" x="127.246094"/>
      </g>
     </g>
    </g>
    <g id="ytick_3">
     <g id="line2d_55">
      <path d="M 90 192.149129 
L 648 192.149129 
" clip-path="url(#pf72a57a339)" style="fill: none; stroke: #ffffff; stroke-width: 0.8; stroke-linecap: square"/>
     </g>
     <g id="line2d_56">
      <g>
       <use xlink:href="#me827e0762e" x="90" y="192.149129" style="fill: #ffffff; stroke: #ffffff; stroke-width: 0.8"/>
      </g>
     </g>
     <g id="text_29">
      <!-- 600 -->
      <g style="fill: #ffffff" transform="translate(63.9125 195.948348) scale(0.1 -0.1)">
       <use xlink:href="#DejaVuSans-36"/>
       <use xlink:href="#DejaVuSans-30" x="63.623047"/>
       <use xlink:href="#DejaVuSans-30" x="127.246094"/>
      </g>
     </g>
    </g>
    <g id="ytick_4">
     <g id="line2d_57">
      <path d="M 90 119.547226 
L 648 119.547226 
" clip-path="url(#pf72a57a339)" style="fill: none; stroke: #ffffff; stroke-width: 0.8; stroke-linecap: square"/>
     </g>
     <g id="line2d_58">
      <g>
       <use xlink:href="#me827e0762e" x="90" y="119.547226" style="fill: #ffffff; stroke: #ffffff; stroke-width: 0.8"/>
      </g>
     </g>
     <g id="text_30">
      <!-- 800 -->
      <g style="fill: #ffffff" transform="translate(63.9125 123.346445) scale(0.1 -0.1)">
       <use xlink:href="#DejaVuSans-38"/>
       <use xlink:href="#DejaVuSans-30" x="63.623047"/>
       <use xlink:href="#DejaVuSans-30" x="127.246094"/>
      </g>
     </g>
    </g>
    <g id="text_31">
     <!-- time (ms) -->
     <g style="fill: #ffffff" transform="translate(57.832812 242.421719) rotate(-90) scale(0.1 -0.1)">
      <defs>
       <path id="DejaVuSans-74" d="M 1172 4494 
L 1172 3500 
L 2356 3500 
L 2356 3053 
L 1172 3053 
L 1172 1153 
Q 1172 725 1289 603 
Q 1406 481 1766 481 
L 2356 481 
L 2356 0 
L 1766 0 
Q 1100 0 847 248 
Q 594 497 594 1153 
L 594 3053 
L 172 3053 
L 172 3500 
L 594 3500 
L 594 4494 
L 1172 4494 
z
" transform="scale(0.015625)"/>
       <path id="DejaVuSans-6d" d="M 3328 2828 
Q 3544 3216 3844 3400 
Q 4144 3584 4550 3584 
Q 5097 3584 5394 3201 
Q 5691 2819 5691 2113 
L 5691 0 
L 5113 0 
L 5113 2094 
Q 5113 2597 4934 2840 
Q 4756 3084 4391 3084 
Q 3944 3084 3684 2787 
Q 3425 2491 3425 1978 
L 3425 0 
L 2847 0 
L 2847 2094 
Q 2847 2600 2669 2842 
Q 2491 3084 2119 3084 
Q 1678 3084 1418 2786 
Q 1159 2488 1159 1978 
L 1159 0 
L 581 0 
L 581 3500 
L 1159 3500 
L 1159 2956 
Q 1356 3278 1631 3431 
Q 1906 3584 2284 3584 
Q 2666 3584 2933 3390 
Q 3200 3197 3328 2828 
z
" transform="scale(0.015625)"/>
       <path id="DejaVuSans-20" transform="scale(0.015625)"/>
       <path id="DejaVuSans-28" d="M 1984 4856 
Q 1566 4138 1362 3434 
Q 1159 2731 1159 2009 
Q 1159 1288 1364 580 
Q 1569 -128 1984 -844 
L 1484 -844 
Q 1016 -109 783 600 
Q 550 1309 550 2009 
Q 550 2706 781 3412 
Q 1013 4119 1484 4856 
L 1984 4856 
z
" transform="scale(0.015625)"/>
       <path id="DejaVuSans-29" d="M 513 4856 
L 1013 4856 
Q 1481 4119 1714 3412 
Q 1947 2706 1947 2009 
Q 1947 1309 1714 600 
Q 1481 -109 1013 -844 
L 513 -844 
Q 928 -128 1133 580 
Q 1338 1288 1338 2009 
Q 1338 2731 1133 3434 
Q 928 4138 513 4856 
z
" transform="scale(0.015625)"/>
      </defs>
      <use xlink:href="#DejaVuSans-74"/>
      <use xlink:href="#DejaVuSans-69" x="39.208984"/>
      <use xlink:href="#DejaVuSans-6d" x="66.992188"/>
      <use xlink:href="#DejaVuSans-65" x="164.404297"/>
      <use xlink:href="#DejaVuSans-20" x="225.927734"/>
      <use xlink:href="#DejaVuSans-28" x="257.714844"/>
      <use xlink:href="#DejaVuSans-6d" x="296.728516"/>
      <use xlink:href="#DejaVuSans-73" x="394.140625"/>
      <use xlink:href="#DejaVuSans-29" x="446.240234"/>
     </g>
    </g>
   </g>
   <g id="line2d_59">
    <path d="M 115.363636 265.941834 
L 118.7511 268.286714 
L 122.138564 270.312685 
L 125.526028 272.047966 
L 128.913492 273.520776 
L 132.300956 274.759335 
L 135.68842 275.79186 
L 139.92275 276.835772 
L 144.15708 277.656965 
L 149.238276 278.426008 
L 157.706936 279.430088 
L 162.788132 280.073126 
L 166.175596 280.70595 
L 168.716194 281.370836 
L 171.256792 282.253601 
L 173.79739 283.403555 
L 176.337988 284.870011 
L 178.878586 286.702278 
L 181.419183 288.914522 
L 184.806647 292.260541 
L 191.581575 299.091156 
L 194.122173 301.28077 
L 195.815905 302.517653 
L 197.509637 303.52879 
L 199.203369 304.273501 
L 200.897101 304.713951 
L 202.590833 304.857786 
L 204.284565 304.749235 
L 205.978297 304.433563 
L 208.518895 303.670715 
L 211.906359 302.351122 
L 216.140689 300.72475 
L 218.681287 300.032842 
L 220.375019 299.784167 
L 222.068751 299.755689 
L 223.762483 299.950368 
L 225.456215 300.341008 
L 227.996813 301.233245 
L 230.537411 302.409153 
L 233.924875 304.255233 
L 240.699803 308.062612 
L 243.240401 309.243504 
L 245.780999 310.208895 
L 249.168463 311.247212 
L 255.096525 312.741806 
L 259.330854 313.88042 
L 262.718318 315.027327 
L 265.258916 316.101132 
L 268.64638 317.773642 
L 278.808772 323.044156 
L 281.34937 324.092868 
L 283.889968 324.909637 
L 286.430566 325.44272 
L 288.971164 325.723294 
L 292.358628 325.826876 
L 301.674154 325.818642 
L 304.214752 326.072963 
L 306.75535 326.569236 
L 309.295948 327.31859 
L 312.683412 328.618693 
L 316.917742 330.538566 
L 323.69267 333.672915 
L 327.080134 334.983477 
L 330.467598 335.99196 
L 333.855061 336.753307 
L 338.936257 337.608513 
L 347.404917 338.941638 
L 351.639247 339.870971 
L 356.720443 341.262437 
L 362.648505 343.14789 
L 382.973289 349.869778 
L 388.054485 351.247237 
L 393.135681 352.385523 
L 399.063743 353.465291 
L 412.613598 355.837872 
L 420.235392 357.528612 
L 428.704052 359.369297 
L 433.785248 360.243664 
L 439.71331 360.988205 
L 450.722568 362.299095 
L 454.956898 363.034027 
L 460.88496 364.334793 
L 467.659888 365.81293 
L 471.894218 366.505668 
L 475.281682 366.825364 
L 478.669146 366.903976 
L 482.903475 366.767472 
L 493.912733 366.279343 
L 497.300197 366.40446 
L 501.534527 366.841846 
L 506.615723 367.621658 
L 515.931249 369.087735 
L 520.165579 369.495254 
L 534.562301 370.570689 
L 537.949765 371.150071 
L 541.337229 371.966414 
L 550.652755 374.404556 
L 553.193353 374.81861 
L 555.733951 375.003679 
L 558.274548 374.895463 
L 559.96828 374.62965 
L 562.508878 373.977428 
L 569.283806 372.022065 
L 570.977538 371.77734 
L 572.67127 371.738532 
L 574.365002 371.959774 
L 576.058734 372.495203 
L 577.752466 373.398952 
L 579.446198 374.725158 
L 581.13993 376.52401 
L 582.833662 378.734454 
L 588.761724 386.997427 
L 590.455456 388.718361 
L 591.302322 389.352429 
L 592.149188 389.803634 
L 592.996054 390.048026 
L 593.84292 390.061654 
L 594.689786 389.820572 
L 595.536652 389.300829 
L 596.383518 388.478476 
L 597.230384 387.329564 
L 598.07725 385.830145 
L 598.924116 383.956268 
L 599.770982 381.683985 
L 600.617848 378.989347 
L 601.464714 375.848405 
L 602.31158 372.237209 
L 604.005312 363.50826 
L 605.699044 352.610908 
L 607.392776 339.35356 
L 609.086508 323.544624 
L 610.78024 304.992506 
L 612.473972 283.505613 
L 614.167704 258.892353 
L 615.861436 230.961132 
L 617.555168 199.520359 
L 619.2489 164.37844 
L 620.942632 125.343782 
L 622.636364 82.224792 
L 622.636364 82.224792 
" clip-path="url(#pf72a57a339)" style="fill: none; stroke: #8dd3c7; stroke-width: 1.5; stroke-linecap: square"/>
   </g>
   <g id="line2d_60">
    <path d="M 115.363636 266.899668 
L 117.057368 271.079874 
L 118.7511 274.500825 
L 120.444832 277.216063 
L 122.138564 279.279129 
L 123.832296 280.743563 
L 125.526028 281.662906 
L 127.21976 282.090699 
L 128.913492 282.080482 
L 130.607224 281.685797 
L 132.300956 280.960184 
L 133.994688 279.957183 
L 135.68842 278.730336 
L 138.229018 276.587473 
L 146.697678 268.997228 
L 148.39141 267.798143 
L 150.085142 266.830308 
L 151.778874 266.147263 
L 153.472606 265.80255 
L 155.166338 265.849708 
L 156.013204 266.036971 
L 156.86007 266.34228 
L 157.706936 266.772325 
L 159.400668 268.008098 
L 161.0944 269.683192 
L 162.788132 271.7168 
L 165.32873 275.262666 
L 169.56306 281.82027 
L 172.950524 286.922148 
L 174.644256 289.202803 
L 176.337988 291.195528 
L 178.03172 292.819517 
L 179.725452 293.998243 
L 181.419183 294.729757 
L 183.112915 295.075459 
L 184.806647 295.098759 
L 186.500379 294.863071 
L 188.194111 294.431807 
L 190.734709 293.556917 
L 194.969039 292.019221 
L 196.662771 291.561252 
L 198.356503 291.288179 
L 200.050235 291.263402 
L 201.743967 291.528414 
L 203.437699 292.056337 
L 205.131431 292.806994 
L 207.672029 294.262722 
L 210.212627 295.993613 
L 218.681287 302.009571 
L 221.221885 303.365979 
L 222.915617 304.044766 
L 225.456215 304.761648 
L 227.996813 305.197792 
L 231.384277 305.499764 
L 238.159205 305.953443 
L 240.699803 306.349738 
L 243.240401 307.008779 
L 245.780999 307.946919 
L 249.168463 309.503378 
L 259.330854 314.479348 
L 261.871452 315.3759 
L 264.41205 315.976801 
L 266.952648 316.277265 
L 269.493246 316.359357 
L 274.574442 316.217201 
L 277.961906 316.175394 
L 280.502504 316.318783 
L 283.043102 316.708834 
L 284.736834 317.148923 
L 287.277432 318.105029 
L 289.81803 319.351497 
L 293.205494 321.322111 
L 302.52102 327.043219 
L 305.061618 328.294236 
L 307.602216 329.268197 
L 310.142814 329.983629 
L 313.530278 330.6384 
L 317.764608 331.175425 
L 323.69267 331.897995 
L 327.080134 332.555374 
L 330.467598 333.517578 
L 333.855061 334.729141 
L 338.936257 336.833972 
L 347.404917 340.422719 
L 351.639247 341.941734 
L 355.873577 343.230919 
L 360.954773 344.539232 
L 367.729701 346.008994 
L 390.595083 350.675807 
L 399.063743 352.84331 
L 407.532402 354.955047 
L 412.613598 356.002254 
L 418.54166 356.964587 
L 430.397784 358.803687 
L 435.47898 359.877541 
L 442.253908 361.587541 
L 449.875702 363.488422 
L 454.110032 364.35541 
L 458.344362 365.011228 
L 463.425558 365.5754 
L 471.047352 366.160581 
L 485.444073 367.241676 
L 499.840795 368.296672 
L 516.778115 369.452518 
L 523.553043 370.150611 
L 530.327971 371.071572 
L 536.256033 372.08811 
L 548.112157 374.312709 
L 550.652755 374.547641 
L 553.193353 374.593686 
L 555.733951 374.404141 
L 558.274548 373.9323 
L 560.815146 373.141242 
L 565.049476 371.420969 
L 567.590074 370.461232 
L 569.283806 369.971149 
L 570.977538 369.667813 
L 572.67127 369.608615 
L 574.365002 369.850945 
L 576.058734 370.452193 
L 577.752466 371.46975 
L 579.446198 372.961004 
L 581.13993 374.97914 
L 582.833662 377.458642 
L 588.761724 386.868093 
L 590.455456 388.920638 
L 591.302322 389.712935 
L 592.149188 390.315115 
L 592.996054 390.701579 
L 593.84292 390.846727 
L 594.689786 390.72496 
L 595.536652 390.310679 
L 596.383518 389.578283 
L 597.230384 388.502174 
L 598.07725 387.056752 
L 598.924116 385.216417 
L 599.770982 382.95557 
L 600.617848 380.248612 
L 601.464714 377.069942 
L 602.31158 373.393962 
L 604.005312 364.447671 
L 605.699044 353.204944 
L 607.392776 339.460985 
L 609.086508 323.010996 
L 610.78024 303.650183 
L 612.473972 281.173749 
L 614.167704 255.376899 
L 615.861436 226.054836 
L 617.555168 193.002763 
L 619.2489 156.015886 
L 620.942632 114.889408 
L 622.636364 69.418533 
L 622.636364 69.418533 
" clip-path="url(#pf72a57a339)" style="fill: none; stroke: #feffb3; stroke-width: 1.5; stroke-linecap: square"/>
   </g>
   <g id="line2d_61">
    <path d="M 115.363636 265.419789 
L 117.057368 268.17945 
L 118.7511 270.442339 
L 120.444832 272.245888 
L 122.138564 273.627534 
L 123.832296 274.624708 
L 125.526028 275.274846 
L 127.21976 275.61538 
L 128.913492 275.683746 
L 130.607224 275.517377 
L 132.300956 275.153706 
L 134.841554 274.320147 
L 138.229018 272.867564 
L 144.15708 270.228026 
L 146.697678 269.386349 
L 148.39141 269.015333 
L 150.085142 268.840072 
L 151.778874 268.898 
L 153.472606 269.226551 
L 155.166338 269.863158 
L 156.86007 270.845256 
L 158.553802 272.207249 
L 160.247534 273.925815 
L 161.941266 275.925857 
L 164.481864 279.28539 
L 171.256792 288.519447 
L 172.950524 290.473802 
L 174.644256 292.132626 
L 176.337988 293.418983 
L 178.03172 294.255941 
L 178.878586 294.481859 
L 179.725452 294.571527 
L 180.572317 294.533908 
L 182.266049 294.122004 
L 183.959781 293.33654 
L 185.653513 292.267907 
L 188.194111 290.331748 
L 192.428441 286.969521 
L 194.122173 285.84092 
L 195.815905 284.9715 
L 197.509637 284.451652 
L 198.356503 284.351066 
L 199.203369 284.37177 
L 200.050235 284.525046 
L 200.897101 284.816597 
L 202.590833 285.780565 
L 204.284565 287.185461 
L 205.978297 288.95102 
L 208.518895 292.100014 
L 211.906359 296.811827 
L 215.293823 301.521475 
L 217.834421 304.666004 
L 219.528153 306.427232 
L 221.221885 307.82674 
L 222.915617 308.814491 
L 224.609349 309.429104 
L 226.303081 309.725383 
L 227.996813 309.758133 
L 229.690545 309.582157 
L 232.231143 309.046718 
L 239.006071 307.332389 
L 240.699803 307.135551 
L 242.393535 307.140991 
L 244.087267 307.383031 
L 245.780999 307.839485 
L 247.474731 308.478489 
L 250.015329 309.709574 
L 253.402793 311.692554 
L 261.024586 316.338701 
L 263.565184 317.561834 
L 266.105782 318.480717 
L 268.64638 319.138614 
L 272.033844 319.721036 
L 277.11504 320.272798 
L 281.34937 320.765209 
L 284.736834 321.394924 
L 287.277432 322.081204 
L 290.664896 323.238429 
L 294.899226 324.94327 
L 305.061618 329.167296 
L 308.449082 330.304412 
L 312.683412 331.471434 
L 317.764608 332.603721 
L 327.080134 334.356587 
L 334.701927 335.902708 
L 341.476855 337.493409 
L 347.404917 339.096564 
L 353.332979 340.921354 
L 360.954773 343.517682 
L 380.432691 350.344108 
L 384.667021 351.509521 
L 388.054485 352.250451 
L 391.441949 352.781698 
L 395.676279 353.175082 
L 409.226134 354.114024 
L 412.613598 354.686127 
L 416.001062 355.486938 
L 421.082258 356.966738 
L 430.397784 359.796224 
L 434.632114 360.800601 
L 438.866444 361.544165 
L 443.94764 362.195037 
L 465.11929 364.576737 
L 478.669146 366.26672 
L 489.678403 367.351729 
L 508.309455 368.917869 
L 517.624981 369.49787 
L 530.327971 370.206093 
L 535.409167 370.766494 
L 539.643497 371.476735 
L 550.652755 373.615094 
L 554.040219 373.923903 
L 556.580817 373.92328 
L 559.121414 373.670285 
L 561.662012 373.148732 
L 568.43694 371.528988 
L 570.130672 371.342914 
L 571.824404 371.344407 
L 573.518136 371.583479 
L 575.211868 372.11014 
L 576.9056 372.974403 
L 578.599332 374.226277 
L 580.293064 375.915776 
L 581.986796 378.057432 
L 584.527394 381.78347 
L 587.067992 385.550254 
L 588.761724 387.764344 
L 590.455456 389.516941 
L 591.302322 390.160229 
L 592.149188 390.616203 
L 592.996054 390.860883 
L 593.84292 390.870289 
L 594.689786 390.620441 
L 595.536652 390.087359 
L 596.383518 389.247062 
L 597.230384 388.07557 
L 598.07725 386.548903 
L 598.924116 384.643082 
L 599.770982 382.334125 
L 600.617848 379.598053 
L 601.464714 376.410886 
L 602.31158 372.748643 
L 604.005312 363.90301 
L 605.699044 352.869314 
L 607.392776 339.455712 
L 609.086508 323.470365 
L 610.78024 304.72143 
L 612.473972 283.017067 
L 614.167704 258.165434 
L 615.861436 229.974691 
L 617.555168 198.252996 
L 619.2489 162.808508 
L 620.942632 123.449386 
L 622.636364 79.983788 
L 622.636364 79.983788 
" clip-path="url(#pf72a57a339)" style="fill: none; stroke: #bfbbd9; stroke-width: 1.5; stroke-linecap: square"/>
   </g>
   <g id="line2d_62">
    <path d="M 115.363636 263.125907 
L 117.057368 260.873239 
L 118.7511 259.140957 
L 120.444832 257.896046 
L 122.138564 257.105494 
L 123.832296 256.736288 
L 125.526028 256.755414 
L 127.21976 257.12986 
L 128.913492 257.826612 
L 130.607224 258.812658 
L 132.300956 260.054983 
L 133.994688 261.520575 
L 136.535286 264.065373 
L 139.075884 266.926822 
L 143.310214 272.096953 
L 148.39141 278.327339 
L 150.932008 281.193284 
L 153.472606 283.744504 
L 155.166338 285.215448 
L 156.86007 286.463982 
L 158.553802 287.458859 
L 160.247534 288.202503 
L 161.941266 288.72754 
L 163.634998 289.067664 
L 166.175596 289.304848 
L 169.56306 289.288389 
L 175.491122 289.101391 
L 178.03172 289.254448 
L 180.572317 289.700822 
L 183.112915 290.434388 
L 185.653513 291.386158 
L 189.887843 293.267908 
L 196.662771 296.330522 
L 199.203369 297.268125 
L 201.743967 297.990224 
L 205.131431 298.650862 
L 209.365761 299.183079 
L 216.140689 299.988069 
L 219.528153 300.66074 
L 222.068751 301.394923 
L 224.609349 302.346399 
L 227.996813 303.881841 
L 232.231143 306.081712 
L 241.546669 311.052544 
L 244.934133 312.585625 
L 248.321597 313.892815 
L 251.709061 314.982691 
L 255.096525 315.863959 
L 258.483988 316.545322 
L 261.871452 317.035483 
L 266.105782 317.398037 
L 272.033844 317.61301 
L 278.808772 317.861713 
L 283.043102 318.247672 
L 286.430566 318.788491 
L 289.81803 319.551111 
L 294.05236 320.765684 
L 298.28669 322.207962 
L 304.214752 324.481934 
L 315.22401 329.009738 
L 330.467598 335.269708 
L 336.395659 337.466141 
L 340.629989 338.823137 
L 344.864319 339.932496 
L 348.251783 340.599577 
L 352.486113 341.153385 
L 360.107907 341.803113 
L 365.189103 342.371744 
L 368.576567 342.972935 
L 371.964031 343.831022 
L 375.351495 344.916879 
L 379.585825 346.497902 
L 394.829413 352.432065 
L 399.910609 354.03598 
L 405.838671 355.65129 
L 411.766732 357.029819 
L 418.54166 358.369791 
L 427.01032 359.794406 
L 440.560176 361.795346 
L 451.569434 363.221629 
L 461.731826 364.312023 
L 478.669146 366.104588 
L 493.912733 367.834012 
L 500.687661 368.368498 
L 509.156321 368.796919 
L 529.481105 369.682479 
L 533.715435 370.143844 
L 537.949765 370.826855 
L 543.030961 371.941607 
L 548.959023 373.221879 
L 552.346487 373.707806 
L 554.887085 373.862303 
L 557.427683 373.780086 
L 559.96828 373.411022 
L 562.508878 372.783475 
L 567.590074 371.424322 
L 569.283806 371.133849 
L 570.977538 371.012578 
L 572.67127 371.113257 
L 574.365002 371.488635 
L 576.058734 372.19146 
L 577.752466 373.27448 
L 579.446198 374.790443 
L 581.13993 376.788041 
L 582.833662 379.201532 
L 587.914858 386.977356 
L 589.60859 389.081021 
L 590.455456 389.928791 
L 591.302322 390.607184 
L 592.149188 391.091197 
L 592.996054 391.355828 
L 593.84292 391.376074 
L 594.689786 391.126934 
L 595.536652 390.583405 
L 596.383518 389.720485 
L 597.230384 388.513171 
L 598.07725 386.936462 
L 598.924116 384.965355 
L 599.770982 382.574847 
L 600.617848 379.739938 
L 601.464714 376.435624 
L 602.31158 372.636903 
L 604.005312 363.456231 
L 605.699044 351.997905 
L 607.392776 338.061907 
L 609.086508 321.448218 
L 610.78024 301.956822 
L 612.473972 279.387699 
L 614.167704 253.540831 
L 615.861436 224.216202 
L 617.555168 191.213792 
L 619.2489 154.333584 
L 620.942632 113.37556 
L 622.636364 68.139702 
L 622.636364 68.139702 
" clip-path="url(#pf72a57a339)" style="fill: none; stroke: #fa8174; stroke-width: 1.5; stroke-linecap: square"/>
   </g>
   <g id="line2d_63">
    <path d="M 115.363636 259.672969 
L 119.597966 262.209487 
L 123.832296 264.494129 
L 129.760358 267.413126 
L 144.15708 274.334796 
L 148.39141 276.646371 
L 152.62574 279.219111 
L 156.013204 281.516042 
L 159.400668 284.061555 
L 168.716194 291.350881 
L 171.256792 293.033522 
L 173.79739 294.430698 
L 175.491122 295.163139 
L 177.184854 295.708079 
L 178.878586 296.041271 
L 180.572317 296.149197 
L 182.266049 296.053952 
L 183.959781 295.785009 
L 186.500379 295.120382 
L 189.887843 293.90135 
L 197.509637 290.917076 
L 200.050235 290.201696 
L 202.590833 289.770899 
L 205.131431 289.632503 
L 207.672029 289.779357 
L 210.212627 290.20431 
L 212.753225 290.900212 
L 215.293823 291.85991 
L 217.834421 293.076255 
L 220.375019 294.542094 
L 222.915617 296.246972 
L 226.303081 298.819033 
L 231.384277 303.044223 
L 237.312339 307.987297 
L 240.699803 310.555942 
L 243.240401 312.257624 
L 245.780999 313.724305 
L 248.321597 314.945059 
L 250.862195 315.910529 
L 253.402793 316.611358 
L 255.94339 317.038189 
L 258.483988 317.181665 
L 261.024586 317.032431 
L 263.565184 316.581148 
L 266.105782 315.845569 
L 269.493246 314.596117 
L 274.574442 312.695255 
L 277.11504 311.979891 
L 278.808772 311.667475 
L 280.502504 311.526072 
L 282.196236 311.589472 
L 283.889968 311.891461 
L 285.5837 312.462222 
L 287.277432 313.290012 
L 288.971164 314.33604 
L 291.511762 316.228436 
L 294.899226 319.149207 
L 301.674154 325.176617 
L 304.214752 327.096106 
L 305.908484 328.166286 
L 307.602216 329.040468 
L 309.295948 329.736709 
L 311.836546 330.499239 
L 314.377144 330.994617 
L 317.764608 331.3777 
L 326.233268 332.122568 
L 328.773866 332.6035 
L 332.161329 333.502235 
L 336.395659 334.910113 
L 348.251783 339.064404 
L 352.486113 340.143517 
L 358.414175 341.351033 
L 366.035969 342.908224 
L 370.270299 344.029538 
L 374.504629 345.417226 
L 380.432691 347.639358 
L 389.748217 351.183131 
L 394.829413 352.841815 
L 399.910609 354.245221 
L 404.991805 355.411951 
L 410.073 356.360619 
L 416.001062 357.227005 
L 434.632114 359.717835 
L 442.253908 361.188304 
L 452.4163 363.133873 
L 458.344362 363.999916 
L 465.966156 364.838535 
L 490.525269 367.158731 
L 495.606465 367.304161 
L 500.687661 367.173875 
L 512.543785 366.72565 
L 515.931249 366.832613 
L 519.318713 367.149192 
L 522.706177 367.670851 
L 526.940507 368.55076 
L 532.021703 369.837222 
L 545.571559 373.432355 
L 548.959023 374.038525 
L 551.499621 374.31873 
L 554.040219 374.412129 
L 556.580817 374.285152 
L 559.121414 373.904227 
L 561.662012 373.265687 
L 567.590074 371.581121 
L 569.283806 371.276804 
L 570.977538 371.143646 
L 572.67127 371.232101 
L 574.365002 371.592622 
L 576.058734 372.275661 
L 577.752466 373.331673 
L 579.446198 374.81111 
L 581.13993 376.760514 
L 582.833662 379.116077 
L 587.914858 386.725518 
L 589.60859 388.798603 
L 590.455456 389.639531 
L 591.302322 390.317834 
L 592.149188 390.80935 
L 592.996054 391.089917 
L 593.84292 391.135374 
L 594.689786 390.921559 
L 595.536652 390.42431 
L 596.383518 389.619466 
L 597.230384 388.482865 
L 598.07725 386.990345 
L 598.924116 385.117744 
L 599.770982 382.840901 
L 600.617848 380.135653 
L 601.464714 376.977841 
L 602.31158 373.3433 
L 604.005312 364.54739 
L 605.699044 353.554629 
L 607.392776 340.171725 
L 609.086508 324.205382 
L 610.78024 305.462308 
L 612.473972 283.749208 
L 614.167704 258.87279 
L 615.861436 230.639758 
L 617.555168 198.85682 
L 619.2489 163.330682 
L 620.942632 123.86805 
L 622.636364 80.275631 
L 622.636364 80.275631 
" clip-path="url(#pf72a57a339)" style="fill: none; stroke: #81b1d2; stroke-width: 1.5; stroke-linecap: square"/>
   </g>
   <g id="line2d_64">
    <path d="M 115.363636 268.654289 
L 117.904234 269.890765 
L 120.444832 270.844374 
L 122.98543 271.549602 
L 125.526028 272.040938 
L 128.913492 272.422939 
L 132.300956 272.567746 
L 137.382152 272.51904 
L 145.003946 272.393721 
L 148.39141 272.528226 
L 151.778874 272.895587 
L 154.319472 273.373096 
L 156.86007 274.062058 
L 159.400668 274.992788 
L 161.941266 276.151693 
L 165.32873 277.982825 
L 169.56306 280.597113 
L 183.959781 289.85853 
L 200.897101 299.970656 
L 211.906359 307.111893 
L 215.293823 308.921515 
L 217.834421 310.030401 
L 220.375019 310.871314 
L 222.915617 311.401798 
L 225.456215 311.644577 
L 227.996813 311.657237 
L 231.384277 311.416259 
L 237.312339 310.670832 
L 241.546669 310.229347 
L 244.934133 310.12357 
L 248.321597 310.278913 
L 251.709061 310.686358 
L 255.096525 311.336725 
L 258.483988 312.220833 
L 261.871452 313.329504 
L 265.258916 314.650277 
L 278.808772 320.251512 
L 281.34937 320.970632 
L 283.889968 321.467765 
L 286.430566 321.704756 
L 288.971164 321.721955 
L 293.205494 321.473564 
L 298.28669 321.163312 
L 300.827288 321.185232 
L 303.367886 321.4292 
L 305.908484 321.973178 
L 308.449082 322.859981 
L 310.98968 324.035309 
L 314.377144 325.928634 
L 319.45834 329.126156 
L 324.539536 332.248328 
L 327.080134 333.603877 
L 329.620732 334.751686 
L 333.008195 335.988528 
L 336.395659 336.947313 
L 339.783123 337.690718 
L 344.864319 338.539089 
L 358.414175 340.601246 
L 362.648505 341.501394 
L 366.882835 342.649159 
L 370.270299 343.79317 
L 374.504629 345.480326 
L 385.513887 350.051652 
L 388.901351 351.167356 
L 391.441949 351.819152 
L 394.829413 352.437793 
L 398.216877 352.837956 
L 403.298073 353.194977 
L 410.919866 353.691452 
L 415.154196 354.201751 
L 419.388526 354.922229 
L 424.469722 356.025132 
L 430.397784 357.579768 
L 437.172712 359.607147 
L 447.335104 362.665872 
L 452.4163 363.953297 
L 456.65063 364.797339 
L 461.731826 365.542764 
L 467.659888 366.135731 
L 475.281682 366.639343 
L 487.137805 367.200317 
L 498.147063 367.497541 
L 510.003187 367.785247 
L 515.931249 368.153495 
L 521.012445 368.691116 
L 526.093641 369.441471 
L 532.021703 370.558434 
L 537.949765 371.904382 
L 546.418425 373.910639 
L 549.805889 374.459443 
L 552.346487 374.676781 
L 554.887085 374.677627 
L 557.427683 374.416997 
L 559.96828 373.850858 
L 562.508878 373.01383 
L 567.590074 371.224611 
L 569.283806 370.794607 
L 570.977538 370.538952 
L 572.67127 370.512334 
L 574.365002 370.769443 
L 576.058734 371.364966 
L 577.752466 372.353593 
L 579.446198 373.790011 
L 581.13993 375.724814 
L 582.833662 378.093017 
L 588.761724 386.951878 
L 590.455456 388.818414 
L 591.302322 389.515547 
L 592.149188 390.021824 
L 592.996054 390.31217 
L 593.84292 390.36151 
L 594.689786 390.14477 
L 595.536652 389.636875 
L 596.383518 388.812749 
L 597.230384 387.647319 
L 598.07725 386.115509 
L 598.924116 384.192246 
L 599.770982 381.852453 
L 600.617848 379.071056 
L 601.464714 375.822981 
L 602.31158 372.083153 
L 604.005312 363.027939 
L 605.699044 351.704814 
L 607.392776 337.913182 
L 609.086508 321.452444 
L 610.78024 302.122003 
L 612.473972 279.72126 
L 614.167704 254.049618 
L 615.861436 224.906479 
L 617.555168 192.091243 
L 619.2489 155.403315 
L 620.942632 114.642095 
L 622.636364 69.606986 
L 622.636364 69.606986 
" clip-path="url(#pf72a57a339)" style="fill: none; stroke: #fdb462; stroke-width: 1.5; stroke-linecap: square"/>
   </g>
   <g id="patch_3">
    <path d="M 90 384.48 
L 90 51.84 
" style="fill: none; stroke: #ffffff; stroke-width: 0.8; stroke-linejoin: miter; stroke-linecap: square"/>
   </g>
   <g id="patch_4">
    <path d="M 648 384.48 
L 648 51.84 
" style="fill: none; stroke: #ffffff; stroke-width: 0.8; stroke-linejoin: miter; stroke-linecap: square"/>
   </g>
   <g id="patch_5">
    <path d="M 90 384.48 
L 648 384.48 
" style="fill: none; stroke: #ffffff; stroke-width: 0.8; stroke-linejoin: miter; stroke-linecap: square"/>
   </g>
   <g id="patch_6">
    <path d="M 90 51.84 
L 648 51.84 
" style="fill: none; stroke: #ffffff; stroke-width: 0.8; stroke-linejoin: miter; stroke-linecap: square"/>
   </g>
   <g id="text_32">
    <!-- caio.thread_aio_asyncio - write (Time vs Chunk Size) -->
    <g style="fill: #ffffff" transform="translate(211.29375 45.84) scale(0.12 -0.12)">
     <defs>
      <path id="DejaVuSans-61" d="M 2194 1759 
Q 1497 1759 1228 1600 
Q 959 1441 959 1056 
Q 959 750 1161 570 
Q 1363 391 1709 391 
Q 2188 391 2477 730 
Q 2766 1069 2766 1631 
L 2766 1759 
L 2194 1759 
z
M 3341 1997 
L 3341 0 
L 2766 0 
L 2766 531 
Q 2569 213 2275 61 
Q 1981 -91 1556 -91 
Q 1019 -91 701 211 
Q 384 513 384 1019 
Q 384 1609 779 1909 
Q 1175 2209 1959 2209 
L 2766 2209 
L 2766 2266 
Q 2766 2663 2505 2880 
Q 2244 3097 1772 3097 
Q 1472 3097 1187 3025 
Q 903 2953 641 2809 
L 641 3341 
Q 956 3463 1253 3523 
Q 1550 3584 1831 3584 
Q 2591 3584 2966 3190 
Q 3341 2797 3341 1997 
z
" transform="scale(0.015625)"/>
      <path id="DejaVuSans-6f" d="M 1959 3097 
Q 1497 3097 1228 2736 
Q 959 2375 959 1747 
Q 959 1119 1226 758 
Q 1494 397 1959 397 
Q 2419 397 2687 759 
Q 2956 1122 2956 1747 
Q 2956 2369 2687 2733 
Q 2419 3097 1959 3097 
z
M 1959 3584 
Q 2709 3584 3137 3096 
Q 3566 2609 3566 1747 
Q 3566 888 3137 398 
Q 2709 -91 1959 -91 
Q 1206 -91 779 398 
Q 353 888 353 1747 
Q 353 2609 779 3096 
Q 1206 3584 1959 3584 
z
" transform="scale(0.015625)"/>
      <path id="DejaVuSans-2e" d="M 684 794 
L 1344 794 
L 1344 0 
L 684 0 
L 684 794 
z
" transform="scale(0.015625)"/>
      <path id="DejaVuSans-72" d="M 2631 2963 
Q 2534 3019 2420 3045 
Q 2306 3072 2169 3072 
Q 1681 3072 1420 2755 
Q 1159 2438 1159 1844 
L 1159 0 
L 581 0 
L 581 3500 
L 1159 3500 
L 1159 2956 
Q 1341 3275 1631 3429 
Q 1922 3584 2338 3584 
Q 2397 3584 2469 3576 
Q 2541 3569 2628 3553 
L 2631 2963 
z
" transform="scale(0.015625)"/>
      <path id="DejaVuSans-64" d="M 2906 2969 
L 2906 4863 
L 3481 4863 
L 3481 0 
L 2906 0 
L 2906 525 
Q 2725 213 2448 61 
Q 2172 -91 1784 -91 
Q 1150 -91 751 415 
Q 353 922 353 1747 
Q 353 2572 751 3078 
Q 1150 3584 1784 3584 
Q 2172 3584 2448 3432 
Q 2725 3281 2906 2969 
z
M 947 1747 
Q 947 1113 1208 752 
Q 1469 391 1925 391 
Q 2381 391 2643 752 
Q 2906 1113 2906 1747 
Q 2906 2381 2643 2742 
Q 2381 3103 1925 3103 
Q 1469 3103 1208 2742 
Q 947 2381 947 1747 
z
" transform="scale(0.015625)"/>
      <path id="DejaVuSans-79" d="M 2059 -325 
Q 1816 -950 1584 -1140 
Q 1353 -1331 966 -1331 
L 506 -1331 
L 506 -850 
L 844 -850 
Q 1081 -850 1212 -737 
Q 1344 -625 1503 -206 
L 1606 56 
L 191 3500 
L 800 3500 
L 1894 763 
L 2988 3500 
L 3597 3500 
L 2059 -325 
z
" transform="scale(0.015625)"/>
      <path id="DejaVuSans-2d" d="M 313 2009 
L 1997 2009 
L 1997 1497 
L 313 1497 
L 313 2009 
z
" transform="scale(0.015625)"/>
      <path id="DejaVuSans-77" d="M 269 3500 
L 844 3500 
L 1563 769 
L 2278 3500 
L 2956 3500 
L 3675 769 
L 4391 3500 
L 4966 3500 
L 4050 0 
L 3372 0 
L 2619 2869 
L 1863 0 
L 1184 0 
L 269 3500 
z
" transform="scale(0.015625)"/>
      <path id="DejaVuSans-54" d="M -19 4666 
L 3928 4666 
L 3928 4134 
L 2272 4134 
L 2272 0 
L 1638 0 
L 1638 4134 
L -19 4134 
L -19 4666 
z
" transform="scale(0.015625)"/>
      <path id="DejaVuSans-76" d="M 191 3500 
L 800 3500 
L 1894 563 
L 2988 3500 
L 3597 3500 
L 2284 0 
L 1503 0 
L 191 3500 
z
" transform="scale(0.015625)"/>
      <path id="DejaVuSans-43" d="M 4122 4306 
L 4122 3641 
Q 3803 3938 3442 4084 
Q 3081 4231 2675 4231 
Q 1875 4231 1450 3742 
Q 1025 3253 1025 2328 
Q 1025 1406 1450 917 
Q 1875 428 2675 428 
Q 3081 428 3442 575 
Q 3803 722 4122 1019 
L 4122 359 
Q 3791 134 3420 21 
Q 3050 -91 2638 -91 
Q 1578 -91 968 557 
Q 359 1206 359 2328 
Q 359 3453 968 4101 
Q 1578 4750 2638 4750 
Q 3056 4750 3426 4639 
Q 3797 4528 4122 4306 
z
" transform="scale(0.015625)"/>
      <path id="DejaVuSans-53" d="M 3425 4513 
L 3425 3897 
Q 3066 4069 2747 4153 
Q 2428 4238 2131 4238 
Q 1616 4238 1336 4038 
Q 1056 3838 1056 3469 
Q 1056 3159 1242 3001 
Q 1428 2844 1947 2747 
L 2328 2669 
Q 3034 2534 3370 2195 
Q 3706 1856 3706 1288 
Q 3706 609 3251 259 
Q 2797 -91 1919 -91 
Q 1588 -91 1214 -16 
Q 841 59 441 206 
L 441 856 
Q 825 641 1194 531 
Q 1563 422 1919 422 
Q 2459 422 2753 634 
Q 3047 847 3047 1241 
Q 3047 1584 2836 1778 
Q 2625 1972 2144 2069 
L 1759 2144 
Q 1053 2284 737 2584 
Q 422 2884 422 3419 
Q 422 4038 858 4394 
Q 1294 4750 2059 4750 
Q 2388 4750 2728 4690 
Q 3069 4631 3425 4513 
z
" transform="scale(0.015625)"/>
     </defs>
     <use xlink:href="#DejaVuSans-63"/>
     <use xlink:href="#DejaVuSans-61" x="54.980469"/>
     <use xlink:href="#DejaVuSans-69" x="116.259766"/>
     <use xlink:href="#DejaVuSans-6f" x="144.042969"/>
     <use xlink:href="#DejaVuSans-2e" x="203.474609"/>
     <use xlink:href="#DejaVuSans-74" x="235.261719"/>
     <use xlink:href="#DejaVuSans-68" x="274.470703"/>
     <use xlink:href="#DejaVuSans-72" x="337.849609"/>
     <use xlink:href="#DejaVuSans-65" x="376.712891"/>
     <use xlink:href="#DejaVuSans-61" x="438.236328"/>
     <use xlink:href="#DejaVuSans-64" x="499.515625"/>
     <use xlink:href="#DejaVuSans-5f" x="562.992188"/>
     <use xlink:href="#DejaVuSans-61" x="612.992188"/>
     <use xlink:href="#DejaVuSans-69" x="674.271484"/>
     <use xlink:href="#DejaVuSans-6f" x="702.054688"/>
     <use xlink:href="#DejaVuSans-5f" x="763.236328"/>
     <use xlink:href="#DejaVuSans-61" x="813.236328"/>
     <use xlink:href="#DejaVuSans-73" x="874.515625"/>
     <use xlink:href="#DejaVuSans-79" x="926.615234"/>
     <use xlink:href="#DejaVuSans-6e" x="985.794922"/>
     <use xlink:href="#DejaVuSans-63" x="1049.173828"/>
     <use xlink:href="#DejaVuSans-69" x="1104.154297"/>
     <use xlink:href="#DejaVuSans-6f" x="1131.9375"/>
     <use xlink:href="#DejaVuSans-20" x="1193.119141"/>
     <use xlink:href="#DejaVuSans-2d" x="1224.90625"/>
     <use xlink:href="#DejaVuSans-20" x="1260.990234"/>
     <use xlink:href="#DejaVuSans-77" x="1292.777344"/>
     <use xlink:href="#DejaVuSans-72" x="1374.564453"/>
     <use xlink:href="#DejaVuSans-69" x="1415.677734"/>
     <use xlink:href="#DejaVuSans-74" x="1443.460938"/>
     <use xlink:href="#DejaVuSans-65" x="1482.669922"/>
     <use xlink:href="#DejaVuSans-20" x="1544.193359"/>
     <use xlink:href="#DejaVuSans-28" x="1575.980469"/>
     <use xlink:href="#DejaVuSans-54" x="1614.994141"/>
     <use xlink:href="#DejaVuSans-69" x="1672.953125"/>
     <use xlink:href="#DejaVuSans-6d" x="1700.736328"/>
     <use xlink:href="#DejaVuSans-65" x="1798.148438"/>
     <use xlink:href="#DejaVuSans-20" x="1859.671875"/>
     <use xlink:href="#DejaVuSans-76" x="1891.458984"/>
     <use xlink:href="#DejaVuSans-73" x="1950.638672"/>
     <use xlink:href="#DejaVuSans-20" x="2002.738281"/>
     <use xlink:href="#DejaVuSans-43" x="2034.525391"/>
     <use xlink:href="#DejaVuSans-68" x="2104.349609"/>
     <use xlink:href="#DejaVuSans-75" x="2167.728516"/>
     <use xlink:href="#DejaVuSans-6e" x="2231.107422"/>
     <use xlink:href="#DejaVuSans-6b" x="2294.486328"/>
     <use xlink:href="#DejaVuSans-20" x="2352.396484"/>
     <use xlink:href="#DejaVuSans-53" x="2384.183594"/>
     <use xlink:href="#DejaVuSans-69" x="2447.660156"/>
     <use xlink:href="#DejaVuSans-7a" x="2475.443359"/>
     <use xlink:href="#DejaVuSans-65" x="2527.933594"/>
     <use xlink:href="#DejaVuSans-29" x="2589.457031"/>
    </g>
   </g>
   <g id="legend_1">
    <g id="patch_7">
     <path d="M 97 149.5775 
L 194.56875 149.5775 
Q 196.56875 149.5775 196.56875 147.5775 
L 196.56875 58.84 
Q 196.56875 56.84 194.56875 56.84 
L 97 56.84 
Q 95 56.84 95 58.84 
L 95 147.5775 
Q 95 149.5775 97 149.5775 
z
" style="opacity: 0.8; stroke: #cccccc; stroke-linejoin: miter"/>
    </g>
    <g id="line2d_65">
     <path d="M 99 64.938437 
L 109 64.938437 
L 119 64.938437 
" style="fill: none; stroke: #8dd3c7; stroke-width: 1.5; stroke-linecap: square"/>
    </g>
    <g id="text_33">
     <!-- max_ops=1 -->
     <g style="fill: #ffffff" transform="translate(127 68.438437) scale(0.1 -0.1)">
      <defs>
       <path id="DejaVuSans-78" d="M 3513 3500 
L 2247 1797 
L 3578 0 
L 2900 0 
L 1881 1375 
L 863 0 
L 184 0 
L 1544 1831 
L 300 3500 
L 978 3500 
L 1906 2253 
L 2834 3500 
L 3513 3500 
z
" transform="scale(0.015625)"/>
       <path id="DejaVuSans-70" d="M 1159 525 
L 1159 -1331 
L 581 -1331 
L 581 3500 
L 1159 3500 
L 1159 2969 
Q 1341 3281 1617 3432 
Q 1894 3584 2278 3584 
Q 2916 3584 3314 3078 
Q 3713 2572 3713 1747 
Q 3713 922 3314 415 
Q 2916 -91 2278 -91 
Q 1894 -91 1617 61 
Q 1341 213 1159 525 
z
M 3116 1747 
Q 3116 2381 2855 2742 
Q 2594 3103 2138 3103 
Q 1681 3103 1420 2742 
Q 1159 2381 1159 1747 
Q 1159 1113 1420 752 
Q 1681 391 2138 391 
Q 2594 391 2855 752 
Q 3116 1113 3116 1747 
z
" transform="scale(0.015625)"/>
       <path id="DejaVuSans-3d" d="M 678 2906 
L 4684 2906 
L 4684 2381 
L 678 2381 
L 678 2906 
z
M 678 1631 
L 4684 1631 
L 4684 1100 
L 678 1100 
L 678 1631 
z
" transform="scale(0.015625)"/>
      </defs>
      <use xlink:href="#DejaVuSans-6d"/>
      <use xlink:href="#DejaVuSans-61" x="97.412109"/>
      <use xlink:href="#DejaVuSans-78" x="158.691406"/>
      <use xlink:href="#DejaVuSans-5f" x="217.871094"/>
      <use xlink:href="#DejaVuSans-6f" x="267.871094"/>
      <use xlink:href="#DejaVuSans-70" x="329.052734"/>
      <use xlink:href="#DejaVuSans-73" x="392.529297"/>
      <use xlink:href="#DejaVuSans-3d" x="444.628906"/>
      <use xlink:href="#DejaVuSans-31" x="528.417969"/>
     </g>
    </g>
    <g id="line2d_66">
     <path d="M 99 79.894687 
L 109 79.894687 
L 119 79.894687 
" style="fill: none; stroke: #feffb3; stroke-width: 1.5; stroke-linecap: square"/>
    </g>
    <g id="text_34">
     <!-- max_ops=4 -->
     <g style="fill: #ffffff" transform="translate(127 83.394687) scale(0.1 -0.1)">
      <use xlink:href="#DejaVuSans-6d"/>
      <use xlink:href="#DejaVuSans-61" x="97.412109"/>
      <use xlink:href="#DejaVuSans-78" x="158.691406"/>
      <use xlink:href="#DejaVuSans-5f" x="217.871094"/>
      <use xlink:href="#DejaVuSans-6f" x="267.871094"/>
      <use xlink:href="#DejaVuSans-70" x="329.052734"/>
      <use xlink:href="#DejaVuSans-73" x="392.529297"/>
      <use xlink:href="#DejaVuSans-3d" x="444.628906"/>
      <use xlink:href="#DejaVuSans-34" x="528.417969"/>
     </g>
    </g>
    <g id="line2d_67">
     <path d="M 99 94.850937 
L 109 94.850937 
L 119 94.850937 
" style="fill: none; stroke: #bfbbd9; stroke-width: 1.5; stroke-linecap: square"/>
    </g>
    <g id="text_35">
     <!-- max_ops=8 -->
     <g style="fill: #ffffff" transform="translate(127 98.350937) scale(0.1 -0.1)">
      <use xlink:href="#DejaVuSans-6d"/>
      <use xlink:href="#DejaVuSans-61" x="97.412109"/>
      <use xlink:href="#DejaVuSans-78" x="158.691406"/>
      <use xlink:href="#DejaVuSans-5f" x="217.871094"/>
      <use xlink:href="#DejaVuSans-6f" x="267.871094"/>
      <use xlink:href="#DejaVuSans-70" x="329.052734"/>
      <use xlink:href="#DejaVuSans-73" x="392.529297"/>
      <use xlink:href="#DejaVuSans-3d" x="444.628906"/>
      <use xlink:href="#DejaVuSans-38" x="528.417969"/>
     </g>
    </g>
    <g id="line2d_68">
     <path d="M 99 109.807187 
L 109 109.807187 
L 119 109.807187 
" style="fill: none; stroke: #fa8174; stroke-width: 1.5; stroke-linecap: square"/>
    </g>
    <g id="text_36">
     <!-- max_ops=16 -->
     <g style="fill: #ffffff" transform="translate(127 113.307187) scale(0.1 -0.1)">
      <use xlink:href="#DejaVuSans-6d"/>
      <use xlink:href="#DejaVuSans-61" x="97.412109"/>
      <use xlink:href="#DejaVuSans-78" x="158.691406"/>
      <use xlink:href="#DejaVuSans-5f" x="217.871094"/>
      <use xlink:href="#DejaVuSans-6f" x="267.871094"/>
      <use xlink:href="#DejaVuSans-70" x="329.052734"/>
      <use xlink:href="#DejaVuSans-73" x="392.529297"/>
      <use xlink:href="#DejaVuSans-3d" x="444.628906"/>
      <use xlink:href="#DejaVuSans-31" x="528.417969"/>
      <use xlink:href="#DejaVuSans-36" x="592.041016"/>
     </g>
    </g>
    <g id="line2d_69">
     <path d="M 99 124.763437 
L 109 124.763437 
L 119 124.763437 
" style="fill: none; stroke: #81b1d2; stroke-width: 1.5; stroke-linecap: square"/>
    </g>
    <g id="text_37">
     <!-- max_ops=32 -->
     <g style="fill: #ffffff" transform="translate(127 128.263437) scale(0.1 -0.1)">
      <use xlink:href="#DejaVuSans-6d"/>
      <use xlink:href="#DejaVuSans-61" x="97.412109"/>
      <use xlink:href="#DejaVuSans-78" x="158.691406"/>
      <use xlink:href="#DejaVuSans-5f" x="217.871094"/>
      <use xlink:href="#DejaVuSans-6f" x="267.871094"/>
      <use xlink:href="#DejaVuSans-70" x="329.052734"/>
      <use xlink:href="#DejaVuSans-73" x="392.529297"/>
      <use xlink:href="#DejaVuSans-3d" x="444.628906"/>
      <use xlink:href="#DejaVuSans-33" x="528.417969"/>
      <use xlink:href="#DejaVuSans-32" x="592.041016"/>
     </g>
    </g>
    <g id="line2d_70">
     <path d="M 99 139.719687 
L 109 139.719687 
L 119 139.719687 
" style="fill: none; stroke: #fdb462; stroke-width: 1.5; stroke-linecap: square"/>
    </g>
    <g id="text_38">
     <!-- max_ops=64 -->
     <g style="fill: #ffffff" transform="translate(127 143.219687) scale(0.1 -0.1)">
      <use xlink:href="#DejaVuSans-6d"/>
      <use xlink:href="#DejaVuSans-61" x="97.412109"/>
      <use xlink:href="#DejaVuSans-78" x="158.691406"/>
      <use xlink:href="#DejaVuSans-5f" x="217.871094"/>
      <use xlink:href="#DejaVuSans-6f" x="267.871094"/>
      <use xlink:href="#DejaVuSans-70" x="329.052734"/>
      <use xlink:href="#DejaVuSans-73" x="392.529297"/>
      <use xlink:href="#DejaVuSans-3d" x="444.628906"/>
      <use xlink:href="#DejaVuSans-36" x="528.417969"/>
      <use xlink:href="#DejaVuSans-34" x="592.041016"/>
     </g>
    </g>
   </g>
  </g>
 </g>
 <defs>
  <clipPath id="pf72a57a339">
   <rect x="90" y="51.84" width="558" height="332.64"/>
  </clipPath>
 </defs>
</svg>
