<?xml version="1.0" encoding="utf-8" standalone="no"?>
<!DOCTYPE svg PUBLIC "-//W3C//DTD SVG 1.1//EN"
  "http://www.w3.org/Graphics/SVG/1.1/DTD/svg11.dtd">
<svg xmlns:xlink="http://www.w3.org/1999/xlink" width="720pt" height="432pt" viewBox="0 0 720 432" xmlns="http://www.w3.org/2000/svg" version="1.1">
 <metadata>
  <rdf:RDF xmlns:dc="http://purl.org/dc/elements/1.1/" xmlns:cc="http://creativecommons.org/ns#" xmlns:rdf="http://www.w3.org/1999/02/22-rdf-syntax-ns#">
   <cc:Work>
    <dc:type rdf:resource="http://purl.org/dc/dcmitype/StillImage"/>
    <dc:date>2024-01-19T20:27:15.039642</dc:date>
    <dc:format>image/svg+xml</dc:format>
    <dc:creator>
     <cc:Agent>
      <dc:title>Matplotlib v3.8.2, https://matplotlib.org/</dc:title>
     </cc:Agent>
    </dc:creator>
   </cc:Work>
  </rdf:RDF>
 </metadata>
 <defs>
  <style type="text/css">*{stroke-linejoin: round; stroke-linecap: butt}</style>
 </defs>
 <g id="figure_1">
  <g id="patch_1">
   <path d="M 0 432 
L 720 432 
L 720 0 
L 0 0 
z
"/>
  </g>
  <g id="axes_1">
   <g id="patch_2">
    <path d="M 90 384.48 
L 648 384.48 
L 648 51.84 
L 90 51.84 
z
"/>
   </g>
   <g id="matplotlib.axis_1">
    <g id="xtick_1">
     <g id="line2d_1">
      <path d="M 115.363636 384.48 
L 115.363636 51.84 
" clip-path="url(#p2413293c90)" style="fill: none; stroke: #ffffff; stroke-width: 0.8; stroke-linecap: square"/>
     </g>
     <g id="line2d_2">
      <defs>
       <path id="m125bcd541a" d="M 0 0 
L 0 3.5 
" style="stroke: #ffffff; stroke-width: 0.8"/>
      </defs>
      <g>
       <use xlink:href="#m125bcd541a" x="115.363636" y="384.48" style="fill: #ffffff; stroke: #ffffff; stroke-width: 0.8"/>
      </g>
     </g>
     <g id="text_1">
      <!-- 55912 -->
      <g style="fill: #ffffff" transform="translate(106.067392 419.347741) rotate(-45) scale(0.1 -0.1)">
       <defs>
        <path id="DejaVuSans-35" d="M 691 4666 
L 3169 4666 
L 3169 4134 
L 1269 4134 
L 1269 2991 
Q 1406 3038 1543 3061 
Q 1681 3084 1819 3084 
Q 2600 3084 3056 2656 
Q 3513 2228 3513 1497 
Q 3513 744 3044 326 
Q 2575 -91 1722 -91 
Q 1428 -91 1123 -41 
Q 819 9 494 109 
L 494 744 
Q 775 591 1075 516 
Q 1375 441 1709 441 
Q 2250 441 2565 725 
Q 2881 1009 2881 1497 
Q 2881 1984 2565 2268 
Q 2250 2553 1709 2553 
Q 1456 2553 1204 2497 
Q 953 2441 691 2322 
L 691 4666 
z
" transform="scale(0.015625)"/>
        <path id="DejaVuSans-39" d="M 703 97 
L 703 672 
Q 941 559 1184 500 
Q 1428 441 1663 441 
Q 2288 441 2617 861 
Q 2947 1281 2994 2138 
Q 2813 1869 2534 1725 
Q 2256 1581 1919 1581 
Q 1219 1581 811 2004 
Q 403 2428 403 3163 
Q 403 3881 828 4315 
Q 1253 4750 1959 4750 
Q 2769 4750 3195 4129 
Q 3622 3509 3622 2328 
Q 3622 1225 3098 567 
Q 2575 -91 1691 -91 
Q 1453 -91 1209 -44 
Q 966 3 703 97 
z
M 1959 2075 
Q 2384 2075 2632 2365 
Q 2881 2656 2881 3163 
Q 2881 3666 2632 3958 
Q 2384 4250 1959 4250 
Q 1534 4250 1286 3958 
Q 1038 3666 1038 3163 
Q 1038 2656 1286 2365 
Q 1534 2075 1959 2075 
z
" transform="scale(0.015625)"/>
        <path id="DejaVuSans-31" d="M 794 531 
L 1825 531 
L 1825 4091 
L 703 3866 
L 703 4441 
L 1819 4666 
L 2450 4666 
L 2450 531 
L 3481 531 
L 3481 0 
L 794 0 
L 794 531 
z
" transform="scale(0.015625)"/>
        <path id="DejaVuSans-32" d="M 1228 531 
L 3431 531 
L 3431 0 
L 469 0 
L 469 531 
Q 828 903 1448 1529 
Q 2069 2156 2228 2338 
Q 2531 2678 2651 2914 
Q 2772 3150 2772 3378 
Q 2772 3750 2511 3984 
Q 2250 4219 1831 4219 
Q 1534 4219 1204 4116 
Q 875 4013 500 3803 
L 500 4441 
Q 881 4594 1212 4672 
Q 1544 4750 1819 4750 
Q 2544 4750 2975 4387 
Q 3406 4025 3406 3419 
Q 3406 3131 3298 2873 
Q 3191 2616 2906 2266 
Q 2828 2175 2409 1742 
Q 1991 1309 1228 531 
z
" transform="scale(0.015625)"/>
       </defs>
       <use xlink:href="#DejaVuSans-35"/>
       <use xlink:href="#DejaVuSans-35" x="63.623047"/>
       <use xlink:href="#DejaVuSans-39" x="127.246094"/>
       <use xlink:href="#DejaVuSans-31" x="190.869141"/>
       <use xlink:href="#DejaVuSans-32" x="254.492188"/>
      </g>
     </g>
    </g>
    <g id="xtick_2">
     <g id="line2d_3">
      <path d="M 136.5 384.48 
L 136.5 51.84 
" clip-path="url(#p2413293c90)" style="fill: none; stroke: #ffffff; stroke-width: 0.8; stroke-linecap: square"/>
     </g>
     <g id="line2d_4">
      <g>
       <use xlink:href="#m125bcd541a" x="136.5" y="384.48" style="fill: #ffffff; stroke: #ffffff; stroke-width: 0.8"/>
      </g>
     </g>
     <g id="text_2">
      <!-- 58342 -->
      <g style="fill: #ffffff" transform="translate(127.203756 419.347741) rotate(-45) scale(0.1 -0.1)">
       <defs>
        <path id="DejaVuSans-38" d="M 2034 2216 
Q 1584 2216 1326 1975 
Q 1069 1734 1069 1313 
Q 1069 891 1326 650 
Q 1584 409 2034 409 
Q 2484 409 2743 651 
Q 3003 894 3003 1313 
Q 3003 1734 2745 1975 
Q 2488 2216 2034 2216 
z
M 1403 2484 
Q 997 2584 770 2862 
Q 544 3141 544 3541 
Q 544 4100 942 4425 
Q 1341 4750 2034 4750 
Q 2731 4750 3128 4425 
Q 3525 4100 3525 3541 
Q 3525 3141 3298 2862 
Q 3072 2584 2669 2484 
Q 3125 2378 3379 2068 
Q 3634 1759 3634 1313 
Q 3634 634 3220 271 
Q 2806 -91 2034 -91 
Q 1263 -91 848 271 
Q 434 634 434 1313 
Q 434 1759 690 2068 
Q 947 2378 1403 2484 
z
M 1172 3481 
Q 1172 3119 1398 2916 
Q 1625 2713 2034 2713 
Q 2441 2713 2670 2916 
Q 2900 3119 2900 3481 
Q 2900 3844 2670 4047 
Q 2441 4250 2034 4250 
Q 1625 4250 1398 4047 
Q 1172 3844 1172 3481 
z
" transform="scale(0.015625)"/>
        <path id="DejaVuSans-33" d="M 2597 2516 
Q 3050 2419 3304 2112 
Q 3559 1806 3559 1356 
Q 3559 666 3084 287 
Q 2609 -91 1734 -91 
Q 1441 -91 1130 -33 
Q 819 25 488 141 
L 488 750 
Q 750 597 1062 519 
Q 1375 441 1716 441 
Q 2309 441 2620 675 
Q 2931 909 2931 1356 
Q 2931 1769 2642 2001 
Q 2353 2234 1838 2234 
L 1294 2234 
L 1294 2753 
L 1863 2753 
Q 2328 2753 2575 2939 
Q 2822 3125 2822 3475 
Q 2822 3834 2567 4026 
Q 2313 4219 1838 4219 
Q 1578 4219 1281 4162 
Q 984 4106 628 3988 
L 628 4550 
Q 988 4650 1302 4700 
Q 1616 4750 1894 4750 
Q 2613 4750 3031 4423 
Q 3450 4097 3450 3541 
Q 3450 3153 3228 2886 
Q 3006 2619 2597 2516 
z
" transform="scale(0.015625)"/>
        <path id="DejaVuSans-34" d="M 2419 4116 
L 825 1625 
L 2419 1625 
L 2419 4116 
z
M 2253 4666 
L 3047 4666 
L 3047 1625 
L 3713 1625 
L 3713 1100 
L 3047 1100 
L 3047 0 
L 2419 0 
L 2419 1100 
L 313 1100 
L 313 1709 
L 2253 4666 
z
" transform="scale(0.015625)"/>
       </defs>
       <use xlink:href="#DejaVuSans-35"/>
       <use xlink:href="#DejaVuSans-38" x="63.623047"/>
       <use xlink:href="#DejaVuSans-33" x="127.246094"/>
       <use xlink:href="#DejaVuSans-34" x="190.869141"/>
       <use xlink:href="#DejaVuSans-32" x="254.492188"/>
      </g>
     </g>
    </g>
    <g id="xtick_3">
     <g id="line2d_5">
      <path d="M 157.636364 384.48 
L 157.636364 51.84 
" clip-path="url(#p2413293c90)" style="fill: none; stroke: #ffffff; stroke-width: 0.8; stroke-linecap: square"/>
     </g>
     <g id="line2d_6">
      <g>
       <use xlink:href="#m125bcd541a" x="157.636364" y="384.48" style="fill: #ffffff; stroke: #ffffff; stroke-width: 0.8"/>
      </g>
     </g>
     <g id="text_3">
      <!-- 60994 -->
      <g style="fill: #ffffff" transform="translate(148.340119 419.347741) rotate(-45) scale(0.1 -0.1)">
       <defs>
        <path id="DejaVuSans-36" d="M 2113 2584 
Q 1688 2584 1439 2293 
Q 1191 2003 1191 1497 
Q 1191 994 1439 701 
Q 1688 409 2113 409 
Q 2538 409 2786 701 
Q 3034 994 3034 1497 
Q 3034 2003 2786 2293 
Q 2538 2584 2113 2584 
z
M 3366 4563 
L 3366 3988 
Q 3128 4100 2886 4159 
Q 2644 4219 2406 4219 
Q 1781 4219 1451 3797 
Q 1122 3375 1075 2522 
Q 1259 2794 1537 2939 
Q 1816 3084 2150 3084 
Q 2853 3084 3261 2657 
Q 3669 2231 3669 1497 
Q 3669 778 3244 343 
Q 2819 -91 2113 -91 
Q 1303 -91 875 529 
Q 447 1150 447 2328 
Q 447 3434 972 4092 
Q 1497 4750 2381 4750 
Q 2619 4750 2861 4703 
Q 3103 4656 3366 4563 
z
" transform="scale(0.015625)"/>
        <path id="DejaVuSans-30" d="M 2034 4250 
Q 1547 4250 1301 3770 
Q 1056 3291 1056 2328 
Q 1056 1369 1301 889 
Q 1547 409 2034 409 
Q 2525 409 2770 889 
Q 3016 1369 3016 2328 
Q 3016 3291 2770 3770 
Q 2525 4250 2034 4250 
z
M 2034 4750 
Q 2819 4750 3233 4129 
Q 3647 3509 3647 2328 
Q 3647 1150 3233 529 
Q 2819 -91 2034 -91 
Q 1250 -91 836 529 
Q 422 1150 422 2328 
Q 422 3509 836 4129 
Q 1250 4750 2034 4750 
z
" transform="scale(0.015625)"/>
       </defs>
       <use xlink:href="#DejaVuSans-36"/>
       <use xlink:href="#DejaVuSans-30" x="63.623047"/>
       <use xlink:href="#DejaVuSans-39" x="127.246094"/>
       <use xlink:href="#DejaVuSans-39" x="190.869141"/>
       <use xlink:href="#DejaVuSans-34" x="254.492188"/>
      </g>
     </g>
    </g>
    <g id="xtick_4">
     <g id="line2d_7">
      <path d="M 178.772727 384.48 
L 178.772727 51.84 
" clip-path="url(#p2413293c90)" style="fill: none; stroke: #ffffff; stroke-width: 0.8; stroke-linecap: square"/>
     </g>
     <g id="line2d_8">
      <g>
       <use xlink:href="#m125bcd541a" x="178.772727" y="384.48" style="fill: #ffffff; stroke: #ffffff; stroke-width: 0.8"/>
      </g>
     </g>
     <g id="text_4">
      <!-- 63897 -->
      <g style="fill: #ffffff" transform="translate(169.476483 419.347741) rotate(-45) scale(0.1 -0.1)">
       <defs>
        <path id="DejaVuSans-37" d="M 525 4666 
L 3525 4666 
L 3525 4397 
L 1831 0 
L 1172 0 
L 2766 4134 
L 525 4134 
L 525 4666 
z
" transform="scale(0.015625)"/>
       </defs>
       <use xlink:href="#DejaVuSans-36"/>
       <use xlink:href="#DejaVuSans-33" x="63.623047"/>
       <use xlink:href="#DejaVuSans-38" x="127.246094"/>
       <use xlink:href="#DejaVuSans-39" x="190.869141"/>
       <use xlink:href="#DejaVuSans-37" x="254.492188"/>
      </g>
     </g>
    </g>
    <g id="xtick_5">
     <g id="line2d_9">
      <path d="M 199.909091 384.48 
L 199.909091 51.84 
" clip-path="url(#p2413293c90)" style="fill: none; stroke: #ffffff; stroke-width: 0.8; stroke-linecap: square"/>
     </g>
     <g id="line2d_10">
      <g>
       <use xlink:href="#m125bcd541a" x="199.909091" y="384.48" style="fill: #ffffff; stroke: #ffffff; stroke-width: 0.8"/>
      </g>
     </g>
     <g id="text_5">
      <!-- 67092 -->
      <g style="fill: #ffffff" transform="translate(190.612846 419.347741) rotate(-45) scale(0.1 -0.1)">
       <use xlink:href="#DejaVuSans-36"/>
       <use xlink:href="#DejaVuSans-37" x="63.623047"/>
       <use xlink:href="#DejaVuSans-30" x="127.246094"/>
       <use xlink:href="#DejaVuSans-39" x="190.869141"/>
       <use xlink:href="#DejaVuSans-32" x="254.492188"/>
      </g>
     </g>
    </g>
    <g id="xtick_6">
     <g id="line2d_11">
      <path d="M 221.045455 384.48 
L 221.045455 51.84 
" clip-path="url(#p2413293c90)" style="fill: none; stroke: #ffffff; stroke-width: 0.8; stroke-linecap: square"/>
     </g>
     <g id="line2d_12">
      <g>
       <use xlink:href="#m125bcd541a" x="221.045455" y="384.48" style="fill: #ffffff; stroke: #ffffff; stroke-width: 0.8"/>
      </g>
     </g>
     <g id="text_6">
      <!-- 70622 -->
      <g style="fill: #ffffff" transform="translate(211.74921 419.347741) rotate(-45) scale(0.1 -0.1)">
       <use xlink:href="#DejaVuSans-37"/>
       <use xlink:href="#DejaVuSans-30" x="63.623047"/>
       <use xlink:href="#DejaVuSans-36" x="127.246094"/>
       <use xlink:href="#DejaVuSans-32" x="190.869141"/>
       <use xlink:href="#DejaVuSans-32" x="254.492188"/>
      </g>
     </g>
    </g>
    <g id="xtick_7">
     <g id="line2d_13">
      <path d="M 242.181818 384.48 
L 242.181818 51.84 
" clip-path="url(#p2413293c90)" style="fill: none; stroke: #ffffff; stroke-width: 0.8; stroke-linecap: square"/>
     </g>
     <g id="line2d_14">
      <g>
       <use xlink:href="#m125bcd541a" x="242.181818" y="384.48" style="fill: #ffffff; stroke: #ffffff; stroke-width: 0.8"/>
      </g>
     </g>
     <g id="text_7">
      <!-- 74544 -->
      <g style="fill: #ffffff" transform="translate(232.885574 419.347741) rotate(-45) scale(0.1 -0.1)">
       <use xlink:href="#DejaVuSans-37"/>
       <use xlink:href="#DejaVuSans-34" x="63.623047"/>
       <use xlink:href="#DejaVuSans-35" x="127.246094"/>
       <use xlink:href="#DejaVuSans-34" x="190.869141"/>
       <use xlink:href="#DejaVuSans-34" x="254.492188"/>
      </g>
     </g>
    </g>
    <g id="xtick_8">
     <g id="line2d_15">
      <path d="M 263.318182 384.48 
L 263.318182 51.84 
" clip-path="url(#p2413293c90)" style="fill: none; stroke: #ffffff; stroke-width: 0.8; stroke-linecap: square"/>
     </g>
     <g id="line2d_16">
      <g>
       <use xlink:href="#m125bcd541a" x="263.318182" y="384.48" style="fill: #ffffff; stroke: #ffffff; stroke-width: 0.8"/>
      </g>
     </g>
     <g id="text_8">
      <!-- 78928 -->
      <g style="fill: #ffffff" transform="translate(254.021937 419.347741) rotate(-45) scale(0.1 -0.1)">
       <use xlink:href="#DejaVuSans-37"/>
       <use xlink:href="#DejaVuSans-38" x="63.623047"/>
       <use xlink:href="#DejaVuSans-39" x="127.246094"/>
       <use xlink:href="#DejaVuSans-32" x="190.869141"/>
       <use xlink:href="#DejaVuSans-38" x="254.492188"/>
      </g>
     </g>
    </g>
    <g id="xtick_9">
     <g id="line2d_17">
      <path d="M 284.454545 384.48 
L 284.454545 51.84 
" clip-path="url(#p2413293c90)" style="fill: none; stroke: #ffffff; stroke-width: 0.8; stroke-linecap: square"/>
     </g>
     <g id="line2d_18">
      <g>
       <use xlink:href="#m125bcd541a" x="284.454545" y="384.48" style="fill: #ffffff; stroke: #ffffff; stroke-width: 0.8"/>
      </g>
     </g>
     <g id="text_9">
      <!-- 83859 -->
      <g style="fill: #ffffff" transform="translate(275.158301 419.347741) rotate(-45) scale(0.1 -0.1)">
       <use xlink:href="#DejaVuSans-38"/>
       <use xlink:href="#DejaVuSans-33" x="63.623047"/>
       <use xlink:href="#DejaVuSans-38" x="127.246094"/>
       <use xlink:href="#DejaVuSans-35" x="190.869141"/>
       <use xlink:href="#DejaVuSans-39" x="254.492188"/>
      </g>
     </g>
    </g>
    <g id="xtick_10">
     <g id="line2d_19">
      <path d="M 305.590909 384.48 
L 305.590909 51.84 
" clip-path="url(#p2413293c90)" style="fill: none; stroke: #ffffff; stroke-width: 0.8; stroke-linecap: square"/>
     </g>
     <g id="line2d_20">
      <g>
       <use xlink:href="#m125bcd541a" x="305.590909" y="384.48" style="fill: #ffffff; stroke: #ffffff; stroke-width: 0.8"/>
      </g>
     </g>
     <g id="text_10">
      <!-- 89448 -->
      <g style="fill: #ffffff" transform="translate(296.294665 419.347741) rotate(-45) scale(0.1 -0.1)">
       <use xlink:href="#DejaVuSans-38"/>
       <use xlink:href="#DejaVuSans-39" x="63.623047"/>
       <use xlink:href="#DejaVuSans-34" x="127.246094"/>
       <use xlink:href="#DejaVuSans-34" x="190.869141"/>
       <use xlink:href="#DejaVuSans-38" x="254.492188"/>
      </g>
     </g>
    </g>
    <g id="xtick_11">
     <g id="line2d_21">
      <path d="M 326.727273 384.48 
L 326.727273 51.84 
" clip-path="url(#p2413293c90)" style="fill: none; stroke: #ffffff; stroke-width: 0.8; stroke-linecap: square"/>
     </g>
     <g id="line2d_22">
      <g>
       <use xlink:href="#m125bcd541a" x="326.727273" y="384.48" style="fill: #ffffff; stroke: #ffffff; stroke-width: 0.8"/>
      </g>
     </g>
     <g id="text_11">
      <!-- 95835 -->
      <g style="fill: #ffffff" transform="translate(317.431028 419.347741) rotate(-45) scale(0.1 -0.1)">
       <use xlink:href="#DejaVuSans-39"/>
       <use xlink:href="#DejaVuSans-35" x="63.623047"/>
       <use xlink:href="#DejaVuSans-38" x="127.246094"/>
       <use xlink:href="#DejaVuSans-33" x="190.869141"/>
       <use xlink:href="#DejaVuSans-35" x="254.492188"/>
      </g>
     </g>
    </g>
    <g id="xtick_12">
     <g id="line2d_23">
      <path d="M 347.863636 384.48 
L 347.863636 51.84 
" clip-path="url(#p2413293c90)" style="fill: none; stroke: #ffffff; stroke-width: 0.8; stroke-linecap: square"/>
     </g>
     <g id="line2d_24">
      <g>
       <use xlink:href="#m125bcd541a" x="347.863636" y="384.48" style="fill: #ffffff; stroke: #ffffff; stroke-width: 0.8"/>
      </g>
     </g>
     <g id="text_12">
      <!-- 103204 -->
      <g style="fill: #ffffff" transform="translate(336.317908 423.846708) rotate(-45) scale(0.1 -0.1)">
       <use xlink:href="#DejaVuSans-31"/>
       <use xlink:href="#DejaVuSans-30" x="63.623047"/>
       <use xlink:href="#DejaVuSans-33" x="127.246094"/>
       <use xlink:href="#DejaVuSans-32" x="190.869141"/>
       <use xlink:href="#DejaVuSans-30" x="254.492188"/>
       <use xlink:href="#DejaVuSans-34" x="318.115234"/>
      </g>
     </g>
    </g>
    <g id="xtick_13">
     <g id="line2d_25">
      <path d="M 369 384.48 
L 369 51.84 
" clip-path="url(#p2413293c90)" style="fill: none; stroke: #ffffff; stroke-width: 0.8; stroke-linecap: square"/>
     </g>
     <g id="line2d_26">
      <g>
       <use xlink:href="#m125bcd541a" x="369" y="384.48" style="fill: #ffffff; stroke: #ffffff; stroke-width: 0.8"/>
      </g>
     </g>
     <g id="text_13">
      <!-- 111801 -->
      <g style="fill: #ffffff" transform="translate(357.454272 423.846708) rotate(-45) scale(0.1 -0.1)">
       <use xlink:href="#DejaVuSans-31"/>
       <use xlink:href="#DejaVuSans-31" x="63.623047"/>
       <use xlink:href="#DejaVuSans-31" x="127.246094"/>
       <use xlink:href="#DejaVuSans-38" x="190.869141"/>
       <use xlink:href="#DejaVuSans-30" x="254.492188"/>
       <use xlink:href="#DejaVuSans-31" x="318.115234"/>
      </g>
     </g>
    </g>
    <g id="xtick_14">
     <g id="line2d_27">
      <path d="M 390.136364 384.48 
L 390.136364 51.84 
" clip-path="url(#p2413293c90)" style="fill: none; stroke: #ffffff; stroke-width: 0.8; stroke-linecap: square"/>
     </g>
     <g id="line2d_28">
      <g>
       <use xlink:href="#m125bcd541a" x="390.136364" y="384.48" style="fill: #ffffff; stroke: #ffffff; stroke-width: 0.8"/>
      </g>
     </g>
     <g id="text_14">
      <!-- 121960 -->
      <g style="fill: #ffffff" transform="translate(378.590636 423.846708) rotate(-45) scale(0.1 -0.1)">
       <use xlink:href="#DejaVuSans-31"/>
       <use xlink:href="#DejaVuSans-32" x="63.623047"/>
       <use xlink:href="#DejaVuSans-31" x="127.246094"/>
       <use xlink:href="#DejaVuSans-39" x="190.869141"/>
       <use xlink:href="#DejaVuSans-36" x="254.492188"/>
       <use xlink:href="#DejaVuSans-30" x="318.115234"/>
      </g>
     </g>
    </g>
    <g id="xtick_15">
     <g id="line2d_29">
      <path d="M 411.272727 384.48 
L 411.272727 51.84 
" clip-path="url(#p2413293c90)" style="fill: none; stroke: #ffffff; stroke-width: 0.8; stroke-linecap: square"/>
     </g>
     <g id="line2d_30">
      <g>
       <use xlink:href="#m125bcd541a" x="411.272727" y="384.48" style="fill: #ffffff; stroke: #ffffff; stroke-width: 0.8"/>
      </g>
     </g>
     <g id="text_15">
      <!-- 134150 -->
      <g style="fill: #ffffff" transform="translate(399.726999 423.846708) rotate(-45) scale(0.1 -0.1)">
       <use xlink:href="#DejaVuSans-31"/>
       <use xlink:href="#DejaVuSans-33" x="63.623047"/>
       <use xlink:href="#DejaVuSans-34" x="127.246094"/>
       <use xlink:href="#DejaVuSans-31" x="190.869141"/>
       <use xlink:href="#DejaVuSans-35" x="254.492188"/>
       <use xlink:href="#DejaVuSans-30" x="318.115234"/>
      </g>
     </g>
    </g>
    <g id="xtick_16">
     <g id="line2d_31">
      <path d="M 432.409091 384.48 
L 432.409091 51.84 
" clip-path="url(#p2413293c90)" style="fill: none; stroke: #ffffff; stroke-width: 0.8; stroke-linecap: square"/>
     </g>
     <g id="line2d_32">
      <g>
       <use xlink:href="#m125bcd541a" x="432.409091" y="384.48" style="fill: #ffffff; stroke: #ffffff; stroke-width: 0.8"/>
      </g>
     </g>
     <g id="text_16">
      <!-- 149048 -->
      <g style="fill: #ffffff" transform="translate(420.863363 423.846708) rotate(-45) scale(0.1 -0.1)">
       <use xlink:href="#DejaVuSans-31"/>
       <use xlink:href="#DejaVuSans-34" x="63.623047"/>
       <use xlink:href="#DejaVuSans-39" x="127.246094"/>
       <use xlink:href="#DejaVuSans-30" x="190.869141"/>
       <use xlink:href="#DejaVuSans-34" x="254.492188"/>
       <use xlink:href="#DejaVuSans-38" x="318.115234"/>
      </g>
     </g>
    </g>
    <g id="xtick_17">
     <g id="line2d_33">
      <path d="M 453.545455 384.48 
L 453.545455 51.84 
" clip-path="url(#p2413293c90)" style="fill: none; stroke: #ffffff; stroke-width: 0.8; stroke-linecap: square"/>
     </g>
     <g id="line2d_34">
      <g>
       <use xlink:href="#m125bcd541a" x="453.545455" y="384.48" style="fill: #ffffff; stroke: #ffffff; stroke-width: 0.8"/>
      </g>
     </g>
     <g id="text_17">
      <!-- 167667 -->
      <g style="fill: #ffffff" transform="translate(441.999727 423.846708) rotate(-45) scale(0.1 -0.1)">
       <use xlink:href="#DejaVuSans-31"/>
       <use xlink:href="#DejaVuSans-36" x="63.623047"/>
       <use xlink:href="#DejaVuSans-37" x="127.246094"/>
       <use xlink:href="#DejaVuSans-36" x="190.869141"/>
       <use xlink:href="#DejaVuSans-36" x="254.492188"/>
       <use xlink:href="#DejaVuSans-37" x="318.115234"/>
      </g>
     </g>
    </g>
    <g id="xtick_18">
     <g id="line2d_35">
      <path d="M 474.681818 384.48 
L 474.681818 51.84 
" clip-path="url(#p2413293c90)" style="fill: none; stroke: #ffffff; stroke-width: 0.8; stroke-linecap: square"/>
     </g>
     <g id="line2d_36">
      <g>
       <use xlink:href="#m125bcd541a" x="474.681818" y="384.48" style="fill: #ffffff; stroke: #ffffff; stroke-width: 0.8"/>
      </g>
     </g>
     <g id="text_18">
      <!-- 191602 -->
      <g style="fill: #ffffff" transform="translate(463.13609 423.846708) rotate(-45) scale(0.1 -0.1)">
       <use xlink:href="#DejaVuSans-31"/>
       <use xlink:href="#DejaVuSans-39" x="63.623047"/>
       <use xlink:href="#DejaVuSans-31" x="127.246094"/>
       <use xlink:href="#DejaVuSans-36" x="190.869141"/>
       <use xlink:href="#DejaVuSans-30" x="254.492188"/>
       <use xlink:href="#DejaVuSans-32" x="318.115234"/>
      </g>
     </g>
    </g>
    <g id="xtick_19">
     <g id="line2d_37">
      <path d="M 495.818182 384.48 
L 495.818182 51.84 
" clip-path="url(#p2413293c90)" style="fill: none; stroke: #ffffff; stroke-width: 0.8; stroke-linecap: square"/>
     </g>
     <g id="line2d_38">
      <g>
       <use xlink:href="#m125bcd541a" x="495.818182" y="384.48" style="fill: #ffffff; stroke: #ffffff; stroke-width: 0.8"/>
      </g>
     </g>
     <g id="text_19">
      <!-- 223509 -->
      <g style="fill: #ffffff" transform="translate(484.272454 423.846708) rotate(-45) scale(0.1 -0.1)">
       <use xlink:href="#DejaVuSans-32"/>
       <use xlink:href="#DejaVuSans-32" x="63.623047"/>
       <use xlink:href="#DejaVuSans-33" x="127.246094"/>
       <use xlink:href="#DejaVuSans-35" x="190.869141"/>
       <use xlink:href="#DejaVuSans-30" x="254.492188"/>
       <use xlink:href="#DejaVuSans-39" x="318.115234"/>
      </g>
     </g>
    </g>
    <g id="xtick_20">
     <g id="line2d_39">
      <path d="M 516.954545 384.48 
L 516.954545 51.84 
" clip-path="url(#p2413293c90)" style="fill: none; stroke: #ffffff; stroke-width: 0.8; stroke-linecap: square"/>
     </g>
     <g id="line2d_40">
      <g>
       <use xlink:href="#m125bcd541a" x="516.954545" y="384.48" style="fill: #ffffff; stroke: #ffffff; stroke-width: 0.8"/>
      </g>
     </g>
     <g id="text_20">
      <!-- 268167 -->
      <g style="fill: #ffffff" transform="translate(505.408818 423.846708) rotate(-45) scale(0.1 -0.1)">
       <use xlink:href="#DejaVuSans-32"/>
       <use xlink:href="#DejaVuSans-36" x="63.623047"/>
       <use xlink:href="#DejaVuSans-38" x="127.246094"/>
       <use xlink:href="#DejaVuSans-31" x="190.869141"/>
       <use xlink:href="#DejaVuSans-36" x="254.492188"/>
       <use xlink:href="#DejaVuSans-37" x="318.115234"/>
      </g>
     </g>
    </g>
    <g id="xtick_21">
     <g id="line2d_41">
      <path d="M 538.090909 384.48 
L 538.090909 51.84 
" clip-path="url(#p2413293c90)" style="fill: none; stroke: #ffffff; stroke-width: 0.8; stroke-linecap: square"/>
     </g>
     <g id="line2d_42">
      <g>
       <use xlink:href="#m125bcd541a" x="538.090909" y="384.48" style="fill: #ffffff; stroke: #ffffff; stroke-width: 0.8"/>
      </g>
     </g>
     <g id="text_21">
      <!-- 335125 -->
      <g style="fill: #ffffff" transform="translate(526.545181 423.846708) rotate(-45) scale(0.1 -0.1)">
       <use xlink:href="#DejaVuSans-33"/>
       <use xlink:href="#DejaVuSans-33" x="63.623047"/>
       <use xlink:href="#DejaVuSans-35" x="127.246094"/>
       <use xlink:href="#DejaVuSans-31" x="190.869141"/>
       <use xlink:href="#DejaVuSans-32" x="254.492188"/>
       <use xlink:href="#DejaVuSans-35" x="318.115234"/>
      </g>
     </g>
    </g>
    <g id="xtick_22">
     <g id="line2d_43">
      <path d="M 559.227273 384.48 
L 559.227273 51.84 
" clip-path="url(#p2413293c90)" style="fill: none; stroke: #ffffff; stroke-width: 0.8; stroke-linecap: square"/>
     </g>
     <g id="line2d_44">
      <g>
       <use xlink:href="#m125bcd541a" x="559.227273" y="384.48" style="fill: #ffffff; stroke: #ffffff; stroke-width: 0.8"/>
      </g>
     </g>
     <g id="text_22">
      <!-- 446648 -->
      <g style="fill: #ffffff" transform="translate(547.681545 423.846708) rotate(-45) scale(0.1 -0.1)">
       <use xlink:href="#DejaVuSans-34"/>
       <use xlink:href="#DejaVuSans-34" x="63.623047"/>
       <use xlink:href="#DejaVuSans-36" x="127.246094"/>
       <use xlink:href="#DejaVuSans-36" x="190.869141"/>
       <use xlink:href="#DejaVuSans-34" x="254.492188"/>
       <use xlink:href="#DejaVuSans-38" x="318.115234"/>
      </g>
     </g>
    </g>
    <g id="xtick_23">
     <g id="line2d_45">
      <path d="M 580.363636 384.48 
L 580.363636 51.84 
" clip-path="url(#p2413293c90)" style="fill: none; stroke: #ffffff; stroke-width: 0.8; stroke-linecap: square"/>
     </g>
     <g id="line2d_46">
      <g>
       <use xlink:href="#m125bcd541a" x="580.363636" y="384.48" style="fill: #ffffff; stroke: #ffffff; stroke-width: 0.8"/>
      </g>
     </g>
     <g id="text_23">
      <!-- 669415 -->
      <g style="fill: #ffffff" transform="translate(568.817908 423.846708) rotate(-45) scale(0.1 -0.1)">
       <use xlink:href="#DejaVuSans-36"/>
       <use xlink:href="#DejaVuSans-36" x="63.623047"/>
       <use xlink:href="#DejaVuSans-39" x="127.246094"/>
       <use xlink:href="#DejaVuSans-34" x="190.869141"/>
       <use xlink:href="#DejaVuSans-31" x="254.492188"/>
       <use xlink:href="#DejaVuSans-35" x="318.115234"/>
      </g>
     </g>
    </g>
    <g id="xtick_24">
     <g id="line2d_47">
      <path d="M 601.5 384.48 
L 601.5 51.84 
" clip-path="url(#p2413293c90)" style="fill: none; stroke: #ffffff; stroke-width: 0.8; stroke-linecap: square"/>
     </g>
     <g id="line2d_48">
      <g>
       <use xlink:href="#m125bcd541a" x="601.5" y="384.48" style="fill: #ffffff; stroke: #ffffff; stroke-width: 0.8"/>
      </g>
     </g>
     <g id="text_24">
      <!-- 1335499 -->
      <g style="fill: #ffffff" transform="translate(587.704789 428.345675) rotate(-45) scale(0.1 -0.1)">
       <use xlink:href="#DejaVuSans-31"/>
       <use xlink:href="#DejaVuSans-33" x="63.623047"/>
       <use xlink:href="#DejaVuSans-33" x="127.246094"/>
       <use xlink:href="#DejaVuSans-35" x="190.869141"/>
       <use xlink:href="#DejaVuSans-34" x="254.492188"/>
       <use xlink:href="#DejaVuSans-39" x="318.115234"/>
       <use xlink:href="#DejaVuSans-39" x="381.738281"/>
      </g>
     </g>
    </g>
    <g id="xtick_25">
     <g id="line2d_49">
      <path d="M 622.636364 384.48 
L 622.636364 51.84 
" clip-path="url(#p2413293c90)" style="fill: none; stroke: #ffffff; stroke-width: 0.8; stroke-linecap: square"/>
     </g>
     <g id="line2d_50">
      <g>
       <use xlink:href="#m125bcd541a" x="622.636364" y="384.48" style="fill: #ffffff; stroke: #ffffff; stroke-width: 0.8"/>
      </g>
     </g>
     <g id="text_25">
      <!-- 268435456 -->
      <g style="fill: #ffffff" transform="translate(604.342185 437.343609) rotate(-45) scale(0.1 -0.1)">
       <use xlink:href="#DejaVuSans-32"/>
       <use xlink:href="#DejaVuSans-36" x="63.623047"/>
       <use xlink:href="#DejaVuSans-38" x="127.246094"/>
       <use xlink:href="#DejaVuSans-34" x="190.869141"/>
       <use xlink:href="#DejaVuSans-33" x="254.492188"/>
       <use xlink:href="#DejaVuSans-35" x="318.115234"/>
       <use xlink:href="#DejaVuSans-34" x="381.738281"/>
       <use xlink:href="#DejaVuSans-35" x="445.361328"/>
       <use xlink:href="#DejaVuSans-36" x="508.984375"/>
      </g>
     </g>
    </g>
    <g id="text_26">
     <!-- chunk_size -->
     <g style="fill: #ffffff" transform="translate(341.654688 450.412607) scale(0.1 -0.1)">
      <defs>
       <path id="DejaVuSans-63" d="M 3122 3366 
L 3122 2828 
Q 2878 2963 2633 3030 
Q 2388 3097 2138 3097 
Q 1578 3097 1268 2742 
Q 959 2388 959 1747 
Q 959 1106 1268 751 
Q 1578 397 2138 397 
Q 2388 397 2633 464 
Q 2878 531 3122 666 
L 3122 134 
Q 2881 22 2623 -34 
Q 2366 -91 2075 -91 
Q 1284 -91 818 406 
Q 353 903 353 1747 
Q 353 2603 823 3093 
Q 1294 3584 2113 3584 
Q 2378 3584 2631 3529 
Q 2884 3475 3122 3366 
z
" transform="scale(0.015625)"/>
       <path id="DejaVuSans-68" d="M 3513 2113 
L 3513 0 
L 2938 0 
L 2938 2094 
Q 2938 2591 2744 2837 
Q 2550 3084 2163 3084 
Q 1697 3084 1428 2787 
Q 1159 2491 1159 1978 
L 1159 0 
L 581 0 
L 581 4863 
L 1159 4863 
L 1159 2956 
Q 1366 3272 1645 3428 
Q 1925 3584 2291 3584 
Q 2894 3584 3203 3211 
Q 3513 2838 3513 2113 
z
" transform="scale(0.015625)"/>
       <path id="DejaVuSans-75" d="M 544 1381 
L 544 3500 
L 1119 3500 
L 1119 1403 
Q 1119 906 1312 657 
Q 1506 409 1894 409 
Q 2359 409 2629 706 
Q 2900 1003 2900 1516 
L 2900 3500 
L 3475 3500 
L 3475 0 
L 2900 0 
L 2900 538 
Q 2691 219 2414 64 
Q 2138 -91 1772 -91 
Q 1169 -91 856 284 
Q 544 659 544 1381 
z
M 1991 3584 
L 1991 3584 
z
" transform="scale(0.015625)"/>
       <path id="DejaVuSans-6e" d="M 3513 2113 
L 3513 0 
L 2938 0 
L 2938 2094 
Q 2938 2591 2744 2837 
Q 2550 3084 2163 3084 
Q 1697 3084 1428 2787 
Q 1159 2491 1159 1978 
L 1159 0 
L 581 0 
L 581 3500 
L 1159 3500 
L 1159 2956 
Q 1366 3272 1645 3428 
Q 1925 3584 2291 3584 
Q 2894 3584 3203 3211 
Q 3513 2838 3513 2113 
z
" transform="scale(0.015625)"/>
       <path id="DejaVuSans-6b" d="M 581 4863 
L 1159 4863 
L 1159 1991 
L 2875 3500 
L 3609 3500 
L 1753 1863 
L 3688 0 
L 2938 0 
L 1159 1709 
L 1159 0 
L 581 0 
L 581 4863 
z
" transform="scale(0.015625)"/>
       <path id="DejaVuSans-5f" d="M 3263 -1063 
L 3263 -1509 
L -63 -1509 
L -63 -1063 
L 3263 -1063 
z
" transform="scale(0.015625)"/>
       <path id="DejaVuSans-73" d="M 2834 3397 
L 2834 2853 
Q 2591 2978 2328 3040 
Q 2066 3103 1784 3103 
Q 1356 3103 1142 2972 
Q 928 2841 928 2578 
Q 928 2378 1081 2264 
Q 1234 2150 1697 2047 
L 1894 2003 
Q 2506 1872 2764 1633 
Q 3022 1394 3022 966 
Q 3022 478 2636 193 
Q 2250 -91 1575 -91 
Q 1294 -91 989 -36 
Q 684 19 347 128 
L 347 722 
Q 666 556 975 473 
Q 1284 391 1588 391 
Q 1994 391 2212 530 
Q 2431 669 2431 922 
Q 2431 1156 2273 1281 
Q 2116 1406 1581 1522 
L 1381 1569 
Q 847 1681 609 1914 
Q 372 2147 372 2553 
Q 372 3047 722 3315 
Q 1072 3584 1716 3584 
Q 2034 3584 2315 3537 
Q 2597 3491 2834 3397 
z
" transform="scale(0.015625)"/>
       <path id="DejaVuSans-69" d="M 603 3500 
L 1178 3500 
L 1178 0 
L 603 0 
L 603 3500 
z
M 603 4863 
L 1178 4863 
L 1178 4134 
L 603 4134 
L 603 4863 
z
" transform="scale(0.015625)"/>
       <path id="DejaVuSans-7a" d="M 353 3500 
L 3084 3500 
L 3084 2975 
L 922 459 
L 3084 459 
L 3084 0 
L 275 0 
L 275 525 
L 2438 3041 
L 353 3041 
L 353 3500 
z
" transform="scale(0.015625)"/>
       <path id="DejaVuSans-65" d="M 3597 1894 
L 3597 1613 
L 953 1613 
Q 991 1019 1311 708 
Q 1631 397 2203 397 
Q 2534 397 2845 478 
Q 3156 559 3463 722 
L 3463 178 
Q 3153 47 2828 -22 
Q 2503 -91 2169 -91 
Q 1331 -91 842 396 
Q 353 884 353 1716 
Q 353 2575 817 3079 
Q 1281 3584 2069 3584 
Q 2775 3584 3186 3129 
Q 3597 2675 3597 1894 
z
M 3022 2063 
Q 3016 2534 2758 2815 
Q 2500 3097 2075 3097 
Q 1594 3097 1305 2825 
Q 1016 2553 972 2059 
L 3022 2063 
z
" transform="scale(0.015625)"/>
      </defs>
      <use xlink:href="#DejaVuSans-63"/>
      <use xlink:href="#DejaVuSans-68" x="54.980469"/>
      <use xlink:href="#DejaVuSans-75" x="118.359375"/>
      <use xlink:href="#DejaVuSans-6e" x="181.738281"/>
      <use xlink:href="#DejaVuSans-6b" x="245.117188"/>
      <use xlink:href="#DejaVuSans-5f" x="303.027344"/>
      <use xlink:href="#DejaVuSans-73" x="353.027344"/>
      <use xlink:href="#DejaVuSans-69" x="405.126953"/>
      <use xlink:href="#DejaVuSans-7a" x="432.910156"/>
      <use xlink:href="#DejaVuSans-65" x="485.400391"/>
     </g>
    </g>
   </g>
   <g id="matplotlib.axis_2">
    <g id="ytick_1">
     <g id="line2d_51">
      <path d="M 90 337.352934 
L 648 337.352934 
" clip-path="url(#p2413293c90)" style="fill: none; stroke: #ffffff; stroke-width: 0.8; stroke-linecap: square"/>
     </g>
     <g id="line2d_52">
      <defs>
       <path id="m0ef509a99b" d="M 0 0 
L -3.5 0 
" style="stroke: #ffffff; stroke-width: 0.8"/>
      </defs>
      <g>
       <use xlink:href="#m0ef509a99b" x="90" y="337.352934" style="fill: #ffffff; stroke: #ffffff; stroke-width: 0.8"/>
      </g>
     </g>
     <g id="text_27">
      <!-- 200 -->
      <g style="fill: #ffffff" transform="translate(63.9125 341.152153) scale(0.1 -0.1)">
       <use xlink:href="#DejaVuSans-32"/>
       <use xlink:href="#DejaVuSans-30" x="63.623047"/>
       <use xlink:href="#DejaVuSans-30" x="127.246094"/>
      </g>
     </g>
    </g>
    <g id="ytick_2">
     <g id="line2d_53">
      <path d="M 90 264.751032 
L 648 264.751032 
" clip-path="url(#p2413293c90)" style="fill: none; stroke: #ffffff; stroke-width: 0.8; stroke-linecap: square"/>
     </g>
     <g id="line2d_54">
      <g>
       <use xlink:href="#m0ef509a99b" x="90" y="264.751032" style="fill: #ffffff; stroke: #ffffff; stroke-width: 0.8"/>
      </g>
     </g>
     <g id="text_28">
      <!-- 400 -->
      <g style="fill: #ffffff" transform="translate(63.9125 268.55025) scale(0.1 -0.1)">
       <use xlink:href="#DejaVuSans-34"/>
       <use xlink:href="#DejaVuSans-30" x="63.623047"/>
       <use xlink:href="#DejaVuSans-30" x="127.246094"/>
      </g>
     </g>
    </g>
    <g id="ytick_3">
     <g id="line2d_55">
      <path d="M 90 192.149129 
L 648 192.149129 
" clip-path="url(#p2413293c90)" style="fill: none; stroke: #ffffff; stroke-width: 0.8; stroke-linecap: square"/>
     </g>
     <g id="line2d_56">
      <g>
       <use xlink:href="#m0ef509a99b" x="90" y="192.149129" style="fill: #ffffff; stroke: #ffffff; stroke-width: 0.8"/>
      </g>
     </g>
     <g id="text_29">
      <!-- 600 -->
      <g style="fill: #ffffff" transform="translate(63.9125 195.948348) scale(0.1 -0.1)">
       <use xlink:href="#DejaVuSans-36"/>
       <use xlink:href="#DejaVuSans-30" x="63.623047"/>
       <use xlink:href="#DejaVuSans-30" x="127.246094"/>
      </g>
     </g>
    </g>
    <g id="ytick_4">
     <g id="line2d_57">
      <path d="M 90 119.547226 
L 648 119.547226 
" clip-path="url(#p2413293c90)" style="fill: none; stroke: #ffffff; stroke-width: 0.8; stroke-linecap: square"/>
     </g>
     <g id="line2d_58">
      <g>
       <use xlink:href="#m0ef509a99b" x="90" y="119.547226" style="fill: #ffffff; stroke: #ffffff; stroke-width: 0.8"/>
      </g>
     </g>
     <g id="text_30">
      <!-- 800 -->
      <g style="fill: #ffffff" transform="translate(63.9125 123.346445) scale(0.1 -0.1)">
       <use xlink:href="#DejaVuSans-38"/>
       <use xlink:href="#DejaVuSans-30" x="63.623047"/>
       <use xlink:href="#DejaVuSans-30" x="127.246094"/>
      </g>
     </g>
    </g>
    <g id="text_31">
     <!-- time (ms) -->
     <g style="fill: #ffffff" transform="translate(57.832812 242.421719) rotate(-90) scale(0.1 -0.1)">
      <defs>
       <path id="DejaVuSans-74" d="M 1172 4494 
L 1172 3500 
L 2356 3500 
L 2356 3053 
L 1172 3053 
L 1172 1153 
Q 1172 725 1289 603 
Q 1406 481 1766 481 
L 2356 481 
L 2356 0 
L 1766 0 
Q 1100 0 847 248 
Q 594 497 594 1153 
L 594 3053 
L 172 3053 
L 172 3500 
L 594 3500 
L 594 4494 
L 1172 4494 
z
" transform="scale(0.015625)"/>
       <path id="DejaVuSans-6d" d="M 3328 2828 
Q 3544 3216 3844 3400 
Q 4144 3584 4550 3584 
Q 5097 3584 5394 3201 
Q 5691 2819 5691 2113 
L 5691 0 
L 5113 0 
L 5113 2094 
Q 5113 2597 4934 2840 
Q 4756 3084 4391 3084 
Q 3944 3084 3684 2787 
Q 3425 2491 3425 1978 
L 3425 0 
L 2847 0 
L 2847 2094 
Q 2847 2600 2669 2842 
Q 2491 3084 2119 3084 
Q 1678 3084 1418 2786 
Q 1159 2488 1159 1978 
L 1159 0 
L 581 0 
L 581 3500 
L 1159 3500 
L 1159 2956 
Q 1356 3278 1631 3431 
Q 1906 3584 2284 3584 
Q 2666 3584 2933 3390 
Q 3200 3197 3328 2828 
z
" transform="scale(0.015625)"/>
       <path id="DejaVuSans-20" transform="scale(0.015625)"/>
       <path id="DejaVuSans-28" d="M 1984 4856 
Q 1566 4138 1362 3434 
Q 1159 2731 1159 2009 
Q 1159 1288 1364 580 
Q 1569 -128 1984 -844 
L 1484 -844 
Q 1016 -109 783 600 
Q 550 1309 550 2009 
Q 550 2706 781 3412 
Q 1013 4119 1484 4856 
L 1984 4856 
z
" transform="scale(0.015625)"/>
       <path id="DejaVuSans-29" d="M 513 4856 
L 1013 4856 
Q 1481 4119 1714 3412 
Q 1947 2706 1947 2009 
Q 1947 1309 1714 600 
Q 1481 -109 1013 -844 
L 513 -844 
Q 928 -128 1133 580 
Q 1338 1288 1338 2009 
Q 1338 2731 1133 3434 
Q 928 4138 513 4856 
z
" transform="scale(0.015625)"/>
      </defs>
      <use xlink:href="#DejaVuSans-74"/>
      <use xlink:href="#DejaVuSans-69" x="39.208984"/>
      <use xlink:href="#DejaVuSans-6d" x="66.992188"/>
      <use xlink:href="#DejaVuSans-65" x="164.404297"/>
      <use xlink:href="#DejaVuSans-20" x="225.927734"/>
      <use xlink:href="#DejaVuSans-28" x="257.714844"/>
      <use xlink:href="#DejaVuSans-6d" x="296.728516"/>
      <use xlink:href="#DejaVuSans-73" x="394.140625"/>
      <use xlink:href="#DejaVuSans-29" x="446.240234"/>
     </g>
    </g>
   </g>
   <g id="line2d_59">
    <path d="M 115.363636 103.386483 
L 117.904234 104.612342 
L 121.291698 105.971152 
L 124.679162 107.058907 
L 128.066626 107.923602 
L 132.300956 108.763909 
L 138.229018 109.659274 
L 148.39141 111.115222 
L 152.62574 111.9474 
L 156.013204 112.803154 
L 159.400668 113.876818 
L 163.634998 115.492177 
L 178.03172 121.289021 
L 181.419183 122.294825 
L 189.040977 124.444696 
L 191.581575 125.39589 
L 194.122173 126.590796 
L 196.662771 128.105268 
L 198.356503 129.329913 
L 200.050235 130.752772 
L 202.590833 133.270259 
L 205.131431 136.157462 
L 208.518895 140.381376 
L 216.140689 150.106745 
L 218.681287 153.003627 
L 221.221885 155.53443 
L 222.915617 156.970822 
L 224.609349 158.20745 
L 226.303081 159.254271 
L 227.996813 160.121237 
L 229.690545 160.818305 
L 232.231143 161.567121 
L 234.771741 161.989659 
L 237.312339 162.119516 
L 239.852937 161.990288 
L 242.393535 161.635577 
L 245.780999 160.892599 
L 254.249659 158.840528 
L 256.790256 158.503992 
L 259.330854 158.441046 
L 261.024586 158.591295 
L 262.718318 158.923467 
L 264.41205 159.458912 
L 266.105782 160.184115 
L 268.64638 161.545984 
L 272.033844 163.675183 
L 277.11504 166.926975 
L 279.655638 168.302885 
L 281.34937 169.041049 
L 283.043102 169.591878 
L 284.736834 169.917673 
L 286.430566 170.000037 
L 288.124298 169.867884 
L 289.81803 169.557245 
L 292.358628 168.835441 
L 295.746092 167.584619 
L 300.827288 165.675851 
L 303.367886 164.9703 
L 305.061618 164.674663 
L 306.75535 164.558078 
L 308.449082 164.623944 
L 310.142814 164.857439 
L 312.683412 165.488995 
L 315.22401 166.412882 
L 317.764608 167.578198 
L 321.152072 169.41953 
L 325.386402 172.013706 
L 339.783123 181.06599 
L 344.864319 183.953692 
L 349.098649 186.114169 
L 353.332979 188.036763 
L 359.261041 190.474214 
L 370.270299 194.941709 
L 374.504629 196.896939 
L 377.892093 198.656246 
L 381.279557 200.644273 
L 384.667021 202.912049 
L 388.054485 205.510598 
L 390.595083 207.70718 
L 393.982547 210.950935 
L 405.838671 222.756459 
L 408.379268 224.873838 
L 410.919866 226.676284 
L 413.460464 228.102806 
L 416.001062 229.185267 
L 418.54166 229.990514 
L 421.082258 230.585462 
L 425.316588 231.291445 
L 432.091516 232.365764 
L 434.632114 232.966537 
L 437.172712 233.760019 
L 439.71331 234.7894 
L 442.253908 236.097864 
L 444.794506 237.728597 
L 447.335104 239.724781 
L 449.875702 242.129601 
L 452.4163 244.98624 
L 454.956898 248.33235 
L 457.497496 252.106251 
L 461.731826 258.944457 
L 466.813022 267.19711 
L 469.35362 270.991584 
L 471.894218 274.36425 
L 473.58795 276.30407 
L 475.281682 277.945634 
L 476.975414 279.278399 
L 478.669146 280.340773 
L 480.362878 281.175068 
L 482.903475 282.091415 
L 485.444073 282.732576 
L 493.065867 284.432924 
L 494.759599 285.036815 
L 496.453331 285.813866 
L 498.993929 287.311297 
L 501.534527 289.098205 
L 510.850053 296.042476 
L 513.390651 297.474891 
L 515.084383 298.192573 
L 516.778115 298.67586 
L 518.471847 298.895901 
L 520.165579 298.875137 
L 521.859311 298.653485 
L 524.399909 298.031694 
L 527.787373 296.872226 
L 532.868569 295.073886 
L 535.409167 294.440104 
L 537.102899 294.207383 
L 538.796631 294.172308 
L 540.490363 294.34639 
L 542.184095 294.706775 
L 544.724693 295.541983 
L 547.265291 296.655747 
L 550.652755 298.428236 
L 559.121414 303.0572 
L 561.662012 304.172455 
L 565.049476 305.393708 
L 568.43694 306.376776 
L 572.67127 307.379575 
L 587.067992 310.570388 
L 594.689786 312.329411 
L 598.924116 313.109398 
L 602.31158 313.556062 
L 605.699044 313.79639 
L 609.086508 313.785412 
L 611.627106 313.585209 
L 614.167704 313.199381 
L 616.708302 312.608959 
L 619.2489 311.794971 
L 621.789498 310.738446 
L 622.636364 310.329095 
L 622.636364 310.329095 
" clip-path="url(#p2413293c90)" style="fill: none; stroke: #8dd3c7; stroke-width: 1.5; stroke-linecap: square"/>
   </g>
   <g id="line2d_60">
    <path d="M 115.363636 100.404869 
L 117.057368 100.132592 
L 118.7511 100.053445 
L 120.444832 100.152091 
L 122.138564 100.413193 
L 124.679162 101.075901 
L 127.21976 102.017864 
L 129.760358 103.187323 
L 133.147822 105.011016 
L 138.229018 108.063937 
L 144.15708 111.612747 
L 147.544544 113.395387 
L 150.085142 114.521378 
L 152.62574 115.409008 
L 155.166338 116.006515 
L 156.86007 116.218112 
L 158.553802 116.264027 
L 161.0944 116.067539 
L 166.175596 115.273294 
L 168.716194 114.980595 
L 170.409926 114.927706 
L 172.103658 115.041339 
L 173.79739 115.366688 
L 175.491122 115.948946 
L 177.184854 116.833307 
L 178.878586 118.064961 
L 180.572317 119.667857 
L 182.266049 121.595464 
L 184.806647 124.961972 
L 188.194111 130.01654 
L 194.122173 139.045242 
L 196.662771 142.451133 
L 198.356503 144.414372 
L 200.050235 146.060413 
L 201.743967 147.350426 
L 203.437699 148.315156 
L 205.131431 148.998879 
L 206.825163 149.44587 
L 208.518895 149.700405 
L 211.059493 149.818207 
L 215.293823 149.679509 
L 218.681287 149.665502 
L 221.221885 149.943987 
L 222.915617 150.334417 
L 225.456215 151.192976 
L 227.996813 152.299423 
L 232.231143 154.451115 
L 237.312339 157.029881 
L 239.852937 158.108955 
L 242.393535 158.928426 
L 244.934133 159.434795 
L 247.474731 159.68704 
L 250.862195 159.767812 
L 258.483988 159.81602 
L 261.024586 160.078487 
L 263.565184 160.598887 
L 266.105782 161.422481 
L 268.64638 162.487982 
L 272.88071 164.580966 
L 278.808772 167.545958 
L 281.34937 168.603673 
L 283.889968 169.416366 
L 286.430566 169.913387 
L 288.971164 170.107492 
L 291.511762 170.051214 
L 294.05236 169.797329 
L 297.439824 169.24265 
L 308.449082 167.173179 
L 310.98968 166.947443 
L 313.530278 166.923681 
L 316.070876 167.152295 
L 318.611474 167.683689 
L 320.305206 168.231051 
L 321.998938 168.950318 
L 323.69267 169.856422 
L 325.386402 170.964299 
L 327.080134 172.288805 
L 328.773866 173.83033 
L 331.314463 176.480084 
L 334.701927 180.457671 
L 344.017453 191.831306 
L 346.558051 194.487929 
L 349.098649 196.732235 
L 351.639247 198.536988 
L 354.179845 199.966539 
L 356.720443 201.089486 
L 359.261041 201.974424 
L 362.648505 202.902672 
L 371.964031 205.216694 
L 375.351495 206.346868 
L 378.738959 207.726265 
L 382.126423 209.399105 
L 384.667021 210.872911 
L 387.207619 212.555311 
L 389.748217 214.464962 
L 393.135681 217.36889 
L 398.216877 222.163351 
L 403.298073 226.890288 
L 405.838671 229.019637 
L 408.379268 230.881547 
L 410.919866 232.392499 
L 412.613598 233.168234 
L 415.154196 234.016929 
L 417.694794 234.582236 
L 421.082258 235.07921 
L 426.163454 235.78717 
L 428.704052 236.355 
L 431.24465 237.207381 
L 432.938382 237.985972 
L 435.47898 239.484346 
L 438.019578 241.283163 
L 442.253908 244.635502 
L 446.488238 247.967829 
L 449.028836 249.735431 
L 451.569434 251.188181 
L 453.263166 251.924791 
L 454.956898 252.443605 
L 456.65063 252.76852 
L 459.191228 252.989686 
L 463.425558 253.019713 
L 466.813022 253.140013 
L 469.35362 253.52032 
L 471.047352 253.995534 
L 472.741084 254.700072 
L 474.434816 255.678489 
L 476.128548 256.966964 
L 477.82228 258.549493 
L 479.516012 260.390013 
L 482.05661 263.555554 
L 484.597207 267.098497 
L 488.831537 273.511129 
L 494.759599 282.607337 
L 498.147063 287.349983 
L 500.687661 290.553226 
L 503.228259 293.423089 
L 505.768857 295.933082 
L 508.309455 298.056713 
L 510.003187 299.24474 
L 511.696919 300.241429 
L 513.390651 301.03893 
L 515.084383 301.629394 
L 516.778115 302.004972 
L 518.471847 302.162236 
L 520.165579 302.121974 
L 521.859311 301.913224 
L 524.399909 301.347717 
L 527.787373 300.275083 
L 535.409167 297.663 
L 537.949765 297.079718 
L 540.490363 296.786277 
L 543.030961 296.781962 
L 545.571559 297.042003 
L 548.112157 297.541625 
L 550.652755 298.256055 
L 553.193353 299.160516 
L 556.580817 300.619251 
L 559.96828 302.312999 
L 565.049476 305.140057 
L 572.67127 309.435969 
L 576.058734 311.136465 
L 579.446198 312.581772 
L 581.986796 313.446916 
L 584.527394 314.116688 
L 587.914858 314.736676 
L 591.302322 315.084286 
L 594.689786 315.202794 
L 598.924116 315.094682 
L 604.005312 314.700689 
L 620.942632 313.122019 
L 622.636364 313.080541 
L 622.636364 313.080541 
" clip-path="url(#p2413293c90)" style="fill: none; stroke: #feffb3; stroke-width: 1.5; stroke-linecap: square"/>
   </g>
   <g id="line2d_61">
    <path d="M 115.363636 106.600029 
L 117.057368 104.341495 
L 118.7511 102.515395 
L 120.444832 101.095874 
L 122.138564 100.057075 
L 123.832296 99.373139 
L 125.526028 99.018211 
L 127.21976 98.966434 
L 128.913492 99.19195 
L 130.607224 99.668904 
L 132.300956 100.371437 
L 133.994688 101.273694 
L 136.535286 102.944998 
L 139.075884 104.920235 
L 142.463348 107.875835 
L 151.778874 116.30106 
L 154.319472 118.267286 
L 156.86007 119.926575 
L 158.553802 120.820584 
L 161.0944 121.849594 
L 163.634998 122.587161 
L 167.022462 123.281575 
L 173.79739 124.52474 
L 176.337988 125.231401 
L 178.878586 126.217139 
L 181.419183 127.544409 
L 183.959781 129.160436 
L 187.347245 131.629176 
L 198.356503 139.997895 
L 200.897101 141.542033 
L 203.437699 142.829626 
L 205.978297 143.904503 
L 209.365761 145.090875 
L 214.446957 146.575836 
L 220.375019 148.326105 
L 223.762483 149.544762 
L 227.996813 151.308952 
L 234.771741 154.429906 
L 242.393535 157.88653 
L 247.474731 159.903836 
L 253.402793 161.980073 
L 261.024586 164.372533 
L 269.493246 166.827163 
L 273.727576 167.804019 
L 277.11504 168.341682 
L 279.655638 168.556755 
L 282.196236 168.577715 
L 284.736834 168.375049 
L 287.277432 167.942786 
L 290.664896 167.118106 
L 299.133556 164.899757 
L 301.674154 164.492865 
L 304.214752 164.336625 
L 305.908484 164.40815 
L 307.602216 164.636236 
L 310.142814 165.250139 
L 312.683412 166.152384 
L 315.22401 167.300458 
L 318.611474 169.140146 
L 321.998938 171.240515 
L 327.927 175.240992 
L 348.251783 189.092201 
L 356.720443 194.771707 
L 360.107907 197.300109 
L 363.495371 200.114075 
L 366.035969 202.46767 
L 368.576567 205.073072 
L 371.964031 208.959893 
L 380.432691 219.053106 
L 382.973289 221.63013 
L 384.667021 223.106768 
L 386.360753 224.343357 
L 388.054485 225.299656 
L 389.748217 225.935425 
L 391.441949 226.217433 
L 393.135681 226.169389 
L 394.829413 225.842687 
L 396.523145 225.288905 
L 399.063743 224.14528 
L 403.298073 221.834512 
L 406.685537 220.085838 
L 408.379268 219.386652 
L 410.073 218.873002 
L 411.766732 218.596208 
L 413.460464 218.586192 
L 415.154196 218.835776 
L 416.847928 219.334086 
L 418.54166 220.070247 
L 420.235392 221.033384 
L 421.929124 222.212622 
L 423.622856 223.597087 
L 426.163454 226.034793 
L 428.704052 228.873086 
L 431.24465 232.075263 
L 433.785248 235.601568 
L 438.866444 243.182562 
L 443.100774 249.319547 
L 445.641372 252.607719 
L 447.335104 254.541834 
L 449.028836 256.217008 
L 450.722568 257.588205 
L 452.4163 258.610389 
L 454.110032 259.239222 
L 455.803764 259.472194 
L 457.497496 259.371635 
L 459.191228 259.005449 
L 461.731826 258.106666 
L 468.506754 255.277903 
L 470.200486 254.84035 
L 471.894218 254.646465 
L 473.58795 254.764153 
L 475.281682 255.26046 
L 476.975414 256.157886 
L 478.669146 257.413602 
L 480.362878 258.979579 
L 482.05661 260.807783 
L 484.597207 263.936698 
L 487.984671 268.578088 
L 494.759599 278.029642 
L 497.300197 281.142406 
L 499.840795 283.867807 
L 502.381393 286.215205 
L 504.921991 288.196052 
L 507.462589 289.8218 
L 510.003187 291.103903 
L 512.543785 292.053813 
L 515.084383 292.682983 
L 517.624981 293.003079 
L 520.165579 293.048487 
L 523.553043 292.815387 
L 532.021703 291.962022 
L 534.562301 291.964244 
L 537.102899 292.230571 
L 538.796631 292.594575 
L 541.337229 293.431431 
L 543.877827 294.561172 
L 546.418425 295.917716 
L 549.805889 297.965031 
L 559.121414 303.789618 
L 562.508878 305.541808 
L 565.896342 307.017657 
L 569.283806 308.24836 
L 572.67127 309.265114 
L 576.9056 310.282713 
L 581.13993 311.075628 
L 586.221126 311.790229 
L 591.302322 312.25558 
L 596.383518 312.473895 
L 601.464714 312.447392 
L 606.54591 312.178285 
L 611.627106 311.668791 
L 616.708302 310.921126 
L 621.789498 309.937505 
L 622.636364 309.750784 
L 622.636364 309.750784 
" clip-path="url(#p2413293c90)" style="fill: none; stroke: #bfbbd9; stroke-width: 1.5; stroke-linecap: square"/>
   </g>
   <g id="line2d_62">
    <path d="M 115.363636 108.319285 
L 117.057368 107.504192 
L 118.7511 106.91052 
L 120.444832 106.524757 
L 122.138564 106.333394 
L 123.832296 106.322921 
L 125.526028 106.479827 
L 128.066626 106.99947 
L 130.607224 107.819722 
L 133.147822 108.894988 
L 136.535286 110.646554 
L 139.92275 112.662335 
L 145.850812 116.500634 
L 150.932008 119.732104 
L 154.319472 121.665025 
L 156.86007 122.921645 
L 159.400668 123.966966 
L 161.941266 124.811313 
L 165.32873 125.695266 
L 169.56306 126.549278 
L 178.03172 128.147863 
L 181.419183 129.008078 
L 185.653513 130.336904 
L 189.887843 131.902105 
L 194.969039 134.023489 
L 201.743967 137.126619 
L 209.365761 140.869371 
L 216.140689 144.448576 
L 222.068751 147.807631 
L 238.159205 157.183345 
L 242.393535 159.313101 
L 246.627865 161.165437 
L 250.862195 162.76964 
L 255.94339 164.43496 
L 261.871452 166.124915 
L 269.493246 168.070957 
L 277.11504 169.781338 
L 283.889968 171.057862 
L 289.81803 171.961455 
L 296.592958 172.779525 
L 305.061618 173.560686 
L 315.22401 174.447596 
L 319.45834 175.043473 
L 322.845804 175.712724 
L 326.233268 176.606338 
L 329.620732 177.762428 
L 333.008195 179.150586 
L 337.242525 181.125672 
L 344.017453 184.57869 
L 352.486113 188.84735 
L 358.414175 191.915324 
L 361.801639 193.881497 
L 365.189103 196.102417 
L 367.729701 197.983317 
L 370.270299 200.083543 
L 373.657763 203.166728 
L 381.279557 210.266275 
L 383.820155 212.36461 
L 386.360753 214.179725 
L 388.054485 215.18827 
L 389.748217 216.00466 
L 391.441949 216.606801 
L 393.135681 217.008505 
L 395.676279 217.30367 
L 398.216877 217.32411 
L 402.451207 217.035338 
L 406.685537 216.767974 
L 409.226134 216.821809 
L 410.919866 217.01235 
L 412.613598 217.35941 
L 415.154196 218.166303 
L 417.694794 219.272687 
L 420.235392 220.62884 
L 423.622856 222.739631 
L 427.857186 225.698678 
L 439.71331 234.213395 
L 449.028836 240.511163 
L 462.578692 249.584758 
L 466.813022 252.750445 
L 470.200486 255.539989 
L 473.58795 258.625472 
L 476.975414 262.061549 
L 480.362878 265.817196 
L 484.597207 270.831892 
L 500.687661 290.302986 
L 504.921991 294.8496 
L 508.309455 298.166204 
L 511.696919 301.143992 
L 514.237517 303.125133 
L 516.778115 304.866838 
L 519.318713 306.351281 
L 521.859311 307.575948 
L 524.399909 308.54304 
L 526.940507 309.254757 
L 529.481105 309.713299 
L 532.021703 309.920868 
L 534.562301 309.879663 
L 537.102899 309.591887 
L 539.643497 309.062429 
L 543.030961 308.060514 
L 554.040219 304.45012 
L 556.580817 303.972067 
L 559.121414 303.781096 
L 560.815146 303.844217 
L 563.355744 304.209889 
L 565.896342 304.855066 
L 568.43694 305.728349 
L 571.824404 307.158723 
L 576.9056 309.626804 
L 582.833662 312.510273 
L 587.067992 314.330448 
L 590.455456 315.585906 
L 593.84292 316.626647 
L 597.230384 317.419133 
L 600.617848 317.929826 
L 603.158446 318.107745 
L 605.699044 318.094142 
L 608.239642 317.874869 
L 610.78024 317.435777 
L 613.320838 316.762717 
L 615.861436 315.84154 
L 618.402034 314.658098 
L 620.942632 313.198242 
L 622.636364 312.064455 
L 622.636364 312.064455 
" clip-path="url(#p2413293c90)" style="fill: none; stroke: #fa8174; stroke-width: 1.5; stroke-linecap: square"/>
   </g>
   <g id="line2d_63">
    <path d="M 115.363636 102.329778 
L 117.057368 104.424334 
L 118.7511 106.195131 
L 120.444832 107.666122 
L 122.138564 108.861264 
L 123.832296 109.804514 
L 125.526028 110.519825 
L 127.21976 111.031155 
L 128.913492 111.362459 
L 131.45409 111.574268 
L 133.994688 111.51577 
L 137.382152 111.157036 
L 145.850812 110.04432 
L 148.39141 109.981255 
L 150.932008 110.186887 
L 152.62574 110.513177 
L 154.319472 111.018777 
L 156.013204 111.727642 
L 157.706936 112.663728 
L 159.400668 113.838678 
L 161.941266 115.976355 
L 164.481864 118.440087 
L 174.644256 128.759992 
L 177.184854 130.757318 
L 178.878586 131.812713 
L 180.572317 132.615174 
L 182.266049 133.193706 
L 183.959781 133.588522 
L 186.500379 133.924248 
L 190.734709 134.134916 
L 194.122173 134.351392 
L 196.662771 134.752839 
L 198.356503 135.209725 
L 200.050235 135.864924 
L 201.743967 136.743014 
L 203.437699 137.819806 
L 205.978297 139.733897 
L 209.365761 142.667174 
L 216.987555 149.546414 
L 219.528153 151.521353 
L 222.068751 153.149784 
L 224.609349 154.395952 
L 227.149947 155.321997 
L 229.690545 155.99653 
L 233.078009 156.623251 
L 243.240401 158.177814 
L 246.627865 159.059019 
L 250.015329 160.176815 
L 253.402793 161.502284 
L 257.637122 163.407104 
L 262.718318 165.982036 
L 275.421308 172.701505 
L 278.808772 174.135151 
L 281.34937 175.000475 
L 283.889968 175.642653 
L 286.430566 176.028563 
L 288.971164 176.170957 
L 291.511762 176.10446 
L 294.899226 175.750942 
L 298.28669 175.170263 
L 303.367886 174.053567 
L 310.142814 172.553181 
L 313.530278 172.032597 
L 316.070876 171.839339 
L 318.611474 171.870575 
L 321.152072 172.17624 
L 322.845804 172.557136 
L 324.539536 173.096989 
L 326.233268 173.810594 
L 327.927 174.710505 
L 330.467598 176.38391 
L 333.008195 178.376644 
L 336.395659 181.395798 
L 341.476855 186.325781 
L 346.558051 191.183658 
L 349.945515 194.081243 
L 352.486113 196.001605 
L 355.026711 197.6979 
L 357.567309 199.16445 
L 360.107907 200.395576 
L 362.648505 201.3856 
L 365.189103 202.128843 
L 367.729701 202.619628 
L 370.270299 202.854402 
L 373.657763 202.856 
L 381.279557 202.660964 
L 383.820155 202.877782 
L 385.513887 203.183969 
L 387.207619 203.652811 
L 388.901351 204.312888 
L 390.595083 205.192571 
L 392.288815 206.299621 
L 394.829413 208.319521 
L 397.370011 210.668323 
L 401.604341 215.001342 
L 406.685537 220.234898 
L 409.226134 222.597054 
L 411.766732 224.636287 
L 414.30733 226.295863 
L 416.847928 227.650681 
L 420.235392 229.143824 
L 427.857186 232.269334 
L 430.397784 233.569919 
L 432.938382 235.154634 
L 435.47898 237.060503 
L 438.866444 239.952565 
L 447.335104 247.462058 
L 449.875702 249.381777 
L 452.4163 250.969233 
L 454.110032 251.793808 
L 455.803764 252.424036 
L 458.344362 253.091544 
L 461.731826 253.686773 
L 465.966156 254.436718 
L 468.506754 255.145658 
L 470.200486 255.815017 
L 471.894218 256.691505 
L 473.58795 257.817758 
L 475.281682 259.235788 
L 476.975414 260.955152 
L 478.669146 262.937814 
L 481.209744 266.313997 
L 484.597207 271.346738 
L 493.912733 285.728826 
L 496.453331 289.130766 
L 498.993929 292.085204 
L 501.534527 294.573863 
L 503.228259 295.969767 
L 504.921991 297.152005 
L 506.615723 298.117914 
L 508.309455 298.864834 
L 510.003187 299.390101 
L 511.696919 299.691056 
L 513.390651 299.765036 
L 515.084383 299.609379 
L 516.778115 299.221425 
L 518.471847 298.604006 
L 520.165579 297.790063 
L 522.706177 296.295158 
L 526.940507 293.433038 
L 530.327971 291.19863 
L 532.868569 289.781895 
L 534.562301 289.04178 
L 536.256033 288.51557 
L 537.949765 288.246469 
L 539.643497 288.268977 
L 541.337229 288.572854 
L 543.030961 289.13352 
L 544.724693 289.926388 
L 546.418425 290.926872 
L 548.959023 292.763095 
L 551.499621 294.928154 
L 554.887085 298.183003 
L 560.815146 304.340249 
L 565.896342 309.487855 
L 569.283806 312.612931 
L 571.824404 314.703543 
L 574.365002 316.516339 
L 576.9056 317.996609 
L 578.599332 318.771701 
L 580.293064 319.358476 
L 581.986796 319.745899 
L 583.680528 319.946389 
L 585.37426 319.979008 
L 587.914858 319.754884 
L 590.455456 319.260284 
L 593.84292 318.291285 
L 598.07725 316.797035 
L 604.005312 314.710598 
L 607.392776 313.800835 
L 609.933374 313.3701 
L 612.473972 313.2265 
L 614.167704 313.322058 
L 615.861436 313.592891 
L 617.555168 314.058062 
L 619.2489 314.736634 
L 620.942632 315.647672 
L 622.636364 316.810238 
L 622.636364 316.810238 
" clip-path="url(#p2413293c90)" style="fill: none; stroke: #81b1d2; stroke-width: 1.5; stroke-linecap: square"/>
   </g>
   <g id="line2d_64">
    <path d="M 115.363636 100.023053 
L 117.057368 102.952383 
L 118.7511 105.427406 
L 120.444832 107.483564 
L 122.138564 109.156301 
L 123.832296 110.481058 
L 125.526028 111.49328 
L 127.21976 112.228409 
L 128.913492 112.721887 
L 130.607224 113.009158 
L 133.147822 113.130957 
L 135.68842 112.988155 
L 145.003946 112.133856 
L 146.697678 112.229869 
L 148.39141 112.491825 
L 150.085142 112.955166 
L 151.778874 113.655335 
L 153.472606 114.627776 
L 155.166338 115.90793 
L 156.86007 117.531242 
L 158.553802 119.529982 
L 160.247534 121.875995 
L 162.788132 125.865399 
L 171.256792 139.816333 
L 172.950524 142.094984 
L 174.644256 144.006476 
L 176.337988 145.466534 
L 177.184854 146.000938 
L 178.03172 146.39088 
L 178.878586 146.625833 
L 179.725452 146.700875 
L 180.572317 146.626572 
L 181.419183 146.416142 
L 183.112915 145.639771 
L 184.806647 144.477502 
L 186.500379 143.035078 
L 189.887843 139.732729 
L 192.428441 137.307011 
L 194.122173 135.912436 
L 195.815905 134.819284 
L 197.509637 134.133294 
L 198.356503 133.97603 
L 199.203369 133.96021 
L 200.050235 134.099032 
L 200.897101 134.399099 
L 201.743967 134.850852 
L 203.437699 136.161437 
L 205.131431 137.934846 
L 206.825163 140.075134 
L 209.365761 143.763587 
L 216.140689 154.117205 
L 217.834421 156.303584 
L 219.528153 158.137265 
L 221.221885 159.522337 
L 222.915617 160.399951 
L 224.609349 160.820054 
L 226.303081 160.852454 
L 227.996813 160.566959 
L 229.690545 160.033377 
L 232.231143 158.920545 
L 238.159205 156.087434 
L 239.852937 155.531294 
L 241.546669 155.215722 
L 243.240401 155.206264 
L 244.934133 155.510625 
L 246.627865 156.094821 
L 248.321597 156.923946 
L 250.015329 157.963098 
L 252.555927 159.839273 
L 255.94339 162.750161 
L 264.41205 170.344365 
L 266.952648 172.265326 
L 269.493246 173.906828 
L 272.033844 175.22926 
L 273.727576 175.914058 
L 275.421308 176.427707 
L 277.11504 176.758469 
L 278.808772 176.894608 
L 280.502504 176.824387 
L 282.196236 176.536071 
L 283.889968 176.017922 
L 285.5837 175.260969 
L 287.277432 174.288381 
L 289.81803 172.52133 
L 293.205494 169.822326 
L 298.28669 165.758015 
L 300.827288 164.042323 
L 302.52102 163.117143 
L 304.214752 162.418479 
L 305.908484 161.990509 
L 307.602216 161.859288 
L 309.295948 162.008993 
L 310.98968 162.417904 
L 312.683412 163.0643 
L 314.377144 163.926462 
L 316.070876 164.98267 
L 318.611474 166.883303 
L 321.152072 169.098361 
L 324.539536 172.414177 
L 329.620732 177.816298 
L 336.395659 185.064411 
L 339.783123 188.419019 
L 343.170587 191.423519 
L 345.711185 193.370221 
L 348.251783 194.994184 
L 350.792381 196.265746 
L 353.332979 197.217013 
L 355.873577 197.889797 
L 358.414175 198.325911 
L 360.954773 198.567166 
L 364.342237 198.657994 
L 369.423433 198.500899 
L 375.351495 198.326813 
L 377.892093 198.433227 
L 380.432691 198.739082 
L 382.973289 199.307258 
L 384.667021 199.86283 
L 386.360753 200.581567 
L 388.054485 201.482101 
L 389.748217 202.583065 
L 391.441949 203.89882 
L 393.982547 206.225493 
L 396.523145 208.864168 
L 401.604341 214.574216 
L 405.838671 219.175229 
L 408.379268 221.606194 
L 410.073 223.011815 
L 411.766732 224.202257 
L 413.460464 225.168417 
L 416.001062 226.284302 
L 418.54166 227.132093 
L 425.316588 229.210928 
L 427.857186 230.345543 
L 429.550918 231.328648 
L 431.24465 232.544418 
L 432.938382 234.036313 
L 434.632114 235.811725 
L 437.172712 238.891568 
L 440.560176 243.475569 
L 445.641372 250.445237 
L 448.18197 253.553883 
L 449.875702 255.355882 
L 451.569434 256.874793 
L 453.263166 258.053407 
L 454.956898 258.846703 
L 456.65063 259.290693 
L 458.344362 259.454442 
L 460.038094 259.407114 
L 462.578692 259.09165 
L 466.813022 258.490311 
L 468.506754 258.425055 
L 470.200486 258.563704 
L 471.894218 258.975423 
L 473.58795 259.729374 
L 475.281682 260.893737 
L 476.975414 262.485544 
L 478.669146 264.446838 
L 480.362878 266.713683 
L 482.903475 270.547001 
L 487.137805 277.557874 
L 491.372135 284.480473 
L 493.912733 288.176084 
L 495.606465 290.315814 
L 497.300197 292.131796 
L 498.993929 293.62883 
L 500.687661 294.83296 
L 502.381393 295.770258 
L 504.075125 296.466798 
L 505.768857 296.948652 
L 507.462589 297.241893 
L 510.003187 297.385139 
L 512.543785 297.250665 
L 515.931249 296.791448 
L 529.481105 294.598824 
L 532.868569 294.369161 
L 535.409167 294.370612 
L 537.949765 294.554507 
L 540.490363 294.943447 
L 543.030961 295.524085 
L 546.418425 296.555065 
L 549.805889 297.827472 
L 554.040219 299.670976 
L 559.96828 302.525429 
L 570.977538 307.867774 
L 576.058734 310.075373 
L 580.293064 311.672393 
L 583.680528 312.747293 
L 587.067992 313.628558 
L 590.455456 314.310138 
L 593.84292 314.785982 
L 597.230384 315.05004 
L 600.617848 315.096261 
L 604.005312 314.918595 
L 607.392776 314.510991 
L 610.78024 313.867399 
L 614.167704 312.981768 
L 617.555168 311.848047 
L 620.942632 310.460186 
L 622.636364 309.669062 
L 622.636364 309.669062 
" clip-path="url(#p2413293c90)" style="fill: none; stroke: #fdb462; stroke-width: 1.5; stroke-linecap: square"/>
   </g>
   <g id="patch_3">
    <path d="M 90 384.48 
L 90 51.84 
" style="fill: none; stroke: #ffffff; stroke-width: 0.8; stroke-linejoin: miter; stroke-linecap: square"/>
   </g>
   <g id="patch_4">
    <path d="M 648 384.48 
L 648 51.84 
" style="fill: none; stroke: #ffffff; stroke-width: 0.8; stroke-linejoin: miter; stroke-linecap: square"/>
   </g>
   <g id="patch_5">
    <path d="M 90 384.48 
L 648 384.48 
" style="fill: none; stroke: #ffffff; stroke-width: 0.8; stroke-linejoin: miter; stroke-linecap: square"/>
   </g>
   <g id="patch_6">
    <path d="M 90 51.84 
L 648 51.84 
" style="fill: none; stroke: #ffffff; stroke-width: 0.8; stroke-linejoin: miter; stroke-linecap: square"/>
   </g>
   <g id="text_32">
    <!-- caio.python_aio_asyncio - read (Time vs Chunk Size) -->
    <g style="fill: #ffffff" transform="translate(211.544062 45.84) scale(0.12 -0.12)">
     <defs>
      <path id="DejaVuSans-61" d="M 2194 1759 
Q 1497 1759 1228 1600 
Q 959 1441 959 1056 
Q 959 750 1161 570 
Q 1363 391 1709 391 
Q 2188 391 2477 730 
Q 2766 1069 2766 1631 
L 2766 1759 
L 2194 1759 
z
M 3341 1997 
L 3341 0 
L 2766 0 
L 2766 531 
Q 2569 213 2275 61 
Q 1981 -91 1556 -91 
Q 1019 -91 701 211 
Q 384 513 384 1019 
Q 384 1609 779 1909 
Q 1175 2209 1959 2209 
L 2766 2209 
L 2766 2266 
Q 2766 2663 2505 2880 
Q 2244 3097 1772 3097 
Q 1472 3097 1187 3025 
Q 903 2953 641 2809 
L 641 3341 
Q 956 3463 1253 3523 
Q 1550 3584 1831 3584 
Q 2591 3584 2966 3190 
Q 3341 2797 3341 1997 
z
" transform="scale(0.015625)"/>
      <path id="DejaVuSans-6f" d="M 1959 3097 
Q 1497 3097 1228 2736 
Q 959 2375 959 1747 
Q 959 1119 1226 758 
Q 1494 397 1959 397 
Q 2419 397 2687 759 
Q 2956 1122 2956 1747 
Q 2956 2369 2687 2733 
Q 2419 3097 1959 3097 
z
M 1959 3584 
Q 2709 3584 3137 3096 
Q 3566 2609 3566 1747 
Q 3566 888 3137 398 
Q 2709 -91 1959 -91 
Q 1206 -91 779 398 
Q 353 888 353 1747 
Q 353 2609 779 3096 
Q 1206 3584 1959 3584 
z
" transform="scale(0.015625)"/>
      <path id="DejaVuSans-2e" d="M 684 794 
L 1344 794 
L 1344 0 
L 684 0 
L 684 794 
z
" transform="scale(0.015625)"/>
      <path id="DejaVuSans-70" d="M 1159 525 
L 1159 -1331 
L 581 -1331 
L 581 3500 
L 1159 3500 
L 1159 2969 
Q 1341 3281 1617 3432 
Q 1894 3584 2278 3584 
Q 2916 3584 3314 3078 
Q 3713 2572 3713 1747 
Q 3713 922 3314 415 
Q 2916 -91 2278 -91 
Q 1894 -91 1617 61 
Q 1341 213 1159 525 
z
M 3116 1747 
Q 3116 2381 2855 2742 
Q 2594 3103 2138 3103 
Q 1681 3103 1420 2742 
Q 1159 2381 1159 1747 
Q 1159 1113 1420 752 
Q 1681 391 2138 391 
Q 2594 391 2855 752 
Q 3116 1113 3116 1747 
z
" transform="scale(0.015625)"/>
      <path id="DejaVuSans-79" d="M 2059 -325 
Q 1816 -950 1584 -1140 
Q 1353 -1331 966 -1331 
L 506 -1331 
L 506 -850 
L 844 -850 
Q 1081 -850 1212 -737 
Q 1344 -625 1503 -206 
L 1606 56 
L 191 3500 
L 800 3500 
L 1894 763 
L 2988 3500 
L 3597 3500 
L 2059 -325 
z
" transform="scale(0.015625)"/>
      <path id="DejaVuSans-2d" d="M 313 2009 
L 1997 2009 
L 1997 1497 
L 313 1497 
L 313 2009 
z
" transform="scale(0.015625)"/>
      <path id="DejaVuSans-72" d="M 2631 2963 
Q 2534 3019 2420 3045 
Q 2306 3072 2169 3072 
Q 1681 3072 1420 2755 
Q 1159 2438 1159 1844 
L 1159 0 
L 581 0 
L 581 3500 
L 1159 3500 
L 1159 2956 
Q 1341 3275 1631 3429 
Q 1922 3584 2338 3584 
Q 2397 3584 2469 3576 
Q 2541 3569 2628 3553 
L 2631 2963 
z
" transform="scale(0.015625)"/>
      <path id="DejaVuSans-64" d="M 2906 2969 
L 2906 4863 
L 3481 4863 
L 3481 0 
L 2906 0 
L 2906 525 
Q 2725 213 2448 61 
Q 2172 -91 1784 -91 
Q 1150 -91 751 415 
Q 353 922 353 1747 
Q 353 2572 751 3078 
Q 1150 3584 1784 3584 
Q 2172 3584 2448 3432 
Q 2725 3281 2906 2969 
z
M 947 1747 
Q 947 1113 1208 752 
Q 1469 391 1925 391 
Q 2381 391 2643 752 
Q 2906 1113 2906 1747 
Q 2906 2381 2643 2742 
Q 2381 3103 1925 3103 
Q 1469 3103 1208 2742 
Q 947 2381 947 1747 
z
" transform="scale(0.015625)"/>
      <path id="DejaVuSans-54" d="M -19 4666 
L 3928 4666 
L 3928 4134 
L 2272 4134 
L 2272 0 
L 1638 0 
L 1638 4134 
L -19 4134 
L -19 4666 
z
" transform="scale(0.015625)"/>
      <path id="DejaVuSans-76" d="M 191 3500 
L 800 3500 
L 1894 563 
L 2988 3500 
L 3597 3500 
L 2284 0 
L 1503 0 
L 191 3500 
z
" transform="scale(0.015625)"/>
      <path id="DejaVuSans-43" d="M 4122 4306 
L 4122 3641 
Q 3803 3938 3442 4084 
Q 3081 4231 2675 4231 
Q 1875 4231 1450 3742 
Q 1025 3253 1025 2328 
Q 1025 1406 1450 917 
Q 1875 428 2675 428 
Q 3081 428 3442 575 
Q 3803 722 4122 1019 
L 4122 359 
Q 3791 134 3420 21 
Q 3050 -91 2638 -91 
Q 1578 -91 968 557 
Q 359 1206 359 2328 
Q 359 3453 968 4101 
Q 1578 4750 2638 4750 
Q 3056 4750 3426 4639 
Q 3797 4528 4122 4306 
z
" transform="scale(0.015625)"/>
      <path id="DejaVuSans-53" d="M 3425 4513 
L 3425 3897 
Q 3066 4069 2747 4153 
Q 2428 4238 2131 4238 
Q 1616 4238 1336 4038 
Q 1056 3838 1056 3469 
Q 1056 3159 1242 3001 
Q 1428 2844 1947 2747 
L 2328 2669 
Q 3034 2534 3370 2195 
Q 3706 1856 3706 1288 
Q 3706 609 3251 259 
Q 2797 -91 1919 -91 
Q 1588 -91 1214 -16 
Q 841 59 441 206 
L 441 856 
Q 825 641 1194 531 
Q 1563 422 1919 422 
Q 2459 422 2753 634 
Q 3047 847 3047 1241 
Q 3047 1584 2836 1778 
Q 2625 1972 2144 2069 
L 1759 2144 
Q 1053 2284 737 2584 
Q 422 2884 422 3419 
Q 422 4038 858 4394 
Q 1294 4750 2059 4750 
Q 2388 4750 2728 4690 
Q 3069 4631 3425 4513 
z
" transform="scale(0.015625)"/>
     </defs>
     <use xlink:href="#DejaVuSans-63"/>
     <use xlink:href="#DejaVuSans-61" x="54.980469"/>
     <use xlink:href="#DejaVuSans-69" x="116.259766"/>
     <use xlink:href="#DejaVuSans-6f" x="144.042969"/>
     <use xlink:href="#DejaVuSans-2e" x="203.474609"/>
     <use xlink:href="#DejaVuSans-70" x="235.261719"/>
     <use xlink:href="#DejaVuSans-79" x="298.738281"/>
     <use xlink:href="#DejaVuSans-74" x="357.917969"/>
     <use xlink:href="#DejaVuSans-68" x="397.126953"/>
     <use xlink:href="#DejaVuSans-6f" x="460.505859"/>
     <use xlink:href="#DejaVuSans-6e" x="521.6875"/>
     <use xlink:href="#DejaVuSans-5f" x="585.066406"/>
     <use xlink:href="#DejaVuSans-61" x="635.066406"/>
     <use xlink:href="#DejaVuSans-69" x="696.345703"/>
     <use xlink:href="#DejaVuSans-6f" x="724.128906"/>
     <use xlink:href="#DejaVuSans-5f" x="785.310547"/>
     <use xlink:href="#DejaVuSans-61" x="835.310547"/>
     <use xlink:href="#DejaVuSans-73" x="896.589844"/>
     <use xlink:href="#DejaVuSans-79" x="948.689453"/>
     <use xlink:href="#DejaVuSans-6e" x="1007.869141"/>
     <use xlink:href="#DejaVuSans-63" x="1071.248047"/>
     <use xlink:href="#DejaVuSans-69" x="1126.228516"/>
     <use xlink:href="#DejaVuSans-6f" x="1154.011719"/>
     <use xlink:href="#DejaVuSans-20" x="1215.193359"/>
     <use xlink:href="#DejaVuSans-2d" x="1246.980469"/>
     <use xlink:href="#DejaVuSans-20" x="1283.064453"/>
     <use xlink:href="#DejaVuSans-72" x="1314.851562"/>
     <use xlink:href="#DejaVuSans-65" x="1353.714844"/>
     <use xlink:href="#DejaVuSans-61" x="1415.238281"/>
     <use xlink:href="#DejaVuSans-64" x="1476.517578"/>
     <use xlink:href="#DejaVuSans-20" x="1539.994141"/>
     <use xlink:href="#DejaVuSans-28" x="1571.78125"/>
     <use xlink:href="#DejaVuSans-54" x="1610.794922"/>
     <use xlink:href="#DejaVuSans-69" x="1668.753906"/>
     <use xlink:href="#DejaVuSans-6d" x="1696.537109"/>
     <use xlink:href="#DejaVuSans-65" x="1793.949219"/>
     <use xlink:href="#DejaVuSans-20" x="1855.472656"/>
     <use xlink:href="#DejaVuSans-76" x="1887.259766"/>
     <use xlink:href="#DejaVuSans-73" x="1946.439453"/>
     <use xlink:href="#DejaVuSans-20" x="1998.539062"/>
     <use xlink:href="#DejaVuSans-43" x="2030.326172"/>
     <use xlink:href="#DejaVuSans-68" x="2100.150391"/>
     <use xlink:href="#DejaVuSans-75" x="2163.529297"/>
     <use xlink:href="#DejaVuSans-6e" x="2226.908203"/>
     <use xlink:href="#DejaVuSans-6b" x="2290.287109"/>
     <use xlink:href="#DejaVuSans-20" x="2348.197266"/>
     <use xlink:href="#DejaVuSans-53" x="2379.984375"/>
     <use xlink:href="#DejaVuSans-69" x="2443.460938"/>
     <use xlink:href="#DejaVuSans-7a" x="2471.244141"/>
     <use xlink:href="#DejaVuSans-65" x="2523.734375"/>
     <use xlink:href="#DejaVuSans-29" x="2585.257812"/>
    </g>
   </g>
   <g id="legend_1">
    <g id="patch_7">
     <path d="M 543.43125 149.5775 
L 641 149.5775 
Q 643 149.5775 643 147.5775 
L 643 58.84 
Q 643 56.84 641 56.84 
L 543.43125 56.84 
Q 541.43125 56.84 541.43125 58.84 
L 541.43125 147.5775 
Q 541.43125 149.5775 543.43125 149.5775 
z
" style="opacity: 0.8; stroke: #cccccc; stroke-linejoin: miter"/>
    </g>
    <g id="line2d_65">
     <path d="M 545.43125 64.938437 
L 555.43125 64.938437 
L 565.43125 64.938437 
" style="fill: none; stroke: #8dd3c7; stroke-width: 1.5; stroke-linecap: square"/>
    </g>
    <g id="text_33">
     <!-- max_ops=1 -->
     <g style="fill: #ffffff" transform="translate(573.43125 68.438437) scale(0.1 -0.1)">
      <defs>
       <path id="DejaVuSans-78" d="M 3513 3500 
L 2247 1797 
L 3578 0 
L 2900 0 
L 1881 1375 
L 863 0 
L 184 0 
L 1544 1831 
L 300 3500 
L 978 3500 
L 1906 2253 
L 2834 3500 
L 3513 3500 
z
" transform="scale(0.015625)"/>
       <path id="DejaVuSans-3d" d="M 678 2906 
L 4684 2906 
L 4684 2381 
L 678 2381 
L 678 2906 
z
M 678 1631 
L 4684 1631 
L 4684 1100 
L 678 1100 
L 678 1631 
z
" transform="scale(0.015625)"/>
      </defs>
      <use xlink:href="#DejaVuSans-6d"/>
      <use xlink:href="#DejaVuSans-61" x="97.412109"/>
      <use xlink:href="#DejaVuSans-78" x="158.691406"/>
      <use xlink:href="#DejaVuSans-5f" x="217.871094"/>
      <use xlink:href="#DejaVuSans-6f" x="267.871094"/>
      <use xlink:href="#DejaVuSans-70" x="329.052734"/>
      <use xlink:href="#DejaVuSans-73" x="392.529297"/>
      <use xlink:href="#DejaVuSans-3d" x="444.628906"/>
      <use xlink:href="#DejaVuSans-31" x="528.417969"/>
     </g>
    </g>
    <g id="line2d_66">
     <path d="M 545.43125 79.894687 
L 555.43125 79.894687 
L 565.43125 79.894687 
" style="fill: none; stroke: #feffb3; stroke-width: 1.5; stroke-linecap: square"/>
    </g>
    <g id="text_34">
     <!-- max_ops=4 -->
     <g style="fill: #ffffff" transform="translate(573.43125 83.394687) scale(0.1 -0.1)">
      <use xlink:href="#DejaVuSans-6d"/>
      <use xlink:href="#DejaVuSans-61" x="97.412109"/>
      <use xlink:href="#DejaVuSans-78" x="158.691406"/>
      <use xlink:href="#DejaVuSans-5f" x="217.871094"/>
      <use xlink:href="#DejaVuSans-6f" x="267.871094"/>
      <use xlink:href="#DejaVuSans-70" x="329.052734"/>
      <use xlink:href="#DejaVuSans-73" x="392.529297"/>
      <use xlink:href="#DejaVuSans-3d" x="444.628906"/>
      <use xlink:href="#DejaVuSans-34" x="528.417969"/>
     </g>
    </g>
    <g id="line2d_67">
     <path d="M 545.43125 94.850937 
L 555.43125 94.850937 
L 565.43125 94.850937 
" style="fill: none; stroke: #bfbbd9; stroke-width: 1.5; stroke-linecap: square"/>
    </g>
    <g id="text_35">
     <!-- max_ops=8 -->
     <g style="fill: #ffffff" transform="translate(573.43125 98.350937) scale(0.1 -0.1)">
      <use xlink:href="#DejaVuSans-6d"/>
      <use xlink:href="#DejaVuSans-61" x="97.412109"/>
      <use xlink:href="#DejaVuSans-78" x="158.691406"/>
      <use xlink:href="#DejaVuSans-5f" x="217.871094"/>
      <use xlink:href="#DejaVuSans-6f" x="267.871094"/>
      <use xlink:href="#DejaVuSans-70" x="329.052734"/>
      <use xlink:href="#DejaVuSans-73" x="392.529297"/>
      <use xlink:href="#DejaVuSans-3d" x="444.628906"/>
      <use xlink:href="#DejaVuSans-38" x="528.417969"/>
     </g>
    </g>
    <g id="line2d_68">
     <path d="M 545.43125 109.807187 
L 555.43125 109.807187 
L 565.43125 109.807187 
" style="fill: none; stroke: #fa8174; stroke-width: 1.5; stroke-linecap: square"/>
    </g>
    <g id="text_36">
     <!-- max_ops=16 -->
     <g style="fill: #ffffff" transform="translate(573.43125 113.307187) scale(0.1 -0.1)">
      <use xlink:href="#DejaVuSans-6d"/>
      <use xlink:href="#DejaVuSans-61" x="97.412109"/>
      <use xlink:href="#DejaVuSans-78" x="158.691406"/>
      <use xlink:href="#DejaVuSans-5f" x="217.871094"/>
      <use xlink:href="#DejaVuSans-6f" x="267.871094"/>
      <use xlink:href="#DejaVuSans-70" x="329.052734"/>
      <use xlink:href="#DejaVuSans-73" x="392.529297"/>
      <use xlink:href="#DejaVuSans-3d" x="444.628906"/>
      <use xlink:href="#DejaVuSans-31" x="528.417969"/>
      <use xlink:href="#DejaVuSans-36" x="592.041016"/>
     </g>
    </g>
    <g id="line2d_69">
     <path d="M 545.43125 124.763437 
L 555.43125 124.763437 
L 565.43125 124.763437 
" style="fill: none; stroke: #81b1d2; stroke-width: 1.5; stroke-linecap: square"/>
    </g>
    <g id="text_37">
     <!-- max_ops=32 -->
     <g style="fill: #ffffff" transform="translate(573.43125 128.263437) scale(0.1 -0.1)">
      <use xlink:href="#DejaVuSans-6d"/>
      <use xlink:href="#DejaVuSans-61" x="97.412109"/>
      <use xlink:href="#DejaVuSans-78" x="158.691406"/>
      <use xlink:href="#DejaVuSans-5f" x="217.871094"/>
      <use xlink:href="#DejaVuSans-6f" x="267.871094"/>
      <use xlink:href="#DejaVuSans-70" x="329.052734"/>
      <use xlink:href="#DejaVuSans-73" x="392.529297"/>
      <use xlink:href="#DejaVuSans-3d" x="444.628906"/>
      <use xlink:href="#DejaVuSans-33" x="528.417969"/>
      <use xlink:href="#DejaVuSans-32" x="592.041016"/>
     </g>
    </g>
    <g id="line2d_70">
     <path d="M 545.43125 139.719687 
L 555.43125 139.719687 
L 565.43125 139.719687 
" style="fill: none; stroke: #fdb462; stroke-width: 1.5; stroke-linecap: square"/>
    </g>
    <g id="text_38">
     <!-- max_ops=64 -->
     <g style="fill: #ffffff" transform="translate(573.43125 143.219687) scale(0.1 -0.1)">
      <use xlink:href="#DejaVuSans-6d"/>
      <use xlink:href="#DejaVuSans-61" x="97.412109"/>
      <use xlink:href="#DejaVuSans-78" x="158.691406"/>
      <use xlink:href="#DejaVuSans-5f" x="217.871094"/>
      <use xlink:href="#DejaVuSans-6f" x="267.871094"/>
      <use xlink:href="#DejaVuSans-70" x="329.052734"/>
      <use xlink:href="#DejaVuSans-73" x="392.529297"/>
      <use xlink:href="#DejaVuSans-3d" x="444.628906"/>
      <use xlink:href="#DejaVuSans-36" x="528.417969"/>
      <use xlink:href="#DejaVuSans-34" x="592.041016"/>
     </g>
    </g>
   </g>
  </g>
 </g>
 <defs>
  <clipPath id="p2413293c90">
   <rect x="90" y="51.84" width="558" height="332.64"/>
  </clipPath>
 </defs>
</svg>
