<?xml version="1.0" encoding="utf-8" standalone="no"?>
<!DOCTYPE svg PUBLIC "-//W3C//DTD SVG 1.1//EN"
  "http://www.w3.org/Graphics/SVG/1.1/DTD/svg11.dtd">
<svg xmlns:xlink="http://www.w3.org/1999/xlink" width="864pt" height="576pt" viewBox="0 0 864 576" xmlns="http://www.w3.org/2000/svg" version="1.1">
 <metadata>
  <rdf:RDF xmlns:dc="http://purl.org/dc/elements/1.1/" xmlns:cc="http://creativecommons.org/ns#" xmlns:rdf="http://www.w3.org/1999/02/22-rdf-syntax-ns#">
   <cc:Work>
    <dc:type rdf:resource="http://purl.org/dc/dcmitype/StillImage"/>
    <dc:date>2024-01-19T20:27:15.602425</dc:date>
    <dc:format>image/svg+xml</dc:format>
    <dc:creator>
     <cc:Agent>
      <dc:title>Matplotlib v3.8.2, https://matplotlib.org/</dc:title>
     </cc:Agent>
    </dc:creator>
   </cc:Work>
  </rdf:RDF>
 </metadata>
 <defs>
  <style type="text/css">*{stroke-linejoin: round; stroke-linecap: butt}</style>
 </defs>
 <g id="figure_1">
  <g id="patch_1">
   <path d="M 0 576 
L 864 576 
L 864 0 
L 0 0 
z
"/>
  </g>
  <g id="axes_1">
   <g id="patch_2">
    <path d="M 108 512.64 
L 777.6 512.64 
L 777.6 69.12 
L 108 69.12 
z
"/>
   </g>
   <g id="PolyCollection_1">
    <defs>
     <path id="m84c687828b" d="M 154.48266 -63.668835 
L 154.48266 -63.36 
L 157.340541 -63.36 
L 160.198422 -63.36 
L 163.056304 -63.36 
L 165.914185 -63.36 
L 168.772066 -63.36 
L 171.629947 -63.36 
L 174.487828 -63.36 
L 177.345709 -63.36 
L 180.203591 -63.36 
L 183.061472 -63.36 
L 185.919353 -63.36 
L 188.777234 -63.36 
L 191.635115 -63.36 
L 194.492997 -63.36 
L 197.350878 -63.36 
L 200.208759 -63.36 
L 203.06664 -63.36 
L 205.924521 -63.36 
L 208.782402 -63.36 
L 211.640284 -63.36 
L 214.498165 -63.36 
L 217.356046 -63.36 
L 220.213927 -63.36 
L 223.071808 -63.36 
L 225.929689 -63.36 
L 228.787571 -63.36 
L 231.645452 -63.36 
L 234.503333 -63.36 
L 237.361214 -63.36 
L 240.219095 -63.36 
L 243.076976 -63.36 
L 245.934858 -63.36 
L 248.792739 -63.36 
L 251.65062 -63.36 
L 254.508501 -63.36 
L 257.366382 -63.36 
L 260.224264 -63.36 
L 263.082145 -63.36 
L 265.940026 -63.36 
L 268.797907 -63.36 
L 271.655788 -63.36 
L 274.513669 -63.36 
L 277.371551 -63.36 
L 280.229432 -63.36 
L 283.087313 -63.36 
L 285.945194 -63.36 
L 288.803075 -63.36 
L 291.660956 -63.36 
L 294.518838 -63.36 
L 297.376719 -63.36 
L 300.2346 -63.36 
L 303.092481 -63.36 
L 305.950362 -63.36 
L 308.808244 -63.36 
L 311.666125 -63.36 
L 314.524006 -63.36 
L 317.381887 -63.36 
L 320.239768 -63.36 
L 323.097649 -63.36 
L 325.955531 -63.36 
L 328.813412 -63.36 
L 331.671293 -63.36 
L 334.529174 -63.36 
L 337.387055 -63.36 
L 340.244936 -63.36 
L 343.102818 -63.36 
L 345.960699 -63.36 
L 348.81858 -63.36 
L 351.676461 -63.36 
L 354.534342 -63.36 
L 357.392223 -63.36 
L 360.250105 -63.36 
L 363.107986 -63.36 
L 365.965867 -63.36 
L 368.823748 -63.36 
L 371.681629 -63.36 
L 374.539511 -63.36 
L 377.397392 -63.36 
L 380.255273 -63.36 
L 383.113154 -63.36 
L 385.971035 -63.36 
L 388.828916 -63.36 
L 391.686798 -63.36 
L 394.544679 -63.36 
L 397.40256 -63.36 
L 400.260441 -63.36 
L 403.118322 -63.36 
L 405.976203 -63.36 
L 408.834085 -63.36 
L 411.691966 -63.36 
L 414.549847 -63.36 
L 417.407728 -63.36 
L 420.265609 -63.36 
L 423.123491 -63.36 
L 425.981372 -63.36 
L 428.839253 -63.36 
L 431.697134 -63.36 
L 434.555015 -63.36 
L 437.412896 -63.36 
L 440.270778 -63.36 
L 443.128659 -63.36 
L 445.98654 -63.36 
L 448.844421 -63.36 
L 451.702302 -63.36 
L 454.560183 -63.36 
L 457.418065 -63.36 
L 460.275946 -63.36 
L 463.133827 -63.36 
L 465.991708 -63.36 
L 468.849589 -63.36 
L 471.70747 -63.36 
L 474.565352 -63.36 
L 477.423233 -63.36 
L 480.281114 -63.36 
L 483.138995 -63.36 
L 485.996876 -63.36 
L 488.854758 -63.36 
L 491.712639 -63.36 
L 494.57052 -63.36 
L 497.428401 -63.36 
L 500.286282 -63.36 
L 503.144163 -63.36 
L 506.002045 -63.36 
L 508.859926 -63.36 
L 511.717807 -63.36 
L 514.575688 -63.36 
L 517.433569 -63.36 
L 520.29145 -63.36 
L 523.149332 -63.36 
L 526.007213 -63.36 
L 528.865094 -63.36 
L 531.722975 -63.36 
L 534.580856 -63.36 
L 537.438738 -63.36 
L 540.296619 -63.36 
L 543.1545 -63.36 
L 546.012381 -63.36 
L 548.870262 -63.36 
L 551.728143 -63.36 
L 554.586025 -63.36 
L 557.443906 -63.36 
L 560.301787 -63.36 
L 563.159668 -63.36 
L 566.017549 -63.36 
L 568.87543 -63.36 
L 571.733312 -63.36 
L 574.591193 -63.36 
L 577.449074 -63.36 
L 580.306955 -63.36 
L 583.164836 -63.36 
L 586.022717 -63.36 
L 588.880599 -63.36 
L 591.73848 -63.36 
L 594.596361 -63.36 
L 597.454242 -63.36 
L 600.312123 -63.36 
L 603.170005 -63.36 
L 606.027886 -63.36 
L 608.885767 -63.36 
L 611.743648 -63.36 
L 614.601529 -63.36 
L 617.45941 -63.36 
L 620.317292 -63.36 
L 623.175173 -63.36 
L 626.033054 -63.36 
L 628.890935 -63.36 
L 631.748816 -63.36 
L 634.606697 -63.36 
L 637.464579 -63.36 
L 640.32246 -63.36 
L 643.180341 -63.36 
L 646.038222 -63.36 
L 648.896103 -63.36 
L 651.753984 -63.36 
L 654.611866 -63.36 
L 657.469747 -63.36 
L 660.327628 -63.36 
L 663.185509 -63.36 
L 666.04339 -63.36 
L 668.901272 -63.36 
L 671.759153 -63.36 
L 674.617034 -63.36 
L 677.474915 -63.36 
L 680.332796 -63.36 
L 683.190677 -63.36 
L 686.048559 -63.36 
L 688.90644 -63.36 
L 691.764321 -63.36 
L 694.622202 -63.36 
L 697.480083 -63.36 
L 700.337964 -63.36 
L 703.195846 -63.36 
L 706.053727 -63.36 
L 708.911608 -63.36 
L 711.769489 -63.36 
L 714.62737 -63.36 
L 717.485252 -63.36 
L 720.343133 -63.36 
L 723.201014 -63.36 
L 723.201014 -63.371418 
L 723.201014 -63.371418 
L 720.343133 -63.378827 
L 717.485252 -63.390413 
L 714.62737 -63.408138 
L 711.769489 -63.43467 
L 708.911608 -63.473528 
L 706.053727 -63.529209 
L 703.195846 -63.607278 
L 700.337964 -63.714382 
L 697.480083 -63.85816 
L 694.622202 -64.047013 
L 691.764321 -64.289724 
L 688.90644 -64.5949 
L 686.048559 -64.970264 
L 683.190677 -65.421815 
L 680.332796 -65.952922 
L 677.474915 -66.563424 
L 674.617034 -67.248834 
L 671.759153 -67.999742 
L 668.901272 -68.801517 
L 666.04339 -69.634381 
L 663.185509 -70.47391 
L 660.327628 -71.291975 
L 657.469747 -72.058102 
L 654.611866 -72.741173 
L 651.753984 -73.311369 
L 648.896103 -73.742193 
L 646.038222 -74.012413 
L 643.180341 -74.107739 
L 640.32246 -74.022055 
L 637.464579 -73.75806 
L 634.606697 -73.327235 
L 631.748816 -72.749097 
L 628.890935 -72.049808 
L 626.033054 -71.260246 
L 623.175173 -70.413755 
L 620.317292 -69.543791 
L 617.45941 -68.681707 
L 614.601529 -67.854888 
L 611.743648 -67.085403 
L 608.885767 -66.389254 
L 606.027886 -65.776234 
L 603.170005 -65.250316 
L 600.312123 -64.810476 
L 597.454242 -64.451772 
L 594.596361 -64.16654 
L 591.73848 -63.945563 
L 588.880599 -63.779099 
L 586.022717 -63.657714 
L 583.164836 -63.572871 
L 580.306955 -63.517292 
L 577.449074 -63.485115 
L 574.591193 -63.471885 
L 571.733312 -63.474415 
L 568.87543 -63.49057 
L 566.017549 -63.519008 
L 563.159668 -63.558902 
L 560.301787 -63.609681 
L 557.443906 -63.670812 
L 554.586025 -63.741628 
L 551.728143 -63.821245 
L 548.870262 -63.908551 
L 546.012381 -64.002287 
L 543.1545 -64.101201 
L 540.296619 -64.204259 
L 537.438738 -64.310892 
L 534.580856 -64.42122 
L 531.722975 -64.536242 
L 528.865094 -64.657926 
L 526.007213 -64.789203 
L 523.149332 -64.933824 
L 520.29145 -65.096115 
L 517.433569 -65.280636 
L 514.575688 -65.491806 
L 511.717807 -65.733536 
L 508.859926 -66.008944 
L 506.002045 -66.320185 
L 503.144163 -66.66846 
L 500.286282 -67.054186 
L 497.428401 -67.477337 
L 494.57052 -67.937886 
L 491.712639 -68.436307 
L 488.854758 -68.974027 
L 485.996876 -69.553773 
L 483.138995 -70.179745 
L 480.281114 -70.857586 
L 477.423233 -71.594149 
L 474.565352 -72.397113 
L 471.70747 -73.274505 
L 468.849589 -74.234204 
L 465.991708 -75.283498 
L 463.133827 -76.428745 
L 460.275946 -77.675153 
L 457.418065 -79.02668 
L 454.560183 -80.486021 
L 451.702302 -82.05465 
L 448.844421 -83.732862 
L 445.98654 -85.519801 
L 443.128659 -87.413423 
L 440.270778 -89.410384 
L 437.412896 -91.505834 
L 434.555015 -93.693123 
L 431.697134 -95.963438 
L 428.839253 -98.305443 
L 425.981372 -100.705015 
L 423.123491 -103.145237 
L 420.265609 -105.606781 
L 417.407728 -108.068832 
L 414.549847 -110.510611 
L 411.691966 -112.913426 
L 408.834085 -115.263062 
L 405.976203 -117.552169 
L 403.118322 -119.782203 
L 400.260441 -121.964463 
L 397.40256 -124.119857 
L 394.544679 -126.277183 
L 391.686798 -128.469965 
L 388.828916 -130.732168 
L 385.971035 -133.093331 
L 383.113154 -135.573854 
L 380.255273 -138.181182 
L 377.397392 -140.907571 
L 374.539511 -143.729877 
L 371.681629 -146.611538 
L 368.823748 -149.506573 
L 365.965867 -152.365084 
L 363.107986 -155.139544 
L 360.250105 -157.790972 
L 357.392223 -160.294117 
L 354.534342 -162.640866 
L 351.676461 -164.841351 
L 348.81858 -166.922518 
L 345.960699 -168.924291 
L 343.102818 -170.893804 
L 340.244936 -172.878472 
L 337.387055 -174.918836 
L 334.529174 -177.042216 
L 331.671293 -179.258073 
L 328.813412 -181.555774 
L 325.955531 -183.905126 
L 323.097649 -186.259623 
L 320.239768 -188.56198 
L 317.381887 -190.751178 
L 314.524006 -192.770066 
L 311.666125 -194.572496 
L 308.808244 -196.129066 
L 305.950362 -197.430816 
L 303.092481 -198.490532 
L 300.2346 -199.341678 
L 297.376719 -200.035331 
L 294.518838 -200.63571 
L 291.660956 -201.215046 
L 288.803075 -201.848533 
L 285.945194 -202.609978 
L 283.087313 -203.568538 
L 280.229432 -204.786659 
L 277.371551 -206.319041 
L 274.513669 -208.21216 
L 271.655788 -210.503737 
L 268.797907 -213.221448 
L 265.940026 -216.38029 
L 263.082145 -219.978204 
L 260.224264 -223.990015 
L 257.366382 -228.360119 
L 254.508501 -232.994895 
L 251.65062 -237.756215 
L 248.792739 -242.457631 
L 245.934858 -246.864874 
L 243.076976 -250.701951 
L 240.219095 -253.663559 
L 237.361214 -255.433658 
L 234.503333 -255.709084 
L 231.645452 -254.226094 
L 228.787571 -250.78698 
L 225.929689 -245.283452 
L 223.071808 -237.713594 
L 220.213927 -228.18976 
L 217.356046 -216.935852 
L 214.498165 -204.273795 
L 211.640284 -190.600478 
L 208.782402 -176.35774 
L 205.924521 -161.998899 
L 203.06664 -147.955692 
L 200.208759 -134.609265 
L 197.350878 -122.268121 
L 194.492997 -111.154784 
L 191.635115 -101.401654 
L 188.777234 -93.055313 
L 185.919353 -86.0876 
L 183.061472 -80.411156 
L 180.203591 -75.897036 
L 177.345709 -72.392138 
L 174.487828 -69.734726 
L 171.629947 -67.766913 
L 168.772066 -66.343606 
L 165.914185 -65.337969 
L 163.056304 -64.643837 
L 160.198422 -64.175752 
L 157.340541 -63.867356 
L 154.48266 -63.668835 
z
" style="stroke: #1ac938"/>
    </defs>
    <g clip-path="url(#p06c96c356e)">
     <use xlink:href="#m84c687828b" x="0" y="576" style="fill: #1ac938; fill-opacity: 0.25; stroke: #1ac938"/>
    </g>
   </g>
   <g id="PolyCollection_2">
    <defs>
     <path id="mac6b932fde" d="M 159.381557 -63.642909 
L 159.381557 -63.36 
L 162.192633 -63.36 
L 165.003708 -63.36 
L 167.814783 -63.36 
L 170.625858 -63.36 
L 173.436933 -63.36 
L 176.248008 -63.36 
L 179.059083 -63.36 
L 181.870158 -63.36 
L 184.681233 -63.36 
L 187.492309 -63.36 
L 190.303384 -63.36 
L 193.114459 -63.36 
L 195.925534 -63.36 
L 198.736609 -63.36 
L 201.547684 -63.36 
L 204.358759 -63.36 
L 207.169834 -63.36 
L 209.98091 -63.36 
L 212.791985 -63.36 
L 215.60306 -63.36 
L 218.414135 -63.36 
L 221.22521 -63.36 
L 224.036285 -63.36 
L 226.84736 -63.36 
L 229.658435 -63.36 
L 232.46951 -63.36 
L 235.280586 -63.36 
L 238.091661 -63.36 
L 240.902736 -63.36 
L 243.713811 -63.36 
L 246.524886 -63.36 
L 249.335961 -63.36 
L 252.147036 -63.36 
L 254.958111 -63.36 
L 257.769187 -63.36 
L 260.580262 -63.36 
L 263.391337 -63.36 
L 266.202412 -63.36 
L 269.013487 -63.36 
L 271.824562 -63.36 
L 274.635637 -63.36 
L 277.446712 -63.36 
L 280.257787 -63.36 
L 283.068863 -63.36 
L 285.879938 -63.36 
L 288.691013 -63.36 
L 291.502088 -63.36 
L 294.313163 -63.36 
L 297.124238 -63.36 
L 299.935313 -63.36 
L 302.746388 -63.36 
L 305.557464 -63.36 
L 308.368539 -63.36 
L 311.179614 -63.36 
L 313.990689 -63.36 
L 316.801764 -63.36 
L 319.612839 -63.36 
L 322.423914 -63.36 
L 325.234989 -63.36 
L 328.046064 -63.36 
L 330.85714 -63.36 
L 333.668215 -63.36 
L 336.47929 -63.36 
L 339.290365 -63.36 
L 342.10144 -63.36 
L 344.912515 -63.36 
L 347.72359 -63.36 
L 350.534665 -63.36 
L 353.345741 -63.36 
L 356.156816 -63.36 
L 358.967891 -63.36 
L 361.778966 -63.36 
L 364.590041 -63.36 
L 367.401116 -63.36 
L 370.212191 -63.36 
L 373.023266 -63.36 
L 375.834341 -63.36 
L 378.645417 -63.36 
L 381.456492 -63.36 
L 384.267567 -63.36 
L 387.078642 -63.36 
L 389.889717 -63.36 
L 392.700792 -63.36 
L 395.511867 -63.36 
L 398.322942 -63.36 
L 401.134018 -63.36 
L 403.945093 -63.36 
L 406.756168 -63.36 
L 409.567243 -63.36 
L 412.378318 -63.36 
L 415.189393 -63.36 
L 418.000468 -63.36 
L 420.811543 -63.36 
L 423.622618 -63.36 
L 426.433694 -63.36 
L 429.244769 -63.36 
L 432.055844 -63.36 
L 434.866919 -63.36 
L 437.677994 -63.36 
L 440.489069 -63.36 
L 443.300144 -63.36 
L 446.111219 -63.36 
L 448.922295 -63.36 
L 451.73337 -63.36 
L 454.544445 -63.36 
L 457.35552 -63.36 
L 460.166595 -63.36 
L 462.97767 -63.36 
L 465.788745 -63.36 
L 468.59982 -63.36 
L 471.410895 -63.36 
L 474.221971 -63.36 
L 477.033046 -63.36 
L 479.844121 -63.36 
L 482.655196 -63.36 
L 485.466271 -63.36 
L 488.277346 -63.36 
L 491.088421 -63.36 
L 493.899496 -63.36 
L 496.710572 -63.36 
L 499.521647 -63.36 
L 502.332722 -63.36 
L 505.143797 -63.36 
L 507.954872 -63.36 
L 510.765947 -63.36 
L 513.577022 -63.36 
L 516.388097 -63.36 
L 519.199172 -63.36 
L 522.010248 -63.36 
L 524.821323 -63.36 
L 527.632398 -63.36 
L 530.443473 -63.36 
L 533.254548 -63.36 
L 536.065623 -63.36 
L 538.876698 -63.36 
L 541.687773 -63.36 
L 544.498849 -63.36 
L 547.309924 -63.36 
L 550.120999 -63.36 
L 552.932074 -63.36 
L 555.743149 -63.36 
L 558.554224 -63.36 
L 561.365299 -63.36 
L 564.176374 -63.36 
L 566.987449 -63.36 
L 569.798525 -63.36 
L 572.6096 -63.36 
L 575.420675 -63.36 
L 578.23175 -63.36 
L 581.042825 -63.36 
L 583.8539 -63.36 
L 586.664975 -63.36 
L 589.47605 -63.36 
L 592.287126 -63.36 
L 595.098201 -63.36 
L 597.909276 -63.36 
L 600.720351 -63.36 
L 603.531426 -63.36 
L 606.342501 -63.36 
L 609.153576 -63.36 
L 611.964651 -63.36 
L 614.775727 -63.36 
L 617.586802 -63.36 
L 620.397877 -63.36 
L 623.208952 -63.36 
L 626.020027 -63.36 
L 628.831102 -63.36 
L 631.642177 -63.36 
L 634.453252 -63.36 
L 637.264327 -63.36 
L 640.075403 -63.36 
L 642.886478 -63.36 
L 645.697553 -63.36 
L 648.508628 -63.36 
L 651.319703 -63.36 
L 654.130778 -63.36 
L 656.941853 -63.36 
L 659.752928 -63.36 
L 662.564004 -63.36 
L 665.375079 -63.36 
L 668.186154 -63.36 
L 670.997229 -63.36 
L 673.808304 -63.36 
L 676.619379 -63.36 
L 679.430454 -63.36 
L 682.241529 -63.36 
L 685.052604 -63.36 
L 687.86368 -63.36 
L 690.674755 -63.36 
L 693.48583 -63.36 
L 696.296905 -63.36 
L 699.10798 -63.36 
L 701.919055 -63.36 
L 704.73013 -63.36 
L 707.541205 -63.36 
L 710.352281 -63.36 
L 713.163356 -63.36 
L 715.974431 -63.36 
L 718.785506 -63.36 
L 718.785506 -63.373837 
L 718.785506 -63.373837 
L 715.974431 -63.385309 
L 713.163356 -63.404592 
L 710.352281 -63.435713 
L 707.541205 -63.483953 
L 704.73013 -63.555807 
L 701.919055 -63.658728 
L 699.10798 -63.800655 
L 696.296905 -63.989398 
L 693.48583 -64.232036 
L 690.674755 -64.534548 
L 687.86368 -64.90187 
L 685.052604 -65.338424 
L 682.241529 -65.848964 
L 679.430454 -66.439304 
L 676.619379 -67.116324 
L 673.808304 -67.886695 
L 670.997229 -68.754043 
L 668.186154 -69.714826 
L 665.375079 -70.7538 
L 662.564004 -71.84042 
L 659.752928 -72.92761 
L 656.941853 -73.953914 
L 654.130778 -74.849237 
L 651.319703 -75.543379 
L 648.508628 -75.975737 
L 645.697553 -76.104155 
L 642.886478 -75.911097 
L 640.075403 -75.406 
L 637.264327 -74.623576 
L 634.453252 -73.618716 
L 631.642177 -72.459211 
L 628.831102 -71.217715 
L 626.020027 -69.964194 
L 623.208952 -68.759798 
L 620.397877 -67.652653 
L 617.586802 -66.675729 
L 614.775727 -65.846677 
L 611.964651 -65.169288 
L 609.153576 -64.636131 
L 606.342501 -64.231837 
L 603.531426 -63.936489 
L 600.720351 -63.728675 
L 597.909276 -63.587875 
L 595.098201 -63.496044 
L 592.287126 -63.438405 
L 589.47605 -63.403599 
L 586.664975 -63.383382 
L 583.8539 -63.372088 
L 581.042825 -63.366023 
L 578.23175 -63.362891 
L 575.420675 -63.361337 
L 572.6096 -63.360595 
L 569.798525 -63.360255 
L 566.987449 -63.360105 
L 564.176374 -63.360042 
L 561.365299 -63.360016 
L 558.554224 -63.360006 
L 555.743149 -63.360002 
L 552.932074 -63.360001 
L 550.120999 -63.36 
L 547.309924 -63.36 
L 544.498849 -63.36 
L 541.687773 -63.36 
L 538.876698 -63.36 
L 536.065623 -63.36 
L 533.254548 -63.36 
L 530.443473 -63.36 
L 527.632398 -63.36 
L 524.821323 -63.36 
L 522.010248 -63.36 
L 519.199172 -63.36 
L 516.388097 -63.36 
L 513.577022 -63.36 
L 510.765947 -63.36 
L 507.954872 -63.36 
L 505.143797 -63.36 
L 502.332722 -63.36 
L 499.521647 -63.36 
L 496.710572 -63.36 
L 493.899496 -63.36 
L 491.088421 -63.36 
L 488.277346 -63.36 
L 485.466271 -63.36 
L 482.655196 -63.36 
L 479.844121 -63.36 
L 477.033046 -63.36 
L 474.221971 -63.36 
L 471.410895 -63.36 
L 468.59982 -63.36 
L 465.788745 -63.36 
L 462.97767 -63.36 
L 460.166595 -63.36 
L 457.35552 -63.36 
L 454.544445 -63.36 
L 451.73337 -63.36 
L 448.922295 -63.36 
L 446.111219 -63.36 
L 443.300144 -63.36 
L 440.489069 -63.36 
L 437.677994 -63.36 
L 434.866919 -63.36 
L 432.055844 -63.36 
L 429.244769 -63.36 
L 426.433694 -63.36 
L 423.622618 -63.36 
L 420.811543 -63.36 
L 418.000468 -63.36 
L 415.189393 -63.36 
L 412.378318 -63.36 
L 409.567243 -63.36 
L 406.756168 -63.36 
L 403.945093 -63.36 
L 401.134018 -63.360001 
L 398.322942 -63.360003 
L 395.511867 -63.360008 
L 392.700792 -63.36002 
L 389.889717 -63.360049 
L 387.078642 -63.360114 
L 384.267567 -63.360259 
L 381.456492 -63.360563 
L 378.645417 -63.36118 
L 375.834341 -63.362383 
L 373.023266 -63.364633 
L 370.212191 -63.368683 
L 367.401116 -63.375697 
L 364.590041 -63.387393 
L 361.778966 -63.406202 
L 358.967891 -63.435415 
L 356.156816 -63.479343 
L 353.345741 -63.543473 
L 350.534665 -63.634691 
L 347.72359 -63.761613 
L 344.912515 -63.935105 
L 342.10144 -64.168982 
L 339.290365 -64.480846 
L 336.47929 -64.89282 
L 333.668215 -65.431903 
L 330.85714 -66.129621 
L 328.046064 -67.02086 
L 325.234989 -68.142172 
L 322.423914 -69.530395 
L 319.612839 -71.222956 
L 316.801764 -73.261457 
L 313.990689 -75.699752 
L 311.179614 -78.616704 
L 308.368539 -82.132077 
L 305.557464 -86.422157 
L 302.746388 -91.730211 
L 299.935313 -98.366467 
L 297.124238 -106.69342 
L 294.313163 -117.094844 
L 291.502088 -129.930535 
L 288.691013 -145.482539 
L 285.879938 -163.901377 
L 283.068863 -185.161873 
L 280.257787 -209.037172 
L 277.446712 -235.096704 
L 274.635637 -262.729912 
L 271.824562 -291.193224 
L 269.013487 -319.673933 
L 266.202412 -347.361786 
L 263.391337 -373.517716 
L 260.580262 -397.529408 
L 257.769187 -418.945457 
L 254.958111 -437.483454 
L 252.147036 -453.011938 
L 249.335961 -465.51081 
L 246.524886 -475.018558 
L 243.713811 -481.576821 
L 240.902736 -485.182992 
L 238.091661 -485.76 
L 235.280586 -483.14952 
L 232.46951 -477.130992 
L 229.658435 -467.464495 
L 226.84736 -453.951054 
L 224.036285 -436.500129 
L 221.22521 -415.19164 
L 218.414135 -390.319954 
L 215.60306 -362.410007 
L 212.791985 -332.200887 
L 209.98091 -300.59838 
L 207.169834 -268.603716 
L 204.358759 -237.229513 
L 201.547684 -207.41532 
L 198.736609 -179.954065 
L 195.925534 -155.438136 
L 193.114459 -134.230231 
L 190.303384 -116.460428 
L 187.492309 -102.047291 
L 184.681233 -90.737838 
L 181.870158 -82.159037 
L 179.059083 -75.872622 
L 176.248008 -71.425612 
L 173.436933 -68.390772 
L 170.625858 -66.393927 
L 167.814783 -65.127855 
L 165.003708 -64.354694 
L 162.192633 -63.900124 
L 159.381557 -63.642909 
z
" style="stroke: #ff7c00"/>
    </defs>
    <g clip-path="url(#p06c96c356e)">
     <use xlink:href="#mac6b932fde" x="0" y="576" style="fill: #ff7c00; fill-opacity: 0.25; stroke: #ff7c00"/>
    </g>
   </g>
   <g id="PolyCollection_3">
    <defs>
     <path id="m9fc3f9f1a2" d="M 138.436364 -63.516228 
L 138.436364 -63.36 
L 141.495295 -63.36 
L 144.554226 -63.36 
L 147.613157 -63.36 
L 150.672088 -63.36 
L 153.731019 -63.36 
L 156.78995 -63.36 
L 159.848881 -63.36 
L 162.907812 -63.36 
L 165.966743 -63.36 
L 169.025674 -63.36 
L 172.084605 -63.36 
L 175.143536 -63.36 
L 178.202467 -63.36 
L 181.261398 -63.36 
L 184.320329 -63.36 
L 187.37926 -63.36 
L 190.438191 -63.36 
L 193.497122 -63.36 
L 196.556053 -63.36 
L 199.614984 -63.36 
L 202.673915 -63.36 
L 205.732846 -63.36 
L 208.791777 -63.36 
L 211.850708 -63.36 
L 214.909639 -63.36 
L 217.96857 -63.36 
L 221.027501 -63.36 
L 224.086432 -63.36 
L 227.145363 -63.36 
L 230.204294 -63.36 
L 233.263225 -63.36 
L 236.322156 -63.36 
L 239.381087 -63.36 
L 242.440018 -63.36 
L 245.498949 -63.36 
L 248.55788 -63.36 
L 251.616811 -63.36 
L 254.675742 -63.36 
L 257.734673 -63.36 
L 260.793604 -63.36 
L 263.852535 -63.36 
L 266.911466 -63.36 
L 269.970397 -63.36 
L 273.029328 -63.36 
L 276.088259 -63.36 
L 279.14719 -63.36 
L 282.206122 -63.36 
L 285.265053 -63.36 
L 288.323984 -63.36 
L 291.382915 -63.36 
L 294.441846 -63.36 
L 297.500777 -63.36 
L 300.559708 -63.36 
L 303.618639 -63.36 
L 306.67757 -63.36 
L 309.736501 -63.36 
L 312.795432 -63.36 
L 315.854363 -63.36 
L 318.913294 -63.36 
L 321.972225 -63.36 
L 325.031156 -63.36 
L 328.090087 -63.36 
L 331.149018 -63.36 
L 334.207949 -63.36 
L 337.26688 -63.36 
L 340.325811 -63.36 
L 343.384742 -63.36 
L 346.443673 -63.36 
L 349.502604 -63.36 
L 352.561535 -63.36 
L 355.620466 -63.36 
L 358.679397 -63.36 
L 361.738328 -63.36 
L 364.797259 -63.36 
L 367.85619 -63.36 
L 370.915121 -63.36 
L 373.974052 -63.36 
L 377.032983 -63.36 
L 380.091914 -63.36 
L 383.150845 -63.36 
L 386.209776 -63.36 
L 389.268707 -63.36 
L 392.327638 -63.36 
L 395.386569 -63.36 
L 398.4455 -63.36 
L 401.504431 -63.36 
L 404.563362 -63.36 
L 407.622293 -63.36 
L 410.681224 -63.36 
L 413.740155 -63.36 
L 416.799086 -63.36 
L 419.858017 -63.36 
L 422.916948 -63.36 
L 425.975879 -63.36 
L 429.03481 -63.36 
L 432.093741 -63.36 
L 435.152672 -63.36 
L 438.211603 -63.36 
L 441.270534 -63.36 
L 444.329466 -63.36 
L 447.388397 -63.36 
L 450.447328 -63.36 
L 453.506259 -63.36 
L 456.56519 -63.36 
L 459.624121 -63.36 
L 462.683052 -63.36 
L 465.741983 -63.36 
L 468.800914 -63.36 
L 471.859845 -63.36 
L 474.918776 -63.36 
L 477.977707 -63.36 
L 481.036638 -63.36 
L 484.095569 -63.36 
L 487.1545 -63.36 
L 490.213431 -63.36 
L 493.272362 -63.36 
L 496.331293 -63.36 
L 499.390224 -63.36 
L 502.449155 -63.36 
L 505.508086 -63.36 
L 508.567017 -63.36 
L 511.625948 -63.36 
L 514.684879 -63.36 
L 517.74381 -63.36 
L 520.802741 -63.36 
L 523.861672 -63.36 
L 526.920603 -63.36 
L 529.979534 -63.36 
L 533.038465 -63.36 
L 536.097396 -63.36 
L 539.156327 -63.36 
L 542.215258 -63.36 
L 545.274189 -63.36 
L 548.33312 -63.36 
L 551.392051 -63.36 
L 554.450982 -63.36 
L 557.509913 -63.36 
L 560.568844 -63.36 
L 563.627775 -63.36 
L 566.686706 -63.36 
L 569.745637 -63.36 
L 572.804568 -63.36 
L 575.863499 -63.36 
L 578.92243 -63.36 
L 581.981361 -63.36 
L 585.040292 -63.36 
L 588.099223 -63.36 
L 591.158154 -63.36 
L 594.217085 -63.36 
L 597.276016 -63.36 
L 600.334947 -63.36 
L 603.393878 -63.36 
L 606.45281 -63.36 
L 609.511741 -63.36 
L 612.570672 -63.36 
L 615.629603 -63.36 
L 618.688534 -63.36 
L 621.747465 -63.36 
L 624.806396 -63.36 
L 627.865327 -63.36 
L 630.924258 -63.36 
L 633.983189 -63.36 
L 637.04212 -63.36 
L 640.101051 -63.36 
L 643.159982 -63.36 
L 646.218913 -63.36 
L 649.277844 -63.36 
L 652.336775 -63.36 
L 655.395706 -63.36 
L 658.454637 -63.36 
L 661.513568 -63.36 
L 664.572499 -63.36 
L 667.63143 -63.36 
L 670.690361 -63.36 
L 673.749292 -63.36 
L 676.808223 -63.36 
L 679.867154 -63.36 
L 682.926085 -63.36 
L 685.985016 -63.36 
L 689.043947 -63.36 
L 692.102878 -63.36 
L 695.161809 -63.36 
L 698.22074 -63.36 
L 701.279671 -63.36 
L 704.338602 -63.36 
L 707.397533 -63.36 
L 710.456464 -63.36 
L 713.515395 -63.36 
L 716.574326 -63.36 
L 719.633257 -63.36 
L 722.692188 -63.36 
L 725.751119 -63.36 
L 728.81005 -63.36 
L 731.868981 -63.36 
L 734.927912 -63.36 
L 737.986843 -63.36 
L 741.045774 -63.36 
L 744.104705 -63.36 
L 747.163636 -63.36 
L 747.163636 -63.380368 
L 747.163636 -63.380368 
L 744.104705 -63.389561 
L 741.045774 -63.402396 
L 737.986843 -63.420086 
L 734.927912 -63.444158 
L 731.868981 -63.476493 
L 728.81005 -63.519371 
L 725.751119 -63.575495 
L 722.692188 -63.648012 
L 719.633257 -63.740495 
L 716.574326 -63.856911 
L 713.515395 -64.001548 
L 710.456464 -64.178901 
L 707.397533 -64.393525 
L 704.338602 -64.649845 
L 701.279671 -64.951945 
L 698.22074 -65.30332 
L 695.161809 -65.706641 
L 692.102878 -66.163527 
L 689.043947 -66.674356 
L 685.985016 -67.238136 
L 682.926085 -67.852465 
L 679.867154 -68.513584 
L 676.808223 -69.216555 
L 673.749292 -69.95554 
L 670.690361 -70.724197 
L 667.63143 -71.516155 
L 664.572499 -72.325543 
L 661.513568 -73.147526 
L 658.454637 -73.978803 
L 655.395706 -74.818011 
L 652.336775 -75.665986 
L 649.277844 -76.525843 
L 646.218913 -77.402853 
L 643.159982 -78.304088 
L 640.101051 -79.237871 
L 637.04212 -80.213045 
L 633.983189 -81.238118 
L 630.924258 -82.320352 
L 627.865327 -83.464877 
L 624.806396 -84.673905 
L 621.747465 -85.946123 
L 618.688534 -87.276342 
L 615.629603 -88.65542 
L 612.570672 -90.070523 
L 609.511741 -91.50568 
L 606.45281 -92.942629 
L 603.393878 -94.361894 
L 600.334947 -95.744001 
L 597.276016 -97.070767 
L 594.217085 -98.326548 
L 591.158154 -99.499355 
L 588.099223 -100.581746 
L 585.040292 -101.571432 
L 581.981361 -102.471527 
L 578.92243 -103.290434 
L 575.863499 -104.041347 
L 572.804568 -104.741407 
L 569.745637 -105.410551 
L 566.686706 -106.07013 
L 563.627775 -106.741374 
L 560.568844 -107.443813 
L 557.509913 -108.193744 
L 554.450982 -109.002853 
L 551.392051 -109.877097 
L 548.33312 -110.815905 
L 545.274189 -111.811785 
L 542.215258 -112.850376 
L 539.156327 -113.910941 
L 536.097396 -114.967305 
L 533.038465 -115.989175 
L 529.979534 -116.943776 
L 526.920603 -117.797692 
L 523.861672 -118.518793 
L 520.802741 -119.078119 
L 517.74381 -119.451589 
L 514.684879 -119.621417 
L 511.625948 -119.577135 
L 508.567017 -119.316149 
L 505.508086 -118.843816 
L 502.449155 -118.173025 
L 499.390224 -117.323345 
L 496.331293 -116.319809 
L 493.272362 -115.191438 
L 490.213431 -113.969629 
L 487.1545 -112.68652 
L 484.095569 -111.373447 
L 481.036638 -110.059603 
L 477.977707 -108.770958 
L 474.918776 -107.529502 
L 471.859845 -106.352817 
L 468.800914 -105.253982 
L 465.741983 -104.241773 
L 462.683052 -103.321116 
L 459.624121 -102.493733 
L 456.56519 -101.758918 
L 453.506259 -101.114386 
L 450.447328 -100.557134 
L 447.388397 -100.08427 
L 444.329466 -99.693773 
L 441.270534 -99.385151 
L 438.211603 -99.159972 
L 435.152672 -99.022271 
L 432.093741 -98.978801 
L 429.03481 -99.039147 
L 425.975879 -99.215676 
L 422.916948 -99.523347 
L 419.858017 -99.979367 
L 416.799086 -100.602708 
L 413.740155 -101.413493 
L 410.681224 -102.432266 
L 407.622293 -103.679178 
L 404.563362 -105.173104 
L 401.504431 -106.930745 
L 398.4455 -108.965748 
L 395.386569 -111.287886 
L 392.327638 -113.902359 
L 389.268707 -116.809232 
L 386.209776 -120.003075 
L 383.150845 -123.472786 
L 380.091914 -127.201642 
L 377.032983 -131.167539 
L 373.974052 -135.343407 
L 370.915121 -139.697755 
L 367.85619 -144.195307 
L 364.797259 -148.797662 
L 361.738328 -153.463943 
L 358.679397 -158.151392 
L 355.620466 -162.815879 
L 352.561535 -167.412341 
L 349.502604 -171.895141 
L 346.443673 -176.218396 
L 343.384742 -180.33632 
L 340.325811 -184.20362 
L 337.26688 -187.776011 
L 334.207949 -191.01088 
L 331.149018 -193.868128 
L 328.090087 -196.311183 
L 325.031156 -198.308153 
L 321.972225 -199.833073 
L 318.913294 -200.86716 
L 315.854363 -201.399982 
L 312.795432 -201.430446 
L 309.736501 -200.967484 
L 306.67757 -200.030372 
L 303.618639 -198.648589 
L 300.559708 -196.861186 
L 297.500777 -194.715658 
L 294.441846 -192.266321 
L 291.382915 -189.572282 
L 288.323984 -186.695063 
L 285.265053 -183.696002 
L 282.206122 -180.633575 
L 279.14719 -177.560759 
L 276.088259 -174.52261 
L 273.029328 -171.554188 
L 269.970397 -168.678972 
L 266.911466 -165.90787 
L 263.852535 -163.23893 
L 260.793604 -160.657774 
L 257.734673 -158.138801 
L 254.675742 -155.647082 
L 251.616811 -153.140893 
L 248.55788 -150.574724 
L 245.498949 -147.902594 
L 242.440018 -145.081467 
L 239.381087 -142.074518 
L 236.322156 -138.854043 
L 233.263225 -135.403781 
L 230.204294 -131.720477 
L 227.145363 -127.814587 
L 224.086432 -123.710044 
L 221.027501 -119.443138 
L 217.96857 -115.060584 
L 214.909639 -110.616953 
L 211.850708 -106.171665 
L 208.791777 -101.785777 
L 205.732846 -97.518822 
L 202.673915 -93.425907 
L 199.614984 -89.555265 
L 196.556053 -85.946405 
L 193.497122 -82.62892 
L 190.438191 -79.621999 
L 187.37926 -76.934566 
L 184.320329 -74.565998 
L 181.261398 -72.507274 
L 178.202467 -70.742432 
L 175.143536 -69.250189 
L 172.084605 -68.005592 
L 169.025674 -66.981589 
L 165.966743 -66.150432 
L 162.907812 -65.484852 
L 159.848881 -64.958987 
L 156.78995 -64.549039 
L 153.731019 -64.233697 
L 150.672088 -63.994336 
L 147.613157 -63.815045 
L 144.554226 -63.682514 
L 141.495295 -63.585833 
L 138.436364 -63.516228 
z
" style="stroke: #023eff"/>
    </defs>
    <g clip-path="url(#p06c96c356e)">
     <use xlink:href="#m9fc3f9f1a2" x="0" y="576" style="fill: #023eff; fill-opacity: 0.25; stroke: #023eff"/>
    </g>
   </g>
   <g id="matplotlib.axis_1">
    <g id="xtick_1">
     <g id="line2d_1">
      <path d="M 165.230666 512.64 
L 165.230666 69.12 
" clip-path="url(#p06c96c356e)" style="fill: none; stroke: #ffffff; stroke-width: 0.8; stroke-linecap: square"/>
     </g>
     <g id="line2d_2">
      <defs>
       <path id="m708bb42958" d="M 0 0 
L 0 3.5 
" style="stroke: #ffffff; stroke-width: 0.8"/>
      </defs>
      <g>
       <use xlink:href="#m708bb42958" x="165.230666" y="512.64" style="fill: #ffffff; stroke: #ffffff; stroke-width: 0.8"/>
      </g>
     </g>
     <g id="text_1">
      <!-- 0 -->
      <g style="fill: #ffffff" transform="translate(162.049416 527.238438) scale(0.1 -0.1)">
       <defs>
        <path id="DejaVuSans-30" d="M 2034 4250 
Q 1547 4250 1301 3770 
Q 1056 3291 1056 2328 
Q 1056 1369 1301 889 
Q 1547 409 2034 409 
Q 2525 409 2770 889 
Q 3016 1369 3016 2328 
Q 3016 3291 2770 3770 
Q 2525 4250 2034 4250 
z
M 2034 4750 
Q 2819 4750 3233 4129 
Q 3647 3509 3647 2328 
Q 3647 1150 3233 529 
Q 2819 -91 2034 -91 
Q 1250 -91 836 529 
Q 422 1150 422 2328 
Q 422 3509 836 4129 
Q 1250 4750 2034 4750 
z
" transform="scale(0.015625)"/>
       </defs>
       <use xlink:href="#DejaVuSans-30"/>
      </g>
     </g>
    </g>
    <g id="xtick_2">
     <g id="line2d_3">
      <path d="M 268.894766 512.64 
L 268.894766 69.12 
" clip-path="url(#p06c96c356e)" style="fill: none; stroke: #ffffff; stroke-width: 0.8; stroke-linecap: square"/>
     </g>
     <g id="line2d_4">
      <g>
       <use xlink:href="#m708bb42958" x="268.894766" y="512.64" style="fill: #ffffff; stroke: #ffffff; stroke-width: 0.8"/>
      </g>
     </g>
     <g id="text_2">
      <!-- 200 -->
      <g style="fill: #ffffff" transform="translate(259.351016 527.238438) scale(0.1 -0.1)">
       <defs>
        <path id="DejaVuSans-32" d="M 1228 531 
L 3431 531 
L 3431 0 
L 469 0 
L 469 531 
Q 828 903 1448 1529 
Q 2069 2156 2228 2338 
Q 2531 2678 2651 2914 
Q 2772 3150 2772 3378 
Q 2772 3750 2511 3984 
Q 2250 4219 1831 4219 
Q 1534 4219 1204 4116 
Q 875 4013 500 3803 
L 500 4441 
Q 881 4594 1212 4672 
Q 1544 4750 1819 4750 
Q 2544 4750 2975 4387 
Q 3406 4025 3406 3419 
Q 3406 3131 3298 2873 
Q 3191 2616 2906 2266 
Q 2828 2175 2409 1742 
Q 1991 1309 1228 531 
z
" transform="scale(0.015625)"/>
       </defs>
       <use xlink:href="#DejaVuSans-32"/>
       <use xlink:href="#DejaVuSans-30" x="63.623047"/>
       <use xlink:href="#DejaVuSans-30" x="127.246094"/>
      </g>
     </g>
    </g>
    <g id="xtick_3">
     <g id="line2d_5">
      <path d="M 372.558865 512.64 
L 372.558865 69.12 
" clip-path="url(#p06c96c356e)" style="fill: none; stroke: #ffffff; stroke-width: 0.8; stroke-linecap: square"/>
     </g>
     <g id="line2d_6">
      <g>
       <use xlink:href="#m708bb42958" x="372.558865" y="512.64" style="fill: #ffffff; stroke: #ffffff; stroke-width: 0.8"/>
      </g>
     </g>
     <g id="text_3">
      <!-- 400 -->
      <g style="fill: #ffffff" transform="translate(363.015115 527.238438) scale(0.1 -0.1)">
       <defs>
        <path id="DejaVuSans-34" d="M 2419 4116 
L 825 1625 
L 2419 1625 
L 2419 4116 
z
M 2253 4666 
L 3047 4666 
L 3047 1625 
L 3713 1625 
L 3713 1100 
L 3047 1100 
L 3047 0 
L 2419 0 
L 2419 1100 
L 313 1100 
L 313 1709 
L 2253 4666 
z
" transform="scale(0.015625)"/>
       </defs>
       <use xlink:href="#DejaVuSans-34"/>
       <use xlink:href="#DejaVuSans-30" x="63.623047"/>
       <use xlink:href="#DejaVuSans-30" x="127.246094"/>
      </g>
     </g>
    </g>
    <g id="xtick_4">
     <g id="line2d_7">
      <path d="M 476.222965 512.64 
L 476.222965 69.12 
" clip-path="url(#p06c96c356e)" style="fill: none; stroke: #ffffff; stroke-width: 0.8; stroke-linecap: square"/>
     </g>
     <g id="line2d_8">
      <g>
       <use xlink:href="#m708bb42958" x="476.222965" y="512.64" style="fill: #ffffff; stroke: #ffffff; stroke-width: 0.8"/>
      </g>
     </g>
     <g id="text_4">
      <!-- 600 -->
      <g style="fill: #ffffff" transform="translate(466.679215 527.238438) scale(0.1 -0.1)">
       <defs>
        <path id="DejaVuSans-36" d="M 2113 2584 
Q 1688 2584 1439 2293 
Q 1191 2003 1191 1497 
Q 1191 994 1439 701 
Q 1688 409 2113 409 
Q 2538 409 2786 701 
Q 3034 994 3034 1497 
Q 3034 2003 2786 2293 
Q 2538 2584 2113 2584 
z
M 3366 4563 
L 3366 3988 
Q 3128 4100 2886 4159 
Q 2644 4219 2406 4219 
Q 1781 4219 1451 3797 
Q 1122 3375 1075 2522 
Q 1259 2794 1537 2939 
Q 1816 3084 2150 3084 
Q 2853 3084 3261 2657 
Q 3669 2231 3669 1497 
Q 3669 778 3244 343 
Q 2819 -91 2113 -91 
Q 1303 -91 875 529 
Q 447 1150 447 2328 
Q 447 3434 972 4092 
Q 1497 4750 2381 4750 
Q 2619 4750 2861 4703 
Q 3103 4656 3366 4563 
z
" transform="scale(0.015625)"/>
       </defs>
       <use xlink:href="#DejaVuSans-36"/>
       <use xlink:href="#DejaVuSans-30" x="63.623047"/>
       <use xlink:href="#DejaVuSans-30" x="127.246094"/>
      </g>
     </g>
    </g>
    <g id="xtick_5">
     <g id="line2d_9">
      <path d="M 579.887064 512.64 
L 579.887064 69.12 
" clip-path="url(#p06c96c356e)" style="fill: none; stroke: #ffffff; stroke-width: 0.8; stroke-linecap: square"/>
     </g>
     <g id="line2d_10">
      <g>
       <use xlink:href="#m708bb42958" x="579.887064" y="512.64" style="fill: #ffffff; stroke: #ffffff; stroke-width: 0.8"/>
      </g>
     </g>
     <g id="text_5">
      <!-- 800 -->
      <g style="fill: #ffffff" transform="translate(570.343314 527.238438) scale(0.1 -0.1)">
       <defs>
        <path id="DejaVuSans-38" d="M 2034 2216 
Q 1584 2216 1326 1975 
Q 1069 1734 1069 1313 
Q 1069 891 1326 650 
Q 1584 409 2034 409 
Q 2484 409 2743 651 
Q 3003 894 3003 1313 
Q 3003 1734 2745 1975 
Q 2488 2216 2034 2216 
z
M 1403 2484 
Q 997 2584 770 2862 
Q 544 3141 544 3541 
Q 544 4100 942 4425 
Q 1341 4750 2034 4750 
Q 2731 4750 3128 4425 
Q 3525 4100 3525 3541 
Q 3525 3141 3298 2862 
Q 3072 2584 2669 2484 
Q 3125 2378 3379 2068 
Q 3634 1759 3634 1313 
Q 3634 634 3220 271 
Q 2806 -91 2034 -91 
Q 1263 -91 848 271 
Q 434 634 434 1313 
Q 434 1759 690 2068 
Q 947 2378 1403 2484 
z
M 1172 3481 
Q 1172 3119 1398 2916 
Q 1625 2713 2034 2713 
Q 2441 2713 2670 2916 
Q 2900 3119 2900 3481 
Q 2900 3844 2670 4047 
Q 2441 4250 2034 4250 
Q 1625 4250 1398 4047 
Q 1172 3844 1172 3481 
z
" transform="scale(0.015625)"/>
       </defs>
       <use xlink:href="#DejaVuSans-38"/>
       <use xlink:href="#DejaVuSans-30" x="63.623047"/>
       <use xlink:href="#DejaVuSans-30" x="127.246094"/>
      </g>
     </g>
    </g>
    <g id="xtick_6">
     <g id="line2d_11">
      <path d="M 683.551164 512.64 
L 683.551164 69.12 
" clip-path="url(#p06c96c356e)" style="fill: none; stroke: #ffffff; stroke-width: 0.8; stroke-linecap: square"/>
     </g>
     <g id="line2d_12">
      <g>
       <use xlink:href="#m708bb42958" x="683.551164" y="512.64" style="fill: #ffffff; stroke: #ffffff; stroke-width: 0.8"/>
      </g>
     </g>
     <g id="text_6">
      <!-- 1000 -->
      <g style="fill: #ffffff" transform="translate(670.826164 527.238438) scale(0.1 -0.1)">
       <defs>
        <path id="DejaVuSans-31" d="M 794 531 
L 1825 531 
L 1825 4091 
L 703 3866 
L 703 4441 
L 1819 4666 
L 2450 4666 
L 2450 531 
L 3481 531 
L 3481 0 
L 794 0 
L 794 531 
z
" transform="scale(0.015625)"/>
       </defs>
       <use xlink:href="#DejaVuSans-31"/>
       <use xlink:href="#DejaVuSans-30" x="63.623047"/>
       <use xlink:href="#DejaVuSans-30" x="127.246094"/>
       <use xlink:href="#DejaVuSans-30" x="190.869141"/>
      </g>
     </g>
    </g>
    <g id="text_7">
     <!-- Time (ms) -->
     <g style="fill: #ffffff" transform="translate(417.600781 540.916563) scale(0.1 -0.1)">
      <defs>
       <path id="DejaVuSans-54" d="M -19 4666 
L 3928 4666 
L 3928 4134 
L 2272 4134 
L 2272 0 
L 1638 0 
L 1638 4134 
L -19 4134 
L -19 4666 
z
" transform="scale(0.015625)"/>
       <path id="DejaVuSans-69" d="M 603 3500 
L 1178 3500 
L 1178 0 
L 603 0 
L 603 3500 
z
M 603 4863 
L 1178 4863 
L 1178 4134 
L 603 4134 
L 603 4863 
z
" transform="scale(0.015625)"/>
       <path id="DejaVuSans-6d" d="M 3328 2828 
Q 3544 3216 3844 3400 
Q 4144 3584 4550 3584 
Q 5097 3584 5394 3201 
Q 5691 2819 5691 2113 
L 5691 0 
L 5113 0 
L 5113 2094 
Q 5113 2597 4934 2840 
Q 4756 3084 4391 3084 
Q 3944 3084 3684 2787 
Q 3425 2491 3425 1978 
L 3425 0 
L 2847 0 
L 2847 2094 
Q 2847 2600 2669 2842 
Q 2491 3084 2119 3084 
Q 1678 3084 1418 2786 
Q 1159 2488 1159 1978 
L 1159 0 
L 581 0 
L 581 3500 
L 1159 3500 
L 1159 2956 
Q 1356 3278 1631 3431 
Q 1906 3584 2284 3584 
Q 2666 3584 2933 3390 
Q 3200 3197 3328 2828 
z
" transform="scale(0.015625)"/>
       <path id="DejaVuSans-65" d="M 3597 1894 
L 3597 1613 
L 953 1613 
Q 991 1019 1311 708 
Q 1631 397 2203 397 
Q 2534 397 2845 478 
Q 3156 559 3463 722 
L 3463 178 
Q 3153 47 2828 -22 
Q 2503 -91 2169 -91 
Q 1331 -91 842 396 
Q 353 884 353 1716 
Q 353 2575 817 3079 
Q 1281 3584 2069 3584 
Q 2775 3584 3186 3129 
Q 3597 2675 3597 1894 
z
M 3022 2063 
Q 3016 2534 2758 2815 
Q 2500 3097 2075 3097 
Q 1594 3097 1305 2825 
Q 1016 2553 972 2059 
L 3022 2063 
z
" transform="scale(0.015625)"/>
       <path id="DejaVuSans-20" transform="scale(0.015625)"/>
       <path id="DejaVuSans-28" d="M 1984 4856 
Q 1566 4138 1362 3434 
Q 1159 2731 1159 2009 
Q 1159 1288 1364 580 
Q 1569 -128 1984 -844 
L 1484 -844 
Q 1016 -109 783 600 
Q 550 1309 550 2009 
Q 550 2706 781 3412 
Q 1013 4119 1484 4856 
L 1984 4856 
z
" transform="scale(0.015625)"/>
       <path id="DejaVuSans-73" d="M 2834 3397 
L 2834 2853 
Q 2591 2978 2328 3040 
Q 2066 3103 1784 3103 
Q 1356 3103 1142 2972 
Q 928 2841 928 2578 
Q 928 2378 1081 2264 
Q 1234 2150 1697 2047 
L 1894 2003 
Q 2506 1872 2764 1633 
Q 3022 1394 3022 966 
Q 3022 478 2636 193 
Q 2250 -91 1575 -91 
Q 1294 -91 989 -36 
Q 684 19 347 128 
L 347 722 
Q 666 556 975 473 
Q 1284 391 1588 391 
Q 1994 391 2212 530 
Q 2431 669 2431 922 
Q 2431 1156 2273 1281 
Q 2116 1406 1581 1522 
L 1381 1569 
Q 847 1681 609 1914 
Q 372 2147 372 2553 
Q 372 3047 722 3315 
Q 1072 3584 1716 3584 
Q 2034 3584 2315 3537 
Q 2597 3491 2834 3397 
z
" transform="scale(0.015625)"/>
       <path id="DejaVuSans-29" d="M 513 4856 
L 1013 4856 
Q 1481 4119 1714 3412 
Q 1947 2706 1947 2009 
Q 1947 1309 1714 600 
Q 1481 -109 1013 -844 
L 513 -844 
Q 928 -128 1133 580 
Q 1338 1288 1338 2009 
Q 1338 2731 1133 3434 
Q 928 4138 513 4856 
z
" transform="scale(0.015625)"/>
      </defs>
      <use xlink:href="#DejaVuSans-54"/>
      <use xlink:href="#DejaVuSans-69" x="57.958984"/>
      <use xlink:href="#DejaVuSans-6d" x="85.742188"/>
      <use xlink:href="#DejaVuSans-65" x="183.154297"/>
      <use xlink:href="#DejaVuSans-20" x="244.677734"/>
      <use xlink:href="#DejaVuSans-28" x="276.464844"/>
      <use xlink:href="#DejaVuSans-6d" x="315.478516"/>
      <use xlink:href="#DejaVuSans-73" x="412.890625"/>
      <use xlink:href="#DejaVuSans-29" x="464.990234"/>
     </g>
    </g>
   </g>
   <g id="matplotlib.axis_2">
    <g id="ytick_1">
     <g id="line2d_13">
      <path d="M 108 512.64 
L 777.6 512.64 
" clip-path="url(#p06c96c356e)" style="fill: none; stroke: #ffffff; stroke-width: 0.8; stroke-linecap: square"/>
     </g>
     <g id="line2d_14">
      <defs>
       <path id="m70040d1f93" d="M 0 0 
L -3.5 0 
" style="stroke: #ffffff; stroke-width: 0.8"/>
      </defs>
      <g>
       <use xlink:href="#m70040d1f93" x="108" y="512.64" style="fill: #ffffff; stroke: #ffffff; stroke-width: 0.8"/>
      </g>
     </g>
     <g id="text_8">
      <!-- 0.000 -->
      <g style="fill: #ffffff" transform="translate(72.371875 516.439219) scale(0.1 -0.1)">
       <defs>
        <path id="DejaVuSans-2e" d="M 684 794 
L 1344 794 
L 1344 0 
L 684 0 
L 684 794 
z
" transform="scale(0.015625)"/>
       </defs>
       <use xlink:href="#DejaVuSans-30"/>
       <use xlink:href="#DejaVuSans-2e" x="63.623047"/>
       <use xlink:href="#DejaVuSans-30" x="95.410156"/>
       <use xlink:href="#DejaVuSans-30" x="159.033203"/>
       <use xlink:href="#DejaVuSans-30" x="222.65625"/>
      </g>
     </g>
    </g>
    <g id="ytick_2">
     <g id="line2d_15">
      <path d="M 108 456.044332 
L 777.6 456.044332 
" clip-path="url(#p06c96c356e)" style="fill: none; stroke: #ffffff; stroke-width: 0.8; stroke-linecap: square"/>
     </g>
     <g id="line2d_16">
      <g>
       <use xlink:href="#m70040d1f93" x="108" y="456.044332" style="fill: #ffffff; stroke: #ffffff; stroke-width: 0.8"/>
      </g>
     </g>
     <g id="text_9">
      <!-- 0.001 -->
      <g style="fill: #ffffff" transform="translate(72.371875 459.843551) scale(0.1 -0.1)">
       <use xlink:href="#DejaVuSans-30"/>
       <use xlink:href="#DejaVuSans-2e" x="63.623047"/>
       <use xlink:href="#DejaVuSans-30" x="95.410156"/>
       <use xlink:href="#DejaVuSans-30" x="159.033203"/>
       <use xlink:href="#DejaVuSans-31" x="222.65625"/>
      </g>
     </g>
    </g>
    <g id="ytick_3">
     <g id="line2d_17">
      <path d="M 108 399.448665 
L 777.6 399.448665 
" clip-path="url(#p06c96c356e)" style="fill: none; stroke: #ffffff; stroke-width: 0.8; stroke-linecap: square"/>
     </g>
     <g id="line2d_18">
      <g>
       <use xlink:href="#m70040d1f93" x="108" y="399.448665" style="fill: #ffffff; stroke: #ffffff; stroke-width: 0.8"/>
      </g>
     </g>
     <g id="text_10">
      <!-- 0.002 -->
      <g style="fill: #ffffff" transform="translate(72.371875 403.247884) scale(0.1 -0.1)">
       <use xlink:href="#DejaVuSans-30"/>
       <use xlink:href="#DejaVuSans-2e" x="63.623047"/>
       <use xlink:href="#DejaVuSans-30" x="95.410156"/>
       <use xlink:href="#DejaVuSans-30" x="159.033203"/>
       <use xlink:href="#DejaVuSans-32" x="222.65625"/>
      </g>
     </g>
    </g>
    <g id="ytick_4">
     <g id="line2d_19">
      <path d="M 108 342.852997 
L 777.6 342.852997 
" clip-path="url(#p06c96c356e)" style="fill: none; stroke: #ffffff; stroke-width: 0.8; stroke-linecap: square"/>
     </g>
     <g id="line2d_20">
      <g>
       <use xlink:href="#m70040d1f93" x="108" y="342.852997" style="fill: #ffffff; stroke: #ffffff; stroke-width: 0.8"/>
      </g>
     </g>
     <g id="text_11">
      <!-- 0.003 -->
      <g style="fill: #ffffff" transform="translate(72.371875 346.652216) scale(0.1 -0.1)">
       <defs>
        <path id="DejaVuSans-33" d="M 2597 2516 
Q 3050 2419 3304 2112 
Q 3559 1806 3559 1356 
Q 3559 666 3084 287 
Q 2609 -91 1734 -91 
Q 1441 -91 1130 -33 
Q 819 25 488 141 
L 488 750 
Q 750 597 1062 519 
Q 1375 441 1716 441 
Q 2309 441 2620 675 
Q 2931 909 2931 1356 
Q 2931 1769 2642 2001 
Q 2353 2234 1838 2234 
L 1294 2234 
L 1294 2753 
L 1863 2753 
Q 2328 2753 2575 2939 
Q 2822 3125 2822 3475 
Q 2822 3834 2567 4026 
Q 2313 4219 1838 4219 
Q 1578 4219 1281 4162 
Q 984 4106 628 3988 
L 628 4550 
Q 988 4650 1302 4700 
Q 1616 4750 1894 4750 
Q 2613 4750 3031 4423 
Q 3450 4097 3450 3541 
Q 3450 3153 3228 2886 
Q 3006 2619 2597 2516 
z
" transform="scale(0.015625)"/>
       </defs>
       <use xlink:href="#DejaVuSans-30"/>
       <use xlink:href="#DejaVuSans-2e" x="63.623047"/>
       <use xlink:href="#DejaVuSans-30" x="95.410156"/>
       <use xlink:href="#DejaVuSans-30" x="159.033203"/>
       <use xlink:href="#DejaVuSans-33" x="222.65625"/>
      </g>
     </g>
    </g>
    <g id="ytick_5">
     <g id="line2d_21">
      <path d="M 108 286.25733 
L 777.6 286.25733 
" clip-path="url(#p06c96c356e)" style="fill: none; stroke: #ffffff; stroke-width: 0.8; stroke-linecap: square"/>
     </g>
     <g id="line2d_22">
      <g>
       <use xlink:href="#m70040d1f93" x="108" y="286.25733" style="fill: #ffffff; stroke: #ffffff; stroke-width: 0.8"/>
      </g>
     </g>
     <g id="text_12">
      <!-- 0.004 -->
      <g style="fill: #ffffff" transform="translate(72.371875 290.056549) scale(0.1 -0.1)">
       <use xlink:href="#DejaVuSans-30"/>
       <use xlink:href="#DejaVuSans-2e" x="63.623047"/>
       <use xlink:href="#DejaVuSans-30" x="95.410156"/>
       <use xlink:href="#DejaVuSans-30" x="159.033203"/>
       <use xlink:href="#DejaVuSans-34" x="222.65625"/>
      </g>
     </g>
    </g>
    <g id="ytick_6">
     <g id="line2d_23">
      <path d="M 108 229.661662 
L 777.6 229.661662 
" clip-path="url(#p06c96c356e)" style="fill: none; stroke: #ffffff; stroke-width: 0.8; stroke-linecap: square"/>
     </g>
     <g id="line2d_24">
      <g>
       <use xlink:href="#m70040d1f93" x="108" y="229.661662" style="fill: #ffffff; stroke: #ffffff; stroke-width: 0.8"/>
      </g>
     </g>
     <g id="text_13">
      <!-- 0.005 -->
      <g style="fill: #ffffff" transform="translate(72.371875 233.460881) scale(0.1 -0.1)">
       <defs>
        <path id="DejaVuSans-35" d="M 691 4666 
L 3169 4666 
L 3169 4134 
L 1269 4134 
L 1269 2991 
Q 1406 3038 1543 3061 
Q 1681 3084 1819 3084 
Q 2600 3084 3056 2656 
Q 3513 2228 3513 1497 
Q 3513 744 3044 326 
Q 2575 -91 1722 -91 
Q 1428 -91 1123 -41 
Q 819 9 494 109 
L 494 744 
Q 775 591 1075 516 
Q 1375 441 1709 441 
Q 2250 441 2565 725 
Q 2881 1009 2881 1497 
Q 2881 1984 2565 2268 
Q 2250 2553 1709 2553 
Q 1456 2553 1204 2497 
Q 953 2441 691 2322 
L 691 4666 
z
" transform="scale(0.015625)"/>
       </defs>
       <use xlink:href="#DejaVuSans-30"/>
       <use xlink:href="#DejaVuSans-2e" x="63.623047"/>
       <use xlink:href="#DejaVuSans-30" x="95.410156"/>
       <use xlink:href="#DejaVuSans-30" x="159.033203"/>
       <use xlink:href="#DejaVuSans-35" x="222.65625"/>
      </g>
     </g>
    </g>
    <g id="ytick_7">
     <g id="line2d_25">
      <path d="M 108 173.065995 
L 777.6 173.065995 
" clip-path="url(#p06c96c356e)" style="fill: none; stroke: #ffffff; stroke-width: 0.8; stroke-linecap: square"/>
     </g>
     <g id="line2d_26">
      <g>
       <use xlink:href="#m70040d1f93" x="108" y="173.065995" style="fill: #ffffff; stroke: #ffffff; stroke-width: 0.8"/>
      </g>
     </g>
     <g id="text_14">
      <!-- 0.006 -->
      <g style="fill: #ffffff" transform="translate(72.371875 176.865214) scale(0.1 -0.1)">
       <use xlink:href="#DejaVuSans-30"/>
       <use xlink:href="#DejaVuSans-2e" x="63.623047"/>
       <use xlink:href="#DejaVuSans-30" x="95.410156"/>
       <use xlink:href="#DejaVuSans-30" x="159.033203"/>
       <use xlink:href="#DejaVuSans-36" x="222.65625"/>
      </g>
     </g>
    </g>
    <g id="ytick_8">
     <g id="line2d_27">
      <path d="M 108 116.470327 
L 777.6 116.470327 
" clip-path="url(#p06c96c356e)" style="fill: none; stroke: #ffffff; stroke-width: 0.8; stroke-linecap: square"/>
     </g>
     <g id="line2d_28">
      <g>
       <use xlink:href="#m70040d1f93" x="108" y="116.470327" style="fill: #ffffff; stroke: #ffffff; stroke-width: 0.8"/>
      </g>
     </g>
     <g id="text_15">
      <!-- 0.007 -->
      <g style="fill: #ffffff" transform="translate(72.371875 120.269546) scale(0.1 -0.1)">
       <defs>
        <path id="DejaVuSans-37" d="M 525 4666 
L 3525 4666 
L 3525 4397 
L 1831 0 
L 1172 0 
L 2766 4134 
L 525 4134 
L 525 4666 
z
" transform="scale(0.015625)"/>
       </defs>
       <use xlink:href="#DejaVuSans-30"/>
       <use xlink:href="#DejaVuSans-2e" x="63.623047"/>
       <use xlink:href="#DejaVuSans-30" x="95.410156"/>
       <use xlink:href="#DejaVuSans-30" x="159.033203"/>
       <use xlink:href="#DejaVuSans-37" x="222.65625"/>
      </g>
     </g>
    </g>
    <g id="text_16">
     <!-- Density -->
     <g style="fill: #ffffff" transform="translate(66.292187 309.888594) rotate(-90) scale(0.1 -0.1)">
      <defs>
       <path id="DejaVuSans-44" d="M 1259 4147 
L 1259 519 
L 2022 519 
Q 2988 519 3436 956 
Q 3884 1394 3884 2338 
Q 3884 3275 3436 3711 
Q 2988 4147 2022 4147 
L 1259 4147 
z
M 628 4666 
L 1925 4666 
Q 3281 4666 3915 4102 
Q 4550 3538 4550 2338 
Q 4550 1131 3912 565 
Q 3275 0 1925 0 
L 628 0 
L 628 4666 
z
" transform="scale(0.015625)"/>
       <path id="DejaVuSans-6e" d="M 3513 2113 
L 3513 0 
L 2938 0 
L 2938 2094 
Q 2938 2591 2744 2837 
Q 2550 3084 2163 3084 
Q 1697 3084 1428 2787 
Q 1159 2491 1159 1978 
L 1159 0 
L 581 0 
L 581 3500 
L 1159 3500 
L 1159 2956 
Q 1366 3272 1645 3428 
Q 1925 3584 2291 3584 
Q 2894 3584 3203 3211 
Q 3513 2838 3513 2113 
z
" transform="scale(0.015625)"/>
       <path id="DejaVuSans-74" d="M 1172 4494 
L 1172 3500 
L 2356 3500 
L 2356 3053 
L 1172 3053 
L 1172 1153 
Q 1172 725 1289 603 
Q 1406 481 1766 481 
L 2356 481 
L 2356 0 
L 1766 0 
Q 1100 0 847 248 
Q 594 497 594 1153 
L 594 3053 
L 172 3053 
L 172 3500 
L 594 3500 
L 594 4494 
L 1172 4494 
z
" transform="scale(0.015625)"/>
       <path id="DejaVuSans-79" d="M 2059 -325 
Q 1816 -950 1584 -1140 
Q 1353 -1331 966 -1331 
L 506 -1331 
L 506 -850 
L 844 -850 
Q 1081 -850 1212 -737 
Q 1344 -625 1503 -206 
L 1606 56 
L 191 3500 
L 800 3500 
L 1894 763 
L 2988 3500 
L 3597 3500 
L 2059 -325 
z
" transform="scale(0.015625)"/>
      </defs>
      <use xlink:href="#DejaVuSans-44"/>
      <use xlink:href="#DejaVuSans-65" x="77.001953"/>
      <use xlink:href="#DejaVuSans-6e" x="138.525391"/>
      <use xlink:href="#DejaVuSans-73" x="201.904297"/>
      <use xlink:href="#DejaVuSans-69" x="254.003906"/>
      <use xlink:href="#DejaVuSans-74" x="281.787109"/>
      <use xlink:href="#DejaVuSans-79" x="320.996094"/>
     </g>
    </g>
   </g>
   <g id="patch_3">
    <path d="M 108 512.64 
L 108 69.12 
" style="fill: none; stroke: #ffffff; stroke-width: 0.8; stroke-linejoin: miter; stroke-linecap: square"/>
   </g>
   <g id="patch_4">
    <path d="M 777.6 512.64 
L 777.6 69.12 
" style="fill: none; stroke: #ffffff; stroke-width: 0.8; stroke-linejoin: miter; stroke-linecap: square"/>
   </g>
   <g id="patch_5">
    <path d="M 108 512.64 
L 777.6 512.64 
" style="fill: none; stroke: #ffffff; stroke-width: 0.8; stroke-linejoin: miter; stroke-linecap: square"/>
   </g>
   <g id="patch_6">
    <path d="M 108 69.12 
L 777.6 69.12 
" style="fill: none; stroke: #ffffff; stroke-width: 0.8; stroke-linejoin: miter; stroke-linecap: square"/>
   </g>
   <g id="text_17">
    <!-- Density Plot of Execution Time across Implementations -->
    <g style="fill: #ffffff" transform="translate(277.336875 63.12) scale(0.12 -0.12)">
     <defs>
      <path id="DejaVuSans-50" d="M 1259 4147 
L 1259 2394 
L 2053 2394 
Q 2494 2394 2734 2622 
Q 2975 2850 2975 3272 
Q 2975 3691 2734 3919 
Q 2494 4147 2053 4147 
L 1259 4147 
z
M 628 4666 
L 2053 4666 
Q 2838 4666 3239 4311 
Q 3641 3956 3641 3272 
Q 3641 2581 3239 2228 
Q 2838 1875 2053 1875 
L 1259 1875 
L 1259 0 
L 628 0 
L 628 4666 
z
" transform="scale(0.015625)"/>
      <path id="DejaVuSans-6c" d="M 603 4863 
L 1178 4863 
L 1178 0 
L 603 0 
L 603 4863 
z
" transform="scale(0.015625)"/>
      <path id="DejaVuSans-6f" d="M 1959 3097 
Q 1497 3097 1228 2736 
Q 959 2375 959 1747 
Q 959 1119 1226 758 
Q 1494 397 1959 397 
Q 2419 397 2687 759 
Q 2956 1122 2956 1747 
Q 2956 2369 2687 2733 
Q 2419 3097 1959 3097 
z
M 1959 3584 
Q 2709 3584 3137 3096 
Q 3566 2609 3566 1747 
Q 3566 888 3137 398 
Q 2709 -91 1959 -91 
Q 1206 -91 779 398 
Q 353 888 353 1747 
Q 353 2609 779 3096 
Q 1206 3584 1959 3584 
z
" transform="scale(0.015625)"/>
      <path id="DejaVuSans-66" d="M 2375 4863 
L 2375 4384 
L 1825 4384 
Q 1516 4384 1395 4259 
Q 1275 4134 1275 3809 
L 1275 3500 
L 2222 3500 
L 2222 3053 
L 1275 3053 
L 1275 0 
L 697 0 
L 697 3053 
L 147 3053 
L 147 3500 
L 697 3500 
L 697 3744 
Q 697 4328 969 4595 
Q 1241 4863 1831 4863 
L 2375 4863 
z
" transform="scale(0.015625)"/>
      <path id="DejaVuSans-45" d="M 628 4666 
L 3578 4666 
L 3578 4134 
L 1259 4134 
L 1259 2753 
L 3481 2753 
L 3481 2222 
L 1259 2222 
L 1259 531 
L 3634 531 
L 3634 0 
L 628 0 
L 628 4666 
z
" transform="scale(0.015625)"/>
      <path id="DejaVuSans-78" d="M 3513 3500 
L 2247 1797 
L 3578 0 
L 2900 0 
L 1881 1375 
L 863 0 
L 184 0 
L 1544 1831 
L 300 3500 
L 978 3500 
L 1906 2253 
L 2834 3500 
L 3513 3500 
z
" transform="scale(0.015625)"/>
      <path id="DejaVuSans-63" d="M 3122 3366 
L 3122 2828 
Q 2878 2963 2633 3030 
Q 2388 3097 2138 3097 
Q 1578 3097 1268 2742 
Q 959 2388 959 1747 
Q 959 1106 1268 751 
Q 1578 397 2138 397 
Q 2388 397 2633 464 
Q 2878 531 3122 666 
L 3122 134 
Q 2881 22 2623 -34 
Q 2366 -91 2075 -91 
Q 1284 -91 818 406 
Q 353 903 353 1747 
Q 353 2603 823 3093 
Q 1294 3584 2113 3584 
Q 2378 3584 2631 3529 
Q 2884 3475 3122 3366 
z
" transform="scale(0.015625)"/>
      <path id="DejaVuSans-75" d="M 544 1381 
L 544 3500 
L 1119 3500 
L 1119 1403 
Q 1119 906 1312 657 
Q 1506 409 1894 409 
Q 2359 409 2629 706 
Q 2900 1003 2900 1516 
L 2900 3500 
L 3475 3500 
L 3475 0 
L 2900 0 
L 2900 538 
Q 2691 219 2414 64 
Q 2138 -91 1772 -91 
Q 1169 -91 856 284 
Q 544 659 544 1381 
z
M 1991 3584 
L 1991 3584 
z
" transform="scale(0.015625)"/>
      <path id="DejaVuSans-61" d="M 2194 1759 
Q 1497 1759 1228 1600 
Q 959 1441 959 1056 
Q 959 750 1161 570 
Q 1363 391 1709 391 
Q 2188 391 2477 730 
Q 2766 1069 2766 1631 
L 2766 1759 
L 2194 1759 
z
M 3341 1997 
L 3341 0 
L 2766 0 
L 2766 531 
Q 2569 213 2275 61 
Q 1981 -91 1556 -91 
Q 1019 -91 701 211 
Q 384 513 384 1019 
Q 384 1609 779 1909 
Q 1175 2209 1959 2209 
L 2766 2209 
L 2766 2266 
Q 2766 2663 2505 2880 
Q 2244 3097 1772 3097 
Q 1472 3097 1187 3025 
Q 903 2953 641 2809 
L 641 3341 
Q 956 3463 1253 3523 
Q 1550 3584 1831 3584 
Q 2591 3584 2966 3190 
Q 3341 2797 3341 1997 
z
" transform="scale(0.015625)"/>
      <path id="DejaVuSans-72" d="M 2631 2963 
Q 2534 3019 2420 3045 
Q 2306 3072 2169 3072 
Q 1681 3072 1420 2755 
Q 1159 2438 1159 1844 
L 1159 0 
L 581 0 
L 581 3500 
L 1159 3500 
L 1159 2956 
Q 1341 3275 1631 3429 
Q 1922 3584 2338 3584 
Q 2397 3584 2469 3576 
Q 2541 3569 2628 3553 
L 2631 2963 
z
" transform="scale(0.015625)"/>
      <path id="DejaVuSans-49" d="M 628 4666 
L 1259 4666 
L 1259 0 
L 628 0 
L 628 4666 
z
" transform="scale(0.015625)"/>
      <path id="DejaVuSans-70" d="M 1159 525 
L 1159 -1331 
L 581 -1331 
L 581 3500 
L 1159 3500 
L 1159 2969 
Q 1341 3281 1617 3432 
Q 1894 3584 2278 3584 
Q 2916 3584 3314 3078 
Q 3713 2572 3713 1747 
Q 3713 922 3314 415 
Q 2916 -91 2278 -91 
Q 1894 -91 1617 61 
Q 1341 213 1159 525 
z
M 3116 1747 
Q 3116 2381 2855 2742 
Q 2594 3103 2138 3103 
Q 1681 3103 1420 2742 
Q 1159 2381 1159 1747 
Q 1159 1113 1420 752 
Q 1681 391 2138 391 
Q 2594 391 2855 752 
Q 3116 1113 3116 1747 
z
" transform="scale(0.015625)"/>
     </defs>
     <use xlink:href="#DejaVuSans-44"/>
     <use xlink:href="#DejaVuSans-65" x="77.001953"/>
     <use xlink:href="#DejaVuSans-6e" x="138.525391"/>
     <use xlink:href="#DejaVuSans-73" x="201.904297"/>
     <use xlink:href="#DejaVuSans-69" x="254.003906"/>
     <use xlink:href="#DejaVuSans-74" x="281.787109"/>
     <use xlink:href="#DejaVuSans-79" x="320.996094"/>
     <use xlink:href="#DejaVuSans-20" x="380.175781"/>
     <use xlink:href="#DejaVuSans-50" x="411.962891"/>
     <use xlink:href="#DejaVuSans-6c" x="472.265625"/>
     <use xlink:href="#DejaVuSans-6f" x="500.048828"/>
     <use xlink:href="#DejaVuSans-74" x="561.230469"/>
     <use xlink:href="#DejaVuSans-20" x="600.439453"/>
     <use xlink:href="#DejaVuSans-6f" x="632.226562"/>
     <use xlink:href="#DejaVuSans-66" x="693.408203"/>
     <use xlink:href="#DejaVuSans-20" x="728.613281"/>
     <use xlink:href="#DejaVuSans-45" x="760.400391"/>
     <use xlink:href="#DejaVuSans-78" x="823.583984"/>
     <use xlink:href="#DejaVuSans-65" x="879.638672"/>
     <use xlink:href="#DejaVuSans-63" x="941.162109"/>
     <use xlink:href="#DejaVuSans-75" x="996.142578"/>
     <use xlink:href="#DejaVuSans-74" x="1059.521484"/>
     <use xlink:href="#DejaVuSans-69" x="1098.730469"/>
     <use xlink:href="#DejaVuSans-6f" x="1126.513672"/>
     <use xlink:href="#DejaVuSans-6e" x="1187.695312"/>
     <use xlink:href="#DejaVuSans-20" x="1251.074219"/>
     <use xlink:href="#DejaVuSans-54" x="1282.861328"/>
     <use xlink:href="#DejaVuSans-69" x="1340.820312"/>
     <use xlink:href="#DejaVuSans-6d" x="1368.603516"/>
     <use xlink:href="#DejaVuSans-65" x="1466.015625"/>
     <use xlink:href="#DejaVuSans-20" x="1527.539062"/>
     <use xlink:href="#DejaVuSans-61" x="1559.326172"/>
     <use xlink:href="#DejaVuSans-63" x="1620.605469"/>
     <use xlink:href="#DejaVuSans-72" x="1675.585938"/>
     <use xlink:href="#DejaVuSans-6f" x="1714.449219"/>
     <use xlink:href="#DejaVuSans-73" x="1775.630859"/>
     <use xlink:href="#DejaVuSans-73" x="1827.730469"/>
     <use xlink:href="#DejaVuSans-20" x="1879.830078"/>
     <use xlink:href="#DejaVuSans-49" x="1911.617188"/>
     <use xlink:href="#DejaVuSans-6d" x="1941.109375"/>
     <use xlink:href="#DejaVuSans-70" x="2038.521484"/>
     <use xlink:href="#DejaVuSans-6c" x="2101.998047"/>
     <use xlink:href="#DejaVuSans-65" x="2129.78125"/>
     <use xlink:href="#DejaVuSans-6d" x="2191.304688"/>
     <use xlink:href="#DejaVuSans-65" x="2288.716797"/>
     <use xlink:href="#DejaVuSans-6e" x="2350.240234"/>
     <use xlink:href="#DejaVuSans-74" x="2413.619141"/>
     <use xlink:href="#DejaVuSans-61" x="2452.828125"/>
     <use xlink:href="#DejaVuSans-74" x="2514.107422"/>
     <use xlink:href="#DejaVuSans-69" x="2553.316406"/>
     <use xlink:href="#DejaVuSans-6f" x="2581.099609"/>
     <use xlink:href="#DejaVuSans-6e" x="2642.28125"/>
     <use xlink:href="#DejaVuSans-73" x="2705.660156"/>
    </g>
   </g>
   <g id="legend_1">
    <g id="patch_7">
     <path d="M 617.078125 136.666875 
L 770.6 136.666875 
Q 772.6 136.666875 772.6 134.666875 
L 772.6 76.12 
Q 772.6 74.12 770.6 74.12 
L 617.078125 74.12 
Q 615.078125 74.12 615.078125 76.12 
L 615.078125 134.666875 
Q 615.078125 136.666875 617.078125 136.666875 
z
" style="opacity: 0.8; stroke: #cccccc; stroke-linejoin: miter"/>
    </g>
    <g id="text_18">
     <!-- implementation -->
     <g style="fill: #ffffff" transform="translate(654.222656 85.718437) scale(0.1 -0.1)">
      <use xlink:href="#DejaVuSans-69"/>
      <use xlink:href="#DejaVuSans-6d" x="27.783203"/>
      <use xlink:href="#DejaVuSans-70" x="125.195312"/>
      <use xlink:href="#DejaVuSans-6c" x="188.671875"/>
      <use xlink:href="#DejaVuSans-65" x="216.455078"/>
      <use xlink:href="#DejaVuSans-6d" x="277.978516"/>
      <use xlink:href="#DejaVuSans-65" x="375.390625"/>
      <use xlink:href="#DejaVuSans-6e" x="436.914062"/>
      <use xlink:href="#DejaVuSans-74" x="500.292969"/>
      <use xlink:href="#DejaVuSans-61" x="539.501953"/>
      <use xlink:href="#DejaVuSans-74" x="600.78125"/>
      <use xlink:href="#DejaVuSans-69" x="639.990234"/>
      <use xlink:href="#DejaVuSans-6f" x="667.773438"/>
      <use xlink:href="#DejaVuSans-6e" x="728.955078"/>
     </g>
    </g>
    <g id="patch_8">
     <path d="M 619.078125 100.396563 
L 639.078125 100.396563 
L 639.078125 93.396563 
L 619.078125 93.396563 
z
" style="fill: #023eff; fill-opacity: 0.25; stroke: #023eff; stroke-linejoin: miter"/>
    </g>
    <g id="text_19">
     <!-- caio.python_aio_asyncio -->
     <g style="fill: #ffffff" transform="translate(647.078125 100.396563) scale(0.1 -0.1)">
      <defs>
       <path id="DejaVuSans-68" d="M 3513 2113 
L 3513 0 
L 2938 0 
L 2938 2094 
Q 2938 2591 2744 2837 
Q 2550 3084 2163 3084 
Q 1697 3084 1428 2787 
Q 1159 2491 1159 1978 
L 1159 0 
L 581 0 
L 581 4863 
L 1159 4863 
L 1159 2956 
Q 1366 3272 1645 3428 
Q 1925 3584 2291 3584 
Q 2894 3584 3203 3211 
Q 3513 2838 3513 2113 
z
" transform="scale(0.015625)"/>
       <path id="DejaVuSans-5f" d="M 3263 -1063 
L 3263 -1509 
L -63 -1509 
L -63 -1063 
L 3263 -1063 
z
" transform="scale(0.015625)"/>
      </defs>
      <use xlink:href="#DejaVuSans-63"/>
      <use xlink:href="#DejaVuSans-61" x="54.980469"/>
      <use xlink:href="#DejaVuSans-69" x="116.259766"/>
      <use xlink:href="#DejaVuSans-6f" x="144.042969"/>
      <use xlink:href="#DejaVuSans-2e" x="203.474609"/>
      <use xlink:href="#DejaVuSans-70" x="235.261719"/>
      <use xlink:href="#DejaVuSans-79" x="298.738281"/>
      <use xlink:href="#DejaVuSans-74" x="357.917969"/>
      <use xlink:href="#DejaVuSans-68" x="397.126953"/>
      <use xlink:href="#DejaVuSans-6f" x="460.505859"/>
      <use xlink:href="#DejaVuSans-6e" x="521.6875"/>
      <use xlink:href="#DejaVuSans-5f" x="585.066406"/>
      <use xlink:href="#DejaVuSans-61" x="635.066406"/>
      <use xlink:href="#DejaVuSans-69" x="696.345703"/>
      <use xlink:href="#DejaVuSans-6f" x="724.128906"/>
      <use xlink:href="#DejaVuSans-5f" x="785.310547"/>
      <use xlink:href="#DejaVuSans-61" x="835.310547"/>
      <use xlink:href="#DejaVuSans-73" x="896.589844"/>
      <use xlink:href="#DejaVuSans-79" x="948.689453"/>
      <use xlink:href="#DejaVuSans-6e" x="1007.869141"/>
      <use xlink:href="#DejaVuSans-63" x="1071.248047"/>
      <use xlink:href="#DejaVuSans-69" x="1126.228516"/>
      <use xlink:href="#DejaVuSans-6f" x="1154.011719"/>
     </g>
    </g>
    <g id="patch_9">
     <path d="M 619.078125 115.352813 
L 639.078125 115.352813 
L 639.078125 108.352813 
L 619.078125 108.352813 
z
" style="fill: #ff7c00; fill-opacity: 0.25; stroke: #ff7c00; stroke-linejoin: miter"/>
    </g>
    <g id="text_20">
     <!-- caio.linux_aio_asyncio -->
     <g style="fill: #ffffff" transform="translate(647.078125 115.352813) scale(0.1 -0.1)">
      <use xlink:href="#DejaVuSans-63"/>
      <use xlink:href="#DejaVuSans-61" x="54.980469"/>
      <use xlink:href="#DejaVuSans-69" x="116.259766"/>
      <use xlink:href="#DejaVuSans-6f" x="144.042969"/>
      <use xlink:href="#DejaVuSans-2e" x="203.474609"/>
      <use xlink:href="#DejaVuSans-6c" x="235.261719"/>
      <use xlink:href="#DejaVuSans-69" x="263.044922"/>
      <use xlink:href="#DejaVuSans-6e" x="290.828125"/>
      <use xlink:href="#DejaVuSans-75" x="354.207031"/>
      <use xlink:href="#DejaVuSans-78" x="417.585938"/>
      <use xlink:href="#DejaVuSans-5f" x="476.765625"/>
      <use xlink:href="#DejaVuSans-61" x="526.765625"/>
      <use xlink:href="#DejaVuSans-69" x="588.044922"/>
      <use xlink:href="#DejaVuSans-6f" x="615.828125"/>
      <use xlink:href="#DejaVuSans-5f" x="677.009766"/>
      <use xlink:href="#DejaVuSans-61" x="727.009766"/>
      <use xlink:href="#DejaVuSans-73" x="788.289062"/>
      <use xlink:href="#DejaVuSans-79" x="840.388672"/>
      <use xlink:href="#DejaVuSans-6e" x="899.568359"/>
      <use xlink:href="#DejaVuSans-63" x="962.947266"/>
      <use xlink:href="#DejaVuSans-69" x="1017.927734"/>
      <use xlink:href="#DejaVuSans-6f" x="1045.710938"/>
     </g>
    </g>
    <g id="patch_10">
     <path d="M 619.078125 130.309063 
L 639.078125 130.309063 
L 639.078125 123.309063 
L 619.078125 123.309063 
z
" style="fill: #1ac938; fill-opacity: 0.25; stroke: #1ac938; stroke-linejoin: miter"/>
    </g>
    <g id="text_21">
     <!-- caio.thread_aio_asyncio -->
     <g style="fill: #ffffff" transform="translate(647.078125 130.309063) scale(0.1 -0.1)">
      <defs>
       <path id="DejaVuSans-64" d="M 2906 2969 
L 2906 4863 
L 3481 4863 
L 3481 0 
L 2906 0 
L 2906 525 
Q 2725 213 2448 61 
Q 2172 -91 1784 -91 
Q 1150 -91 751 415 
Q 353 922 353 1747 
Q 353 2572 751 3078 
Q 1150 3584 1784 3584 
Q 2172 3584 2448 3432 
Q 2725 3281 2906 2969 
z
M 947 1747 
Q 947 1113 1208 752 
Q 1469 391 1925 391 
Q 2381 391 2643 752 
Q 2906 1113 2906 1747 
Q 2906 2381 2643 2742 
Q 2381 3103 1925 3103 
Q 1469 3103 1208 2742 
Q 947 2381 947 1747 
z
" transform="scale(0.015625)"/>
      </defs>
      <use xlink:href="#DejaVuSans-63"/>
      <use xlink:href="#DejaVuSans-61" x="54.980469"/>
      <use xlink:href="#DejaVuSans-69" x="116.259766"/>
      <use xlink:href="#DejaVuSans-6f" x="144.042969"/>
      <use xlink:href="#DejaVuSans-2e" x="203.474609"/>
      <use xlink:href="#DejaVuSans-74" x="235.261719"/>
      <use xlink:href="#DejaVuSans-68" x="274.470703"/>
      <use xlink:href="#DejaVuSans-72" x="337.849609"/>
      <use xlink:href="#DejaVuSans-65" x="376.712891"/>
      <use xlink:href="#DejaVuSans-61" x="438.236328"/>
      <use xlink:href="#DejaVuSans-64" x="499.515625"/>
      <use xlink:href="#DejaVuSans-5f" x="562.992188"/>
      <use xlink:href="#DejaVuSans-61" x="612.992188"/>
      <use xlink:href="#DejaVuSans-69" x="674.271484"/>
      <use xlink:href="#DejaVuSans-6f" x="702.054688"/>
      <use xlink:href="#DejaVuSans-5f" x="763.236328"/>
      <use xlink:href="#DejaVuSans-61" x="813.236328"/>
      <use xlink:href="#DejaVuSans-73" x="874.515625"/>
      <use xlink:href="#DejaVuSans-79" x="926.615234"/>
      <use xlink:href="#DejaVuSans-6e" x="985.794922"/>
      <use xlink:href="#DejaVuSans-63" x="1049.173828"/>
      <use xlink:href="#DejaVuSans-69" x="1104.154297"/>
      <use xlink:href="#DejaVuSans-6f" x="1131.9375"/>
     </g>
    </g>
   </g>
  </g>
 </g>
 <defs>
  <clipPath id="p06c96c356e">
   <rect x="108" y="69.12" width="669.6" height="443.52"/>
  </clipPath>
 </defs>
</svg>
