<?xml version="1.0" encoding="utf-8" standalone="no"?>
<!DOCTYPE svg PUBLIC "-//W3C//DTD SVG 1.1//EN"
  "http://www.w3.org/Graphics/SVG/1.1/DTD/svg11.dtd">
<svg xmlns:xlink="http://www.w3.org/1999/xlink" width="720pt" height="432pt" viewBox="0 0 720 432" xmlns="http://www.w3.org/2000/svg" version="1.1">
 <metadata>
  <rdf:RDF xmlns:dc="http://purl.org/dc/elements/1.1/" xmlns:cc="http://creativecommons.org/ns#" xmlns:rdf="http://www.w3.org/1999/02/22-rdf-syntax-ns#">
   <cc:Work>
    <dc:type rdf:resource="http://purl.org/dc/dcmitype/StillImage"/>
    <dc:date>2024-01-19T15:25:07.967139</dc:date>
    <dc:format>image/svg+xml</dc:format>
    <dc:creator>
     <cc:Agent>
      <dc:title>Matplotlib v3.8.2, https://matplotlib.org/</dc:title>
     </cc:Agent>
    </dc:creator>
   </cc:Work>
  </rdf:RDF>
 </metadata>
 <defs>
  <style type="text/css">*{stroke-linejoin: round; stroke-linecap: butt}</style>
 </defs>
 <g id="figure_1">
  <g id="patch_1">
   <path d="M 0 432 
L 720 432 
L 720 0 
L 0 0 
z
"/>
  </g>
  <g id="axes_1">
   <g id="patch_2">
    <path d="M 90 384.48 
L 648 384.48 
L 648 51.84 
L 90 51.84 
z
"/>
   </g>
   <g id="matplotlib.axis_1">
    <g id="xtick_1">
     <g id="line2d_1">
      <path d="M 115.363636 384.48 
L 115.363636 51.84 
" clip-path="url(#pdf8f5ed528)" style="fill: none; stroke: #ffffff; stroke-width: 0.8; stroke-linecap: square"/>
     </g>
     <g id="line2d_2">
      <defs>
       <path id="me889b7f79b" d="M 0 0 
L 0 3.5 
" style="stroke: #ffffff; stroke-width: 0.8"/>
      </defs>
      <g>
       <use xlink:href="#me889b7f79b" x="115.363636" y="384.48" style="fill: #ffffff; stroke: #ffffff; stroke-width: 0.8"/>
      </g>
     </g>
     <g id="text_1">
      <!-- 1 -->
      <g style="fill: #ffffff" transform="translate(115.065326 401.351874) rotate(-45) scale(0.1 -0.1)">
       <defs>
        <path id="DejaVuSans-31" d="M 794 531 
L 1825 531 
L 1825 4091 
L 703 3866 
L 703 4441 
L 1819 4666 
L 2450 4666 
L 2450 531 
L 3481 531 
L 3481 0 
L 794 0 
L 794 531 
z
" transform="scale(0.015625)"/>
       </defs>
       <use xlink:href="#DejaVuSans-31"/>
      </g>
     </g>
    </g>
    <g id="xtick_2">
     <g id="line2d_3">
      <path d="M 136.5 384.48 
L 136.5 51.84 
" clip-path="url(#pdf8f5ed528)" style="fill: none; stroke: #ffffff; stroke-width: 0.8; stroke-linecap: square"/>
     </g>
     <g id="line2d_4">
      <g>
       <use xlink:href="#me889b7f79b" x="136.5" y="384.48" style="fill: #ffffff; stroke: #ffffff; stroke-width: 0.8"/>
      </g>
     </g>
     <g id="text_2">
      <!-- 201 -->
      <g style="fill: #ffffff" transform="translate(131.702722 410.349807) rotate(-45) scale(0.1 -0.1)">
       <defs>
        <path id="DejaVuSans-32" d="M 1228 531 
L 3431 531 
L 3431 0 
L 469 0 
L 469 531 
Q 828 903 1448 1529 
Q 2069 2156 2228 2338 
Q 2531 2678 2651 2914 
Q 2772 3150 2772 3378 
Q 2772 3750 2511 3984 
Q 2250 4219 1831 4219 
Q 1534 4219 1204 4116 
Q 875 4013 500 3803 
L 500 4441 
Q 881 4594 1212 4672 
Q 1544 4750 1819 4750 
Q 2544 4750 2975 4387 
Q 3406 4025 3406 3419 
Q 3406 3131 3298 2873 
Q 3191 2616 2906 2266 
Q 2828 2175 2409 1742 
Q 1991 1309 1228 531 
z
" transform="scale(0.015625)"/>
        <path id="DejaVuSans-30" d="M 2034 4250 
Q 1547 4250 1301 3770 
Q 1056 3291 1056 2328 
Q 1056 1369 1301 889 
Q 1547 409 2034 409 
Q 2525 409 2770 889 
Q 3016 1369 3016 2328 
Q 3016 3291 2770 3770 
Q 2525 4250 2034 4250 
z
M 2034 4750 
Q 2819 4750 3233 4129 
Q 3647 3509 3647 2328 
Q 3647 1150 3233 529 
Q 2819 -91 2034 -91 
Q 1250 -91 836 529 
Q 422 1150 422 2328 
Q 422 3509 836 4129 
Q 1250 4750 2034 4750 
z
" transform="scale(0.015625)"/>
       </defs>
       <use xlink:href="#DejaVuSans-32"/>
       <use xlink:href="#DejaVuSans-30" x="63.623047"/>
       <use xlink:href="#DejaVuSans-31" x="127.246094"/>
      </g>
     </g>
    </g>
    <g id="xtick_3">
     <g id="line2d_5">
      <path d="M 157.636364 384.48 
L 157.636364 51.84 
" clip-path="url(#pdf8f5ed528)" style="fill: none; stroke: #ffffff; stroke-width: 0.8; stroke-linecap: square"/>
     </g>
     <g id="line2d_6">
      <g>
       <use xlink:href="#me889b7f79b" x="157.636364" y="384.48" style="fill: #ffffff; stroke: #ffffff; stroke-width: 0.8"/>
      </g>
     </g>
     <g id="text_3">
      <!-- 401 -->
      <g style="fill: #ffffff" transform="translate(152.839086 410.349807) rotate(-45) scale(0.1 -0.1)">
       <defs>
        <path id="DejaVuSans-34" d="M 2419 4116 
L 825 1625 
L 2419 1625 
L 2419 4116 
z
M 2253 4666 
L 3047 4666 
L 3047 1625 
L 3713 1625 
L 3713 1100 
L 3047 1100 
L 3047 0 
L 2419 0 
L 2419 1100 
L 313 1100 
L 313 1709 
L 2253 4666 
z
" transform="scale(0.015625)"/>
       </defs>
       <use xlink:href="#DejaVuSans-34"/>
       <use xlink:href="#DejaVuSans-30" x="63.623047"/>
       <use xlink:href="#DejaVuSans-31" x="127.246094"/>
      </g>
     </g>
    </g>
    <g id="xtick_4">
     <g id="line2d_7">
      <path d="M 178.772727 384.48 
L 178.772727 51.84 
" clip-path="url(#pdf8f5ed528)" style="fill: none; stroke: #ffffff; stroke-width: 0.8; stroke-linecap: square"/>
     </g>
     <g id="line2d_8">
      <g>
       <use xlink:href="#me889b7f79b" x="178.772727" y="384.48" style="fill: #ffffff; stroke: #ffffff; stroke-width: 0.8"/>
      </g>
     </g>
     <g id="text_4">
      <!-- 601 -->
      <g style="fill: #ffffff" transform="translate(173.97545 410.349807) rotate(-45) scale(0.1 -0.1)">
       <defs>
        <path id="DejaVuSans-36" d="M 2113 2584 
Q 1688 2584 1439 2293 
Q 1191 2003 1191 1497 
Q 1191 994 1439 701 
Q 1688 409 2113 409 
Q 2538 409 2786 701 
Q 3034 994 3034 1497 
Q 3034 2003 2786 2293 
Q 2538 2584 2113 2584 
z
M 3366 4563 
L 3366 3988 
Q 3128 4100 2886 4159 
Q 2644 4219 2406 4219 
Q 1781 4219 1451 3797 
Q 1122 3375 1075 2522 
Q 1259 2794 1537 2939 
Q 1816 3084 2150 3084 
Q 2853 3084 3261 2657 
Q 3669 2231 3669 1497 
Q 3669 778 3244 343 
Q 2819 -91 2113 -91 
Q 1303 -91 875 529 
Q 447 1150 447 2328 
Q 447 3434 972 4092 
Q 1497 4750 2381 4750 
Q 2619 4750 2861 4703 
Q 3103 4656 3366 4563 
z
" transform="scale(0.015625)"/>
       </defs>
       <use xlink:href="#DejaVuSans-36"/>
       <use xlink:href="#DejaVuSans-30" x="63.623047"/>
       <use xlink:href="#DejaVuSans-31" x="127.246094"/>
      </g>
     </g>
    </g>
    <g id="xtick_5">
     <g id="line2d_9">
      <path d="M 199.909091 384.48 
L 199.909091 51.84 
" clip-path="url(#pdf8f5ed528)" style="fill: none; stroke: #ffffff; stroke-width: 0.8; stroke-linecap: square"/>
     </g>
     <g id="line2d_10">
      <g>
       <use xlink:href="#me889b7f79b" x="199.909091" y="384.48" style="fill: #ffffff; stroke: #ffffff; stroke-width: 0.8"/>
      </g>
     </g>
     <g id="text_5">
      <!-- 801 -->
      <g style="fill: #ffffff" transform="translate(195.111813 410.349807) rotate(-45) scale(0.1 -0.1)">
       <defs>
        <path id="DejaVuSans-38" d="M 2034 2216 
Q 1584 2216 1326 1975 
Q 1069 1734 1069 1313 
Q 1069 891 1326 650 
Q 1584 409 2034 409 
Q 2484 409 2743 651 
Q 3003 894 3003 1313 
Q 3003 1734 2745 1975 
Q 2488 2216 2034 2216 
z
M 1403 2484 
Q 997 2584 770 2862 
Q 544 3141 544 3541 
Q 544 4100 942 4425 
Q 1341 4750 2034 4750 
Q 2731 4750 3128 4425 
Q 3525 4100 3525 3541 
Q 3525 3141 3298 2862 
Q 3072 2584 2669 2484 
Q 3125 2378 3379 2068 
Q 3634 1759 3634 1313 
Q 3634 634 3220 271 
Q 2806 -91 2034 -91 
Q 1263 -91 848 271 
Q 434 634 434 1313 
Q 434 1759 690 2068 
Q 947 2378 1403 2484 
z
M 1172 3481 
Q 1172 3119 1398 2916 
Q 1625 2713 2034 2713 
Q 2441 2713 2670 2916 
Q 2900 3119 2900 3481 
Q 2900 3844 2670 4047 
Q 2441 4250 2034 4250 
Q 1625 4250 1398 4047 
Q 1172 3844 1172 3481 
z
" transform="scale(0.015625)"/>
       </defs>
       <use xlink:href="#DejaVuSans-38"/>
       <use xlink:href="#DejaVuSans-30" x="63.623047"/>
       <use xlink:href="#DejaVuSans-31" x="127.246094"/>
      </g>
     </g>
    </g>
    <g id="xtick_6">
     <g id="line2d_11">
      <path d="M 221.045455 384.48 
L 221.045455 51.84 
" clip-path="url(#pdf8f5ed528)" style="fill: none; stroke: #ffffff; stroke-width: 0.8; stroke-linecap: square"/>
     </g>
     <g id="line2d_12">
      <g>
       <use xlink:href="#me889b7f79b" x="221.045455" y="384.48" style="fill: #ffffff; stroke: #ffffff; stroke-width: 0.8"/>
      </g>
     </g>
     <g id="text_6">
      <!-- 1001 -->
      <g style="fill: #ffffff" transform="translate(213.998694 414.848774) rotate(-45) scale(0.1 -0.1)">
       <use xlink:href="#DejaVuSans-31"/>
       <use xlink:href="#DejaVuSans-30" x="63.623047"/>
       <use xlink:href="#DejaVuSans-30" x="127.246094"/>
       <use xlink:href="#DejaVuSans-31" x="190.869141"/>
      </g>
     </g>
    </g>
    <g id="xtick_7">
     <g id="line2d_13">
      <path d="M 242.181818 384.48 
L 242.181818 51.84 
" clip-path="url(#pdf8f5ed528)" style="fill: none; stroke: #ffffff; stroke-width: 0.8; stroke-linecap: square"/>
     </g>
     <g id="line2d_14">
      <g>
       <use xlink:href="#me889b7f79b" x="242.181818" y="384.48" style="fill: #ffffff; stroke: #ffffff; stroke-width: 0.8"/>
      </g>
     </g>
     <g id="text_7">
      <!-- 1201 -->
      <g style="fill: #ffffff" transform="translate(235.135057 414.848774) rotate(-45) scale(0.1 -0.1)">
       <use xlink:href="#DejaVuSans-31"/>
       <use xlink:href="#DejaVuSans-32" x="63.623047"/>
       <use xlink:href="#DejaVuSans-30" x="127.246094"/>
       <use xlink:href="#DejaVuSans-31" x="190.869141"/>
      </g>
     </g>
    </g>
    <g id="xtick_8">
     <g id="line2d_15">
      <path d="M 263.318182 384.48 
L 263.318182 51.84 
" clip-path="url(#pdf8f5ed528)" style="fill: none; stroke: #ffffff; stroke-width: 0.8; stroke-linecap: square"/>
     </g>
     <g id="line2d_16">
      <g>
       <use xlink:href="#me889b7f79b" x="263.318182" y="384.48" style="fill: #ffffff; stroke: #ffffff; stroke-width: 0.8"/>
      </g>
     </g>
     <g id="text_8">
      <!-- 1401 -->
      <g style="fill: #ffffff" transform="translate(256.271421 414.848774) rotate(-45) scale(0.1 -0.1)">
       <use xlink:href="#DejaVuSans-31"/>
       <use xlink:href="#DejaVuSans-34" x="63.623047"/>
       <use xlink:href="#DejaVuSans-30" x="127.246094"/>
       <use xlink:href="#DejaVuSans-31" x="190.869141"/>
      </g>
     </g>
    </g>
    <g id="xtick_9">
     <g id="line2d_17">
      <path d="M 284.454545 384.48 
L 284.454545 51.84 
" clip-path="url(#pdf8f5ed528)" style="fill: none; stroke: #ffffff; stroke-width: 0.8; stroke-linecap: square"/>
     </g>
     <g id="line2d_18">
      <g>
       <use xlink:href="#me889b7f79b" x="284.454545" y="384.48" style="fill: #ffffff; stroke: #ffffff; stroke-width: 0.8"/>
      </g>
     </g>
     <g id="text_9">
      <!-- 1601 -->
      <g style="fill: #ffffff" transform="translate(277.407784 414.848774) rotate(-45) scale(0.1 -0.1)">
       <use xlink:href="#DejaVuSans-31"/>
       <use xlink:href="#DejaVuSans-36" x="63.623047"/>
       <use xlink:href="#DejaVuSans-30" x="127.246094"/>
       <use xlink:href="#DejaVuSans-31" x="190.869141"/>
      </g>
     </g>
    </g>
    <g id="xtick_10">
     <g id="line2d_19">
      <path d="M 305.590909 384.48 
L 305.590909 51.84 
" clip-path="url(#pdf8f5ed528)" style="fill: none; stroke: #ffffff; stroke-width: 0.8; stroke-linecap: square"/>
     </g>
     <g id="line2d_20">
      <g>
       <use xlink:href="#me889b7f79b" x="305.590909" y="384.48" style="fill: #ffffff; stroke: #ffffff; stroke-width: 0.8"/>
      </g>
     </g>
     <g id="text_10">
      <!-- 1801 -->
      <g style="fill: #ffffff" transform="translate(298.544148 414.848774) rotate(-45) scale(0.1 -0.1)">
       <use xlink:href="#DejaVuSans-31"/>
       <use xlink:href="#DejaVuSans-38" x="63.623047"/>
       <use xlink:href="#DejaVuSans-30" x="127.246094"/>
       <use xlink:href="#DejaVuSans-31" x="190.869141"/>
      </g>
     </g>
    </g>
    <g id="xtick_11">
     <g id="line2d_21">
      <path d="M 326.727273 384.48 
L 326.727273 51.84 
" clip-path="url(#pdf8f5ed528)" style="fill: none; stroke: #ffffff; stroke-width: 0.8; stroke-linecap: square"/>
     </g>
     <g id="line2d_22">
      <g>
       <use xlink:href="#me889b7f79b" x="326.727273" y="384.48" style="fill: #ffffff; stroke: #ffffff; stroke-width: 0.8"/>
      </g>
     </g>
     <g id="text_11">
      <!-- 2001 -->
      <g style="fill: #ffffff" transform="translate(319.680512 414.848774) rotate(-45) scale(0.1 -0.1)">
       <use xlink:href="#DejaVuSans-32"/>
       <use xlink:href="#DejaVuSans-30" x="63.623047"/>
       <use xlink:href="#DejaVuSans-30" x="127.246094"/>
       <use xlink:href="#DejaVuSans-31" x="190.869141"/>
      </g>
     </g>
    </g>
    <g id="xtick_12">
     <g id="line2d_23">
      <path d="M 347.863636 384.48 
L 347.863636 51.84 
" clip-path="url(#pdf8f5ed528)" style="fill: none; stroke: #ffffff; stroke-width: 0.8; stroke-linecap: square"/>
     </g>
     <g id="line2d_24">
      <g>
       <use xlink:href="#me889b7f79b" x="347.863636" y="384.48" style="fill: #ffffff; stroke: #ffffff; stroke-width: 0.8"/>
      </g>
     </g>
     <g id="text_12">
      <!-- 2201 -->
      <g style="fill: #ffffff" transform="translate(340.816875 414.848774) rotate(-45) scale(0.1 -0.1)">
       <use xlink:href="#DejaVuSans-32"/>
       <use xlink:href="#DejaVuSans-32" x="63.623047"/>
       <use xlink:href="#DejaVuSans-30" x="127.246094"/>
       <use xlink:href="#DejaVuSans-31" x="190.869141"/>
      </g>
     </g>
    </g>
    <g id="xtick_13">
     <g id="line2d_25">
      <path d="M 369 384.48 
L 369 51.84 
" clip-path="url(#pdf8f5ed528)" style="fill: none; stroke: #ffffff; stroke-width: 0.8; stroke-linecap: square"/>
     </g>
     <g id="line2d_26">
      <g>
       <use xlink:href="#me889b7f79b" x="369" y="384.48" style="fill: #ffffff; stroke: #ffffff; stroke-width: 0.8"/>
      </g>
     </g>
     <g id="text_13">
      <!-- 2401 -->
      <g style="fill: #ffffff" transform="translate(361.953239 414.848774) rotate(-45) scale(0.1 -0.1)">
       <use xlink:href="#DejaVuSans-32"/>
       <use xlink:href="#DejaVuSans-34" x="63.623047"/>
       <use xlink:href="#DejaVuSans-30" x="127.246094"/>
       <use xlink:href="#DejaVuSans-31" x="190.869141"/>
      </g>
     </g>
    </g>
    <g id="xtick_14">
     <g id="line2d_27">
      <path d="M 390.136364 384.48 
L 390.136364 51.84 
" clip-path="url(#pdf8f5ed528)" style="fill: none; stroke: #ffffff; stroke-width: 0.8; stroke-linecap: square"/>
     </g>
     <g id="line2d_28">
      <g>
       <use xlink:href="#me889b7f79b" x="390.136364" y="384.48" style="fill: #ffffff; stroke: #ffffff; stroke-width: 0.8"/>
      </g>
     </g>
     <g id="text_14">
      <!-- 2601 -->
      <g style="fill: #ffffff" transform="translate(383.089603 414.848774) rotate(-45) scale(0.1 -0.1)">
       <use xlink:href="#DejaVuSans-32"/>
       <use xlink:href="#DejaVuSans-36" x="63.623047"/>
       <use xlink:href="#DejaVuSans-30" x="127.246094"/>
       <use xlink:href="#DejaVuSans-31" x="190.869141"/>
      </g>
     </g>
    </g>
    <g id="xtick_15">
     <g id="line2d_29">
      <path d="M 411.272727 384.48 
L 411.272727 51.84 
" clip-path="url(#pdf8f5ed528)" style="fill: none; stroke: #ffffff; stroke-width: 0.8; stroke-linecap: square"/>
     </g>
     <g id="line2d_30">
      <g>
       <use xlink:href="#me889b7f79b" x="411.272727" y="384.48" style="fill: #ffffff; stroke: #ffffff; stroke-width: 0.8"/>
      </g>
     </g>
     <g id="text_15">
      <!-- 2801 -->
      <g style="fill: #ffffff" transform="translate(404.225966 414.848774) rotate(-45) scale(0.1 -0.1)">
       <use xlink:href="#DejaVuSans-32"/>
       <use xlink:href="#DejaVuSans-38" x="63.623047"/>
       <use xlink:href="#DejaVuSans-30" x="127.246094"/>
       <use xlink:href="#DejaVuSans-31" x="190.869141"/>
      </g>
     </g>
    </g>
    <g id="xtick_16">
     <g id="line2d_31">
      <path d="M 432.409091 384.48 
L 432.409091 51.84 
" clip-path="url(#pdf8f5ed528)" style="fill: none; stroke: #ffffff; stroke-width: 0.8; stroke-linecap: square"/>
     </g>
     <g id="line2d_32">
      <g>
       <use xlink:href="#me889b7f79b" x="432.409091" y="384.48" style="fill: #ffffff; stroke: #ffffff; stroke-width: 0.8"/>
      </g>
     </g>
     <g id="text_16">
      <!-- 3001 -->
      <g style="fill: #ffffff" transform="translate(425.36233 414.848774) rotate(-45) scale(0.1 -0.1)">
       <defs>
        <path id="DejaVuSans-33" d="M 2597 2516 
Q 3050 2419 3304 2112 
Q 3559 1806 3559 1356 
Q 3559 666 3084 287 
Q 2609 -91 1734 -91 
Q 1441 -91 1130 -33 
Q 819 25 488 141 
L 488 750 
Q 750 597 1062 519 
Q 1375 441 1716 441 
Q 2309 441 2620 675 
Q 2931 909 2931 1356 
Q 2931 1769 2642 2001 
Q 2353 2234 1838 2234 
L 1294 2234 
L 1294 2753 
L 1863 2753 
Q 2328 2753 2575 2939 
Q 2822 3125 2822 3475 
Q 2822 3834 2567 4026 
Q 2313 4219 1838 4219 
Q 1578 4219 1281 4162 
Q 984 4106 628 3988 
L 628 4550 
Q 988 4650 1302 4700 
Q 1616 4750 1894 4750 
Q 2613 4750 3031 4423 
Q 3450 4097 3450 3541 
Q 3450 3153 3228 2886 
Q 3006 2619 2597 2516 
z
" transform="scale(0.015625)"/>
       </defs>
       <use xlink:href="#DejaVuSans-33"/>
       <use xlink:href="#DejaVuSans-30" x="63.623047"/>
       <use xlink:href="#DejaVuSans-30" x="127.246094"/>
       <use xlink:href="#DejaVuSans-31" x="190.869141"/>
      </g>
     </g>
    </g>
    <g id="xtick_17">
     <g id="line2d_33">
      <path d="M 453.545455 384.48 
L 453.545455 51.84 
" clip-path="url(#pdf8f5ed528)" style="fill: none; stroke: #ffffff; stroke-width: 0.8; stroke-linecap: square"/>
     </g>
     <g id="line2d_34">
      <g>
       <use xlink:href="#me889b7f79b" x="453.545455" y="384.48" style="fill: #ffffff; stroke: #ffffff; stroke-width: 0.8"/>
      </g>
     </g>
     <g id="text_17">
      <!-- 3201 -->
      <g style="fill: #ffffff" transform="translate(446.498694 414.848774) rotate(-45) scale(0.1 -0.1)">
       <use xlink:href="#DejaVuSans-33"/>
       <use xlink:href="#DejaVuSans-32" x="63.623047"/>
       <use xlink:href="#DejaVuSans-30" x="127.246094"/>
       <use xlink:href="#DejaVuSans-31" x="190.869141"/>
      </g>
     </g>
    </g>
    <g id="xtick_18">
     <g id="line2d_35">
      <path d="M 474.681818 384.48 
L 474.681818 51.84 
" clip-path="url(#pdf8f5ed528)" style="fill: none; stroke: #ffffff; stroke-width: 0.8; stroke-linecap: square"/>
     </g>
     <g id="line2d_36">
      <g>
       <use xlink:href="#me889b7f79b" x="474.681818" y="384.48" style="fill: #ffffff; stroke: #ffffff; stroke-width: 0.8"/>
      </g>
     </g>
     <g id="text_18">
      <!-- 3401 -->
      <g style="fill: #ffffff" transform="translate(467.635057 414.848774) rotate(-45) scale(0.1 -0.1)">
       <use xlink:href="#DejaVuSans-33"/>
       <use xlink:href="#DejaVuSans-34" x="63.623047"/>
       <use xlink:href="#DejaVuSans-30" x="127.246094"/>
       <use xlink:href="#DejaVuSans-31" x="190.869141"/>
      </g>
     </g>
    </g>
    <g id="xtick_19">
     <g id="line2d_37">
      <path d="M 495.818182 384.48 
L 495.818182 51.84 
" clip-path="url(#pdf8f5ed528)" style="fill: none; stroke: #ffffff; stroke-width: 0.8; stroke-linecap: square"/>
     </g>
     <g id="line2d_38">
      <g>
       <use xlink:href="#me889b7f79b" x="495.818182" y="384.48" style="fill: #ffffff; stroke: #ffffff; stroke-width: 0.8"/>
      </g>
     </g>
     <g id="text_19">
      <!-- 3601 -->
      <g style="fill: #ffffff" transform="translate(488.771421 414.848774) rotate(-45) scale(0.1 -0.1)">
       <use xlink:href="#DejaVuSans-33"/>
       <use xlink:href="#DejaVuSans-36" x="63.623047"/>
       <use xlink:href="#DejaVuSans-30" x="127.246094"/>
       <use xlink:href="#DejaVuSans-31" x="190.869141"/>
      </g>
     </g>
    </g>
    <g id="xtick_20">
     <g id="line2d_39">
      <path d="M 516.954545 384.48 
L 516.954545 51.84 
" clip-path="url(#pdf8f5ed528)" style="fill: none; stroke: #ffffff; stroke-width: 0.8; stroke-linecap: square"/>
     </g>
     <g id="line2d_40">
      <g>
       <use xlink:href="#me889b7f79b" x="516.954545" y="384.48" style="fill: #ffffff; stroke: #ffffff; stroke-width: 0.8"/>
      </g>
     </g>
     <g id="text_20">
      <!-- 3801 -->
      <g style="fill: #ffffff" transform="translate(509.907784 414.848774) rotate(-45) scale(0.1 -0.1)">
       <use xlink:href="#DejaVuSans-33"/>
       <use xlink:href="#DejaVuSans-38" x="63.623047"/>
       <use xlink:href="#DejaVuSans-30" x="127.246094"/>
       <use xlink:href="#DejaVuSans-31" x="190.869141"/>
      </g>
     </g>
    </g>
    <g id="xtick_21">
     <g id="line2d_41">
      <path d="M 538.090909 384.48 
L 538.090909 51.84 
" clip-path="url(#pdf8f5ed528)" style="fill: none; stroke: #ffffff; stroke-width: 0.8; stroke-linecap: square"/>
     </g>
     <g id="line2d_42">
      <g>
       <use xlink:href="#me889b7f79b" x="538.090909" y="384.48" style="fill: #ffffff; stroke: #ffffff; stroke-width: 0.8"/>
      </g>
     </g>
     <g id="text_21">
      <!-- 4001 -->
      <g style="fill: #ffffff" transform="translate(531.044148 414.848774) rotate(-45) scale(0.1 -0.1)">
       <use xlink:href="#DejaVuSans-34"/>
       <use xlink:href="#DejaVuSans-30" x="63.623047"/>
       <use xlink:href="#DejaVuSans-30" x="127.246094"/>
       <use xlink:href="#DejaVuSans-31" x="190.869141"/>
      </g>
     </g>
    </g>
    <g id="xtick_22">
     <g id="line2d_43">
      <path d="M 559.227273 384.48 
L 559.227273 51.84 
" clip-path="url(#pdf8f5ed528)" style="fill: none; stroke: #ffffff; stroke-width: 0.8; stroke-linecap: square"/>
     </g>
     <g id="line2d_44">
      <g>
       <use xlink:href="#me889b7f79b" x="559.227273" y="384.48" style="fill: #ffffff; stroke: #ffffff; stroke-width: 0.8"/>
      </g>
     </g>
     <g id="text_22">
      <!-- 4201 -->
      <g style="fill: #ffffff" transform="translate(552.180512 414.848774) rotate(-45) scale(0.1 -0.1)">
       <use xlink:href="#DejaVuSans-34"/>
       <use xlink:href="#DejaVuSans-32" x="63.623047"/>
       <use xlink:href="#DejaVuSans-30" x="127.246094"/>
       <use xlink:href="#DejaVuSans-31" x="190.869141"/>
      </g>
     </g>
    </g>
    <g id="xtick_23">
     <g id="line2d_45">
      <path d="M 580.363636 384.48 
L 580.363636 51.84 
" clip-path="url(#pdf8f5ed528)" style="fill: none; stroke: #ffffff; stroke-width: 0.8; stroke-linecap: square"/>
     </g>
     <g id="line2d_46">
      <g>
       <use xlink:href="#me889b7f79b" x="580.363636" y="384.48" style="fill: #ffffff; stroke: #ffffff; stroke-width: 0.8"/>
      </g>
     </g>
     <g id="text_23">
      <!-- 4401 -->
      <g style="fill: #ffffff" transform="translate(573.316875 414.848774) rotate(-45) scale(0.1 -0.1)">
       <use xlink:href="#DejaVuSans-34"/>
       <use xlink:href="#DejaVuSans-34" x="63.623047"/>
       <use xlink:href="#DejaVuSans-30" x="127.246094"/>
       <use xlink:href="#DejaVuSans-31" x="190.869141"/>
      </g>
     </g>
    </g>
    <g id="xtick_24">
     <g id="line2d_47">
      <path d="M 601.5 384.48 
L 601.5 51.84 
" clip-path="url(#pdf8f5ed528)" style="fill: none; stroke: #ffffff; stroke-width: 0.8; stroke-linecap: square"/>
     </g>
     <g id="line2d_48">
      <g>
       <use xlink:href="#me889b7f79b" x="601.5" y="384.48" style="fill: #ffffff; stroke: #ffffff; stroke-width: 0.8"/>
      </g>
     </g>
     <g id="text_24">
      <!-- 4601 -->
      <g style="fill: #ffffff" transform="translate(594.453239 414.848774) rotate(-45) scale(0.1 -0.1)">
       <use xlink:href="#DejaVuSans-34"/>
       <use xlink:href="#DejaVuSans-36" x="63.623047"/>
       <use xlink:href="#DejaVuSans-30" x="127.246094"/>
       <use xlink:href="#DejaVuSans-31" x="190.869141"/>
      </g>
     </g>
    </g>
    <g id="xtick_25">
     <g id="line2d_49">
      <path d="M 622.636364 384.48 
L 622.636364 51.84 
" clip-path="url(#pdf8f5ed528)" style="fill: none; stroke: #ffffff; stroke-width: 0.8; stroke-linecap: square"/>
     </g>
     <g id="line2d_50">
      <g>
       <use xlink:href="#me889b7f79b" x="622.636364" y="384.48" style="fill: #ffffff; stroke: #ffffff; stroke-width: 0.8"/>
      </g>
     </g>
     <g id="text_25">
      <!-- 4801 -->
      <g style="fill: #ffffff" transform="translate(615.589603 414.848774) rotate(-45) scale(0.1 -0.1)">
       <use xlink:href="#DejaVuSans-34"/>
       <use xlink:href="#DejaVuSans-38" x="63.623047"/>
       <use xlink:href="#DejaVuSans-30" x="127.246094"/>
       <use xlink:href="#DejaVuSans-31" x="190.869141"/>
      </g>
     </g>
    </g>
    <g id="text_26">
     <!-- concurrency -->
     <g style="fill: #ffffff" transform="translate(338.239844 427.917773) scale(0.1 -0.1)">
      <defs>
       <path id="DejaVuSans-63" d="M 3122 3366 
L 3122 2828 
Q 2878 2963 2633 3030 
Q 2388 3097 2138 3097 
Q 1578 3097 1268 2742 
Q 959 2388 959 1747 
Q 959 1106 1268 751 
Q 1578 397 2138 397 
Q 2388 397 2633 464 
Q 2878 531 3122 666 
L 3122 134 
Q 2881 22 2623 -34 
Q 2366 -91 2075 -91 
Q 1284 -91 818 406 
Q 353 903 353 1747 
Q 353 2603 823 3093 
Q 1294 3584 2113 3584 
Q 2378 3584 2631 3529 
Q 2884 3475 3122 3366 
z
" transform="scale(0.015625)"/>
       <path id="DejaVuSans-6f" d="M 1959 3097 
Q 1497 3097 1228 2736 
Q 959 2375 959 1747 
Q 959 1119 1226 758 
Q 1494 397 1959 397 
Q 2419 397 2687 759 
Q 2956 1122 2956 1747 
Q 2956 2369 2687 2733 
Q 2419 3097 1959 3097 
z
M 1959 3584 
Q 2709 3584 3137 3096 
Q 3566 2609 3566 1747 
Q 3566 888 3137 398 
Q 2709 -91 1959 -91 
Q 1206 -91 779 398 
Q 353 888 353 1747 
Q 353 2609 779 3096 
Q 1206 3584 1959 3584 
z
" transform="scale(0.015625)"/>
       <path id="DejaVuSans-6e" d="M 3513 2113 
L 3513 0 
L 2938 0 
L 2938 2094 
Q 2938 2591 2744 2837 
Q 2550 3084 2163 3084 
Q 1697 3084 1428 2787 
Q 1159 2491 1159 1978 
L 1159 0 
L 581 0 
L 581 3500 
L 1159 3500 
L 1159 2956 
Q 1366 3272 1645 3428 
Q 1925 3584 2291 3584 
Q 2894 3584 3203 3211 
Q 3513 2838 3513 2113 
z
" transform="scale(0.015625)"/>
       <path id="DejaVuSans-75" d="M 544 1381 
L 544 3500 
L 1119 3500 
L 1119 1403 
Q 1119 906 1312 657 
Q 1506 409 1894 409 
Q 2359 409 2629 706 
Q 2900 1003 2900 1516 
L 2900 3500 
L 3475 3500 
L 3475 0 
L 2900 0 
L 2900 538 
Q 2691 219 2414 64 
Q 2138 -91 1772 -91 
Q 1169 -91 856 284 
Q 544 659 544 1381 
z
M 1991 3584 
L 1991 3584 
z
" transform="scale(0.015625)"/>
       <path id="DejaVuSans-72" d="M 2631 2963 
Q 2534 3019 2420 3045 
Q 2306 3072 2169 3072 
Q 1681 3072 1420 2755 
Q 1159 2438 1159 1844 
L 1159 0 
L 581 0 
L 581 3500 
L 1159 3500 
L 1159 2956 
Q 1341 3275 1631 3429 
Q 1922 3584 2338 3584 
Q 2397 3584 2469 3576 
Q 2541 3569 2628 3553 
L 2631 2963 
z
" transform="scale(0.015625)"/>
       <path id="DejaVuSans-65" d="M 3597 1894 
L 3597 1613 
L 953 1613 
Q 991 1019 1311 708 
Q 1631 397 2203 397 
Q 2534 397 2845 478 
Q 3156 559 3463 722 
L 3463 178 
Q 3153 47 2828 -22 
Q 2503 -91 2169 -91 
Q 1331 -91 842 396 
Q 353 884 353 1716 
Q 353 2575 817 3079 
Q 1281 3584 2069 3584 
Q 2775 3584 3186 3129 
Q 3597 2675 3597 1894 
z
M 3022 2063 
Q 3016 2534 2758 2815 
Q 2500 3097 2075 3097 
Q 1594 3097 1305 2825 
Q 1016 2553 972 2059 
L 3022 2063 
z
" transform="scale(0.015625)"/>
       <path id="DejaVuSans-79" d="M 2059 -325 
Q 1816 -950 1584 -1140 
Q 1353 -1331 966 -1331 
L 506 -1331 
L 506 -850 
L 844 -850 
Q 1081 -850 1212 -737 
Q 1344 -625 1503 -206 
L 1606 56 
L 191 3500 
L 800 3500 
L 1894 763 
L 2988 3500 
L 3597 3500 
L 2059 -325 
z
" transform="scale(0.015625)"/>
      </defs>
      <use xlink:href="#DejaVuSans-63"/>
      <use xlink:href="#DejaVuSans-6f" x="54.980469"/>
      <use xlink:href="#DejaVuSans-6e" x="116.162109"/>
      <use xlink:href="#DejaVuSans-63" x="179.541016"/>
      <use xlink:href="#DejaVuSans-75" x="234.521484"/>
      <use xlink:href="#DejaVuSans-72" x="297.900391"/>
      <use xlink:href="#DejaVuSans-72" x="337.263672"/>
      <use xlink:href="#DejaVuSans-65" x="376.126953"/>
      <use xlink:href="#DejaVuSans-6e" x="437.650391"/>
      <use xlink:href="#DejaVuSans-63" x="501.029297"/>
      <use xlink:href="#DejaVuSans-79" x="556.009766"/>
     </g>
    </g>
   </g>
   <g id="matplotlib.axis_2">
    <g id="ytick_1">
     <g id="line2d_51">
      <path d="M 90 378.847923 
L 648 378.847923 
" clip-path="url(#pdf8f5ed528)" style="fill: none; stroke: #ffffff; stroke-width: 0.8; stroke-linecap: square"/>
     </g>
     <g id="line2d_52">
      <defs>
       <path id="me5e3aa9c11" d="M 0 0 
L -3.5 0 
" style="stroke: #ffffff; stroke-width: 0.8"/>
      </defs>
      <g>
       <use xlink:href="#me5e3aa9c11" x="90" y="378.847923" style="fill: #ffffff; stroke: #ffffff; stroke-width: 0.8"/>
      </g>
     </g>
     <g id="text_27">
      <!-- 0 -->
      <g style="fill: #ffffff" transform="translate(76.6375 382.647142) scale(0.1 -0.1)">
       <use xlink:href="#DejaVuSans-30"/>
      </g>
     </g>
    </g>
    <g id="ytick_2">
     <g id="line2d_53">
      <path d="M 90 320.812854 
L 648 320.812854 
" clip-path="url(#pdf8f5ed528)" style="fill: none; stroke: #ffffff; stroke-width: 0.8; stroke-linecap: square"/>
     </g>
     <g id="line2d_54">
      <g>
       <use xlink:href="#me5e3aa9c11" x="90" y="320.812854" style="fill: #ffffff; stroke: #ffffff; stroke-width: 0.8"/>
      </g>
     </g>
     <g id="text_28">
      <!-- 100 -->
      <g style="fill: #ffffff" transform="translate(63.9125 324.612073) scale(0.1 -0.1)">
       <use xlink:href="#DejaVuSans-31"/>
       <use xlink:href="#DejaVuSans-30" x="63.623047"/>
       <use xlink:href="#DejaVuSans-30" x="127.246094"/>
      </g>
     </g>
    </g>
    <g id="ytick_3">
     <g id="line2d_55">
      <path d="M 90 262.777785 
L 648 262.777785 
" clip-path="url(#pdf8f5ed528)" style="fill: none; stroke: #ffffff; stroke-width: 0.8; stroke-linecap: square"/>
     </g>
     <g id="line2d_56">
      <g>
       <use xlink:href="#me5e3aa9c11" x="90" y="262.777785" style="fill: #ffffff; stroke: #ffffff; stroke-width: 0.8"/>
      </g>
     </g>
     <g id="text_29">
      <!-- 200 -->
      <g style="fill: #ffffff" transform="translate(63.9125 266.577004) scale(0.1 -0.1)">
       <use xlink:href="#DejaVuSans-32"/>
       <use xlink:href="#DejaVuSans-30" x="63.623047"/>
       <use xlink:href="#DejaVuSans-30" x="127.246094"/>
      </g>
     </g>
    </g>
    <g id="ytick_4">
     <g id="line2d_57">
      <path d="M 90 204.742717 
L 648 204.742717 
" clip-path="url(#pdf8f5ed528)" style="fill: none; stroke: #ffffff; stroke-width: 0.8; stroke-linecap: square"/>
     </g>
     <g id="line2d_58">
      <g>
       <use xlink:href="#me5e3aa9c11" x="90" y="204.742717" style="fill: #ffffff; stroke: #ffffff; stroke-width: 0.8"/>
      </g>
     </g>
     <g id="text_30">
      <!-- 300 -->
      <g style="fill: #ffffff" transform="translate(63.9125 208.541935) scale(0.1 -0.1)">
       <use xlink:href="#DejaVuSans-33"/>
       <use xlink:href="#DejaVuSans-30" x="63.623047"/>
       <use xlink:href="#DejaVuSans-30" x="127.246094"/>
      </g>
     </g>
    </g>
    <g id="ytick_5">
     <g id="line2d_59">
      <path d="M 90 146.707648 
L 648 146.707648 
" clip-path="url(#pdf8f5ed528)" style="fill: none; stroke: #ffffff; stroke-width: 0.8; stroke-linecap: square"/>
     </g>
     <g id="line2d_60">
      <g>
       <use xlink:href="#me5e3aa9c11" x="90" y="146.707648" style="fill: #ffffff; stroke: #ffffff; stroke-width: 0.8"/>
      </g>
     </g>
     <g id="text_31">
      <!-- 400 -->
      <g style="fill: #ffffff" transform="translate(63.9125 150.506867) scale(0.1 -0.1)">
       <use xlink:href="#DejaVuSans-34"/>
       <use xlink:href="#DejaVuSans-30" x="63.623047"/>
       <use xlink:href="#DejaVuSans-30" x="127.246094"/>
      </g>
     </g>
    </g>
    <g id="ytick_6">
     <g id="line2d_61">
      <path d="M 90 88.672579 
L 648 88.672579 
" clip-path="url(#pdf8f5ed528)" style="fill: none; stroke: #ffffff; stroke-width: 0.8; stroke-linecap: square"/>
     </g>
     <g id="line2d_62">
      <g>
       <use xlink:href="#me5e3aa9c11" x="90" y="88.672579" style="fill: #ffffff; stroke: #ffffff; stroke-width: 0.8"/>
      </g>
     </g>
     <g id="text_32">
      <!-- 500 -->
      <g style="fill: #ffffff" transform="translate(63.9125 92.471798) scale(0.1 -0.1)">
       <defs>
        <path id="DejaVuSans-35" d="M 691 4666 
L 3169 4666 
L 3169 4134 
L 1269 4134 
L 1269 2991 
Q 1406 3038 1543 3061 
Q 1681 3084 1819 3084 
Q 2600 3084 3056 2656 
Q 3513 2228 3513 1497 
Q 3513 744 3044 326 
Q 2575 -91 1722 -91 
Q 1428 -91 1123 -41 
Q 819 9 494 109 
L 494 744 
Q 775 591 1075 516 
Q 1375 441 1709 441 
Q 2250 441 2565 725 
Q 2881 1009 2881 1497 
Q 2881 1984 2565 2268 
Q 2250 2553 1709 2553 
Q 1456 2553 1204 2497 
Q 953 2441 691 2322 
L 691 4666 
z
" transform="scale(0.015625)"/>
       </defs>
       <use xlink:href="#DejaVuSans-35"/>
       <use xlink:href="#DejaVuSans-30" x="63.623047"/>
       <use xlink:href="#DejaVuSans-30" x="127.246094"/>
      </g>
     </g>
    </g>
    <g id="text_33">
     <!-- time (ms) -->
     <g style="fill: #ffffff" transform="translate(57.832812 242.421719) rotate(-90) scale(0.1 -0.1)">
      <defs>
       <path id="DejaVuSans-74" d="M 1172 4494 
L 1172 3500 
L 2356 3500 
L 2356 3053 
L 1172 3053 
L 1172 1153 
Q 1172 725 1289 603 
Q 1406 481 1766 481 
L 2356 481 
L 2356 0 
L 1766 0 
Q 1100 0 847 248 
Q 594 497 594 1153 
L 594 3053 
L 172 3053 
L 172 3500 
L 594 3500 
L 594 4494 
L 1172 4494 
z
" transform="scale(0.015625)"/>
       <path id="DejaVuSans-69" d="M 603 3500 
L 1178 3500 
L 1178 0 
L 603 0 
L 603 3500 
z
M 603 4863 
L 1178 4863 
L 1178 4134 
L 603 4134 
L 603 4863 
z
" transform="scale(0.015625)"/>
       <path id="DejaVuSans-6d" d="M 3328 2828 
Q 3544 3216 3844 3400 
Q 4144 3584 4550 3584 
Q 5097 3584 5394 3201 
Q 5691 2819 5691 2113 
L 5691 0 
L 5113 0 
L 5113 2094 
Q 5113 2597 4934 2840 
Q 4756 3084 4391 3084 
Q 3944 3084 3684 2787 
Q 3425 2491 3425 1978 
L 3425 0 
L 2847 0 
L 2847 2094 
Q 2847 2600 2669 2842 
Q 2491 3084 2119 3084 
Q 1678 3084 1418 2786 
Q 1159 2488 1159 1978 
L 1159 0 
L 581 0 
L 581 3500 
L 1159 3500 
L 1159 2956 
Q 1356 3278 1631 3431 
Q 1906 3584 2284 3584 
Q 2666 3584 2933 3390 
Q 3200 3197 3328 2828 
z
" transform="scale(0.015625)"/>
       <path id="DejaVuSans-20" transform="scale(0.015625)"/>
       <path id="DejaVuSans-28" d="M 1984 4856 
Q 1566 4138 1362 3434 
Q 1159 2731 1159 2009 
Q 1159 1288 1364 580 
Q 1569 -128 1984 -844 
L 1484 -844 
Q 1016 -109 783 600 
Q 550 1309 550 2009 
Q 550 2706 781 3412 
Q 1013 4119 1484 4856 
L 1984 4856 
z
" transform="scale(0.015625)"/>
       <path id="DejaVuSans-73" d="M 2834 3397 
L 2834 2853 
Q 2591 2978 2328 3040 
Q 2066 3103 1784 3103 
Q 1356 3103 1142 2972 
Q 928 2841 928 2578 
Q 928 2378 1081 2264 
Q 1234 2150 1697 2047 
L 1894 2003 
Q 2506 1872 2764 1633 
Q 3022 1394 3022 966 
Q 3022 478 2636 193 
Q 2250 -91 1575 -91 
Q 1294 -91 989 -36 
Q 684 19 347 128 
L 347 722 
Q 666 556 975 473 
Q 1284 391 1588 391 
Q 1994 391 2212 530 
Q 2431 669 2431 922 
Q 2431 1156 2273 1281 
Q 2116 1406 1581 1522 
L 1381 1569 
Q 847 1681 609 1914 
Q 372 2147 372 2553 
Q 372 3047 722 3315 
Q 1072 3584 1716 3584 
Q 2034 3584 2315 3537 
Q 2597 3491 2834 3397 
z
" transform="scale(0.015625)"/>
       <path id="DejaVuSans-29" d="M 513 4856 
L 1013 4856 
Q 1481 4119 1714 3412 
Q 1947 2706 1947 2009 
Q 1947 1309 1714 600 
Q 1481 -109 1013 -844 
L 513 -844 
Q 928 -128 1133 580 
Q 1338 1288 1338 2009 
Q 1338 2731 1133 3434 
Q 928 4138 513 4856 
z
" transform="scale(0.015625)"/>
      </defs>
      <use xlink:href="#DejaVuSans-74"/>
      <use xlink:href="#DejaVuSans-69" x="39.208984"/>
      <use xlink:href="#DejaVuSans-6d" x="66.992188"/>
      <use xlink:href="#DejaVuSans-65" x="164.404297"/>
      <use xlink:href="#DejaVuSans-20" x="225.927734"/>
      <use xlink:href="#DejaVuSans-28" x="257.714844"/>
      <use xlink:href="#DejaVuSans-6d" x="296.728516"/>
      <use xlink:href="#DejaVuSans-73" x="394.140625"/>
      <use xlink:href="#DejaVuSans-29" x="446.240234"/>
     </g>
    </g>
   </g>
   <g id="line2d_63">
    <path d="M 115.363636 66.976268 
L 117.057368 109.628141 
L 118.7511 148.215582 
L 120.444832 182.929453 
L 122.138564 213.960612 
L 123.832296 241.499921 
L 125.526028 265.73824 
L 127.21976 286.866429 
L 128.913492 305.075349 
L 130.607224 320.555859 
L 132.300956 333.498821 
L 133.994688 344.095094 
L 135.68842 352.535538 
L 137.382152 359.011015 
L 138.229018 361.571534 
L 139.075884 363.712384 
L 139.92275 365.457422 
L 140.769616 366.830506 
L 141.616482 367.855493 
L 142.463348 368.55624 
L 143.310214 368.956606 
L 144.15708 369.080448 
L 145.003946 368.951623 
L 145.850812 368.59399 
L 146.697678 368.031404 
L 147.544544 367.287725 
L 149.238276 365.352514 
L 150.932008 362.979218 
L 156.86007 353.978305 
L 158.553802 351.989033 
L 160.247534 350.474815 
L 161.941266 349.385525 
L 163.634998 348.667108 
L 165.32873 348.265508 
L 167.022462 348.126672 
L 168.716194 348.196542 
L 171.256792 348.574428 
L 178.03172 349.895878 
L 179.725452 350.006902 
L 182.266049 349.888507 
L 184.806647 349.482022 
L 187.347245 348.850057 
L 190.734709 347.764907 
L 200.897101 344.255474 
L 204.284565 343.428955 
L 207.672029 342.810209 
L 211.906359 342.266419 
L 216.987555 341.844839 
L 234.771741 340.587329 
L 239.852937 339.89249 
L 244.087267 339.084973 
L 249.168463 337.873367 
L 261.024586 334.949563 
L 265.258916 334.193698 
L 269.493246 333.67997 
L 274.574442 333.316195 
L 280.502504 333.128076 
L 297.439824 332.742367 
L 301.674154 332.381355 
L 305.908484 331.799253 
L 310.142814 330.972793 
L 316.917742 329.367777 
L 323.69267 327.804304 
L 327.927 327.045361 
L 332.161329 326.527255 
L 337.242525 326.153445 
L 344.017453 325.907283 
L 365.189103 325.48361 
L 371.117165 325.640201 
L 377.045227 325.78906 
L 380.432691 325.641489 
L 382.973289 325.329412 
L 385.513887 324.78938 
L 388.054485 323.971599 
L 390.595083 322.826427 
L 393.135681 321.346888 
L 396.523145 319.018263 
L 404.144939 313.540139 
L 406.685537 312.024788 
L 408.379268 311.194226 
L 410.073 310.544748 
L 411.766732 310.108095 
L 413.460464 309.893577 
L 415.154196 309.871615 
L 417.694794 310.126523 
L 420.235392 310.626481 
L 429.550918 312.731372 
L 432.091516 312.881854 
L 433.785248 312.775348 
L 436.325846 312.327449 
L 438.866444 311.619515 
L 443.100774 310.124111 
L 447.335104 308.621857 
L 449.875702 307.903238 
L 452.4163 307.439721 
L 454.110032 307.319714 
L 456.65063 307.426993 
L 460.038094 307.910972 
L 465.11929 308.733983 
L 467.659888 308.904064 
L 469.35362 308.838688 
L 471.047352 308.584817 
L 472.741084 308.103464 
L 474.434816 307.355641 
L 476.128548 306.311558 
L 477.82228 304.998702 
L 480.362878 302.633777 
L 483.750341 299.002157 
L 489.678403 292.444087 
L 492.219001 289.988069 
L 493.912733 288.592795 
L 495.606465 287.448988 
L 497.300197 286.5967 
L 498.993929 286.020515 
L 500.687661 285.684941 
L 502.381393 285.554457 
L 504.921991 285.665573 
L 507.462589 286.038339 
L 516.778115 287.706364 
L 519.318713 287.740356 
L 521.859311 287.531943 
L 525.246775 286.995293 
L 534.562301 285.249746 
L 537.102899 285.024505 
L 539.643497 285.032062 
L 542.184095 285.279435 
L 544.724693 285.730708 
L 548.112157 286.585716 
L 552.346487 287.938417 
L 565.049476 292.261286 
L 568.43694 293.099401 
L 571.824404 293.666425 
L 574.365002 293.871106 
L 576.9056 293.853453 
L 579.446198 293.58353 
L 581.986796 293.035488 
L 584.527394 292.236081 
L 587.914858 290.888718 
L 594.689786 287.798082 
L 598.07725 286.358371 
L 600.617848 285.4493 
L 603.158446 284.757701 
L 605.699044 284.347608 
L 607.392776 284.262225 
L 609.086508 284.349388 
L 610.78024 284.628068 
L 612.473972 285.11724 
L 614.167704 285.835875 
L 615.861436 286.802946 
L 617.555168 288.037426 
L 619.2489 289.558288 
L 620.942632 291.384504 
L 622.636364 293.535047 
L 622.636364 293.535047 
" clip-path="url(#pdf8f5ed528)" style="fill: none; stroke: #8dd3c7; stroke-width: 1.5; stroke-linecap: square"/>
   </g>
   <g id="line2d_64">
    <path d="M 115.363636 70.059145 
L 117.057368 112.216711 
L 118.7511 150.349137 
L 120.444832 184.645913 
L 122.138564 215.296529 
L 123.832296 242.490475 
L 125.526028 266.417241 
L 127.21976 287.266317 
L 128.913492 305.227194 
L 130.607224 320.48936 
L 132.300956 333.242307 
L 133.994688 343.675524 
L 135.68842 351.978501 
L 136.535286 355.390365 
L 137.382152 358.340728 
L 138.229018 360.853277 
L 139.075884 362.951696 
L 139.92275 364.659673 
L 140.769616 366.000894 
L 141.616482 366.999045 
L 142.463348 367.677813 
L 143.310214 368.060883 
L 144.15708 368.171941 
L 145.003946 368.034675 
L 145.850812 367.672771 
L 146.697678 367.109914 
L 147.544544 366.36979 
L 149.238276 364.452491 
L 150.932008 362.110361 
L 156.86007 353.303139 
L 158.553802 351.387687 
L 160.247534 349.952128 
L 161.941266 348.943412 
L 163.634998 348.304537 
L 165.32873 347.978498 
L 167.022462 347.908291 
L 168.716194 348.036912 
L 171.256792 348.47795 
L 177.184854 349.667299 
L 178.878586 349.791807 
L 180.572317 349.732655 
L 182.266049 349.504238 
L 184.806647 348.900595 
L 187.347245 348.061017 
L 191.581575 346.373573 
L 196.662771 344.369116 
L 199.203369 343.578141 
L 201.743967 343.035104 
L 204.284565 342.733762 
L 207.672029 342.616061 
L 211.906359 342.746798 
L 218.681287 343.013055 
L 222.068751 342.903354 
L 225.456215 342.529777 
L 228.843679 341.944144 
L 233.924875 340.804945 
L 244.934133 338.183244 
L 250.015329 337.248663 
L 255.096525 336.532291 
L 260.17772 336.034324 
L 265.258916 335.753963 
L 272.033844 335.632795 
L 283.043102 335.457581 
L 288.124298 335.140489 
L 293.205494 334.619116 
L 299.133556 333.79097 
L 305.908484 332.611303 
L 323.69267 329.29749 
L 328.773866 328.678042 
L 333.855061 328.290864 
L 342.323721 327.914001 
L 350.792381 327.488716 
L 358.414175 326.869012 
L 369.423433 325.731573 
L 376.198361 324.8865 
L 380.432691 324.118915 
L 383.820155 323.275752 
L 387.207619 322.163355 
L 389.748217 321.115949 
L 392.288815 319.867452 
L 396.523145 317.481732 
L 403.298073 313.617915 
L 405.838671 312.390986 
L 408.379268 311.398171 
L 410.919866 310.712128 
L 412.613598 310.457278 
L 415.154196 310.355691 
L 417.694794 310.517913 
L 421.082258 311.002363 
L 428.704052 312.262041 
L 431.24465 312.441576 
L 433.785248 312.367739 
L 436.325846 312.037361 
L 439.71331 311.30926 
L 446.488238 309.4594 
L 449.875702 308.653582 
L 452.4163 308.230914 
L 454.956898 308.033949 
L 457.497496 308.051922 
L 461.731826 308.35698 
L 466.813022 308.74189 
L 469.35362 308.764063 
L 471.894218 308.571008 
L 474.434816 308.086444 
L 476.128548 307.568129 
L 478.669146 306.514871 
L 481.209744 305.18839 
L 484.597207 303.107051 
L 489.678403 299.627846 
L 494.759599 296.182093 
L 498.147063 294.150421 
L 501.534527 292.393313 
L 504.921991 290.884691 
L 508.309455 289.597556 
L 512.543785 288.258976 
L 516.778115 287.171554 
L 521.012445 286.291732 
L 525.246775 285.617533 
L 529.481105 285.158756 
L 533.715435 284.925202 
L 537.949765 284.926669 
L 542.184095 285.168731 
L 546.418425 285.638269 
L 550.652755 286.317003 
L 555.733951 287.381881 
L 560.815146 288.688867 
L 570.977538 291.416432 
L 574.365002 292.072422 
L 577.752466 292.467928 
L 580.293064 292.545293 
L 582.833662 292.409162 
L 586.221126 291.951296 
L 590.455456 291.085216 
L 599.770982 289.011325 
L 603.158446 288.533953 
L 605.699044 288.378071 
L 608.239642 288.445592 
L 610.78024 288.781635 
L 613.320838 289.431318 
L 615.01457 290.060966 
L 616.708302 290.863432 
L 618.402034 291.852084 
L 620.095766 293.040292 
L 621.789498 294.441423 
L 622.636364 295.226013 
L 622.636364 295.226013 
" clip-path="url(#pdf8f5ed528)" style="fill: none; stroke: #feffb3; stroke-width: 1.5; stroke-linecap: square"/>
   </g>
   <g id="line2d_65">
    <path d="M 115.363636 69.144574 
L 117.057368 111.114447 
L 118.7511 149.127941 
L 120.444832 183.368578 
L 122.138564 214.019881 
L 123.832296 241.265372 
L 125.526028 265.288572 
L 127.21976 286.273005 
L 128.913492 304.402192 
L 130.607224 319.859656 
L 132.300956 332.828919 
L 133.994688 343.493503 
L 135.68842 352.036931 
L 137.382152 358.642724 
L 138.229018 361.276359 
L 139.075884 363.494405 
L 139.92275 365.319805 
L 140.769616 366.775497 
L 141.616482 367.884422 
L 142.463348 368.669521 
L 143.310214 369.153734 
L 144.15708 369.36 
L 145.003946 369.311261 
L 145.850812 369.030456 
L 146.697678 368.540526 
L 147.544544 367.864411 
L 149.238276 366.045388 
L 150.932008 363.756908 
L 154.319472 358.50567 
L 156.86007 354.699865 
L 158.553802 352.563978 
L 160.247534 350.842901 
L 161.941266 349.499435 
L 163.634998 348.492781 
L 165.32873 347.782141 
L 167.022462 347.326717 
L 168.716194 347.08571 
L 171.256792 347.036985 
L 173.79739 347.241207 
L 180.572317 347.984308 
L 183.959781 348.050002 
L 187.347245 347.894977 
L 191.581575 347.444306 
L 195.815905 346.772212 
L 201.743967 345.589721 
L 217.834421 342.223151 
L 222.915617 341.480551 
L 228.843679 340.880754 
L 238.159205 339.951235 
L 242.393535 339.303623 
L 246.627865 338.428802 
L 259.330854 335.632367 
L 262.718318 335.181387 
L 266.105782 334.976184 
L 270.340112 334.990968 
L 281.34937 335.255053 
L 284.736834 335.057246 
L 288.124298 334.606937 
L 292.358628 333.767628 
L 299.133556 332.110324 
L 305.061618 330.728106 
L 309.295948 329.9825 
L 313.530278 329.472906 
L 317.764608 329.181846 
L 321.998938 329.091788 
L 327.080134 329.224352 
L 342.323721 329.980585 
L 345.711185 329.815407 
L 349.098649 329.387962 
L 352.486113 328.701682 
L 358.414175 327.183529 
L 363.495371 325.932353 
L 366.882835 325.314379 
L 369.423433 325.040744 
L 372.810897 324.949286 
L 382.973289 325.019689 
L 385.513887 324.735156 
L 388.054485 324.184655 
L 389.748217 323.634064 
L 391.441949 322.915327 
L 393.982547 321.555645 
L 396.523145 319.943089 
L 400.757475 316.953897 
L 405.838671 313.415937 
L 408.379268 311.890685 
L 410.919866 310.655723 
L 412.613598 310.036843 
L 415.154196 309.401549 
L 417.694794 309.051678 
L 420.235392 308.912592 
L 424.469722 308.946471 
L 429.550918 308.9998 
L 432.091516 308.857494 
L 434.632114 308.51825 
L 438.019578 307.816137 
L 449.028836 305.246662 
L 451.569434 304.957082 
L 454.110032 304.911324 
L 456.65063 305.126229 
L 460.038094 305.683589 
L 466.813022 306.940056 
L 469.35362 307.189503 
L 471.894218 307.180323 
L 473.58795 306.986812 
L 475.281682 306.613165 
L 476.975414 306.052966 
L 479.516012 304.911905 
L 482.05661 303.482991 
L 485.444073 301.272074 
L 494.759599 294.897584 
L 497.300197 293.463345 
L 500.687661 291.867442 
L 504.075125 290.526669 
L 515.931249 286.127665 
L 519.318713 284.479876 
L 524.399909 281.663228 
L 529.481105 278.883132 
L 532.868569 277.301564 
L 535.409167 276.365388 
L 537.949765 275.714238 
L 539.643497 275.466846 
L 542.184095 275.378869 
L 544.724693 275.615254 
L 547.265291 276.158703 
L 549.805889 276.99192 
L 552.346487 278.097607 
L 554.887085 279.458466 
L 557.427683 281.057202 
L 559.96828 282.875991 
L 568.43694 289.304523 
L 570.977538 290.795004 
L 572.67127 291.542828 
L 574.365002 292.044148 
L 576.058734 292.256244 
L 577.752466 292.136395 
L 579.446198 291.64188 
L 581.13993 290.731695 
L 582.833662 289.413227 
L 584.527394 287.747816 
L 586.221126 285.799633 
L 588.761724 282.487534 
L 593.84292 275.254087 
L 597.230384 270.675679 
L 598.924116 268.652155 
L 600.617848 266.891312 
L 602.31158 265.457322 
L 604.005312 264.414356 
L 604.852178 264.05956 
L 605.699044 263.826584 
L 606.54591 263.723449 
L 607.392776 263.758177 
L 608.239642 263.93879 
L 609.086508 264.273308 
L 609.933374 264.769752 
L 610.78024 265.436145 
L 611.627106 266.280508 
L 612.473972 267.310862 
L 613.320838 268.535228 
L 615.01457 271.598083 
L 616.708302 275.533244 
L 618.402034 280.404882 
L 620.095766 286.277168 
L 621.789498 293.214274 
L 622.636364 297.102187 
L 622.636364 297.102187 
" clip-path="url(#pdf8f5ed528)" style="fill: none; stroke: #bfbbd9; stroke-width: 1.5; stroke-linecap: square"/>
   </g>
   <g id="line2d_66">
    <path d="M 115.363636 70.863179 
L 117.057368 112.428679 
L 118.7511 150.07345 
L 120.444832 183.980004 
L 122.138564 214.330853 
L 123.832296 241.30851 
L 125.526028 265.095486 
L 127.21976 285.874294 
L 128.913492 303.827447 
L 130.607224 319.137456 
L 132.300956 331.986834 
L 133.994688 342.558093 
L 135.68842 351.033746 
L 137.382152 357.596304 
L 138.229018 360.217208 
L 139.075884 362.42828 
L 139.92275 364.252335 
L 140.769616 365.712187 
L 141.616482 366.830649 
L 142.463348 367.630536 
L 143.310214 368.134661 
L 144.15708 368.365839 
L 145.003946 368.346884 
L 145.850812 368.10061 
L 146.697678 367.64983 
L 147.544544 367.01736 
L 149.238276 365.298601 
L 150.932008 363.126847 
L 154.319472 358.154398 
L 156.86007 354.593381 
L 158.553802 352.635699 
L 160.247534 351.101783 
L 161.941266 349.949987 
L 163.634998 349.13501 
L 165.32873 348.611548 
L 167.022462 348.334302 
L 168.716194 348.257968 
L 171.256792 348.421081 
L 175.491122 349.055723 
L 178.878586 349.48223 
L 181.419183 349.552211 
L 183.959781 349.403101 
L 187.347245 348.923195 
L 190.734709 348.197111 
L 195.815905 346.825547 
L 205.131431 344.22761 
L 210.212627 343.038214 
L 215.293823 342.083201 
L 219.528153 341.503743 
L 223.762483 341.146217 
L 230.537411 340.854768 
L 236.465473 340.540287 
L 240.699803 340.084736 
L 244.087267 339.491842 
L 248.321597 338.500509 
L 257.637122 336.183953 
L 261.024586 335.586351 
L 263.565184 335.315481 
L 266.952648 335.225833 
L 270.340112 335.370392 
L 277.11504 335.963788 
L 281.34937 336.254116 
L 284.736834 336.283072 
L 288.124298 336.057613 
L 291.511762 335.618955 
L 296.592958 334.696747 
L 308.449082 332.386836 
L 315.22401 331.42829 
L 327.080134 329.789212 
L 333.008195 328.697727 
L 340.629989 327.057585 
L 355.873577 323.696599 
L 360.954773 322.851963 
L 365.189103 322.387109 
L 368.576567 322.218141 
L 372.810897 322.278868 
L 382.126423 322.566254 
L 385.513887 322.353372 
L 388.054485 321.966121 
L 390.595083 321.328446 
L 393.135681 320.425913 
L 396.523145 318.931727 
L 405.838671 314.592538 
L 408.379268 313.728152 
L 410.919866 313.15334 
L 412.613598 312.966884 
L 415.154196 312.959581 
L 417.694794 313.203108 
L 421.082258 313.769899 
L 427.857186 314.971896 
L 430.397784 315.184359 
L 432.938382 315.133807 
L 435.47898 314.780603 
L 438.019578 314.18495 
L 441.407042 313.140388 
L 449.875702 310.354875 
L 452.4163 309.77093 
L 454.956898 309.428918 
L 457.497496 309.314116 
L 461.731826 309.390523 
L 465.966156 309.443432 
L 468.506754 309.291976 
L 471.047352 308.894011 
L 472.741084 308.44767 
L 474.434816 307.825645 
L 476.128548 307.007348 
L 478.669146 305.451075 
L 481.209744 303.590068 
L 484.597207 300.809514 
L 491.372135 295.121621 
L 493.912733 293.254138 
L 496.453331 291.688411 
L 498.993929 290.478242 
L 501.534527 289.586237 
L 504.075125 288.964522 
L 506.615723 288.565225 
L 510.003187 288.296067 
L 514.237517 288.223107 
L 525.246775 288.151598 
L 532.868569 287.842461 
L 539.643497 287.351541 
L 545.571559 286.928667 
L 548.959023 286.900214 
L 551.499621 287.063384 
L 554.040219 287.435375 
L 556.580817 288.061789 
L 559.121414 288.98823 
L 561.662012 290.235291 
L 565.049476 292.230884 
L 570.977538 295.80748 
L 573.518136 297.049381 
L 575.211868 297.687834 
L 576.9056 298.131531 
L 578.599332 298.34347 
L 580.293064 298.286648 
L 581.986796 297.934613 
L 583.680528 297.308736 
L 585.37426 296.443931 
L 587.067992 295.375116 
L 589.60859 293.465753 
L 592.996054 290.531788 
L 600.617848 283.670201 
L 603.158446 281.721952 
L 604.852178 280.619112 
L 606.54591 279.713802 
L 608.239642 279.040937 
L 609.933374 278.635435 
L 611.627106 278.532211 
L 613.320838 278.766184 
L 615.01457 279.372268 
L 616.708302 280.385381 
L 618.402034 281.840439 
L 620.095766 283.772358 
L 621.789498 286.216056 
L 622.636364 287.640733 
L 622.636364 287.640733 
" clip-path="url(#pdf8f5ed528)" style="fill: none; stroke: #fa8174; stroke-width: 1.5; stroke-linecap: square"/>
   </g>
   <g id="line2d_67">
    <path d="M 115.363636 66.96 
L 117.057368 109.615961 
L 118.7511 148.209664 
L 120.444832 182.931615 
L 122.138564 213.972322 
L 123.832296 241.522293 
L 125.526028 265.772035 
L 127.21976 286.912057 
L 128.913492 305.132866 
L 130.607224 320.624969 
L 132.300956 333.578875 
L 133.994688 344.18509 
L 135.68842 352.634124 
L 137.382152 359.116482 
L 138.229018 361.679692 
L 139.075884 363.822673 
L 139.92275 365.56924 
L 140.769616 366.943205 
L 141.616482 367.968383 
L 142.463348 368.668586 
L 143.310214 369.067628 
L 144.15708 369.189322 
L 145.003946 369.057482 
L 145.850812 368.695922 
L 146.697678 368.128454 
L 147.544544 367.378893 
L 149.238276 365.428743 
L 150.932008 363.03598 
L 156.86007 353.926184 
L 158.553802 351.892791 
L 160.247534 350.329771 
L 161.941266 349.189798 
L 163.634998 348.421668 
L 165.32873 347.974177 
L 167.022462 347.79612 
L 168.716194 347.836293 
L 171.256792 348.193724 
L 175.491122 349.1552 
L 178.03172 349.669915 
L 180.572317 349.939715 
L 183.112915 349.934382 
L 185.653513 349.698491 
L 189.040977 349.103927 
L 193.275307 348.062246 
L 203.437699 345.388921 
L 208.518895 344.372469 
L 214.446957 343.440849 
L 221.221885 342.623352 
L 239.006071 340.682406 
L 244.087267 339.827835 
L 261.024586 336.652158 
L 264.41205 336.347164 
L 268.64638 336.222552 
L 276.268174 336.32154 
L 281.34937 336.286961 
L 284.736834 336.079258 
L 288.124298 335.667395 
L 292.358628 334.923118 
L 299.133556 333.443435 
L 306.75535 331.813127 
L 311.836546 330.968643 
L 316.917742 330.329343 
L 322.845804 329.814343 
L 328.773866 329.514825 
L 346.558051 328.816709 
L 351.639247 328.275164 
L 359.261041 327.183975 
L 366.882835 326.142126 
L 371.964031 325.674511 
L 379.585825 325.03502 
L 382.973289 324.543142 
L 386.360753 323.794327 
L 388.901351 323.009262 
L 391.441949 321.992613 
L 394.829413 320.324485 
L 404.991805 314.95947 
L 407.532402 313.95642 
L 410.073 313.248843 
L 411.766732 312.980611 
L 413.460464 312.884415 
L 416.001062 313.004448 
L 418.54166 313.35372 
L 428.704052 315.064225 
L 431.24465 315.075466 
L 432.938382 314.886897 
L 434.632114 314.528776 
L 437.172712 313.733252 
L 440.560176 312.347731 
L 448.18197 309.042391 
L 450.722568 308.242599 
L 452.4163 307.880744 
L 454.110032 307.690539 
L 455.803764 307.677424 
L 458.344362 307.918832 
L 461.731826 308.543264 
L 466.813022 309.55625 
L 469.35362 309.839701 
L 471.047352 309.865395 
L 472.741084 309.719403 
L 474.434816 309.366528 
L 476.128548 308.77822 
L 477.82228 307.967363 
L 479.516012 306.962762 
L 482.05661 305.155677 
L 484.597207 303.074893 
L 488.831537 299.263057 
L 493.912733 294.676644 
L 496.453331 292.605313 
L 498.993929 290.782251 
L 501.534527 289.218918 
L 504.075125 287.920276 
L 506.615723 286.891293 
L 509.156321 286.136931 
L 511.696919 285.662156 
L 514.237517 285.471933 
L 516.778115 285.571226 
L 519.318713 285.949636 
L 522.706177 286.735455 
L 527.787373 287.989985 
L 530.327971 288.414237 
L 532.868569 288.557223 
L 534.562301 288.442244 
L 536.256033 288.121189 
L 537.949765 287.561633 
L 539.643497 286.740929 
L 541.337229 285.686724 
L 543.877827 283.763341 
L 547.265291 280.790087 
L 553.193353 275.445889 
L 555.733951 273.483583 
L 557.427683 272.394162 
L 559.121414 271.530836 
L 560.815146 270.927862 
L 562.508878 270.573575 
L 564.20261 270.442476 
L 565.896342 270.50906 
L 567.590074 270.747823 
L 570.130672 271.373012 
L 572.67127 272.242142 
L 576.9056 273.998998 
L 581.986796 276.129628 
L 586.221126 277.662568 
L 592.996054 279.841935 
L 600.617848 282.32817 
L 604.852178 283.92491 
L 608.239642 285.397175 
L 611.627106 287.096615 
L 615.01457 289.073036 
L 618.402034 291.376241 
L 620.942632 293.348057 
L 622.636364 294.790662 
L 622.636364 294.790662 
" clip-path="url(#pdf8f5ed528)" style="fill: none; stroke: #81b1d2; stroke-width: 1.5; stroke-linecap: square"/>
   </g>
   <g id="line2d_68">
    <path d="M 115.363636 67.646418 
L 117.057368 110.068418 
L 118.7511 148.457942 
L 120.444832 183.003965 
L 122.138564 213.89546 
L 123.832296 241.321402 
L 125.526028 265.470764 
L 127.21976 286.532521 
L 128.913492 304.695647 
L 130.607224 320.149115 
L 132.300956 333.0819 
L 133.994688 343.682975 
L 135.68842 352.141315 
L 137.382152 358.645894 
L 138.229018 361.224578 
L 139.075884 363.385686 
L 139.92275 365.152841 
L 140.769616 366.549665 
L 141.616482 367.599779 
L 142.463348 368.326805 
L 143.310214 368.754364 
L 144.15708 368.906079 
L 145.003946 368.805571 
L 145.850812 368.476463 
L 146.697678 367.942375 
L 147.544544 367.226929 
L 149.238276 365.346453 
L 150.932008 363.024007 
L 156.86007 354.143256 
L 158.553802 352.164119 
L 160.247534 350.647917 
L 161.941266 349.546412 
L 163.634998 348.807501 
L 165.32873 348.379076 
L 167.022462 348.209033 
L 168.716194 348.245265 
L 171.256792 348.572401 
L 178.878586 349.876552 
L 181.419183 349.875146 
L 183.959781 349.576289 
L 186.500379 349.029668 
L 189.887843 348.001317 
L 194.122173 346.400134 
L 203.437699 342.705515 
L 207.672029 341.316451 
L 211.059493 340.404631 
L 214.446957 339.701074 
L 217.834421 339.234385 
L 221.221885 339.033168 
L 224.609349 339.101669 
L 228.843679 339.443958 
L 238.159205 340.312151 
L 241.546669 340.364156 
L 244.934133 340.139025 
L 248.321597 339.677556 
L 254.249659 338.581287 
L 260.17772 337.545974 
L 263.565184 337.174062 
L 266.952648 337.0412 
L 271.186978 337.110949 
L 280.502504 337.379234 
L 283.889968 337.240652 
L 287.277432 336.852225 
L 290.664896 336.244972 
L 295.746092 335.084086 
L 304.214752 333.094112 
L 308.449082 332.362545 
L 313.530278 331.766511 
L 322.845804 331.010357 
L 328.773866 330.415402 
L 334.701927 329.583911 
L 344.017453 328.013333 
L 355.026711 326.198865 
L 363.495371 325.045177 
L 370.270299 324.331142 
L 380.432691 323.334278 
L 384.667021 322.676939 
L 388.054485 321.945411 
L 391.441949 320.975666 
L 394.829413 319.774489 
L 400.757475 317.374055 
L 406.685537 315.008993 
L 410.073 313.859789 
L 413.460464 312.964213 
L 416.847928 312.325518 
L 421.082258 311.809392 
L 426.163454 311.46779 
L 449.028836 310.522686 
L 454.110032 310.55492 
L 463.425558 310.772293 
L 466.813022 310.569125 
L 469.35362 310.208705 
L 471.894218 309.617927 
L 474.434816 308.749962 
L 476.975414 307.572989 
L 479.516012 306.135685 
L 482.903475 303.944905 
L 492.219001 297.688826 
L 494.759599 296.276364 
L 497.300197 295.127997 
L 499.840795 294.242207 
L 503.228259 293.36585 
L 507.462589 292.555032 
L 513.390651 291.440816 
L 516.778115 290.547744 
L 519.318713 289.658734 
L 522.706177 288.223 
L 527.787373 285.767259 
L 533.715435 282.908922 
L 537.102899 281.503628 
L 539.643497 280.645534 
L 542.184095 279.988996 
L 544.724693 279.54831 
L 547.265291 279.337428 
L 549.805889 279.370304 
L 552.346487 279.660893 
L 554.887085 280.223146 
L 557.427683 281.071019 
L 559.96828 282.217953 
L 562.508878 283.634909 
L 566.743208 286.31405 
L 570.977538 288.948677 
L 573.518136 290.296192 
L 576.058734 291.33429 
L 577.752466 291.800126 
L 579.446198 292.046945 
L 581.13993 292.043112 
L 582.833662 291.784185 
L 584.527394 291.296036 
L 586.221126 290.606129 
L 588.761724 289.253052 
L 591.302322 287.600506 
L 594.689786 285.091477 
L 602.31158 279.240149 
L 604.852178 277.555887 
L 607.392776 276.1592 
L 609.086508 275.433613 
L 610.78024 274.904497 
L 612.473972 274.599317 
L 614.167704 274.545537 
L 615.861436 274.77062 
L 617.555168 275.302031 
L 619.2489 276.167234 
L 620.942632 277.393693 
L 622.636364 279.008871 
L 622.636364 279.008871 
" clip-path="url(#pdf8f5ed528)" style="fill: none; stroke: #fdb462; stroke-width: 1.5; stroke-linecap: square"/>
   </g>
   <g id="patch_3">
    <path d="M 90 384.48 
L 90 51.84 
" style="fill: none; stroke: #ffffff; stroke-width: 0.8; stroke-linejoin: miter; stroke-linecap: square"/>
   </g>
   <g id="patch_4">
    <path d="M 648 384.48 
L 648 51.84 
" style="fill: none; stroke: #ffffff; stroke-width: 0.8; stroke-linejoin: miter; stroke-linecap: square"/>
   </g>
   <g id="patch_5">
    <path d="M 90 384.48 
L 648 384.48 
" style="fill: none; stroke: #ffffff; stroke-width: 0.8; stroke-linejoin: miter; stroke-linecap: square"/>
   </g>
   <g id="patch_6">
    <path d="M 90 51.84 
L 648 51.84 
" style="fill: none; stroke: #ffffff; stroke-width: 0.8; stroke-linejoin: miter; stroke-linecap: square"/>
   </g>
   <g id="text_34">
    <!-- caio.python_aio_asyncio - write (Time vs Concurrency) -->
    <g style="fill: #ffffff" transform="translate(205.461563 45.84) scale(0.12 -0.12)">
     <defs>
      <path id="DejaVuSans-61" d="M 2194 1759 
Q 1497 1759 1228 1600 
Q 959 1441 959 1056 
Q 959 750 1161 570 
Q 1363 391 1709 391 
Q 2188 391 2477 730 
Q 2766 1069 2766 1631 
L 2766 1759 
L 2194 1759 
z
M 3341 1997 
L 3341 0 
L 2766 0 
L 2766 531 
Q 2569 213 2275 61 
Q 1981 -91 1556 -91 
Q 1019 -91 701 211 
Q 384 513 384 1019 
Q 384 1609 779 1909 
Q 1175 2209 1959 2209 
L 2766 2209 
L 2766 2266 
Q 2766 2663 2505 2880 
Q 2244 3097 1772 3097 
Q 1472 3097 1187 3025 
Q 903 2953 641 2809 
L 641 3341 
Q 956 3463 1253 3523 
Q 1550 3584 1831 3584 
Q 2591 3584 2966 3190 
Q 3341 2797 3341 1997 
z
" transform="scale(0.015625)"/>
      <path id="DejaVuSans-2e" d="M 684 794 
L 1344 794 
L 1344 0 
L 684 0 
L 684 794 
z
" transform="scale(0.015625)"/>
      <path id="DejaVuSans-70" d="M 1159 525 
L 1159 -1331 
L 581 -1331 
L 581 3500 
L 1159 3500 
L 1159 2969 
Q 1341 3281 1617 3432 
Q 1894 3584 2278 3584 
Q 2916 3584 3314 3078 
Q 3713 2572 3713 1747 
Q 3713 922 3314 415 
Q 2916 -91 2278 -91 
Q 1894 -91 1617 61 
Q 1341 213 1159 525 
z
M 3116 1747 
Q 3116 2381 2855 2742 
Q 2594 3103 2138 3103 
Q 1681 3103 1420 2742 
Q 1159 2381 1159 1747 
Q 1159 1113 1420 752 
Q 1681 391 2138 391 
Q 2594 391 2855 752 
Q 3116 1113 3116 1747 
z
" transform="scale(0.015625)"/>
      <path id="DejaVuSans-68" d="M 3513 2113 
L 3513 0 
L 2938 0 
L 2938 2094 
Q 2938 2591 2744 2837 
Q 2550 3084 2163 3084 
Q 1697 3084 1428 2787 
Q 1159 2491 1159 1978 
L 1159 0 
L 581 0 
L 581 4863 
L 1159 4863 
L 1159 2956 
Q 1366 3272 1645 3428 
Q 1925 3584 2291 3584 
Q 2894 3584 3203 3211 
Q 3513 2838 3513 2113 
z
" transform="scale(0.015625)"/>
      <path id="DejaVuSans-5f" d="M 3263 -1063 
L 3263 -1509 
L -63 -1509 
L -63 -1063 
L 3263 -1063 
z
" transform="scale(0.015625)"/>
      <path id="DejaVuSans-2d" d="M 313 2009 
L 1997 2009 
L 1997 1497 
L 313 1497 
L 313 2009 
z
" transform="scale(0.015625)"/>
      <path id="DejaVuSans-77" d="M 269 3500 
L 844 3500 
L 1563 769 
L 2278 3500 
L 2956 3500 
L 3675 769 
L 4391 3500 
L 4966 3500 
L 4050 0 
L 3372 0 
L 2619 2869 
L 1863 0 
L 1184 0 
L 269 3500 
z
" transform="scale(0.015625)"/>
      <path id="DejaVuSans-54" d="M -19 4666 
L 3928 4666 
L 3928 4134 
L 2272 4134 
L 2272 0 
L 1638 0 
L 1638 4134 
L -19 4134 
L -19 4666 
z
" transform="scale(0.015625)"/>
      <path id="DejaVuSans-76" d="M 191 3500 
L 800 3500 
L 1894 563 
L 2988 3500 
L 3597 3500 
L 2284 0 
L 1503 0 
L 191 3500 
z
" transform="scale(0.015625)"/>
      <path id="DejaVuSans-43" d="M 4122 4306 
L 4122 3641 
Q 3803 3938 3442 4084 
Q 3081 4231 2675 4231 
Q 1875 4231 1450 3742 
Q 1025 3253 1025 2328 
Q 1025 1406 1450 917 
Q 1875 428 2675 428 
Q 3081 428 3442 575 
Q 3803 722 4122 1019 
L 4122 359 
Q 3791 134 3420 21 
Q 3050 -91 2638 -91 
Q 1578 -91 968 557 
Q 359 1206 359 2328 
Q 359 3453 968 4101 
Q 1578 4750 2638 4750 
Q 3056 4750 3426 4639 
Q 3797 4528 4122 4306 
z
" transform="scale(0.015625)"/>
     </defs>
     <use xlink:href="#DejaVuSans-63"/>
     <use xlink:href="#DejaVuSans-61" x="54.980469"/>
     <use xlink:href="#DejaVuSans-69" x="116.259766"/>
     <use xlink:href="#DejaVuSans-6f" x="144.042969"/>
     <use xlink:href="#DejaVuSans-2e" x="203.474609"/>
     <use xlink:href="#DejaVuSans-70" x="235.261719"/>
     <use xlink:href="#DejaVuSans-79" x="298.738281"/>
     <use xlink:href="#DejaVuSans-74" x="357.917969"/>
     <use xlink:href="#DejaVuSans-68" x="397.126953"/>
     <use xlink:href="#DejaVuSans-6f" x="460.505859"/>
     <use xlink:href="#DejaVuSans-6e" x="521.6875"/>
     <use xlink:href="#DejaVuSans-5f" x="585.066406"/>
     <use xlink:href="#DejaVuSans-61" x="635.066406"/>
     <use xlink:href="#DejaVuSans-69" x="696.345703"/>
     <use xlink:href="#DejaVuSans-6f" x="724.128906"/>
     <use xlink:href="#DejaVuSans-5f" x="785.310547"/>
     <use xlink:href="#DejaVuSans-61" x="835.310547"/>
     <use xlink:href="#DejaVuSans-73" x="896.589844"/>
     <use xlink:href="#DejaVuSans-79" x="948.689453"/>
     <use xlink:href="#DejaVuSans-6e" x="1007.869141"/>
     <use xlink:href="#DejaVuSans-63" x="1071.248047"/>
     <use xlink:href="#DejaVuSans-69" x="1126.228516"/>
     <use xlink:href="#DejaVuSans-6f" x="1154.011719"/>
     <use xlink:href="#DejaVuSans-20" x="1215.193359"/>
     <use xlink:href="#DejaVuSans-2d" x="1246.980469"/>
     <use xlink:href="#DejaVuSans-20" x="1283.064453"/>
     <use xlink:href="#DejaVuSans-77" x="1314.851562"/>
     <use xlink:href="#DejaVuSans-72" x="1396.638672"/>
     <use xlink:href="#DejaVuSans-69" x="1437.751953"/>
     <use xlink:href="#DejaVuSans-74" x="1465.535156"/>
     <use xlink:href="#DejaVuSans-65" x="1504.744141"/>
     <use xlink:href="#DejaVuSans-20" x="1566.267578"/>
     <use xlink:href="#DejaVuSans-28" x="1598.054688"/>
     <use xlink:href="#DejaVuSans-54" x="1637.068359"/>
     <use xlink:href="#DejaVuSans-69" x="1695.027344"/>
     <use xlink:href="#DejaVuSans-6d" x="1722.810547"/>
     <use xlink:href="#DejaVuSans-65" x="1820.222656"/>
     <use xlink:href="#DejaVuSans-20" x="1881.746094"/>
     <use xlink:href="#DejaVuSans-76" x="1913.533203"/>
     <use xlink:href="#DejaVuSans-73" x="1972.712891"/>
     <use xlink:href="#DejaVuSans-20" x="2024.8125"/>
     <use xlink:href="#DejaVuSans-43" x="2056.599609"/>
     <use xlink:href="#DejaVuSans-6f" x="2126.423828"/>
     <use xlink:href="#DejaVuSans-6e" x="2187.605469"/>
     <use xlink:href="#DejaVuSans-63" x="2250.984375"/>
     <use xlink:href="#DejaVuSans-75" x="2305.964844"/>
     <use xlink:href="#DejaVuSans-72" x="2369.34375"/>
     <use xlink:href="#DejaVuSans-72" x="2408.707031"/>
     <use xlink:href="#DejaVuSans-65" x="2447.570312"/>
     <use xlink:href="#DejaVuSans-6e" x="2509.09375"/>
     <use xlink:href="#DejaVuSans-63" x="2572.472656"/>
     <use xlink:href="#DejaVuSans-79" x="2627.453125"/>
     <use xlink:href="#DejaVuSans-29" x="2686.632812"/>
    </g>
   </g>
   <g id="legend_1">
    <g id="patch_7">
     <path d="M 543.43125 149.5775 
L 641 149.5775 
Q 643 149.5775 643 147.5775 
L 643 58.84 
Q 643 56.84 641 56.84 
L 543.43125 56.84 
Q 541.43125 56.84 541.43125 58.84 
L 541.43125 147.5775 
Q 541.43125 149.5775 543.43125 149.5775 
z
" style="opacity: 0.8; stroke: #cccccc; stroke-linejoin: miter"/>
    </g>
    <g id="line2d_69">
     <path d="M 545.43125 64.938437 
L 555.43125 64.938437 
L 565.43125 64.938437 
" style="fill: none; stroke: #8dd3c7; stroke-width: 1.5; stroke-linecap: square"/>
    </g>
    <g id="text_35">
     <!-- max_ops=1 -->
     <g style="fill: #ffffff" transform="translate(573.43125 68.438437) scale(0.1 -0.1)">
      <defs>
       <path id="DejaVuSans-78" d="M 3513 3500 
L 2247 1797 
L 3578 0 
L 2900 0 
L 1881 1375 
L 863 0 
L 184 0 
L 1544 1831 
L 300 3500 
L 978 3500 
L 1906 2253 
L 2834 3500 
L 3513 3500 
z
" transform="scale(0.015625)"/>
       <path id="DejaVuSans-3d" d="M 678 2906 
L 4684 2906 
L 4684 2381 
L 678 2381 
L 678 2906 
z
M 678 1631 
L 4684 1631 
L 4684 1100 
L 678 1100 
L 678 1631 
z
" transform="scale(0.015625)"/>
      </defs>
      <use xlink:href="#DejaVuSans-6d"/>
      <use xlink:href="#DejaVuSans-61" x="97.412109"/>
      <use xlink:href="#DejaVuSans-78" x="158.691406"/>
      <use xlink:href="#DejaVuSans-5f" x="217.871094"/>
      <use xlink:href="#DejaVuSans-6f" x="267.871094"/>
      <use xlink:href="#DejaVuSans-70" x="329.052734"/>
      <use xlink:href="#DejaVuSans-73" x="392.529297"/>
      <use xlink:href="#DejaVuSans-3d" x="444.628906"/>
      <use xlink:href="#DejaVuSans-31" x="528.417969"/>
     </g>
    </g>
    <g id="line2d_70">
     <path d="M 545.43125 79.894687 
L 555.43125 79.894687 
L 565.43125 79.894687 
" style="fill: none; stroke: #feffb3; stroke-width: 1.5; stroke-linecap: square"/>
    </g>
    <g id="text_36">
     <!-- max_ops=4 -->
     <g style="fill: #ffffff" transform="translate(573.43125 83.394687) scale(0.1 -0.1)">
      <use xlink:href="#DejaVuSans-6d"/>
      <use xlink:href="#DejaVuSans-61" x="97.412109"/>
      <use xlink:href="#DejaVuSans-78" x="158.691406"/>
      <use xlink:href="#DejaVuSans-5f" x="217.871094"/>
      <use xlink:href="#DejaVuSans-6f" x="267.871094"/>
      <use xlink:href="#DejaVuSans-70" x="329.052734"/>
      <use xlink:href="#DejaVuSans-73" x="392.529297"/>
      <use xlink:href="#DejaVuSans-3d" x="444.628906"/>
      <use xlink:href="#DejaVuSans-34" x="528.417969"/>
     </g>
    </g>
    <g id="line2d_71">
     <path d="M 545.43125 94.850937 
L 555.43125 94.850937 
L 565.43125 94.850937 
" style="fill: none; stroke: #bfbbd9; stroke-width: 1.5; stroke-linecap: square"/>
    </g>
    <g id="text_37">
     <!-- max_ops=8 -->
     <g style="fill: #ffffff" transform="translate(573.43125 98.350937) scale(0.1 -0.1)">
      <use xlink:href="#DejaVuSans-6d"/>
      <use xlink:href="#DejaVuSans-61" x="97.412109"/>
      <use xlink:href="#DejaVuSans-78" x="158.691406"/>
      <use xlink:href="#DejaVuSans-5f" x="217.871094"/>
      <use xlink:href="#DejaVuSans-6f" x="267.871094"/>
      <use xlink:href="#DejaVuSans-70" x="329.052734"/>
      <use xlink:href="#DejaVuSans-73" x="392.529297"/>
      <use xlink:href="#DejaVuSans-3d" x="444.628906"/>
      <use xlink:href="#DejaVuSans-38" x="528.417969"/>
     </g>
    </g>
    <g id="line2d_72">
     <path d="M 545.43125 109.807187 
L 555.43125 109.807187 
L 565.43125 109.807187 
" style="fill: none; stroke: #fa8174; stroke-width: 1.5; stroke-linecap: square"/>
    </g>
    <g id="text_38">
     <!-- max_ops=16 -->
     <g style="fill: #ffffff" transform="translate(573.43125 113.307187) scale(0.1 -0.1)">
      <use xlink:href="#DejaVuSans-6d"/>
      <use xlink:href="#DejaVuSans-61" x="97.412109"/>
      <use xlink:href="#DejaVuSans-78" x="158.691406"/>
      <use xlink:href="#DejaVuSans-5f" x="217.871094"/>
      <use xlink:href="#DejaVuSans-6f" x="267.871094"/>
      <use xlink:href="#DejaVuSans-70" x="329.052734"/>
      <use xlink:href="#DejaVuSans-73" x="392.529297"/>
      <use xlink:href="#DejaVuSans-3d" x="444.628906"/>
      <use xlink:href="#DejaVuSans-31" x="528.417969"/>
      <use xlink:href="#DejaVuSans-36" x="592.041016"/>
     </g>
    </g>
    <g id="line2d_73">
     <path d="M 545.43125 124.763437 
L 555.43125 124.763437 
L 565.43125 124.763437 
" style="fill: none; stroke: #81b1d2; stroke-width: 1.5; stroke-linecap: square"/>
    </g>
    <g id="text_39">
     <!-- max_ops=32 -->
     <g style="fill: #ffffff" transform="translate(573.43125 128.263437) scale(0.1 -0.1)">
      <use xlink:href="#DejaVuSans-6d"/>
      <use xlink:href="#DejaVuSans-61" x="97.412109"/>
      <use xlink:href="#DejaVuSans-78" x="158.691406"/>
      <use xlink:href="#DejaVuSans-5f" x="217.871094"/>
      <use xlink:href="#DejaVuSans-6f" x="267.871094"/>
      <use xlink:href="#DejaVuSans-70" x="329.052734"/>
      <use xlink:href="#DejaVuSans-73" x="392.529297"/>
      <use xlink:href="#DejaVuSans-3d" x="444.628906"/>
      <use xlink:href="#DejaVuSans-33" x="528.417969"/>
      <use xlink:href="#DejaVuSans-32" x="592.041016"/>
     </g>
    </g>
    <g id="line2d_74">
     <path d="M 545.43125 139.719687 
L 555.43125 139.719687 
L 565.43125 139.719687 
" style="fill: none; stroke: #fdb462; stroke-width: 1.5; stroke-linecap: square"/>
    </g>
    <g id="text_40">
     <!-- max_ops=64 -->
     <g style="fill: #ffffff" transform="translate(573.43125 143.219687) scale(0.1 -0.1)">
      <use xlink:href="#DejaVuSans-6d"/>
      <use xlink:href="#DejaVuSans-61" x="97.412109"/>
      <use xlink:href="#DejaVuSans-78" x="158.691406"/>
      <use xlink:href="#DejaVuSans-5f" x="217.871094"/>
      <use xlink:href="#DejaVuSans-6f" x="267.871094"/>
      <use xlink:href="#DejaVuSans-70" x="329.052734"/>
      <use xlink:href="#DejaVuSans-73" x="392.529297"/>
      <use xlink:href="#DejaVuSans-3d" x="444.628906"/>
      <use xlink:href="#DejaVuSans-36" x="528.417969"/>
      <use xlink:href="#DejaVuSans-34" x="592.041016"/>
     </g>
    </g>
   </g>
  </g>
 </g>
 <defs>
  <clipPath id="pdf8f5ed528">
   <rect x="90" y="51.84" width="558" height="332.64"/>
  </clipPath>
 </defs>
</svg>
