<?xml version="1.0" encoding="utf-8" standalone="no"?>
<!DOCTYPE svg PUBLIC "-//W3C//DTD SVG 1.1//EN"
  "http://www.w3.org/Graphics/SVG/1.1/DTD/svg11.dtd">
<svg xmlns:xlink="http://www.w3.org/1999/xlink" width="720pt" height="432pt" viewBox="0 0 720 432" xmlns="http://www.w3.org/2000/svg" version="1.1">
 <metadata>
  <rdf:RDF xmlns:dc="http://purl.org/dc/elements/1.1/" xmlns:cc="http://creativecommons.org/ns#" xmlns:rdf="http://www.w3.org/1999/02/22-rdf-syntax-ns#">
   <cc:Work>
    <dc:type rdf:resource="http://purl.org/dc/dcmitype/StillImage"/>
    <dc:date>2024-01-19T15:25:07.804096</dc:date>
    <dc:format>image/svg+xml</dc:format>
    <dc:creator>
     <cc:Agent>
      <dc:title>Matplotlib v3.8.2, https://matplotlib.org/</dc:title>
     </cc:Agent>
    </dc:creator>
   </cc:Work>
  </rdf:RDF>
 </metadata>
 <defs>
  <style type="text/css">*{stroke-linejoin: round; stroke-linecap: butt}</style>
 </defs>
 <g id="figure_1">
  <g id="patch_1">
   <path d="M 0 432 
L 720 432 
L 720 0 
L 0 0 
z
"/>
  </g>
  <g id="axes_1">
   <g id="patch_2">
    <path d="M 90 384.48 
L 648 384.48 
L 648 51.84 
L 90 51.84 
z
"/>
   </g>
   <g id="matplotlib.axis_1">
    <g id="xtick_1">
     <g id="line2d_1">
      <path d="M 115.363636 384.48 
L 115.363636 51.84 
" clip-path="url(#p15d1787ff3)" style="fill: none; stroke: #ffffff; stroke-width: 0.8; stroke-linecap: square"/>
     </g>
     <g id="line2d_2">
      <defs>
       <path id="m4ea7c8b5f7" d="M 0 0 
L 0 3.5 
" style="stroke: #ffffff; stroke-width: 0.8"/>
      </defs>
      <g>
       <use xlink:href="#m4ea7c8b5f7" x="115.363636" y="384.48" style="fill: #ffffff; stroke: #ffffff; stroke-width: 0.8"/>
      </g>
     </g>
     <g id="text_1">
      <!-- 55912 -->
      <g style="fill: #ffffff" transform="translate(106.067392 419.347741) rotate(-45) scale(0.1 -0.1)">
       <defs>
        <path id="DejaVuSans-35" d="M 691 4666 
L 3169 4666 
L 3169 4134 
L 1269 4134 
L 1269 2991 
Q 1406 3038 1543 3061 
Q 1681 3084 1819 3084 
Q 2600 3084 3056 2656 
Q 3513 2228 3513 1497 
Q 3513 744 3044 326 
Q 2575 -91 1722 -91 
Q 1428 -91 1123 -41 
Q 819 9 494 109 
L 494 744 
Q 775 591 1075 516 
Q 1375 441 1709 441 
Q 2250 441 2565 725 
Q 2881 1009 2881 1497 
Q 2881 1984 2565 2268 
Q 2250 2553 1709 2553 
Q 1456 2553 1204 2497 
Q 953 2441 691 2322 
L 691 4666 
z
" transform="scale(0.015625)"/>
        <path id="DejaVuSans-39" d="M 703 97 
L 703 672 
Q 941 559 1184 500 
Q 1428 441 1663 441 
Q 2288 441 2617 861 
Q 2947 1281 2994 2138 
Q 2813 1869 2534 1725 
Q 2256 1581 1919 1581 
Q 1219 1581 811 2004 
Q 403 2428 403 3163 
Q 403 3881 828 4315 
Q 1253 4750 1959 4750 
Q 2769 4750 3195 4129 
Q 3622 3509 3622 2328 
Q 3622 1225 3098 567 
Q 2575 -91 1691 -91 
Q 1453 -91 1209 -44 
Q 966 3 703 97 
z
M 1959 2075 
Q 2384 2075 2632 2365 
Q 2881 2656 2881 3163 
Q 2881 3666 2632 3958 
Q 2384 4250 1959 4250 
Q 1534 4250 1286 3958 
Q 1038 3666 1038 3163 
Q 1038 2656 1286 2365 
Q 1534 2075 1959 2075 
z
" transform="scale(0.015625)"/>
        <path id="DejaVuSans-31" d="M 794 531 
L 1825 531 
L 1825 4091 
L 703 3866 
L 703 4441 
L 1819 4666 
L 2450 4666 
L 2450 531 
L 3481 531 
L 3481 0 
L 794 0 
L 794 531 
z
" transform="scale(0.015625)"/>
        <path id="DejaVuSans-32" d="M 1228 531 
L 3431 531 
L 3431 0 
L 469 0 
L 469 531 
Q 828 903 1448 1529 
Q 2069 2156 2228 2338 
Q 2531 2678 2651 2914 
Q 2772 3150 2772 3378 
Q 2772 3750 2511 3984 
Q 2250 4219 1831 4219 
Q 1534 4219 1204 4116 
Q 875 4013 500 3803 
L 500 4441 
Q 881 4594 1212 4672 
Q 1544 4750 1819 4750 
Q 2544 4750 2975 4387 
Q 3406 4025 3406 3419 
Q 3406 3131 3298 2873 
Q 3191 2616 2906 2266 
Q 2828 2175 2409 1742 
Q 1991 1309 1228 531 
z
" transform="scale(0.015625)"/>
       </defs>
       <use xlink:href="#DejaVuSans-35"/>
       <use xlink:href="#DejaVuSans-35" x="63.623047"/>
       <use xlink:href="#DejaVuSans-39" x="127.246094"/>
       <use xlink:href="#DejaVuSans-31" x="190.869141"/>
       <use xlink:href="#DejaVuSans-32" x="254.492188"/>
      </g>
     </g>
    </g>
    <g id="xtick_2">
     <g id="line2d_3">
      <path d="M 136.5 384.48 
L 136.5 51.84 
" clip-path="url(#p15d1787ff3)" style="fill: none; stroke: #ffffff; stroke-width: 0.8; stroke-linecap: square"/>
     </g>
     <g id="line2d_4">
      <g>
       <use xlink:href="#m4ea7c8b5f7" x="136.5" y="384.48" style="fill: #ffffff; stroke: #ffffff; stroke-width: 0.8"/>
      </g>
     </g>
     <g id="text_2">
      <!-- 58342 -->
      <g style="fill: #ffffff" transform="translate(127.203756 419.347741) rotate(-45) scale(0.1 -0.1)">
       <defs>
        <path id="DejaVuSans-38" d="M 2034 2216 
Q 1584 2216 1326 1975 
Q 1069 1734 1069 1313 
Q 1069 891 1326 650 
Q 1584 409 2034 409 
Q 2484 409 2743 651 
Q 3003 894 3003 1313 
Q 3003 1734 2745 1975 
Q 2488 2216 2034 2216 
z
M 1403 2484 
Q 997 2584 770 2862 
Q 544 3141 544 3541 
Q 544 4100 942 4425 
Q 1341 4750 2034 4750 
Q 2731 4750 3128 4425 
Q 3525 4100 3525 3541 
Q 3525 3141 3298 2862 
Q 3072 2584 2669 2484 
Q 3125 2378 3379 2068 
Q 3634 1759 3634 1313 
Q 3634 634 3220 271 
Q 2806 -91 2034 -91 
Q 1263 -91 848 271 
Q 434 634 434 1313 
Q 434 1759 690 2068 
Q 947 2378 1403 2484 
z
M 1172 3481 
Q 1172 3119 1398 2916 
Q 1625 2713 2034 2713 
Q 2441 2713 2670 2916 
Q 2900 3119 2900 3481 
Q 2900 3844 2670 4047 
Q 2441 4250 2034 4250 
Q 1625 4250 1398 4047 
Q 1172 3844 1172 3481 
z
" transform="scale(0.015625)"/>
        <path id="DejaVuSans-33" d="M 2597 2516 
Q 3050 2419 3304 2112 
Q 3559 1806 3559 1356 
Q 3559 666 3084 287 
Q 2609 -91 1734 -91 
Q 1441 -91 1130 -33 
Q 819 25 488 141 
L 488 750 
Q 750 597 1062 519 
Q 1375 441 1716 441 
Q 2309 441 2620 675 
Q 2931 909 2931 1356 
Q 2931 1769 2642 2001 
Q 2353 2234 1838 2234 
L 1294 2234 
L 1294 2753 
L 1863 2753 
Q 2328 2753 2575 2939 
Q 2822 3125 2822 3475 
Q 2822 3834 2567 4026 
Q 2313 4219 1838 4219 
Q 1578 4219 1281 4162 
Q 984 4106 628 3988 
L 628 4550 
Q 988 4650 1302 4700 
Q 1616 4750 1894 4750 
Q 2613 4750 3031 4423 
Q 3450 4097 3450 3541 
Q 3450 3153 3228 2886 
Q 3006 2619 2597 2516 
z
" transform="scale(0.015625)"/>
        <path id="DejaVuSans-34" d="M 2419 4116 
L 825 1625 
L 2419 1625 
L 2419 4116 
z
M 2253 4666 
L 3047 4666 
L 3047 1625 
L 3713 1625 
L 3713 1100 
L 3047 1100 
L 3047 0 
L 2419 0 
L 2419 1100 
L 313 1100 
L 313 1709 
L 2253 4666 
z
" transform="scale(0.015625)"/>
       </defs>
       <use xlink:href="#DejaVuSans-35"/>
       <use xlink:href="#DejaVuSans-38" x="63.623047"/>
       <use xlink:href="#DejaVuSans-33" x="127.246094"/>
       <use xlink:href="#DejaVuSans-34" x="190.869141"/>
       <use xlink:href="#DejaVuSans-32" x="254.492188"/>
      </g>
     </g>
    </g>
    <g id="xtick_3">
     <g id="line2d_5">
      <path d="M 157.636364 384.48 
L 157.636364 51.84 
" clip-path="url(#p15d1787ff3)" style="fill: none; stroke: #ffffff; stroke-width: 0.8; stroke-linecap: square"/>
     </g>
     <g id="line2d_6">
      <g>
       <use xlink:href="#m4ea7c8b5f7" x="157.636364" y="384.48" style="fill: #ffffff; stroke: #ffffff; stroke-width: 0.8"/>
      </g>
     </g>
     <g id="text_3">
      <!-- 60994 -->
      <g style="fill: #ffffff" transform="translate(148.340119 419.347741) rotate(-45) scale(0.1 -0.1)">
       <defs>
        <path id="DejaVuSans-36" d="M 2113 2584 
Q 1688 2584 1439 2293 
Q 1191 2003 1191 1497 
Q 1191 994 1439 701 
Q 1688 409 2113 409 
Q 2538 409 2786 701 
Q 3034 994 3034 1497 
Q 3034 2003 2786 2293 
Q 2538 2584 2113 2584 
z
M 3366 4563 
L 3366 3988 
Q 3128 4100 2886 4159 
Q 2644 4219 2406 4219 
Q 1781 4219 1451 3797 
Q 1122 3375 1075 2522 
Q 1259 2794 1537 2939 
Q 1816 3084 2150 3084 
Q 2853 3084 3261 2657 
Q 3669 2231 3669 1497 
Q 3669 778 3244 343 
Q 2819 -91 2113 -91 
Q 1303 -91 875 529 
Q 447 1150 447 2328 
Q 447 3434 972 4092 
Q 1497 4750 2381 4750 
Q 2619 4750 2861 4703 
Q 3103 4656 3366 4563 
z
" transform="scale(0.015625)"/>
        <path id="DejaVuSans-30" d="M 2034 4250 
Q 1547 4250 1301 3770 
Q 1056 3291 1056 2328 
Q 1056 1369 1301 889 
Q 1547 409 2034 409 
Q 2525 409 2770 889 
Q 3016 1369 3016 2328 
Q 3016 3291 2770 3770 
Q 2525 4250 2034 4250 
z
M 2034 4750 
Q 2819 4750 3233 4129 
Q 3647 3509 3647 2328 
Q 3647 1150 3233 529 
Q 2819 -91 2034 -91 
Q 1250 -91 836 529 
Q 422 1150 422 2328 
Q 422 3509 836 4129 
Q 1250 4750 2034 4750 
z
" transform="scale(0.015625)"/>
       </defs>
       <use xlink:href="#DejaVuSans-36"/>
       <use xlink:href="#DejaVuSans-30" x="63.623047"/>
       <use xlink:href="#DejaVuSans-39" x="127.246094"/>
       <use xlink:href="#DejaVuSans-39" x="190.869141"/>
       <use xlink:href="#DejaVuSans-34" x="254.492188"/>
      </g>
     </g>
    </g>
    <g id="xtick_4">
     <g id="line2d_7">
      <path d="M 178.772727 384.48 
L 178.772727 51.84 
" clip-path="url(#p15d1787ff3)" style="fill: none; stroke: #ffffff; stroke-width: 0.8; stroke-linecap: square"/>
     </g>
     <g id="line2d_8">
      <g>
       <use xlink:href="#m4ea7c8b5f7" x="178.772727" y="384.48" style="fill: #ffffff; stroke: #ffffff; stroke-width: 0.8"/>
      </g>
     </g>
     <g id="text_4">
      <!-- 63897 -->
      <g style="fill: #ffffff" transform="translate(169.476483 419.347741) rotate(-45) scale(0.1 -0.1)">
       <defs>
        <path id="DejaVuSans-37" d="M 525 4666 
L 3525 4666 
L 3525 4397 
L 1831 0 
L 1172 0 
L 2766 4134 
L 525 4134 
L 525 4666 
z
" transform="scale(0.015625)"/>
       </defs>
       <use xlink:href="#DejaVuSans-36"/>
       <use xlink:href="#DejaVuSans-33" x="63.623047"/>
       <use xlink:href="#DejaVuSans-38" x="127.246094"/>
       <use xlink:href="#DejaVuSans-39" x="190.869141"/>
       <use xlink:href="#DejaVuSans-37" x="254.492188"/>
      </g>
     </g>
    </g>
    <g id="xtick_5">
     <g id="line2d_9">
      <path d="M 199.909091 384.48 
L 199.909091 51.84 
" clip-path="url(#p15d1787ff3)" style="fill: none; stroke: #ffffff; stroke-width: 0.8; stroke-linecap: square"/>
     </g>
     <g id="line2d_10">
      <g>
       <use xlink:href="#m4ea7c8b5f7" x="199.909091" y="384.48" style="fill: #ffffff; stroke: #ffffff; stroke-width: 0.8"/>
      </g>
     </g>
     <g id="text_5">
      <!-- 67092 -->
      <g style="fill: #ffffff" transform="translate(190.612846 419.347741) rotate(-45) scale(0.1 -0.1)">
       <use xlink:href="#DejaVuSans-36"/>
       <use xlink:href="#DejaVuSans-37" x="63.623047"/>
       <use xlink:href="#DejaVuSans-30" x="127.246094"/>
       <use xlink:href="#DejaVuSans-39" x="190.869141"/>
       <use xlink:href="#DejaVuSans-32" x="254.492188"/>
      </g>
     </g>
    </g>
    <g id="xtick_6">
     <g id="line2d_11">
      <path d="M 221.045455 384.48 
L 221.045455 51.84 
" clip-path="url(#p15d1787ff3)" style="fill: none; stroke: #ffffff; stroke-width: 0.8; stroke-linecap: square"/>
     </g>
     <g id="line2d_12">
      <g>
       <use xlink:href="#m4ea7c8b5f7" x="221.045455" y="384.48" style="fill: #ffffff; stroke: #ffffff; stroke-width: 0.8"/>
      </g>
     </g>
     <g id="text_6">
      <!-- 70622 -->
      <g style="fill: #ffffff" transform="translate(211.74921 419.347741) rotate(-45) scale(0.1 -0.1)">
       <use xlink:href="#DejaVuSans-37"/>
       <use xlink:href="#DejaVuSans-30" x="63.623047"/>
       <use xlink:href="#DejaVuSans-36" x="127.246094"/>
       <use xlink:href="#DejaVuSans-32" x="190.869141"/>
       <use xlink:href="#DejaVuSans-32" x="254.492188"/>
      </g>
     </g>
    </g>
    <g id="xtick_7">
     <g id="line2d_13">
      <path d="M 242.181818 384.48 
L 242.181818 51.84 
" clip-path="url(#p15d1787ff3)" style="fill: none; stroke: #ffffff; stroke-width: 0.8; stroke-linecap: square"/>
     </g>
     <g id="line2d_14">
      <g>
       <use xlink:href="#m4ea7c8b5f7" x="242.181818" y="384.48" style="fill: #ffffff; stroke: #ffffff; stroke-width: 0.8"/>
      </g>
     </g>
     <g id="text_7">
      <!-- 74544 -->
      <g style="fill: #ffffff" transform="translate(232.885574 419.347741) rotate(-45) scale(0.1 -0.1)">
       <use xlink:href="#DejaVuSans-37"/>
       <use xlink:href="#DejaVuSans-34" x="63.623047"/>
       <use xlink:href="#DejaVuSans-35" x="127.246094"/>
       <use xlink:href="#DejaVuSans-34" x="190.869141"/>
       <use xlink:href="#DejaVuSans-34" x="254.492188"/>
      </g>
     </g>
    </g>
    <g id="xtick_8">
     <g id="line2d_15">
      <path d="M 263.318182 384.48 
L 263.318182 51.84 
" clip-path="url(#p15d1787ff3)" style="fill: none; stroke: #ffffff; stroke-width: 0.8; stroke-linecap: square"/>
     </g>
     <g id="line2d_16">
      <g>
       <use xlink:href="#m4ea7c8b5f7" x="263.318182" y="384.48" style="fill: #ffffff; stroke: #ffffff; stroke-width: 0.8"/>
      </g>
     </g>
     <g id="text_8">
      <!-- 78928 -->
      <g style="fill: #ffffff" transform="translate(254.021937 419.347741) rotate(-45) scale(0.1 -0.1)">
       <use xlink:href="#DejaVuSans-37"/>
       <use xlink:href="#DejaVuSans-38" x="63.623047"/>
       <use xlink:href="#DejaVuSans-39" x="127.246094"/>
       <use xlink:href="#DejaVuSans-32" x="190.869141"/>
       <use xlink:href="#DejaVuSans-38" x="254.492188"/>
      </g>
     </g>
    </g>
    <g id="xtick_9">
     <g id="line2d_17">
      <path d="M 284.454545 384.48 
L 284.454545 51.84 
" clip-path="url(#p15d1787ff3)" style="fill: none; stroke: #ffffff; stroke-width: 0.8; stroke-linecap: square"/>
     </g>
     <g id="line2d_18">
      <g>
       <use xlink:href="#m4ea7c8b5f7" x="284.454545" y="384.48" style="fill: #ffffff; stroke: #ffffff; stroke-width: 0.8"/>
      </g>
     </g>
     <g id="text_9">
      <!-- 83859 -->
      <g style="fill: #ffffff" transform="translate(275.158301 419.347741) rotate(-45) scale(0.1 -0.1)">
       <use xlink:href="#DejaVuSans-38"/>
       <use xlink:href="#DejaVuSans-33" x="63.623047"/>
       <use xlink:href="#DejaVuSans-38" x="127.246094"/>
       <use xlink:href="#DejaVuSans-35" x="190.869141"/>
       <use xlink:href="#DejaVuSans-39" x="254.492188"/>
      </g>
     </g>
    </g>
    <g id="xtick_10">
     <g id="line2d_19">
      <path d="M 305.590909 384.48 
L 305.590909 51.84 
" clip-path="url(#p15d1787ff3)" style="fill: none; stroke: #ffffff; stroke-width: 0.8; stroke-linecap: square"/>
     </g>
     <g id="line2d_20">
      <g>
       <use xlink:href="#m4ea7c8b5f7" x="305.590909" y="384.48" style="fill: #ffffff; stroke: #ffffff; stroke-width: 0.8"/>
      </g>
     </g>
     <g id="text_10">
      <!-- 89448 -->
      <g style="fill: #ffffff" transform="translate(296.294665 419.347741) rotate(-45) scale(0.1 -0.1)">
       <use xlink:href="#DejaVuSans-38"/>
       <use xlink:href="#DejaVuSans-39" x="63.623047"/>
       <use xlink:href="#DejaVuSans-34" x="127.246094"/>
       <use xlink:href="#DejaVuSans-34" x="190.869141"/>
       <use xlink:href="#DejaVuSans-38" x="254.492188"/>
      </g>
     </g>
    </g>
    <g id="xtick_11">
     <g id="line2d_21">
      <path d="M 326.727273 384.48 
L 326.727273 51.84 
" clip-path="url(#p15d1787ff3)" style="fill: none; stroke: #ffffff; stroke-width: 0.8; stroke-linecap: square"/>
     </g>
     <g id="line2d_22">
      <g>
       <use xlink:href="#m4ea7c8b5f7" x="326.727273" y="384.48" style="fill: #ffffff; stroke: #ffffff; stroke-width: 0.8"/>
      </g>
     </g>
     <g id="text_11">
      <!-- 95835 -->
      <g style="fill: #ffffff" transform="translate(317.431028 419.347741) rotate(-45) scale(0.1 -0.1)">
       <use xlink:href="#DejaVuSans-39"/>
       <use xlink:href="#DejaVuSans-35" x="63.623047"/>
       <use xlink:href="#DejaVuSans-38" x="127.246094"/>
       <use xlink:href="#DejaVuSans-33" x="190.869141"/>
       <use xlink:href="#DejaVuSans-35" x="254.492188"/>
      </g>
     </g>
    </g>
    <g id="xtick_12">
     <g id="line2d_23">
      <path d="M 347.863636 384.48 
L 347.863636 51.84 
" clip-path="url(#p15d1787ff3)" style="fill: none; stroke: #ffffff; stroke-width: 0.8; stroke-linecap: square"/>
     </g>
     <g id="line2d_24">
      <g>
       <use xlink:href="#m4ea7c8b5f7" x="347.863636" y="384.48" style="fill: #ffffff; stroke: #ffffff; stroke-width: 0.8"/>
      </g>
     </g>
     <g id="text_12">
      <!-- 103204 -->
      <g style="fill: #ffffff" transform="translate(336.317908 423.846708) rotate(-45) scale(0.1 -0.1)">
       <use xlink:href="#DejaVuSans-31"/>
       <use xlink:href="#DejaVuSans-30" x="63.623047"/>
       <use xlink:href="#DejaVuSans-33" x="127.246094"/>
       <use xlink:href="#DejaVuSans-32" x="190.869141"/>
       <use xlink:href="#DejaVuSans-30" x="254.492188"/>
       <use xlink:href="#DejaVuSans-34" x="318.115234"/>
      </g>
     </g>
    </g>
    <g id="xtick_13">
     <g id="line2d_25">
      <path d="M 369 384.48 
L 369 51.84 
" clip-path="url(#p15d1787ff3)" style="fill: none; stroke: #ffffff; stroke-width: 0.8; stroke-linecap: square"/>
     </g>
     <g id="line2d_26">
      <g>
       <use xlink:href="#m4ea7c8b5f7" x="369" y="384.48" style="fill: #ffffff; stroke: #ffffff; stroke-width: 0.8"/>
      </g>
     </g>
     <g id="text_13">
      <!-- 111801 -->
      <g style="fill: #ffffff" transform="translate(357.454272 423.846708) rotate(-45) scale(0.1 -0.1)">
       <use xlink:href="#DejaVuSans-31"/>
       <use xlink:href="#DejaVuSans-31" x="63.623047"/>
       <use xlink:href="#DejaVuSans-31" x="127.246094"/>
       <use xlink:href="#DejaVuSans-38" x="190.869141"/>
       <use xlink:href="#DejaVuSans-30" x="254.492188"/>
       <use xlink:href="#DejaVuSans-31" x="318.115234"/>
      </g>
     </g>
    </g>
    <g id="xtick_14">
     <g id="line2d_27">
      <path d="M 390.136364 384.48 
L 390.136364 51.84 
" clip-path="url(#p15d1787ff3)" style="fill: none; stroke: #ffffff; stroke-width: 0.8; stroke-linecap: square"/>
     </g>
     <g id="line2d_28">
      <g>
       <use xlink:href="#m4ea7c8b5f7" x="390.136364" y="384.48" style="fill: #ffffff; stroke: #ffffff; stroke-width: 0.8"/>
      </g>
     </g>
     <g id="text_14">
      <!-- 121960 -->
      <g style="fill: #ffffff" transform="translate(378.590636 423.846708) rotate(-45) scale(0.1 -0.1)">
       <use xlink:href="#DejaVuSans-31"/>
       <use xlink:href="#DejaVuSans-32" x="63.623047"/>
       <use xlink:href="#DejaVuSans-31" x="127.246094"/>
       <use xlink:href="#DejaVuSans-39" x="190.869141"/>
       <use xlink:href="#DejaVuSans-36" x="254.492188"/>
       <use xlink:href="#DejaVuSans-30" x="318.115234"/>
      </g>
     </g>
    </g>
    <g id="xtick_15">
     <g id="line2d_29">
      <path d="M 411.272727 384.48 
L 411.272727 51.84 
" clip-path="url(#p15d1787ff3)" style="fill: none; stroke: #ffffff; stroke-width: 0.8; stroke-linecap: square"/>
     </g>
     <g id="line2d_30">
      <g>
       <use xlink:href="#m4ea7c8b5f7" x="411.272727" y="384.48" style="fill: #ffffff; stroke: #ffffff; stroke-width: 0.8"/>
      </g>
     </g>
     <g id="text_15">
      <!-- 134150 -->
      <g style="fill: #ffffff" transform="translate(399.726999 423.846708) rotate(-45) scale(0.1 -0.1)">
       <use xlink:href="#DejaVuSans-31"/>
       <use xlink:href="#DejaVuSans-33" x="63.623047"/>
       <use xlink:href="#DejaVuSans-34" x="127.246094"/>
       <use xlink:href="#DejaVuSans-31" x="190.869141"/>
       <use xlink:href="#DejaVuSans-35" x="254.492188"/>
       <use xlink:href="#DejaVuSans-30" x="318.115234"/>
      </g>
     </g>
    </g>
    <g id="xtick_16">
     <g id="line2d_31">
      <path d="M 432.409091 384.48 
L 432.409091 51.84 
" clip-path="url(#p15d1787ff3)" style="fill: none; stroke: #ffffff; stroke-width: 0.8; stroke-linecap: square"/>
     </g>
     <g id="line2d_32">
      <g>
       <use xlink:href="#m4ea7c8b5f7" x="432.409091" y="384.48" style="fill: #ffffff; stroke: #ffffff; stroke-width: 0.8"/>
      </g>
     </g>
     <g id="text_16">
      <!-- 149048 -->
      <g style="fill: #ffffff" transform="translate(420.863363 423.846708) rotate(-45) scale(0.1 -0.1)">
       <use xlink:href="#DejaVuSans-31"/>
       <use xlink:href="#DejaVuSans-34" x="63.623047"/>
       <use xlink:href="#DejaVuSans-39" x="127.246094"/>
       <use xlink:href="#DejaVuSans-30" x="190.869141"/>
       <use xlink:href="#DejaVuSans-34" x="254.492188"/>
       <use xlink:href="#DejaVuSans-38" x="318.115234"/>
      </g>
     </g>
    </g>
    <g id="xtick_17">
     <g id="line2d_33">
      <path d="M 453.545455 384.48 
L 453.545455 51.84 
" clip-path="url(#p15d1787ff3)" style="fill: none; stroke: #ffffff; stroke-width: 0.8; stroke-linecap: square"/>
     </g>
     <g id="line2d_34">
      <g>
       <use xlink:href="#m4ea7c8b5f7" x="453.545455" y="384.48" style="fill: #ffffff; stroke: #ffffff; stroke-width: 0.8"/>
      </g>
     </g>
     <g id="text_17">
      <!-- 167667 -->
      <g style="fill: #ffffff" transform="translate(441.999727 423.846708) rotate(-45) scale(0.1 -0.1)">
       <use xlink:href="#DejaVuSans-31"/>
       <use xlink:href="#DejaVuSans-36" x="63.623047"/>
       <use xlink:href="#DejaVuSans-37" x="127.246094"/>
       <use xlink:href="#DejaVuSans-36" x="190.869141"/>
       <use xlink:href="#DejaVuSans-36" x="254.492188"/>
       <use xlink:href="#DejaVuSans-37" x="318.115234"/>
      </g>
     </g>
    </g>
    <g id="xtick_18">
     <g id="line2d_35">
      <path d="M 474.681818 384.48 
L 474.681818 51.84 
" clip-path="url(#p15d1787ff3)" style="fill: none; stroke: #ffffff; stroke-width: 0.8; stroke-linecap: square"/>
     </g>
     <g id="line2d_36">
      <g>
       <use xlink:href="#m4ea7c8b5f7" x="474.681818" y="384.48" style="fill: #ffffff; stroke: #ffffff; stroke-width: 0.8"/>
      </g>
     </g>
     <g id="text_18">
      <!-- 191602 -->
      <g style="fill: #ffffff" transform="translate(463.13609 423.846708) rotate(-45) scale(0.1 -0.1)">
       <use xlink:href="#DejaVuSans-31"/>
       <use xlink:href="#DejaVuSans-39" x="63.623047"/>
       <use xlink:href="#DejaVuSans-31" x="127.246094"/>
       <use xlink:href="#DejaVuSans-36" x="190.869141"/>
       <use xlink:href="#DejaVuSans-30" x="254.492188"/>
       <use xlink:href="#DejaVuSans-32" x="318.115234"/>
      </g>
     </g>
    </g>
    <g id="xtick_19">
     <g id="line2d_37">
      <path d="M 495.818182 384.48 
L 495.818182 51.84 
" clip-path="url(#p15d1787ff3)" style="fill: none; stroke: #ffffff; stroke-width: 0.8; stroke-linecap: square"/>
     </g>
     <g id="line2d_38">
      <g>
       <use xlink:href="#m4ea7c8b5f7" x="495.818182" y="384.48" style="fill: #ffffff; stroke: #ffffff; stroke-width: 0.8"/>
      </g>
     </g>
     <g id="text_19">
      <!-- 223509 -->
      <g style="fill: #ffffff" transform="translate(484.272454 423.846708) rotate(-45) scale(0.1 -0.1)">
       <use xlink:href="#DejaVuSans-32"/>
       <use xlink:href="#DejaVuSans-32" x="63.623047"/>
       <use xlink:href="#DejaVuSans-33" x="127.246094"/>
       <use xlink:href="#DejaVuSans-35" x="190.869141"/>
       <use xlink:href="#DejaVuSans-30" x="254.492188"/>
       <use xlink:href="#DejaVuSans-39" x="318.115234"/>
      </g>
     </g>
    </g>
    <g id="xtick_20">
     <g id="line2d_39">
      <path d="M 516.954545 384.48 
L 516.954545 51.84 
" clip-path="url(#p15d1787ff3)" style="fill: none; stroke: #ffffff; stroke-width: 0.8; stroke-linecap: square"/>
     </g>
     <g id="line2d_40">
      <g>
       <use xlink:href="#m4ea7c8b5f7" x="516.954545" y="384.48" style="fill: #ffffff; stroke: #ffffff; stroke-width: 0.8"/>
      </g>
     </g>
     <g id="text_20">
      <!-- 268167 -->
      <g style="fill: #ffffff" transform="translate(505.408818 423.846708) rotate(-45) scale(0.1 -0.1)">
       <use xlink:href="#DejaVuSans-32"/>
       <use xlink:href="#DejaVuSans-36" x="63.623047"/>
       <use xlink:href="#DejaVuSans-38" x="127.246094"/>
       <use xlink:href="#DejaVuSans-31" x="190.869141"/>
       <use xlink:href="#DejaVuSans-36" x="254.492188"/>
       <use xlink:href="#DejaVuSans-37" x="318.115234"/>
      </g>
     </g>
    </g>
    <g id="xtick_21">
     <g id="line2d_41">
      <path d="M 538.090909 384.48 
L 538.090909 51.84 
" clip-path="url(#p15d1787ff3)" style="fill: none; stroke: #ffffff; stroke-width: 0.8; stroke-linecap: square"/>
     </g>
     <g id="line2d_42">
      <g>
       <use xlink:href="#m4ea7c8b5f7" x="538.090909" y="384.48" style="fill: #ffffff; stroke: #ffffff; stroke-width: 0.8"/>
      </g>
     </g>
     <g id="text_21">
      <!-- 335125 -->
      <g style="fill: #ffffff" transform="translate(526.545181 423.846708) rotate(-45) scale(0.1 -0.1)">
       <use xlink:href="#DejaVuSans-33"/>
       <use xlink:href="#DejaVuSans-33" x="63.623047"/>
       <use xlink:href="#DejaVuSans-35" x="127.246094"/>
       <use xlink:href="#DejaVuSans-31" x="190.869141"/>
       <use xlink:href="#DejaVuSans-32" x="254.492188"/>
       <use xlink:href="#DejaVuSans-35" x="318.115234"/>
      </g>
     </g>
    </g>
    <g id="xtick_22">
     <g id="line2d_43">
      <path d="M 559.227273 384.48 
L 559.227273 51.84 
" clip-path="url(#p15d1787ff3)" style="fill: none; stroke: #ffffff; stroke-width: 0.8; stroke-linecap: square"/>
     </g>
     <g id="line2d_44">
      <g>
       <use xlink:href="#m4ea7c8b5f7" x="559.227273" y="384.48" style="fill: #ffffff; stroke: #ffffff; stroke-width: 0.8"/>
      </g>
     </g>
     <g id="text_22">
      <!-- 446648 -->
      <g style="fill: #ffffff" transform="translate(547.681545 423.846708) rotate(-45) scale(0.1 -0.1)">
       <use xlink:href="#DejaVuSans-34"/>
       <use xlink:href="#DejaVuSans-34" x="63.623047"/>
       <use xlink:href="#DejaVuSans-36" x="127.246094"/>
       <use xlink:href="#DejaVuSans-36" x="190.869141"/>
       <use xlink:href="#DejaVuSans-34" x="254.492188"/>
       <use xlink:href="#DejaVuSans-38" x="318.115234"/>
      </g>
     </g>
    </g>
    <g id="xtick_23">
     <g id="line2d_45">
      <path d="M 580.363636 384.48 
L 580.363636 51.84 
" clip-path="url(#p15d1787ff3)" style="fill: none; stroke: #ffffff; stroke-width: 0.8; stroke-linecap: square"/>
     </g>
     <g id="line2d_46">
      <g>
       <use xlink:href="#m4ea7c8b5f7" x="580.363636" y="384.48" style="fill: #ffffff; stroke: #ffffff; stroke-width: 0.8"/>
      </g>
     </g>
     <g id="text_23">
      <!-- 669415 -->
      <g style="fill: #ffffff" transform="translate(568.817908 423.846708) rotate(-45) scale(0.1 -0.1)">
       <use xlink:href="#DejaVuSans-36"/>
       <use xlink:href="#DejaVuSans-36" x="63.623047"/>
       <use xlink:href="#DejaVuSans-39" x="127.246094"/>
       <use xlink:href="#DejaVuSans-34" x="190.869141"/>
       <use xlink:href="#DejaVuSans-31" x="254.492188"/>
       <use xlink:href="#DejaVuSans-35" x="318.115234"/>
      </g>
     </g>
    </g>
    <g id="xtick_24">
     <g id="line2d_47">
      <path d="M 601.5 384.48 
L 601.5 51.84 
" clip-path="url(#p15d1787ff3)" style="fill: none; stroke: #ffffff; stroke-width: 0.8; stroke-linecap: square"/>
     </g>
     <g id="line2d_48">
      <g>
       <use xlink:href="#m4ea7c8b5f7" x="601.5" y="384.48" style="fill: #ffffff; stroke: #ffffff; stroke-width: 0.8"/>
      </g>
     </g>
     <g id="text_24">
      <!-- 1335499 -->
      <g style="fill: #ffffff" transform="translate(587.704789 428.345675) rotate(-45) scale(0.1 -0.1)">
       <use xlink:href="#DejaVuSans-31"/>
       <use xlink:href="#DejaVuSans-33" x="63.623047"/>
       <use xlink:href="#DejaVuSans-33" x="127.246094"/>
       <use xlink:href="#DejaVuSans-35" x="190.869141"/>
       <use xlink:href="#DejaVuSans-34" x="254.492188"/>
       <use xlink:href="#DejaVuSans-39" x="318.115234"/>
       <use xlink:href="#DejaVuSans-39" x="381.738281"/>
      </g>
     </g>
    </g>
    <g id="xtick_25">
     <g id="line2d_49">
      <path d="M 622.636364 384.48 
L 622.636364 51.84 
" clip-path="url(#p15d1787ff3)" style="fill: none; stroke: #ffffff; stroke-width: 0.8; stroke-linecap: square"/>
     </g>
     <g id="line2d_50">
      <g>
       <use xlink:href="#m4ea7c8b5f7" x="622.636364" y="384.48" style="fill: #ffffff; stroke: #ffffff; stroke-width: 0.8"/>
      </g>
     </g>
     <g id="text_25">
      <!-- 268435456 -->
      <g style="fill: #ffffff" transform="translate(604.342185 437.343609) rotate(-45) scale(0.1 -0.1)">
       <use xlink:href="#DejaVuSans-32"/>
       <use xlink:href="#DejaVuSans-36" x="63.623047"/>
       <use xlink:href="#DejaVuSans-38" x="127.246094"/>
       <use xlink:href="#DejaVuSans-34" x="190.869141"/>
       <use xlink:href="#DejaVuSans-33" x="254.492188"/>
       <use xlink:href="#DejaVuSans-35" x="318.115234"/>
       <use xlink:href="#DejaVuSans-34" x="381.738281"/>
       <use xlink:href="#DejaVuSans-35" x="445.361328"/>
       <use xlink:href="#DejaVuSans-36" x="508.984375"/>
      </g>
     </g>
    </g>
    <g id="text_26">
     <!-- chunk_size -->
     <g style="fill: #ffffff" transform="translate(341.654688 450.412607) scale(0.1 -0.1)">
      <defs>
       <path id="DejaVuSans-63" d="M 3122 3366 
L 3122 2828 
Q 2878 2963 2633 3030 
Q 2388 3097 2138 3097 
Q 1578 3097 1268 2742 
Q 959 2388 959 1747 
Q 959 1106 1268 751 
Q 1578 397 2138 397 
Q 2388 397 2633 464 
Q 2878 531 3122 666 
L 3122 134 
Q 2881 22 2623 -34 
Q 2366 -91 2075 -91 
Q 1284 -91 818 406 
Q 353 903 353 1747 
Q 353 2603 823 3093 
Q 1294 3584 2113 3584 
Q 2378 3584 2631 3529 
Q 2884 3475 3122 3366 
z
" transform="scale(0.015625)"/>
       <path id="DejaVuSans-68" d="M 3513 2113 
L 3513 0 
L 2938 0 
L 2938 2094 
Q 2938 2591 2744 2837 
Q 2550 3084 2163 3084 
Q 1697 3084 1428 2787 
Q 1159 2491 1159 1978 
L 1159 0 
L 581 0 
L 581 4863 
L 1159 4863 
L 1159 2956 
Q 1366 3272 1645 3428 
Q 1925 3584 2291 3584 
Q 2894 3584 3203 3211 
Q 3513 2838 3513 2113 
z
" transform="scale(0.015625)"/>
       <path id="DejaVuSans-75" d="M 544 1381 
L 544 3500 
L 1119 3500 
L 1119 1403 
Q 1119 906 1312 657 
Q 1506 409 1894 409 
Q 2359 409 2629 706 
Q 2900 1003 2900 1516 
L 2900 3500 
L 3475 3500 
L 3475 0 
L 2900 0 
L 2900 538 
Q 2691 219 2414 64 
Q 2138 -91 1772 -91 
Q 1169 -91 856 284 
Q 544 659 544 1381 
z
M 1991 3584 
L 1991 3584 
z
" transform="scale(0.015625)"/>
       <path id="DejaVuSans-6e" d="M 3513 2113 
L 3513 0 
L 2938 0 
L 2938 2094 
Q 2938 2591 2744 2837 
Q 2550 3084 2163 3084 
Q 1697 3084 1428 2787 
Q 1159 2491 1159 1978 
L 1159 0 
L 581 0 
L 581 3500 
L 1159 3500 
L 1159 2956 
Q 1366 3272 1645 3428 
Q 1925 3584 2291 3584 
Q 2894 3584 3203 3211 
Q 3513 2838 3513 2113 
z
" transform="scale(0.015625)"/>
       <path id="DejaVuSans-6b" d="M 581 4863 
L 1159 4863 
L 1159 1991 
L 2875 3500 
L 3609 3500 
L 1753 1863 
L 3688 0 
L 2938 0 
L 1159 1709 
L 1159 0 
L 581 0 
L 581 4863 
z
" transform="scale(0.015625)"/>
       <path id="DejaVuSans-5f" d="M 3263 -1063 
L 3263 -1509 
L -63 -1509 
L -63 -1063 
L 3263 -1063 
z
" transform="scale(0.015625)"/>
       <path id="DejaVuSans-73" d="M 2834 3397 
L 2834 2853 
Q 2591 2978 2328 3040 
Q 2066 3103 1784 3103 
Q 1356 3103 1142 2972 
Q 928 2841 928 2578 
Q 928 2378 1081 2264 
Q 1234 2150 1697 2047 
L 1894 2003 
Q 2506 1872 2764 1633 
Q 3022 1394 3022 966 
Q 3022 478 2636 193 
Q 2250 -91 1575 -91 
Q 1294 -91 989 -36 
Q 684 19 347 128 
L 347 722 
Q 666 556 975 473 
Q 1284 391 1588 391 
Q 1994 391 2212 530 
Q 2431 669 2431 922 
Q 2431 1156 2273 1281 
Q 2116 1406 1581 1522 
L 1381 1569 
Q 847 1681 609 1914 
Q 372 2147 372 2553 
Q 372 3047 722 3315 
Q 1072 3584 1716 3584 
Q 2034 3584 2315 3537 
Q 2597 3491 2834 3397 
z
" transform="scale(0.015625)"/>
       <path id="DejaVuSans-69" d="M 603 3500 
L 1178 3500 
L 1178 0 
L 603 0 
L 603 3500 
z
M 603 4863 
L 1178 4863 
L 1178 4134 
L 603 4134 
L 603 4863 
z
" transform="scale(0.015625)"/>
       <path id="DejaVuSans-7a" d="M 353 3500 
L 3084 3500 
L 3084 2975 
L 922 459 
L 3084 459 
L 3084 0 
L 275 0 
L 275 525 
L 2438 3041 
L 353 3041 
L 353 3500 
z
" transform="scale(0.015625)"/>
       <path id="DejaVuSans-65" d="M 3597 1894 
L 3597 1613 
L 953 1613 
Q 991 1019 1311 708 
Q 1631 397 2203 397 
Q 2534 397 2845 478 
Q 3156 559 3463 722 
L 3463 178 
Q 3153 47 2828 -22 
Q 2503 -91 2169 -91 
Q 1331 -91 842 396 
Q 353 884 353 1716 
Q 353 2575 817 3079 
Q 1281 3584 2069 3584 
Q 2775 3584 3186 3129 
Q 3597 2675 3597 1894 
z
M 3022 2063 
Q 3016 2534 2758 2815 
Q 2500 3097 2075 3097 
Q 1594 3097 1305 2825 
Q 1016 2553 972 2059 
L 3022 2063 
z
" transform="scale(0.015625)"/>
      </defs>
      <use xlink:href="#DejaVuSans-63"/>
      <use xlink:href="#DejaVuSans-68" x="54.980469"/>
      <use xlink:href="#DejaVuSans-75" x="118.359375"/>
      <use xlink:href="#DejaVuSans-6e" x="181.738281"/>
      <use xlink:href="#DejaVuSans-6b" x="245.117188"/>
      <use xlink:href="#DejaVuSans-5f" x="303.027344"/>
      <use xlink:href="#DejaVuSans-73" x="353.027344"/>
      <use xlink:href="#DejaVuSans-69" x="405.126953"/>
      <use xlink:href="#DejaVuSans-7a" x="432.910156"/>
      <use xlink:href="#DejaVuSans-65" x="485.400391"/>
     </g>
    </g>
   </g>
   <g id="matplotlib.axis_2">
    <g id="ytick_1">
     <g id="line2d_51">
      <path d="M 90 344.860155 
L 648 344.860155 
" clip-path="url(#p15d1787ff3)" style="fill: none; stroke: #ffffff; stroke-width: 0.8; stroke-linecap: square"/>
     </g>
     <g id="line2d_52">
      <defs>
       <path id="m2ff1887f39" d="M 0 0 
L -3.5 0 
" style="stroke: #ffffff; stroke-width: 0.8"/>
      </defs>
      <g>
       <use xlink:href="#m2ff1887f39" x="90" y="344.860155" style="fill: #ffffff; stroke: #ffffff; stroke-width: 0.8"/>
      </g>
     </g>
     <g id="text_27">
      <!-- 75 -->
      <g style="fill: #ffffff" transform="translate(70.275 348.659373) scale(0.1 -0.1)">
       <use xlink:href="#DejaVuSans-37"/>
       <use xlink:href="#DejaVuSans-35" x="63.623047"/>
      </g>
     </g>
    </g>
    <g id="ytick_2">
     <g id="line2d_53">
      <path d="M 90 304.762575 
L 648 304.762575 
" clip-path="url(#p15d1787ff3)" style="fill: none; stroke: #ffffff; stroke-width: 0.8; stroke-linecap: square"/>
     </g>
     <g id="line2d_54">
      <g>
       <use xlink:href="#m2ff1887f39" x="90" y="304.762575" style="fill: #ffffff; stroke: #ffffff; stroke-width: 0.8"/>
      </g>
     </g>
     <g id="text_28">
      <!-- 100 -->
      <g style="fill: #ffffff" transform="translate(63.9125 308.561794) scale(0.1 -0.1)">
       <use xlink:href="#DejaVuSans-31"/>
       <use xlink:href="#DejaVuSans-30" x="63.623047"/>
       <use xlink:href="#DejaVuSans-30" x="127.246094"/>
      </g>
     </g>
    </g>
    <g id="ytick_3">
     <g id="line2d_55">
      <path d="M 90 264.664995 
L 648 264.664995 
" clip-path="url(#p15d1787ff3)" style="fill: none; stroke: #ffffff; stroke-width: 0.8; stroke-linecap: square"/>
     </g>
     <g id="line2d_56">
      <g>
       <use xlink:href="#m2ff1887f39" x="90" y="264.664995" style="fill: #ffffff; stroke: #ffffff; stroke-width: 0.8"/>
      </g>
     </g>
     <g id="text_29">
      <!-- 125 -->
      <g style="fill: #ffffff" transform="translate(63.9125 268.464214) scale(0.1 -0.1)">
       <use xlink:href="#DejaVuSans-31"/>
       <use xlink:href="#DejaVuSans-32" x="63.623047"/>
       <use xlink:href="#DejaVuSans-35" x="127.246094"/>
      </g>
     </g>
    </g>
    <g id="ytick_4">
     <g id="line2d_57">
      <path d="M 90 224.567416 
L 648 224.567416 
" clip-path="url(#p15d1787ff3)" style="fill: none; stroke: #ffffff; stroke-width: 0.8; stroke-linecap: square"/>
     </g>
     <g id="line2d_58">
      <g>
       <use xlink:href="#m2ff1887f39" x="90" y="224.567416" style="fill: #ffffff; stroke: #ffffff; stroke-width: 0.8"/>
      </g>
     </g>
     <g id="text_30">
      <!-- 150 -->
      <g style="fill: #ffffff" transform="translate(63.9125 228.366635) scale(0.1 -0.1)">
       <use xlink:href="#DejaVuSans-31"/>
       <use xlink:href="#DejaVuSans-35" x="63.623047"/>
       <use xlink:href="#DejaVuSans-30" x="127.246094"/>
      </g>
     </g>
    </g>
    <g id="ytick_5">
     <g id="line2d_59">
      <path d="M 90 184.469836 
L 648 184.469836 
" clip-path="url(#p15d1787ff3)" style="fill: none; stroke: #ffffff; stroke-width: 0.8; stroke-linecap: square"/>
     </g>
     <g id="line2d_60">
      <g>
       <use xlink:href="#m2ff1887f39" x="90" y="184.469836" style="fill: #ffffff; stroke: #ffffff; stroke-width: 0.8"/>
      </g>
     </g>
     <g id="text_31">
      <!-- 175 -->
      <g style="fill: #ffffff" transform="translate(63.9125 188.269055) scale(0.1 -0.1)">
       <use xlink:href="#DejaVuSans-31"/>
       <use xlink:href="#DejaVuSans-37" x="63.623047"/>
       <use xlink:href="#DejaVuSans-35" x="127.246094"/>
      </g>
     </g>
    </g>
    <g id="ytick_6">
     <g id="line2d_61">
      <path d="M 90 144.372257 
L 648 144.372257 
" clip-path="url(#p15d1787ff3)" style="fill: none; stroke: #ffffff; stroke-width: 0.8; stroke-linecap: square"/>
     </g>
     <g id="line2d_62">
      <g>
       <use xlink:href="#m2ff1887f39" x="90" y="144.372257" style="fill: #ffffff; stroke: #ffffff; stroke-width: 0.8"/>
      </g>
     </g>
     <g id="text_32">
      <!-- 200 -->
      <g style="fill: #ffffff" transform="translate(63.9125 148.171475) scale(0.1 -0.1)">
       <use xlink:href="#DejaVuSans-32"/>
       <use xlink:href="#DejaVuSans-30" x="63.623047"/>
       <use xlink:href="#DejaVuSans-30" x="127.246094"/>
      </g>
     </g>
    </g>
    <g id="ytick_7">
     <g id="line2d_63">
      <path d="M 90 104.274677 
L 648 104.274677 
" clip-path="url(#p15d1787ff3)" style="fill: none; stroke: #ffffff; stroke-width: 0.8; stroke-linecap: square"/>
     </g>
     <g id="line2d_64">
      <g>
       <use xlink:href="#m2ff1887f39" x="90" y="104.274677" style="fill: #ffffff; stroke: #ffffff; stroke-width: 0.8"/>
      </g>
     </g>
     <g id="text_33">
      <!-- 225 -->
      <g style="fill: #ffffff" transform="translate(63.9125 108.073896) scale(0.1 -0.1)">
       <use xlink:href="#DejaVuSans-32"/>
       <use xlink:href="#DejaVuSans-32" x="63.623047"/>
       <use xlink:href="#DejaVuSans-35" x="127.246094"/>
      </g>
     </g>
    </g>
    <g id="ytick_8">
     <g id="line2d_65">
      <path d="M 90 64.177098 
L 648 64.177098 
" clip-path="url(#p15d1787ff3)" style="fill: none; stroke: #ffffff; stroke-width: 0.8; stroke-linecap: square"/>
     </g>
     <g id="line2d_66">
      <g>
       <use xlink:href="#m2ff1887f39" x="90" y="64.177098" style="fill: #ffffff; stroke: #ffffff; stroke-width: 0.8"/>
      </g>
     </g>
     <g id="text_34">
      <!-- 250 -->
      <g style="fill: #ffffff" transform="translate(63.9125 67.976316) scale(0.1 -0.1)">
       <use xlink:href="#DejaVuSans-32"/>
       <use xlink:href="#DejaVuSans-35" x="63.623047"/>
       <use xlink:href="#DejaVuSans-30" x="127.246094"/>
      </g>
     </g>
    </g>
    <g id="text_35">
     <!-- time (ms) -->
     <g style="fill: #ffffff" transform="translate(57.832812 242.421719) rotate(-90) scale(0.1 -0.1)">
      <defs>
       <path id="DejaVuSans-74" d="M 1172 4494 
L 1172 3500 
L 2356 3500 
L 2356 3053 
L 1172 3053 
L 1172 1153 
Q 1172 725 1289 603 
Q 1406 481 1766 481 
L 2356 481 
L 2356 0 
L 1766 0 
Q 1100 0 847 248 
Q 594 497 594 1153 
L 594 3053 
L 172 3053 
L 172 3500 
L 594 3500 
L 594 4494 
L 1172 4494 
z
" transform="scale(0.015625)"/>
       <path id="DejaVuSans-6d" d="M 3328 2828 
Q 3544 3216 3844 3400 
Q 4144 3584 4550 3584 
Q 5097 3584 5394 3201 
Q 5691 2819 5691 2113 
L 5691 0 
L 5113 0 
L 5113 2094 
Q 5113 2597 4934 2840 
Q 4756 3084 4391 3084 
Q 3944 3084 3684 2787 
Q 3425 2491 3425 1978 
L 3425 0 
L 2847 0 
L 2847 2094 
Q 2847 2600 2669 2842 
Q 2491 3084 2119 3084 
Q 1678 3084 1418 2786 
Q 1159 2488 1159 1978 
L 1159 0 
L 581 0 
L 581 3500 
L 1159 3500 
L 1159 2956 
Q 1356 3278 1631 3431 
Q 1906 3584 2284 3584 
Q 2666 3584 2933 3390 
Q 3200 3197 3328 2828 
z
" transform="scale(0.015625)"/>
       <path id="DejaVuSans-20" transform="scale(0.015625)"/>
       <path id="DejaVuSans-28" d="M 1984 4856 
Q 1566 4138 1362 3434 
Q 1159 2731 1159 2009 
Q 1159 1288 1364 580 
Q 1569 -128 1984 -844 
L 1484 -844 
Q 1016 -109 783 600 
Q 550 1309 550 2009 
Q 550 2706 781 3412 
Q 1013 4119 1484 4856 
L 1984 4856 
z
" transform="scale(0.015625)"/>
       <path id="DejaVuSans-29" d="M 513 4856 
L 1013 4856 
Q 1481 4119 1714 3412 
Q 1947 2706 1947 2009 
Q 1947 1309 1714 600 
Q 1481 -109 1013 -844 
L 513 -844 
Q 928 -128 1133 580 
Q 1338 1288 1338 2009 
Q 1338 2731 1133 3434 
Q 928 4138 513 4856 
z
" transform="scale(0.015625)"/>
      </defs>
      <use xlink:href="#DejaVuSans-74"/>
      <use xlink:href="#DejaVuSans-69" x="39.208984"/>
      <use xlink:href="#DejaVuSans-6d" x="66.992188"/>
      <use xlink:href="#DejaVuSans-65" x="164.404297"/>
      <use xlink:href="#DejaVuSans-20" x="225.927734"/>
      <use xlink:href="#DejaVuSans-28" x="257.714844"/>
      <use xlink:href="#DejaVuSans-6d" x="296.728516"/>
      <use xlink:href="#DejaVuSans-73" x="394.140625"/>
      <use xlink:href="#DejaVuSans-29" x="446.240234"/>
     </g>
    </g>
   </g>
   <g id="line2d_67">
    <path d="M 115.363636 149.449717 
L 117.057368 142.542911 
L 118.7511 136.70304 
L 120.444832 131.861531 
L 122.138564 127.949813 
L 123.832296 124.899314 
L 125.526028 122.641462 
L 126.372894 121.78835 
L 127.21976 121.107686 
L 128.066626 120.590897 
L 128.913492 120.229413 
L 129.760358 120.014662 
L 130.607224 119.938073 
L 131.45409 119.991073 
L 133.147822 120.451559 
L 134.841554 121.327548 
L 136.535286 122.550468 
L 138.229018 124.051747 
L 140.769616 126.675589 
L 148.39141 135.064954 
L 150.085142 136.594742 
L 151.778874 137.854315 
L 153.472606 138.775102 
L 155.166338 139.288532 
L 156.013204 139.371059 
L 156.86007 139.326032 
L 157.706936 139.144881 
L 158.553802 138.823278 
L 160.247534 137.796892 
L 161.941266 136.336094 
L 163.634998 134.532681 
L 166.175596 131.385962 
L 172.950524 122.591798 
L 174.644256 120.798913 
L 176.337988 119.351883 
L 178.03172 118.342504 
L 178.878586 118.030613 
L 179.725452 117.857474 
L 180.572317 117.815478 
L 182.266049 118.08489 
L 183.959781 118.758791 
L 185.653513 119.757122 
L 187.347245 120.999827 
L 189.887843 123.146958 
L 194.122173 126.81323 
L 195.815905 128.076939 
L 197.509637 129.104676 
L 199.203369 129.816384 
L 200.897101 130.136614 
L 202.590833 130.063646 
L 204.284565 129.65506 
L 205.978297 128.970114 
L 207.672029 128.068065 
L 210.212627 126.437552 
L 216.140689 122.375325 
L 217.834421 121.415085 
L 219.528153 120.652551 
L 221.221885 120.146969 
L 222.915617 119.945309 
L 224.609349 120.058489 
L 226.303081 120.490849 
L 227.996813 121.246728 
L 229.690545 122.330466 
L 231.384277 123.746402 
L 233.078009 125.498875 
L 234.771741 127.592226 
L 236.465473 130.030793 
L 238.159205 132.818916 
L 239.852937 135.960934 
L 241.546669 139.461187 
L 244.087267 145.372877 
L 246.627865 151.902308 
L 256.790256 178.845427 
L 259.330854 184.447712 
L 261.024586 187.64948 
L 262.718318 190.332146 
L 264.41205 192.422838 
L 266.105782 193.930603 
L 267.799514 194.920352 
L 269.493246 195.458074 
L 271.186978 195.609756 
L 272.88071 195.441385 
L 274.574442 195.018951 
L 277.11504 194.053279 
L 283.889968 191.103003 
L 285.5837 190.634008 
L 287.277432 190.356811 
L 288.971164 190.264956 
L 290.664896 190.351535 
L 292.358628 190.60964 
L 294.05236 191.032364 
L 296.592958 191.960003 
L 299.133556 193.219182 
L 301.674154 194.786589 
L 304.214752 196.638912 
L 306.75535 198.752761 
L 310.142814 201.933349 
L 313.530278 205.466663 
L 317.764608 210.277408 
L 322.845804 216.455836 
L 335.548793 232.196987 
L 338.936257 235.890712 
L 341.476855 238.355331 
L 344.017453 240.492577 
L 346.558051 242.243619 
L 348.251783 243.167475 
L 349.945515 243.891829 
L 352.486113 244.671369 
L 355.026711 245.184611 
L 360.107907 245.871613 
L 363.495371 246.446809 
L 366.035969 247.13328 
L 367.729701 247.776198 
L 369.423433 248.60685 
L 371.117165 249.636658 
L 373.657763 251.482946 
L 377.045227 254.312673 
L 383.820155 260.119974 
L 386.360753 261.96563 
L 388.054485 262.994876 
L 389.748217 263.819851 
L 391.441949 264.40912 
L 393.135681 264.777532 
L 394.829413 264.962431 
L 397.370011 264.977716 
L 400.757475 264.705761 
L 405.838671 264.280699 
L 408.379268 264.334645 
L 410.073 264.555232 
L 411.766732 264.967015 
L 413.460464 265.586773 
L 415.154196 266.395798 
L 417.694794 267.915548 
L 420.235392 269.736013 
L 423.622856 272.501308 
L 429.550918 277.770481 
L 433.785248 281.425724 
L 437.172712 284.075881 
L 440.560176 286.424065 
L 443.100774 287.959861 
L 445.641372 289.281336 
L 448.18197 290.369435 
L 450.722568 291.205102 
L 453.263166 291.769284 
L 455.803764 292.054208 
L 458.344362 292.115248 
L 462.578692 291.929484 
L 467.659888 291.673354 
L 470.200486 291.712175 
L 472.741084 291.965379 
L 475.281682 292.510022 
L 477.82228 293.382619 
L 480.362878 294.537881 
L 482.903475 295.920677 
L 486.290939 298.023057 
L 492.219001 302.046659 
L 497.300197 305.39493 
L 501.534527 307.87698 
L 505.768857 310.058047 
L 510.003187 311.937086 
L 513.390651 313.222156 
L 516.778115 314.312726 
L 521.859311 315.658363 
L 526.940507 317.050454 
L 530.327971 318.252616 
L 532.868569 319.404054 
L 535.409167 320.839454 
L 537.949765 322.621666 
L 540.490363 324.787904 
L 543.030961 327.254203 
L 548.112157 332.608045 
L 552.346487 336.929497 
L 554.887085 339.212892 
L 556.580817 340.532295 
L 558.274548 341.648018 
L 559.96828 342.525761 
L 561.662012 343.168296 
L 563.355744 343.622044 
L 565.896342 344.055704 
L 572.67127 344.92929 
L 574.365002 345.348402 
L 576.058734 345.945645 
L 577.752466 346.769942 
L 579.446198 347.870215 
L 581.13993 349.293357 
L 582.833662 351.028973 
L 585.37426 354.054798 
L 592.996054 363.728765 
L 594.689786 365.502034 
L 596.383518 366.970234 
L 598.07725 368.055753 
L 598.924116 368.430754 
L 599.770982 368.680979 
L 600.617848 368.796729 
L 601.464714 368.7683 
L 602.31158 368.585993 
L 603.158446 368.240105 
L 604.005312 367.720935 
L 604.852178 367.018781 
L 605.699044 366.123942 
L 606.54591 365.026716 
L 607.392776 363.717402 
L 608.239642 362.186298 
L 609.933374 358.419916 
L 611.627106 353.649957 
L 613.320838 347.798809 
L 615.01457 340.788862 
L 616.708302 332.542501 
L 618.402034 322.982116 
L 620.095766 312.030095 
L 621.789498 299.608826 
L 622.636364 292.822969 
L 622.636364 292.822969 
" clip-path="url(#p15d1787ff3)" style="fill: none; stroke: #8dd3c7; stroke-width: 1.5; stroke-linecap: square"/>
   </g>
   <g id="line2d_68">
    <path d="M 115.363636 130.627676 
L 119.597966 129.344685 
L 123.832296 127.843958 
L 128.913492 125.785255 
L 133.994688 123.479571 
L 139.92275 120.525884 
L 146.697678 116.873069 
L 155.166338 112.017351 
L 163.634998 107.148529 
L 166.175596 105.921562 
L 168.716194 104.93215 
L 171.256792 104.254074 
L 172.950524 104.011425 
L 174.644256 103.961802 
L 176.337988 104.127067 
L 178.03172 104.529081 
L 179.725452 105.187144 
L 181.419183 106.075881 
L 183.959781 107.702611 
L 189.887843 111.739361 
L 191.581575 112.664335 
L 193.275307 113.369508 
L 194.969039 113.790355 
L 196.662771 113.862349 
L 198.356503 113.520964 
L 199.203369 113.175091 
L 200.050235 112.701692 
L 201.743967 111.375522 
L 203.437699 109.624222 
L 205.131431 107.551103 
L 207.672029 104.064013 
L 211.906359 98.106701 
L 213.600091 95.974181 
L 215.293823 94.13972 
L 216.987555 92.706629 
L 217.834421 92.172882 
L 218.681287 91.778221 
L 219.528153 91.535558 
L 220.375019 91.457808 
L 221.221885 91.557855 
L 222.068751 91.842808 
L 222.915617 92.307185 
L 223.762483 92.943849 
L 224.609349 93.74566 
L 226.303081 95.816169 
L 227.996813 98.461604 
L 229.690545 101.624855 
L 231.384277 105.248813 
L 233.924875 111.423647 
L 236.465473 118.313829 
L 239.852937 128.280365 
L 251.709061 164.2146 
L 254.249659 171.057122 
L 256.790256 177.251952 
L 258.483988 180.945429 
L 260.17772 184.236172 
L 261.871452 187.07823 
L 263.565184 189.425707 
L 265.258916 191.25733 
L 266.952648 192.6159 
L 268.64638 193.5545 
L 270.340112 194.126216 
L 272.033844 194.384133 
L 273.727576 194.381335 
L 275.421308 194.170908 
L 277.961906 193.582087 
L 284.736834 191.674376 
L 287.277432 191.291923 
L 289.81803 191.147427 
L 293.205494 191.245062 
L 297.439824 191.679635 
L 307.602216 192.931862 
L 311.836546 193.409617 
L 314.377144 193.947528 
L 316.070876 194.4891 
L 317.764608 195.220877 
L 319.45834 196.180431 
L 321.152072 197.405331 
L 322.845804 198.933151 
L 324.539536 200.801461 
L 326.233268 203.047832 
L 327.927 205.703342 
L 329.620732 208.73394 
L 332.161329 213.826319 
L 335.548793 221.257886 
L 341.476855 234.409282 
L 344.017453 239.471914 
L 345.711185 242.475597 
L 347.404917 245.098073 
L 349.098649 247.275477 
L 350.792381 249.020546 
L 352.486113 250.387776 
L 354.179845 251.432084 
L 355.873577 252.208383 
L 357.567309 252.771592 
L 360.107907 253.336985 
L 366.882835 254.514272 
L 368.576567 255.030956 
L 370.270299 255.740011 
L 372.810897 257.139476 
L 375.351495 258.833843 
L 380.432691 262.61866 
L 383.820155 265.043158 
L 386.360753 266.603851 
L 388.054485 267.453744 
L 389.748217 268.108953 
L 391.441949 268.538963 
L 393.135681 268.759376 
L 395.676279 268.780232 
L 398.216877 268.543895 
L 405.838671 267.580131 
L 408.379268 267.603428 
L 410.073 267.826011 
L 411.766732 268.258512 
L 413.460464 268.917225 
L 415.154196 269.780959 
L 417.694794 271.406442 
L 420.235392 273.353001 
L 423.622856 276.302446 
L 435.47898 287.086275 
L 438.866444 289.652806 
L 442.253908 291.894203 
L 444.794506 293.352518 
L 447.335104 294.612622 
L 449.875702 295.667948 
L 452.4163 296.511928 
L 454.956898 297.139299 
L 457.497496 297.568202 
L 460.88496 297.897797 
L 465.11929 298.05059 
L 475.281682 298.274831 
L 478.669146 298.608021 
L 482.05661 299.144402 
L 485.444073 299.899454 
L 488.831537 300.88866 
L 492.219001 302.1275 
L 495.606465 303.631457 
L 498.993929 305.403538 
L 503.228259 307.906425 
L 510.850053 312.772432 
L 515.931249 315.920981 
L 520.165579 318.288879 
L 525.246775 320.855686 
L 537.949765 327.096634 
L 543.877827 330.413032 
L 551.499621 334.667983 
L 554.887085 336.344304 
L 558.274548 337.777819 
L 561.662012 338.909901 
L 569.283806 341.188261 
L 571.824404 342.219079 
L 574.365002 343.551933 
L 576.058734 344.65759 
L 577.752466 345.971421 
L 579.446198 347.522998 
L 581.13993 349.340208 
L 583.680528 352.504414 
L 592.149188 363.812825 
L 593.84292 365.647396 
L 595.536652 367.163006 
L 597.230384 368.283972 
L 598.07725 368.672813 
L 598.924116 368.934612 
L 599.770982 369.059909 
L 600.617848 369.039245 
L 601.464714 368.863158 
L 602.31158 368.522188 
L 603.158446 368.006876 
L 604.005312 367.307761 
L 604.852178 366.415382 
L 605.699044 365.32028 
L 606.54591 364.012994 
L 607.392776 362.484064 
L 609.086508 358.723431 
L 610.78024 353.962699 
L 612.473972 348.126187 
L 614.167704 341.138211 
L 615.861436 332.923091 
L 617.555168 323.405144 
L 619.2489 312.508689 
L 620.942632 300.158043 
L 622.636364 286.277524 
L 622.636364 286.277524 
" clip-path="url(#p15d1787ff3)" style="fill: none; stroke: #feffb3; stroke-width: 1.5; stroke-linecap: square"/>
   </g>
   <g id="line2d_69">
    <path d="M 115.363636 152.890642 
L 117.057368 143.317293 
L 118.7511 135.245852 
L 120.444832 128.582122 
L 122.138564 123.231904 
L 123.832296 119.100998 
L 124.679162 117.46335 
L 125.526028 116.095206 
L 126.372894 114.984791 
L 127.21976 114.12033 
L 128.066626 113.490048 
L 128.913492 113.08217 
L 129.760358 112.884922 
L 130.607224 112.886528 
L 131.45409 113.075215 
L 132.300956 113.439206 
L 133.147822 113.966727 
L 134.841554 115.46526 
L 136.535286 117.476616 
L 138.229018 119.906595 
L 140.769616 124.130422 
L 145.003946 131.928771 
L 148.39141 138.002433 
L 150.085142 140.725212 
L 151.778874 143.113024 
L 153.472606 145.071672 
L 155.166338 146.506955 
L 156.013204 146.998898 
L 156.86007 147.324676 
L 157.706936 147.472515 
L 158.553802 147.435461 
L 159.400668 147.221587 
L 160.247534 146.841891 
L 161.0944 146.307372 
L 162.788132 144.817853 
L 164.481864 142.841014 
L 166.175596 140.464838 
L 168.716194 136.344281 
L 172.103658 130.273702 
L 176.337988 122.748766 
L 178.878586 118.795455 
L 180.572317 116.559988 
L 182.266049 114.669336 
L 183.959781 113.125183 
L 185.653513 111.929218 
L 187.347245 111.083127 
L 189.040977 110.588597 
L 190.734709 110.447315 
L 192.428441 110.660967 
L 194.122173 111.231241 
L 195.815905 112.159824 
L 197.509637 113.448401 
L 199.203369 115.09866 
L 200.897101 117.109749 
L 202.590833 119.440195 
L 205.131431 123.372181 
L 213.600091 137.210575 
L 215.293823 139.55034 
L 216.987555 141.572309 
L 218.681287 143.201413 
L 220.375019 144.362583 
L 221.221885 144.744269 
L 222.068751 144.987314 
L 222.915617 145.102801 
L 224.609349 145.002814 
L 226.303081 144.547731 
L 227.996813 143.840975 
L 234.771741 140.565685 
L 236.465473 140.151911 
L 238.159205 140.107004 
L 239.006071 140.255194 
L 239.852937 140.534385 
L 240.699803 140.957504 
L 241.546669 141.537479 
L 242.393535 142.287171 
L 244.087267 144.299213 
L 245.780999 146.915107 
L 247.474731 150.033458 
L 250.015329 155.431293 
L 253.402793 163.440664 
L 258.483988 175.547628 
L 261.024586 180.901475 
L 262.718318 183.979223 
L 264.41205 186.553032 
L 266.105782 188.623708 
L 267.799514 190.256608 
L 269.493246 191.518332 
L 271.186978 192.475483 
L 272.88071 193.19466 
L 275.421308 193.972917 
L 281.34937 195.551991 
L 283.043102 196.241954 
L 284.736834 197.160059 
L 286.430566 198.34158 
L 288.971164 200.513841 
L 292.358628 203.879563 
L 297.439824 209.075785 
L 299.980422 211.35416 
L 301.674154 212.633633 
L 303.367886 213.659939 
L 305.061618 214.380268 
L 306.75535 214.748345 
L 308.449082 214.788402 
L 310.142814 214.56769 
L 312.683412 213.89613 
L 319.45834 211.725176 
L 321.152072 211.46364 
L 322.845804 211.450314 
L 324.539536 211.753061 
L 326.233268 212.439745 
L 327.927 213.570719 
L 329.620732 215.131032 
L 331.314463 217.06229 
L 333.008195 219.305577 
L 335.548793 223.126684 
L 338.936257 228.763712 
L 344.864319 238.796449 
L 347.404917 242.646108 
L 349.098649 244.920347 
L 350.792381 246.946038 
L 353.332979 249.562515 
L 355.873577 251.733495 
L 358.414175 253.527575 
L 360.954773 255.013353 
L 363.495371 256.259424 
L 366.882835 257.666539 
L 374.504629 260.46974 
L 382.126423 263.335295 
L 387.207619 265.467837 
L 391.441949 267.47383 
L 396.523145 270.148427 
L 407.532402 276.02885 
L 411.766732 277.971482 
L 415.154196 279.296141 
L 419.388526 280.713994 
L 425.316588 282.40999 
L 438.019578 285.903201 
L 445.641372 288.302916 
L 453.263166 290.941144 
L 466.813022 295.759765 
L 471.047352 296.993494 
L 474.434816 297.788334 
L 478.669146 298.514289 
L 487.984671 299.932627 
L 491.372135 300.73599 
L 493.912733 301.548967 
L 496.453331 302.594343 
L 498.993929 303.885705 
L 502.381393 305.900944 
L 507.462589 309.271934 
L 513.390651 313.176156 
L 516.778115 315.124189 
L 520.165579 316.735029 
L 524.399909 318.427664 
L 531.174837 321.097226 
L 534.562301 322.738642 
L 537.102899 324.229114 
L 539.643497 326.007576 
L 542.184095 328.047451 
L 546.418425 331.782523 
L 552.346487 337.002539 
L 554.887085 338.981743 
L 557.427683 340.673734 
L 559.121414 341.596884 
L 560.815146 342.333702 
L 563.355744 343.152086 
L 566.743208 343.918371 
L 571.824404 345.02332 
L 574.365002 345.849054 
L 576.058734 346.592659 
L 577.752466 347.537547 
L 579.446198 348.723825 
L 581.13993 350.189794 
L 582.833662 351.922891 
L 585.37426 354.870922 
L 592.149188 363.054163 
L 593.84292 364.78174 
L 595.536652 366.237516 
L 597.230384 367.349238 
L 598.924116 368.044651 
L 599.770982 368.213663 
L 600.617848 368.251502 
L 601.464714 368.149137 
L 602.31158 367.897537 
L 603.158446 367.487669 
L 604.005312 366.910502 
L 604.852178 366.157005 
L 605.699044 365.218144 
L 606.54591 364.084889 
L 607.392776 362.748208 
L 609.086508 359.428441 
L 610.78024 355.186589 
L 612.473972 349.950399 
L 614.167704 343.647615 
L 615.861436 336.205986 
L 617.555168 327.553256 
L 619.2489 317.617172 
L 620.942632 306.32548 
L 622.636364 293.605927 
L 622.636364 293.605927 
" clip-path="url(#p15d1787ff3)" style="fill: none; stroke: #bfbbd9; stroke-width: 1.5; stroke-linecap: square"/>
   </g>
   <g id="line2d_70">
    <path d="M 115.363636 130.050858 
L 117.057368 127.661427 
L 117.904234 126.743605 
L 118.7511 126.000127 
L 119.597966 125.423302 
L 120.444832 125.00544 
L 121.291698 124.73885 
L 122.138564 124.615843 
L 122.98543 124.628728 
L 123.832296 124.769815 
L 125.526028 125.405838 
L 127.21976 126.462388 
L 128.913492 127.877946 
L 130.607224 129.590991 
L 133.147822 132.58377 
L 136.535286 137.041152 
L 140.769616 142.671324 
L 143.310214 145.711472 
L 145.003946 147.469255 
L 146.697678 148.940078 
L 148.39141 150.062419 
L 150.085142 150.774759 
L 150.932008 150.957953 
L 151.778874 151.015576 
L 152.62574 150.939938 
L 153.472606 150.723349 
L 154.319472 150.358119 
L 155.166338 149.836559 
L 156.013204 149.150976 
L 156.86007 148.293683 
L 157.706936 147.25699 
L 159.400668 144.651158 
L 161.0944 141.437403 
L 162.788132 137.748092 
L 165.32873 131.612007 
L 171.256792 116.800979 
L 172.950524 113.038002 
L 174.644256 109.726027 
L 176.337988 106.99742 
L 177.184854 105.893243 
L 178.03172 104.984544 
L 178.878586 104.287861 
L 179.725452 103.812737 
L 180.572317 103.549406 
L 181.419183 103.484792 
L 182.266049 103.605819 
L 183.112915 103.899411 
L 183.959781 104.352495 
L 185.653513 105.684831 
L 187.347245 107.498225 
L 189.040977 109.688072 
L 191.581575 113.449876 
L 197.509637 122.62301 
L 199.203369 124.874915 
L 200.897101 126.775841 
L 202.590833 128.302598 
L 204.284565 129.493619 
L 205.978297 130.389084 
L 207.672029 131.029173 
L 209.365761 131.454065 
L 211.906359 131.775802 
L 214.446957 131.839355 
L 221.221885 131.777872 
L 223.762483 132.048851 
L 225.456215 132.413374 
L 227.149947 132.961547 
L 228.843679 133.724705 
L 230.537411 134.734181 
L 232.231143 136.021308 
L 233.924875 137.617419 
L 235.618607 139.553849 
L 237.312339 141.861929 
L 239.006071 144.572995 
L 240.699803 147.718378 
L 242.393535 151.329368 
L 244.087267 155.404337 
L 246.627865 162.179401 
L 251.709061 176.776752 
L 255.096525 186.112569 
L 257.637122 192.29164 
L 259.330854 195.816461 
L 261.024586 198.739476 
L 262.718318 200.952548 
L 263.565184 201.759181 
L 264.41205 202.357715 
L 265.258916 202.761273 
L 266.105782 202.984657 
L 266.952648 203.042669 
L 267.799514 202.95011 
L 268.64638 202.721782 
L 270.340112 201.917025 
L 272.033844 200.746809 
L 274.574442 198.565277 
L 278.808772 194.779603 
L 280.502504 193.558276 
L 282.196236 192.681965 
L 283.043102 192.410193 
L 283.889968 192.26908 
L 284.736834 192.27327 
L 285.5837 192.428006 
L 286.430566 192.72396 
L 288.124298 193.697196 
L 289.81803 195.108322 
L 291.511762 196.872682 
L 294.05236 199.996353 
L 302.52102 211.1046 
L 304.214752 212.819829 
L 305.908484 214.168894 
L 307.602216 215.110401 
L 309.295948 215.702534 
L 310.98968 216.017498 
L 312.683412 216.127498 
L 316.070876 216.021429 
L 319.45834 215.961972 
L 321.152072 216.130236 
L 322.845804 216.52677 
L 324.539536 217.223778 
L 326.233268 218.293466 
L 327.927 219.799433 
L 329.620732 221.718968 
L 331.314463 223.979572 
L 333.855061 227.850086 
L 337.242525 233.522273 
L 341.476855 240.612215 
L 344.017453 244.42744 
L 345.711185 246.635827 
L 347.404917 248.490858 
L 349.098649 249.928039 
L 350.792381 250.963218 
L 352.486113 251.656035 
L 354.179845 252.06657 
L 355.873577 252.254904 
L 358.414175 252.252206 
L 364.342237 251.966387 
L 366.035969 252.08321 
L 367.729701 252.398397 
L 369.423433 252.971773 
L 371.117165 253.832163 
L 372.810897 254.94819 
L 374.504629 256.281558 
L 377.045227 258.605357 
L 380.432691 262.107033 
L 387.207619 269.344207 
L 389.748217 271.743609 
L 392.288815 273.786538 
L 394.829413 275.46264 
L 397.370011 276.801846 
L 399.910609 277.834181 
L 402.451207 278.58967 
L 404.991805 279.098341 
L 407.532402 279.390217 
L 410.073 279.495325 
L 413.460464 279.399886 
L 425.316588 278.691978 
L 427.857186 278.852214 
L 430.397784 279.252946 
L 432.938382 279.952648 
L 435.47898 280.970082 
L 438.019578 282.237447 
L 441.407042 284.179156 
L 449.028836 288.685306 
L 451.569434 289.947994 
L 454.110032 290.959283 
L 456.65063 291.686551 
L 459.191228 292.194257 
L 463.425558 292.7608 
L 468.506754 293.416641 
L 471.047352 293.913669 
L 473.58795 294.625682 
L 476.128548 295.624834 
L 478.669146 296.906561 
L 482.05661 298.936262 
L 487.137805 302.328585 
L 492.219001 305.636802 
L 494.759599 307.083088 
L 497.300197 308.301401 
L 499.840795 309.299326 
L 503.228259 310.402639 
L 511.696919 313.029156 
L 514.237517 314.060232 
L 516.778115 315.325071 
L 519.318713 316.874297 
L 521.859311 318.671038 
L 525.246775 321.341467 
L 537.102899 331.077017 
L 539.643497 332.823242 
L 542.184095 334.356346 
L 545.571559 336.095842 
L 548.959023 337.522501 
L 552.346487 338.674856 
L 555.733951 339.591445 
L 559.96828 340.464626 
L 566.743208 341.704369 
L 569.283806 342.381192 
L 571.824404 343.305794 
L 573.518136 344.101814 
L 575.211868 345.070904 
L 576.9056 346.238242 
L 578.599332 347.629007 
L 580.293064 349.268376 
L 581.986796 351.167036 
L 584.527394 354.375032 
L 591.302322 363.287025 
L 592.996054 365.197437 
L 594.689786 366.833565 
L 596.383518 368.121784 
L 598.07725 368.988471 
L 598.924116 369.240732 
L 599.770982 369.36 
L 600.617848 369.337073 
L 601.464714 369.162748 
L 602.31158 368.82782 
L 603.158446 368.323089 
L 604.005312 367.639349 
L 604.852178 366.767399 
L 605.699044 365.698035 
L 606.54591 364.422054 
L 608.239642 361.213429 
L 609.933374 357.0679 
L 611.627106 351.911842 
L 613.320838 345.671631 
L 615.01457 338.273641 
L 616.708302 329.644249 
L 618.402034 319.709831 
L 620.095766 308.396761 
L 621.789498 295.631414 
L 622.636364 288.68113 
L 622.636364 288.68113 
" clip-path="url(#p15d1787ff3)" style="fill: none; stroke: #fa8174; stroke-width: 1.5; stroke-linecap: square"/>
   </g>
   <g id="line2d_71">
    <path d="M 115.363636 134.570209 
L 117.057368 124.746264 
L 118.7511 116.647621 
L 120.444832 110.152458 
L 122.138564 105.138954 
L 122.98543 103.149755 
L 123.832296 101.485287 
L 124.679162 100.130322 
L 125.526028 99.069633 
L 126.372894 98.287993 
L 127.21976 97.770173 
L 128.066626 97.500945 
L 128.913492 97.465083 
L 129.760358 97.647357 
L 130.607224 98.032541 
L 131.45409 98.605407 
L 132.300956 99.350727 
L 133.994688 101.297817 
L 135.68842 103.75199 
L 137.382152 106.591424 
L 139.92275 111.306454 
L 145.003946 120.870129 
L 146.697678 123.650931 
L 148.39141 126.025151 
L 150.085142 127.870967 
L 150.932008 128.557655 
L 151.778874 129.066558 
L 152.62574 129.382449 
L 153.472606 129.490101 
L 154.319472 129.374285 
L 155.166338 129.019774 
L 156.013204 128.41134 
L 156.86007 127.533756 
L 157.706936 126.371797 
L 158.553802 124.918876 
L 160.247534 121.226806 
L 161.941266 116.657081 
L 163.634998 111.414473 
L 166.175596 102.736848 
L 171.256792 84.986302 
L 172.950524 79.703165 
L 174.644256 75.078172 
L 176.337988 71.316098 
L 177.184854 69.822647 
L 178.03172 68.621715 
L 178.878586 67.738885 
L 179.725452 67.18941 
L 180.572317 66.96 
L 181.419183 67.032481 
L 182.266049 67.388676 
L 183.112915 68.01041 
L 183.959781 68.879508 
L 184.806647 69.977794 
L 186.500379 72.789229 
L 188.194111 76.299308 
L 189.887843 80.362629 
L 192.428441 87.176864 
L 199.203369 106.102312 
L 200.897101 110.22297 
L 202.590833 113.905428 
L 204.284565 117.168703 
L 205.978297 120.033824 
L 207.672029 122.521816 
L 209.365761 124.653705 
L 211.059493 126.450519 
L 212.753225 127.933283 
L 214.446957 129.123024 
L 216.140689 130.040767 
L 217.834421 130.707541 
L 219.528153 131.14437 
L 221.221885 131.372291 
L 223.762483 131.401349 
L 229.690545 131.174573 
L 231.384277 131.343992 
L 233.078009 131.743786 
L 234.771741 132.442835 
L 236.465473 133.51002 
L 238.159205 135.01422 
L 239.852937 137.024316 
L 241.546669 139.609188 
L 243.240401 142.830121 
L 244.934133 146.645298 
L 246.627865 150.938595 
L 249.168463 158.017409 
L 256.790256 180.144139 
L 258.483988 184.486895 
L 260.17772 188.365662 
L 261.871452 191.662676 
L 263.565184 194.260288 
L 264.41205 195.269804 
L 265.258916 196.096251 
L 266.105782 196.752757 
L 266.952648 197.252449 
L 267.799514 197.608457 
L 268.64638 197.833909 
L 270.340112 197.945656 
L 272.033844 197.692715 
L 273.727576 197.180113 
L 277.11504 195.796028 
L 279.655638 194.857481 
L 281.34937 194.476095 
L 283.043102 194.41269 
L 283.889968 194.53305 
L 284.736834 194.772151 
L 286.430566 195.612224 
L 288.124298 196.875098 
L 289.81803 198.485579 
L 291.511762 200.368473 
L 294.05236 203.539099 
L 299.980422 211.237335 
L 301.674154 213.175628 
L 303.367886 214.859974 
L 305.061618 216.215181 
L 306.75535 217.173709 
L 308.449082 217.750605 
L 310.142814 218.011302 
L 311.836546 218.021957 
L 314.377144 217.713818 
L 321.152072 216.567281 
L 322.845804 216.565154 
L 324.539536 216.809139 
L 326.233268 217.365388 
L 327.927 218.293285 
L 329.620732 219.584301 
L 331.314463 221.190739 
L 333.008195 223.064425 
L 335.548793 226.270673 
L 338.936257 231.031442 
L 345.711185 240.773341 
L 348.251783 244.005668 
L 350.792381 246.812859 
L 353.332979 249.235348 
L 355.873577 251.336467 
L 358.414175 253.179548 
L 361.801639 255.345059 
L 367.729701 258.753321 
L 373.657763 262.253635 
L 378.738959 265.20929 
L 382.126423 266.965252 
L 384.667021 268.092304 
L 387.207619 269.005585 
L 389.748217 269.659214 
L 392.288815 270.0212 
L 394.829413 270.147982 
L 399.063743 270.08411 
L 403.298073 270.042162 
L 405.838671 270.203145 
L 408.379268 270.615199 
L 410.073 271.074419 
L 411.766732 271.712536 
L 413.460464 272.536448 
L 416.001062 274.059303 
L 419.388526 276.462706 
L 427.857186 282.798517 
L 430.397784 284.362175 
L 432.091516 285.221291 
L 433.785248 285.902598 
L 436.325846 286.617195 
L 438.866444 287.038422 
L 442.253908 287.290667 
L 450.722568 287.623475 
L 453.263166 287.988338 
L 455.803764 288.611037 
L 458.344362 289.473443 
L 461.731826 290.912271 
L 465.966156 293.013249 
L 475.281682 297.762818 
L 479.516012 299.569986 
L 493.065867 305.057963 
L 496.453331 306.776181 
L 499.840795 308.741797 
L 505.768857 312.501484 
L 511.696919 316.186875 
L 515.084383 318.043322 
L 517.624981 319.236654 
L 521.012445 320.544307 
L 525.246775 321.890972 
L 532.021703 323.975204 
L 535.409167 325.259401 
L 537.949765 326.43446 
L 540.490363 327.835531 
L 543.877827 329.985196 
L 549.805889 334.11657 
L 554.040219 336.994885 
L 557.427683 339.037603 
L 559.96828 340.324026 
L 563.355744 341.707547 
L 571.824404 344.890209 
L 574.365002 346.170697 
L 576.9056 347.776396 
L 578.599332 349.076115 
L 580.293064 350.593243 
L 582.833662 353.289815 
L 586.221126 357.362312 
L 590.455456 362.44796 
L 592.996054 365.085126 
L 594.689786 366.527738 
L 596.383518 367.637923 
L 598.07725 368.347087 
L 598.924116 368.52985 
L 599.770982 368.586635 
L 600.617848 368.508866 
L 601.464714 368.287971 
L 602.31158 367.915374 
L 603.158446 367.382501 
L 604.005312 366.680777 
L 604.852178 365.80163 
L 605.699044 364.736482 
L 606.54591 363.476762 
L 608.239642 360.339303 
L 609.933374 356.320659 
L 611.627106 351.352233 
L 613.320838 345.365432 
L 615.01457 338.291659 
L 616.708302 330.062321 
L 618.402034 320.608822 
L 620.095766 309.862567 
L 621.789498 297.754962 
L 622.636364 291.169217 
L 622.636364 291.169217 
" clip-path="url(#p15d1787ff3)" style="fill: none; stroke: #81b1d2; stroke-width: 1.5; stroke-linecap: square"/>
   </g>
   <g id="line2d_72">
    <path d="M 115.363636 141.233566 
L 117.057368 138.338103 
L 118.7511 135.860837 
L 120.444832 133.77611 
L 122.138564 132.058262 
L 123.832296 130.681636 
L 125.526028 129.620574 
L 127.21976 128.849417 
L 128.913492 128.342507 
L 130.607224 128.074186 
L 132.300956 128.018797 
L 133.994688 128.150679 
L 136.535286 128.643513 
L 139.075884 129.413382 
L 142.463348 130.721146 
L 150.085142 133.838261 
L 152.62574 134.623138 
L 155.166338 135.136607 
L 156.86007 135.285374 
L 158.553802 135.250834 
L 160.247534 135.036701 
L 162.788132 134.441923 
L 165.32873 133.607749 
L 171.256792 131.292144 
L 174.644256 130.117162 
L 177.184854 129.488168 
L 178.878586 129.244512 
L 180.572317 129.163839 
L 183.112915 129.296076 
L 186.500379 129.781982 
L 193.275307 130.883015 
L 195.815905 131.019868 
L 197.509637 130.943298 
L 199.203369 130.69623 
L 200.897101 130.250108 
L 202.590833 129.616686 
L 205.131431 128.412271 
L 213.600091 124.02544 
L 215.293823 123.417531 
L 216.987555 123.004644 
L 218.681287 122.831866 
L 220.375019 122.944286 
L 222.068751 123.38485 
L 223.762483 124.165012 
L 225.456215 125.272247 
L 227.149947 126.693427 
L 228.843679 128.415425 
L 230.537411 130.425113 
L 232.231143 132.709364 
L 234.771741 136.621829 
L 237.312339 141.078219 
L 239.852937 146.034229 
L 242.393535 151.445538 
L 245.780999 159.222168 
L 252.555927 175.07749 
L 255.096525 180.539203 
L 257.637122 185.437619 
L 259.330854 188.295279 
L 261.024586 190.760072 
L 262.718318 192.774992 
L 264.41205 194.289386 
L 266.105782 195.332308 
L 267.799514 195.987168 
L 269.493246 196.338427 
L 271.186978 196.470545 
L 274.574442 196.415194 
L 277.11504 196.426601 
L 278.808772 196.617768 
L 280.502504 197.054321 
L 282.196236 197.820719 
L 283.889968 199.001422 
L 285.5837 200.671998 
L 287.277432 202.804661 
L 288.971164 205.304942 
L 291.511762 209.535567 
L 298.28669 221.356438 
L 299.980422 223.916479 
L 301.674154 226.12729 
L 303.367886 227.89329 
L 304.214752 228.579618 
L 305.061618 229.118901 
L 305.908484 229.499409 
L 306.75535 229.719265 
L 307.602216 229.790266 
L 308.449082 229.725214 
L 310.142814 229.238163 
L 311.836546 228.360534 
L 313.530278 227.19475 
L 316.070876 225.129833 
L 319.45834 222.324013 
L 321.152072 221.129012 
L 322.845804 220.20918 
L 324.539536 219.666941 
L 325.386402 219.569425 
L 326.233268 219.604716 
L 327.080134 219.785342 
L 327.927 220.114164 
L 328.773866 220.582019 
L 330.467598 221.895174 
L 332.161329 223.645499 
L 333.855061 225.753683 
L 336.395659 229.413459 
L 340.629989 236.178836 
L 344.017453 241.476532 
L 346.558051 244.966575 
L 348.251783 246.914693 
L 349.945515 248.50305 
L 351.639247 249.760627 
L 353.332979 250.725354 
L 355.026711 251.435162 
L 356.720443 251.927982 
L 358.414175 252.241743 
L 360.954773 252.459625 
L 364.342237 252.47745 
L 368.576567 252.488206 
L 371.117165 252.70255 
L 373.657763 253.122278 
L 376.198361 253.735057 
L 378.738959 254.528444 
L 382.126423 255.845736 
L 385.513887 257.432497 
L 388.901351 259.259235 
L 393.135681 261.831358 
L 398.216877 265.204334 
L 409.226134 272.618283 
L 413.460464 275.160618 
L 417.694794 277.450711 
L 423.622856 280.383977 
L 437.172712 286.976347 
L 443.100774 289.84864 
L 447.335104 291.639207 
L 450.722568 292.808612 
L 453.263166 293.485666 
L 455.803764 293.967818 
L 459.191228 294.370525 
L 465.966156 294.828866 
L 470.200486 295.245923 
L 472.741084 295.671424 
L 475.281682 296.293661 
L 477.82228 297.134834 
L 481.209744 298.5253 
L 485.444073 300.534634 
L 493.065867 304.235101 
L 496.453331 305.635612 
L 499.840795 306.785725 
L 505.768857 308.478052 
L 510.850053 309.983396 
L 514.237517 311.209568 
L 516.778115 312.32416 
L 519.318713 313.647198 
L 522.706177 315.708863 
L 526.093641 318.047062 
L 530.327971 321.252984 
L 537.949765 327.406719 
L 543.877827 332.111118 
L 548.112157 335.207634 
L 551.499621 337.427259 
L 554.887085 339.34618 
L 557.427683 340.5482 
L 559.96828 341.516442 
L 563.355744 342.488608 
L 570.130672 344.239409 
L 572.67127 345.151061 
L 575.211868 346.365598 
L 576.9056 347.395539 
L 578.599332 348.638066 
L 580.293064 350.124367 
L 581.986796 351.870411 
L 584.527394 354.854407 
L 591.302322 363.223273 
L 592.996054 365.015981 
L 594.689786 366.543762 
L 596.383518 367.734054 
L 598.07725 368.514297 
L 598.924116 368.727974 
L 599.770982 368.811928 
L 600.617848 368.757089 
L 601.464714 368.554386 
L 602.31158 368.19475 
L 603.158446 367.669109 
L 604.005312 366.968395 
L 604.852178 366.083536 
L 605.699044 365.005463 
L 606.54591 363.725105 
L 608.239642 360.521254 
L 609.933374 356.399423 
L 611.627106 351.287049 
L 613.320838 345.11157 
L 615.01457 337.800426 
L 616.708302 329.281054 
L 618.402034 319.480893 
L 620.095766 308.327381 
L 621.789498 295.747958 
L 622.636364 288.900853 
L 622.636364 288.900853 
" clip-path="url(#p15d1787ff3)" style="fill: none; stroke: #fdb462; stroke-width: 1.5; stroke-linecap: square"/>
   </g>
   <g id="patch_3">
    <path d="M 90 384.48 
L 90 51.84 
" style="fill: none; stroke: #ffffff; stroke-width: 0.8; stroke-linejoin: miter; stroke-linecap: square"/>
   </g>
   <g id="patch_4">
    <path d="M 648 384.48 
L 648 51.84 
" style="fill: none; stroke: #ffffff; stroke-width: 0.8; stroke-linejoin: miter; stroke-linecap: square"/>
   </g>
   <g id="patch_5">
    <path d="M 90 384.48 
L 648 384.48 
" style="fill: none; stroke: #ffffff; stroke-width: 0.8; stroke-linejoin: miter; stroke-linecap: square"/>
   </g>
   <g id="patch_6">
    <path d="M 90 51.84 
L 648 51.84 
" style="fill: none; stroke: #ffffff; stroke-width: 0.8; stroke-linejoin: miter; stroke-linecap: square"/>
   </g>
   <g id="text_36">
    <!-- caio.python_aio_asyncio - read (Time vs Chunk Size) -->
    <g style="fill: #ffffff" transform="translate(211.544062 45.84) scale(0.12 -0.12)">
     <defs>
      <path id="DejaVuSans-61" d="M 2194 1759 
Q 1497 1759 1228 1600 
Q 959 1441 959 1056 
Q 959 750 1161 570 
Q 1363 391 1709 391 
Q 2188 391 2477 730 
Q 2766 1069 2766 1631 
L 2766 1759 
L 2194 1759 
z
M 3341 1997 
L 3341 0 
L 2766 0 
L 2766 531 
Q 2569 213 2275 61 
Q 1981 -91 1556 -91 
Q 1019 -91 701 211 
Q 384 513 384 1019 
Q 384 1609 779 1909 
Q 1175 2209 1959 2209 
L 2766 2209 
L 2766 2266 
Q 2766 2663 2505 2880 
Q 2244 3097 1772 3097 
Q 1472 3097 1187 3025 
Q 903 2953 641 2809 
L 641 3341 
Q 956 3463 1253 3523 
Q 1550 3584 1831 3584 
Q 2591 3584 2966 3190 
Q 3341 2797 3341 1997 
z
" transform="scale(0.015625)"/>
      <path id="DejaVuSans-6f" d="M 1959 3097 
Q 1497 3097 1228 2736 
Q 959 2375 959 1747 
Q 959 1119 1226 758 
Q 1494 397 1959 397 
Q 2419 397 2687 759 
Q 2956 1122 2956 1747 
Q 2956 2369 2687 2733 
Q 2419 3097 1959 3097 
z
M 1959 3584 
Q 2709 3584 3137 3096 
Q 3566 2609 3566 1747 
Q 3566 888 3137 398 
Q 2709 -91 1959 -91 
Q 1206 -91 779 398 
Q 353 888 353 1747 
Q 353 2609 779 3096 
Q 1206 3584 1959 3584 
z
" transform="scale(0.015625)"/>
      <path id="DejaVuSans-2e" d="M 684 794 
L 1344 794 
L 1344 0 
L 684 0 
L 684 794 
z
" transform="scale(0.015625)"/>
      <path id="DejaVuSans-70" d="M 1159 525 
L 1159 -1331 
L 581 -1331 
L 581 3500 
L 1159 3500 
L 1159 2969 
Q 1341 3281 1617 3432 
Q 1894 3584 2278 3584 
Q 2916 3584 3314 3078 
Q 3713 2572 3713 1747 
Q 3713 922 3314 415 
Q 2916 -91 2278 -91 
Q 1894 -91 1617 61 
Q 1341 213 1159 525 
z
M 3116 1747 
Q 3116 2381 2855 2742 
Q 2594 3103 2138 3103 
Q 1681 3103 1420 2742 
Q 1159 2381 1159 1747 
Q 1159 1113 1420 752 
Q 1681 391 2138 391 
Q 2594 391 2855 752 
Q 3116 1113 3116 1747 
z
" transform="scale(0.015625)"/>
      <path id="DejaVuSans-79" d="M 2059 -325 
Q 1816 -950 1584 -1140 
Q 1353 -1331 966 -1331 
L 506 -1331 
L 506 -850 
L 844 -850 
Q 1081 -850 1212 -737 
Q 1344 -625 1503 -206 
L 1606 56 
L 191 3500 
L 800 3500 
L 1894 763 
L 2988 3500 
L 3597 3500 
L 2059 -325 
z
" transform="scale(0.015625)"/>
      <path id="DejaVuSans-2d" d="M 313 2009 
L 1997 2009 
L 1997 1497 
L 313 1497 
L 313 2009 
z
" transform="scale(0.015625)"/>
      <path id="DejaVuSans-72" d="M 2631 2963 
Q 2534 3019 2420 3045 
Q 2306 3072 2169 3072 
Q 1681 3072 1420 2755 
Q 1159 2438 1159 1844 
L 1159 0 
L 581 0 
L 581 3500 
L 1159 3500 
L 1159 2956 
Q 1341 3275 1631 3429 
Q 1922 3584 2338 3584 
Q 2397 3584 2469 3576 
Q 2541 3569 2628 3553 
L 2631 2963 
z
" transform="scale(0.015625)"/>
      <path id="DejaVuSans-64" d="M 2906 2969 
L 2906 4863 
L 3481 4863 
L 3481 0 
L 2906 0 
L 2906 525 
Q 2725 213 2448 61 
Q 2172 -91 1784 -91 
Q 1150 -91 751 415 
Q 353 922 353 1747 
Q 353 2572 751 3078 
Q 1150 3584 1784 3584 
Q 2172 3584 2448 3432 
Q 2725 3281 2906 2969 
z
M 947 1747 
Q 947 1113 1208 752 
Q 1469 391 1925 391 
Q 2381 391 2643 752 
Q 2906 1113 2906 1747 
Q 2906 2381 2643 2742 
Q 2381 3103 1925 3103 
Q 1469 3103 1208 2742 
Q 947 2381 947 1747 
z
" transform="scale(0.015625)"/>
      <path id="DejaVuSans-54" d="M -19 4666 
L 3928 4666 
L 3928 4134 
L 2272 4134 
L 2272 0 
L 1638 0 
L 1638 4134 
L -19 4134 
L -19 4666 
z
" transform="scale(0.015625)"/>
      <path id="DejaVuSans-76" d="M 191 3500 
L 800 3500 
L 1894 563 
L 2988 3500 
L 3597 3500 
L 2284 0 
L 1503 0 
L 191 3500 
z
" transform="scale(0.015625)"/>
      <path id="DejaVuSans-43" d="M 4122 4306 
L 4122 3641 
Q 3803 3938 3442 4084 
Q 3081 4231 2675 4231 
Q 1875 4231 1450 3742 
Q 1025 3253 1025 2328 
Q 1025 1406 1450 917 
Q 1875 428 2675 428 
Q 3081 428 3442 575 
Q 3803 722 4122 1019 
L 4122 359 
Q 3791 134 3420 21 
Q 3050 -91 2638 -91 
Q 1578 -91 968 557 
Q 359 1206 359 2328 
Q 359 3453 968 4101 
Q 1578 4750 2638 4750 
Q 3056 4750 3426 4639 
Q 3797 4528 4122 4306 
z
" transform="scale(0.015625)"/>
      <path id="DejaVuSans-53" d="M 3425 4513 
L 3425 3897 
Q 3066 4069 2747 4153 
Q 2428 4238 2131 4238 
Q 1616 4238 1336 4038 
Q 1056 3838 1056 3469 
Q 1056 3159 1242 3001 
Q 1428 2844 1947 2747 
L 2328 2669 
Q 3034 2534 3370 2195 
Q 3706 1856 3706 1288 
Q 3706 609 3251 259 
Q 2797 -91 1919 -91 
Q 1588 -91 1214 -16 
Q 841 59 441 206 
L 441 856 
Q 825 641 1194 531 
Q 1563 422 1919 422 
Q 2459 422 2753 634 
Q 3047 847 3047 1241 
Q 3047 1584 2836 1778 
Q 2625 1972 2144 2069 
L 1759 2144 
Q 1053 2284 737 2584 
Q 422 2884 422 3419 
Q 422 4038 858 4394 
Q 1294 4750 2059 4750 
Q 2388 4750 2728 4690 
Q 3069 4631 3425 4513 
z
" transform="scale(0.015625)"/>
     </defs>
     <use xlink:href="#DejaVuSans-63"/>
     <use xlink:href="#DejaVuSans-61" x="54.980469"/>
     <use xlink:href="#DejaVuSans-69" x="116.259766"/>
     <use xlink:href="#DejaVuSans-6f" x="144.042969"/>
     <use xlink:href="#DejaVuSans-2e" x="203.474609"/>
     <use xlink:href="#DejaVuSans-70" x="235.261719"/>
     <use xlink:href="#DejaVuSans-79" x="298.738281"/>
     <use xlink:href="#DejaVuSans-74" x="357.917969"/>
     <use xlink:href="#DejaVuSans-68" x="397.126953"/>
     <use xlink:href="#DejaVuSans-6f" x="460.505859"/>
     <use xlink:href="#DejaVuSans-6e" x="521.6875"/>
     <use xlink:href="#DejaVuSans-5f" x="585.066406"/>
     <use xlink:href="#DejaVuSans-61" x="635.066406"/>
     <use xlink:href="#DejaVuSans-69" x="696.345703"/>
     <use xlink:href="#DejaVuSans-6f" x="724.128906"/>
     <use xlink:href="#DejaVuSans-5f" x="785.310547"/>
     <use xlink:href="#DejaVuSans-61" x="835.310547"/>
     <use xlink:href="#DejaVuSans-73" x="896.589844"/>
     <use xlink:href="#DejaVuSans-79" x="948.689453"/>
     <use xlink:href="#DejaVuSans-6e" x="1007.869141"/>
     <use xlink:href="#DejaVuSans-63" x="1071.248047"/>
     <use xlink:href="#DejaVuSans-69" x="1126.228516"/>
     <use xlink:href="#DejaVuSans-6f" x="1154.011719"/>
     <use xlink:href="#DejaVuSans-20" x="1215.193359"/>
     <use xlink:href="#DejaVuSans-2d" x="1246.980469"/>
     <use xlink:href="#DejaVuSans-20" x="1283.064453"/>
     <use xlink:href="#DejaVuSans-72" x="1314.851562"/>
     <use xlink:href="#DejaVuSans-65" x="1353.714844"/>
     <use xlink:href="#DejaVuSans-61" x="1415.238281"/>
     <use xlink:href="#DejaVuSans-64" x="1476.517578"/>
     <use xlink:href="#DejaVuSans-20" x="1539.994141"/>
     <use xlink:href="#DejaVuSans-28" x="1571.78125"/>
     <use xlink:href="#DejaVuSans-54" x="1610.794922"/>
     <use xlink:href="#DejaVuSans-69" x="1668.753906"/>
     <use xlink:href="#DejaVuSans-6d" x="1696.537109"/>
     <use xlink:href="#DejaVuSans-65" x="1793.949219"/>
     <use xlink:href="#DejaVuSans-20" x="1855.472656"/>
     <use xlink:href="#DejaVuSans-76" x="1887.259766"/>
     <use xlink:href="#DejaVuSans-73" x="1946.439453"/>
     <use xlink:href="#DejaVuSans-20" x="1998.539062"/>
     <use xlink:href="#DejaVuSans-43" x="2030.326172"/>
     <use xlink:href="#DejaVuSans-68" x="2100.150391"/>
     <use xlink:href="#DejaVuSans-75" x="2163.529297"/>
     <use xlink:href="#DejaVuSans-6e" x="2226.908203"/>
     <use xlink:href="#DejaVuSans-6b" x="2290.287109"/>
     <use xlink:href="#DejaVuSans-20" x="2348.197266"/>
     <use xlink:href="#DejaVuSans-53" x="2379.984375"/>
     <use xlink:href="#DejaVuSans-69" x="2443.460938"/>
     <use xlink:href="#DejaVuSans-7a" x="2471.244141"/>
     <use xlink:href="#DejaVuSans-65" x="2523.734375"/>
     <use xlink:href="#DejaVuSans-29" x="2585.257812"/>
    </g>
   </g>
   <g id="legend_1">
    <g id="patch_7">
     <path d="M 543.43125 149.5775 
L 641 149.5775 
Q 643 149.5775 643 147.5775 
L 643 58.84 
Q 643 56.84 641 56.84 
L 543.43125 56.84 
Q 541.43125 56.84 541.43125 58.84 
L 541.43125 147.5775 
Q 541.43125 149.5775 543.43125 149.5775 
z
" style="opacity: 0.8; stroke: #cccccc; stroke-linejoin: miter"/>
    </g>
    <g id="line2d_73">
     <path d="M 545.43125 64.938437 
L 555.43125 64.938437 
L 565.43125 64.938437 
" style="fill: none; stroke: #8dd3c7; stroke-width: 1.5; stroke-linecap: square"/>
    </g>
    <g id="text_37">
     <!-- max_ops=1 -->
     <g style="fill: #ffffff" transform="translate(573.43125 68.438437) scale(0.1 -0.1)">
      <defs>
       <path id="DejaVuSans-78" d="M 3513 3500 
L 2247 1797 
L 3578 0 
L 2900 0 
L 1881 1375 
L 863 0 
L 184 0 
L 1544 1831 
L 300 3500 
L 978 3500 
L 1906 2253 
L 2834 3500 
L 3513 3500 
z
" transform="scale(0.015625)"/>
       <path id="DejaVuSans-3d" d="M 678 2906 
L 4684 2906 
L 4684 2381 
L 678 2381 
L 678 2906 
z
M 678 1631 
L 4684 1631 
L 4684 1100 
L 678 1100 
L 678 1631 
z
" transform="scale(0.015625)"/>
      </defs>
      <use xlink:href="#DejaVuSans-6d"/>
      <use xlink:href="#DejaVuSans-61" x="97.412109"/>
      <use xlink:href="#DejaVuSans-78" x="158.691406"/>
      <use xlink:href="#DejaVuSans-5f" x="217.871094"/>
      <use xlink:href="#DejaVuSans-6f" x="267.871094"/>
      <use xlink:href="#DejaVuSans-70" x="329.052734"/>
      <use xlink:href="#DejaVuSans-73" x="392.529297"/>
      <use xlink:href="#DejaVuSans-3d" x="444.628906"/>
      <use xlink:href="#DejaVuSans-31" x="528.417969"/>
     </g>
    </g>
    <g id="line2d_74">
     <path d="M 545.43125 79.894687 
L 555.43125 79.894687 
L 565.43125 79.894687 
" style="fill: none; stroke: #feffb3; stroke-width: 1.5; stroke-linecap: square"/>
    </g>
    <g id="text_38">
     <!-- max_ops=4 -->
     <g style="fill: #ffffff" transform="translate(573.43125 83.394687) scale(0.1 -0.1)">
      <use xlink:href="#DejaVuSans-6d"/>
      <use xlink:href="#DejaVuSans-61" x="97.412109"/>
      <use xlink:href="#DejaVuSans-78" x="158.691406"/>
      <use xlink:href="#DejaVuSans-5f" x="217.871094"/>
      <use xlink:href="#DejaVuSans-6f" x="267.871094"/>
      <use xlink:href="#DejaVuSans-70" x="329.052734"/>
      <use xlink:href="#DejaVuSans-73" x="392.529297"/>
      <use xlink:href="#DejaVuSans-3d" x="444.628906"/>
      <use xlink:href="#DejaVuSans-34" x="528.417969"/>
     </g>
    </g>
    <g id="line2d_75">
     <path d="M 545.43125 94.850937 
L 555.43125 94.850937 
L 565.43125 94.850937 
" style="fill: none; stroke: #bfbbd9; stroke-width: 1.5; stroke-linecap: square"/>
    </g>
    <g id="text_39">
     <!-- max_ops=8 -->
     <g style="fill: #ffffff" transform="translate(573.43125 98.350937) scale(0.1 -0.1)">
      <use xlink:href="#DejaVuSans-6d"/>
      <use xlink:href="#DejaVuSans-61" x="97.412109"/>
      <use xlink:href="#DejaVuSans-78" x="158.691406"/>
      <use xlink:href="#DejaVuSans-5f" x="217.871094"/>
      <use xlink:href="#DejaVuSans-6f" x="267.871094"/>
      <use xlink:href="#DejaVuSans-70" x="329.052734"/>
      <use xlink:href="#DejaVuSans-73" x="392.529297"/>
      <use xlink:href="#DejaVuSans-3d" x="444.628906"/>
      <use xlink:href="#DejaVuSans-38" x="528.417969"/>
     </g>
    </g>
    <g id="line2d_76">
     <path d="M 545.43125 109.807187 
L 555.43125 109.807187 
L 565.43125 109.807187 
" style="fill: none; stroke: #fa8174; stroke-width: 1.5; stroke-linecap: square"/>
    </g>
    <g id="text_40">
     <!-- max_ops=16 -->
     <g style="fill: #ffffff" transform="translate(573.43125 113.307187) scale(0.1 -0.1)">
      <use xlink:href="#DejaVuSans-6d"/>
      <use xlink:href="#DejaVuSans-61" x="97.412109"/>
      <use xlink:href="#DejaVuSans-78" x="158.691406"/>
      <use xlink:href="#DejaVuSans-5f" x="217.871094"/>
      <use xlink:href="#DejaVuSans-6f" x="267.871094"/>
      <use xlink:href="#DejaVuSans-70" x="329.052734"/>
      <use xlink:href="#DejaVuSans-73" x="392.529297"/>
      <use xlink:href="#DejaVuSans-3d" x="444.628906"/>
      <use xlink:href="#DejaVuSans-31" x="528.417969"/>
      <use xlink:href="#DejaVuSans-36" x="592.041016"/>
     </g>
    </g>
    <g id="line2d_77">
     <path d="M 545.43125 124.763437 
L 555.43125 124.763437 
L 565.43125 124.763437 
" style="fill: none; stroke: #81b1d2; stroke-width: 1.5; stroke-linecap: square"/>
    </g>
    <g id="text_41">
     <!-- max_ops=32 -->
     <g style="fill: #ffffff" transform="translate(573.43125 128.263437) scale(0.1 -0.1)">
      <use xlink:href="#DejaVuSans-6d"/>
      <use xlink:href="#DejaVuSans-61" x="97.412109"/>
      <use xlink:href="#DejaVuSans-78" x="158.691406"/>
      <use xlink:href="#DejaVuSans-5f" x="217.871094"/>
      <use xlink:href="#DejaVuSans-6f" x="267.871094"/>
      <use xlink:href="#DejaVuSans-70" x="329.052734"/>
      <use xlink:href="#DejaVuSans-73" x="392.529297"/>
      <use xlink:href="#DejaVuSans-3d" x="444.628906"/>
      <use xlink:href="#DejaVuSans-33" x="528.417969"/>
      <use xlink:href="#DejaVuSans-32" x="592.041016"/>
     </g>
    </g>
    <g id="line2d_78">
     <path d="M 545.43125 139.719687 
L 555.43125 139.719687 
L 565.43125 139.719687 
" style="fill: none; stroke: #fdb462; stroke-width: 1.5; stroke-linecap: square"/>
    </g>
    <g id="text_42">
     <!-- max_ops=64 -->
     <g style="fill: #ffffff" transform="translate(573.43125 143.219687) scale(0.1 -0.1)">
      <use xlink:href="#DejaVuSans-6d"/>
      <use xlink:href="#DejaVuSans-61" x="97.412109"/>
      <use xlink:href="#DejaVuSans-78" x="158.691406"/>
      <use xlink:href="#DejaVuSans-5f" x="217.871094"/>
      <use xlink:href="#DejaVuSans-6f" x="267.871094"/>
      <use xlink:href="#DejaVuSans-70" x="329.052734"/>
      <use xlink:href="#DejaVuSans-73" x="392.529297"/>
      <use xlink:href="#DejaVuSans-3d" x="444.628906"/>
      <use xlink:href="#DejaVuSans-36" x="528.417969"/>
      <use xlink:href="#DejaVuSans-34" x="592.041016"/>
     </g>
    </g>
   </g>
  </g>
 </g>
 <defs>
  <clipPath id="p15d1787ff3">
   <rect x="90" y="51.84" width="558" height="332.64"/>
  </clipPath>
 </defs>
</svg>
