<?xml version="1.0" encoding="utf-8" standalone="no"?>
<!DOCTYPE svg PUBLIC "-//W3C//DTD SVG 1.1//EN"
  "http://www.w3.org/Graphics/SVG/1.1/DTD/svg11.dtd">
<svg xmlns:xlink="http://www.w3.org/1999/xlink" width="720pt" height="432pt" viewBox="0 0 720 432" xmlns="http://www.w3.org/2000/svg" version="1.1">
 <metadata>
  <rdf:RDF xmlns:dc="http://purl.org/dc/elements/1.1/" xmlns:cc="http://creativecommons.org/ns#" xmlns:rdf="http://www.w3.org/1999/02/22-rdf-syntax-ns#">
   <cc:Work>
    <dc:type rdf:resource="http://purl.org/dc/dcmitype/StillImage"/>
    <dc:date>2024-01-19T16:09:12.476962</dc:date>
    <dc:format>image/svg+xml</dc:format>
    <dc:creator>
     <cc:Agent>
      <dc:title>Matplotlib v3.8.2, https://matplotlib.org/</dc:title>
     </cc:Agent>
    </dc:creator>
   </cc:Work>
  </rdf:RDF>
 </metadata>
 <defs>
  <style type="text/css">*{stroke-linejoin: round; stroke-linecap: butt}</style>
 </defs>
 <g id="figure_1">
  <g id="patch_1">
   <path d="M 0 432 
L 720 432 
L 720 0 
L 0 0 
z
"/>
  </g>
  <g id="axes_1">
   <g id="patch_2">
    <path d="M 90 384.48 
L 648 384.48 
L 648 51.84 
L 90 51.84 
z
"/>
   </g>
   <g id="matplotlib.axis_1">
    <g id="xtick_1">
     <g id="line2d_1">
      <path d="M 115.363636 384.48 
L 115.363636 51.84 
" clip-path="url(#p22218857e7)" style="fill: none; stroke: #ffffff; stroke-width: 0.8; stroke-linecap: square"/>
     </g>
     <g id="line2d_2">
      <defs>
       <path id="m8051eea748" d="M 0 0 
L 0 3.5 
" style="stroke: #ffffff; stroke-width: 0.8"/>
      </defs>
      <g>
       <use xlink:href="#m8051eea748" x="115.363636" y="384.48" style="fill: #ffffff; stroke: #ffffff; stroke-width: 0.8"/>
      </g>
     </g>
     <g id="text_1">
      <!-- 1 -->
      <g style="fill: #ffffff" transform="translate(115.065326 401.351874) rotate(-45) scale(0.1 -0.1)">
       <defs>
        <path id="DejaVuSans-31" d="M 794 531 
L 1825 531 
L 1825 4091 
L 703 3866 
L 703 4441 
L 1819 4666 
L 2450 4666 
L 2450 531 
L 3481 531 
L 3481 0 
L 794 0 
L 794 531 
z
" transform="scale(0.015625)"/>
       </defs>
       <use xlink:href="#DejaVuSans-31"/>
      </g>
     </g>
    </g>
    <g id="xtick_2">
     <g id="line2d_3">
      <path d="M 136.5 384.48 
L 136.5 51.84 
" clip-path="url(#p22218857e7)" style="fill: none; stroke: #ffffff; stroke-width: 0.8; stroke-linecap: square"/>
     </g>
     <g id="line2d_4">
      <g>
       <use xlink:href="#m8051eea748" x="136.5" y="384.48" style="fill: #ffffff; stroke: #ffffff; stroke-width: 0.8"/>
      </g>
     </g>
     <g id="text_2">
      <!-- 201 -->
      <g style="fill: #ffffff" transform="translate(131.702722 410.349807) rotate(-45) scale(0.1 -0.1)">
       <defs>
        <path id="DejaVuSans-32" d="M 1228 531 
L 3431 531 
L 3431 0 
L 469 0 
L 469 531 
Q 828 903 1448 1529 
Q 2069 2156 2228 2338 
Q 2531 2678 2651 2914 
Q 2772 3150 2772 3378 
Q 2772 3750 2511 3984 
Q 2250 4219 1831 4219 
Q 1534 4219 1204 4116 
Q 875 4013 500 3803 
L 500 4441 
Q 881 4594 1212 4672 
Q 1544 4750 1819 4750 
Q 2544 4750 2975 4387 
Q 3406 4025 3406 3419 
Q 3406 3131 3298 2873 
Q 3191 2616 2906 2266 
Q 2828 2175 2409 1742 
Q 1991 1309 1228 531 
z
" transform="scale(0.015625)"/>
        <path id="DejaVuSans-30" d="M 2034 4250 
Q 1547 4250 1301 3770 
Q 1056 3291 1056 2328 
Q 1056 1369 1301 889 
Q 1547 409 2034 409 
Q 2525 409 2770 889 
Q 3016 1369 3016 2328 
Q 3016 3291 2770 3770 
Q 2525 4250 2034 4250 
z
M 2034 4750 
Q 2819 4750 3233 4129 
Q 3647 3509 3647 2328 
Q 3647 1150 3233 529 
Q 2819 -91 2034 -91 
Q 1250 -91 836 529 
Q 422 1150 422 2328 
Q 422 3509 836 4129 
Q 1250 4750 2034 4750 
z
" transform="scale(0.015625)"/>
       </defs>
       <use xlink:href="#DejaVuSans-32"/>
       <use xlink:href="#DejaVuSans-30" x="63.623047"/>
       <use xlink:href="#DejaVuSans-31" x="127.246094"/>
      </g>
     </g>
    </g>
    <g id="xtick_3">
     <g id="line2d_5">
      <path d="M 157.636364 384.48 
L 157.636364 51.84 
" clip-path="url(#p22218857e7)" style="fill: none; stroke: #ffffff; stroke-width: 0.8; stroke-linecap: square"/>
     </g>
     <g id="line2d_6">
      <g>
       <use xlink:href="#m8051eea748" x="157.636364" y="384.48" style="fill: #ffffff; stroke: #ffffff; stroke-width: 0.8"/>
      </g>
     </g>
     <g id="text_3">
      <!-- 401 -->
      <g style="fill: #ffffff" transform="translate(152.839086 410.349807) rotate(-45) scale(0.1 -0.1)">
       <defs>
        <path id="DejaVuSans-34" d="M 2419 4116 
L 825 1625 
L 2419 1625 
L 2419 4116 
z
M 2253 4666 
L 3047 4666 
L 3047 1625 
L 3713 1625 
L 3713 1100 
L 3047 1100 
L 3047 0 
L 2419 0 
L 2419 1100 
L 313 1100 
L 313 1709 
L 2253 4666 
z
" transform="scale(0.015625)"/>
       </defs>
       <use xlink:href="#DejaVuSans-34"/>
       <use xlink:href="#DejaVuSans-30" x="63.623047"/>
       <use xlink:href="#DejaVuSans-31" x="127.246094"/>
      </g>
     </g>
    </g>
    <g id="xtick_4">
     <g id="line2d_7">
      <path d="M 178.772727 384.48 
L 178.772727 51.84 
" clip-path="url(#p22218857e7)" style="fill: none; stroke: #ffffff; stroke-width: 0.8; stroke-linecap: square"/>
     </g>
     <g id="line2d_8">
      <g>
       <use xlink:href="#m8051eea748" x="178.772727" y="384.48" style="fill: #ffffff; stroke: #ffffff; stroke-width: 0.8"/>
      </g>
     </g>
     <g id="text_4">
      <!-- 601 -->
      <g style="fill: #ffffff" transform="translate(173.97545 410.349807) rotate(-45) scale(0.1 -0.1)">
       <defs>
        <path id="DejaVuSans-36" d="M 2113 2584 
Q 1688 2584 1439 2293 
Q 1191 2003 1191 1497 
Q 1191 994 1439 701 
Q 1688 409 2113 409 
Q 2538 409 2786 701 
Q 3034 994 3034 1497 
Q 3034 2003 2786 2293 
Q 2538 2584 2113 2584 
z
M 3366 4563 
L 3366 3988 
Q 3128 4100 2886 4159 
Q 2644 4219 2406 4219 
Q 1781 4219 1451 3797 
Q 1122 3375 1075 2522 
Q 1259 2794 1537 2939 
Q 1816 3084 2150 3084 
Q 2853 3084 3261 2657 
Q 3669 2231 3669 1497 
Q 3669 778 3244 343 
Q 2819 -91 2113 -91 
Q 1303 -91 875 529 
Q 447 1150 447 2328 
Q 447 3434 972 4092 
Q 1497 4750 2381 4750 
Q 2619 4750 2861 4703 
Q 3103 4656 3366 4563 
z
" transform="scale(0.015625)"/>
       </defs>
       <use xlink:href="#DejaVuSans-36"/>
       <use xlink:href="#DejaVuSans-30" x="63.623047"/>
       <use xlink:href="#DejaVuSans-31" x="127.246094"/>
      </g>
     </g>
    </g>
    <g id="xtick_5">
     <g id="line2d_9">
      <path d="M 199.909091 384.48 
L 199.909091 51.84 
" clip-path="url(#p22218857e7)" style="fill: none; stroke: #ffffff; stroke-width: 0.8; stroke-linecap: square"/>
     </g>
     <g id="line2d_10">
      <g>
       <use xlink:href="#m8051eea748" x="199.909091" y="384.48" style="fill: #ffffff; stroke: #ffffff; stroke-width: 0.8"/>
      </g>
     </g>
     <g id="text_5">
      <!-- 801 -->
      <g style="fill: #ffffff" transform="translate(195.111813 410.349807) rotate(-45) scale(0.1 -0.1)">
       <defs>
        <path id="DejaVuSans-38" d="M 2034 2216 
Q 1584 2216 1326 1975 
Q 1069 1734 1069 1313 
Q 1069 891 1326 650 
Q 1584 409 2034 409 
Q 2484 409 2743 651 
Q 3003 894 3003 1313 
Q 3003 1734 2745 1975 
Q 2488 2216 2034 2216 
z
M 1403 2484 
Q 997 2584 770 2862 
Q 544 3141 544 3541 
Q 544 4100 942 4425 
Q 1341 4750 2034 4750 
Q 2731 4750 3128 4425 
Q 3525 4100 3525 3541 
Q 3525 3141 3298 2862 
Q 3072 2584 2669 2484 
Q 3125 2378 3379 2068 
Q 3634 1759 3634 1313 
Q 3634 634 3220 271 
Q 2806 -91 2034 -91 
Q 1263 -91 848 271 
Q 434 634 434 1313 
Q 434 1759 690 2068 
Q 947 2378 1403 2484 
z
M 1172 3481 
Q 1172 3119 1398 2916 
Q 1625 2713 2034 2713 
Q 2441 2713 2670 2916 
Q 2900 3119 2900 3481 
Q 2900 3844 2670 4047 
Q 2441 4250 2034 4250 
Q 1625 4250 1398 4047 
Q 1172 3844 1172 3481 
z
" transform="scale(0.015625)"/>
       </defs>
       <use xlink:href="#DejaVuSans-38"/>
       <use xlink:href="#DejaVuSans-30" x="63.623047"/>
       <use xlink:href="#DejaVuSans-31" x="127.246094"/>
      </g>
     </g>
    </g>
    <g id="xtick_6">
     <g id="line2d_11">
      <path d="M 221.045455 384.48 
L 221.045455 51.84 
" clip-path="url(#p22218857e7)" style="fill: none; stroke: #ffffff; stroke-width: 0.8; stroke-linecap: square"/>
     </g>
     <g id="line2d_12">
      <g>
       <use xlink:href="#m8051eea748" x="221.045455" y="384.48" style="fill: #ffffff; stroke: #ffffff; stroke-width: 0.8"/>
      </g>
     </g>
     <g id="text_6">
      <!-- 1001 -->
      <g style="fill: #ffffff" transform="translate(213.998694 414.848774) rotate(-45) scale(0.1 -0.1)">
       <use xlink:href="#DejaVuSans-31"/>
       <use xlink:href="#DejaVuSans-30" x="63.623047"/>
       <use xlink:href="#DejaVuSans-30" x="127.246094"/>
       <use xlink:href="#DejaVuSans-31" x="190.869141"/>
      </g>
     </g>
    </g>
    <g id="xtick_7">
     <g id="line2d_13">
      <path d="M 242.181818 384.48 
L 242.181818 51.84 
" clip-path="url(#p22218857e7)" style="fill: none; stroke: #ffffff; stroke-width: 0.8; stroke-linecap: square"/>
     </g>
     <g id="line2d_14">
      <g>
       <use xlink:href="#m8051eea748" x="242.181818" y="384.48" style="fill: #ffffff; stroke: #ffffff; stroke-width: 0.8"/>
      </g>
     </g>
     <g id="text_7">
      <!-- 1201 -->
      <g style="fill: #ffffff" transform="translate(235.135057 414.848774) rotate(-45) scale(0.1 -0.1)">
       <use xlink:href="#DejaVuSans-31"/>
       <use xlink:href="#DejaVuSans-32" x="63.623047"/>
       <use xlink:href="#DejaVuSans-30" x="127.246094"/>
       <use xlink:href="#DejaVuSans-31" x="190.869141"/>
      </g>
     </g>
    </g>
    <g id="xtick_8">
     <g id="line2d_15">
      <path d="M 263.318182 384.48 
L 263.318182 51.84 
" clip-path="url(#p22218857e7)" style="fill: none; stroke: #ffffff; stroke-width: 0.8; stroke-linecap: square"/>
     </g>
     <g id="line2d_16">
      <g>
       <use xlink:href="#m8051eea748" x="263.318182" y="384.48" style="fill: #ffffff; stroke: #ffffff; stroke-width: 0.8"/>
      </g>
     </g>
     <g id="text_8">
      <!-- 1401 -->
      <g style="fill: #ffffff" transform="translate(256.271421 414.848774) rotate(-45) scale(0.1 -0.1)">
       <use xlink:href="#DejaVuSans-31"/>
       <use xlink:href="#DejaVuSans-34" x="63.623047"/>
       <use xlink:href="#DejaVuSans-30" x="127.246094"/>
       <use xlink:href="#DejaVuSans-31" x="190.869141"/>
      </g>
     </g>
    </g>
    <g id="xtick_9">
     <g id="line2d_17">
      <path d="M 284.454545 384.48 
L 284.454545 51.84 
" clip-path="url(#p22218857e7)" style="fill: none; stroke: #ffffff; stroke-width: 0.8; stroke-linecap: square"/>
     </g>
     <g id="line2d_18">
      <g>
       <use xlink:href="#m8051eea748" x="284.454545" y="384.48" style="fill: #ffffff; stroke: #ffffff; stroke-width: 0.8"/>
      </g>
     </g>
     <g id="text_9">
      <!-- 1601 -->
      <g style="fill: #ffffff" transform="translate(277.407784 414.848774) rotate(-45) scale(0.1 -0.1)">
       <use xlink:href="#DejaVuSans-31"/>
       <use xlink:href="#DejaVuSans-36" x="63.623047"/>
       <use xlink:href="#DejaVuSans-30" x="127.246094"/>
       <use xlink:href="#DejaVuSans-31" x="190.869141"/>
      </g>
     </g>
    </g>
    <g id="xtick_10">
     <g id="line2d_19">
      <path d="M 305.590909 384.48 
L 305.590909 51.84 
" clip-path="url(#p22218857e7)" style="fill: none; stroke: #ffffff; stroke-width: 0.8; stroke-linecap: square"/>
     </g>
     <g id="line2d_20">
      <g>
       <use xlink:href="#m8051eea748" x="305.590909" y="384.48" style="fill: #ffffff; stroke: #ffffff; stroke-width: 0.8"/>
      </g>
     </g>
     <g id="text_10">
      <!-- 1801 -->
      <g style="fill: #ffffff" transform="translate(298.544148 414.848774) rotate(-45) scale(0.1 -0.1)">
       <use xlink:href="#DejaVuSans-31"/>
       <use xlink:href="#DejaVuSans-38" x="63.623047"/>
       <use xlink:href="#DejaVuSans-30" x="127.246094"/>
       <use xlink:href="#DejaVuSans-31" x="190.869141"/>
      </g>
     </g>
    </g>
    <g id="xtick_11">
     <g id="line2d_21">
      <path d="M 326.727273 384.48 
L 326.727273 51.84 
" clip-path="url(#p22218857e7)" style="fill: none; stroke: #ffffff; stroke-width: 0.8; stroke-linecap: square"/>
     </g>
     <g id="line2d_22">
      <g>
       <use xlink:href="#m8051eea748" x="326.727273" y="384.48" style="fill: #ffffff; stroke: #ffffff; stroke-width: 0.8"/>
      </g>
     </g>
     <g id="text_11">
      <!-- 2001 -->
      <g style="fill: #ffffff" transform="translate(319.680512 414.848774) rotate(-45) scale(0.1 -0.1)">
       <use xlink:href="#DejaVuSans-32"/>
       <use xlink:href="#DejaVuSans-30" x="63.623047"/>
       <use xlink:href="#DejaVuSans-30" x="127.246094"/>
       <use xlink:href="#DejaVuSans-31" x="190.869141"/>
      </g>
     </g>
    </g>
    <g id="xtick_12">
     <g id="line2d_23">
      <path d="M 347.863636 384.48 
L 347.863636 51.84 
" clip-path="url(#p22218857e7)" style="fill: none; stroke: #ffffff; stroke-width: 0.8; stroke-linecap: square"/>
     </g>
     <g id="line2d_24">
      <g>
       <use xlink:href="#m8051eea748" x="347.863636" y="384.48" style="fill: #ffffff; stroke: #ffffff; stroke-width: 0.8"/>
      </g>
     </g>
     <g id="text_12">
      <!-- 2201 -->
      <g style="fill: #ffffff" transform="translate(340.816875 414.848774) rotate(-45) scale(0.1 -0.1)">
       <use xlink:href="#DejaVuSans-32"/>
       <use xlink:href="#DejaVuSans-32" x="63.623047"/>
       <use xlink:href="#DejaVuSans-30" x="127.246094"/>
       <use xlink:href="#DejaVuSans-31" x="190.869141"/>
      </g>
     </g>
    </g>
    <g id="xtick_13">
     <g id="line2d_25">
      <path d="M 369 384.48 
L 369 51.84 
" clip-path="url(#p22218857e7)" style="fill: none; stroke: #ffffff; stroke-width: 0.8; stroke-linecap: square"/>
     </g>
     <g id="line2d_26">
      <g>
       <use xlink:href="#m8051eea748" x="369" y="384.48" style="fill: #ffffff; stroke: #ffffff; stroke-width: 0.8"/>
      </g>
     </g>
     <g id="text_13">
      <!-- 2401 -->
      <g style="fill: #ffffff" transform="translate(361.953239 414.848774) rotate(-45) scale(0.1 -0.1)">
       <use xlink:href="#DejaVuSans-32"/>
       <use xlink:href="#DejaVuSans-34" x="63.623047"/>
       <use xlink:href="#DejaVuSans-30" x="127.246094"/>
       <use xlink:href="#DejaVuSans-31" x="190.869141"/>
      </g>
     </g>
    </g>
    <g id="xtick_14">
     <g id="line2d_27">
      <path d="M 390.136364 384.48 
L 390.136364 51.84 
" clip-path="url(#p22218857e7)" style="fill: none; stroke: #ffffff; stroke-width: 0.8; stroke-linecap: square"/>
     </g>
     <g id="line2d_28">
      <g>
       <use xlink:href="#m8051eea748" x="390.136364" y="384.48" style="fill: #ffffff; stroke: #ffffff; stroke-width: 0.8"/>
      </g>
     </g>
     <g id="text_14">
      <!-- 2601 -->
      <g style="fill: #ffffff" transform="translate(383.089603 414.848774) rotate(-45) scale(0.1 -0.1)">
       <use xlink:href="#DejaVuSans-32"/>
       <use xlink:href="#DejaVuSans-36" x="63.623047"/>
       <use xlink:href="#DejaVuSans-30" x="127.246094"/>
       <use xlink:href="#DejaVuSans-31" x="190.869141"/>
      </g>
     </g>
    </g>
    <g id="xtick_15">
     <g id="line2d_29">
      <path d="M 411.272727 384.48 
L 411.272727 51.84 
" clip-path="url(#p22218857e7)" style="fill: none; stroke: #ffffff; stroke-width: 0.8; stroke-linecap: square"/>
     </g>
     <g id="line2d_30">
      <g>
       <use xlink:href="#m8051eea748" x="411.272727" y="384.48" style="fill: #ffffff; stroke: #ffffff; stroke-width: 0.8"/>
      </g>
     </g>
     <g id="text_15">
      <!-- 2801 -->
      <g style="fill: #ffffff" transform="translate(404.225966 414.848774) rotate(-45) scale(0.1 -0.1)">
       <use xlink:href="#DejaVuSans-32"/>
       <use xlink:href="#DejaVuSans-38" x="63.623047"/>
       <use xlink:href="#DejaVuSans-30" x="127.246094"/>
       <use xlink:href="#DejaVuSans-31" x="190.869141"/>
      </g>
     </g>
    </g>
    <g id="xtick_16">
     <g id="line2d_31">
      <path d="M 432.409091 384.48 
L 432.409091 51.84 
" clip-path="url(#p22218857e7)" style="fill: none; stroke: #ffffff; stroke-width: 0.8; stroke-linecap: square"/>
     </g>
     <g id="line2d_32">
      <g>
       <use xlink:href="#m8051eea748" x="432.409091" y="384.48" style="fill: #ffffff; stroke: #ffffff; stroke-width: 0.8"/>
      </g>
     </g>
     <g id="text_16">
      <!-- 3001 -->
      <g style="fill: #ffffff" transform="translate(425.36233 414.848774) rotate(-45) scale(0.1 -0.1)">
       <defs>
        <path id="DejaVuSans-33" d="M 2597 2516 
Q 3050 2419 3304 2112 
Q 3559 1806 3559 1356 
Q 3559 666 3084 287 
Q 2609 -91 1734 -91 
Q 1441 -91 1130 -33 
Q 819 25 488 141 
L 488 750 
Q 750 597 1062 519 
Q 1375 441 1716 441 
Q 2309 441 2620 675 
Q 2931 909 2931 1356 
Q 2931 1769 2642 2001 
Q 2353 2234 1838 2234 
L 1294 2234 
L 1294 2753 
L 1863 2753 
Q 2328 2753 2575 2939 
Q 2822 3125 2822 3475 
Q 2822 3834 2567 4026 
Q 2313 4219 1838 4219 
Q 1578 4219 1281 4162 
Q 984 4106 628 3988 
L 628 4550 
Q 988 4650 1302 4700 
Q 1616 4750 1894 4750 
Q 2613 4750 3031 4423 
Q 3450 4097 3450 3541 
Q 3450 3153 3228 2886 
Q 3006 2619 2597 2516 
z
" transform="scale(0.015625)"/>
       </defs>
       <use xlink:href="#DejaVuSans-33"/>
       <use xlink:href="#DejaVuSans-30" x="63.623047"/>
       <use xlink:href="#DejaVuSans-30" x="127.246094"/>
       <use xlink:href="#DejaVuSans-31" x="190.869141"/>
      </g>
     </g>
    </g>
    <g id="xtick_17">
     <g id="line2d_33">
      <path d="M 453.545455 384.48 
L 453.545455 51.84 
" clip-path="url(#p22218857e7)" style="fill: none; stroke: #ffffff; stroke-width: 0.8; stroke-linecap: square"/>
     </g>
     <g id="line2d_34">
      <g>
       <use xlink:href="#m8051eea748" x="453.545455" y="384.48" style="fill: #ffffff; stroke: #ffffff; stroke-width: 0.8"/>
      </g>
     </g>
     <g id="text_17">
      <!-- 3201 -->
      <g style="fill: #ffffff" transform="translate(446.498694 414.848774) rotate(-45) scale(0.1 -0.1)">
       <use xlink:href="#DejaVuSans-33"/>
       <use xlink:href="#DejaVuSans-32" x="63.623047"/>
       <use xlink:href="#DejaVuSans-30" x="127.246094"/>
       <use xlink:href="#DejaVuSans-31" x="190.869141"/>
      </g>
     </g>
    </g>
    <g id="xtick_18">
     <g id="line2d_35">
      <path d="M 474.681818 384.48 
L 474.681818 51.84 
" clip-path="url(#p22218857e7)" style="fill: none; stroke: #ffffff; stroke-width: 0.8; stroke-linecap: square"/>
     </g>
     <g id="line2d_36">
      <g>
       <use xlink:href="#m8051eea748" x="474.681818" y="384.48" style="fill: #ffffff; stroke: #ffffff; stroke-width: 0.8"/>
      </g>
     </g>
     <g id="text_18">
      <!-- 3401 -->
      <g style="fill: #ffffff" transform="translate(467.635057 414.848774) rotate(-45) scale(0.1 -0.1)">
       <use xlink:href="#DejaVuSans-33"/>
       <use xlink:href="#DejaVuSans-34" x="63.623047"/>
       <use xlink:href="#DejaVuSans-30" x="127.246094"/>
       <use xlink:href="#DejaVuSans-31" x="190.869141"/>
      </g>
     </g>
    </g>
    <g id="xtick_19">
     <g id="line2d_37">
      <path d="M 495.818182 384.48 
L 495.818182 51.84 
" clip-path="url(#p22218857e7)" style="fill: none; stroke: #ffffff; stroke-width: 0.8; stroke-linecap: square"/>
     </g>
     <g id="line2d_38">
      <g>
       <use xlink:href="#m8051eea748" x="495.818182" y="384.48" style="fill: #ffffff; stroke: #ffffff; stroke-width: 0.8"/>
      </g>
     </g>
     <g id="text_19">
      <!-- 3601 -->
      <g style="fill: #ffffff" transform="translate(488.771421 414.848774) rotate(-45) scale(0.1 -0.1)">
       <use xlink:href="#DejaVuSans-33"/>
       <use xlink:href="#DejaVuSans-36" x="63.623047"/>
       <use xlink:href="#DejaVuSans-30" x="127.246094"/>
       <use xlink:href="#DejaVuSans-31" x="190.869141"/>
      </g>
     </g>
    </g>
    <g id="xtick_20">
     <g id="line2d_39">
      <path d="M 516.954545 384.48 
L 516.954545 51.84 
" clip-path="url(#p22218857e7)" style="fill: none; stroke: #ffffff; stroke-width: 0.8; stroke-linecap: square"/>
     </g>
     <g id="line2d_40">
      <g>
       <use xlink:href="#m8051eea748" x="516.954545" y="384.48" style="fill: #ffffff; stroke: #ffffff; stroke-width: 0.8"/>
      </g>
     </g>
     <g id="text_20">
      <!-- 3801 -->
      <g style="fill: #ffffff" transform="translate(509.907784 414.848774) rotate(-45) scale(0.1 -0.1)">
       <use xlink:href="#DejaVuSans-33"/>
       <use xlink:href="#DejaVuSans-38" x="63.623047"/>
       <use xlink:href="#DejaVuSans-30" x="127.246094"/>
       <use xlink:href="#DejaVuSans-31" x="190.869141"/>
      </g>
     </g>
    </g>
    <g id="xtick_21">
     <g id="line2d_41">
      <path d="M 538.090909 384.48 
L 538.090909 51.84 
" clip-path="url(#p22218857e7)" style="fill: none; stroke: #ffffff; stroke-width: 0.8; stroke-linecap: square"/>
     </g>
     <g id="line2d_42">
      <g>
       <use xlink:href="#m8051eea748" x="538.090909" y="384.48" style="fill: #ffffff; stroke: #ffffff; stroke-width: 0.8"/>
      </g>
     </g>
     <g id="text_21">
      <!-- 4001 -->
      <g style="fill: #ffffff" transform="translate(531.044148 414.848774) rotate(-45) scale(0.1 -0.1)">
       <use xlink:href="#DejaVuSans-34"/>
       <use xlink:href="#DejaVuSans-30" x="63.623047"/>
       <use xlink:href="#DejaVuSans-30" x="127.246094"/>
       <use xlink:href="#DejaVuSans-31" x="190.869141"/>
      </g>
     </g>
    </g>
    <g id="xtick_22">
     <g id="line2d_43">
      <path d="M 559.227273 384.48 
L 559.227273 51.84 
" clip-path="url(#p22218857e7)" style="fill: none; stroke: #ffffff; stroke-width: 0.8; stroke-linecap: square"/>
     </g>
     <g id="line2d_44">
      <g>
       <use xlink:href="#m8051eea748" x="559.227273" y="384.48" style="fill: #ffffff; stroke: #ffffff; stroke-width: 0.8"/>
      </g>
     </g>
     <g id="text_22">
      <!-- 4201 -->
      <g style="fill: #ffffff" transform="translate(552.180512 414.848774) rotate(-45) scale(0.1 -0.1)">
       <use xlink:href="#DejaVuSans-34"/>
       <use xlink:href="#DejaVuSans-32" x="63.623047"/>
       <use xlink:href="#DejaVuSans-30" x="127.246094"/>
       <use xlink:href="#DejaVuSans-31" x="190.869141"/>
      </g>
     </g>
    </g>
    <g id="xtick_23">
     <g id="line2d_45">
      <path d="M 580.363636 384.48 
L 580.363636 51.84 
" clip-path="url(#p22218857e7)" style="fill: none; stroke: #ffffff; stroke-width: 0.8; stroke-linecap: square"/>
     </g>
     <g id="line2d_46">
      <g>
       <use xlink:href="#m8051eea748" x="580.363636" y="384.48" style="fill: #ffffff; stroke: #ffffff; stroke-width: 0.8"/>
      </g>
     </g>
     <g id="text_23">
      <!-- 4401 -->
      <g style="fill: #ffffff" transform="translate(573.316875 414.848774) rotate(-45) scale(0.1 -0.1)">
       <use xlink:href="#DejaVuSans-34"/>
       <use xlink:href="#DejaVuSans-34" x="63.623047"/>
       <use xlink:href="#DejaVuSans-30" x="127.246094"/>
       <use xlink:href="#DejaVuSans-31" x="190.869141"/>
      </g>
     </g>
    </g>
    <g id="xtick_24">
     <g id="line2d_47">
      <path d="M 601.5 384.48 
L 601.5 51.84 
" clip-path="url(#p22218857e7)" style="fill: none; stroke: #ffffff; stroke-width: 0.8; stroke-linecap: square"/>
     </g>
     <g id="line2d_48">
      <g>
       <use xlink:href="#m8051eea748" x="601.5" y="384.48" style="fill: #ffffff; stroke: #ffffff; stroke-width: 0.8"/>
      </g>
     </g>
     <g id="text_24">
      <!-- 4601 -->
      <g style="fill: #ffffff" transform="translate(594.453239 414.848774) rotate(-45) scale(0.1 -0.1)">
       <use xlink:href="#DejaVuSans-34"/>
       <use xlink:href="#DejaVuSans-36" x="63.623047"/>
       <use xlink:href="#DejaVuSans-30" x="127.246094"/>
       <use xlink:href="#DejaVuSans-31" x="190.869141"/>
      </g>
     </g>
    </g>
    <g id="xtick_25">
     <g id="line2d_49">
      <path d="M 622.636364 384.48 
L 622.636364 51.84 
" clip-path="url(#p22218857e7)" style="fill: none; stroke: #ffffff; stroke-width: 0.8; stroke-linecap: square"/>
     </g>
     <g id="line2d_50">
      <g>
       <use xlink:href="#m8051eea748" x="622.636364" y="384.48" style="fill: #ffffff; stroke: #ffffff; stroke-width: 0.8"/>
      </g>
     </g>
     <g id="text_25">
      <!-- 4801 -->
      <g style="fill: #ffffff" transform="translate(615.589603 414.848774) rotate(-45) scale(0.1 -0.1)">
       <use xlink:href="#DejaVuSans-34"/>
       <use xlink:href="#DejaVuSans-38" x="63.623047"/>
       <use xlink:href="#DejaVuSans-30" x="127.246094"/>
       <use xlink:href="#DejaVuSans-31" x="190.869141"/>
      </g>
     </g>
    </g>
    <g id="text_26">
     <!-- concurrency -->
     <g style="fill: #ffffff" transform="translate(338.239844 427.917773) scale(0.1 -0.1)">
      <defs>
       <path id="DejaVuSans-63" d="M 3122 3366 
L 3122 2828 
Q 2878 2963 2633 3030 
Q 2388 3097 2138 3097 
Q 1578 3097 1268 2742 
Q 959 2388 959 1747 
Q 959 1106 1268 751 
Q 1578 397 2138 397 
Q 2388 397 2633 464 
Q 2878 531 3122 666 
L 3122 134 
Q 2881 22 2623 -34 
Q 2366 -91 2075 -91 
Q 1284 -91 818 406 
Q 353 903 353 1747 
Q 353 2603 823 3093 
Q 1294 3584 2113 3584 
Q 2378 3584 2631 3529 
Q 2884 3475 3122 3366 
z
" transform="scale(0.015625)"/>
       <path id="DejaVuSans-6f" d="M 1959 3097 
Q 1497 3097 1228 2736 
Q 959 2375 959 1747 
Q 959 1119 1226 758 
Q 1494 397 1959 397 
Q 2419 397 2687 759 
Q 2956 1122 2956 1747 
Q 2956 2369 2687 2733 
Q 2419 3097 1959 3097 
z
M 1959 3584 
Q 2709 3584 3137 3096 
Q 3566 2609 3566 1747 
Q 3566 888 3137 398 
Q 2709 -91 1959 -91 
Q 1206 -91 779 398 
Q 353 888 353 1747 
Q 353 2609 779 3096 
Q 1206 3584 1959 3584 
z
" transform="scale(0.015625)"/>
       <path id="DejaVuSans-6e" d="M 3513 2113 
L 3513 0 
L 2938 0 
L 2938 2094 
Q 2938 2591 2744 2837 
Q 2550 3084 2163 3084 
Q 1697 3084 1428 2787 
Q 1159 2491 1159 1978 
L 1159 0 
L 581 0 
L 581 3500 
L 1159 3500 
L 1159 2956 
Q 1366 3272 1645 3428 
Q 1925 3584 2291 3584 
Q 2894 3584 3203 3211 
Q 3513 2838 3513 2113 
z
" transform="scale(0.015625)"/>
       <path id="DejaVuSans-75" d="M 544 1381 
L 544 3500 
L 1119 3500 
L 1119 1403 
Q 1119 906 1312 657 
Q 1506 409 1894 409 
Q 2359 409 2629 706 
Q 2900 1003 2900 1516 
L 2900 3500 
L 3475 3500 
L 3475 0 
L 2900 0 
L 2900 538 
Q 2691 219 2414 64 
Q 2138 -91 1772 -91 
Q 1169 -91 856 284 
Q 544 659 544 1381 
z
M 1991 3584 
L 1991 3584 
z
" transform="scale(0.015625)"/>
       <path id="DejaVuSans-72" d="M 2631 2963 
Q 2534 3019 2420 3045 
Q 2306 3072 2169 3072 
Q 1681 3072 1420 2755 
Q 1159 2438 1159 1844 
L 1159 0 
L 581 0 
L 581 3500 
L 1159 3500 
L 1159 2956 
Q 1341 3275 1631 3429 
Q 1922 3584 2338 3584 
Q 2397 3584 2469 3576 
Q 2541 3569 2628 3553 
L 2631 2963 
z
" transform="scale(0.015625)"/>
       <path id="DejaVuSans-65" d="M 3597 1894 
L 3597 1613 
L 953 1613 
Q 991 1019 1311 708 
Q 1631 397 2203 397 
Q 2534 397 2845 478 
Q 3156 559 3463 722 
L 3463 178 
Q 3153 47 2828 -22 
Q 2503 -91 2169 -91 
Q 1331 -91 842 396 
Q 353 884 353 1716 
Q 353 2575 817 3079 
Q 1281 3584 2069 3584 
Q 2775 3584 3186 3129 
Q 3597 2675 3597 1894 
z
M 3022 2063 
Q 3016 2534 2758 2815 
Q 2500 3097 2075 3097 
Q 1594 3097 1305 2825 
Q 1016 2553 972 2059 
L 3022 2063 
z
" transform="scale(0.015625)"/>
       <path id="DejaVuSans-79" d="M 2059 -325 
Q 1816 -950 1584 -1140 
Q 1353 -1331 966 -1331 
L 506 -1331 
L 506 -850 
L 844 -850 
Q 1081 -850 1212 -737 
Q 1344 -625 1503 -206 
L 1606 56 
L 191 3500 
L 800 3500 
L 1894 763 
L 2988 3500 
L 3597 3500 
L 2059 -325 
z
" transform="scale(0.015625)"/>
      </defs>
      <use xlink:href="#DejaVuSans-63"/>
      <use xlink:href="#DejaVuSans-6f" x="54.980469"/>
      <use xlink:href="#DejaVuSans-6e" x="116.162109"/>
      <use xlink:href="#DejaVuSans-63" x="179.541016"/>
      <use xlink:href="#DejaVuSans-75" x="234.521484"/>
      <use xlink:href="#DejaVuSans-72" x="297.900391"/>
      <use xlink:href="#DejaVuSans-72" x="337.263672"/>
      <use xlink:href="#DejaVuSans-65" x="376.126953"/>
      <use xlink:href="#DejaVuSans-6e" x="437.650391"/>
      <use xlink:href="#DejaVuSans-63" x="501.029297"/>
      <use xlink:href="#DejaVuSans-79" x="556.009766"/>
     </g>
    </g>
   </g>
   <g id="matplotlib.axis_2">
    <g id="ytick_1">
     <g id="line2d_51">
      <path d="M 90 341.088604 
L 648 341.088604 
" clip-path="url(#p22218857e7)" style="fill: none; stroke: #ffffff; stroke-width: 0.8; stroke-linecap: square"/>
     </g>
     <g id="line2d_52">
      <defs>
       <path id="m016957f9f1" d="M 0 0 
L -3.5 0 
" style="stroke: #ffffff; stroke-width: 0.8"/>
      </defs>
      <g>
       <use xlink:href="#m016957f9f1" x="90" y="341.088604" style="fill: #ffffff; stroke: #ffffff; stroke-width: 0.8"/>
      </g>
     </g>
     <g id="text_27">
      <!-- 100 -->
      <g style="fill: #ffffff" transform="translate(63.9125 344.887823) scale(0.1 -0.1)">
       <use xlink:href="#DejaVuSans-31"/>
       <use xlink:href="#DejaVuSans-30" x="63.623047"/>
       <use xlink:href="#DejaVuSans-30" x="127.246094"/>
      </g>
     </g>
    </g>
    <g id="ytick_2">
     <g id="line2d_53">
      <path d="M 90 278.295159 
L 648 278.295159 
" clip-path="url(#p22218857e7)" style="fill: none; stroke: #ffffff; stroke-width: 0.8; stroke-linecap: square"/>
     </g>
     <g id="line2d_54">
      <g>
       <use xlink:href="#m016957f9f1" x="90" y="278.295159" style="fill: #ffffff; stroke: #ffffff; stroke-width: 0.8"/>
      </g>
     </g>
     <g id="text_28">
      <!-- 200 -->
      <g style="fill: #ffffff" transform="translate(63.9125 282.094378) scale(0.1 -0.1)">
       <use xlink:href="#DejaVuSans-32"/>
       <use xlink:href="#DejaVuSans-30" x="63.623047"/>
       <use xlink:href="#DejaVuSans-30" x="127.246094"/>
      </g>
     </g>
    </g>
    <g id="ytick_3">
     <g id="line2d_55">
      <path d="M 90 215.501714 
L 648 215.501714 
" clip-path="url(#p22218857e7)" style="fill: none; stroke: #ffffff; stroke-width: 0.8; stroke-linecap: square"/>
     </g>
     <g id="line2d_56">
      <g>
       <use xlink:href="#m016957f9f1" x="90" y="215.501714" style="fill: #ffffff; stroke: #ffffff; stroke-width: 0.8"/>
      </g>
     </g>
     <g id="text_29">
      <!-- 300 -->
      <g style="fill: #ffffff" transform="translate(63.9125 219.300933) scale(0.1 -0.1)">
       <use xlink:href="#DejaVuSans-33"/>
       <use xlink:href="#DejaVuSans-30" x="63.623047"/>
       <use xlink:href="#DejaVuSans-30" x="127.246094"/>
      </g>
     </g>
    </g>
    <g id="ytick_4">
     <g id="line2d_57">
      <path d="M 90 152.708269 
L 648 152.708269 
" clip-path="url(#p22218857e7)" style="fill: none; stroke: #ffffff; stroke-width: 0.8; stroke-linecap: square"/>
     </g>
     <g id="line2d_58">
      <g>
       <use xlink:href="#m016957f9f1" x="90" y="152.708269" style="fill: #ffffff; stroke: #ffffff; stroke-width: 0.8"/>
      </g>
     </g>
     <g id="text_30">
      <!-- 400 -->
      <g style="fill: #ffffff" transform="translate(63.9125 156.507488) scale(0.1 -0.1)">
       <use xlink:href="#DejaVuSans-34"/>
       <use xlink:href="#DejaVuSans-30" x="63.623047"/>
       <use xlink:href="#DejaVuSans-30" x="127.246094"/>
      </g>
     </g>
    </g>
    <g id="ytick_5">
     <g id="line2d_59">
      <path d="M 90 89.914824 
L 648 89.914824 
" clip-path="url(#p22218857e7)" style="fill: none; stroke: #ffffff; stroke-width: 0.8; stroke-linecap: square"/>
     </g>
     <g id="line2d_60">
      <g>
       <use xlink:href="#m016957f9f1" x="90" y="89.914824" style="fill: #ffffff; stroke: #ffffff; stroke-width: 0.8"/>
      </g>
     </g>
     <g id="text_31">
      <!-- 500 -->
      <g style="fill: #ffffff" transform="translate(63.9125 93.714042) scale(0.1 -0.1)">
       <defs>
        <path id="DejaVuSans-35" d="M 691 4666 
L 3169 4666 
L 3169 4134 
L 1269 4134 
L 1269 2991 
Q 1406 3038 1543 3061 
Q 1681 3084 1819 3084 
Q 2600 3084 3056 2656 
Q 3513 2228 3513 1497 
Q 3513 744 3044 326 
Q 2575 -91 1722 -91 
Q 1428 -91 1123 -41 
Q 819 9 494 109 
L 494 744 
Q 775 591 1075 516 
Q 1375 441 1709 441 
Q 2250 441 2565 725 
Q 2881 1009 2881 1497 
Q 2881 1984 2565 2268 
Q 2250 2553 1709 2553 
Q 1456 2553 1204 2497 
Q 953 2441 691 2322 
L 691 4666 
z
" transform="scale(0.015625)"/>
       </defs>
       <use xlink:href="#DejaVuSans-35"/>
       <use xlink:href="#DejaVuSans-30" x="63.623047"/>
       <use xlink:href="#DejaVuSans-30" x="127.246094"/>
      </g>
     </g>
    </g>
    <g id="text_32">
     <!-- time (ms) -->
     <g style="fill: #ffffff" transform="translate(57.832812 242.421719) rotate(-90) scale(0.1 -0.1)">
      <defs>
       <path id="DejaVuSans-74" d="M 1172 4494 
L 1172 3500 
L 2356 3500 
L 2356 3053 
L 1172 3053 
L 1172 1153 
Q 1172 725 1289 603 
Q 1406 481 1766 481 
L 2356 481 
L 2356 0 
L 1766 0 
Q 1100 0 847 248 
Q 594 497 594 1153 
L 594 3053 
L 172 3053 
L 172 3500 
L 594 3500 
L 594 4494 
L 1172 4494 
z
" transform="scale(0.015625)"/>
       <path id="DejaVuSans-69" d="M 603 3500 
L 1178 3500 
L 1178 0 
L 603 0 
L 603 3500 
z
M 603 4863 
L 1178 4863 
L 1178 4134 
L 603 4134 
L 603 4863 
z
" transform="scale(0.015625)"/>
       <path id="DejaVuSans-6d" d="M 3328 2828 
Q 3544 3216 3844 3400 
Q 4144 3584 4550 3584 
Q 5097 3584 5394 3201 
Q 5691 2819 5691 2113 
L 5691 0 
L 5113 0 
L 5113 2094 
Q 5113 2597 4934 2840 
Q 4756 3084 4391 3084 
Q 3944 3084 3684 2787 
Q 3425 2491 3425 1978 
L 3425 0 
L 2847 0 
L 2847 2094 
Q 2847 2600 2669 2842 
Q 2491 3084 2119 3084 
Q 1678 3084 1418 2786 
Q 1159 2488 1159 1978 
L 1159 0 
L 581 0 
L 581 3500 
L 1159 3500 
L 1159 2956 
Q 1356 3278 1631 3431 
Q 1906 3584 2284 3584 
Q 2666 3584 2933 3390 
Q 3200 3197 3328 2828 
z
" transform="scale(0.015625)"/>
       <path id="DejaVuSans-20" transform="scale(0.015625)"/>
       <path id="DejaVuSans-28" d="M 1984 4856 
Q 1566 4138 1362 3434 
Q 1159 2731 1159 2009 
Q 1159 1288 1364 580 
Q 1569 -128 1984 -844 
L 1484 -844 
Q 1016 -109 783 600 
Q 550 1309 550 2009 
Q 550 2706 781 3412 
Q 1013 4119 1484 4856 
L 1984 4856 
z
" transform="scale(0.015625)"/>
       <path id="DejaVuSans-73" d="M 2834 3397 
L 2834 2853 
Q 2591 2978 2328 3040 
Q 2066 3103 1784 3103 
Q 1356 3103 1142 2972 
Q 928 2841 928 2578 
Q 928 2378 1081 2264 
Q 1234 2150 1697 2047 
L 1894 2003 
Q 2506 1872 2764 1633 
Q 3022 1394 3022 966 
Q 3022 478 2636 193 
Q 2250 -91 1575 -91 
Q 1294 -91 989 -36 
Q 684 19 347 128 
L 347 722 
Q 666 556 975 473 
Q 1284 391 1588 391 
Q 1994 391 2212 530 
Q 2431 669 2431 922 
Q 2431 1156 2273 1281 
Q 2116 1406 1581 1522 
L 1381 1569 
Q 847 1681 609 1914 
Q 372 2147 372 2553 
Q 372 3047 722 3315 
Q 1072 3584 1716 3584 
Q 2034 3584 2315 3537 
Q 2597 3491 2834 3397 
z
" transform="scale(0.015625)"/>
       <path id="DejaVuSans-29" d="M 513 4856 
L 1013 4856 
Q 1481 4119 1714 3412 
Q 1947 2706 1947 2009 
Q 1947 1309 1714 600 
Q 1481 -109 1013 -844 
L 513 -844 
Q 928 -128 1133 580 
Q 1338 1288 1338 2009 
Q 1338 2731 1133 3434 
Q 928 4138 513 4856 
z
" transform="scale(0.015625)"/>
      </defs>
      <use xlink:href="#DejaVuSans-74"/>
      <use xlink:href="#DejaVuSans-69" x="39.208984"/>
      <use xlink:href="#DejaVuSans-6d" x="66.992188"/>
      <use xlink:href="#DejaVuSans-65" x="164.404297"/>
      <use xlink:href="#DejaVuSans-20" x="225.927734"/>
      <use xlink:href="#DejaVuSans-28" x="257.714844"/>
      <use xlink:href="#DejaVuSans-6d" x="296.728516"/>
      <use xlink:href="#DejaVuSans-73" x="394.140625"/>
      <use xlink:href="#DejaVuSans-29" x="446.240234"/>
     </g>
    </g>
   </g>
   <g id="line2d_61">
    <path d="M 115.363636 66.439602 
L 117.057368 112.588561 
L 118.7511 154.339841 
L 120.444832 191.89995 
L 122.138564 225.475398 
L 123.832296 255.272693 
L 125.526028 281.498346 
L 127.21976 304.358865 
L 128.913492 324.060759 
L 130.607224 340.810538 
L 132.300956 354.814711 
L 133.994688 366.279787 
L 135.68842 375.412276 
L 136.535286 379.168334 
L 137.382152 382.418686 
L 138.229018 385.189145 
L 139.075884 387.505527 
L 139.92275 389.393643 
L 140.769616 390.879307 
L 141.616482 391.988334 
L 142.463348 392.746537 
L 143.310214 393.17973 
L 144.15708 393.313726 
L 145.003946 393.174338 
L 145.850812 392.787382 
L 146.697678 392.178669 
L 147.544544 391.374015 
L 149.238276 389.280133 
L 150.932008 386.712248 
L 156.86007 376.973336 
L 158.553802 374.820961 
L 160.247534 373.18259 
L 161.941266 372.003988 
L 163.634998 371.226667 
L 165.32873 370.79214 
L 167.022462 370.64192 
L 168.716194 370.717519 
L 171.256792 371.126389 
L 178.03172 372.556186 
L 179.725452 372.676313 
L 181.419183 372.628891 
L 183.959781 372.285454 
L 186.500379 371.675469 
L 189.887843 370.564613 
L 195.815905 368.253156 
L 200.050235 366.717221 
L 203.437699 365.759791 
L 206.825163 365.038276 
L 211.059493 364.400467 
L 216.140689 363.907907 
L 235.618607 362.378236 
L 239.852937 361.732606 
L 244.087267 360.858879 
L 249.168463 359.547932 
L 260.17772 356.57881 
L 264.41205 355.707921 
L 268.64638 355.103238 
L 272.88071 354.720503 
L 277.961906 354.475977 
L 286.430566 354.340055 
L 294.899226 354.141733 
L 299.980422 353.78708 
L 304.214752 353.260419 
L 308.449082 352.466311 
L 313.530278 351.237745 
L 324.539536 348.46898 
L 328.773866 347.700323 
L 333.008195 347.186375 
L 338.089391 346.820923 
L 345.711185 346.555475 
L 365.189103 346.142322 
L 371.117165 346.311752 
L 377.045227 346.472817 
L 380.432691 346.313146 
L 382.973289 345.975481 
L 385.513887 345.391171 
L 388.054485 344.506339 
L 389.748217 343.722887 
L 392.288815 342.234763 
L 394.829413 340.447229 
L 399.063743 337.119927 
L 403.298073 333.826563 
L 405.838671 332.091974 
L 408.379268 330.681331 
L 410.073 329.978602 
L 411.766732 329.506147 
L 413.460464 329.274041 
L 415.154196 329.250277 
L 417.694794 329.526086 
L 420.235392 330.067036 
L 428.704052 332.216421 
L 431.24465 332.49449 
L 432.938382 332.473046 
L 434.632114 332.268263 
L 437.172712 331.678243 
L 439.71331 330.841705 
L 449.875702 327.12051 
L 452.4163 326.618989 
L 454.110032 326.489143 
L 456.65063 326.605218 
L 459.191228 326.974258 
L 465.966156 328.112365 
L 468.506754 328.190885 
L 470.200486 328.023447 
L 471.894218 327.630967 
L 473.58795 326.971261 
L 475.281682 326.002854 
L 476.975414 324.721083 
L 478.669146 323.17526 
L 481.209744 320.478709 
L 484.597207 316.45952 
L 489.678403 310.393843 
L 492.219001 307.736452 
L 493.912733 306.226778 
L 495.606465 304.989188 
L 497.300197 304.06702 
L 498.993929 303.443593 
L 500.687661 303.080504 
L 502.381393 302.939321 
L 504.075125 302.981611 
L 506.615723 303.304986 
L 510.003187 304.019601 
L 514.237517 304.936041 
L 516.778115 305.267667 
L 519.318713 305.304446 
L 521.859311 305.078944 
L 525.246775 304.498293 
L 534.562301 302.609628 
L 537.102899 302.365919 
L 539.643497 302.374095 
L 542.184095 302.64175 
L 544.724693 303.130023 
L 548.112157 304.055136 
L 552.346487 305.518747 
L 565.049476 310.196053 
L 568.43694 311.102886 
L 570.977538 311.594719 
L 573.518136 311.889173 
L 576.058734 311.953859 
L 578.599332 311.756388 
L 581.13993 311.264855 
L 583.680528 310.48313 
L 586.221126 309.47482 
L 589.60859 307.89769 
L 598.07725 303.80915 
L 600.617848 302.825543 
L 603.158446 302.077239 
L 605.699044 301.633521 
L 607.392776 301.541138 
L 609.086508 301.635447 
L 610.78024 301.936977 
L 612.473972 302.466256 
L 614.167704 303.243813 
L 615.861436 304.290176 
L 617.555168 305.625873 
L 619.2489 307.271432 
L 620.942632 309.247383 
L 622.636364 311.574252 
L 622.636364 311.574252 
" clip-path="url(#p22218857e7)" style="fill: none; stroke: #8dd3c7; stroke-width: 1.5; stroke-linecap: square"/>
   </g>
   <g id="line2d_62">
    <path d="M 115.363636 69.775248 
L 117.057368 115.389372 
L 118.7511 156.648329 
L 120.444832 193.757145 
L 122.138564 226.920848 
L 123.832296 256.344464 
L 125.526028 282.233019 
L 127.21976 304.79154 
L 128.913492 324.225054 
L 130.607224 340.738587 
L 132.300956 354.537165 
L 133.994688 365.825816 
L 135.68842 374.809566 
L 136.535286 378.501174 
L 137.382152 381.693441 
L 138.229018 384.411997 
L 139.075884 386.682469 
L 139.92275 388.530485 
L 140.769616 389.981675 
L 141.616482 391.061666 
L 142.463348 391.796086 
L 143.310214 392.210564 
L 144.15708 392.330729 
L 145.003946 392.182208 
L 145.850812 391.790631 
L 146.697678 391.181624 
L 147.544544 390.380817 
L 149.238276 388.306315 
L 150.932008 385.772152 
L 156.86007 376.242813 
L 158.553802 374.17031 
L 160.247534 372.617047 
L 161.941266 371.525626 
L 163.634998 370.834369 
L 165.32873 370.481597 
L 167.022462 370.405634 
L 168.716194 370.544801 
L 171.256792 371.022 
L 177.184854 372.308865 
L 178.878586 372.443582 
L 180.572317 372.37958 
L 182.266049 372.132435 
L 184.806647 371.479298 
L 187.347245 370.570882 
L 191.581575 368.745082 
L 196.662771 366.576277 
L 199.203369 365.720448 
L 201.743967 365.132888 
L 204.284565 364.806838 
L 206.825163 364.684836 
L 210.212627 364.739313 
L 220.375019 365.085508 
L 222.915617 364.914495 
L 226.303081 364.446582 
L 230.537411 363.570766 
L 236.465473 362.03849 
L 244.087267 360.07469 
L 249.168463 359.024153 
L 254.249659 358.20968 
L 259.330854 357.631484 
L 264.41205 357.289583 
L 270.340112 357.139337 
L 283.889968 356.893212 
L 288.971164 356.511495 
L 294.05236 355.913517 
L 299.980422 354.984621 
L 306.75535 353.67959 
L 322.845804 350.406388 
L 327.927 349.690803 
L 333.008195 349.236051 
L 339.783123 348.878228 
L 350.792381 348.31183 
L 358.414175 347.641315 
L 369.423433 346.410616 
L 376.198361 345.496254 
L 380.432691 344.665734 
L 383.820155 343.753438 
L 386.360753 342.881628 
L 388.901351 341.818319 
L 391.441949 340.538277 
L 394.829413 338.548919 
L 404.144939 332.837941 
L 406.685537 331.586115 
L 409.226134 330.613805 
L 410.919866 330.159705 
L 412.613598 329.88396 
L 414.30733 329.77457 
L 416.847928 329.864839 
L 419.388526 330.181195 
L 423.622856 330.969059 
L 427.857186 331.725463 
L 430.397784 331.99274 
L 432.938382 332.011521 
L 435.47898 331.739429 
L 438.019578 331.235248 
L 441.407042 330.326608 
L 449.028836 328.127605 
L 451.569434 327.60343 
L 454.110032 327.303564 
L 456.65063 327.253906 
L 460.038094 327.45312 
L 467.659888 328.056702 
L 470.200486 328.012239 
L 472.741084 327.707389 
L 474.434816 327.318738 
L 476.128548 326.757926 
L 478.669146 325.618309 
L 481.209744 324.183069 
L 484.597207 321.931078 
L 489.678403 318.166607 
L 494.759599 314.438333 
L 498.147063 312.240081 
L 501.534527 310.338905 
L 504.921991 308.706589 
L 508.309455 307.313921 
L 511.696919 306.131689 
L 515.931249 304.905321 
L 520.165579 303.90998 
L 524.399909 303.135158 
L 528.634239 302.5913 
L 532.868569 302.28901 
L 537.102899 302.238891 
L 541.337229 302.449264 
L 545.571559 302.909658 
L 549.805889 303.600355 
L 554.040219 304.501575 
L 559.121414 305.83308 
L 572.67127 309.666614 
L 576.058734 310.246333 
L 578.599332 310.472399 
L 581.13993 310.479223 
L 583.680528 310.260623 
L 587.067992 309.695453 
L 591.302322 308.71184 
L 598.924116 306.848774 
L 602.31158 306.264609 
L 604.852178 306.026222 
L 607.392776 306.013282 
L 609.933374 306.274606 
L 611.627106 306.6253 
L 613.320838 307.134052 
L 615.01457 307.815326 
L 616.708302 308.683587 
L 618.402034 309.753301 
L 620.095766 311.038931 
L 621.789498 312.554943 
L 622.636364 313.403862 
L 622.636364 313.403862 
" clip-path="url(#p22218857e7)" style="fill: none; stroke: #feffb3; stroke-width: 1.5; stroke-linecap: square"/>
   </g>
   <g id="line2d_63">
    <path d="M 115.363636 68.78569 
L 117.057368 114.196732 
L 118.7511 155.327005 
L 120.444832 192.37508 
L 122.138564 225.539526 
L 123.832296 255.018912 
L 125.526028 281.011809 
L 127.21976 303.716784 
L 128.913492 323.332409 
L 130.607224 340.057252 
L 132.300956 354.089883 
L 133.994688 365.628871 
L 135.68842 374.872786 
L 137.382152 382.020198 
L 138.229018 384.869768 
L 139.075884 387.269675 
L 139.92275 389.244742 
L 140.769616 390.819788 
L 141.616482 392.019636 
L 142.463348 392.869106 
L 143.310214 393.39302 
L 144.15708 393.616198 
L 145.003946 393.563463 
L 145.850812 393.259634 
L 146.697678 392.729534 
L 147.544544 391.997984 
L 149.238276 390.029816 
L 150.932008 387.553701 
L 153.472606 383.321498 
L 156.013204 379.063365 
L 157.706936 376.541152 
L 159.400668 374.458122 
L 161.0944 372.805735 
L 162.788132 371.539848 
L 164.481864 370.616318 
L 166.175596 369.991 
L 167.869328 369.619751 
L 169.56306 369.458429 
L 172.103658 369.513491 
L 175.491122 369.909642 
L 179.725452 370.428346 
L 183.112915 370.565067 
L 186.500379 370.453474 
L 189.887843 370.13156 
L 194.122173 369.491286 
L 199.203369 368.472015 
L 207.672029 366.485186 
L 215.293823 364.753709 
L 220.375019 363.816376 
L 225.456215 363.147505 
L 240.699803 361.405385 
L 244.934133 360.551718 
L 251.709061 358.852909 
L 257.637122 357.448826 
L 261.024586 356.848781 
L 264.41205 356.49121 
L 267.799514 356.389414 
L 272.88071 356.523665 
L 279.655638 356.735769 
L 283.043102 356.640637 
L 286.430566 356.289443 
L 289.81803 355.683163 
L 294.05236 354.679835 
L 306.75535 351.462294 
L 310.98968 350.759944 
L 315.22401 350.305424 
L 319.45834 350.079769 
L 323.69267 350.06401 
L 328.773866 350.293201 
L 340.629989 351.012626 
L 344.017453 350.949863 
L 347.404917 350.637394 
L 350.792381 350.024259 
L 355.026711 348.94829 
L 364.342237 346.436794 
L 367.729701 345.837955 
L 370.270299 345.610769 
L 373.657763 345.575816 
L 382.126423 345.692603 
L 384.667021 345.46322 
L 387.207619 344.97223 
L 388.901351 344.460799 
L 390.595083 343.775124 
L 393.135681 342.418208 
L 395.676279 340.753115 
L 399.063743 338.23286 
L 405.838671 333.085203 
L 408.379268 331.434894 
L 410.919866 330.098676 
L 412.613598 329.429053 
L 414.30733 328.932496 
L 416.847928 328.45997 
L 419.388526 328.24243 
L 422.77599 328.209442 
L 430.397784 328.276178 
L 432.938382 328.05488 
L 435.47898 327.620044 
L 438.866444 326.804568 
L 447.335104 324.568742 
L 449.875702 324.116455 
L 452.4163 323.883747 
L 454.956898 323.93277 
L 457.497496 324.242274 
L 460.88496 324.898312 
L 466.813022 326.078356 
L 469.35362 326.348256 
L 471.894218 326.338323 
L 473.58795 326.128945 
L 475.281682 325.724662 
L 476.975414 325.118532 
L 479.516012 323.883914 
L 482.05661 322.337841 
L 485.444073 319.945648 
L 494.759599 313.048505 
L 497.300197 311.496671 
L 499.840795 310.170704 
L 503.228259 308.66304 
L 508.309455 306.69817 
L 513.390651 304.70357 
L 516.778115 303.14305 
L 520.165579 301.289344 
L 532.021703 294.404034 
L 534.562301 293.303609 
L 537.102899 292.488617 
L 538.796631 292.137569 
L 540.490363 291.952733 
L 542.184095 291.929423 
L 543.877827 292.062094 
L 546.418425 292.541434 
L 548.959023 293.340538 
L 551.499621 294.440691 
L 554.040219 295.823178 
L 556.580817 297.469282 
L 559.121414 299.360288 
L 563.355744 302.907178 
L 566.743208 305.72316 
L 569.283806 307.579917 
L 570.977538 308.609548 
L 572.67127 309.418687 
L 574.365002 309.961112 
L 576.058734 310.190597 
L 577.752466 310.060922 
L 579.446198 309.525861 
L 581.13993 308.541049 
L 582.833662 307.114478 
L 584.527394 305.312518 
L 586.221126 303.2046 
L 588.761724 299.620937 
L 593.84292 291.79441 
L 597.230384 286.840612 
L 598.924116 284.651176 
L 600.617848 282.74596 
L 602.31158 281.194395 
L 604.005312 280.065914 
L 604.852178 279.682028 
L 605.699044 279.42995 
L 606.54591 279.318359 
L 607.392776 279.355935 
L 608.239642 279.551356 
L 609.086508 279.913301 
L 609.933374 280.45045 
L 610.78024 281.171482 
L 611.627106 282.085075 
L 612.473972 283.199909 
L 613.320838 284.524662 
L 615.01457 287.838645 
L 616.708302 292.096455 
L 618.402034 297.367526 
L 620.095766 303.721289 
L 621.789498 311.227178 
L 622.636364 315.433867 
L 622.636364 315.433867 
" clip-path="url(#p22218857e7)" style="fill: none; stroke: #bfbbd9; stroke-width: 1.5; stroke-linecap: square"/>
   </g>
   <g id="line2d_64">
    <path d="M 115.363636 70.645206 
L 117.057368 115.61872 
L 118.7511 156.350038 
L 120.444832 193.036637 
L 122.138564 225.875995 
L 123.832296 255.065587 
L 125.526028 280.802891 
L 127.21976 303.285383 
L 128.913492 322.71054 
L 130.607224 339.275838 
L 132.300956 353.178754 
L 133.994688 364.616766 
L 135.68842 373.787349 
L 137.382152 380.887981 
L 138.229018 383.723776 
L 139.075884 386.116137 
L 139.92275 388.089749 
L 140.769616 389.669296 
L 141.616482 390.879462 
L 142.463348 391.744933 
L 143.310214 392.290392 
L 144.15708 392.540525 
L 145.003946 392.520016 
L 145.850812 392.253549 
L 146.697678 391.765809 
L 147.544544 391.081482 
L 149.238276 389.2218 
L 150.932008 386.87198 
L 154.319472 381.491833 
L 156.86007 377.638844 
L 158.553802 375.520649 
L 160.247534 373.860965 
L 161.941266 372.614731 
L 163.634998 371.732933 
L 165.32873 371.166552 
L 167.022462 370.866574 
L 168.716194 370.783981 
L 171.256792 370.960468 
L 174.644256 371.499149 
L 178.03172 372.025081 
L 180.572317 372.187287 
L 183.112915 372.100816 
L 185.653513 371.802212 
L 189.040977 371.1387 
L 193.275307 370.007426 
L 208.518895 365.539813 
L 213.600091 364.41574 
L 217.834421 363.69888 
L 222.068751 363.216085 
L 227.149947 362.910005 
L 236.465473 362.433517 
L 239.852937 362.063666 
L 243.240401 361.481864 
L 247.474731 360.456947 
L 258.483988 357.535662 
L 261.871452 356.954813 
L 264.41205 356.726422 
L 267.799514 356.702878 
L 272.033844 356.979297 
L 282.196236 357.827129 
L 285.5837 357.791553 
L 288.971164 357.483653 
L 292.358628 356.961834 
L 297.439824 355.924642 
L 307.602216 353.760248 
L 313.530278 352.815535 
L 327.927 350.646921 
L 333.855061 349.434171 
L 342.323721 347.429491 
L 355.026711 344.386198 
L 360.107907 343.426501 
L 364.342237 342.869995 
L 367.729701 342.634287 
L 371.117165 342.61687 
L 377.892093 342.926093 
L 382.126423 342.985768 
L 384.667021 342.844192 
L 387.207619 342.503551 
L 389.748217 341.909821 
L 392.288815 341.023328 
L 394.829413 339.89573 
L 399.063743 337.718226 
L 404.144939 335.112609 
L 406.685537 334.017114 
L 409.226134 333.176567 
L 410.919866 332.801076 
L 412.613598 332.599333 
L 415.154196 332.59143 
L 417.694794 332.854924 
L 421.082258 333.468188 
L 427.01032 334.644835 
L 429.550918 334.949064 
L 432.091516 334.999355 
L 434.632114 334.722215 
L 437.172712 334.156348 
L 440.560176 333.089818 
L 450.722568 329.537808 
L 453.263166 328.986098 
L 455.803764 328.707047 
L 459.191228 328.65457 
L 466.813022 328.756036 
L 469.35362 328.513987 
L 471.047352 328.192519 
L 472.741084 327.709581 
L 474.434816 327.036556 
L 476.128548 326.151165 
L 478.669146 324.467292 
L 481.209744 322.453698 
L 484.597207 319.445162 
L 491.372135 313.290911 
L 493.912733 311.27031 
L 496.453331 309.576207 
L 498.993929 308.266815 
L 501.534527 307.301673 
L 504.075125 306.628983 
L 506.615723 306.196946 
L 510.003187 305.90572 
L 514.237517 305.826778 
L 524.399909 305.770908 
L 531.174837 305.512222 
L 537.949765 305.037573 
L 545.571559 304.426206 
L 548.959023 304.39542 
L 551.499621 304.571968 
L 554.040219 304.974458 
L 556.580817 305.652233 
L 559.121414 306.654634 
L 561.662012 308.003944 
L 565.049476 310.163158 
L 570.977538 314.033005 
L 573.518136 315.376731 
L 575.211868 316.067531 
L 576.9056 316.547608 
L 578.599332 316.776924 
L 580.293064 316.715443 
L 581.986796 316.334544 
L 583.680528 315.65735 
L 585.37426 314.721639 
L 587.067992 313.56519 
L 589.60859 311.499276 
L 592.996054 308.324751 
L 600.617848 300.900573 
L 603.158446 298.792585 
L 604.852178 297.599321 
L 606.54591 296.619783 
L 608.239642 295.891749 
L 609.933374 295.452999 
L 611.627106 295.341312 
L 613.320838 295.594468 
L 615.01457 296.250246 
L 616.708302 297.346426 
L 618.402034 298.920786 
L 620.095766 301.011106 
L 621.789498 303.655166 
L 622.636364 305.196654 
L 622.636364 305.196654 
" clip-path="url(#p22218857e7)" style="fill: none; stroke: #fa8174; stroke-width: 1.5; stroke-linecap: square"/>
   </g>
   <g id="line2d_65">
    <path d="M 115.363636 66.422 
L 117.057368 112.575383 
L 118.7511 154.333437 
L 120.444832 191.902289 
L 122.138564 225.488067 
L 123.832296 255.296899 
L 125.526028 281.534912 
L 127.21976 304.408234 
L 128.913492 324.122992 
L 130.607224 340.885314 
L 132.300956 354.901329 
L 133.994688 366.377163 
L 135.68842 375.518944 
L 136.535286 379.27898 
L 137.382152 382.5328 
L 138.229018 385.306171 
L 139.075884 387.624859 
L 139.92275 389.514629 
L 140.769616 391.001247 
L 141.616482 392.110481 
L 142.463348 392.868094 
L 143.310214 393.299854 
L 144.15708 393.431526 
L 145.003946 393.288877 
L 145.850812 392.897672 
L 146.697678 392.283677 
L 147.544544 391.472658 
L 149.238276 389.362613 
L 150.932008 386.773664 
L 156.86007 376.916942 
L 158.553802 374.716829 
L 160.247534 373.025654 
L 161.941266 371.792213 
L 163.634998 370.961103 
L 165.32873 370.476921 
L 167.022462 370.284265 
L 168.716194 370.327732 
L 171.256792 370.71447 
L 175.491122 371.754778 
L 178.03172 372.311696 
L 180.572317 372.603617 
L 183.112915 372.597847 
L 185.653513 372.342615 
L 188.194111 371.887127 
L 191.581575 371.05335 
L 198.356503 369.046753 
L 203.437699 367.679698 
L 208.518895 366.579905 
L 213.600091 365.700485 
L 219.528153 364.887656 
L 229.690545 363.778601 
L 237.312339 362.842755 
L 242.393535 361.999348 
L 248.321597 360.736949 
L 256.790256 358.906832 
L 261.024586 358.226595 
L 264.41205 357.896594 
L 268.64638 357.761764 
L 275.421308 357.855482 
L 280.502504 357.857684 
L 283.889968 357.683261 
L 287.277432 357.291708 
L 291.511762 356.534188 
L 296.592958 355.378073 
L 306.75535 352.990805 
L 311.836546 352.07708 
L 316.917742 351.385364 
L 322.845804 350.828138 
L 328.773866 350.504062 
L 346.558051 349.748706 
L 351.639247 349.162759 
L 359.261041 347.982102 
L 366.882835 346.854831 
L 371.964031 346.348876 
L 379.585825 345.656952 
L 382.973289 345.124744 
L 385.513887 344.548542 
L 388.054485 343.774352 
L 390.595083 342.760685 
L 393.135681 341.50073 
L 397.370011 339.062733 
L 403.298073 335.613634 
L 405.838671 334.363357 
L 408.379268 333.375003 
L 410.073 332.90441 
L 411.766732 332.614185 
L 413.460464 332.510102 
L 416.001062 332.639976 
L 418.54166 333.017885 
L 428.704052 334.868637 
L 430.397784 334.915273 
L 432.091516 334.802511 
L 433.785248 334.504366 
L 436.325846 333.747315 
L 438.866444 332.715665 
L 443.100774 330.683416 
L 447.335104 328.699454 
L 449.875702 327.74313 
L 451.569434 327.270692 
L 453.263166 326.968192 
L 454.956898 326.861271 
L 456.65063 326.930345 
L 459.191228 327.280738 
L 463.425558 328.205433 
L 466.813022 328.909056 
L 469.35362 329.215747 
L 471.047352 329.243547 
L 472.741084 329.085586 
L 474.434816 328.703778 
L 476.128548 328.067234 
L 477.82228 327.189893 
L 479.516012 326.102923 
L 482.05661 324.147674 
L 484.597207 321.896282 
L 488.831537 317.771909 
L 493.912733 312.80945 
L 496.453331 310.568288 
L 498.993929 308.59575 
L 501.534527 306.904237 
L 504.075125 305.499118 
L 506.615723 304.385766 
L 509.156321 303.569554 
L 511.696919 303.055851 
L 514.237517 302.850032 
L 516.778115 302.957466 
L 519.318713 303.366902 
L 522.706177 304.217151 
L 527.787373 305.574542 
L 530.327971 306.033579 
L 532.021703 306.177843 
L 533.715435 306.151764 
L 535.409167 305.920257 
L 537.102899 305.448236 
L 538.796631 304.701609 
L 540.490363 303.681376 
L 542.184095 302.432169 
L 544.724693 300.232635 
L 548.112157 296.940549 
L 553.193353 292.001938 
L 555.733951 289.87874 
L 557.427683 288.699996 
L 559.121414 287.765884 
L 560.815146 287.113471 
L 562.508878 286.730137 
L 564.20261 286.588289 
L 565.896342 286.660332 
L 567.590074 286.918671 
L 570.130672 287.59512 
L 572.67127 288.535512 
L 576.058734 290.038973 
L 581.986796 292.741737 
L 586.221126 294.400366 
L 592.996054 296.758422 
L 600.617848 299.448508 
L 604.852178 301.176166 
L 608.239642 302.769144 
L 611.627106 304.607924 
L 615.01457 306.746394 
L 617.555168 308.579335 
L 620.095766 310.633897 
L 622.636364 312.932816 
L 622.636364 312.932816 
" clip-path="url(#p22218857e7)" style="fill: none; stroke: #81b1d2; stroke-width: 1.5; stroke-linecap: square"/>
   </g>
   <g id="line2d_66">
    <path d="M 115.363636 67.164698 
L 117.057368 113.064937 
L 118.7511 154.602072 
L 120.444832 191.980572 
L 122.138564 225.404904 
L 123.832296 255.079537 
L 125.526028 281.208939 
L 127.21976 303.997579 
L 128.913492 323.649924 
L 130.607224 340.370444 
L 132.300956 354.363606 
L 133.994688 365.833878 
L 135.68842 374.98573 
L 137.382152 382.023628 
L 138.229018 384.813741 
L 139.075884 387.152042 
L 139.92275 389.064089 
L 140.769616 390.57544 
L 141.616482 391.711654 
L 142.463348 392.49829 
L 143.310214 392.960905 
L 144.15708 393.12506 
L 145.003946 393.016311 
L 145.850812 392.660218 
L 146.697678 392.08234 
L 147.544544 391.308234 
L 149.238276 389.273575 
L 150.932008 386.760709 
L 156.86007 377.151813 
L 158.553802 375.010403 
L 160.247534 373.369885 
L 161.941266 372.178067 
L 163.634998 371.378571 
L 165.32873 370.915019 
L 167.022462 370.731034 
L 168.716194 370.770237 
L 171.256792 371.124195 
L 178.878586 372.535275 
L 180.572317 372.572676 
L 183.112915 372.350621 
L 185.653513 371.842568 
L 188.194111 371.10228 
L 191.581575 369.846904 
L 196.662771 367.64772 
L 202.590833 365.107994 
L 206.825163 363.551546 
L 210.212627 362.513467 
L 213.600091 361.692988 
L 216.987555 361.121061 
L 220.375019 360.828637 
L 223.762483 360.834985 
L 227.149947 361.073602 
L 239.852937 362.248036 
L 242.393535 362.21139 
L 245.780999 361.894582 
L 249.168463 361.347056 
L 262.718318 358.86781 
L 266.105782 358.661995 
L 270.340112 358.693171 
L 281.34937 358.997509 
L 284.736834 358.784722 
L 288.124298 358.297913 
L 292.358628 357.393476 
L 299.133556 355.628029 
L 304.214752 354.376819 
L 308.449082 353.585271 
L 312.683412 353.030753 
L 319.45834 352.409849 
L 327.080134 351.690233 
L 332.161329 350.990713 
L 338.936257 349.83032 
L 356.720443 346.644876 
L 364.342237 345.559373 
L 371.117165 344.813372 
L 380.432691 343.816763 
L 384.667021 343.105528 
L 388.054485 342.31402 
L 391.441949 341.264766 
L 394.829413 339.965102 
L 399.910609 337.748768 
L 406.685537 334.808876 
L 410.073 333.565448 
L 413.460464 332.596442 
L 416.847928 331.905379 
L 420.235392 331.436242 
L 424.469722 331.07482 
L 432.091516 330.716635 
L 450.722568 329.941267 
L 455.803764 330.050787 
L 462.578692 330.238675 
L 465.966156 330.088338 
L 468.506754 329.770188 
L 471.047352 329.219683 
L 473.58795 328.386154 
L 476.128548 327.223006 
L 478.669146 325.752669 
L 482.05661 323.452953 
L 493.065867 315.531933 
L 495.606465 314.091462 
L 498.147063 312.949858 
L 500.687661 312.071947 
L 504.075125 311.196565 
L 509.156321 310.1955 
L 513.390651 309.308312 
L 515.931249 308.61483 
L 518.471847 307.723349 
L 521.859311 306.2382 
L 526.093641 304.078045 
L 534.562301 299.672119 
L 537.949765 298.223781 
L 540.490363 297.366102 
L 543.030961 296.731906 
L 545.571559 296.336292 
L 548.112157 296.194357 
L 550.652755 296.321198 
L 553.193353 296.731915 
L 555.733951 297.441604 
L 558.274548 298.465363 
L 560.815146 299.812831 
L 564.20261 301.992418 
L 571.824404 307.127688 
L 574.365002 308.48732 
L 576.058734 309.193052 
L 577.752466 309.697082 
L 579.446198 309.964138 
L 581.13993 309.959991 
L 582.833662 309.679834 
L 584.527394 309.151661 
L 586.221126 308.405188 
L 587.914858 307.470131 
L 590.455456 305.778954 
L 593.84292 303.141356 
L 603.158446 295.471461 
L 605.699044 293.741678 
L 607.392776 292.773735 
L 609.086508 291.988656 
L 610.78024 291.416157 
L 612.473972 291.085955 
L 614.167704 291.027765 
L 615.861436 291.271303 
L 617.555168 291.846285 
L 619.2489 292.782427 
L 620.942632 294.109445 
L 622.636364 295.857054 
L 622.636364 295.857054 
" clip-path="url(#p22218857e7)" style="fill: none; stroke: #fdb462; stroke-width: 1.5; stroke-linecap: square"/>
   </g>
   <g id="patch_3">
    <path d="M 90 384.48 
L 90 51.84 
" style="fill: none; stroke: #ffffff; stroke-width: 0.8; stroke-linejoin: miter; stroke-linecap: square"/>
   </g>
   <g id="patch_4">
    <path d="M 648 384.48 
L 648 51.84 
" style="fill: none; stroke: #ffffff; stroke-width: 0.8; stroke-linejoin: miter; stroke-linecap: square"/>
   </g>
   <g id="patch_5">
    <path d="M 90 384.48 
L 648 384.48 
" style="fill: none; stroke: #ffffff; stroke-width: 0.8; stroke-linejoin: miter; stroke-linecap: square"/>
   </g>
   <g id="patch_6">
    <path d="M 90 51.84 
L 648 51.84 
" style="fill: none; stroke: #ffffff; stroke-width: 0.8; stroke-linejoin: miter; stroke-linecap: square"/>
   </g>
   <g id="text_33">
    <!-- caio.python_aio_asyncio - write (Time vs Concurrency) -->
    <g style="fill: #ffffff" transform="translate(205.461563 45.84) scale(0.12 -0.12)">
     <defs>
      <path id="DejaVuSans-61" d="M 2194 1759 
Q 1497 1759 1228 1600 
Q 959 1441 959 1056 
Q 959 750 1161 570 
Q 1363 391 1709 391 
Q 2188 391 2477 730 
Q 2766 1069 2766 1631 
L 2766 1759 
L 2194 1759 
z
M 3341 1997 
L 3341 0 
L 2766 0 
L 2766 531 
Q 2569 213 2275 61 
Q 1981 -91 1556 -91 
Q 1019 -91 701 211 
Q 384 513 384 1019 
Q 384 1609 779 1909 
Q 1175 2209 1959 2209 
L 2766 2209 
L 2766 2266 
Q 2766 2663 2505 2880 
Q 2244 3097 1772 3097 
Q 1472 3097 1187 3025 
Q 903 2953 641 2809 
L 641 3341 
Q 956 3463 1253 3523 
Q 1550 3584 1831 3584 
Q 2591 3584 2966 3190 
Q 3341 2797 3341 1997 
z
" transform="scale(0.015625)"/>
      <path id="DejaVuSans-2e" d="M 684 794 
L 1344 794 
L 1344 0 
L 684 0 
L 684 794 
z
" transform="scale(0.015625)"/>
      <path id="DejaVuSans-70" d="M 1159 525 
L 1159 -1331 
L 581 -1331 
L 581 3500 
L 1159 3500 
L 1159 2969 
Q 1341 3281 1617 3432 
Q 1894 3584 2278 3584 
Q 2916 3584 3314 3078 
Q 3713 2572 3713 1747 
Q 3713 922 3314 415 
Q 2916 -91 2278 -91 
Q 1894 -91 1617 61 
Q 1341 213 1159 525 
z
M 3116 1747 
Q 3116 2381 2855 2742 
Q 2594 3103 2138 3103 
Q 1681 3103 1420 2742 
Q 1159 2381 1159 1747 
Q 1159 1113 1420 752 
Q 1681 391 2138 391 
Q 2594 391 2855 752 
Q 3116 1113 3116 1747 
z
" transform="scale(0.015625)"/>
      <path id="DejaVuSans-68" d="M 3513 2113 
L 3513 0 
L 2938 0 
L 2938 2094 
Q 2938 2591 2744 2837 
Q 2550 3084 2163 3084 
Q 1697 3084 1428 2787 
Q 1159 2491 1159 1978 
L 1159 0 
L 581 0 
L 581 4863 
L 1159 4863 
L 1159 2956 
Q 1366 3272 1645 3428 
Q 1925 3584 2291 3584 
Q 2894 3584 3203 3211 
Q 3513 2838 3513 2113 
z
" transform="scale(0.015625)"/>
      <path id="DejaVuSans-5f" d="M 3263 -1063 
L 3263 -1509 
L -63 -1509 
L -63 -1063 
L 3263 -1063 
z
" transform="scale(0.015625)"/>
      <path id="DejaVuSans-2d" d="M 313 2009 
L 1997 2009 
L 1997 1497 
L 313 1497 
L 313 2009 
z
" transform="scale(0.015625)"/>
      <path id="DejaVuSans-77" d="M 269 3500 
L 844 3500 
L 1563 769 
L 2278 3500 
L 2956 3500 
L 3675 769 
L 4391 3500 
L 4966 3500 
L 4050 0 
L 3372 0 
L 2619 2869 
L 1863 0 
L 1184 0 
L 269 3500 
z
" transform="scale(0.015625)"/>
      <path id="DejaVuSans-54" d="M -19 4666 
L 3928 4666 
L 3928 4134 
L 2272 4134 
L 2272 0 
L 1638 0 
L 1638 4134 
L -19 4134 
L -19 4666 
z
" transform="scale(0.015625)"/>
      <path id="DejaVuSans-76" d="M 191 3500 
L 800 3500 
L 1894 563 
L 2988 3500 
L 3597 3500 
L 2284 0 
L 1503 0 
L 191 3500 
z
" transform="scale(0.015625)"/>
      <path id="DejaVuSans-43" d="M 4122 4306 
L 4122 3641 
Q 3803 3938 3442 4084 
Q 3081 4231 2675 4231 
Q 1875 4231 1450 3742 
Q 1025 3253 1025 2328 
Q 1025 1406 1450 917 
Q 1875 428 2675 428 
Q 3081 428 3442 575 
Q 3803 722 4122 1019 
L 4122 359 
Q 3791 134 3420 21 
Q 3050 -91 2638 -91 
Q 1578 -91 968 557 
Q 359 1206 359 2328 
Q 359 3453 968 4101 
Q 1578 4750 2638 4750 
Q 3056 4750 3426 4639 
Q 3797 4528 4122 4306 
z
" transform="scale(0.015625)"/>
     </defs>
     <use xlink:href="#DejaVuSans-63"/>
     <use xlink:href="#DejaVuSans-61" x="54.980469"/>
     <use xlink:href="#DejaVuSans-69" x="116.259766"/>
     <use xlink:href="#DejaVuSans-6f" x="144.042969"/>
     <use xlink:href="#DejaVuSans-2e" x="203.474609"/>
     <use xlink:href="#DejaVuSans-70" x="235.261719"/>
     <use xlink:href="#DejaVuSans-79" x="298.738281"/>
     <use xlink:href="#DejaVuSans-74" x="357.917969"/>
     <use xlink:href="#DejaVuSans-68" x="397.126953"/>
     <use xlink:href="#DejaVuSans-6f" x="460.505859"/>
     <use xlink:href="#DejaVuSans-6e" x="521.6875"/>
     <use xlink:href="#DejaVuSans-5f" x="585.066406"/>
     <use xlink:href="#DejaVuSans-61" x="635.066406"/>
     <use xlink:href="#DejaVuSans-69" x="696.345703"/>
     <use xlink:href="#DejaVuSans-6f" x="724.128906"/>
     <use xlink:href="#DejaVuSans-5f" x="785.310547"/>
     <use xlink:href="#DejaVuSans-61" x="835.310547"/>
     <use xlink:href="#DejaVuSans-73" x="896.589844"/>
     <use xlink:href="#DejaVuSans-79" x="948.689453"/>
     <use xlink:href="#DejaVuSans-6e" x="1007.869141"/>
     <use xlink:href="#DejaVuSans-63" x="1071.248047"/>
     <use xlink:href="#DejaVuSans-69" x="1126.228516"/>
     <use xlink:href="#DejaVuSans-6f" x="1154.011719"/>
     <use xlink:href="#DejaVuSans-20" x="1215.193359"/>
     <use xlink:href="#DejaVuSans-2d" x="1246.980469"/>
     <use xlink:href="#DejaVuSans-20" x="1283.064453"/>
     <use xlink:href="#DejaVuSans-77" x="1314.851562"/>
     <use xlink:href="#DejaVuSans-72" x="1396.638672"/>
     <use xlink:href="#DejaVuSans-69" x="1437.751953"/>
     <use xlink:href="#DejaVuSans-74" x="1465.535156"/>
     <use xlink:href="#DejaVuSans-65" x="1504.744141"/>
     <use xlink:href="#DejaVuSans-20" x="1566.267578"/>
     <use xlink:href="#DejaVuSans-28" x="1598.054688"/>
     <use xlink:href="#DejaVuSans-54" x="1637.068359"/>
     <use xlink:href="#DejaVuSans-69" x="1695.027344"/>
     <use xlink:href="#DejaVuSans-6d" x="1722.810547"/>
     <use xlink:href="#DejaVuSans-65" x="1820.222656"/>
     <use xlink:href="#DejaVuSans-20" x="1881.746094"/>
     <use xlink:href="#DejaVuSans-76" x="1913.533203"/>
     <use xlink:href="#DejaVuSans-73" x="1972.712891"/>
     <use xlink:href="#DejaVuSans-20" x="2024.8125"/>
     <use xlink:href="#DejaVuSans-43" x="2056.599609"/>
     <use xlink:href="#DejaVuSans-6f" x="2126.423828"/>
     <use xlink:href="#DejaVuSans-6e" x="2187.605469"/>
     <use xlink:href="#DejaVuSans-63" x="2250.984375"/>
     <use xlink:href="#DejaVuSans-75" x="2305.964844"/>
     <use xlink:href="#DejaVuSans-72" x="2369.34375"/>
     <use xlink:href="#DejaVuSans-72" x="2408.707031"/>
     <use xlink:href="#DejaVuSans-65" x="2447.570312"/>
     <use xlink:href="#DejaVuSans-6e" x="2509.09375"/>
     <use xlink:href="#DejaVuSans-63" x="2572.472656"/>
     <use xlink:href="#DejaVuSans-79" x="2627.453125"/>
     <use xlink:href="#DejaVuSans-29" x="2686.632812"/>
    </g>
   </g>
   <g id="legend_1">
    <g id="patch_7">
     <path d="M 543.43125 149.5775 
L 641 149.5775 
Q 643 149.5775 643 147.5775 
L 643 58.84 
Q 643 56.84 641 56.84 
L 543.43125 56.84 
Q 541.43125 56.84 541.43125 58.84 
L 541.43125 147.5775 
Q 541.43125 149.5775 543.43125 149.5775 
z
" style="opacity: 0.8; stroke: #cccccc; stroke-linejoin: miter"/>
    </g>
    <g id="line2d_67">
     <path d="M 545.43125 64.938437 
L 555.43125 64.938437 
L 565.43125 64.938437 
" style="fill: none; stroke: #8dd3c7; stroke-width: 1.5; stroke-linecap: square"/>
    </g>
    <g id="text_34">
     <!-- max_ops=1 -->
     <g style="fill: #ffffff" transform="translate(573.43125 68.438437) scale(0.1 -0.1)">
      <defs>
       <path id="DejaVuSans-78" d="M 3513 3500 
L 2247 1797 
L 3578 0 
L 2900 0 
L 1881 1375 
L 863 0 
L 184 0 
L 1544 1831 
L 300 3500 
L 978 3500 
L 1906 2253 
L 2834 3500 
L 3513 3500 
z
" transform="scale(0.015625)"/>
       <path id="DejaVuSans-3d" d="M 678 2906 
L 4684 2906 
L 4684 2381 
L 678 2381 
L 678 2906 
z
M 678 1631 
L 4684 1631 
L 4684 1100 
L 678 1100 
L 678 1631 
z
" transform="scale(0.015625)"/>
      </defs>
      <use xlink:href="#DejaVuSans-6d"/>
      <use xlink:href="#DejaVuSans-61" x="97.412109"/>
      <use xlink:href="#DejaVuSans-78" x="158.691406"/>
      <use xlink:href="#DejaVuSans-5f" x="217.871094"/>
      <use xlink:href="#DejaVuSans-6f" x="267.871094"/>
      <use xlink:href="#DejaVuSans-70" x="329.052734"/>
      <use xlink:href="#DejaVuSans-73" x="392.529297"/>
      <use xlink:href="#DejaVuSans-3d" x="444.628906"/>
      <use xlink:href="#DejaVuSans-31" x="528.417969"/>
     </g>
    </g>
    <g id="line2d_68">
     <path d="M 545.43125 79.894687 
L 555.43125 79.894687 
L 565.43125 79.894687 
" style="fill: none; stroke: #feffb3; stroke-width: 1.5; stroke-linecap: square"/>
    </g>
    <g id="text_35">
     <!-- max_ops=4 -->
     <g style="fill: #ffffff" transform="translate(573.43125 83.394687) scale(0.1 -0.1)">
      <use xlink:href="#DejaVuSans-6d"/>
      <use xlink:href="#DejaVuSans-61" x="97.412109"/>
      <use xlink:href="#DejaVuSans-78" x="158.691406"/>
      <use xlink:href="#DejaVuSans-5f" x="217.871094"/>
      <use xlink:href="#DejaVuSans-6f" x="267.871094"/>
      <use xlink:href="#DejaVuSans-70" x="329.052734"/>
      <use xlink:href="#DejaVuSans-73" x="392.529297"/>
      <use xlink:href="#DejaVuSans-3d" x="444.628906"/>
      <use xlink:href="#DejaVuSans-34" x="528.417969"/>
     </g>
    </g>
    <g id="line2d_69">
     <path d="M 545.43125 94.850937 
L 555.43125 94.850937 
L 565.43125 94.850937 
" style="fill: none; stroke: #bfbbd9; stroke-width: 1.5; stroke-linecap: square"/>
    </g>
    <g id="text_36">
     <!-- max_ops=8 -->
     <g style="fill: #ffffff" transform="translate(573.43125 98.350937) scale(0.1 -0.1)">
      <use xlink:href="#DejaVuSans-6d"/>
      <use xlink:href="#DejaVuSans-61" x="97.412109"/>
      <use xlink:href="#DejaVuSans-78" x="158.691406"/>
      <use xlink:href="#DejaVuSans-5f" x="217.871094"/>
      <use xlink:href="#DejaVuSans-6f" x="267.871094"/>
      <use xlink:href="#DejaVuSans-70" x="329.052734"/>
      <use xlink:href="#DejaVuSans-73" x="392.529297"/>
      <use xlink:href="#DejaVuSans-3d" x="444.628906"/>
      <use xlink:href="#DejaVuSans-38" x="528.417969"/>
     </g>
    </g>
    <g id="line2d_70">
     <path d="M 545.43125 109.807187 
L 555.43125 109.807187 
L 565.43125 109.807187 
" style="fill: none; stroke: #fa8174; stroke-width: 1.5; stroke-linecap: square"/>
    </g>
    <g id="text_37">
     <!-- max_ops=16 -->
     <g style="fill: #ffffff" transform="translate(573.43125 113.307187) scale(0.1 -0.1)">
      <use xlink:href="#DejaVuSans-6d"/>
      <use xlink:href="#DejaVuSans-61" x="97.412109"/>
      <use xlink:href="#DejaVuSans-78" x="158.691406"/>
      <use xlink:href="#DejaVuSans-5f" x="217.871094"/>
      <use xlink:href="#DejaVuSans-6f" x="267.871094"/>
      <use xlink:href="#DejaVuSans-70" x="329.052734"/>
      <use xlink:href="#DejaVuSans-73" x="392.529297"/>
      <use xlink:href="#DejaVuSans-3d" x="444.628906"/>
      <use xlink:href="#DejaVuSans-31" x="528.417969"/>
      <use xlink:href="#DejaVuSans-36" x="592.041016"/>
     </g>
    </g>
    <g id="line2d_71">
     <path d="M 545.43125 124.763437 
L 555.43125 124.763437 
L 565.43125 124.763437 
" style="fill: none; stroke: #81b1d2; stroke-width: 1.5; stroke-linecap: square"/>
    </g>
    <g id="text_38">
     <!-- max_ops=32 -->
     <g style="fill: #ffffff" transform="translate(573.43125 128.263437) scale(0.1 -0.1)">
      <use xlink:href="#DejaVuSans-6d"/>
      <use xlink:href="#DejaVuSans-61" x="97.412109"/>
      <use xlink:href="#DejaVuSans-78" x="158.691406"/>
      <use xlink:href="#DejaVuSans-5f" x="217.871094"/>
      <use xlink:href="#DejaVuSans-6f" x="267.871094"/>
      <use xlink:href="#DejaVuSans-70" x="329.052734"/>
      <use xlink:href="#DejaVuSans-73" x="392.529297"/>
      <use xlink:href="#DejaVuSans-3d" x="444.628906"/>
      <use xlink:href="#DejaVuSans-33" x="528.417969"/>
      <use xlink:href="#DejaVuSans-32" x="592.041016"/>
     </g>
    </g>
    <g id="line2d_72">
     <path d="M 545.43125 139.719687 
L 555.43125 139.719687 
L 565.43125 139.719687 
" style="fill: none; stroke: #fdb462; stroke-width: 1.5; stroke-linecap: square"/>
    </g>
    <g id="text_39">
     <!-- max_ops=64 -->
     <g style="fill: #ffffff" transform="translate(573.43125 143.219687) scale(0.1 -0.1)">
      <use xlink:href="#DejaVuSans-6d"/>
      <use xlink:href="#DejaVuSans-61" x="97.412109"/>
      <use xlink:href="#DejaVuSans-78" x="158.691406"/>
      <use xlink:href="#DejaVuSans-5f" x="217.871094"/>
      <use xlink:href="#DejaVuSans-6f" x="267.871094"/>
      <use xlink:href="#DejaVuSans-70" x="329.052734"/>
      <use xlink:href="#DejaVuSans-73" x="392.529297"/>
      <use xlink:href="#DejaVuSans-3d" x="444.628906"/>
      <use xlink:href="#DejaVuSans-36" x="528.417969"/>
      <use xlink:href="#DejaVuSans-34" x="592.041016"/>
     </g>
    </g>
   </g>
  </g>
 </g>
 <defs>
  <clipPath id="p22218857e7">
   <rect x="90" y="51.84" width="558" height="332.64"/>
  </clipPath>
 </defs>
</svg>
