<?xml version="1.0" encoding="utf-8" standalone="no"?>
<!DOCTYPE svg PUBLIC "-//W3C//DTD SVG 1.1//EN"
  "http://www.w3.org/Graphics/SVG/1.1/DTD/svg11.dtd">
<svg xmlns:xlink="http://www.w3.org/1999/xlink" width="720pt" height="432pt" viewBox="0 0 720 432" xmlns="http://www.w3.org/2000/svg" version="1.1">
 <metadata>
  <rdf:RDF xmlns:dc="http://purl.org/dc/elements/1.1/" xmlns:cc="http://creativecommons.org/ns#" xmlns:rdf="http://www.w3.org/1999/02/22-rdf-syntax-ns#">
   <cc:Work>
    <dc:type rdf:resource="http://purl.org/dc/dcmitype/StillImage"/>
    <dc:date>2024-01-19T16:09:12.324496</dc:date>
    <dc:format>image/svg+xml</dc:format>
    <dc:creator>
     <cc:Agent>
      <dc:title>Matplotlib v3.8.2, https://matplotlib.org/</dc:title>
     </cc:Agent>
    </dc:creator>
   </cc:Work>
  </rdf:RDF>
 </metadata>
 <defs>
  <style type="text/css">*{stroke-linejoin: round; stroke-linecap: butt}</style>
 </defs>
 <g id="figure_1">
  <g id="patch_1">
   <path d="M 0 432 
L 720 432 
L 720 0 
L 0 0 
z
"/>
  </g>
  <g id="axes_1">
   <g id="patch_2">
    <path d="M 90 384.48 
L 648 384.48 
L 648 51.84 
L 90 51.84 
z
"/>
   </g>
   <g id="matplotlib.axis_1">
    <g id="xtick_1">
     <g id="line2d_1">
      <path d="M 115.363636 384.48 
L 115.363636 51.84 
" clip-path="url(#p3817a95640)" style="fill: none; stroke: #ffffff; stroke-width: 0.8; stroke-linecap: square"/>
     </g>
     <g id="line2d_2">
      <defs>
       <path id="m903f03cd58" d="M 0 0 
L 0 3.5 
" style="stroke: #ffffff; stroke-width: 0.8"/>
      </defs>
      <g>
       <use xlink:href="#m903f03cd58" x="115.363636" y="384.48" style="fill: #ffffff; stroke: #ffffff; stroke-width: 0.8"/>
      </g>
     </g>
     <g id="text_1">
      <!-- 55912 -->
      <g style="fill: #ffffff" transform="translate(106.067392 419.347741) rotate(-45) scale(0.1 -0.1)">
       <defs>
        <path id="DejaVuSans-35" d="M 691 4666 
L 3169 4666 
L 3169 4134 
L 1269 4134 
L 1269 2991 
Q 1406 3038 1543 3061 
Q 1681 3084 1819 3084 
Q 2600 3084 3056 2656 
Q 3513 2228 3513 1497 
Q 3513 744 3044 326 
Q 2575 -91 1722 -91 
Q 1428 -91 1123 -41 
Q 819 9 494 109 
L 494 744 
Q 775 591 1075 516 
Q 1375 441 1709 441 
Q 2250 441 2565 725 
Q 2881 1009 2881 1497 
Q 2881 1984 2565 2268 
Q 2250 2553 1709 2553 
Q 1456 2553 1204 2497 
Q 953 2441 691 2322 
L 691 4666 
z
" transform="scale(0.015625)"/>
        <path id="DejaVuSans-39" d="M 703 97 
L 703 672 
Q 941 559 1184 500 
Q 1428 441 1663 441 
Q 2288 441 2617 861 
Q 2947 1281 2994 2138 
Q 2813 1869 2534 1725 
Q 2256 1581 1919 1581 
Q 1219 1581 811 2004 
Q 403 2428 403 3163 
Q 403 3881 828 4315 
Q 1253 4750 1959 4750 
Q 2769 4750 3195 4129 
Q 3622 3509 3622 2328 
Q 3622 1225 3098 567 
Q 2575 -91 1691 -91 
Q 1453 -91 1209 -44 
Q 966 3 703 97 
z
M 1959 2075 
Q 2384 2075 2632 2365 
Q 2881 2656 2881 3163 
Q 2881 3666 2632 3958 
Q 2384 4250 1959 4250 
Q 1534 4250 1286 3958 
Q 1038 3666 1038 3163 
Q 1038 2656 1286 2365 
Q 1534 2075 1959 2075 
z
" transform="scale(0.015625)"/>
        <path id="DejaVuSans-31" d="M 794 531 
L 1825 531 
L 1825 4091 
L 703 3866 
L 703 4441 
L 1819 4666 
L 2450 4666 
L 2450 531 
L 3481 531 
L 3481 0 
L 794 0 
L 794 531 
z
" transform="scale(0.015625)"/>
        <path id="DejaVuSans-32" d="M 1228 531 
L 3431 531 
L 3431 0 
L 469 0 
L 469 531 
Q 828 903 1448 1529 
Q 2069 2156 2228 2338 
Q 2531 2678 2651 2914 
Q 2772 3150 2772 3378 
Q 2772 3750 2511 3984 
Q 2250 4219 1831 4219 
Q 1534 4219 1204 4116 
Q 875 4013 500 3803 
L 500 4441 
Q 881 4594 1212 4672 
Q 1544 4750 1819 4750 
Q 2544 4750 2975 4387 
Q 3406 4025 3406 3419 
Q 3406 3131 3298 2873 
Q 3191 2616 2906 2266 
Q 2828 2175 2409 1742 
Q 1991 1309 1228 531 
z
" transform="scale(0.015625)"/>
       </defs>
       <use xlink:href="#DejaVuSans-35"/>
       <use xlink:href="#DejaVuSans-35" x="63.623047"/>
       <use xlink:href="#DejaVuSans-39" x="127.246094"/>
       <use xlink:href="#DejaVuSans-31" x="190.869141"/>
       <use xlink:href="#DejaVuSans-32" x="254.492188"/>
      </g>
     </g>
    </g>
    <g id="xtick_2">
     <g id="line2d_3">
      <path d="M 136.5 384.48 
L 136.5 51.84 
" clip-path="url(#p3817a95640)" style="fill: none; stroke: #ffffff; stroke-width: 0.8; stroke-linecap: square"/>
     </g>
     <g id="line2d_4">
      <g>
       <use xlink:href="#m903f03cd58" x="136.5" y="384.48" style="fill: #ffffff; stroke: #ffffff; stroke-width: 0.8"/>
      </g>
     </g>
     <g id="text_2">
      <!-- 58342 -->
      <g style="fill: #ffffff" transform="translate(127.203756 419.347741) rotate(-45) scale(0.1 -0.1)">
       <defs>
        <path id="DejaVuSans-38" d="M 2034 2216 
Q 1584 2216 1326 1975 
Q 1069 1734 1069 1313 
Q 1069 891 1326 650 
Q 1584 409 2034 409 
Q 2484 409 2743 651 
Q 3003 894 3003 1313 
Q 3003 1734 2745 1975 
Q 2488 2216 2034 2216 
z
M 1403 2484 
Q 997 2584 770 2862 
Q 544 3141 544 3541 
Q 544 4100 942 4425 
Q 1341 4750 2034 4750 
Q 2731 4750 3128 4425 
Q 3525 4100 3525 3541 
Q 3525 3141 3298 2862 
Q 3072 2584 2669 2484 
Q 3125 2378 3379 2068 
Q 3634 1759 3634 1313 
Q 3634 634 3220 271 
Q 2806 -91 2034 -91 
Q 1263 -91 848 271 
Q 434 634 434 1313 
Q 434 1759 690 2068 
Q 947 2378 1403 2484 
z
M 1172 3481 
Q 1172 3119 1398 2916 
Q 1625 2713 2034 2713 
Q 2441 2713 2670 2916 
Q 2900 3119 2900 3481 
Q 2900 3844 2670 4047 
Q 2441 4250 2034 4250 
Q 1625 4250 1398 4047 
Q 1172 3844 1172 3481 
z
" transform="scale(0.015625)"/>
        <path id="DejaVuSans-33" d="M 2597 2516 
Q 3050 2419 3304 2112 
Q 3559 1806 3559 1356 
Q 3559 666 3084 287 
Q 2609 -91 1734 -91 
Q 1441 -91 1130 -33 
Q 819 25 488 141 
L 488 750 
Q 750 597 1062 519 
Q 1375 441 1716 441 
Q 2309 441 2620 675 
Q 2931 909 2931 1356 
Q 2931 1769 2642 2001 
Q 2353 2234 1838 2234 
L 1294 2234 
L 1294 2753 
L 1863 2753 
Q 2328 2753 2575 2939 
Q 2822 3125 2822 3475 
Q 2822 3834 2567 4026 
Q 2313 4219 1838 4219 
Q 1578 4219 1281 4162 
Q 984 4106 628 3988 
L 628 4550 
Q 988 4650 1302 4700 
Q 1616 4750 1894 4750 
Q 2613 4750 3031 4423 
Q 3450 4097 3450 3541 
Q 3450 3153 3228 2886 
Q 3006 2619 2597 2516 
z
" transform="scale(0.015625)"/>
        <path id="DejaVuSans-34" d="M 2419 4116 
L 825 1625 
L 2419 1625 
L 2419 4116 
z
M 2253 4666 
L 3047 4666 
L 3047 1625 
L 3713 1625 
L 3713 1100 
L 3047 1100 
L 3047 0 
L 2419 0 
L 2419 1100 
L 313 1100 
L 313 1709 
L 2253 4666 
z
" transform="scale(0.015625)"/>
       </defs>
       <use xlink:href="#DejaVuSans-35"/>
       <use xlink:href="#DejaVuSans-38" x="63.623047"/>
       <use xlink:href="#DejaVuSans-33" x="127.246094"/>
       <use xlink:href="#DejaVuSans-34" x="190.869141"/>
       <use xlink:href="#DejaVuSans-32" x="254.492188"/>
      </g>
     </g>
    </g>
    <g id="xtick_3">
     <g id="line2d_5">
      <path d="M 157.636364 384.48 
L 157.636364 51.84 
" clip-path="url(#p3817a95640)" style="fill: none; stroke: #ffffff; stroke-width: 0.8; stroke-linecap: square"/>
     </g>
     <g id="line2d_6">
      <g>
       <use xlink:href="#m903f03cd58" x="157.636364" y="384.48" style="fill: #ffffff; stroke: #ffffff; stroke-width: 0.8"/>
      </g>
     </g>
     <g id="text_3">
      <!-- 60994 -->
      <g style="fill: #ffffff" transform="translate(148.340119 419.347741) rotate(-45) scale(0.1 -0.1)">
       <defs>
        <path id="DejaVuSans-36" d="M 2113 2584 
Q 1688 2584 1439 2293 
Q 1191 2003 1191 1497 
Q 1191 994 1439 701 
Q 1688 409 2113 409 
Q 2538 409 2786 701 
Q 3034 994 3034 1497 
Q 3034 2003 2786 2293 
Q 2538 2584 2113 2584 
z
M 3366 4563 
L 3366 3988 
Q 3128 4100 2886 4159 
Q 2644 4219 2406 4219 
Q 1781 4219 1451 3797 
Q 1122 3375 1075 2522 
Q 1259 2794 1537 2939 
Q 1816 3084 2150 3084 
Q 2853 3084 3261 2657 
Q 3669 2231 3669 1497 
Q 3669 778 3244 343 
Q 2819 -91 2113 -91 
Q 1303 -91 875 529 
Q 447 1150 447 2328 
Q 447 3434 972 4092 
Q 1497 4750 2381 4750 
Q 2619 4750 2861 4703 
Q 3103 4656 3366 4563 
z
" transform="scale(0.015625)"/>
        <path id="DejaVuSans-30" d="M 2034 4250 
Q 1547 4250 1301 3770 
Q 1056 3291 1056 2328 
Q 1056 1369 1301 889 
Q 1547 409 2034 409 
Q 2525 409 2770 889 
Q 3016 1369 3016 2328 
Q 3016 3291 2770 3770 
Q 2525 4250 2034 4250 
z
M 2034 4750 
Q 2819 4750 3233 4129 
Q 3647 3509 3647 2328 
Q 3647 1150 3233 529 
Q 2819 -91 2034 -91 
Q 1250 -91 836 529 
Q 422 1150 422 2328 
Q 422 3509 836 4129 
Q 1250 4750 2034 4750 
z
" transform="scale(0.015625)"/>
       </defs>
       <use xlink:href="#DejaVuSans-36"/>
       <use xlink:href="#DejaVuSans-30" x="63.623047"/>
       <use xlink:href="#DejaVuSans-39" x="127.246094"/>
       <use xlink:href="#DejaVuSans-39" x="190.869141"/>
       <use xlink:href="#DejaVuSans-34" x="254.492188"/>
      </g>
     </g>
    </g>
    <g id="xtick_4">
     <g id="line2d_7">
      <path d="M 178.772727 384.48 
L 178.772727 51.84 
" clip-path="url(#p3817a95640)" style="fill: none; stroke: #ffffff; stroke-width: 0.8; stroke-linecap: square"/>
     </g>
     <g id="line2d_8">
      <g>
       <use xlink:href="#m903f03cd58" x="178.772727" y="384.48" style="fill: #ffffff; stroke: #ffffff; stroke-width: 0.8"/>
      </g>
     </g>
     <g id="text_4">
      <!-- 63897 -->
      <g style="fill: #ffffff" transform="translate(169.476483 419.347741) rotate(-45) scale(0.1 -0.1)">
       <defs>
        <path id="DejaVuSans-37" d="M 525 4666 
L 3525 4666 
L 3525 4397 
L 1831 0 
L 1172 0 
L 2766 4134 
L 525 4134 
L 525 4666 
z
" transform="scale(0.015625)"/>
       </defs>
       <use xlink:href="#DejaVuSans-36"/>
       <use xlink:href="#DejaVuSans-33" x="63.623047"/>
       <use xlink:href="#DejaVuSans-38" x="127.246094"/>
       <use xlink:href="#DejaVuSans-39" x="190.869141"/>
       <use xlink:href="#DejaVuSans-37" x="254.492188"/>
      </g>
     </g>
    </g>
    <g id="xtick_5">
     <g id="line2d_9">
      <path d="M 199.909091 384.48 
L 199.909091 51.84 
" clip-path="url(#p3817a95640)" style="fill: none; stroke: #ffffff; stroke-width: 0.8; stroke-linecap: square"/>
     </g>
     <g id="line2d_10">
      <g>
       <use xlink:href="#m903f03cd58" x="199.909091" y="384.48" style="fill: #ffffff; stroke: #ffffff; stroke-width: 0.8"/>
      </g>
     </g>
     <g id="text_5">
      <!-- 67092 -->
      <g style="fill: #ffffff" transform="translate(190.612846 419.347741) rotate(-45) scale(0.1 -0.1)">
       <use xlink:href="#DejaVuSans-36"/>
       <use xlink:href="#DejaVuSans-37" x="63.623047"/>
       <use xlink:href="#DejaVuSans-30" x="127.246094"/>
       <use xlink:href="#DejaVuSans-39" x="190.869141"/>
       <use xlink:href="#DejaVuSans-32" x="254.492188"/>
      </g>
     </g>
    </g>
    <g id="xtick_6">
     <g id="line2d_11">
      <path d="M 221.045455 384.48 
L 221.045455 51.84 
" clip-path="url(#p3817a95640)" style="fill: none; stroke: #ffffff; stroke-width: 0.8; stroke-linecap: square"/>
     </g>
     <g id="line2d_12">
      <g>
       <use xlink:href="#m903f03cd58" x="221.045455" y="384.48" style="fill: #ffffff; stroke: #ffffff; stroke-width: 0.8"/>
      </g>
     </g>
     <g id="text_6">
      <!-- 70622 -->
      <g style="fill: #ffffff" transform="translate(211.74921 419.347741) rotate(-45) scale(0.1 -0.1)">
       <use xlink:href="#DejaVuSans-37"/>
       <use xlink:href="#DejaVuSans-30" x="63.623047"/>
       <use xlink:href="#DejaVuSans-36" x="127.246094"/>
       <use xlink:href="#DejaVuSans-32" x="190.869141"/>
       <use xlink:href="#DejaVuSans-32" x="254.492188"/>
      </g>
     </g>
    </g>
    <g id="xtick_7">
     <g id="line2d_13">
      <path d="M 242.181818 384.48 
L 242.181818 51.84 
" clip-path="url(#p3817a95640)" style="fill: none; stroke: #ffffff; stroke-width: 0.8; stroke-linecap: square"/>
     </g>
     <g id="line2d_14">
      <g>
       <use xlink:href="#m903f03cd58" x="242.181818" y="384.48" style="fill: #ffffff; stroke: #ffffff; stroke-width: 0.8"/>
      </g>
     </g>
     <g id="text_7">
      <!-- 74544 -->
      <g style="fill: #ffffff" transform="translate(232.885574 419.347741) rotate(-45) scale(0.1 -0.1)">
       <use xlink:href="#DejaVuSans-37"/>
       <use xlink:href="#DejaVuSans-34" x="63.623047"/>
       <use xlink:href="#DejaVuSans-35" x="127.246094"/>
       <use xlink:href="#DejaVuSans-34" x="190.869141"/>
       <use xlink:href="#DejaVuSans-34" x="254.492188"/>
      </g>
     </g>
    </g>
    <g id="xtick_8">
     <g id="line2d_15">
      <path d="M 263.318182 384.48 
L 263.318182 51.84 
" clip-path="url(#p3817a95640)" style="fill: none; stroke: #ffffff; stroke-width: 0.8; stroke-linecap: square"/>
     </g>
     <g id="line2d_16">
      <g>
       <use xlink:href="#m903f03cd58" x="263.318182" y="384.48" style="fill: #ffffff; stroke: #ffffff; stroke-width: 0.8"/>
      </g>
     </g>
     <g id="text_8">
      <!-- 78928 -->
      <g style="fill: #ffffff" transform="translate(254.021937 419.347741) rotate(-45) scale(0.1 -0.1)">
       <use xlink:href="#DejaVuSans-37"/>
       <use xlink:href="#DejaVuSans-38" x="63.623047"/>
       <use xlink:href="#DejaVuSans-39" x="127.246094"/>
       <use xlink:href="#DejaVuSans-32" x="190.869141"/>
       <use xlink:href="#DejaVuSans-38" x="254.492188"/>
      </g>
     </g>
    </g>
    <g id="xtick_9">
     <g id="line2d_17">
      <path d="M 284.454545 384.48 
L 284.454545 51.84 
" clip-path="url(#p3817a95640)" style="fill: none; stroke: #ffffff; stroke-width: 0.8; stroke-linecap: square"/>
     </g>
     <g id="line2d_18">
      <g>
       <use xlink:href="#m903f03cd58" x="284.454545" y="384.48" style="fill: #ffffff; stroke: #ffffff; stroke-width: 0.8"/>
      </g>
     </g>
     <g id="text_9">
      <!-- 83859 -->
      <g style="fill: #ffffff" transform="translate(275.158301 419.347741) rotate(-45) scale(0.1 -0.1)">
       <use xlink:href="#DejaVuSans-38"/>
       <use xlink:href="#DejaVuSans-33" x="63.623047"/>
       <use xlink:href="#DejaVuSans-38" x="127.246094"/>
       <use xlink:href="#DejaVuSans-35" x="190.869141"/>
       <use xlink:href="#DejaVuSans-39" x="254.492188"/>
      </g>
     </g>
    </g>
    <g id="xtick_10">
     <g id="line2d_19">
      <path d="M 305.590909 384.48 
L 305.590909 51.84 
" clip-path="url(#p3817a95640)" style="fill: none; stroke: #ffffff; stroke-width: 0.8; stroke-linecap: square"/>
     </g>
     <g id="line2d_20">
      <g>
       <use xlink:href="#m903f03cd58" x="305.590909" y="384.48" style="fill: #ffffff; stroke: #ffffff; stroke-width: 0.8"/>
      </g>
     </g>
     <g id="text_10">
      <!-- 89448 -->
      <g style="fill: #ffffff" transform="translate(296.294665 419.347741) rotate(-45) scale(0.1 -0.1)">
       <use xlink:href="#DejaVuSans-38"/>
       <use xlink:href="#DejaVuSans-39" x="63.623047"/>
       <use xlink:href="#DejaVuSans-34" x="127.246094"/>
       <use xlink:href="#DejaVuSans-34" x="190.869141"/>
       <use xlink:href="#DejaVuSans-38" x="254.492188"/>
      </g>
     </g>
    </g>
    <g id="xtick_11">
     <g id="line2d_21">
      <path d="M 326.727273 384.48 
L 326.727273 51.84 
" clip-path="url(#p3817a95640)" style="fill: none; stroke: #ffffff; stroke-width: 0.8; stroke-linecap: square"/>
     </g>
     <g id="line2d_22">
      <g>
       <use xlink:href="#m903f03cd58" x="326.727273" y="384.48" style="fill: #ffffff; stroke: #ffffff; stroke-width: 0.8"/>
      </g>
     </g>
     <g id="text_11">
      <!-- 95835 -->
      <g style="fill: #ffffff" transform="translate(317.431028 419.347741) rotate(-45) scale(0.1 -0.1)">
       <use xlink:href="#DejaVuSans-39"/>
       <use xlink:href="#DejaVuSans-35" x="63.623047"/>
       <use xlink:href="#DejaVuSans-38" x="127.246094"/>
       <use xlink:href="#DejaVuSans-33" x="190.869141"/>
       <use xlink:href="#DejaVuSans-35" x="254.492188"/>
      </g>
     </g>
    </g>
    <g id="xtick_12">
     <g id="line2d_23">
      <path d="M 347.863636 384.48 
L 347.863636 51.84 
" clip-path="url(#p3817a95640)" style="fill: none; stroke: #ffffff; stroke-width: 0.8; stroke-linecap: square"/>
     </g>
     <g id="line2d_24">
      <g>
       <use xlink:href="#m903f03cd58" x="347.863636" y="384.48" style="fill: #ffffff; stroke: #ffffff; stroke-width: 0.8"/>
      </g>
     </g>
     <g id="text_12">
      <!-- 103204 -->
      <g style="fill: #ffffff" transform="translate(336.317908 423.846708) rotate(-45) scale(0.1 -0.1)">
       <use xlink:href="#DejaVuSans-31"/>
       <use xlink:href="#DejaVuSans-30" x="63.623047"/>
       <use xlink:href="#DejaVuSans-33" x="127.246094"/>
       <use xlink:href="#DejaVuSans-32" x="190.869141"/>
       <use xlink:href="#DejaVuSans-30" x="254.492188"/>
       <use xlink:href="#DejaVuSans-34" x="318.115234"/>
      </g>
     </g>
    </g>
    <g id="xtick_13">
     <g id="line2d_25">
      <path d="M 369 384.48 
L 369 51.84 
" clip-path="url(#p3817a95640)" style="fill: none; stroke: #ffffff; stroke-width: 0.8; stroke-linecap: square"/>
     </g>
     <g id="line2d_26">
      <g>
       <use xlink:href="#m903f03cd58" x="369" y="384.48" style="fill: #ffffff; stroke: #ffffff; stroke-width: 0.8"/>
      </g>
     </g>
     <g id="text_13">
      <!-- 111801 -->
      <g style="fill: #ffffff" transform="translate(357.454272 423.846708) rotate(-45) scale(0.1 -0.1)">
       <use xlink:href="#DejaVuSans-31"/>
       <use xlink:href="#DejaVuSans-31" x="63.623047"/>
       <use xlink:href="#DejaVuSans-31" x="127.246094"/>
       <use xlink:href="#DejaVuSans-38" x="190.869141"/>
       <use xlink:href="#DejaVuSans-30" x="254.492188"/>
       <use xlink:href="#DejaVuSans-31" x="318.115234"/>
      </g>
     </g>
    </g>
    <g id="xtick_14">
     <g id="line2d_27">
      <path d="M 390.136364 384.48 
L 390.136364 51.84 
" clip-path="url(#p3817a95640)" style="fill: none; stroke: #ffffff; stroke-width: 0.8; stroke-linecap: square"/>
     </g>
     <g id="line2d_28">
      <g>
       <use xlink:href="#m903f03cd58" x="390.136364" y="384.48" style="fill: #ffffff; stroke: #ffffff; stroke-width: 0.8"/>
      </g>
     </g>
     <g id="text_14">
      <!-- 121960 -->
      <g style="fill: #ffffff" transform="translate(378.590636 423.846708) rotate(-45) scale(0.1 -0.1)">
       <use xlink:href="#DejaVuSans-31"/>
       <use xlink:href="#DejaVuSans-32" x="63.623047"/>
       <use xlink:href="#DejaVuSans-31" x="127.246094"/>
       <use xlink:href="#DejaVuSans-39" x="190.869141"/>
       <use xlink:href="#DejaVuSans-36" x="254.492188"/>
       <use xlink:href="#DejaVuSans-30" x="318.115234"/>
      </g>
     </g>
    </g>
    <g id="xtick_15">
     <g id="line2d_29">
      <path d="M 411.272727 384.48 
L 411.272727 51.84 
" clip-path="url(#p3817a95640)" style="fill: none; stroke: #ffffff; stroke-width: 0.8; stroke-linecap: square"/>
     </g>
     <g id="line2d_30">
      <g>
       <use xlink:href="#m903f03cd58" x="411.272727" y="384.48" style="fill: #ffffff; stroke: #ffffff; stroke-width: 0.8"/>
      </g>
     </g>
     <g id="text_15">
      <!-- 134150 -->
      <g style="fill: #ffffff" transform="translate(399.726999 423.846708) rotate(-45) scale(0.1 -0.1)">
       <use xlink:href="#DejaVuSans-31"/>
       <use xlink:href="#DejaVuSans-33" x="63.623047"/>
       <use xlink:href="#DejaVuSans-34" x="127.246094"/>
       <use xlink:href="#DejaVuSans-31" x="190.869141"/>
       <use xlink:href="#DejaVuSans-35" x="254.492188"/>
       <use xlink:href="#DejaVuSans-30" x="318.115234"/>
      </g>
     </g>
    </g>
    <g id="xtick_16">
     <g id="line2d_31">
      <path d="M 432.409091 384.48 
L 432.409091 51.84 
" clip-path="url(#p3817a95640)" style="fill: none; stroke: #ffffff; stroke-width: 0.8; stroke-linecap: square"/>
     </g>
     <g id="line2d_32">
      <g>
       <use xlink:href="#m903f03cd58" x="432.409091" y="384.48" style="fill: #ffffff; stroke: #ffffff; stroke-width: 0.8"/>
      </g>
     </g>
     <g id="text_16">
      <!-- 149048 -->
      <g style="fill: #ffffff" transform="translate(420.863363 423.846708) rotate(-45) scale(0.1 -0.1)">
       <use xlink:href="#DejaVuSans-31"/>
       <use xlink:href="#DejaVuSans-34" x="63.623047"/>
       <use xlink:href="#DejaVuSans-39" x="127.246094"/>
       <use xlink:href="#DejaVuSans-30" x="190.869141"/>
       <use xlink:href="#DejaVuSans-34" x="254.492188"/>
       <use xlink:href="#DejaVuSans-38" x="318.115234"/>
      </g>
     </g>
    </g>
    <g id="xtick_17">
     <g id="line2d_33">
      <path d="M 453.545455 384.48 
L 453.545455 51.84 
" clip-path="url(#p3817a95640)" style="fill: none; stroke: #ffffff; stroke-width: 0.8; stroke-linecap: square"/>
     </g>
     <g id="line2d_34">
      <g>
       <use xlink:href="#m903f03cd58" x="453.545455" y="384.48" style="fill: #ffffff; stroke: #ffffff; stroke-width: 0.8"/>
      </g>
     </g>
     <g id="text_17">
      <!-- 167667 -->
      <g style="fill: #ffffff" transform="translate(441.999727 423.846708) rotate(-45) scale(0.1 -0.1)">
       <use xlink:href="#DejaVuSans-31"/>
       <use xlink:href="#DejaVuSans-36" x="63.623047"/>
       <use xlink:href="#DejaVuSans-37" x="127.246094"/>
       <use xlink:href="#DejaVuSans-36" x="190.869141"/>
       <use xlink:href="#DejaVuSans-36" x="254.492188"/>
       <use xlink:href="#DejaVuSans-37" x="318.115234"/>
      </g>
     </g>
    </g>
    <g id="xtick_18">
     <g id="line2d_35">
      <path d="M 474.681818 384.48 
L 474.681818 51.84 
" clip-path="url(#p3817a95640)" style="fill: none; stroke: #ffffff; stroke-width: 0.8; stroke-linecap: square"/>
     </g>
     <g id="line2d_36">
      <g>
       <use xlink:href="#m903f03cd58" x="474.681818" y="384.48" style="fill: #ffffff; stroke: #ffffff; stroke-width: 0.8"/>
      </g>
     </g>
     <g id="text_18">
      <!-- 191602 -->
      <g style="fill: #ffffff" transform="translate(463.13609 423.846708) rotate(-45) scale(0.1 -0.1)">
       <use xlink:href="#DejaVuSans-31"/>
       <use xlink:href="#DejaVuSans-39" x="63.623047"/>
       <use xlink:href="#DejaVuSans-31" x="127.246094"/>
       <use xlink:href="#DejaVuSans-36" x="190.869141"/>
       <use xlink:href="#DejaVuSans-30" x="254.492188"/>
       <use xlink:href="#DejaVuSans-32" x="318.115234"/>
      </g>
     </g>
    </g>
    <g id="xtick_19">
     <g id="line2d_37">
      <path d="M 495.818182 384.48 
L 495.818182 51.84 
" clip-path="url(#p3817a95640)" style="fill: none; stroke: #ffffff; stroke-width: 0.8; stroke-linecap: square"/>
     </g>
     <g id="line2d_38">
      <g>
       <use xlink:href="#m903f03cd58" x="495.818182" y="384.48" style="fill: #ffffff; stroke: #ffffff; stroke-width: 0.8"/>
      </g>
     </g>
     <g id="text_19">
      <!-- 223509 -->
      <g style="fill: #ffffff" transform="translate(484.272454 423.846708) rotate(-45) scale(0.1 -0.1)">
       <use xlink:href="#DejaVuSans-32"/>
       <use xlink:href="#DejaVuSans-32" x="63.623047"/>
       <use xlink:href="#DejaVuSans-33" x="127.246094"/>
       <use xlink:href="#DejaVuSans-35" x="190.869141"/>
       <use xlink:href="#DejaVuSans-30" x="254.492188"/>
       <use xlink:href="#DejaVuSans-39" x="318.115234"/>
      </g>
     </g>
    </g>
    <g id="xtick_20">
     <g id="line2d_39">
      <path d="M 516.954545 384.48 
L 516.954545 51.84 
" clip-path="url(#p3817a95640)" style="fill: none; stroke: #ffffff; stroke-width: 0.8; stroke-linecap: square"/>
     </g>
     <g id="line2d_40">
      <g>
       <use xlink:href="#m903f03cd58" x="516.954545" y="384.48" style="fill: #ffffff; stroke: #ffffff; stroke-width: 0.8"/>
      </g>
     </g>
     <g id="text_20">
      <!-- 268167 -->
      <g style="fill: #ffffff" transform="translate(505.408818 423.846708) rotate(-45) scale(0.1 -0.1)">
       <use xlink:href="#DejaVuSans-32"/>
       <use xlink:href="#DejaVuSans-36" x="63.623047"/>
       <use xlink:href="#DejaVuSans-38" x="127.246094"/>
       <use xlink:href="#DejaVuSans-31" x="190.869141"/>
       <use xlink:href="#DejaVuSans-36" x="254.492188"/>
       <use xlink:href="#DejaVuSans-37" x="318.115234"/>
      </g>
     </g>
    </g>
    <g id="xtick_21">
     <g id="line2d_41">
      <path d="M 538.090909 384.48 
L 538.090909 51.84 
" clip-path="url(#p3817a95640)" style="fill: none; stroke: #ffffff; stroke-width: 0.8; stroke-linecap: square"/>
     </g>
     <g id="line2d_42">
      <g>
       <use xlink:href="#m903f03cd58" x="538.090909" y="384.48" style="fill: #ffffff; stroke: #ffffff; stroke-width: 0.8"/>
      </g>
     </g>
     <g id="text_21">
      <!-- 335125 -->
      <g style="fill: #ffffff" transform="translate(526.545181 423.846708) rotate(-45) scale(0.1 -0.1)">
       <use xlink:href="#DejaVuSans-33"/>
       <use xlink:href="#DejaVuSans-33" x="63.623047"/>
       <use xlink:href="#DejaVuSans-35" x="127.246094"/>
       <use xlink:href="#DejaVuSans-31" x="190.869141"/>
       <use xlink:href="#DejaVuSans-32" x="254.492188"/>
       <use xlink:href="#DejaVuSans-35" x="318.115234"/>
      </g>
     </g>
    </g>
    <g id="xtick_22">
     <g id="line2d_43">
      <path d="M 559.227273 384.48 
L 559.227273 51.84 
" clip-path="url(#p3817a95640)" style="fill: none; stroke: #ffffff; stroke-width: 0.8; stroke-linecap: square"/>
     </g>
     <g id="line2d_44">
      <g>
       <use xlink:href="#m903f03cd58" x="559.227273" y="384.48" style="fill: #ffffff; stroke: #ffffff; stroke-width: 0.8"/>
      </g>
     </g>
     <g id="text_22">
      <!-- 446648 -->
      <g style="fill: #ffffff" transform="translate(547.681545 423.846708) rotate(-45) scale(0.1 -0.1)">
       <use xlink:href="#DejaVuSans-34"/>
       <use xlink:href="#DejaVuSans-34" x="63.623047"/>
       <use xlink:href="#DejaVuSans-36" x="127.246094"/>
       <use xlink:href="#DejaVuSans-36" x="190.869141"/>
       <use xlink:href="#DejaVuSans-34" x="254.492188"/>
       <use xlink:href="#DejaVuSans-38" x="318.115234"/>
      </g>
     </g>
    </g>
    <g id="xtick_23">
     <g id="line2d_45">
      <path d="M 580.363636 384.48 
L 580.363636 51.84 
" clip-path="url(#p3817a95640)" style="fill: none; stroke: #ffffff; stroke-width: 0.8; stroke-linecap: square"/>
     </g>
     <g id="line2d_46">
      <g>
       <use xlink:href="#m903f03cd58" x="580.363636" y="384.48" style="fill: #ffffff; stroke: #ffffff; stroke-width: 0.8"/>
      </g>
     </g>
     <g id="text_23">
      <!-- 669415 -->
      <g style="fill: #ffffff" transform="translate(568.817908 423.846708) rotate(-45) scale(0.1 -0.1)">
       <use xlink:href="#DejaVuSans-36"/>
       <use xlink:href="#DejaVuSans-36" x="63.623047"/>
       <use xlink:href="#DejaVuSans-39" x="127.246094"/>
       <use xlink:href="#DejaVuSans-34" x="190.869141"/>
       <use xlink:href="#DejaVuSans-31" x="254.492188"/>
       <use xlink:href="#DejaVuSans-35" x="318.115234"/>
      </g>
     </g>
    </g>
    <g id="xtick_24">
     <g id="line2d_47">
      <path d="M 601.5 384.48 
L 601.5 51.84 
" clip-path="url(#p3817a95640)" style="fill: none; stroke: #ffffff; stroke-width: 0.8; stroke-linecap: square"/>
     </g>
     <g id="line2d_48">
      <g>
       <use xlink:href="#m903f03cd58" x="601.5" y="384.48" style="fill: #ffffff; stroke: #ffffff; stroke-width: 0.8"/>
      </g>
     </g>
     <g id="text_24">
      <!-- 1335499 -->
      <g style="fill: #ffffff" transform="translate(587.704789 428.345675) rotate(-45) scale(0.1 -0.1)">
       <use xlink:href="#DejaVuSans-31"/>
       <use xlink:href="#DejaVuSans-33" x="63.623047"/>
       <use xlink:href="#DejaVuSans-33" x="127.246094"/>
       <use xlink:href="#DejaVuSans-35" x="190.869141"/>
       <use xlink:href="#DejaVuSans-34" x="254.492188"/>
       <use xlink:href="#DejaVuSans-39" x="318.115234"/>
       <use xlink:href="#DejaVuSans-39" x="381.738281"/>
      </g>
     </g>
    </g>
    <g id="xtick_25">
     <g id="line2d_49">
      <path d="M 622.636364 384.48 
L 622.636364 51.84 
" clip-path="url(#p3817a95640)" style="fill: none; stroke: #ffffff; stroke-width: 0.8; stroke-linecap: square"/>
     </g>
     <g id="line2d_50">
      <g>
       <use xlink:href="#m903f03cd58" x="622.636364" y="384.48" style="fill: #ffffff; stroke: #ffffff; stroke-width: 0.8"/>
      </g>
     </g>
     <g id="text_25">
      <!-- 268435456 -->
      <g style="fill: #ffffff" transform="translate(604.342185 437.343609) rotate(-45) scale(0.1 -0.1)">
       <use xlink:href="#DejaVuSans-32"/>
       <use xlink:href="#DejaVuSans-36" x="63.623047"/>
       <use xlink:href="#DejaVuSans-38" x="127.246094"/>
       <use xlink:href="#DejaVuSans-34" x="190.869141"/>
       <use xlink:href="#DejaVuSans-33" x="254.492188"/>
       <use xlink:href="#DejaVuSans-35" x="318.115234"/>
       <use xlink:href="#DejaVuSans-34" x="381.738281"/>
       <use xlink:href="#DejaVuSans-35" x="445.361328"/>
       <use xlink:href="#DejaVuSans-36" x="508.984375"/>
      </g>
     </g>
    </g>
    <g id="text_26">
     <!-- chunk_size -->
     <g style="fill: #ffffff" transform="translate(341.654688 450.412607) scale(0.1 -0.1)">
      <defs>
       <path id="DejaVuSans-63" d="M 3122 3366 
L 3122 2828 
Q 2878 2963 2633 3030 
Q 2388 3097 2138 3097 
Q 1578 3097 1268 2742 
Q 959 2388 959 1747 
Q 959 1106 1268 751 
Q 1578 397 2138 397 
Q 2388 397 2633 464 
Q 2878 531 3122 666 
L 3122 134 
Q 2881 22 2623 -34 
Q 2366 -91 2075 -91 
Q 1284 -91 818 406 
Q 353 903 353 1747 
Q 353 2603 823 3093 
Q 1294 3584 2113 3584 
Q 2378 3584 2631 3529 
Q 2884 3475 3122 3366 
z
" transform="scale(0.015625)"/>
       <path id="DejaVuSans-68" d="M 3513 2113 
L 3513 0 
L 2938 0 
L 2938 2094 
Q 2938 2591 2744 2837 
Q 2550 3084 2163 3084 
Q 1697 3084 1428 2787 
Q 1159 2491 1159 1978 
L 1159 0 
L 581 0 
L 581 4863 
L 1159 4863 
L 1159 2956 
Q 1366 3272 1645 3428 
Q 1925 3584 2291 3584 
Q 2894 3584 3203 3211 
Q 3513 2838 3513 2113 
z
" transform="scale(0.015625)"/>
       <path id="DejaVuSans-75" d="M 544 1381 
L 544 3500 
L 1119 3500 
L 1119 1403 
Q 1119 906 1312 657 
Q 1506 409 1894 409 
Q 2359 409 2629 706 
Q 2900 1003 2900 1516 
L 2900 3500 
L 3475 3500 
L 3475 0 
L 2900 0 
L 2900 538 
Q 2691 219 2414 64 
Q 2138 -91 1772 -91 
Q 1169 -91 856 284 
Q 544 659 544 1381 
z
M 1991 3584 
L 1991 3584 
z
" transform="scale(0.015625)"/>
       <path id="DejaVuSans-6e" d="M 3513 2113 
L 3513 0 
L 2938 0 
L 2938 2094 
Q 2938 2591 2744 2837 
Q 2550 3084 2163 3084 
Q 1697 3084 1428 2787 
Q 1159 2491 1159 1978 
L 1159 0 
L 581 0 
L 581 3500 
L 1159 3500 
L 1159 2956 
Q 1366 3272 1645 3428 
Q 1925 3584 2291 3584 
Q 2894 3584 3203 3211 
Q 3513 2838 3513 2113 
z
" transform="scale(0.015625)"/>
       <path id="DejaVuSans-6b" d="M 581 4863 
L 1159 4863 
L 1159 1991 
L 2875 3500 
L 3609 3500 
L 1753 1863 
L 3688 0 
L 2938 0 
L 1159 1709 
L 1159 0 
L 581 0 
L 581 4863 
z
" transform="scale(0.015625)"/>
       <path id="DejaVuSans-5f" d="M 3263 -1063 
L 3263 -1509 
L -63 -1509 
L -63 -1063 
L 3263 -1063 
z
" transform="scale(0.015625)"/>
       <path id="DejaVuSans-73" d="M 2834 3397 
L 2834 2853 
Q 2591 2978 2328 3040 
Q 2066 3103 1784 3103 
Q 1356 3103 1142 2972 
Q 928 2841 928 2578 
Q 928 2378 1081 2264 
Q 1234 2150 1697 2047 
L 1894 2003 
Q 2506 1872 2764 1633 
Q 3022 1394 3022 966 
Q 3022 478 2636 193 
Q 2250 -91 1575 -91 
Q 1294 -91 989 -36 
Q 684 19 347 128 
L 347 722 
Q 666 556 975 473 
Q 1284 391 1588 391 
Q 1994 391 2212 530 
Q 2431 669 2431 922 
Q 2431 1156 2273 1281 
Q 2116 1406 1581 1522 
L 1381 1569 
Q 847 1681 609 1914 
Q 372 2147 372 2553 
Q 372 3047 722 3315 
Q 1072 3584 1716 3584 
Q 2034 3584 2315 3537 
Q 2597 3491 2834 3397 
z
" transform="scale(0.015625)"/>
       <path id="DejaVuSans-69" d="M 603 3500 
L 1178 3500 
L 1178 0 
L 603 0 
L 603 3500 
z
M 603 4863 
L 1178 4863 
L 1178 4134 
L 603 4134 
L 603 4863 
z
" transform="scale(0.015625)"/>
       <path id="DejaVuSans-7a" d="M 353 3500 
L 3084 3500 
L 3084 2975 
L 922 459 
L 3084 459 
L 3084 0 
L 275 0 
L 275 525 
L 2438 3041 
L 353 3041 
L 353 3500 
z
" transform="scale(0.015625)"/>
       <path id="DejaVuSans-65" d="M 3597 1894 
L 3597 1613 
L 953 1613 
Q 991 1019 1311 708 
Q 1631 397 2203 397 
Q 2534 397 2845 478 
Q 3156 559 3463 722 
L 3463 178 
Q 3153 47 2828 -22 
Q 2503 -91 2169 -91 
Q 1331 -91 842 396 
Q 353 884 353 1716 
Q 353 2575 817 3079 
Q 1281 3584 2069 3584 
Q 2775 3584 3186 3129 
Q 3597 2675 3597 1894 
z
M 3022 2063 
Q 3016 2534 2758 2815 
Q 2500 3097 2075 3097 
Q 1594 3097 1305 2825 
Q 1016 2553 972 2059 
L 3022 2063 
z
" transform="scale(0.015625)"/>
      </defs>
      <use xlink:href="#DejaVuSans-63"/>
      <use xlink:href="#DejaVuSans-68" x="54.980469"/>
      <use xlink:href="#DejaVuSans-75" x="118.359375"/>
      <use xlink:href="#DejaVuSans-6e" x="181.738281"/>
      <use xlink:href="#DejaVuSans-6b" x="245.117188"/>
      <use xlink:href="#DejaVuSans-5f" x="303.027344"/>
      <use xlink:href="#DejaVuSans-73" x="353.027344"/>
      <use xlink:href="#DejaVuSans-69" x="405.126953"/>
      <use xlink:href="#DejaVuSans-7a" x="432.910156"/>
      <use xlink:href="#DejaVuSans-65" x="485.400391"/>
     </g>
    </g>
   </g>
   <g id="matplotlib.axis_2">
    <g id="ytick_1">
     <g id="line2d_51">
      <path d="M 90 341.088604 
L 648 341.088604 
" clip-path="url(#p3817a95640)" style="fill: none; stroke: #ffffff; stroke-width: 0.8; stroke-linecap: square"/>
     </g>
     <g id="line2d_52">
      <defs>
       <path id="m8bdf39599f" d="M 0 0 
L -3.5 0 
" style="stroke: #ffffff; stroke-width: 0.8"/>
      </defs>
      <g>
       <use xlink:href="#m8bdf39599f" x="90" y="341.088604" style="fill: #ffffff; stroke: #ffffff; stroke-width: 0.8"/>
      </g>
     </g>
     <g id="text_27">
      <!-- 100 -->
      <g style="fill: #ffffff" transform="translate(63.9125 344.887823) scale(0.1 -0.1)">
       <use xlink:href="#DejaVuSans-31"/>
       <use xlink:href="#DejaVuSans-30" x="63.623047"/>
       <use xlink:href="#DejaVuSans-30" x="127.246094"/>
      </g>
     </g>
    </g>
    <g id="ytick_2">
     <g id="line2d_53">
      <path d="M 90 278.295159 
L 648 278.295159 
" clip-path="url(#p3817a95640)" style="fill: none; stroke: #ffffff; stroke-width: 0.8; stroke-linecap: square"/>
     </g>
     <g id="line2d_54">
      <g>
       <use xlink:href="#m8bdf39599f" x="90" y="278.295159" style="fill: #ffffff; stroke: #ffffff; stroke-width: 0.8"/>
      </g>
     </g>
     <g id="text_28">
      <!-- 200 -->
      <g style="fill: #ffffff" transform="translate(63.9125 282.094378) scale(0.1 -0.1)">
       <use xlink:href="#DejaVuSans-32"/>
       <use xlink:href="#DejaVuSans-30" x="63.623047"/>
       <use xlink:href="#DejaVuSans-30" x="127.246094"/>
      </g>
     </g>
    </g>
    <g id="ytick_3">
     <g id="line2d_55">
      <path d="M 90 215.501714 
L 648 215.501714 
" clip-path="url(#p3817a95640)" style="fill: none; stroke: #ffffff; stroke-width: 0.8; stroke-linecap: square"/>
     </g>
     <g id="line2d_56">
      <g>
       <use xlink:href="#m8bdf39599f" x="90" y="215.501714" style="fill: #ffffff; stroke: #ffffff; stroke-width: 0.8"/>
      </g>
     </g>
     <g id="text_29">
      <!-- 300 -->
      <g style="fill: #ffffff" transform="translate(63.9125 219.300933) scale(0.1 -0.1)">
       <use xlink:href="#DejaVuSans-33"/>
       <use xlink:href="#DejaVuSans-30" x="63.623047"/>
       <use xlink:href="#DejaVuSans-30" x="127.246094"/>
      </g>
     </g>
    </g>
    <g id="ytick_4">
     <g id="line2d_57">
      <path d="M 90 152.708269 
L 648 152.708269 
" clip-path="url(#p3817a95640)" style="fill: none; stroke: #ffffff; stroke-width: 0.8; stroke-linecap: square"/>
     </g>
     <g id="line2d_58">
      <g>
       <use xlink:href="#m8bdf39599f" x="90" y="152.708269" style="fill: #ffffff; stroke: #ffffff; stroke-width: 0.8"/>
      </g>
     </g>
     <g id="text_30">
      <!-- 400 -->
      <g style="fill: #ffffff" transform="translate(63.9125 156.507488) scale(0.1 -0.1)">
       <use xlink:href="#DejaVuSans-34"/>
       <use xlink:href="#DejaVuSans-30" x="63.623047"/>
       <use xlink:href="#DejaVuSans-30" x="127.246094"/>
      </g>
     </g>
    </g>
    <g id="ytick_5">
     <g id="line2d_59">
      <path d="M 90 89.914824 
L 648 89.914824 
" clip-path="url(#p3817a95640)" style="fill: none; stroke: #ffffff; stroke-width: 0.8; stroke-linecap: square"/>
     </g>
     <g id="line2d_60">
      <g>
       <use xlink:href="#m8bdf39599f" x="90" y="89.914824" style="fill: #ffffff; stroke: #ffffff; stroke-width: 0.8"/>
      </g>
     </g>
     <g id="text_31">
      <!-- 500 -->
      <g style="fill: #ffffff" transform="translate(63.9125 93.714042) scale(0.1 -0.1)">
       <use xlink:href="#DejaVuSans-35"/>
       <use xlink:href="#DejaVuSans-30" x="63.623047"/>
       <use xlink:href="#DejaVuSans-30" x="127.246094"/>
      </g>
     </g>
    </g>
    <g id="text_32">
     <!-- time (ms) -->
     <g style="fill: #ffffff" transform="translate(57.832812 242.421719) rotate(-90) scale(0.1 -0.1)">
      <defs>
       <path id="DejaVuSans-74" d="M 1172 4494 
L 1172 3500 
L 2356 3500 
L 2356 3053 
L 1172 3053 
L 1172 1153 
Q 1172 725 1289 603 
Q 1406 481 1766 481 
L 2356 481 
L 2356 0 
L 1766 0 
Q 1100 0 847 248 
Q 594 497 594 1153 
L 594 3053 
L 172 3053 
L 172 3500 
L 594 3500 
L 594 4494 
L 1172 4494 
z
" transform="scale(0.015625)"/>
       <path id="DejaVuSans-6d" d="M 3328 2828 
Q 3544 3216 3844 3400 
Q 4144 3584 4550 3584 
Q 5097 3584 5394 3201 
Q 5691 2819 5691 2113 
L 5691 0 
L 5113 0 
L 5113 2094 
Q 5113 2597 4934 2840 
Q 4756 3084 4391 3084 
Q 3944 3084 3684 2787 
Q 3425 2491 3425 1978 
L 3425 0 
L 2847 0 
L 2847 2094 
Q 2847 2600 2669 2842 
Q 2491 3084 2119 3084 
Q 1678 3084 1418 2786 
Q 1159 2488 1159 1978 
L 1159 0 
L 581 0 
L 581 3500 
L 1159 3500 
L 1159 2956 
Q 1356 3278 1631 3431 
Q 1906 3584 2284 3584 
Q 2666 3584 2933 3390 
Q 3200 3197 3328 2828 
z
" transform="scale(0.015625)"/>
       <path id="DejaVuSans-20" transform="scale(0.015625)"/>
       <path id="DejaVuSans-28" d="M 1984 4856 
Q 1566 4138 1362 3434 
Q 1159 2731 1159 2009 
Q 1159 1288 1364 580 
Q 1569 -128 1984 -844 
L 1484 -844 
Q 1016 -109 783 600 
Q 550 1309 550 2009 
Q 550 2706 781 3412 
Q 1013 4119 1484 4856 
L 1984 4856 
z
" transform="scale(0.015625)"/>
       <path id="DejaVuSans-29" d="M 513 4856 
L 1013 4856 
Q 1481 4119 1714 3412 
Q 1947 2706 1947 2009 
Q 1947 1309 1714 600 
Q 1481 -109 1013 -844 
L 513 -844 
Q 928 -128 1133 580 
Q 1338 1288 1338 2009 
Q 1338 2731 1133 3434 
Q 928 4138 513 4856 
z
" transform="scale(0.015625)"/>
      </defs>
      <use xlink:href="#DejaVuSans-74"/>
      <use xlink:href="#DejaVuSans-69" x="39.208984"/>
      <use xlink:href="#DejaVuSans-6d" x="66.992188"/>
      <use xlink:href="#DejaVuSans-65" x="164.404297"/>
      <use xlink:href="#DejaVuSans-20" x="225.927734"/>
      <use xlink:href="#DejaVuSans-28" x="257.714844"/>
      <use xlink:href="#DejaVuSans-6d" x="296.728516"/>
      <use xlink:href="#DejaVuSans-73" x="394.140625"/>
      <use xlink:href="#DejaVuSans-29" x="446.240234"/>
     </g>
    </g>
   </g>
   <g id="line2d_61">
    <path d="M 115.363636 280.283005 
L 117.057368 277.578963 
L 118.7511 275.29263 
L 120.444832 273.39716 
L 122.138564 271.865707 
L 123.832296 270.671425 
L 125.526028 269.787467 
L 127.21976 269.186987 
L 128.913492 268.84314 
L 130.607224 268.729079 
L 132.300956 268.817958 
L 133.994688 269.082932 
L 136.535286 269.751842 
L 139.075884 270.665955 
L 143.310214 272.488281 
L 148.39141 274.651313 
L 150.932008 275.511697 
L 153.472606 276.103851 
L 155.166338 276.30486 
L 156.86007 276.319542 
L 158.553802 276.122712 
L 160.247534 275.720878 
L 162.788132 274.810469 
L 165.32873 273.638686 
L 173.79739 269.402383 
L 176.337988 268.499584 
L 178.03172 268.104408 
L 179.725452 267.914516 
L 181.419183 267.929059 
L 183.112915 268.117632 
L 185.653513 268.658236 
L 189.040977 269.695614 
L 195.815905 271.915478 
L 198.356503 272.474584 
L 200.050235 272.679608 
L 201.743967 272.725439 
L 204.284565 272.533318 
L 206.825163 272.097756 
L 210.212627 271.273651 
L 217.834421 269.307335 
L 220.375019 268.895808 
L 222.915617 268.731912 
L 225.456215 268.845132 
L 227.996813 269.241423 
L 230.537411 269.92652 
L 233.078009 270.906155 
L 235.618607 272.186064 
L 238.159205 273.77198 
L 240.699803 275.669637 
L 243.240401 277.883434 
L 246.627865 281.243204 
L 256.790256 291.791542 
L 259.330854 293.984859 
L 261.024586 295.238364 
L 262.718318 296.288638 
L 264.41205 297.107152 
L 266.105782 297.697448 
L 267.799514 298.084939 
L 269.493246 298.295459 
L 272.033844 298.335932 
L 274.574442 298.123541 
L 277.961906 297.597708 
L 283.889968 296.590431 
L 286.430566 296.343317 
L 289.81803 296.270717 
L 293.205494 296.47214 
L 296.592958 296.92595 
L 299.980422 297.610515 
L 303.367886 298.5042 
L 307.602216 299.882266 
L 311.836546 301.506583 
L 316.917742 303.70907 
L 323.69267 306.930422 
L 336.395659 313.054953 
L 340.629989 314.781372 
L 344.017453 315.926645 
L 347.404917 316.803118 
L 350.792381 317.373557 
L 354.179845 317.705425 
L 366.882835 318.643996 
L 369.423433 319.103415 
L 372.810897 319.975155 
L 377.045227 321.337268 
L 384.667021 323.86504 
L 388.054485 324.736385 
L 390.595083 325.18642 
L 393.135681 325.434301 
L 396.523145 325.521913 
L 401.604341 325.37138 
L 407.532402 325.241248 
L 410.919866 325.41764 
L 413.460464 325.751122 
L 416.847928 326.449985 
L 420.235392 327.375566 
L 425.316588 329.036619 
L 435.47898 332.484581 
L 440.560176 333.909005 
L 444.794506 334.864967 
L 449.028836 335.574038 
L 452.4163 335.940323 
L 455.803764 336.113228 
L 460.88496 336.103643 
L 470.200486 335.979321 
L 473.58795 336.13538 
L 476.975414 336.506069 
L 480.362878 337.085596 
L 484.597207 338.026709 
L 491.372135 339.797762 
L 498.993929 341.738981 
L 504.921991 343.00047 
L 510.850053 344.030359 
L 516.778115 344.827526 
L 531.174837 346.509439 
L 534.562301 347.181573 
L 537.949765 348.080509 
L 541.337229 349.239717 
L 546.418425 351.283305 
L 552.346487 353.682081 
L 555.733951 354.843415 
L 558.274548 355.529401 
L 560.815146 356.009255 
L 564.20261 356.369331 
L 570.130672 356.656769 
L 574.365002 356.978116 
L 576.9056 357.360988 
L 579.446198 357.965416 
L 581.986796 358.848775 
L 584.527394 359.974845 
L 594.689786 364.868343 
L 597.230384 365.676268 
L 598.924116 366.014948 
L 600.617848 366.158229 
L 602.31158 366.075725 
L 604.005312 365.737051 
L 605.699044 365.111822 
L 607.392776 364.169652 
L 609.086508 362.880156 
L 610.78024 361.212949 
L 612.473972 359.137644 
L 614.167704 356.623858 
L 615.861436 353.641203 
L 617.555168 350.159296 
L 619.2489 346.14775 
L 620.942632 341.57618 
L 622.636364 336.414201 
L 622.636364 336.414201 
" clip-path="url(#p3817a95640)" style="fill: none; stroke: #8dd3c7; stroke-width: 1.5; stroke-linecap: square"/>
   </g>
   <g id="line2d_62">
    <path d="M 115.363636 272.914101 
L 122.138564 272.068984 
L 129.760358 270.874158 
L 138.229018 269.299743 
L 148.39141 267.157238 
L 167.022462 263.10068 
L 170.409926 262.661895 
L 173.79739 262.474038 
L 176.337988 262.539008 
L 178.878586 262.812524 
L 181.419183 263.301976 
L 185.653513 264.403225 
L 190.734709 265.709494 
L 193.275307 266.15746 
L 195.815905 266.354967 
L 197.509637 266.305391 
L 199.203369 266.081345 
L 200.897101 265.65974 
L 202.590833 265.052263 
L 205.131431 263.879532 
L 209.365761 261.564662 
L 212.753225 259.752507 
L 215.293823 258.628922 
L 216.987555 258.067861 
L 218.681287 257.704385 
L 220.375019 257.578943 
L 222.068751 257.729672 
L 223.762483 258.160734 
L 225.456215 258.850419 
L 227.149947 259.776369 
L 228.843679 260.916226 
L 231.384277 262.978176 
L 233.924875 265.395648 
L 237.312339 269.041553 
L 241.546669 274.026593 
L 250.015329 284.166707 
L 253.402793 287.874608 
L 255.94339 290.391179 
L 258.483988 292.613701 
L 261.024586 294.48146 
L 262.718318 295.499561 
L 264.41205 296.316756 
L 266.105782 296.938645 
L 267.799514 297.385723 
L 270.340112 297.774031 
L 272.88071 297.885919 
L 275.421308 297.791529 
L 279.655638 297.366326 
L 285.5837 296.752748 
L 289.81803 296.607824 
L 294.899226 296.701808 
L 311.836546 297.49348 
L 315.22401 297.801699 
L 317.764608 298.202596 
L 320.305206 298.804136 
L 322.845804 299.655965 
L 325.386402 300.807727 
L 327.927 302.306522 
L 330.467598 304.132575 
L 333.855061 306.917309 
L 343.170587 314.891926 
L 345.711185 316.703005 
L 348.251783 318.178386 
L 349.945515 318.943613 
L 352.486113 319.800655 
L 355.026711 320.37324 
L 357.567309 320.733928 
L 361.801639 321.061276 
L 367.729701 321.508952 
L 370.270299 321.896076 
L 373.657763 322.654623 
L 378.738959 324.08873 
L 384.667021 325.754528 
L 388.054485 326.482049 
L 390.595083 326.833911 
L 393.135681 326.993209 
L 396.523145 326.979229 
L 403.298073 326.623484 
L 407.532402 326.523266 
L 410.919866 326.701287 
L 413.460464 327.055008 
L 416.847928 327.801825 
L 420.235392 328.791631 
L 425.316588 330.561154 
L 434.632114 333.897886 
L 439.71331 335.40462 
L 443.94764 336.439705 
L 448.18197 337.261614 
L 452.4163 337.858443 
L 456.65063 338.223725 
L 461.731826 338.420113 
L 471.894218 338.488867 
L 477.82228 338.639239 
L 483.750341 339.02579 
L 488.831537 339.571951 
L 493.912733 340.338011 
L 498.993929 341.339544 
L 505.768857 342.945336 
L 518.471847 346.025709 
L 526.093641 347.549743 
L 539.643497 350.19254 
L 555.733951 353.603389 
L 560.815146 354.356461 
L 571.824404 355.752974 
L 575.211868 356.481762 
L 577.752466 357.222031 
L 580.293064 358.171727 
L 582.833662 359.348626 
L 587.914858 362.059525 
L 591.302322 363.810322 
L 593.84292 364.925253 
L 596.383518 365.759216 
L 598.07725 366.109715 
L 599.770982 366.261265 
L 601.464714 366.184236 
L 603.158446 365.848999 
L 604.852178 365.225922 
L 606.54591 364.285378 
L 608.239642 362.997736 
L 609.933374 361.333365 
L 611.627106 359.262637 
L 613.320838 356.755922 
L 615.01457 353.78359 
L 616.708302 350.31601 
L 618.402034 346.323554 
L 620.095766 341.776592 
L 621.789498 336.645493 
L 622.636364 333.851634 
L 622.636364 333.851634 
" clip-path="url(#p3817a95640)" style="fill: none; stroke: #feffb3; stroke-width: 1.5; stroke-linecap: square"/>
   </g>
   <g id="line2d_63">
    <path d="M 115.363636 281.630141 
L 117.057368 277.882136 
L 118.7511 274.722136 
L 120.444832 272.113259 
L 122.138564 270.018627 
L 123.832296 268.401361 
L 125.526028 267.224582 
L 127.21976 266.45141 
L 128.913492 266.044966 
L 130.607224 265.968372 
L 132.300956 266.184747 
L 133.994688 266.657213 
L 135.68842 267.348891 
L 138.229018 268.716755 
L 140.769616 270.370401 
L 150.932008 277.353443 
L 152.62574 278.208881 
L 154.319472 278.87786 
L 156.013204 279.3235 
L 157.706936 279.508923 
L 159.400668 279.410683 
L 161.0944 279.052764 
L 162.788132 278.469612 
L 164.481864 277.695672 
L 167.022462 276.252384 
L 170.409926 273.981738 
L 177.184854 269.286629 
L 179.725452 267.82731 
L 182.266049 266.666348 
L 184.806647 265.810613 
L 187.347245 265.262333 
L 189.887843 265.023738 
L 192.428441 265.097056 
L 194.969039 265.484516 
L 197.509637 266.188347 
L 200.050235 267.210775 
L 202.590833 268.534158 
L 205.978297 270.617533 
L 213.600091 275.491332 
L 216.140689 276.820553 
L 218.681287 277.836769 
L 220.375019 278.291372 
L 222.068751 278.535956 
L 223.762483 278.581506 
L 226.303081 278.363858 
L 229.690545 277.752422 
L 234.771741 276.804871 
L 237.312339 276.613504 
L 239.006071 276.683313 
L 240.699803 276.95827 
L 242.393535 277.47884 
L 244.087267 278.266562 
L 245.780999 279.290695 
L 248.321597 281.183328 
L 250.862195 283.384593 
L 261.024586 292.596493 
L 262.718318 293.801443 
L 264.41205 294.8091 
L 266.105782 295.619778 
L 268.64638 296.522584 
L 271.186978 297.127763 
L 274.574442 297.623792 
L 283.043102 298.602351 
L 285.5837 299.180915 
L 288.124298 299.973896 
L 292.358628 301.592505 
L 299.133556 304.237673 
L 301.674154 305.019758 
L 304.214752 305.578833 
L 306.75535 305.847676 
L 309.295948 305.831255 
L 312.683412 305.514031 
L 320.305206 304.602411 
L 322.845804 304.556484 
L 325.386402 304.788981 
L 327.080134 305.142865 
L 328.773866 305.672471 
L 331.314463 306.753595 
L 333.855061 308.109581 
L 337.242525 310.210574 
L 346.558051 316.287773 
L 349.098649 317.660135 
L 351.639247 318.815692 
L 355.026711 320.061915 
L 358.414175 321.029899 
L 362.648505 321.945584 
L 367.729701 322.776894 
L 388.054485 325.854221 
L 394.829413 327.179288 
L 410.919866 330.457528 
L 416.847928 331.351227 
L 424.469722 332.24772 
L 443.100774 334.320711 
L 454.956898 335.918803 
L 468.506754 337.767904 
L 474.434816 338.358161 
L 481.209744 338.781528 
L 489.678403 339.341501 
L 493.912733 339.830464 
L 498.147063 340.567167 
L 503.228259 341.746403 
L 517.624981 345.31499 
L 522.706177 346.183685 
L 533.715435 347.95301 
L 537.949765 348.928666 
L 542.184095 350.204726 
L 550.652755 353.149359 
L 554.887085 354.485544 
L 558.274548 355.33758 
L 561.662012 355.91766 
L 565.896342 356.350993 
L 573.518136 357.053206 
L 576.9056 357.63938 
L 579.446198 358.299608 
L 581.986796 359.201347 
L 585.37426 360.706221 
L 592.996054 364.259702 
L 595.536652 365.156287 
L 598.07725 365.7498 
L 599.770982 365.929956 
L 601.464714 365.904695 
L 603.158446 365.645727 
L 604.852178 365.124767 
L 606.54591 364.313525 
L 608.239642 363.183715 
L 609.933374 361.70705 
L 611.627106 359.85524 
L 613.320838 357.599999 
L 615.01457 354.913039 
L 616.708302 351.766072 
L 618.402034 348.130811 
L 620.095766 343.978968 
L 621.789498 339.282255 
L 622.636364 336.720732 
L 622.636364 336.720732 
" clip-path="url(#p3817a95640)" style="fill: none; stroke: #bfbbd9; stroke-width: 1.5; stroke-linecap: square"/>
   </g>
   <g id="line2d_64">
    <path d="M 115.363636 272.688275 
L 117.057368 271.752803 
L 118.7511 271.102398 
L 120.444832 270.712973 
L 122.138564 270.560445 
L 123.832296 270.620726 
L 125.526028 270.869731 
L 128.066626 271.544409 
L 130.607224 272.508235 
L 133.994688 274.102622 
L 143.310214 278.819467 
L 145.850812 279.811111 
L 148.39141 280.52288 
L 150.085142 280.801764 
L 151.778874 280.896045 
L 153.472606 280.781637 
L 155.166338 280.434455 
L 156.86007 279.830413 
L 158.553802 278.947436 
L 160.247534 277.801763 
L 162.788132 275.701772 
L 166.175596 272.461752 
L 171.256792 267.500894 
L 173.79739 265.354039 
L 175.491122 264.165105 
L 177.184854 263.230473 
L 178.878586 262.601959 
L 180.572317 262.312851 
L 182.266049 262.334937 
L 183.959781 262.627264 
L 185.653513 263.148879 
L 187.347245 263.858829 
L 189.887843 265.187302 
L 194.122173 267.762939 
L 197.509637 269.780243 
L 200.050235 271.05302 
L 202.590833 272.003824 
L 205.131431 272.658883 
L 207.672029 273.071289 
L 211.059493 273.335463 
L 215.293823 273.383486 
L 222.068751 273.387418 
L 225.456215 273.613209 
L 227.996813 273.965923 
L 230.537411 274.521814 
L 233.078009 275.322284 
L 235.618607 276.408733 
L 238.159205 277.822564 
L 240.699803 279.605179 
L 243.240401 281.795757 
L 245.780999 284.355039 
L 250.015329 289.065326 
L 254.249659 293.758338 
L 256.790256 296.290673 
L 258.483988 297.772583 
L 260.17772 299.040052 
L 261.871452 300.050743 
L 263.565184 300.762367 
L 265.258916 301.15469 
L 266.952648 301.264858 
L 268.64638 301.13923 
L 270.340112 300.824164 
L 272.88071 300.09778 
L 280.502504 297.551681 
L 282.196236 297.208601 
L 283.889968 297.046955 
L 285.5837 297.109175 
L 287.277432 297.392055 
L 288.971164 297.862941 
L 291.511762 298.849284 
L 294.899226 300.513098 
L 301.674154 304.04195 
L 304.214752 305.092655 
L 305.908484 305.620819 
L 308.449082 306.120665 
L 310.98968 306.344555 
L 314.377144 306.37871 
L 320.305206 306.34635 
L 322.845804 306.543937 
L 325.386402 307.006207 
L 327.080134 307.508462 
L 329.620732 308.576703 
L 332.161329 309.945387 
L 335.548793 312.070718 
L 343.170587 316.991929 
L 345.711185 318.331752 
L 348.251783 319.360413 
L 350.792381 320.025943 
L 353.332979 320.389891 
L 355.873577 320.531643 
L 360.107907 320.489747 
L 365.189103 320.433318 
L 367.729701 320.587821 
L 370.270299 320.967276 
L 372.810897 321.586075 
L 376.198361 322.700211 
L 380.432691 324.38879 
L 388.901351 327.862133 
L 392.288815 328.961363 
L 395.676279 329.806406 
L 399.063743 330.423933 
L 402.451207 330.841808 
L 406.685537 331.12584 
L 410.919866 331.195875 
L 416.847928 331.057788 
L 424.469722 330.877904 
L 428.704052 330.985295 
L 432.091516 331.269729 
L 435.47898 331.773749 
L 439.71331 332.639761 
L 452.4163 335.433054 
L 455.803764 335.885413 
L 460.038094 336.220401 
L 472.741084 337.015847 
L 476.128548 337.511142 
L 480.362878 338.395732 
L 486.290939 339.910658 
L 493.065867 341.628023 
L 497.300197 342.474069 
L 502.381393 343.195282 
L 513.390651 344.58527 
L 517.624981 345.413732 
L 521.859311 346.533823 
L 526.940507 348.131501 
L 537.102899 351.390812 
L 541.337229 352.483523 
L 545.571559 353.355702 
L 550.652755 354.152302 
L 555.733951 354.724245 
L 562.508878 355.235041 
L 568.43694 355.71898 
L 571.824404 356.178427 
L 575.211868 356.869475 
L 577.752466 357.587187 
L 580.293064 358.512802 
L 582.833662 359.659593 
L 587.914858 362.298439 
L 592.149188 364.386747 
L 594.689786 365.389643 
L 597.230384 366.086072 
L 598.924116 366.332058 
L 600.617848 366.369776 
L 602.31158 366.170402 
L 604.005312 365.70511 
L 605.699044 364.945078 
L 607.392776 363.861481 
L 609.086508 362.425494 
L 610.78024 360.608292 
L 612.473972 358.381053 
L 614.167704 355.714951 
L 615.861436 352.581163 
L 617.555168 348.950863 
L 619.2489 344.795228 
L 620.942632 340.085433 
L 622.636364 334.792655 
L 622.636364 334.792655 
" clip-path="url(#p3817a95640)" style="fill: none; stroke: #fa8174; stroke-width: 1.5; stroke-linecap: square"/>
   </g>
   <g id="line2d_65">
    <path d="M 115.363636 274.457619 
L 117.057368 270.611505 
L 118.7511 267.440854 
L 120.444832 264.897972 
L 122.138564 262.935166 
L 123.832296 261.50474 
L 125.526028 260.559002 
L 127.21976 260.050259 
L 128.913492 259.930815 
L 130.607224 260.152977 
L 132.300956 260.669052 
L 133.994688 261.431345 
L 136.535286 262.932115 
L 139.92275 265.349766 
L 145.003946 269.093983 
L 147.544544 270.670314 
L 149.238276 271.502356 
L 150.932008 272.10368 
L 152.62574 272.42659 
L 154.319472 272.423394 
L 156.013204 272.046397 
L 157.706936 271.247908 
L 159.400668 270.004315 
L 161.0944 268.377031 
L 162.788132 266.446226 
L 165.32873 263.156288 
L 172.103658 253.98394 
L 173.79739 252.034383 
L 175.491122 250.382577 
L 177.184854 249.108691 
L 178.878586 248.29289 
L 179.725452 248.077769 
L 180.572317 247.987954 
L 182.266049 248.155782 
L 183.959781 248.739449 
L 185.653513 249.682028 
L 187.347245 250.926593 
L 189.040977 252.416216 
L 191.581575 254.985612 
L 200.897101 264.925578 
L 203.437699 267.026067 
L 205.978297 268.766566 
L 208.518895 270.174859 
L 211.059493 271.278728 
L 213.600091 272.105955 
L 216.140689 272.684324 
L 218.681287 273.041617 
L 221.221885 273.205621 
L 224.609349 273.200716 
L 230.537411 273.151789 
L 233.078009 273.351063 
L 235.618607 273.813946 
L 237.312339 274.313928 
L 239.006071 274.998488 
L 240.699803 275.894591 
L 242.393535 277.029181 
L 244.087267 278.411955 
L 246.627865 280.865907 
L 250.015329 284.604731 
L 256.790256 292.299993 
L 259.330854 294.785063 
L 261.024586 296.1955 
L 262.718318 297.355125 
L 264.41205 298.221751 
L 266.105782 298.802332 
L 267.799514 299.137343 
L 269.493246 299.267899 
L 272.033844 299.17033 
L 275.421308 298.708418 
L 280.502504 297.972676 
L 283.043102 297.886187 
L 284.736834 298.026917 
L 286.430566 298.355809 
L 288.971164 299.150313 
L 291.511762 300.217899 
L 295.746092 302.334204 
L 300.827288 304.863114 
L 303.367886 305.89138 
L 305.908484 306.629772 
L 308.449082 307.023073 
L 310.98968 307.137841 
L 314.377144 307.008671 
L 321.998938 306.548955 
L 324.539536 306.654485 
L 327.080134 307.035017 
L 329.620732 307.740973 
L 332.161329 308.724777 
L 335.548793 310.358713 
L 339.783123 312.706783 
L 346.558051 316.475433 
L 349.945515 318.052678 
L 353.332979 319.349475 
L 356.720443 320.422596 
L 360.954773 321.53899 
L 370.270299 323.65288 
L 381.279557 326.128227 
L 385.513887 326.861418 
L 388.901351 327.272604 
L 392.288815 327.487218 
L 397.370011 327.530076 
L 404.991805 327.528283 
L 408.379268 327.719771 
L 411.766732 328.149383 
L 415.154196 328.856459 
L 419.388526 330.009093 
L 429.550918 332.910544 
L 432.938382 333.580316 
L 436.325846 333.984616 
L 440.560176 334.2121 
L 454.956898 334.672586 
L 459.191228 335.232964 
L 464.272424 336.148824 
L 478.669146 338.921103 
L 495.606465 341.699091 
L 501.534527 343.057185 
L 514.237517 346.116233 
L 518.471847 346.893927 
L 523.553043 347.593045 
L 535.409167 349.113193 
L 539.643497 349.929572 
L 544.724693 351.187565 
L 557.427683 354.507413 
L 561.662012 355.296381 
L 575.211868 357.493545 
L 578.599332 358.437531 
L 581.13993 359.363344 
L 584.527394 360.868918 
L 591.302322 364.037043 
L 593.84292 365.002106 
L 596.383518 365.704552 
L 598.07725 365.982193 
L 599.770982 366.075976 
L 601.464714 365.959048 
L 603.158446 365.604553 
L 604.852178 364.985636 
L 606.54591 364.075441 
L 608.239642 362.847114 
L 609.933374 361.273798 
L 611.627106 359.32864 
L 613.320838 356.984783 
L 615.01457 354.215373 
L 616.708302 350.993555 
L 618.402034 347.292473 
L 620.095766 343.085271 
L 621.789498 338.345096 
L 622.636364 335.766751 
L 622.636364 335.766751 
" clip-path="url(#p3817a95640)" style="fill: none; stroke: #81b1d2; stroke-width: 1.5; stroke-linecap: square"/>
   </g>
   <g id="line2d_66">
    <path d="M 115.363636 277.066349 
L 117.904234 275.427996 
L 120.444832 274.146725 
L 122.98543 273.188633 
L 125.526028 272.519817 
L 128.066626 272.106373 
L 130.607224 271.9144 
L 133.147822 271.909994 
L 136.535286 272.137293 
L 140.769616 272.683152 
L 153.472606 274.558829 
L 156.86007 274.737608 
L 160.247534 274.640252 
L 163.634998 274.307013 
L 169.56306 273.434576 
L 175.491122 272.620326 
L 178.878586 272.372587 
L 182.266049 272.364325 
L 187.347245 272.642073 
L 194.122173 273.043039 
L 197.509637 273.037668 
L 200.050235 272.863746 
L 203.437699 272.372184 
L 208.518895 271.324891 
L 213.600091 270.3293 
L 216.987555 269.929654 
L 219.528153 269.868957 
L 222.068751 270.078506 
L 224.609349 270.585001 
L 227.149947 271.373827 
L 229.690545 272.427639 
L 232.231143 273.72909 
L 234.771741 275.260836 
L 237.312339 277.00553 
L 240.699803 279.633063 
L 244.087267 282.563142 
L 255.096525 292.454662 
L 257.637122 294.372411 
L 260.17772 295.994305 
L 261.871452 296.874008 
L 263.565184 297.566453 
L 265.258916 298.063125 
L 267.799514 298.502601 
L 270.340112 298.674641 
L 274.574442 298.670175 
L 277.961906 298.70212 
L 280.502504 298.920396 
L 282.196236 299.220444 
L 283.889968 299.682694 
L 285.5837 300.336731 
L 288.124298 301.64546 
L 290.664896 303.235921 
L 299.980422 309.437037 
L 302.52102 310.672383 
L 304.214752 311.262675 
L 305.908484 311.622776 
L 307.602216 311.736648 
L 309.295948 311.637459 
L 311.836546 311.176902 
L 314.377144 310.462515 
L 321.152072 308.345733 
L 323.69267 307.858486 
L 325.386402 307.735148 
L 327.080134 307.819681 
L 328.773866 308.131583 
L 330.467598 308.645688 
L 333.008195 309.728056 
L 335.548793 311.090726 
L 339.783123 313.700112 
L 344.017453 316.311867 
L 346.558051 317.678233 
L 349.098649 318.768969 
L 351.639247 319.555123 
L 354.179845 320.083311 
L 356.720443 320.403652 
L 360.107907 320.594077 
L 366.035969 320.609919 
L 371.117165 320.706898 
L 375.351495 321.023063 
L 379.585825 321.540152 
L 384.667021 322.394126 
L 389.748217 323.465987 
L 396.523145 325.15221 
L 412.613598 329.309009 
L 419.388526 330.733708 
L 442.253908 335.096712 
L 448.18197 336.075094 
L 453.263166 336.67365 
L 457.497496 336.952088 
L 465.11929 337.177022 
L 471.894218 337.466323 
L 476.128548 337.873845 
L 480.362878 338.501413 
L 487.137805 339.763086 
L 495.606465 341.302973 
L 500.687661 341.981739 
L 515.084383 343.749694 
L 519.318713 344.566969 
L 524.399909 345.819991 
L 530.327971 347.544665 
L 549.805889 353.455557 
L 554.887085 354.628223 
L 559.121414 355.362257 
L 563.355744 355.858496 
L 571.824404 356.770744 
L 575.211868 357.376353 
L 577.752466 358.011639 
L 580.293064 358.847925 
L 582.833662 359.905425 
L 587.067992 361.954223 
L 591.302322 363.976199 
L 593.84292 364.991858 
L 596.383518 365.742188 
L 598.07725 366.047656 
L 599.770982 366.16418 
L 601.464714 366.063351 
L 603.158446 365.716762 
L 604.852178 365.096003 
L 606.54591 364.172668 
L 608.239642 362.918348 
L 609.933374 361.304635 
L 611.627106 359.30312 
L 613.320838 356.885396 
L 615.01457 354.023054 
L 616.708302 350.687686 
L 618.402034 346.850884 
L 620.095766 342.48424 
L 621.789498 337.559346 
L 622.636364 334.878677 
L 622.636364 334.878677 
" clip-path="url(#p3817a95640)" style="fill: none; stroke: #fdb462; stroke-width: 1.5; stroke-linecap: square"/>
   </g>
   <g id="patch_3">
    <path d="M 90 384.48 
L 90 51.84 
" style="fill: none; stroke: #ffffff; stroke-width: 0.8; stroke-linejoin: miter; stroke-linecap: square"/>
   </g>
   <g id="patch_4">
    <path d="M 648 384.48 
L 648 51.84 
" style="fill: none; stroke: #ffffff; stroke-width: 0.8; stroke-linejoin: miter; stroke-linecap: square"/>
   </g>
   <g id="patch_5">
    <path d="M 90 384.48 
L 648 384.48 
" style="fill: none; stroke: #ffffff; stroke-width: 0.8; stroke-linejoin: miter; stroke-linecap: square"/>
   </g>
   <g id="patch_6">
    <path d="M 90 51.84 
L 648 51.84 
" style="fill: none; stroke: #ffffff; stroke-width: 0.8; stroke-linejoin: miter; stroke-linecap: square"/>
   </g>
   <g id="text_33">
    <!-- caio.python_aio_asyncio - read (Time vs Chunk Size) -->
    <g style="fill: #ffffff" transform="translate(211.544062 45.84) scale(0.12 -0.12)">
     <defs>
      <path id="DejaVuSans-61" d="M 2194 1759 
Q 1497 1759 1228 1600 
Q 959 1441 959 1056 
Q 959 750 1161 570 
Q 1363 391 1709 391 
Q 2188 391 2477 730 
Q 2766 1069 2766 1631 
L 2766 1759 
L 2194 1759 
z
M 3341 1997 
L 3341 0 
L 2766 0 
L 2766 531 
Q 2569 213 2275 61 
Q 1981 -91 1556 -91 
Q 1019 -91 701 211 
Q 384 513 384 1019 
Q 384 1609 779 1909 
Q 1175 2209 1959 2209 
L 2766 2209 
L 2766 2266 
Q 2766 2663 2505 2880 
Q 2244 3097 1772 3097 
Q 1472 3097 1187 3025 
Q 903 2953 641 2809 
L 641 3341 
Q 956 3463 1253 3523 
Q 1550 3584 1831 3584 
Q 2591 3584 2966 3190 
Q 3341 2797 3341 1997 
z
" transform="scale(0.015625)"/>
      <path id="DejaVuSans-6f" d="M 1959 3097 
Q 1497 3097 1228 2736 
Q 959 2375 959 1747 
Q 959 1119 1226 758 
Q 1494 397 1959 397 
Q 2419 397 2687 759 
Q 2956 1122 2956 1747 
Q 2956 2369 2687 2733 
Q 2419 3097 1959 3097 
z
M 1959 3584 
Q 2709 3584 3137 3096 
Q 3566 2609 3566 1747 
Q 3566 888 3137 398 
Q 2709 -91 1959 -91 
Q 1206 -91 779 398 
Q 353 888 353 1747 
Q 353 2609 779 3096 
Q 1206 3584 1959 3584 
z
" transform="scale(0.015625)"/>
      <path id="DejaVuSans-2e" d="M 684 794 
L 1344 794 
L 1344 0 
L 684 0 
L 684 794 
z
" transform="scale(0.015625)"/>
      <path id="DejaVuSans-70" d="M 1159 525 
L 1159 -1331 
L 581 -1331 
L 581 3500 
L 1159 3500 
L 1159 2969 
Q 1341 3281 1617 3432 
Q 1894 3584 2278 3584 
Q 2916 3584 3314 3078 
Q 3713 2572 3713 1747 
Q 3713 922 3314 415 
Q 2916 -91 2278 -91 
Q 1894 -91 1617 61 
Q 1341 213 1159 525 
z
M 3116 1747 
Q 3116 2381 2855 2742 
Q 2594 3103 2138 3103 
Q 1681 3103 1420 2742 
Q 1159 2381 1159 1747 
Q 1159 1113 1420 752 
Q 1681 391 2138 391 
Q 2594 391 2855 752 
Q 3116 1113 3116 1747 
z
" transform="scale(0.015625)"/>
      <path id="DejaVuSans-79" d="M 2059 -325 
Q 1816 -950 1584 -1140 
Q 1353 -1331 966 -1331 
L 506 -1331 
L 506 -850 
L 844 -850 
Q 1081 -850 1212 -737 
Q 1344 -625 1503 -206 
L 1606 56 
L 191 3500 
L 800 3500 
L 1894 763 
L 2988 3500 
L 3597 3500 
L 2059 -325 
z
" transform="scale(0.015625)"/>
      <path id="DejaVuSans-2d" d="M 313 2009 
L 1997 2009 
L 1997 1497 
L 313 1497 
L 313 2009 
z
" transform="scale(0.015625)"/>
      <path id="DejaVuSans-72" d="M 2631 2963 
Q 2534 3019 2420 3045 
Q 2306 3072 2169 3072 
Q 1681 3072 1420 2755 
Q 1159 2438 1159 1844 
L 1159 0 
L 581 0 
L 581 3500 
L 1159 3500 
L 1159 2956 
Q 1341 3275 1631 3429 
Q 1922 3584 2338 3584 
Q 2397 3584 2469 3576 
Q 2541 3569 2628 3553 
L 2631 2963 
z
" transform="scale(0.015625)"/>
      <path id="DejaVuSans-64" d="M 2906 2969 
L 2906 4863 
L 3481 4863 
L 3481 0 
L 2906 0 
L 2906 525 
Q 2725 213 2448 61 
Q 2172 -91 1784 -91 
Q 1150 -91 751 415 
Q 353 922 353 1747 
Q 353 2572 751 3078 
Q 1150 3584 1784 3584 
Q 2172 3584 2448 3432 
Q 2725 3281 2906 2969 
z
M 947 1747 
Q 947 1113 1208 752 
Q 1469 391 1925 391 
Q 2381 391 2643 752 
Q 2906 1113 2906 1747 
Q 2906 2381 2643 2742 
Q 2381 3103 1925 3103 
Q 1469 3103 1208 2742 
Q 947 2381 947 1747 
z
" transform="scale(0.015625)"/>
      <path id="DejaVuSans-54" d="M -19 4666 
L 3928 4666 
L 3928 4134 
L 2272 4134 
L 2272 0 
L 1638 0 
L 1638 4134 
L -19 4134 
L -19 4666 
z
" transform="scale(0.015625)"/>
      <path id="DejaVuSans-76" d="M 191 3500 
L 800 3500 
L 1894 563 
L 2988 3500 
L 3597 3500 
L 2284 0 
L 1503 0 
L 191 3500 
z
" transform="scale(0.015625)"/>
      <path id="DejaVuSans-43" d="M 4122 4306 
L 4122 3641 
Q 3803 3938 3442 4084 
Q 3081 4231 2675 4231 
Q 1875 4231 1450 3742 
Q 1025 3253 1025 2328 
Q 1025 1406 1450 917 
Q 1875 428 2675 428 
Q 3081 428 3442 575 
Q 3803 722 4122 1019 
L 4122 359 
Q 3791 134 3420 21 
Q 3050 -91 2638 -91 
Q 1578 -91 968 557 
Q 359 1206 359 2328 
Q 359 3453 968 4101 
Q 1578 4750 2638 4750 
Q 3056 4750 3426 4639 
Q 3797 4528 4122 4306 
z
" transform="scale(0.015625)"/>
      <path id="DejaVuSans-53" d="M 3425 4513 
L 3425 3897 
Q 3066 4069 2747 4153 
Q 2428 4238 2131 4238 
Q 1616 4238 1336 4038 
Q 1056 3838 1056 3469 
Q 1056 3159 1242 3001 
Q 1428 2844 1947 2747 
L 2328 2669 
Q 3034 2534 3370 2195 
Q 3706 1856 3706 1288 
Q 3706 609 3251 259 
Q 2797 -91 1919 -91 
Q 1588 -91 1214 -16 
Q 841 59 441 206 
L 441 856 
Q 825 641 1194 531 
Q 1563 422 1919 422 
Q 2459 422 2753 634 
Q 3047 847 3047 1241 
Q 3047 1584 2836 1778 
Q 2625 1972 2144 2069 
L 1759 2144 
Q 1053 2284 737 2584 
Q 422 2884 422 3419 
Q 422 4038 858 4394 
Q 1294 4750 2059 4750 
Q 2388 4750 2728 4690 
Q 3069 4631 3425 4513 
z
" transform="scale(0.015625)"/>
     </defs>
     <use xlink:href="#DejaVuSans-63"/>
     <use xlink:href="#DejaVuSans-61" x="54.980469"/>
     <use xlink:href="#DejaVuSans-69" x="116.259766"/>
     <use xlink:href="#DejaVuSans-6f" x="144.042969"/>
     <use xlink:href="#DejaVuSans-2e" x="203.474609"/>
     <use xlink:href="#DejaVuSans-70" x="235.261719"/>
     <use xlink:href="#DejaVuSans-79" x="298.738281"/>
     <use xlink:href="#DejaVuSans-74" x="357.917969"/>
     <use xlink:href="#DejaVuSans-68" x="397.126953"/>
     <use xlink:href="#DejaVuSans-6f" x="460.505859"/>
     <use xlink:href="#DejaVuSans-6e" x="521.6875"/>
     <use xlink:href="#DejaVuSans-5f" x="585.066406"/>
     <use xlink:href="#DejaVuSans-61" x="635.066406"/>
     <use xlink:href="#DejaVuSans-69" x="696.345703"/>
     <use xlink:href="#DejaVuSans-6f" x="724.128906"/>
     <use xlink:href="#DejaVuSans-5f" x="785.310547"/>
     <use xlink:href="#DejaVuSans-61" x="835.310547"/>
     <use xlink:href="#DejaVuSans-73" x="896.589844"/>
     <use xlink:href="#DejaVuSans-79" x="948.689453"/>
     <use xlink:href="#DejaVuSans-6e" x="1007.869141"/>
     <use xlink:href="#DejaVuSans-63" x="1071.248047"/>
     <use xlink:href="#DejaVuSans-69" x="1126.228516"/>
     <use xlink:href="#DejaVuSans-6f" x="1154.011719"/>
     <use xlink:href="#DejaVuSans-20" x="1215.193359"/>
     <use xlink:href="#DejaVuSans-2d" x="1246.980469"/>
     <use xlink:href="#DejaVuSans-20" x="1283.064453"/>
     <use xlink:href="#DejaVuSans-72" x="1314.851562"/>
     <use xlink:href="#DejaVuSans-65" x="1353.714844"/>
     <use xlink:href="#DejaVuSans-61" x="1415.238281"/>
     <use xlink:href="#DejaVuSans-64" x="1476.517578"/>
     <use xlink:href="#DejaVuSans-20" x="1539.994141"/>
     <use xlink:href="#DejaVuSans-28" x="1571.78125"/>
     <use xlink:href="#DejaVuSans-54" x="1610.794922"/>
     <use xlink:href="#DejaVuSans-69" x="1668.753906"/>
     <use xlink:href="#DejaVuSans-6d" x="1696.537109"/>
     <use xlink:href="#DejaVuSans-65" x="1793.949219"/>
     <use xlink:href="#DejaVuSans-20" x="1855.472656"/>
     <use xlink:href="#DejaVuSans-76" x="1887.259766"/>
     <use xlink:href="#DejaVuSans-73" x="1946.439453"/>
     <use xlink:href="#DejaVuSans-20" x="1998.539062"/>
     <use xlink:href="#DejaVuSans-43" x="2030.326172"/>
     <use xlink:href="#DejaVuSans-68" x="2100.150391"/>
     <use xlink:href="#DejaVuSans-75" x="2163.529297"/>
     <use xlink:href="#DejaVuSans-6e" x="2226.908203"/>
     <use xlink:href="#DejaVuSans-6b" x="2290.287109"/>
     <use xlink:href="#DejaVuSans-20" x="2348.197266"/>
     <use xlink:href="#DejaVuSans-53" x="2379.984375"/>
     <use xlink:href="#DejaVuSans-69" x="2443.460938"/>
     <use xlink:href="#DejaVuSans-7a" x="2471.244141"/>
     <use xlink:href="#DejaVuSans-65" x="2523.734375"/>
     <use xlink:href="#DejaVuSans-29" x="2585.257812"/>
    </g>
   </g>
   <g id="legend_1">
    <g id="patch_7">
     <path d="M 543.43125 149.5775 
L 641 149.5775 
Q 643 149.5775 643 147.5775 
L 643 58.84 
Q 643 56.84 641 56.84 
L 543.43125 56.84 
Q 541.43125 56.84 541.43125 58.84 
L 541.43125 147.5775 
Q 541.43125 149.5775 543.43125 149.5775 
z
" style="opacity: 0.8; stroke: #cccccc; stroke-linejoin: miter"/>
    </g>
    <g id="line2d_67">
     <path d="M 545.43125 64.938437 
L 555.43125 64.938437 
L 565.43125 64.938437 
" style="fill: none; stroke: #8dd3c7; stroke-width: 1.5; stroke-linecap: square"/>
    </g>
    <g id="text_34">
     <!-- max_ops=1 -->
     <g style="fill: #ffffff" transform="translate(573.43125 68.438437) scale(0.1 -0.1)">
      <defs>
       <path id="DejaVuSans-78" d="M 3513 3500 
L 2247 1797 
L 3578 0 
L 2900 0 
L 1881 1375 
L 863 0 
L 184 0 
L 1544 1831 
L 300 3500 
L 978 3500 
L 1906 2253 
L 2834 3500 
L 3513 3500 
z
" transform="scale(0.015625)"/>
       <path id="DejaVuSans-3d" d="M 678 2906 
L 4684 2906 
L 4684 2381 
L 678 2381 
L 678 2906 
z
M 678 1631 
L 4684 1631 
L 4684 1100 
L 678 1100 
L 678 1631 
z
" transform="scale(0.015625)"/>
      </defs>
      <use xlink:href="#DejaVuSans-6d"/>
      <use xlink:href="#DejaVuSans-61" x="97.412109"/>
      <use xlink:href="#DejaVuSans-78" x="158.691406"/>
      <use xlink:href="#DejaVuSans-5f" x="217.871094"/>
      <use xlink:href="#DejaVuSans-6f" x="267.871094"/>
      <use xlink:href="#DejaVuSans-70" x="329.052734"/>
      <use xlink:href="#DejaVuSans-73" x="392.529297"/>
      <use xlink:href="#DejaVuSans-3d" x="444.628906"/>
      <use xlink:href="#DejaVuSans-31" x="528.417969"/>
     </g>
    </g>
    <g id="line2d_68">
     <path d="M 545.43125 79.894687 
L 555.43125 79.894687 
L 565.43125 79.894687 
" style="fill: none; stroke: #feffb3; stroke-width: 1.5; stroke-linecap: square"/>
    </g>
    <g id="text_35">
     <!-- max_ops=4 -->
     <g style="fill: #ffffff" transform="translate(573.43125 83.394687) scale(0.1 -0.1)">
      <use xlink:href="#DejaVuSans-6d"/>
      <use xlink:href="#DejaVuSans-61" x="97.412109"/>
      <use xlink:href="#DejaVuSans-78" x="158.691406"/>
      <use xlink:href="#DejaVuSans-5f" x="217.871094"/>
      <use xlink:href="#DejaVuSans-6f" x="267.871094"/>
      <use xlink:href="#DejaVuSans-70" x="329.052734"/>
      <use xlink:href="#DejaVuSans-73" x="392.529297"/>
      <use xlink:href="#DejaVuSans-3d" x="444.628906"/>
      <use xlink:href="#DejaVuSans-34" x="528.417969"/>
     </g>
    </g>
    <g id="line2d_69">
     <path d="M 545.43125 94.850937 
L 555.43125 94.850937 
L 565.43125 94.850937 
" style="fill: none; stroke: #bfbbd9; stroke-width: 1.5; stroke-linecap: square"/>
    </g>
    <g id="text_36">
     <!-- max_ops=8 -->
     <g style="fill: #ffffff" transform="translate(573.43125 98.350937) scale(0.1 -0.1)">
      <use xlink:href="#DejaVuSans-6d"/>
      <use xlink:href="#DejaVuSans-61" x="97.412109"/>
      <use xlink:href="#DejaVuSans-78" x="158.691406"/>
      <use xlink:href="#DejaVuSans-5f" x="217.871094"/>
      <use xlink:href="#DejaVuSans-6f" x="267.871094"/>
      <use xlink:href="#DejaVuSans-70" x="329.052734"/>
      <use xlink:href="#DejaVuSans-73" x="392.529297"/>
      <use xlink:href="#DejaVuSans-3d" x="444.628906"/>
      <use xlink:href="#DejaVuSans-38" x="528.417969"/>
     </g>
    </g>
    <g id="line2d_70">
     <path d="M 545.43125 109.807187 
L 555.43125 109.807187 
L 565.43125 109.807187 
" style="fill: none; stroke: #fa8174; stroke-width: 1.5; stroke-linecap: square"/>
    </g>
    <g id="text_37">
     <!-- max_ops=16 -->
     <g style="fill: #ffffff" transform="translate(573.43125 113.307187) scale(0.1 -0.1)">
      <use xlink:href="#DejaVuSans-6d"/>
      <use xlink:href="#DejaVuSans-61" x="97.412109"/>
      <use xlink:href="#DejaVuSans-78" x="158.691406"/>
      <use xlink:href="#DejaVuSans-5f" x="217.871094"/>
      <use xlink:href="#DejaVuSans-6f" x="267.871094"/>
      <use xlink:href="#DejaVuSans-70" x="329.052734"/>
      <use xlink:href="#DejaVuSans-73" x="392.529297"/>
      <use xlink:href="#DejaVuSans-3d" x="444.628906"/>
      <use xlink:href="#DejaVuSans-31" x="528.417969"/>
      <use xlink:href="#DejaVuSans-36" x="592.041016"/>
     </g>
    </g>
    <g id="line2d_71">
     <path d="M 545.43125 124.763437 
L 555.43125 124.763437 
L 565.43125 124.763437 
" style="fill: none; stroke: #81b1d2; stroke-width: 1.5; stroke-linecap: square"/>
    </g>
    <g id="text_38">
     <!-- max_ops=32 -->
     <g style="fill: #ffffff" transform="translate(573.43125 128.263437) scale(0.1 -0.1)">
      <use xlink:href="#DejaVuSans-6d"/>
      <use xlink:href="#DejaVuSans-61" x="97.412109"/>
      <use xlink:href="#DejaVuSans-78" x="158.691406"/>
      <use xlink:href="#DejaVuSans-5f" x="217.871094"/>
      <use xlink:href="#DejaVuSans-6f" x="267.871094"/>
      <use xlink:href="#DejaVuSans-70" x="329.052734"/>
      <use xlink:href="#DejaVuSans-73" x="392.529297"/>
      <use xlink:href="#DejaVuSans-3d" x="444.628906"/>
      <use xlink:href="#DejaVuSans-33" x="528.417969"/>
      <use xlink:href="#DejaVuSans-32" x="592.041016"/>
     </g>
    </g>
    <g id="line2d_72">
     <path d="M 545.43125 139.719687 
L 555.43125 139.719687 
L 565.43125 139.719687 
" style="fill: none; stroke: #fdb462; stroke-width: 1.5; stroke-linecap: square"/>
    </g>
    <g id="text_39">
     <!-- max_ops=64 -->
     <g style="fill: #ffffff" transform="translate(573.43125 143.219687) scale(0.1 -0.1)">
      <use xlink:href="#DejaVuSans-6d"/>
      <use xlink:href="#DejaVuSans-61" x="97.412109"/>
      <use xlink:href="#DejaVuSans-78" x="158.691406"/>
      <use xlink:href="#DejaVuSans-5f" x="217.871094"/>
      <use xlink:href="#DejaVuSans-6f" x="267.871094"/>
      <use xlink:href="#DejaVuSans-70" x="329.052734"/>
      <use xlink:href="#DejaVuSans-73" x="392.529297"/>
      <use xlink:href="#DejaVuSans-3d" x="444.628906"/>
      <use xlink:href="#DejaVuSans-36" x="528.417969"/>
      <use xlink:href="#DejaVuSans-34" x="592.041016"/>
     </g>
    </g>
   </g>
  </g>
 </g>
 <defs>
  <clipPath id="p3817a95640">
   <rect x="90" y="51.84" width="558" height="332.64"/>
  </clipPath>
 </defs>
</svg>
