<?xml version="1.0" encoding="utf-8" standalone="no"?>
<!DOCTYPE svg PUBLIC "-//W3C//DTD SVG 1.1//EN"
  "http://www.w3.org/Graphics/SVG/1.1/DTD/svg11.dtd">
<svg xmlns:xlink="http://www.w3.org/1999/xlink" width="720pt" height="432pt" viewBox="0 0 720 432" xmlns="http://www.w3.org/2000/svg" version="1.1">
 <metadata>
  <rdf:RDF xmlns:dc="http://purl.org/dc/elements/1.1/" xmlns:cc="http://creativecommons.org/ns#" xmlns:rdf="http://www.w3.org/1999/02/22-rdf-syntax-ns#">
   <cc:Work>
    <dc:type rdf:resource="http://purl.org/dc/dcmitype/StillImage"/>
    <dc:date>2024-01-19T16:09:12.424303</dc:date>
    <dc:format>image/svg+xml</dc:format>
    <dc:creator>
     <cc:Agent>
      <dc:title>Matplotlib v3.8.2, https://matplotlib.org/</dc:title>
     </cc:Agent>
    </dc:creator>
   </cc:Work>
  </rdf:RDF>
 </metadata>
 <defs>
  <style type="text/css">*{stroke-linejoin: round; stroke-linecap: butt}</style>
 </defs>
 <g id="figure_1">
  <g id="patch_1">
   <path d="M 0 432 
L 720 432 
L 720 0 
L 0 0 
z
"/>
  </g>
  <g id="axes_1">
   <g id="patch_2">
    <path d="M 90 384.48 
L 648 384.48 
L 648 51.84 
L 90 51.84 
z
"/>
   </g>
   <g id="matplotlib.axis_1">
    <g id="xtick_1">
     <g id="line2d_1">
      <path d="M 115.363636 384.48 
L 115.363636 51.84 
" clip-path="url(#p5a6e51e17a)" style="fill: none; stroke: #ffffff; stroke-width: 0.8; stroke-linecap: square"/>
     </g>
     <g id="line2d_2">
      <defs>
       <path id="m264f4a93b9" d="M 0 0 
L 0 3.5 
" style="stroke: #ffffff; stroke-width: 0.8"/>
      </defs>
      <g>
       <use xlink:href="#m264f4a93b9" x="115.363636" y="384.48" style="fill: #ffffff; stroke: #ffffff; stroke-width: 0.8"/>
      </g>
     </g>
     <g id="text_1">
      <!-- 55912 -->
      <g style="fill: #ffffff" transform="translate(106.067392 419.347741) rotate(-45) scale(0.1 -0.1)">
       <defs>
        <path id="DejaVuSans-35" d="M 691 4666 
L 3169 4666 
L 3169 4134 
L 1269 4134 
L 1269 2991 
Q 1406 3038 1543 3061 
Q 1681 3084 1819 3084 
Q 2600 3084 3056 2656 
Q 3513 2228 3513 1497 
Q 3513 744 3044 326 
Q 2575 -91 1722 -91 
Q 1428 -91 1123 -41 
Q 819 9 494 109 
L 494 744 
Q 775 591 1075 516 
Q 1375 441 1709 441 
Q 2250 441 2565 725 
Q 2881 1009 2881 1497 
Q 2881 1984 2565 2268 
Q 2250 2553 1709 2553 
Q 1456 2553 1204 2497 
Q 953 2441 691 2322 
L 691 4666 
z
" transform="scale(0.015625)"/>
        <path id="DejaVuSans-39" d="M 703 97 
L 703 672 
Q 941 559 1184 500 
Q 1428 441 1663 441 
Q 2288 441 2617 861 
Q 2947 1281 2994 2138 
Q 2813 1869 2534 1725 
Q 2256 1581 1919 1581 
Q 1219 1581 811 2004 
Q 403 2428 403 3163 
Q 403 3881 828 4315 
Q 1253 4750 1959 4750 
Q 2769 4750 3195 4129 
Q 3622 3509 3622 2328 
Q 3622 1225 3098 567 
Q 2575 -91 1691 -91 
Q 1453 -91 1209 -44 
Q 966 3 703 97 
z
M 1959 2075 
Q 2384 2075 2632 2365 
Q 2881 2656 2881 3163 
Q 2881 3666 2632 3958 
Q 2384 4250 1959 4250 
Q 1534 4250 1286 3958 
Q 1038 3666 1038 3163 
Q 1038 2656 1286 2365 
Q 1534 2075 1959 2075 
z
" transform="scale(0.015625)"/>
        <path id="DejaVuSans-31" d="M 794 531 
L 1825 531 
L 1825 4091 
L 703 3866 
L 703 4441 
L 1819 4666 
L 2450 4666 
L 2450 531 
L 3481 531 
L 3481 0 
L 794 0 
L 794 531 
z
" transform="scale(0.015625)"/>
        <path id="DejaVuSans-32" d="M 1228 531 
L 3431 531 
L 3431 0 
L 469 0 
L 469 531 
Q 828 903 1448 1529 
Q 2069 2156 2228 2338 
Q 2531 2678 2651 2914 
Q 2772 3150 2772 3378 
Q 2772 3750 2511 3984 
Q 2250 4219 1831 4219 
Q 1534 4219 1204 4116 
Q 875 4013 500 3803 
L 500 4441 
Q 881 4594 1212 4672 
Q 1544 4750 1819 4750 
Q 2544 4750 2975 4387 
Q 3406 4025 3406 3419 
Q 3406 3131 3298 2873 
Q 3191 2616 2906 2266 
Q 2828 2175 2409 1742 
Q 1991 1309 1228 531 
z
" transform="scale(0.015625)"/>
       </defs>
       <use xlink:href="#DejaVuSans-35"/>
       <use xlink:href="#DejaVuSans-35" x="63.623047"/>
       <use xlink:href="#DejaVuSans-39" x="127.246094"/>
       <use xlink:href="#DejaVuSans-31" x="190.869141"/>
       <use xlink:href="#DejaVuSans-32" x="254.492188"/>
      </g>
     </g>
    </g>
    <g id="xtick_2">
     <g id="line2d_3">
      <path d="M 136.5 384.48 
L 136.5 51.84 
" clip-path="url(#p5a6e51e17a)" style="fill: none; stroke: #ffffff; stroke-width: 0.8; stroke-linecap: square"/>
     </g>
     <g id="line2d_4">
      <g>
       <use xlink:href="#m264f4a93b9" x="136.5" y="384.48" style="fill: #ffffff; stroke: #ffffff; stroke-width: 0.8"/>
      </g>
     </g>
     <g id="text_2">
      <!-- 58342 -->
      <g style="fill: #ffffff" transform="translate(127.203756 419.347741) rotate(-45) scale(0.1 -0.1)">
       <defs>
        <path id="DejaVuSans-38" d="M 2034 2216 
Q 1584 2216 1326 1975 
Q 1069 1734 1069 1313 
Q 1069 891 1326 650 
Q 1584 409 2034 409 
Q 2484 409 2743 651 
Q 3003 894 3003 1313 
Q 3003 1734 2745 1975 
Q 2488 2216 2034 2216 
z
M 1403 2484 
Q 997 2584 770 2862 
Q 544 3141 544 3541 
Q 544 4100 942 4425 
Q 1341 4750 2034 4750 
Q 2731 4750 3128 4425 
Q 3525 4100 3525 3541 
Q 3525 3141 3298 2862 
Q 3072 2584 2669 2484 
Q 3125 2378 3379 2068 
Q 3634 1759 3634 1313 
Q 3634 634 3220 271 
Q 2806 -91 2034 -91 
Q 1263 -91 848 271 
Q 434 634 434 1313 
Q 434 1759 690 2068 
Q 947 2378 1403 2484 
z
M 1172 3481 
Q 1172 3119 1398 2916 
Q 1625 2713 2034 2713 
Q 2441 2713 2670 2916 
Q 2900 3119 2900 3481 
Q 2900 3844 2670 4047 
Q 2441 4250 2034 4250 
Q 1625 4250 1398 4047 
Q 1172 3844 1172 3481 
z
" transform="scale(0.015625)"/>
        <path id="DejaVuSans-33" d="M 2597 2516 
Q 3050 2419 3304 2112 
Q 3559 1806 3559 1356 
Q 3559 666 3084 287 
Q 2609 -91 1734 -91 
Q 1441 -91 1130 -33 
Q 819 25 488 141 
L 488 750 
Q 750 597 1062 519 
Q 1375 441 1716 441 
Q 2309 441 2620 675 
Q 2931 909 2931 1356 
Q 2931 1769 2642 2001 
Q 2353 2234 1838 2234 
L 1294 2234 
L 1294 2753 
L 1863 2753 
Q 2328 2753 2575 2939 
Q 2822 3125 2822 3475 
Q 2822 3834 2567 4026 
Q 2313 4219 1838 4219 
Q 1578 4219 1281 4162 
Q 984 4106 628 3988 
L 628 4550 
Q 988 4650 1302 4700 
Q 1616 4750 1894 4750 
Q 2613 4750 3031 4423 
Q 3450 4097 3450 3541 
Q 3450 3153 3228 2886 
Q 3006 2619 2597 2516 
z
" transform="scale(0.015625)"/>
        <path id="DejaVuSans-34" d="M 2419 4116 
L 825 1625 
L 2419 1625 
L 2419 4116 
z
M 2253 4666 
L 3047 4666 
L 3047 1625 
L 3713 1625 
L 3713 1100 
L 3047 1100 
L 3047 0 
L 2419 0 
L 2419 1100 
L 313 1100 
L 313 1709 
L 2253 4666 
z
" transform="scale(0.015625)"/>
       </defs>
       <use xlink:href="#DejaVuSans-35"/>
       <use xlink:href="#DejaVuSans-38" x="63.623047"/>
       <use xlink:href="#DejaVuSans-33" x="127.246094"/>
       <use xlink:href="#DejaVuSans-34" x="190.869141"/>
       <use xlink:href="#DejaVuSans-32" x="254.492188"/>
      </g>
     </g>
    </g>
    <g id="xtick_3">
     <g id="line2d_5">
      <path d="M 157.636364 384.48 
L 157.636364 51.84 
" clip-path="url(#p5a6e51e17a)" style="fill: none; stroke: #ffffff; stroke-width: 0.8; stroke-linecap: square"/>
     </g>
     <g id="line2d_6">
      <g>
       <use xlink:href="#m264f4a93b9" x="157.636364" y="384.48" style="fill: #ffffff; stroke: #ffffff; stroke-width: 0.8"/>
      </g>
     </g>
     <g id="text_3">
      <!-- 60994 -->
      <g style="fill: #ffffff" transform="translate(148.340119 419.347741) rotate(-45) scale(0.1 -0.1)">
       <defs>
        <path id="DejaVuSans-36" d="M 2113 2584 
Q 1688 2584 1439 2293 
Q 1191 2003 1191 1497 
Q 1191 994 1439 701 
Q 1688 409 2113 409 
Q 2538 409 2786 701 
Q 3034 994 3034 1497 
Q 3034 2003 2786 2293 
Q 2538 2584 2113 2584 
z
M 3366 4563 
L 3366 3988 
Q 3128 4100 2886 4159 
Q 2644 4219 2406 4219 
Q 1781 4219 1451 3797 
Q 1122 3375 1075 2522 
Q 1259 2794 1537 2939 
Q 1816 3084 2150 3084 
Q 2853 3084 3261 2657 
Q 3669 2231 3669 1497 
Q 3669 778 3244 343 
Q 2819 -91 2113 -91 
Q 1303 -91 875 529 
Q 447 1150 447 2328 
Q 447 3434 972 4092 
Q 1497 4750 2381 4750 
Q 2619 4750 2861 4703 
Q 3103 4656 3366 4563 
z
" transform="scale(0.015625)"/>
        <path id="DejaVuSans-30" d="M 2034 4250 
Q 1547 4250 1301 3770 
Q 1056 3291 1056 2328 
Q 1056 1369 1301 889 
Q 1547 409 2034 409 
Q 2525 409 2770 889 
Q 3016 1369 3016 2328 
Q 3016 3291 2770 3770 
Q 2525 4250 2034 4250 
z
M 2034 4750 
Q 2819 4750 3233 4129 
Q 3647 3509 3647 2328 
Q 3647 1150 3233 529 
Q 2819 -91 2034 -91 
Q 1250 -91 836 529 
Q 422 1150 422 2328 
Q 422 3509 836 4129 
Q 1250 4750 2034 4750 
z
" transform="scale(0.015625)"/>
       </defs>
       <use xlink:href="#DejaVuSans-36"/>
       <use xlink:href="#DejaVuSans-30" x="63.623047"/>
       <use xlink:href="#DejaVuSans-39" x="127.246094"/>
       <use xlink:href="#DejaVuSans-39" x="190.869141"/>
       <use xlink:href="#DejaVuSans-34" x="254.492188"/>
      </g>
     </g>
    </g>
    <g id="xtick_4">
     <g id="line2d_7">
      <path d="M 178.772727 384.48 
L 178.772727 51.84 
" clip-path="url(#p5a6e51e17a)" style="fill: none; stroke: #ffffff; stroke-width: 0.8; stroke-linecap: square"/>
     </g>
     <g id="line2d_8">
      <g>
       <use xlink:href="#m264f4a93b9" x="178.772727" y="384.48" style="fill: #ffffff; stroke: #ffffff; stroke-width: 0.8"/>
      </g>
     </g>
     <g id="text_4">
      <!-- 63897 -->
      <g style="fill: #ffffff" transform="translate(169.476483 419.347741) rotate(-45) scale(0.1 -0.1)">
       <defs>
        <path id="DejaVuSans-37" d="M 525 4666 
L 3525 4666 
L 3525 4397 
L 1831 0 
L 1172 0 
L 2766 4134 
L 525 4134 
L 525 4666 
z
" transform="scale(0.015625)"/>
       </defs>
       <use xlink:href="#DejaVuSans-36"/>
       <use xlink:href="#DejaVuSans-33" x="63.623047"/>
       <use xlink:href="#DejaVuSans-38" x="127.246094"/>
       <use xlink:href="#DejaVuSans-39" x="190.869141"/>
       <use xlink:href="#DejaVuSans-37" x="254.492188"/>
      </g>
     </g>
    </g>
    <g id="xtick_5">
     <g id="line2d_9">
      <path d="M 199.909091 384.48 
L 199.909091 51.84 
" clip-path="url(#p5a6e51e17a)" style="fill: none; stroke: #ffffff; stroke-width: 0.8; stroke-linecap: square"/>
     </g>
     <g id="line2d_10">
      <g>
       <use xlink:href="#m264f4a93b9" x="199.909091" y="384.48" style="fill: #ffffff; stroke: #ffffff; stroke-width: 0.8"/>
      </g>
     </g>
     <g id="text_5">
      <!-- 67092 -->
      <g style="fill: #ffffff" transform="translate(190.612846 419.347741) rotate(-45) scale(0.1 -0.1)">
       <use xlink:href="#DejaVuSans-36"/>
       <use xlink:href="#DejaVuSans-37" x="63.623047"/>
       <use xlink:href="#DejaVuSans-30" x="127.246094"/>
       <use xlink:href="#DejaVuSans-39" x="190.869141"/>
       <use xlink:href="#DejaVuSans-32" x="254.492188"/>
      </g>
     </g>
    </g>
    <g id="xtick_6">
     <g id="line2d_11">
      <path d="M 221.045455 384.48 
L 221.045455 51.84 
" clip-path="url(#p5a6e51e17a)" style="fill: none; stroke: #ffffff; stroke-width: 0.8; stroke-linecap: square"/>
     </g>
     <g id="line2d_12">
      <g>
       <use xlink:href="#m264f4a93b9" x="221.045455" y="384.48" style="fill: #ffffff; stroke: #ffffff; stroke-width: 0.8"/>
      </g>
     </g>
     <g id="text_6">
      <!-- 70622 -->
      <g style="fill: #ffffff" transform="translate(211.74921 419.347741) rotate(-45) scale(0.1 -0.1)">
       <use xlink:href="#DejaVuSans-37"/>
       <use xlink:href="#DejaVuSans-30" x="63.623047"/>
       <use xlink:href="#DejaVuSans-36" x="127.246094"/>
       <use xlink:href="#DejaVuSans-32" x="190.869141"/>
       <use xlink:href="#DejaVuSans-32" x="254.492188"/>
      </g>
     </g>
    </g>
    <g id="xtick_7">
     <g id="line2d_13">
      <path d="M 242.181818 384.48 
L 242.181818 51.84 
" clip-path="url(#p5a6e51e17a)" style="fill: none; stroke: #ffffff; stroke-width: 0.8; stroke-linecap: square"/>
     </g>
     <g id="line2d_14">
      <g>
       <use xlink:href="#m264f4a93b9" x="242.181818" y="384.48" style="fill: #ffffff; stroke: #ffffff; stroke-width: 0.8"/>
      </g>
     </g>
     <g id="text_7">
      <!-- 74544 -->
      <g style="fill: #ffffff" transform="translate(232.885574 419.347741) rotate(-45) scale(0.1 -0.1)">
       <use xlink:href="#DejaVuSans-37"/>
       <use xlink:href="#DejaVuSans-34" x="63.623047"/>
       <use xlink:href="#DejaVuSans-35" x="127.246094"/>
       <use xlink:href="#DejaVuSans-34" x="190.869141"/>
       <use xlink:href="#DejaVuSans-34" x="254.492188"/>
      </g>
     </g>
    </g>
    <g id="xtick_8">
     <g id="line2d_15">
      <path d="M 263.318182 384.48 
L 263.318182 51.84 
" clip-path="url(#p5a6e51e17a)" style="fill: none; stroke: #ffffff; stroke-width: 0.8; stroke-linecap: square"/>
     </g>
     <g id="line2d_16">
      <g>
       <use xlink:href="#m264f4a93b9" x="263.318182" y="384.48" style="fill: #ffffff; stroke: #ffffff; stroke-width: 0.8"/>
      </g>
     </g>
     <g id="text_8">
      <!-- 78928 -->
      <g style="fill: #ffffff" transform="translate(254.021937 419.347741) rotate(-45) scale(0.1 -0.1)">
       <use xlink:href="#DejaVuSans-37"/>
       <use xlink:href="#DejaVuSans-38" x="63.623047"/>
       <use xlink:href="#DejaVuSans-39" x="127.246094"/>
       <use xlink:href="#DejaVuSans-32" x="190.869141"/>
       <use xlink:href="#DejaVuSans-38" x="254.492188"/>
      </g>
     </g>
    </g>
    <g id="xtick_9">
     <g id="line2d_17">
      <path d="M 284.454545 384.48 
L 284.454545 51.84 
" clip-path="url(#p5a6e51e17a)" style="fill: none; stroke: #ffffff; stroke-width: 0.8; stroke-linecap: square"/>
     </g>
     <g id="line2d_18">
      <g>
       <use xlink:href="#m264f4a93b9" x="284.454545" y="384.48" style="fill: #ffffff; stroke: #ffffff; stroke-width: 0.8"/>
      </g>
     </g>
     <g id="text_9">
      <!-- 83859 -->
      <g style="fill: #ffffff" transform="translate(275.158301 419.347741) rotate(-45) scale(0.1 -0.1)">
       <use xlink:href="#DejaVuSans-38"/>
       <use xlink:href="#DejaVuSans-33" x="63.623047"/>
       <use xlink:href="#DejaVuSans-38" x="127.246094"/>
       <use xlink:href="#DejaVuSans-35" x="190.869141"/>
       <use xlink:href="#DejaVuSans-39" x="254.492188"/>
      </g>
     </g>
    </g>
    <g id="xtick_10">
     <g id="line2d_19">
      <path d="M 305.590909 384.48 
L 305.590909 51.84 
" clip-path="url(#p5a6e51e17a)" style="fill: none; stroke: #ffffff; stroke-width: 0.8; stroke-linecap: square"/>
     </g>
     <g id="line2d_20">
      <g>
       <use xlink:href="#m264f4a93b9" x="305.590909" y="384.48" style="fill: #ffffff; stroke: #ffffff; stroke-width: 0.8"/>
      </g>
     </g>
     <g id="text_10">
      <!-- 89448 -->
      <g style="fill: #ffffff" transform="translate(296.294665 419.347741) rotate(-45) scale(0.1 -0.1)">
       <use xlink:href="#DejaVuSans-38"/>
       <use xlink:href="#DejaVuSans-39" x="63.623047"/>
       <use xlink:href="#DejaVuSans-34" x="127.246094"/>
       <use xlink:href="#DejaVuSans-34" x="190.869141"/>
       <use xlink:href="#DejaVuSans-38" x="254.492188"/>
      </g>
     </g>
    </g>
    <g id="xtick_11">
     <g id="line2d_21">
      <path d="M 326.727273 384.48 
L 326.727273 51.84 
" clip-path="url(#p5a6e51e17a)" style="fill: none; stroke: #ffffff; stroke-width: 0.8; stroke-linecap: square"/>
     </g>
     <g id="line2d_22">
      <g>
       <use xlink:href="#m264f4a93b9" x="326.727273" y="384.48" style="fill: #ffffff; stroke: #ffffff; stroke-width: 0.8"/>
      </g>
     </g>
     <g id="text_11">
      <!-- 95835 -->
      <g style="fill: #ffffff" transform="translate(317.431028 419.347741) rotate(-45) scale(0.1 -0.1)">
       <use xlink:href="#DejaVuSans-39"/>
       <use xlink:href="#DejaVuSans-35" x="63.623047"/>
       <use xlink:href="#DejaVuSans-38" x="127.246094"/>
       <use xlink:href="#DejaVuSans-33" x="190.869141"/>
       <use xlink:href="#DejaVuSans-35" x="254.492188"/>
      </g>
     </g>
    </g>
    <g id="xtick_12">
     <g id="line2d_23">
      <path d="M 347.863636 384.48 
L 347.863636 51.84 
" clip-path="url(#p5a6e51e17a)" style="fill: none; stroke: #ffffff; stroke-width: 0.8; stroke-linecap: square"/>
     </g>
     <g id="line2d_24">
      <g>
       <use xlink:href="#m264f4a93b9" x="347.863636" y="384.48" style="fill: #ffffff; stroke: #ffffff; stroke-width: 0.8"/>
      </g>
     </g>
     <g id="text_12">
      <!-- 103204 -->
      <g style="fill: #ffffff" transform="translate(336.317908 423.846708) rotate(-45) scale(0.1 -0.1)">
       <use xlink:href="#DejaVuSans-31"/>
       <use xlink:href="#DejaVuSans-30" x="63.623047"/>
       <use xlink:href="#DejaVuSans-33" x="127.246094"/>
       <use xlink:href="#DejaVuSans-32" x="190.869141"/>
       <use xlink:href="#DejaVuSans-30" x="254.492188"/>
       <use xlink:href="#DejaVuSans-34" x="318.115234"/>
      </g>
     </g>
    </g>
    <g id="xtick_13">
     <g id="line2d_25">
      <path d="M 369 384.48 
L 369 51.84 
" clip-path="url(#p5a6e51e17a)" style="fill: none; stroke: #ffffff; stroke-width: 0.8; stroke-linecap: square"/>
     </g>
     <g id="line2d_26">
      <g>
       <use xlink:href="#m264f4a93b9" x="369" y="384.48" style="fill: #ffffff; stroke: #ffffff; stroke-width: 0.8"/>
      </g>
     </g>
     <g id="text_13">
      <!-- 111801 -->
      <g style="fill: #ffffff" transform="translate(357.454272 423.846708) rotate(-45) scale(0.1 -0.1)">
       <use xlink:href="#DejaVuSans-31"/>
       <use xlink:href="#DejaVuSans-31" x="63.623047"/>
       <use xlink:href="#DejaVuSans-31" x="127.246094"/>
       <use xlink:href="#DejaVuSans-38" x="190.869141"/>
       <use xlink:href="#DejaVuSans-30" x="254.492188"/>
       <use xlink:href="#DejaVuSans-31" x="318.115234"/>
      </g>
     </g>
    </g>
    <g id="xtick_14">
     <g id="line2d_27">
      <path d="M 390.136364 384.48 
L 390.136364 51.84 
" clip-path="url(#p5a6e51e17a)" style="fill: none; stroke: #ffffff; stroke-width: 0.8; stroke-linecap: square"/>
     </g>
     <g id="line2d_28">
      <g>
       <use xlink:href="#m264f4a93b9" x="390.136364" y="384.48" style="fill: #ffffff; stroke: #ffffff; stroke-width: 0.8"/>
      </g>
     </g>
     <g id="text_14">
      <!-- 121960 -->
      <g style="fill: #ffffff" transform="translate(378.590636 423.846708) rotate(-45) scale(0.1 -0.1)">
       <use xlink:href="#DejaVuSans-31"/>
       <use xlink:href="#DejaVuSans-32" x="63.623047"/>
       <use xlink:href="#DejaVuSans-31" x="127.246094"/>
       <use xlink:href="#DejaVuSans-39" x="190.869141"/>
       <use xlink:href="#DejaVuSans-36" x="254.492188"/>
       <use xlink:href="#DejaVuSans-30" x="318.115234"/>
      </g>
     </g>
    </g>
    <g id="xtick_15">
     <g id="line2d_29">
      <path d="M 411.272727 384.48 
L 411.272727 51.84 
" clip-path="url(#p5a6e51e17a)" style="fill: none; stroke: #ffffff; stroke-width: 0.8; stroke-linecap: square"/>
     </g>
     <g id="line2d_30">
      <g>
       <use xlink:href="#m264f4a93b9" x="411.272727" y="384.48" style="fill: #ffffff; stroke: #ffffff; stroke-width: 0.8"/>
      </g>
     </g>
     <g id="text_15">
      <!-- 134150 -->
      <g style="fill: #ffffff" transform="translate(399.726999 423.846708) rotate(-45) scale(0.1 -0.1)">
       <use xlink:href="#DejaVuSans-31"/>
       <use xlink:href="#DejaVuSans-33" x="63.623047"/>
       <use xlink:href="#DejaVuSans-34" x="127.246094"/>
       <use xlink:href="#DejaVuSans-31" x="190.869141"/>
       <use xlink:href="#DejaVuSans-35" x="254.492188"/>
       <use xlink:href="#DejaVuSans-30" x="318.115234"/>
      </g>
     </g>
    </g>
    <g id="xtick_16">
     <g id="line2d_31">
      <path d="M 432.409091 384.48 
L 432.409091 51.84 
" clip-path="url(#p5a6e51e17a)" style="fill: none; stroke: #ffffff; stroke-width: 0.8; stroke-linecap: square"/>
     </g>
     <g id="line2d_32">
      <g>
       <use xlink:href="#m264f4a93b9" x="432.409091" y="384.48" style="fill: #ffffff; stroke: #ffffff; stroke-width: 0.8"/>
      </g>
     </g>
     <g id="text_16">
      <!-- 149048 -->
      <g style="fill: #ffffff" transform="translate(420.863363 423.846708) rotate(-45) scale(0.1 -0.1)">
       <use xlink:href="#DejaVuSans-31"/>
       <use xlink:href="#DejaVuSans-34" x="63.623047"/>
       <use xlink:href="#DejaVuSans-39" x="127.246094"/>
       <use xlink:href="#DejaVuSans-30" x="190.869141"/>
       <use xlink:href="#DejaVuSans-34" x="254.492188"/>
       <use xlink:href="#DejaVuSans-38" x="318.115234"/>
      </g>
     </g>
    </g>
    <g id="xtick_17">
     <g id="line2d_33">
      <path d="M 453.545455 384.48 
L 453.545455 51.84 
" clip-path="url(#p5a6e51e17a)" style="fill: none; stroke: #ffffff; stroke-width: 0.8; stroke-linecap: square"/>
     </g>
     <g id="line2d_34">
      <g>
       <use xlink:href="#m264f4a93b9" x="453.545455" y="384.48" style="fill: #ffffff; stroke: #ffffff; stroke-width: 0.8"/>
      </g>
     </g>
     <g id="text_17">
      <!-- 167667 -->
      <g style="fill: #ffffff" transform="translate(441.999727 423.846708) rotate(-45) scale(0.1 -0.1)">
       <use xlink:href="#DejaVuSans-31"/>
       <use xlink:href="#DejaVuSans-36" x="63.623047"/>
       <use xlink:href="#DejaVuSans-37" x="127.246094"/>
       <use xlink:href="#DejaVuSans-36" x="190.869141"/>
       <use xlink:href="#DejaVuSans-36" x="254.492188"/>
       <use xlink:href="#DejaVuSans-37" x="318.115234"/>
      </g>
     </g>
    </g>
    <g id="xtick_18">
     <g id="line2d_35">
      <path d="M 474.681818 384.48 
L 474.681818 51.84 
" clip-path="url(#p5a6e51e17a)" style="fill: none; stroke: #ffffff; stroke-width: 0.8; stroke-linecap: square"/>
     </g>
     <g id="line2d_36">
      <g>
       <use xlink:href="#m264f4a93b9" x="474.681818" y="384.48" style="fill: #ffffff; stroke: #ffffff; stroke-width: 0.8"/>
      </g>
     </g>
     <g id="text_18">
      <!-- 191602 -->
      <g style="fill: #ffffff" transform="translate(463.13609 423.846708) rotate(-45) scale(0.1 -0.1)">
       <use xlink:href="#DejaVuSans-31"/>
       <use xlink:href="#DejaVuSans-39" x="63.623047"/>
       <use xlink:href="#DejaVuSans-31" x="127.246094"/>
       <use xlink:href="#DejaVuSans-36" x="190.869141"/>
       <use xlink:href="#DejaVuSans-30" x="254.492188"/>
       <use xlink:href="#DejaVuSans-32" x="318.115234"/>
      </g>
     </g>
    </g>
    <g id="xtick_19">
     <g id="line2d_37">
      <path d="M 495.818182 384.48 
L 495.818182 51.84 
" clip-path="url(#p5a6e51e17a)" style="fill: none; stroke: #ffffff; stroke-width: 0.8; stroke-linecap: square"/>
     </g>
     <g id="line2d_38">
      <g>
       <use xlink:href="#m264f4a93b9" x="495.818182" y="384.48" style="fill: #ffffff; stroke: #ffffff; stroke-width: 0.8"/>
      </g>
     </g>
     <g id="text_19">
      <!-- 223509 -->
      <g style="fill: #ffffff" transform="translate(484.272454 423.846708) rotate(-45) scale(0.1 -0.1)">
       <use xlink:href="#DejaVuSans-32"/>
       <use xlink:href="#DejaVuSans-32" x="63.623047"/>
       <use xlink:href="#DejaVuSans-33" x="127.246094"/>
       <use xlink:href="#DejaVuSans-35" x="190.869141"/>
       <use xlink:href="#DejaVuSans-30" x="254.492188"/>
       <use xlink:href="#DejaVuSans-39" x="318.115234"/>
      </g>
     </g>
    </g>
    <g id="xtick_20">
     <g id="line2d_39">
      <path d="M 516.954545 384.48 
L 516.954545 51.84 
" clip-path="url(#p5a6e51e17a)" style="fill: none; stroke: #ffffff; stroke-width: 0.8; stroke-linecap: square"/>
     </g>
     <g id="line2d_40">
      <g>
       <use xlink:href="#m264f4a93b9" x="516.954545" y="384.48" style="fill: #ffffff; stroke: #ffffff; stroke-width: 0.8"/>
      </g>
     </g>
     <g id="text_20">
      <!-- 268167 -->
      <g style="fill: #ffffff" transform="translate(505.408818 423.846708) rotate(-45) scale(0.1 -0.1)">
       <use xlink:href="#DejaVuSans-32"/>
       <use xlink:href="#DejaVuSans-36" x="63.623047"/>
       <use xlink:href="#DejaVuSans-38" x="127.246094"/>
       <use xlink:href="#DejaVuSans-31" x="190.869141"/>
       <use xlink:href="#DejaVuSans-36" x="254.492188"/>
       <use xlink:href="#DejaVuSans-37" x="318.115234"/>
      </g>
     </g>
    </g>
    <g id="xtick_21">
     <g id="line2d_41">
      <path d="M 538.090909 384.48 
L 538.090909 51.84 
" clip-path="url(#p5a6e51e17a)" style="fill: none; stroke: #ffffff; stroke-width: 0.8; stroke-linecap: square"/>
     </g>
     <g id="line2d_42">
      <g>
       <use xlink:href="#m264f4a93b9" x="538.090909" y="384.48" style="fill: #ffffff; stroke: #ffffff; stroke-width: 0.8"/>
      </g>
     </g>
     <g id="text_21">
      <!-- 335125 -->
      <g style="fill: #ffffff" transform="translate(526.545181 423.846708) rotate(-45) scale(0.1 -0.1)">
       <use xlink:href="#DejaVuSans-33"/>
       <use xlink:href="#DejaVuSans-33" x="63.623047"/>
       <use xlink:href="#DejaVuSans-35" x="127.246094"/>
       <use xlink:href="#DejaVuSans-31" x="190.869141"/>
       <use xlink:href="#DejaVuSans-32" x="254.492188"/>
       <use xlink:href="#DejaVuSans-35" x="318.115234"/>
      </g>
     </g>
    </g>
    <g id="xtick_22">
     <g id="line2d_43">
      <path d="M 559.227273 384.48 
L 559.227273 51.84 
" clip-path="url(#p5a6e51e17a)" style="fill: none; stroke: #ffffff; stroke-width: 0.8; stroke-linecap: square"/>
     </g>
     <g id="line2d_44">
      <g>
       <use xlink:href="#m264f4a93b9" x="559.227273" y="384.48" style="fill: #ffffff; stroke: #ffffff; stroke-width: 0.8"/>
      </g>
     </g>
     <g id="text_22">
      <!-- 446648 -->
      <g style="fill: #ffffff" transform="translate(547.681545 423.846708) rotate(-45) scale(0.1 -0.1)">
       <use xlink:href="#DejaVuSans-34"/>
       <use xlink:href="#DejaVuSans-34" x="63.623047"/>
       <use xlink:href="#DejaVuSans-36" x="127.246094"/>
       <use xlink:href="#DejaVuSans-36" x="190.869141"/>
       <use xlink:href="#DejaVuSans-34" x="254.492188"/>
       <use xlink:href="#DejaVuSans-38" x="318.115234"/>
      </g>
     </g>
    </g>
    <g id="xtick_23">
     <g id="line2d_45">
      <path d="M 580.363636 384.48 
L 580.363636 51.84 
" clip-path="url(#p5a6e51e17a)" style="fill: none; stroke: #ffffff; stroke-width: 0.8; stroke-linecap: square"/>
     </g>
     <g id="line2d_46">
      <g>
       <use xlink:href="#m264f4a93b9" x="580.363636" y="384.48" style="fill: #ffffff; stroke: #ffffff; stroke-width: 0.8"/>
      </g>
     </g>
     <g id="text_23">
      <!-- 669415 -->
      <g style="fill: #ffffff" transform="translate(568.817908 423.846708) rotate(-45) scale(0.1 -0.1)">
       <use xlink:href="#DejaVuSans-36"/>
       <use xlink:href="#DejaVuSans-36" x="63.623047"/>
       <use xlink:href="#DejaVuSans-39" x="127.246094"/>
       <use xlink:href="#DejaVuSans-34" x="190.869141"/>
       <use xlink:href="#DejaVuSans-31" x="254.492188"/>
       <use xlink:href="#DejaVuSans-35" x="318.115234"/>
      </g>
     </g>
    </g>
    <g id="xtick_24">
     <g id="line2d_47">
      <path d="M 601.5 384.48 
L 601.5 51.84 
" clip-path="url(#p5a6e51e17a)" style="fill: none; stroke: #ffffff; stroke-width: 0.8; stroke-linecap: square"/>
     </g>
     <g id="line2d_48">
      <g>
       <use xlink:href="#m264f4a93b9" x="601.5" y="384.48" style="fill: #ffffff; stroke: #ffffff; stroke-width: 0.8"/>
      </g>
     </g>
     <g id="text_24">
      <!-- 1335499 -->
      <g style="fill: #ffffff" transform="translate(587.704789 428.345675) rotate(-45) scale(0.1 -0.1)">
       <use xlink:href="#DejaVuSans-31"/>
       <use xlink:href="#DejaVuSans-33" x="63.623047"/>
       <use xlink:href="#DejaVuSans-33" x="127.246094"/>
       <use xlink:href="#DejaVuSans-35" x="190.869141"/>
       <use xlink:href="#DejaVuSans-34" x="254.492188"/>
       <use xlink:href="#DejaVuSans-39" x="318.115234"/>
       <use xlink:href="#DejaVuSans-39" x="381.738281"/>
      </g>
     </g>
    </g>
    <g id="xtick_25">
     <g id="line2d_49">
      <path d="M 622.636364 384.48 
L 622.636364 51.84 
" clip-path="url(#p5a6e51e17a)" style="fill: none; stroke: #ffffff; stroke-width: 0.8; stroke-linecap: square"/>
     </g>
     <g id="line2d_50">
      <g>
       <use xlink:href="#m264f4a93b9" x="622.636364" y="384.48" style="fill: #ffffff; stroke: #ffffff; stroke-width: 0.8"/>
      </g>
     </g>
     <g id="text_25">
      <!-- 268435456 -->
      <g style="fill: #ffffff" transform="translate(604.342185 437.343609) rotate(-45) scale(0.1 -0.1)">
       <use xlink:href="#DejaVuSans-32"/>
       <use xlink:href="#DejaVuSans-36" x="63.623047"/>
       <use xlink:href="#DejaVuSans-38" x="127.246094"/>
       <use xlink:href="#DejaVuSans-34" x="190.869141"/>
       <use xlink:href="#DejaVuSans-33" x="254.492188"/>
       <use xlink:href="#DejaVuSans-35" x="318.115234"/>
       <use xlink:href="#DejaVuSans-34" x="381.738281"/>
       <use xlink:href="#DejaVuSans-35" x="445.361328"/>
       <use xlink:href="#DejaVuSans-36" x="508.984375"/>
      </g>
     </g>
    </g>
    <g id="text_26">
     <!-- chunk_size -->
     <g style="fill: #ffffff" transform="translate(341.654688 450.412607) scale(0.1 -0.1)">
      <defs>
       <path id="DejaVuSans-63" d="M 3122 3366 
L 3122 2828 
Q 2878 2963 2633 3030 
Q 2388 3097 2138 3097 
Q 1578 3097 1268 2742 
Q 959 2388 959 1747 
Q 959 1106 1268 751 
Q 1578 397 2138 397 
Q 2388 397 2633 464 
Q 2878 531 3122 666 
L 3122 134 
Q 2881 22 2623 -34 
Q 2366 -91 2075 -91 
Q 1284 -91 818 406 
Q 353 903 353 1747 
Q 353 2603 823 3093 
Q 1294 3584 2113 3584 
Q 2378 3584 2631 3529 
Q 2884 3475 3122 3366 
z
" transform="scale(0.015625)"/>
       <path id="DejaVuSans-68" d="M 3513 2113 
L 3513 0 
L 2938 0 
L 2938 2094 
Q 2938 2591 2744 2837 
Q 2550 3084 2163 3084 
Q 1697 3084 1428 2787 
Q 1159 2491 1159 1978 
L 1159 0 
L 581 0 
L 581 4863 
L 1159 4863 
L 1159 2956 
Q 1366 3272 1645 3428 
Q 1925 3584 2291 3584 
Q 2894 3584 3203 3211 
Q 3513 2838 3513 2113 
z
" transform="scale(0.015625)"/>
       <path id="DejaVuSans-75" d="M 544 1381 
L 544 3500 
L 1119 3500 
L 1119 1403 
Q 1119 906 1312 657 
Q 1506 409 1894 409 
Q 2359 409 2629 706 
Q 2900 1003 2900 1516 
L 2900 3500 
L 3475 3500 
L 3475 0 
L 2900 0 
L 2900 538 
Q 2691 219 2414 64 
Q 2138 -91 1772 -91 
Q 1169 -91 856 284 
Q 544 659 544 1381 
z
M 1991 3584 
L 1991 3584 
z
" transform="scale(0.015625)"/>
       <path id="DejaVuSans-6e" d="M 3513 2113 
L 3513 0 
L 2938 0 
L 2938 2094 
Q 2938 2591 2744 2837 
Q 2550 3084 2163 3084 
Q 1697 3084 1428 2787 
Q 1159 2491 1159 1978 
L 1159 0 
L 581 0 
L 581 3500 
L 1159 3500 
L 1159 2956 
Q 1366 3272 1645 3428 
Q 1925 3584 2291 3584 
Q 2894 3584 3203 3211 
Q 3513 2838 3513 2113 
z
" transform="scale(0.015625)"/>
       <path id="DejaVuSans-6b" d="M 581 4863 
L 1159 4863 
L 1159 1991 
L 2875 3500 
L 3609 3500 
L 1753 1863 
L 3688 0 
L 2938 0 
L 1159 1709 
L 1159 0 
L 581 0 
L 581 4863 
z
" transform="scale(0.015625)"/>
       <path id="DejaVuSans-5f" d="M 3263 -1063 
L 3263 -1509 
L -63 -1509 
L -63 -1063 
L 3263 -1063 
z
" transform="scale(0.015625)"/>
       <path id="DejaVuSans-73" d="M 2834 3397 
L 2834 2853 
Q 2591 2978 2328 3040 
Q 2066 3103 1784 3103 
Q 1356 3103 1142 2972 
Q 928 2841 928 2578 
Q 928 2378 1081 2264 
Q 1234 2150 1697 2047 
L 1894 2003 
Q 2506 1872 2764 1633 
Q 3022 1394 3022 966 
Q 3022 478 2636 193 
Q 2250 -91 1575 -91 
Q 1294 -91 989 -36 
Q 684 19 347 128 
L 347 722 
Q 666 556 975 473 
Q 1284 391 1588 391 
Q 1994 391 2212 530 
Q 2431 669 2431 922 
Q 2431 1156 2273 1281 
Q 2116 1406 1581 1522 
L 1381 1569 
Q 847 1681 609 1914 
Q 372 2147 372 2553 
Q 372 3047 722 3315 
Q 1072 3584 1716 3584 
Q 2034 3584 2315 3537 
Q 2597 3491 2834 3397 
z
" transform="scale(0.015625)"/>
       <path id="DejaVuSans-69" d="M 603 3500 
L 1178 3500 
L 1178 0 
L 603 0 
L 603 3500 
z
M 603 4863 
L 1178 4863 
L 1178 4134 
L 603 4134 
L 603 4863 
z
" transform="scale(0.015625)"/>
       <path id="DejaVuSans-7a" d="M 353 3500 
L 3084 3500 
L 3084 2975 
L 922 459 
L 3084 459 
L 3084 0 
L 275 0 
L 275 525 
L 2438 3041 
L 353 3041 
L 353 3500 
z
" transform="scale(0.015625)"/>
       <path id="DejaVuSans-65" d="M 3597 1894 
L 3597 1613 
L 953 1613 
Q 991 1019 1311 708 
Q 1631 397 2203 397 
Q 2534 397 2845 478 
Q 3156 559 3463 722 
L 3463 178 
Q 3153 47 2828 -22 
Q 2503 -91 2169 -91 
Q 1331 -91 842 396 
Q 353 884 353 1716 
Q 353 2575 817 3079 
Q 1281 3584 2069 3584 
Q 2775 3584 3186 3129 
Q 3597 2675 3597 1894 
z
M 3022 2063 
Q 3016 2534 2758 2815 
Q 2500 3097 2075 3097 
Q 1594 3097 1305 2825 
Q 1016 2553 972 2059 
L 3022 2063 
z
" transform="scale(0.015625)"/>
      </defs>
      <use xlink:href="#DejaVuSans-63"/>
      <use xlink:href="#DejaVuSans-68" x="54.980469"/>
      <use xlink:href="#DejaVuSans-75" x="118.359375"/>
      <use xlink:href="#DejaVuSans-6e" x="181.738281"/>
      <use xlink:href="#DejaVuSans-6b" x="245.117188"/>
      <use xlink:href="#DejaVuSans-5f" x="303.027344"/>
      <use xlink:href="#DejaVuSans-73" x="353.027344"/>
      <use xlink:href="#DejaVuSans-69" x="405.126953"/>
      <use xlink:href="#DejaVuSans-7a" x="432.910156"/>
      <use xlink:href="#DejaVuSans-65" x="485.400391"/>
     </g>
    </g>
   </g>
   <g id="matplotlib.axis_2">
    <g id="ytick_1">
     <g id="line2d_51">
      <path d="M 90 341.088604 
L 648 341.088604 
" clip-path="url(#p5a6e51e17a)" style="fill: none; stroke: #ffffff; stroke-width: 0.8; stroke-linecap: square"/>
     </g>
     <g id="line2d_52">
      <defs>
       <path id="m4e14920aaf" d="M 0 0 
L -3.5 0 
" style="stroke: #ffffff; stroke-width: 0.8"/>
      </defs>
      <g>
       <use xlink:href="#m4e14920aaf" x="90" y="341.088604" style="fill: #ffffff; stroke: #ffffff; stroke-width: 0.8"/>
      </g>
     </g>
     <g id="text_27">
      <!-- 100 -->
      <g style="fill: #ffffff" transform="translate(63.9125 344.887823) scale(0.1 -0.1)">
       <use xlink:href="#DejaVuSans-31"/>
       <use xlink:href="#DejaVuSans-30" x="63.623047"/>
       <use xlink:href="#DejaVuSans-30" x="127.246094"/>
      </g>
     </g>
    </g>
    <g id="ytick_2">
     <g id="line2d_53">
      <path d="M 90 278.295159 
L 648 278.295159 
" clip-path="url(#p5a6e51e17a)" style="fill: none; stroke: #ffffff; stroke-width: 0.8; stroke-linecap: square"/>
     </g>
     <g id="line2d_54">
      <g>
       <use xlink:href="#m4e14920aaf" x="90" y="278.295159" style="fill: #ffffff; stroke: #ffffff; stroke-width: 0.8"/>
      </g>
     </g>
     <g id="text_28">
      <!-- 200 -->
      <g style="fill: #ffffff" transform="translate(63.9125 282.094378) scale(0.1 -0.1)">
       <use xlink:href="#DejaVuSans-32"/>
       <use xlink:href="#DejaVuSans-30" x="63.623047"/>
       <use xlink:href="#DejaVuSans-30" x="127.246094"/>
      </g>
     </g>
    </g>
    <g id="ytick_3">
     <g id="line2d_55">
      <path d="M 90 215.501714 
L 648 215.501714 
" clip-path="url(#p5a6e51e17a)" style="fill: none; stroke: #ffffff; stroke-width: 0.8; stroke-linecap: square"/>
     </g>
     <g id="line2d_56">
      <g>
       <use xlink:href="#m4e14920aaf" x="90" y="215.501714" style="fill: #ffffff; stroke: #ffffff; stroke-width: 0.8"/>
      </g>
     </g>
     <g id="text_29">
      <!-- 300 -->
      <g style="fill: #ffffff" transform="translate(63.9125 219.300933) scale(0.1 -0.1)">
       <use xlink:href="#DejaVuSans-33"/>
       <use xlink:href="#DejaVuSans-30" x="63.623047"/>
       <use xlink:href="#DejaVuSans-30" x="127.246094"/>
      </g>
     </g>
    </g>
    <g id="ytick_4">
     <g id="line2d_57">
      <path d="M 90 152.708269 
L 648 152.708269 
" clip-path="url(#p5a6e51e17a)" style="fill: none; stroke: #ffffff; stroke-width: 0.8; stroke-linecap: square"/>
     </g>
     <g id="line2d_58">
      <g>
       <use xlink:href="#m4e14920aaf" x="90" y="152.708269" style="fill: #ffffff; stroke: #ffffff; stroke-width: 0.8"/>
      </g>
     </g>
     <g id="text_30">
      <!-- 400 -->
      <g style="fill: #ffffff" transform="translate(63.9125 156.507488) scale(0.1 -0.1)">
       <use xlink:href="#DejaVuSans-34"/>
       <use xlink:href="#DejaVuSans-30" x="63.623047"/>
       <use xlink:href="#DejaVuSans-30" x="127.246094"/>
      </g>
     </g>
    </g>
    <g id="ytick_5">
     <g id="line2d_59">
      <path d="M 90 89.914824 
L 648 89.914824 
" clip-path="url(#p5a6e51e17a)" style="fill: none; stroke: #ffffff; stroke-width: 0.8; stroke-linecap: square"/>
     </g>
     <g id="line2d_60">
      <g>
       <use xlink:href="#m4e14920aaf" x="90" y="89.914824" style="fill: #ffffff; stroke: #ffffff; stroke-width: 0.8"/>
      </g>
     </g>
     <g id="text_31">
      <!-- 500 -->
      <g style="fill: #ffffff" transform="translate(63.9125 93.714042) scale(0.1 -0.1)">
       <use xlink:href="#DejaVuSans-35"/>
       <use xlink:href="#DejaVuSans-30" x="63.623047"/>
       <use xlink:href="#DejaVuSans-30" x="127.246094"/>
      </g>
     </g>
    </g>
    <g id="text_32">
     <!-- time (ms) -->
     <g style="fill: #ffffff" transform="translate(57.832812 242.421719) rotate(-90) scale(0.1 -0.1)">
      <defs>
       <path id="DejaVuSans-74" d="M 1172 4494 
L 1172 3500 
L 2356 3500 
L 2356 3053 
L 1172 3053 
L 1172 1153 
Q 1172 725 1289 603 
Q 1406 481 1766 481 
L 2356 481 
L 2356 0 
L 1766 0 
Q 1100 0 847 248 
Q 594 497 594 1153 
L 594 3053 
L 172 3053 
L 172 3500 
L 594 3500 
L 594 4494 
L 1172 4494 
z
" transform="scale(0.015625)"/>
       <path id="DejaVuSans-6d" d="M 3328 2828 
Q 3544 3216 3844 3400 
Q 4144 3584 4550 3584 
Q 5097 3584 5394 3201 
Q 5691 2819 5691 2113 
L 5691 0 
L 5113 0 
L 5113 2094 
Q 5113 2597 4934 2840 
Q 4756 3084 4391 3084 
Q 3944 3084 3684 2787 
Q 3425 2491 3425 1978 
L 3425 0 
L 2847 0 
L 2847 2094 
Q 2847 2600 2669 2842 
Q 2491 3084 2119 3084 
Q 1678 3084 1418 2786 
Q 1159 2488 1159 1978 
L 1159 0 
L 581 0 
L 581 3500 
L 1159 3500 
L 1159 2956 
Q 1356 3278 1631 3431 
Q 1906 3584 2284 3584 
Q 2666 3584 2933 3390 
Q 3200 3197 3328 2828 
z
" transform="scale(0.015625)"/>
       <path id="DejaVuSans-20" transform="scale(0.015625)"/>
       <path id="DejaVuSans-28" d="M 1984 4856 
Q 1566 4138 1362 3434 
Q 1159 2731 1159 2009 
Q 1159 1288 1364 580 
Q 1569 -128 1984 -844 
L 1484 -844 
Q 1016 -109 783 600 
Q 550 1309 550 2009 
Q 550 2706 781 3412 
Q 1013 4119 1484 4856 
L 1984 4856 
z
" transform="scale(0.015625)"/>
       <path id="DejaVuSans-29" d="M 513 4856 
L 1013 4856 
Q 1481 4119 1714 3412 
Q 1947 2706 1947 2009 
Q 1947 1309 1714 600 
Q 1481 -109 1013 -844 
L 513 -844 
Q 928 -128 1133 580 
Q 1338 1288 1338 2009 
Q 1338 2731 1133 3434 
Q 928 4138 513 4856 
z
" transform="scale(0.015625)"/>
      </defs>
      <use xlink:href="#DejaVuSans-74"/>
      <use xlink:href="#DejaVuSans-69" x="39.208984"/>
      <use xlink:href="#DejaVuSans-6d" x="66.992188"/>
      <use xlink:href="#DejaVuSans-65" x="164.404297"/>
      <use xlink:href="#DejaVuSans-20" x="225.927734"/>
      <use xlink:href="#DejaVuSans-28" x="257.714844"/>
      <use xlink:href="#DejaVuSans-6d" x="296.728516"/>
      <use xlink:href="#DejaVuSans-73" x="394.140625"/>
      <use xlink:href="#DejaVuSans-29" x="446.240234"/>
     </g>
    </g>
   </g>
   <g id="line2d_61">
    <path d="M 115.363636 311.574252 
L 117.057368 309.247383 
L 118.7511 307.271432 
L 120.444832 305.625873 
L 122.138564 304.290176 
L 123.832296 303.243813 
L 125.526028 302.466256 
L 127.21976 301.936977 
L 128.913492 301.635447 
L 130.607224 301.541138 
L 132.300956 301.633521 
L 133.994688 301.892069 
L 136.535286 302.546542 
L 139.075884 303.459413 
L 142.463348 304.958777 
L 153.472606 310.168781 
L 156.013204 311.033733 
L 158.553802 311.62671 
L 161.0944 311.918764 
L 163.634998 311.937865 
L 166.175596 311.716401 
L 168.716194 311.286762 
L 172.103658 310.446061 
L 175.491122 309.369623 
L 180.572317 307.481348 
L 188.194111 304.608502 
L 191.581575 303.558361 
L 194.122173 302.945221 
L 196.662771 302.526044 
L 199.203369 302.340812 
L 201.743967 302.422344 
L 204.284565 302.735 
L 207.672029 303.384007 
L 215.293823 304.958293 
L 217.834421 305.254765 
L 220.375019 305.313635 
L 222.915617 305.074378 
L 226.303081 304.411912 
L 231.384277 303.304986 
L 233.924875 302.981611 
L 235.618607 302.939321 
L 237.312339 303.080504 
L 239.006071 303.443593 
L 240.699803 304.06702 
L 242.393535 304.989188 
L 244.087267 306.226778 
L 245.780999 307.736452 
L 248.321597 310.393843 
L 251.709061 314.388933 
L 256.790256 320.478709 
L 259.330854 323.17526 
L 261.024586 324.721083 
L 262.718318 326.002854 
L 264.41205 326.971261 
L 266.105782 327.630967 
L 267.799514 328.023447 
L 269.493246 328.190885 
L 271.186978 328.175465 
L 273.727576 327.901752 
L 283.043102 326.490939 
L 284.736834 326.531216 
L 286.430566 326.749043 
L 288.971164 327.354182 
L 291.511762 328.200504 
L 301.674154 331.907468 
L 304.214752 332.392091 
L 305.908484 332.50733 
L 307.602216 332.438708 
L 310.142814 332.058965 
L 313.530278 331.225985 
L 319.45834 329.682976 
L 321.998938 329.305211 
L 323.69267 329.238379 
L 325.386402 329.361789 
L 327.080134 329.711535 
L 328.773866 330.30331 
L 330.467598 331.108335 
L 333.008195 332.639949 
L 335.548793 334.456543 
L 340.629989 338.477082 
L 344.017453 341.069137 
L 346.558051 342.769822 
L 349.098649 344.135299 
L 351.639247 345.132279 
L 354.179845 345.810777 
L 356.720443 346.22467 
L 359.261041 346.427836 
L 362.648505 346.46405 
L 378.738959 346.177855 
L 392.288815 346.555475 
L 400.757475 346.867077 
L 405.838671 347.271537 
L 410.073 347.832123 
L 414.30733 348.653293 
L 419.388526 349.899016 
L 429.550918 352.466311 
L 433.785248 353.260419 
L 438.019578 353.78708 
L 443.100774 354.141733 
L 449.028836 354.309394 
L 463.425558 354.617112 
L 468.506754 355.010712 
L 472.741084 355.566562 
L 476.975414 356.384402 
L 482.05661 357.659063 
L 494.759599 361.053081 
L 498.993929 361.878461 
L 503.228259 362.484415 
L 508.309455 362.996942 
L 515.931249 363.520004 
L 524.399909 364.125314 
L 528.634239 364.625238 
L 532.021703 365.198967 
L 535.409167 365.975296 
L 538.796631 366.998337 
L 543.030961 368.586907 
L 548.959023 370.86668 
L 552.346487 371.904232 
L 554.887085 372.432895 
L 557.427683 372.672428 
L 559.121414 372.638036 
L 561.662012 372.28404 
L 569.283806 370.717519 
L 570.977538 370.64192 
L 572.67127 370.79214 
L 574.365002 371.226667 
L 576.058734 372.003988 
L 577.752466 373.18259 
L 579.446198 374.820961 
L 581.13993 376.973336 
L 582.833662 379.573979 
L 588.761724 389.280133 
L 590.455456 391.374015 
L 591.302322 392.178669 
L 592.149188 392.787382 
L 592.996054 393.174338 
L 593.84292 393.313726 
L 594.689786 393.17973 
L 595.536652 392.746537 
L 596.383518 391.988334 
L 597.230384 390.879307 
L 598.07725 389.393643 
L 598.924116 387.505527 
L 599.770982 385.189145 
L 600.617848 382.418686 
L 601.464714 379.168334 
L 602.31158 375.412276 
L 604.005312 366.279787 
L 605.699044 354.814711 
L 607.392776 340.810538 
L 609.086508 324.060759 
L 610.78024 304.358865 
L 612.473972 281.498346 
L 614.167704 255.272693 
L 615.861436 225.475398 
L 617.555168 191.89995 
L 619.2489 154.339841 
L 620.942632 112.588561 
L 622.636364 66.439602 
L 622.636364 66.439602 
" clip-path="url(#p5a6e51e17a)" style="fill: none; stroke: #8dd3c7; stroke-width: 1.5; stroke-linecap: square"/>
   </g>
   <g id="line2d_62">
    <path d="M 115.363636 313.403862 
L 117.057368 311.767235 
L 118.7511 310.368222 
L 120.444832 309.192358 
L 122.138564 308.225179 
L 123.832296 307.45222 
L 125.526028 306.859015 
L 127.21976 306.4311 
L 129.760358 306.067505 
L 132.300956 305.994448 
L 134.841554 306.163111 
L 138.229018 306.679623 
L 142.463348 307.631226 
L 151.778874 309.860647 
L 155.166338 310.356053 
L 157.706936 310.503346 
L 160.247534 310.419638 
L 162.788132 310.128505 
L 166.175596 309.481041 
L 170.409926 308.37723 
L 183.959781 304.501575 
L 188.194111 303.600355 
L 192.428441 302.909658 
L 196.662771 302.449264 
L 200.897101 302.238891 
L 205.131431 302.28901 
L 209.365761 302.5913 
L 213.600091 303.135158 
L 217.834421 303.90998 
L 222.068751 304.905321 
L 226.303081 306.131689 
L 229.690545 307.313921 
L 233.078009 308.706589 
L 236.465473 310.338905 
L 239.852937 312.240081 
L 243.240401 314.438333 
L 247.474731 317.527525 
L 254.249659 322.522514 
L 257.637122 324.689989 
L 260.17772 326.0345 
L 262.718318 327.059952 
L 264.41205 327.533643 
L 266.952648 327.94363 
L 269.493246 328.065718 
L 272.88071 327.923313 
L 282.196236 327.246405 
L 284.736834 327.374302 
L 287.277432 327.756761 
L 290.664896 328.56622 
L 301.674154 331.593596 
L 304.214752 331.951063 
L 306.75535 332.030953 
L 309.295948 331.836697 
L 312.683412 331.298478 
L 320.305206 329.949567 
L 322.845804 329.774043 
L 325.386402 329.88396 
L 327.080134 330.159705 
L 328.773866 330.613805 
L 331.314463 331.586115 
L 333.855061 332.837941 
L 337.242525 334.805964 
L 347.404917 340.989514 
L 349.945515 342.195739 
L 352.486113 343.192144 
L 355.873577 344.241905 
L 359.261041 345.033113 
L 363.495371 345.758337 
L 370.270299 346.610028 
L 382.126423 347.887938 
L 389.748217 348.481652 
L 399.063743 348.914769 
L 406.685537 349.363426 
L 411.766732 349.898522 
L 416.847928 350.699616 
L 423.622856 352.048536 
L 437.172712 354.834319 
L 443.100774 355.795043 
L 448.18197 356.426 
L 453.263166 356.845925 
L 458.344362 357.043917 
L 476.975414 357.491294 
L 482.05661 357.990684 
L 487.137805 358.726422 
L 492.219001 359.698295 
L 497.300197 360.905147 
L 510.003187 364.128699 
L 513.390651 364.711334 
L 516.778115 365.047603 
L 520.165579 365.098941 
L 525.246775 364.867836 
L 530.327971 364.679486 
L 533.715435 364.806838 
L 536.256033 365.132888 
L 538.796631 365.720448 
L 541.337229 366.576277 
L 544.724693 367.986942 
L 551.499621 370.896245 
L 554.040219 371.73002 
L 556.580817 372.277158 
L 558.274548 372.436216 
L 559.96828 372.399444 
L 562.508878 372.019214 
L 570.130672 370.452181 
L 571.824404 370.41287 
L 573.518136 370.619527 
L 575.211868 371.133832 
L 576.9056 372.017462 
L 578.599332 373.332094 
L 580.293064 375.139407 
L 581.986796 377.461955 
L 584.527394 381.557536 
L 587.914858 387.083877 
L 589.60859 389.413838 
L 591.302322 391.181624 
L 592.149188 391.790631 
L 592.996054 392.182208 
L 593.84292 392.330729 
L 594.689786 392.210564 
L 595.536652 391.796086 
L 596.383518 391.061666 
L 597.230384 389.981675 
L 598.07725 388.530485 
L 598.924116 386.682469 
L 599.770982 384.411997 
L 600.617848 381.693441 
L 601.464714 378.501174 
L 602.31158 374.809566 
L 604.005312 365.825816 
L 605.699044 354.537165 
L 607.392776 340.738587 
L 609.086508 324.225054 
L 610.78024 304.79154 
L 612.473972 282.233019 
L 614.167704 256.344464 
L 615.861436 226.920848 
L 617.555168 193.757145 
L 619.2489 156.648329 
L 620.942632 115.389372 
L 622.636364 69.775248 
L 622.636364 69.775248 
" clip-path="url(#p5a6e51e17a)" style="fill: none; stroke: #feffb3; stroke-width: 1.5; stroke-linecap: square"/>
   </g>
   <g id="line2d_63">
    <path d="M 115.363636 315.433867 
L 117.057368 307.325878 
L 118.7511 300.404731 
L 120.444832 294.600993 
L 122.138564 289.845232 
L 123.832296 286.068014 
L 125.526028 283.199909 
L 126.372894 282.085075 
L 127.21976 281.171482 
L 128.066626 280.45045 
L 128.913492 279.913301 
L 129.760358 279.551356 
L 130.607224 279.355935 
L 131.45409 279.318359 
L 132.300956 279.42995 
L 133.147822 279.682028 
L 133.994688 280.065914 
L 135.68842 281.194395 
L 137.382152 282.74596 
L 139.075884 284.651176 
L 140.769616 286.840612 
L 143.310214 290.505792 
L 151.778874 303.2046 
L 153.472606 305.312518 
L 155.166338 307.114478 
L 156.86007 308.541049 
L 158.553802 309.525861 
L 160.247534 310.060922 
L 161.941266 310.190597 
L 163.634998 309.961112 
L 165.32873 309.418687 
L 167.022462 308.609548 
L 168.716194 307.579917 
L 171.256792 305.72316 
L 174.644256 302.907178 
L 178.878586 299.360288 
L 181.419183 297.469282 
L 183.959781 295.823178 
L 186.500379 294.440691 
L 189.040977 293.340538 
L 191.581575 292.541434 
L 194.122173 292.062094 
L 195.815905 291.929423 
L 197.509637 291.952733 
L 199.203369 292.137569 
L 200.897101 292.488617 
L 203.437699 293.303609 
L 205.978297 294.404034 
L 209.365761 296.196212 
L 214.446957 299.249113 
L 219.528153 302.249715 
L 222.915617 303.957102 
L 226.303081 305.398524 
L 238.159205 310.170704 
L 240.699803 311.496671 
L 243.240401 313.048505 
L 246.627865 315.441533 
L 255.94339 322.337841 
L 258.483988 323.883914 
L 261.024586 325.118532 
L 262.718318 325.724662 
L 264.41205 326.128945 
L 266.105782 326.338323 
L 268.64638 326.348256 
L 271.186978 326.078356 
L 274.574442 325.44872 
L 280.502504 324.242274 
L 283.043102 323.93277 
L 285.5837 323.883747 
L 288.124298 324.116455 
L 290.664896 324.568742 
L 294.05236 325.397907 
L 302.52102 327.620044 
L 305.061618 328.05488 
L 307.602216 328.276178 
L 310.98968 328.312153 
L 318.611474 328.24243 
L 321.152072 328.45997 
L 323.69267 328.932496 
L 325.386402 329.429053 
L 327.080134 330.098676 
L 328.773866 330.949468 
L 331.314463 332.506603 
L 334.701927 334.94589 
L 343.170587 341.335986 
L 345.711185 342.909876 
L 347.404917 343.775124 
L 349.098649 344.460799 
L 350.792381 344.97223 
L 353.332979 345.46322 
L 355.873577 345.692603 
L 359.261041 345.727193 
L 367.729701 345.610769 
L 370.270299 345.837955 
L 372.810897 346.260453 
L 376.198361 347.046885 
L 382.973289 348.94829 
L 387.207619 350.024259 
L 390.595083 350.637394 
L 393.982547 350.949863 
L 397.370011 351.012626 
L 401.604341 350.848334 
L 415.154196 350.051281 
L 419.388526 350.107501 
L 423.622856 350.377412 
L 427.857186 350.87998 
L 432.091516 351.634173 
L 436.325846 352.636812 
L 449.028836 355.854672 
L 452.4163 356.40381 
L 455.803764 356.68522 
L 459.191228 356.729871 
L 465.11929 356.523665 
L 470.200486 356.389414 
L 473.58795 356.49121 
L 476.975414 356.848781 
L 480.362878 357.448826 
L 484.597207 358.423829 
L 495.606465 361.095457 
L 499.840795 361.796168 
L 504.921991 362.391383 
L 516.778115 363.686344 
L 521.012445 364.414658 
L 526.940507 365.685722 
L 543.030961 369.33745 
L 547.265291 370.022672 
L 550.652755 370.391229 
L 554.040219 370.558964 
L 557.427683 370.487884 
L 560.815146 370.146709 
L 565.896342 369.513491 
L 568.43694 369.458429 
L 570.130672 369.619751 
L 571.824404 369.991 
L 573.518136 370.616318 
L 575.211868 371.539848 
L 576.9056 372.805735 
L 578.599332 374.458122 
L 580.293064 376.541152 
L 581.986796 379.063365 
L 585.37426 384.768208 
L 587.914858 388.842842 
L 589.60859 391.089804 
L 590.455456 391.997984 
L 591.302322 392.729534 
L 592.149188 393.259634 
L 592.996054 393.563463 
L 593.84292 393.616198 
L 594.689786 393.39302 
L 595.536652 392.869106 
L 596.383518 392.019636 
L 597.230384 390.819788 
L 598.07725 389.244742 
L 598.924116 387.269675 
L 599.770982 384.869768 
L 600.617848 382.020198 
L 601.464714 378.696144 
L 602.31158 374.872786 
L 604.005312 365.628871 
L 605.699044 354.089883 
L 607.392776 340.057252 
L 609.086508 323.332409 
L 610.78024 303.716784 
L 612.473972 281.011809 
L 614.167704 255.018912 
L 615.861436 225.539526 
L 617.555168 192.37508 
L 619.2489 155.327005 
L 620.942632 114.196732 
L 622.636364 68.78569 
L 622.636364 68.78569 
" clip-path="url(#p5a6e51e17a)" style="fill: none; stroke: #bfbbd9; stroke-width: 1.5; stroke-linecap: square"/>
   </g>
   <g id="line2d_64">
    <path d="M 115.363636 305.196654 
L 117.057368 302.261557 
L 118.7511 299.89909 
L 120.444832 298.071472 
L 122.138564 296.740925 
L 123.832296 295.869668 
L 125.526028 295.419924 
L 127.21976 295.353912 
L 128.913492 295.633852 
L 130.607224 296.221967 
L 132.300956 297.080475 
L 133.994688 298.171599 
L 136.535286 300.161794 
L 139.075884 302.462865 
L 144.15708 307.487607 
L 147.544544 310.741197 
L 150.085142 312.915995 
L 151.778874 314.168645 
L 153.472606 315.219448 
L 155.166338 316.030623 
L 156.86007 316.564392 
L 158.553802 316.785036 
L 160.247534 316.696113 
L 161.941266 316.336412 
L 163.634998 315.745969 
L 165.32873 314.964821 
L 167.869328 313.523107 
L 172.103658 310.733908 
L 176.337988 308.003944 
L 178.878586 306.654634 
L 181.419183 305.652233 
L 183.959781 304.974458 
L 186.500379 304.571968 
L 189.040977 304.39542 
L 192.428441 304.426206 
L 196.662771 304.728011 
L 205.131431 305.414922 
L 211.906359 305.72492 
L 219.528153 305.842569 
L 227.996813 305.90572 
L 231.384277 306.196946 
L 233.924875 306.628983 
L 236.465473 307.301673 
L 239.006071 308.266815 
L 241.546669 309.576207 
L 244.087267 311.27031 
L 246.627865 313.290911 
L 250.015329 316.304429 
L 256.790256 322.453698 
L 259.330854 324.467292 
L 261.871452 326.151165 
L 263.565184 327.036556 
L 265.258916 327.709581 
L 266.952648 328.192519 
L 269.493246 328.623113 
L 272.033844 328.786988 
L 275.421308 328.757533 
L 281.34937 328.666834 
L 283.889968 328.863121 
L 286.430566 329.32622 
L 288.971164 330.02934 
L 292.358628 331.203517 
L 299.133556 333.657861 
L 301.674154 334.372158 
L 304.214752 334.850583 
L 305.908484 334.999355 
L 308.449082 334.949064 
L 310.98968 334.644835 
L 315.22401 333.825275 
L 320.305206 332.854924 
L 322.845804 332.59143 
L 325.386402 332.599333 
L 327.080134 332.801076 
L 328.773866 333.176567 
L 331.314463 334.017114 
L 333.855061 335.112609 
L 338.089391 337.267183 
L 343.170587 339.89573 
L 345.711185 341.023328 
L 348.251783 341.909821 
L 350.792381 342.503551 
L 353.332979 342.844192 
L 355.873577 342.985768 
L 359.261041 342.958254 
L 370.270299 342.634287 
L 373.657763 342.869995 
L 377.892093 343.426501 
L 382.126423 344.208792 
L 388.054485 345.550341 
L 406.685537 349.980086 
L 412.613598 351.092421 
L 419.388526 352.10368 
L 429.550918 353.611553 
L 434.632114 354.598706 
L 446.488238 357.108678 
L 449.875702 357.583302 
L 453.263166 357.827247 
L 456.65063 357.795917 
L 460.88496 357.481784 
L 469.35362 356.736588 
L 472.741084 356.693412 
L 475.281682 356.8566 
L 477.82228 357.210788 
L 481.209744 357.916842 
L 486.290939 359.272264 
L 493.065867 361.103664 
L 496.453331 361.803198 
L 499.840795 362.270931 
L 504.075125 362.612269 
L 518.471847 363.475968 
L 522.706177 364.102936 
L 526.940507 364.94491 
L 532.021703 366.193448 
L 537.949765 367.907673 
L 547.265291 370.718134 
L 550.652755 371.503751 
L 553.193353 371.923009 
L 555.733951 372.155056 
L 558.274548 372.162509 
L 560.815146 371.916238 
L 568.43694 370.808887 
L 570.130672 370.801168 
L 571.824404 370.986326 
L 573.518136 371.413379 
L 575.211868 372.131341 
L 576.9056 373.18923 
L 578.599332 374.636062 
L 580.293064 376.520852 
L 581.986796 378.85646 
L 584.527394 382.860222 
L 587.067992 386.87198 
L 588.761724 389.2218 
L 590.455456 391.081482 
L 591.302322 391.765809 
L 592.149188 392.253549 
L 592.996054 392.520016 
L 593.84292 392.540525 
L 594.689786 392.290392 
L 595.536652 391.744933 
L 596.383518 390.879462 
L 597.230384 389.669296 
L 598.07725 388.089749 
L 598.924116 386.116137 
L 599.770982 383.723776 
L 600.617848 380.887981 
L 601.464714 377.584066 
L 602.31158 373.787349 
L 604.005312 364.616766 
L 605.699044 353.178754 
L 607.392776 339.275838 
L 609.086508 322.71054 
L 610.78024 303.285383 
L 612.473972 280.802891 
L 614.167704 255.065587 
L 615.861436 225.875995 
L 617.555168 193.036637 
L 619.2489 156.350038 
L 620.942632 115.61872 
L 622.636364 70.645206 
L 622.636364 70.645206 
" clip-path="url(#p5a6e51e17a)" style="fill: none; stroke: #fa8174; stroke-width: 1.5; stroke-linecap: square"/>
   </g>
   <g id="line2d_65">
    <path d="M 115.363636 312.932816 
L 117.904234 310.633897 
L 120.444832 308.579335 
L 122.98543 306.746394 
L 126.372894 304.607924 
L 129.760358 302.769144 
L 133.147822 301.176166 
L 137.382152 299.448508 
L 143.310214 297.333161 
L 153.472606 293.762397 
L 157.706936 292.009004 
L 167.022462 287.883856 
L 169.56306 287.109078 
L 171.256792 286.767939 
L 172.950524 286.599299 
L 174.644256 286.630752 
L 176.337988 286.889894 
L 178.03172 287.40432 
L 179.725452 288.199401 
L 181.419183 289.261749 
L 183.112915 290.545048 
L 185.653513 292.780679 
L 189.887843 296.940549 
L 193.275307 300.232635 
L 195.815905 302.432169 
L 197.509637 303.681376 
L 199.203369 304.701609 
L 200.897101 305.448236 
L 202.590833 305.920257 
L 204.284565 306.151764 
L 205.978297 306.177843 
L 208.518895 305.908533 
L 211.059493 305.374369 
L 220.375019 303.063439 
L 222.915617 302.850772 
L 225.456215 302.95277 
L 227.996813 303.364442 
L 230.537411 304.080415 
L 233.078009 305.095317 
L 235.618607 306.403777 
L 238.159205 308.000422 
L 240.699803 309.879882 
L 243.240401 312.035579 
L 246.627865 315.245675 
L 254.249659 322.67315 
L 256.790256 324.837529 
L 259.330854 326.670661 
L 261.024586 327.656717 
L 262.718318 328.417542 
L 264.41205 328.925043 
L 266.105782 329.190167 
L 267.799514 329.250487 
L 270.340112 329.040271 
L 272.88071 328.583475 
L 280.502504 327.018999 
L 283.043102 326.861271 
L 284.736834 326.968192 
L 286.430566 327.270692 
L 288.971164 328.032938 
L 291.511762 329.068052 
L 295.746092 331.102224 
L 299.980422 333.0833 
L 302.52102 334.035584 
L 304.214752 334.504366 
L 305.908484 334.802511 
L 307.602216 334.915273 
L 310.142814 334.795458 
L 312.683412 334.424058 
L 317.764608 333.354751 
L 321.152072 332.743673 
L 323.69267 332.519225 
L 325.386402 332.540433 
L 327.080134 332.735235 
L 328.773866 333.118735 
L 331.314463 334.000523 
L 333.855061 335.173122 
L 337.242525 337.039174 
L 345.711185 341.944038 
L 348.251783 343.127681 
L 350.792381 344.056983 
L 353.332979 344.760553 
L 356.720443 345.419434 
L 360.954773 345.933004 
L 373.657763 347.195718 
L 382.973289 348.661442 
L 388.901351 349.487146 
L 393.982547 349.945719 
L 399.910609 350.226755 
L 414.30733 350.768496 
L 420.235392 351.29004 
L 425.316588 351.947001 
L 430.397784 352.82212 
L 435.47898 353.930611 
L 448.18197 356.866751 
L 451.569434 357.410111 
L 454.956898 357.745439 
L 459.191228 357.882564 
L 465.966156 357.78971 
L 471.047352 357.785888 
L 474.434816 357.958151 
L 477.82228 358.341749 
L 482.05661 359.069735 
L 487.984671 360.351916 
L 495.606465 361.999348 
L 500.687661 362.842755 
L 506.615723 363.592047 
L 523.553043 365.5719 
L 529.481105 366.579905 
L 534.562301 367.679698 
L 538.796631 368.799681 
L 548.959023 371.699301 
L 552.346487 372.342615 
L 554.887085 372.597847 
L 557.427683 372.603617 
L 559.96828 372.311696 
L 562.508878 371.754778 
L 567.590074 370.55192 
L 569.283806 370.327732 
L 570.977538 370.284265 
L 572.67127 370.476921 
L 574.365002 370.961103 
L 576.058734 371.792213 
L 577.752466 373.025654 
L 579.446198 374.716829 
L 581.13993 376.916942 
L 582.833662 379.558799 
L 588.761724 389.362613 
L 590.455456 391.472658 
L 591.302322 392.283677 
L 592.149188 392.897672 
L 592.996054 393.288877 
L 593.84292 393.431526 
L 594.689786 393.299854 
L 595.536652 392.868094 
L 596.383518 392.110481 
L 597.230384 391.001247 
L 598.07725 389.514629 
L 598.924116 387.624859 
L 599.770982 385.306171 
L 600.617848 382.5328 
L 601.464714 379.27898 
L 602.31158 375.518944 
L 604.005312 366.377163 
L 605.699044 354.901329 
L 607.392776 340.885314 
L 609.086508 324.122992 
L 610.78024 304.408234 
L 612.473972 281.534912 
L 614.167704 255.296899 
L 615.861436 225.488067 
L 617.555168 191.902289 
L 619.2489 154.333437 
L 620.942632 112.575383 
L 622.636364 66.422 
L 622.636364 66.422 
" clip-path="url(#p5a6e51e17a)" style="fill: none; stroke: #81b1d2; stroke-width: 1.5; stroke-linecap: square"/>
   </g>
   <g id="line2d_66">
    <path d="M 115.363636 295.857054 
L 117.057368 294.109445 
L 118.7511 292.782427 
L 120.444832 291.846285 
L 122.138564 291.271303 
L 123.832296 291.027765 
L 125.526028 291.085955 
L 127.21976 291.416157 
L 128.913492 291.988656 
L 130.607224 292.773735 
L 133.147822 294.284938 
L 135.68842 296.107295 
L 139.075884 298.84778 
L 146.697678 305.153129 
L 149.238276 306.94117 
L 151.778874 308.405188 
L 153.472606 309.151661 
L 155.166338 309.679834 
L 156.86007 309.959991 
L 158.553802 309.964138 
L 160.247534 309.697082 
L 161.941266 309.193052 
L 163.634998 308.48732 
L 166.175596 307.127688 
L 169.56306 304.938095 
L 176.337988 300.325346 
L 178.878586 298.879018 
L 181.419183 297.747214 
L 183.959781 296.934513 
L 186.500379 296.425817 
L 189.040977 296.206028 
L 191.581575 296.260048 
L 194.122173 296.57278 
L 196.662771 297.129126 
L 199.203369 297.913989 
L 201.743967 298.90991 
L 205.131431 300.494799 
L 210.212627 303.169572 
L 216.140689 306.2382 
L 219.528153 307.723349 
L 222.068751 308.61483 
L 225.456215 309.506037 
L 230.537411 310.513883 
L 234.771741 311.391181 
L 238.159205 312.339392 
L 240.699803 313.297809 
L 243.240401 314.540333 
L 245.780999 316.068605 
L 249.168463 318.417109 
L 259.330854 325.752669 
L 261.871452 327.223006 
L 264.41205 328.386154 
L 266.952648 329.219683 
L 269.493246 329.770188 
L 272.033844 330.088338 
L 275.421308 330.238675 
L 279.655638 330.155358 
L 287.277432 329.941267 
L 293.205494 330.072918 
L 304.214752 330.636611 
L 316.917742 331.346935 
L 320.305206 331.769522 
L 323.69267 332.399745 
L 327.080134 333.294737 
L 330.467598 334.476987 
L 334.701927 336.235908 
L 344.864319 340.640871 
L 348.251783 341.824603 
L 351.639247 342.738633 
L 355.026711 343.421792 
L 359.261041 344.037461 
L 366.035969 344.732901 
L 373.657763 345.559373 
L 381.279557 346.644876 
L 389.748217 348.090436 
L 407.532402 351.244447 
L 412.613598 351.87783 
L 420.235392 352.550538 
L 427.01032 353.229835 
L 431.24465 353.86869 
L 435.47898 354.767099 
L 442.253908 356.529954 
L 447.335104 357.786023 
L 450.722568 358.443065 
L 454.110032 358.86334 
L 457.497496 359.013284 
L 461.731826 358.94207 
L 471.047352 358.647535 
L 474.434816 358.791291 
L 477.82228 359.193696 
L 482.05661 359.96346 
L 491.372135 361.775389 
L 494.759599 362.159336 
L 497.300197 362.254616 
L 500.687661 362.135173 
L 504.921991 361.734999 
L 512.543785 360.931794 
L 515.931249 360.796287 
L 518.471847 360.873847 
L 521.859311 361.239048 
L 525.246775 361.876015 
L 528.634239 362.753796 
L 532.021703 363.841439 
L 536.256033 365.44896 
L 541.337229 367.64772 
L 547.265291 370.183524 
L 550.652755 371.371528 
L 553.193353 372.040378 
L 555.733951 372.459072 
L 558.274548 372.573847 
L 559.96828 372.455978 
L 562.508878 372.031385 
L 568.43694 370.855917 
L 570.130672 370.72626 
L 571.824404 370.791604 
L 573.518136 371.108325 
L 575.211868 371.732802 
L 576.9056 372.721412 
L 578.599332 374.130533 
L 580.293064 376.016543 
L 581.986796 378.397555 
L 584.527394 382.542047 
L 587.914858 388.064138 
L 589.60859 390.363459 
L 590.455456 391.308234 
L 591.302322 392.08234 
L 592.149188 392.660218 
L 592.996054 393.016311 
L 593.84292 393.12506 
L 594.689786 392.960905 
L 595.536652 392.49829 
L 596.383518 391.711654 
L 597.230384 390.57544 
L 598.07725 389.064089 
L 598.924116 387.152042 
L 599.770982 384.813741 
L 600.617848 382.023628 
L 601.464714 378.756144 
L 602.31158 374.98573 
L 604.005312 365.833878 
L 605.699044 354.363606 
L 607.392776 340.370444 
L 609.086508 323.649924 
L 610.78024 303.997579 
L 612.473972 281.208939 
L 614.167704 255.079537 
L 615.861436 225.404904 
L 617.555168 191.980572 
L 619.2489 154.602072 
L 620.942632 113.064937 
L 622.636364 67.164698 
L 622.636364 67.164698 
" clip-path="url(#p5a6e51e17a)" style="fill: none; stroke: #fdb462; stroke-width: 1.5; stroke-linecap: square"/>
   </g>
   <g id="patch_3">
    <path d="M 90 384.48 
L 90 51.84 
" style="fill: none; stroke: #ffffff; stroke-width: 0.8; stroke-linejoin: miter; stroke-linecap: square"/>
   </g>
   <g id="patch_4">
    <path d="M 648 384.48 
L 648 51.84 
" style="fill: none; stroke: #ffffff; stroke-width: 0.8; stroke-linejoin: miter; stroke-linecap: square"/>
   </g>
   <g id="patch_5">
    <path d="M 90 384.48 
L 648 384.48 
" style="fill: none; stroke: #ffffff; stroke-width: 0.8; stroke-linejoin: miter; stroke-linecap: square"/>
   </g>
   <g id="patch_6">
    <path d="M 90 51.84 
L 648 51.84 
" style="fill: none; stroke: #ffffff; stroke-width: 0.8; stroke-linejoin: miter; stroke-linecap: square"/>
   </g>
   <g id="text_33">
    <!-- caio.python_aio_asyncio - write (Time vs Chunk Size) -->
    <g style="fill: #ffffff" transform="translate(209.969063 45.84) scale(0.12 -0.12)">
     <defs>
      <path id="DejaVuSans-61" d="M 2194 1759 
Q 1497 1759 1228 1600 
Q 959 1441 959 1056 
Q 959 750 1161 570 
Q 1363 391 1709 391 
Q 2188 391 2477 730 
Q 2766 1069 2766 1631 
L 2766 1759 
L 2194 1759 
z
M 3341 1997 
L 3341 0 
L 2766 0 
L 2766 531 
Q 2569 213 2275 61 
Q 1981 -91 1556 -91 
Q 1019 -91 701 211 
Q 384 513 384 1019 
Q 384 1609 779 1909 
Q 1175 2209 1959 2209 
L 2766 2209 
L 2766 2266 
Q 2766 2663 2505 2880 
Q 2244 3097 1772 3097 
Q 1472 3097 1187 3025 
Q 903 2953 641 2809 
L 641 3341 
Q 956 3463 1253 3523 
Q 1550 3584 1831 3584 
Q 2591 3584 2966 3190 
Q 3341 2797 3341 1997 
z
" transform="scale(0.015625)"/>
      <path id="DejaVuSans-6f" d="M 1959 3097 
Q 1497 3097 1228 2736 
Q 959 2375 959 1747 
Q 959 1119 1226 758 
Q 1494 397 1959 397 
Q 2419 397 2687 759 
Q 2956 1122 2956 1747 
Q 2956 2369 2687 2733 
Q 2419 3097 1959 3097 
z
M 1959 3584 
Q 2709 3584 3137 3096 
Q 3566 2609 3566 1747 
Q 3566 888 3137 398 
Q 2709 -91 1959 -91 
Q 1206 -91 779 398 
Q 353 888 353 1747 
Q 353 2609 779 3096 
Q 1206 3584 1959 3584 
z
" transform="scale(0.015625)"/>
      <path id="DejaVuSans-2e" d="M 684 794 
L 1344 794 
L 1344 0 
L 684 0 
L 684 794 
z
" transform="scale(0.015625)"/>
      <path id="DejaVuSans-70" d="M 1159 525 
L 1159 -1331 
L 581 -1331 
L 581 3500 
L 1159 3500 
L 1159 2969 
Q 1341 3281 1617 3432 
Q 1894 3584 2278 3584 
Q 2916 3584 3314 3078 
Q 3713 2572 3713 1747 
Q 3713 922 3314 415 
Q 2916 -91 2278 -91 
Q 1894 -91 1617 61 
Q 1341 213 1159 525 
z
M 3116 1747 
Q 3116 2381 2855 2742 
Q 2594 3103 2138 3103 
Q 1681 3103 1420 2742 
Q 1159 2381 1159 1747 
Q 1159 1113 1420 752 
Q 1681 391 2138 391 
Q 2594 391 2855 752 
Q 3116 1113 3116 1747 
z
" transform="scale(0.015625)"/>
      <path id="DejaVuSans-79" d="M 2059 -325 
Q 1816 -950 1584 -1140 
Q 1353 -1331 966 -1331 
L 506 -1331 
L 506 -850 
L 844 -850 
Q 1081 -850 1212 -737 
Q 1344 -625 1503 -206 
L 1606 56 
L 191 3500 
L 800 3500 
L 1894 763 
L 2988 3500 
L 3597 3500 
L 2059 -325 
z
" transform="scale(0.015625)"/>
      <path id="DejaVuSans-2d" d="M 313 2009 
L 1997 2009 
L 1997 1497 
L 313 1497 
L 313 2009 
z
" transform="scale(0.015625)"/>
      <path id="DejaVuSans-77" d="M 269 3500 
L 844 3500 
L 1563 769 
L 2278 3500 
L 2956 3500 
L 3675 769 
L 4391 3500 
L 4966 3500 
L 4050 0 
L 3372 0 
L 2619 2869 
L 1863 0 
L 1184 0 
L 269 3500 
z
" transform="scale(0.015625)"/>
      <path id="DejaVuSans-72" d="M 2631 2963 
Q 2534 3019 2420 3045 
Q 2306 3072 2169 3072 
Q 1681 3072 1420 2755 
Q 1159 2438 1159 1844 
L 1159 0 
L 581 0 
L 581 3500 
L 1159 3500 
L 1159 2956 
Q 1341 3275 1631 3429 
Q 1922 3584 2338 3584 
Q 2397 3584 2469 3576 
Q 2541 3569 2628 3553 
L 2631 2963 
z
" transform="scale(0.015625)"/>
      <path id="DejaVuSans-54" d="M -19 4666 
L 3928 4666 
L 3928 4134 
L 2272 4134 
L 2272 0 
L 1638 0 
L 1638 4134 
L -19 4134 
L -19 4666 
z
" transform="scale(0.015625)"/>
      <path id="DejaVuSans-76" d="M 191 3500 
L 800 3500 
L 1894 563 
L 2988 3500 
L 3597 3500 
L 2284 0 
L 1503 0 
L 191 3500 
z
" transform="scale(0.015625)"/>
      <path id="DejaVuSans-43" d="M 4122 4306 
L 4122 3641 
Q 3803 3938 3442 4084 
Q 3081 4231 2675 4231 
Q 1875 4231 1450 3742 
Q 1025 3253 1025 2328 
Q 1025 1406 1450 917 
Q 1875 428 2675 428 
Q 3081 428 3442 575 
Q 3803 722 4122 1019 
L 4122 359 
Q 3791 134 3420 21 
Q 3050 -91 2638 -91 
Q 1578 -91 968 557 
Q 359 1206 359 2328 
Q 359 3453 968 4101 
Q 1578 4750 2638 4750 
Q 3056 4750 3426 4639 
Q 3797 4528 4122 4306 
z
" transform="scale(0.015625)"/>
      <path id="DejaVuSans-53" d="M 3425 4513 
L 3425 3897 
Q 3066 4069 2747 4153 
Q 2428 4238 2131 4238 
Q 1616 4238 1336 4038 
Q 1056 3838 1056 3469 
Q 1056 3159 1242 3001 
Q 1428 2844 1947 2747 
L 2328 2669 
Q 3034 2534 3370 2195 
Q 3706 1856 3706 1288 
Q 3706 609 3251 259 
Q 2797 -91 1919 -91 
Q 1588 -91 1214 -16 
Q 841 59 441 206 
L 441 856 
Q 825 641 1194 531 
Q 1563 422 1919 422 
Q 2459 422 2753 634 
Q 3047 847 3047 1241 
Q 3047 1584 2836 1778 
Q 2625 1972 2144 2069 
L 1759 2144 
Q 1053 2284 737 2584 
Q 422 2884 422 3419 
Q 422 4038 858 4394 
Q 1294 4750 2059 4750 
Q 2388 4750 2728 4690 
Q 3069 4631 3425 4513 
z
" transform="scale(0.015625)"/>
     </defs>
     <use xlink:href="#DejaVuSans-63"/>
     <use xlink:href="#DejaVuSans-61" x="54.980469"/>
     <use xlink:href="#DejaVuSans-69" x="116.259766"/>
     <use xlink:href="#DejaVuSans-6f" x="144.042969"/>
     <use xlink:href="#DejaVuSans-2e" x="203.474609"/>
     <use xlink:href="#DejaVuSans-70" x="235.261719"/>
     <use xlink:href="#DejaVuSans-79" x="298.738281"/>
     <use xlink:href="#DejaVuSans-74" x="357.917969"/>
     <use xlink:href="#DejaVuSans-68" x="397.126953"/>
     <use xlink:href="#DejaVuSans-6f" x="460.505859"/>
     <use xlink:href="#DejaVuSans-6e" x="521.6875"/>
     <use xlink:href="#DejaVuSans-5f" x="585.066406"/>
     <use xlink:href="#DejaVuSans-61" x="635.066406"/>
     <use xlink:href="#DejaVuSans-69" x="696.345703"/>
     <use xlink:href="#DejaVuSans-6f" x="724.128906"/>
     <use xlink:href="#DejaVuSans-5f" x="785.310547"/>
     <use xlink:href="#DejaVuSans-61" x="835.310547"/>
     <use xlink:href="#DejaVuSans-73" x="896.589844"/>
     <use xlink:href="#DejaVuSans-79" x="948.689453"/>
     <use xlink:href="#DejaVuSans-6e" x="1007.869141"/>
     <use xlink:href="#DejaVuSans-63" x="1071.248047"/>
     <use xlink:href="#DejaVuSans-69" x="1126.228516"/>
     <use xlink:href="#DejaVuSans-6f" x="1154.011719"/>
     <use xlink:href="#DejaVuSans-20" x="1215.193359"/>
     <use xlink:href="#DejaVuSans-2d" x="1246.980469"/>
     <use xlink:href="#DejaVuSans-20" x="1283.064453"/>
     <use xlink:href="#DejaVuSans-77" x="1314.851562"/>
     <use xlink:href="#DejaVuSans-72" x="1396.638672"/>
     <use xlink:href="#DejaVuSans-69" x="1437.751953"/>
     <use xlink:href="#DejaVuSans-74" x="1465.535156"/>
     <use xlink:href="#DejaVuSans-65" x="1504.744141"/>
     <use xlink:href="#DejaVuSans-20" x="1566.267578"/>
     <use xlink:href="#DejaVuSans-28" x="1598.054688"/>
     <use xlink:href="#DejaVuSans-54" x="1637.068359"/>
     <use xlink:href="#DejaVuSans-69" x="1695.027344"/>
     <use xlink:href="#DejaVuSans-6d" x="1722.810547"/>
     <use xlink:href="#DejaVuSans-65" x="1820.222656"/>
     <use xlink:href="#DejaVuSans-20" x="1881.746094"/>
     <use xlink:href="#DejaVuSans-76" x="1913.533203"/>
     <use xlink:href="#DejaVuSans-73" x="1972.712891"/>
     <use xlink:href="#DejaVuSans-20" x="2024.8125"/>
     <use xlink:href="#DejaVuSans-43" x="2056.599609"/>
     <use xlink:href="#DejaVuSans-68" x="2126.423828"/>
     <use xlink:href="#DejaVuSans-75" x="2189.802734"/>
     <use xlink:href="#DejaVuSans-6e" x="2253.181641"/>
     <use xlink:href="#DejaVuSans-6b" x="2316.560547"/>
     <use xlink:href="#DejaVuSans-20" x="2374.470703"/>
     <use xlink:href="#DejaVuSans-53" x="2406.257812"/>
     <use xlink:href="#DejaVuSans-69" x="2469.734375"/>
     <use xlink:href="#DejaVuSans-7a" x="2497.517578"/>
     <use xlink:href="#DejaVuSans-65" x="2550.007812"/>
     <use xlink:href="#DejaVuSans-29" x="2611.53125"/>
    </g>
   </g>
   <g id="legend_1">
    <g id="patch_7">
     <path d="M 97 149.5775 
L 194.56875 149.5775 
Q 196.56875 149.5775 196.56875 147.5775 
L 196.56875 58.84 
Q 196.56875 56.84 194.56875 56.84 
L 97 56.84 
Q 95 56.84 95 58.84 
L 95 147.5775 
Q 95 149.5775 97 149.5775 
z
" style="opacity: 0.8; stroke: #cccccc; stroke-linejoin: miter"/>
    </g>
    <g id="line2d_67">
     <path d="M 99 64.938437 
L 109 64.938437 
L 119 64.938437 
" style="fill: none; stroke: #8dd3c7; stroke-width: 1.5; stroke-linecap: square"/>
    </g>
    <g id="text_34">
     <!-- max_ops=1 -->
     <g style="fill: #ffffff" transform="translate(127 68.438437) scale(0.1 -0.1)">
      <defs>
       <path id="DejaVuSans-78" d="M 3513 3500 
L 2247 1797 
L 3578 0 
L 2900 0 
L 1881 1375 
L 863 0 
L 184 0 
L 1544 1831 
L 300 3500 
L 978 3500 
L 1906 2253 
L 2834 3500 
L 3513 3500 
z
" transform="scale(0.015625)"/>
       <path id="DejaVuSans-3d" d="M 678 2906 
L 4684 2906 
L 4684 2381 
L 678 2381 
L 678 2906 
z
M 678 1631 
L 4684 1631 
L 4684 1100 
L 678 1100 
L 678 1631 
z
" transform="scale(0.015625)"/>
      </defs>
      <use xlink:href="#DejaVuSans-6d"/>
      <use xlink:href="#DejaVuSans-61" x="97.412109"/>
      <use xlink:href="#DejaVuSans-78" x="158.691406"/>
      <use xlink:href="#DejaVuSans-5f" x="217.871094"/>
      <use xlink:href="#DejaVuSans-6f" x="267.871094"/>
      <use xlink:href="#DejaVuSans-70" x="329.052734"/>
      <use xlink:href="#DejaVuSans-73" x="392.529297"/>
      <use xlink:href="#DejaVuSans-3d" x="444.628906"/>
      <use xlink:href="#DejaVuSans-31" x="528.417969"/>
     </g>
    </g>
    <g id="line2d_68">
     <path d="M 99 79.894687 
L 109 79.894687 
L 119 79.894687 
" style="fill: none; stroke: #feffb3; stroke-width: 1.5; stroke-linecap: square"/>
    </g>
    <g id="text_35">
     <!-- max_ops=4 -->
     <g style="fill: #ffffff" transform="translate(127 83.394687) scale(0.1 -0.1)">
      <use xlink:href="#DejaVuSans-6d"/>
      <use xlink:href="#DejaVuSans-61" x="97.412109"/>
      <use xlink:href="#DejaVuSans-78" x="158.691406"/>
      <use xlink:href="#DejaVuSans-5f" x="217.871094"/>
      <use xlink:href="#DejaVuSans-6f" x="267.871094"/>
      <use xlink:href="#DejaVuSans-70" x="329.052734"/>
      <use xlink:href="#DejaVuSans-73" x="392.529297"/>
      <use xlink:href="#DejaVuSans-3d" x="444.628906"/>
      <use xlink:href="#DejaVuSans-34" x="528.417969"/>
     </g>
    </g>
    <g id="line2d_69">
     <path d="M 99 94.850937 
L 109 94.850937 
L 119 94.850937 
" style="fill: none; stroke: #bfbbd9; stroke-width: 1.5; stroke-linecap: square"/>
    </g>
    <g id="text_36">
     <!-- max_ops=8 -->
     <g style="fill: #ffffff" transform="translate(127 98.350937) scale(0.1 -0.1)">
      <use xlink:href="#DejaVuSans-6d"/>
      <use xlink:href="#DejaVuSans-61" x="97.412109"/>
      <use xlink:href="#DejaVuSans-78" x="158.691406"/>
      <use xlink:href="#DejaVuSans-5f" x="217.871094"/>
      <use xlink:href="#DejaVuSans-6f" x="267.871094"/>
      <use xlink:href="#DejaVuSans-70" x="329.052734"/>
      <use xlink:href="#DejaVuSans-73" x="392.529297"/>
      <use xlink:href="#DejaVuSans-3d" x="444.628906"/>
      <use xlink:href="#DejaVuSans-38" x="528.417969"/>
     </g>
    </g>
    <g id="line2d_70">
     <path d="M 99 109.807187 
L 109 109.807187 
L 119 109.807187 
" style="fill: none; stroke: #fa8174; stroke-width: 1.5; stroke-linecap: square"/>
    </g>
    <g id="text_37">
     <!-- max_ops=16 -->
     <g style="fill: #ffffff" transform="translate(127 113.307187) scale(0.1 -0.1)">
      <use xlink:href="#DejaVuSans-6d"/>
      <use xlink:href="#DejaVuSans-61" x="97.412109"/>
      <use xlink:href="#DejaVuSans-78" x="158.691406"/>
      <use xlink:href="#DejaVuSans-5f" x="217.871094"/>
      <use xlink:href="#DejaVuSans-6f" x="267.871094"/>
      <use xlink:href="#DejaVuSans-70" x="329.052734"/>
      <use xlink:href="#DejaVuSans-73" x="392.529297"/>
      <use xlink:href="#DejaVuSans-3d" x="444.628906"/>
      <use xlink:href="#DejaVuSans-31" x="528.417969"/>
      <use xlink:href="#DejaVuSans-36" x="592.041016"/>
     </g>
    </g>
    <g id="line2d_71">
     <path d="M 99 124.763437 
L 109 124.763437 
L 119 124.763437 
" style="fill: none; stroke: #81b1d2; stroke-width: 1.5; stroke-linecap: square"/>
    </g>
    <g id="text_38">
     <!-- max_ops=32 -->
     <g style="fill: #ffffff" transform="translate(127 128.263437) scale(0.1 -0.1)">
      <use xlink:href="#DejaVuSans-6d"/>
      <use xlink:href="#DejaVuSans-61" x="97.412109"/>
      <use xlink:href="#DejaVuSans-78" x="158.691406"/>
      <use xlink:href="#DejaVuSans-5f" x="217.871094"/>
      <use xlink:href="#DejaVuSans-6f" x="267.871094"/>
      <use xlink:href="#DejaVuSans-70" x="329.052734"/>
      <use xlink:href="#DejaVuSans-73" x="392.529297"/>
      <use xlink:href="#DejaVuSans-3d" x="444.628906"/>
      <use xlink:href="#DejaVuSans-33" x="528.417969"/>
      <use xlink:href="#DejaVuSans-32" x="592.041016"/>
     </g>
    </g>
    <g id="line2d_72">
     <path d="M 99 139.719687 
L 109 139.719687 
L 119 139.719687 
" style="fill: none; stroke: #fdb462; stroke-width: 1.5; stroke-linecap: square"/>
    </g>
    <g id="text_39">
     <!-- max_ops=64 -->
     <g style="fill: #ffffff" transform="translate(127 143.219687) scale(0.1 -0.1)">
      <use xlink:href="#DejaVuSans-6d"/>
      <use xlink:href="#DejaVuSans-61" x="97.412109"/>
      <use xlink:href="#DejaVuSans-78" x="158.691406"/>
      <use xlink:href="#DejaVuSans-5f" x="217.871094"/>
      <use xlink:href="#DejaVuSans-6f" x="267.871094"/>
      <use xlink:href="#DejaVuSans-70" x="329.052734"/>
      <use xlink:href="#DejaVuSans-73" x="392.529297"/>
      <use xlink:href="#DejaVuSans-3d" x="444.628906"/>
      <use xlink:href="#DejaVuSans-36" x="528.417969"/>
      <use xlink:href="#DejaVuSans-34" x="592.041016"/>
     </g>
    </g>
   </g>
  </g>
 </g>
 <defs>
  <clipPath id="p5a6e51e17a">
   <rect x="90" y="51.84" width="558" height="332.64"/>
  </clipPath>
 </defs>
</svg>
