<?xml version="1.0" encoding="utf-8" standalone="no"?>
<!DOCTYPE svg PUBLIC "-//W3C//DTD SVG 1.1//EN"
  "http://www.w3.org/Graphics/SVG/1.1/DTD/svg11.dtd">
<svg xmlns:xlink="http://www.w3.org/1999/xlink" width="720pt" height="432pt" viewBox="0 0 720 432" xmlns="http://www.w3.org/2000/svg" version="1.1">
 <metadata>
  <rdf:RDF xmlns:dc="http://purl.org/dc/elements/1.1/" xmlns:cc="http://creativecommons.org/ns#" xmlns:rdf="http://www.w3.org/1999/02/22-rdf-syntax-ns#">
   <cc:Work>
    <dc:type rdf:resource="http://purl.org/dc/dcmitype/StillImage"/>
    <dc:date>2024-01-19T16:09:12.375478</dc:date>
    <dc:format>image/svg+xml</dc:format>
    <dc:creator>
     <cc:Agent>
      <dc:title>Matplotlib v3.8.2, https://matplotlib.org/</dc:title>
     </cc:Agent>
    </dc:creator>
   </cc:Work>
  </rdf:RDF>
 </metadata>
 <defs>
  <style type="text/css">*{stroke-linejoin: round; stroke-linecap: butt}</style>
 </defs>
 <g id="figure_1">
  <g id="patch_1">
   <path d="M 0 432 
L 720 432 
L 720 0 
L 0 0 
z
"/>
  </g>
  <g id="axes_1">
   <g id="patch_2">
    <path d="M 90 384.48 
L 648 384.48 
L 648 51.84 
L 90 51.84 
z
"/>
   </g>
   <g id="matplotlib.axis_1">
    <g id="xtick_1">
     <g id="line2d_1">
      <path d="M 115.363636 384.48 
L 115.363636 51.84 
" clip-path="url(#p5956806690)" style="fill: none; stroke: #ffffff; stroke-width: 0.8; stroke-linecap: square"/>
     </g>
     <g id="line2d_2">
      <defs>
       <path id="m1ccf75ac9d" d="M 0 0 
L 0 3.5 
" style="stroke: #ffffff; stroke-width: 0.8"/>
      </defs>
      <g>
       <use xlink:href="#m1ccf75ac9d" x="115.363636" y="384.48" style="fill: #ffffff; stroke: #ffffff; stroke-width: 0.8"/>
      </g>
     </g>
     <g id="text_1">
      <!-- 1 -->
      <g style="fill: #ffffff" transform="translate(115.065326 401.351874) rotate(-45) scale(0.1 -0.1)">
       <defs>
        <path id="DejaVuSans-31" d="M 794 531 
L 1825 531 
L 1825 4091 
L 703 3866 
L 703 4441 
L 1819 4666 
L 2450 4666 
L 2450 531 
L 3481 531 
L 3481 0 
L 794 0 
L 794 531 
z
" transform="scale(0.015625)"/>
       </defs>
       <use xlink:href="#DejaVuSans-31"/>
      </g>
     </g>
    </g>
    <g id="xtick_2">
     <g id="line2d_3">
      <path d="M 136.5 384.48 
L 136.5 51.84 
" clip-path="url(#p5956806690)" style="fill: none; stroke: #ffffff; stroke-width: 0.8; stroke-linecap: square"/>
     </g>
     <g id="line2d_4">
      <g>
       <use xlink:href="#m1ccf75ac9d" x="136.5" y="384.48" style="fill: #ffffff; stroke: #ffffff; stroke-width: 0.8"/>
      </g>
     </g>
     <g id="text_2">
      <!-- 201 -->
      <g style="fill: #ffffff" transform="translate(131.702722 410.349807) rotate(-45) scale(0.1 -0.1)">
       <defs>
        <path id="DejaVuSans-32" d="M 1228 531 
L 3431 531 
L 3431 0 
L 469 0 
L 469 531 
Q 828 903 1448 1529 
Q 2069 2156 2228 2338 
Q 2531 2678 2651 2914 
Q 2772 3150 2772 3378 
Q 2772 3750 2511 3984 
Q 2250 4219 1831 4219 
Q 1534 4219 1204 4116 
Q 875 4013 500 3803 
L 500 4441 
Q 881 4594 1212 4672 
Q 1544 4750 1819 4750 
Q 2544 4750 2975 4387 
Q 3406 4025 3406 3419 
Q 3406 3131 3298 2873 
Q 3191 2616 2906 2266 
Q 2828 2175 2409 1742 
Q 1991 1309 1228 531 
z
" transform="scale(0.015625)"/>
        <path id="DejaVuSans-30" d="M 2034 4250 
Q 1547 4250 1301 3770 
Q 1056 3291 1056 2328 
Q 1056 1369 1301 889 
Q 1547 409 2034 409 
Q 2525 409 2770 889 
Q 3016 1369 3016 2328 
Q 3016 3291 2770 3770 
Q 2525 4250 2034 4250 
z
M 2034 4750 
Q 2819 4750 3233 4129 
Q 3647 3509 3647 2328 
Q 3647 1150 3233 529 
Q 2819 -91 2034 -91 
Q 1250 -91 836 529 
Q 422 1150 422 2328 
Q 422 3509 836 4129 
Q 1250 4750 2034 4750 
z
" transform="scale(0.015625)"/>
       </defs>
       <use xlink:href="#DejaVuSans-32"/>
       <use xlink:href="#DejaVuSans-30" x="63.623047"/>
       <use xlink:href="#DejaVuSans-31" x="127.246094"/>
      </g>
     </g>
    </g>
    <g id="xtick_3">
     <g id="line2d_5">
      <path d="M 157.636364 384.48 
L 157.636364 51.84 
" clip-path="url(#p5956806690)" style="fill: none; stroke: #ffffff; stroke-width: 0.8; stroke-linecap: square"/>
     </g>
     <g id="line2d_6">
      <g>
       <use xlink:href="#m1ccf75ac9d" x="157.636364" y="384.48" style="fill: #ffffff; stroke: #ffffff; stroke-width: 0.8"/>
      </g>
     </g>
     <g id="text_3">
      <!-- 401 -->
      <g style="fill: #ffffff" transform="translate(152.839086 410.349807) rotate(-45) scale(0.1 -0.1)">
       <defs>
        <path id="DejaVuSans-34" d="M 2419 4116 
L 825 1625 
L 2419 1625 
L 2419 4116 
z
M 2253 4666 
L 3047 4666 
L 3047 1625 
L 3713 1625 
L 3713 1100 
L 3047 1100 
L 3047 0 
L 2419 0 
L 2419 1100 
L 313 1100 
L 313 1709 
L 2253 4666 
z
" transform="scale(0.015625)"/>
       </defs>
       <use xlink:href="#DejaVuSans-34"/>
       <use xlink:href="#DejaVuSans-30" x="63.623047"/>
       <use xlink:href="#DejaVuSans-31" x="127.246094"/>
      </g>
     </g>
    </g>
    <g id="xtick_4">
     <g id="line2d_7">
      <path d="M 178.772727 384.48 
L 178.772727 51.84 
" clip-path="url(#p5956806690)" style="fill: none; stroke: #ffffff; stroke-width: 0.8; stroke-linecap: square"/>
     </g>
     <g id="line2d_8">
      <g>
       <use xlink:href="#m1ccf75ac9d" x="178.772727" y="384.48" style="fill: #ffffff; stroke: #ffffff; stroke-width: 0.8"/>
      </g>
     </g>
     <g id="text_4">
      <!-- 601 -->
      <g style="fill: #ffffff" transform="translate(173.97545 410.349807) rotate(-45) scale(0.1 -0.1)">
       <defs>
        <path id="DejaVuSans-36" d="M 2113 2584 
Q 1688 2584 1439 2293 
Q 1191 2003 1191 1497 
Q 1191 994 1439 701 
Q 1688 409 2113 409 
Q 2538 409 2786 701 
Q 3034 994 3034 1497 
Q 3034 2003 2786 2293 
Q 2538 2584 2113 2584 
z
M 3366 4563 
L 3366 3988 
Q 3128 4100 2886 4159 
Q 2644 4219 2406 4219 
Q 1781 4219 1451 3797 
Q 1122 3375 1075 2522 
Q 1259 2794 1537 2939 
Q 1816 3084 2150 3084 
Q 2853 3084 3261 2657 
Q 3669 2231 3669 1497 
Q 3669 778 3244 343 
Q 2819 -91 2113 -91 
Q 1303 -91 875 529 
Q 447 1150 447 2328 
Q 447 3434 972 4092 
Q 1497 4750 2381 4750 
Q 2619 4750 2861 4703 
Q 3103 4656 3366 4563 
z
" transform="scale(0.015625)"/>
       </defs>
       <use xlink:href="#DejaVuSans-36"/>
       <use xlink:href="#DejaVuSans-30" x="63.623047"/>
       <use xlink:href="#DejaVuSans-31" x="127.246094"/>
      </g>
     </g>
    </g>
    <g id="xtick_5">
     <g id="line2d_9">
      <path d="M 199.909091 384.48 
L 199.909091 51.84 
" clip-path="url(#p5956806690)" style="fill: none; stroke: #ffffff; stroke-width: 0.8; stroke-linecap: square"/>
     </g>
     <g id="line2d_10">
      <g>
       <use xlink:href="#m1ccf75ac9d" x="199.909091" y="384.48" style="fill: #ffffff; stroke: #ffffff; stroke-width: 0.8"/>
      </g>
     </g>
     <g id="text_5">
      <!-- 801 -->
      <g style="fill: #ffffff" transform="translate(195.111813 410.349807) rotate(-45) scale(0.1 -0.1)">
       <defs>
        <path id="DejaVuSans-38" d="M 2034 2216 
Q 1584 2216 1326 1975 
Q 1069 1734 1069 1313 
Q 1069 891 1326 650 
Q 1584 409 2034 409 
Q 2484 409 2743 651 
Q 3003 894 3003 1313 
Q 3003 1734 2745 1975 
Q 2488 2216 2034 2216 
z
M 1403 2484 
Q 997 2584 770 2862 
Q 544 3141 544 3541 
Q 544 4100 942 4425 
Q 1341 4750 2034 4750 
Q 2731 4750 3128 4425 
Q 3525 4100 3525 3541 
Q 3525 3141 3298 2862 
Q 3072 2584 2669 2484 
Q 3125 2378 3379 2068 
Q 3634 1759 3634 1313 
Q 3634 634 3220 271 
Q 2806 -91 2034 -91 
Q 1263 -91 848 271 
Q 434 634 434 1313 
Q 434 1759 690 2068 
Q 947 2378 1403 2484 
z
M 1172 3481 
Q 1172 3119 1398 2916 
Q 1625 2713 2034 2713 
Q 2441 2713 2670 2916 
Q 2900 3119 2900 3481 
Q 2900 3844 2670 4047 
Q 2441 4250 2034 4250 
Q 1625 4250 1398 4047 
Q 1172 3844 1172 3481 
z
" transform="scale(0.015625)"/>
       </defs>
       <use xlink:href="#DejaVuSans-38"/>
       <use xlink:href="#DejaVuSans-30" x="63.623047"/>
       <use xlink:href="#DejaVuSans-31" x="127.246094"/>
      </g>
     </g>
    </g>
    <g id="xtick_6">
     <g id="line2d_11">
      <path d="M 221.045455 384.48 
L 221.045455 51.84 
" clip-path="url(#p5956806690)" style="fill: none; stroke: #ffffff; stroke-width: 0.8; stroke-linecap: square"/>
     </g>
     <g id="line2d_12">
      <g>
       <use xlink:href="#m1ccf75ac9d" x="221.045455" y="384.48" style="fill: #ffffff; stroke: #ffffff; stroke-width: 0.8"/>
      </g>
     </g>
     <g id="text_6">
      <!-- 1001 -->
      <g style="fill: #ffffff" transform="translate(213.998694 414.848774) rotate(-45) scale(0.1 -0.1)">
       <use xlink:href="#DejaVuSans-31"/>
       <use xlink:href="#DejaVuSans-30" x="63.623047"/>
       <use xlink:href="#DejaVuSans-30" x="127.246094"/>
       <use xlink:href="#DejaVuSans-31" x="190.869141"/>
      </g>
     </g>
    </g>
    <g id="xtick_7">
     <g id="line2d_13">
      <path d="M 242.181818 384.48 
L 242.181818 51.84 
" clip-path="url(#p5956806690)" style="fill: none; stroke: #ffffff; stroke-width: 0.8; stroke-linecap: square"/>
     </g>
     <g id="line2d_14">
      <g>
       <use xlink:href="#m1ccf75ac9d" x="242.181818" y="384.48" style="fill: #ffffff; stroke: #ffffff; stroke-width: 0.8"/>
      </g>
     </g>
     <g id="text_7">
      <!-- 1201 -->
      <g style="fill: #ffffff" transform="translate(235.135057 414.848774) rotate(-45) scale(0.1 -0.1)">
       <use xlink:href="#DejaVuSans-31"/>
       <use xlink:href="#DejaVuSans-32" x="63.623047"/>
       <use xlink:href="#DejaVuSans-30" x="127.246094"/>
       <use xlink:href="#DejaVuSans-31" x="190.869141"/>
      </g>
     </g>
    </g>
    <g id="xtick_8">
     <g id="line2d_15">
      <path d="M 263.318182 384.48 
L 263.318182 51.84 
" clip-path="url(#p5956806690)" style="fill: none; stroke: #ffffff; stroke-width: 0.8; stroke-linecap: square"/>
     </g>
     <g id="line2d_16">
      <g>
       <use xlink:href="#m1ccf75ac9d" x="263.318182" y="384.48" style="fill: #ffffff; stroke: #ffffff; stroke-width: 0.8"/>
      </g>
     </g>
     <g id="text_8">
      <!-- 1401 -->
      <g style="fill: #ffffff" transform="translate(256.271421 414.848774) rotate(-45) scale(0.1 -0.1)">
       <use xlink:href="#DejaVuSans-31"/>
       <use xlink:href="#DejaVuSans-34" x="63.623047"/>
       <use xlink:href="#DejaVuSans-30" x="127.246094"/>
       <use xlink:href="#DejaVuSans-31" x="190.869141"/>
      </g>
     </g>
    </g>
    <g id="xtick_9">
     <g id="line2d_17">
      <path d="M 284.454545 384.48 
L 284.454545 51.84 
" clip-path="url(#p5956806690)" style="fill: none; stroke: #ffffff; stroke-width: 0.8; stroke-linecap: square"/>
     </g>
     <g id="line2d_18">
      <g>
       <use xlink:href="#m1ccf75ac9d" x="284.454545" y="384.48" style="fill: #ffffff; stroke: #ffffff; stroke-width: 0.8"/>
      </g>
     </g>
     <g id="text_9">
      <!-- 1601 -->
      <g style="fill: #ffffff" transform="translate(277.407784 414.848774) rotate(-45) scale(0.1 -0.1)">
       <use xlink:href="#DejaVuSans-31"/>
       <use xlink:href="#DejaVuSans-36" x="63.623047"/>
       <use xlink:href="#DejaVuSans-30" x="127.246094"/>
       <use xlink:href="#DejaVuSans-31" x="190.869141"/>
      </g>
     </g>
    </g>
    <g id="xtick_10">
     <g id="line2d_19">
      <path d="M 305.590909 384.48 
L 305.590909 51.84 
" clip-path="url(#p5956806690)" style="fill: none; stroke: #ffffff; stroke-width: 0.8; stroke-linecap: square"/>
     </g>
     <g id="line2d_20">
      <g>
       <use xlink:href="#m1ccf75ac9d" x="305.590909" y="384.48" style="fill: #ffffff; stroke: #ffffff; stroke-width: 0.8"/>
      </g>
     </g>
     <g id="text_10">
      <!-- 1801 -->
      <g style="fill: #ffffff" transform="translate(298.544148 414.848774) rotate(-45) scale(0.1 -0.1)">
       <use xlink:href="#DejaVuSans-31"/>
       <use xlink:href="#DejaVuSans-38" x="63.623047"/>
       <use xlink:href="#DejaVuSans-30" x="127.246094"/>
       <use xlink:href="#DejaVuSans-31" x="190.869141"/>
      </g>
     </g>
    </g>
    <g id="xtick_11">
     <g id="line2d_21">
      <path d="M 326.727273 384.48 
L 326.727273 51.84 
" clip-path="url(#p5956806690)" style="fill: none; stroke: #ffffff; stroke-width: 0.8; stroke-linecap: square"/>
     </g>
     <g id="line2d_22">
      <g>
       <use xlink:href="#m1ccf75ac9d" x="326.727273" y="384.48" style="fill: #ffffff; stroke: #ffffff; stroke-width: 0.8"/>
      </g>
     </g>
     <g id="text_11">
      <!-- 2001 -->
      <g style="fill: #ffffff" transform="translate(319.680512 414.848774) rotate(-45) scale(0.1 -0.1)">
       <use xlink:href="#DejaVuSans-32"/>
       <use xlink:href="#DejaVuSans-30" x="63.623047"/>
       <use xlink:href="#DejaVuSans-30" x="127.246094"/>
       <use xlink:href="#DejaVuSans-31" x="190.869141"/>
      </g>
     </g>
    </g>
    <g id="xtick_12">
     <g id="line2d_23">
      <path d="M 347.863636 384.48 
L 347.863636 51.84 
" clip-path="url(#p5956806690)" style="fill: none; stroke: #ffffff; stroke-width: 0.8; stroke-linecap: square"/>
     </g>
     <g id="line2d_24">
      <g>
       <use xlink:href="#m1ccf75ac9d" x="347.863636" y="384.48" style="fill: #ffffff; stroke: #ffffff; stroke-width: 0.8"/>
      </g>
     </g>
     <g id="text_12">
      <!-- 2201 -->
      <g style="fill: #ffffff" transform="translate(340.816875 414.848774) rotate(-45) scale(0.1 -0.1)">
       <use xlink:href="#DejaVuSans-32"/>
       <use xlink:href="#DejaVuSans-32" x="63.623047"/>
       <use xlink:href="#DejaVuSans-30" x="127.246094"/>
       <use xlink:href="#DejaVuSans-31" x="190.869141"/>
      </g>
     </g>
    </g>
    <g id="xtick_13">
     <g id="line2d_25">
      <path d="M 369 384.48 
L 369 51.84 
" clip-path="url(#p5956806690)" style="fill: none; stroke: #ffffff; stroke-width: 0.8; stroke-linecap: square"/>
     </g>
     <g id="line2d_26">
      <g>
       <use xlink:href="#m1ccf75ac9d" x="369" y="384.48" style="fill: #ffffff; stroke: #ffffff; stroke-width: 0.8"/>
      </g>
     </g>
     <g id="text_13">
      <!-- 2401 -->
      <g style="fill: #ffffff" transform="translate(361.953239 414.848774) rotate(-45) scale(0.1 -0.1)">
       <use xlink:href="#DejaVuSans-32"/>
       <use xlink:href="#DejaVuSans-34" x="63.623047"/>
       <use xlink:href="#DejaVuSans-30" x="127.246094"/>
       <use xlink:href="#DejaVuSans-31" x="190.869141"/>
      </g>
     </g>
    </g>
    <g id="xtick_14">
     <g id="line2d_27">
      <path d="M 390.136364 384.48 
L 390.136364 51.84 
" clip-path="url(#p5956806690)" style="fill: none; stroke: #ffffff; stroke-width: 0.8; stroke-linecap: square"/>
     </g>
     <g id="line2d_28">
      <g>
       <use xlink:href="#m1ccf75ac9d" x="390.136364" y="384.48" style="fill: #ffffff; stroke: #ffffff; stroke-width: 0.8"/>
      </g>
     </g>
     <g id="text_14">
      <!-- 2601 -->
      <g style="fill: #ffffff" transform="translate(383.089603 414.848774) rotate(-45) scale(0.1 -0.1)">
       <use xlink:href="#DejaVuSans-32"/>
       <use xlink:href="#DejaVuSans-36" x="63.623047"/>
       <use xlink:href="#DejaVuSans-30" x="127.246094"/>
       <use xlink:href="#DejaVuSans-31" x="190.869141"/>
      </g>
     </g>
    </g>
    <g id="xtick_15">
     <g id="line2d_29">
      <path d="M 411.272727 384.48 
L 411.272727 51.84 
" clip-path="url(#p5956806690)" style="fill: none; stroke: #ffffff; stroke-width: 0.8; stroke-linecap: square"/>
     </g>
     <g id="line2d_30">
      <g>
       <use xlink:href="#m1ccf75ac9d" x="411.272727" y="384.48" style="fill: #ffffff; stroke: #ffffff; stroke-width: 0.8"/>
      </g>
     </g>
     <g id="text_15">
      <!-- 2801 -->
      <g style="fill: #ffffff" transform="translate(404.225966 414.848774) rotate(-45) scale(0.1 -0.1)">
       <use xlink:href="#DejaVuSans-32"/>
       <use xlink:href="#DejaVuSans-38" x="63.623047"/>
       <use xlink:href="#DejaVuSans-30" x="127.246094"/>
       <use xlink:href="#DejaVuSans-31" x="190.869141"/>
      </g>
     </g>
    </g>
    <g id="xtick_16">
     <g id="line2d_31">
      <path d="M 432.409091 384.48 
L 432.409091 51.84 
" clip-path="url(#p5956806690)" style="fill: none; stroke: #ffffff; stroke-width: 0.8; stroke-linecap: square"/>
     </g>
     <g id="line2d_32">
      <g>
       <use xlink:href="#m1ccf75ac9d" x="432.409091" y="384.48" style="fill: #ffffff; stroke: #ffffff; stroke-width: 0.8"/>
      </g>
     </g>
     <g id="text_16">
      <!-- 3001 -->
      <g style="fill: #ffffff" transform="translate(425.36233 414.848774) rotate(-45) scale(0.1 -0.1)">
       <defs>
        <path id="DejaVuSans-33" d="M 2597 2516 
Q 3050 2419 3304 2112 
Q 3559 1806 3559 1356 
Q 3559 666 3084 287 
Q 2609 -91 1734 -91 
Q 1441 -91 1130 -33 
Q 819 25 488 141 
L 488 750 
Q 750 597 1062 519 
Q 1375 441 1716 441 
Q 2309 441 2620 675 
Q 2931 909 2931 1356 
Q 2931 1769 2642 2001 
Q 2353 2234 1838 2234 
L 1294 2234 
L 1294 2753 
L 1863 2753 
Q 2328 2753 2575 2939 
Q 2822 3125 2822 3475 
Q 2822 3834 2567 4026 
Q 2313 4219 1838 4219 
Q 1578 4219 1281 4162 
Q 984 4106 628 3988 
L 628 4550 
Q 988 4650 1302 4700 
Q 1616 4750 1894 4750 
Q 2613 4750 3031 4423 
Q 3450 4097 3450 3541 
Q 3450 3153 3228 2886 
Q 3006 2619 2597 2516 
z
" transform="scale(0.015625)"/>
       </defs>
       <use xlink:href="#DejaVuSans-33"/>
       <use xlink:href="#DejaVuSans-30" x="63.623047"/>
       <use xlink:href="#DejaVuSans-30" x="127.246094"/>
       <use xlink:href="#DejaVuSans-31" x="190.869141"/>
      </g>
     </g>
    </g>
    <g id="xtick_17">
     <g id="line2d_33">
      <path d="M 453.545455 384.48 
L 453.545455 51.84 
" clip-path="url(#p5956806690)" style="fill: none; stroke: #ffffff; stroke-width: 0.8; stroke-linecap: square"/>
     </g>
     <g id="line2d_34">
      <g>
       <use xlink:href="#m1ccf75ac9d" x="453.545455" y="384.48" style="fill: #ffffff; stroke: #ffffff; stroke-width: 0.8"/>
      </g>
     </g>
     <g id="text_17">
      <!-- 3201 -->
      <g style="fill: #ffffff" transform="translate(446.498694 414.848774) rotate(-45) scale(0.1 -0.1)">
       <use xlink:href="#DejaVuSans-33"/>
       <use xlink:href="#DejaVuSans-32" x="63.623047"/>
       <use xlink:href="#DejaVuSans-30" x="127.246094"/>
       <use xlink:href="#DejaVuSans-31" x="190.869141"/>
      </g>
     </g>
    </g>
    <g id="xtick_18">
     <g id="line2d_35">
      <path d="M 474.681818 384.48 
L 474.681818 51.84 
" clip-path="url(#p5956806690)" style="fill: none; stroke: #ffffff; stroke-width: 0.8; stroke-linecap: square"/>
     </g>
     <g id="line2d_36">
      <g>
       <use xlink:href="#m1ccf75ac9d" x="474.681818" y="384.48" style="fill: #ffffff; stroke: #ffffff; stroke-width: 0.8"/>
      </g>
     </g>
     <g id="text_18">
      <!-- 3401 -->
      <g style="fill: #ffffff" transform="translate(467.635057 414.848774) rotate(-45) scale(0.1 -0.1)">
       <use xlink:href="#DejaVuSans-33"/>
       <use xlink:href="#DejaVuSans-34" x="63.623047"/>
       <use xlink:href="#DejaVuSans-30" x="127.246094"/>
       <use xlink:href="#DejaVuSans-31" x="190.869141"/>
      </g>
     </g>
    </g>
    <g id="xtick_19">
     <g id="line2d_37">
      <path d="M 495.818182 384.48 
L 495.818182 51.84 
" clip-path="url(#p5956806690)" style="fill: none; stroke: #ffffff; stroke-width: 0.8; stroke-linecap: square"/>
     </g>
     <g id="line2d_38">
      <g>
       <use xlink:href="#m1ccf75ac9d" x="495.818182" y="384.48" style="fill: #ffffff; stroke: #ffffff; stroke-width: 0.8"/>
      </g>
     </g>
     <g id="text_19">
      <!-- 3601 -->
      <g style="fill: #ffffff" transform="translate(488.771421 414.848774) rotate(-45) scale(0.1 -0.1)">
       <use xlink:href="#DejaVuSans-33"/>
       <use xlink:href="#DejaVuSans-36" x="63.623047"/>
       <use xlink:href="#DejaVuSans-30" x="127.246094"/>
       <use xlink:href="#DejaVuSans-31" x="190.869141"/>
      </g>
     </g>
    </g>
    <g id="xtick_20">
     <g id="line2d_39">
      <path d="M 516.954545 384.48 
L 516.954545 51.84 
" clip-path="url(#p5956806690)" style="fill: none; stroke: #ffffff; stroke-width: 0.8; stroke-linecap: square"/>
     </g>
     <g id="line2d_40">
      <g>
       <use xlink:href="#m1ccf75ac9d" x="516.954545" y="384.48" style="fill: #ffffff; stroke: #ffffff; stroke-width: 0.8"/>
      </g>
     </g>
     <g id="text_20">
      <!-- 3801 -->
      <g style="fill: #ffffff" transform="translate(509.907784 414.848774) rotate(-45) scale(0.1 -0.1)">
       <use xlink:href="#DejaVuSans-33"/>
       <use xlink:href="#DejaVuSans-38" x="63.623047"/>
       <use xlink:href="#DejaVuSans-30" x="127.246094"/>
       <use xlink:href="#DejaVuSans-31" x="190.869141"/>
      </g>
     </g>
    </g>
    <g id="xtick_21">
     <g id="line2d_41">
      <path d="M 538.090909 384.48 
L 538.090909 51.84 
" clip-path="url(#p5956806690)" style="fill: none; stroke: #ffffff; stroke-width: 0.8; stroke-linecap: square"/>
     </g>
     <g id="line2d_42">
      <g>
       <use xlink:href="#m1ccf75ac9d" x="538.090909" y="384.48" style="fill: #ffffff; stroke: #ffffff; stroke-width: 0.8"/>
      </g>
     </g>
     <g id="text_21">
      <!-- 4001 -->
      <g style="fill: #ffffff" transform="translate(531.044148 414.848774) rotate(-45) scale(0.1 -0.1)">
       <use xlink:href="#DejaVuSans-34"/>
       <use xlink:href="#DejaVuSans-30" x="63.623047"/>
       <use xlink:href="#DejaVuSans-30" x="127.246094"/>
       <use xlink:href="#DejaVuSans-31" x="190.869141"/>
      </g>
     </g>
    </g>
    <g id="xtick_22">
     <g id="line2d_43">
      <path d="M 559.227273 384.48 
L 559.227273 51.84 
" clip-path="url(#p5956806690)" style="fill: none; stroke: #ffffff; stroke-width: 0.8; stroke-linecap: square"/>
     </g>
     <g id="line2d_44">
      <g>
       <use xlink:href="#m1ccf75ac9d" x="559.227273" y="384.48" style="fill: #ffffff; stroke: #ffffff; stroke-width: 0.8"/>
      </g>
     </g>
     <g id="text_22">
      <!-- 4201 -->
      <g style="fill: #ffffff" transform="translate(552.180512 414.848774) rotate(-45) scale(0.1 -0.1)">
       <use xlink:href="#DejaVuSans-34"/>
       <use xlink:href="#DejaVuSans-32" x="63.623047"/>
       <use xlink:href="#DejaVuSans-30" x="127.246094"/>
       <use xlink:href="#DejaVuSans-31" x="190.869141"/>
      </g>
     </g>
    </g>
    <g id="xtick_23">
     <g id="line2d_45">
      <path d="M 580.363636 384.48 
L 580.363636 51.84 
" clip-path="url(#p5956806690)" style="fill: none; stroke: #ffffff; stroke-width: 0.8; stroke-linecap: square"/>
     </g>
     <g id="line2d_46">
      <g>
       <use xlink:href="#m1ccf75ac9d" x="580.363636" y="384.48" style="fill: #ffffff; stroke: #ffffff; stroke-width: 0.8"/>
      </g>
     </g>
     <g id="text_23">
      <!-- 4401 -->
      <g style="fill: #ffffff" transform="translate(573.316875 414.848774) rotate(-45) scale(0.1 -0.1)">
       <use xlink:href="#DejaVuSans-34"/>
       <use xlink:href="#DejaVuSans-34" x="63.623047"/>
       <use xlink:href="#DejaVuSans-30" x="127.246094"/>
       <use xlink:href="#DejaVuSans-31" x="190.869141"/>
      </g>
     </g>
    </g>
    <g id="xtick_24">
     <g id="line2d_47">
      <path d="M 601.5 384.48 
L 601.5 51.84 
" clip-path="url(#p5956806690)" style="fill: none; stroke: #ffffff; stroke-width: 0.8; stroke-linecap: square"/>
     </g>
     <g id="line2d_48">
      <g>
       <use xlink:href="#m1ccf75ac9d" x="601.5" y="384.48" style="fill: #ffffff; stroke: #ffffff; stroke-width: 0.8"/>
      </g>
     </g>
     <g id="text_24">
      <!-- 4601 -->
      <g style="fill: #ffffff" transform="translate(594.453239 414.848774) rotate(-45) scale(0.1 -0.1)">
       <use xlink:href="#DejaVuSans-34"/>
       <use xlink:href="#DejaVuSans-36" x="63.623047"/>
       <use xlink:href="#DejaVuSans-30" x="127.246094"/>
       <use xlink:href="#DejaVuSans-31" x="190.869141"/>
      </g>
     </g>
    </g>
    <g id="xtick_25">
     <g id="line2d_49">
      <path d="M 622.636364 384.48 
L 622.636364 51.84 
" clip-path="url(#p5956806690)" style="fill: none; stroke: #ffffff; stroke-width: 0.8; stroke-linecap: square"/>
     </g>
     <g id="line2d_50">
      <g>
       <use xlink:href="#m1ccf75ac9d" x="622.636364" y="384.48" style="fill: #ffffff; stroke: #ffffff; stroke-width: 0.8"/>
      </g>
     </g>
     <g id="text_25">
      <!-- 4801 -->
      <g style="fill: #ffffff" transform="translate(615.589603 414.848774) rotate(-45) scale(0.1 -0.1)">
       <use xlink:href="#DejaVuSans-34"/>
       <use xlink:href="#DejaVuSans-38" x="63.623047"/>
       <use xlink:href="#DejaVuSans-30" x="127.246094"/>
       <use xlink:href="#DejaVuSans-31" x="190.869141"/>
      </g>
     </g>
    </g>
    <g id="text_26">
     <!-- concurrency -->
     <g style="fill: #ffffff" transform="translate(338.239844 427.917773) scale(0.1 -0.1)">
      <defs>
       <path id="DejaVuSans-63" d="M 3122 3366 
L 3122 2828 
Q 2878 2963 2633 3030 
Q 2388 3097 2138 3097 
Q 1578 3097 1268 2742 
Q 959 2388 959 1747 
Q 959 1106 1268 751 
Q 1578 397 2138 397 
Q 2388 397 2633 464 
Q 2878 531 3122 666 
L 3122 134 
Q 2881 22 2623 -34 
Q 2366 -91 2075 -91 
Q 1284 -91 818 406 
Q 353 903 353 1747 
Q 353 2603 823 3093 
Q 1294 3584 2113 3584 
Q 2378 3584 2631 3529 
Q 2884 3475 3122 3366 
z
" transform="scale(0.015625)"/>
       <path id="DejaVuSans-6f" d="M 1959 3097 
Q 1497 3097 1228 2736 
Q 959 2375 959 1747 
Q 959 1119 1226 758 
Q 1494 397 1959 397 
Q 2419 397 2687 759 
Q 2956 1122 2956 1747 
Q 2956 2369 2687 2733 
Q 2419 3097 1959 3097 
z
M 1959 3584 
Q 2709 3584 3137 3096 
Q 3566 2609 3566 1747 
Q 3566 888 3137 398 
Q 2709 -91 1959 -91 
Q 1206 -91 779 398 
Q 353 888 353 1747 
Q 353 2609 779 3096 
Q 1206 3584 1959 3584 
z
" transform="scale(0.015625)"/>
       <path id="DejaVuSans-6e" d="M 3513 2113 
L 3513 0 
L 2938 0 
L 2938 2094 
Q 2938 2591 2744 2837 
Q 2550 3084 2163 3084 
Q 1697 3084 1428 2787 
Q 1159 2491 1159 1978 
L 1159 0 
L 581 0 
L 581 3500 
L 1159 3500 
L 1159 2956 
Q 1366 3272 1645 3428 
Q 1925 3584 2291 3584 
Q 2894 3584 3203 3211 
Q 3513 2838 3513 2113 
z
" transform="scale(0.015625)"/>
       <path id="DejaVuSans-75" d="M 544 1381 
L 544 3500 
L 1119 3500 
L 1119 1403 
Q 1119 906 1312 657 
Q 1506 409 1894 409 
Q 2359 409 2629 706 
Q 2900 1003 2900 1516 
L 2900 3500 
L 3475 3500 
L 3475 0 
L 2900 0 
L 2900 538 
Q 2691 219 2414 64 
Q 2138 -91 1772 -91 
Q 1169 -91 856 284 
Q 544 659 544 1381 
z
M 1991 3584 
L 1991 3584 
z
" transform="scale(0.015625)"/>
       <path id="DejaVuSans-72" d="M 2631 2963 
Q 2534 3019 2420 3045 
Q 2306 3072 2169 3072 
Q 1681 3072 1420 2755 
Q 1159 2438 1159 1844 
L 1159 0 
L 581 0 
L 581 3500 
L 1159 3500 
L 1159 2956 
Q 1341 3275 1631 3429 
Q 1922 3584 2338 3584 
Q 2397 3584 2469 3576 
Q 2541 3569 2628 3553 
L 2631 2963 
z
" transform="scale(0.015625)"/>
       <path id="DejaVuSans-65" d="M 3597 1894 
L 3597 1613 
L 953 1613 
Q 991 1019 1311 708 
Q 1631 397 2203 397 
Q 2534 397 2845 478 
Q 3156 559 3463 722 
L 3463 178 
Q 3153 47 2828 -22 
Q 2503 -91 2169 -91 
Q 1331 -91 842 396 
Q 353 884 353 1716 
Q 353 2575 817 3079 
Q 1281 3584 2069 3584 
Q 2775 3584 3186 3129 
Q 3597 2675 3597 1894 
z
M 3022 2063 
Q 3016 2534 2758 2815 
Q 2500 3097 2075 3097 
Q 1594 3097 1305 2825 
Q 1016 2553 972 2059 
L 3022 2063 
z
" transform="scale(0.015625)"/>
       <path id="DejaVuSans-79" d="M 2059 -325 
Q 1816 -950 1584 -1140 
Q 1353 -1331 966 -1331 
L 506 -1331 
L 506 -850 
L 844 -850 
Q 1081 -850 1212 -737 
Q 1344 -625 1503 -206 
L 1606 56 
L 191 3500 
L 800 3500 
L 1894 763 
L 2988 3500 
L 3597 3500 
L 2059 -325 
z
" transform="scale(0.015625)"/>
      </defs>
      <use xlink:href="#DejaVuSans-63"/>
      <use xlink:href="#DejaVuSans-6f" x="54.980469"/>
      <use xlink:href="#DejaVuSans-6e" x="116.162109"/>
      <use xlink:href="#DejaVuSans-63" x="179.541016"/>
      <use xlink:href="#DejaVuSans-75" x="234.521484"/>
      <use xlink:href="#DejaVuSans-72" x="297.900391"/>
      <use xlink:href="#DejaVuSans-72" x="337.263672"/>
      <use xlink:href="#DejaVuSans-65" x="376.126953"/>
      <use xlink:href="#DejaVuSans-6e" x="437.650391"/>
      <use xlink:href="#DejaVuSans-63" x="501.029297"/>
      <use xlink:href="#DejaVuSans-79" x="556.009766"/>
     </g>
    </g>
   </g>
   <g id="matplotlib.axis_2">
    <g id="ytick_1">
     <g id="line2d_51">
      <path d="M 90 341.088604 
L 648 341.088604 
" clip-path="url(#p5956806690)" style="fill: none; stroke: #ffffff; stroke-width: 0.8; stroke-linecap: square"/>
     </g>
     <g id="line2d_52">
      <defs>
       <path id="m1669faa659" d="M 0 0 
L -3.5 0 
" style="stroke: #ffffff; stroke-width: 0.8"/>
      </defs>
      <g>
       <use xlink:href="#m1669faa659" x="90" y="341.088604" style="fill: #ffffff; stroke: #ffffff; stroke-width: 0.8"/>
      </g>
     </g>
     <g id="text_27">
      <!-- 100 -->
      <g style="fill: #ffffff" transform="translate(63.9125 344.887823) scale(0.1 -0.1)">
       <use xlink:href="#DejaVuSans-31"/>
       <use xlink:href="#DejaVuSans-30" x="63.623047"/>
       <use xlink:href="#DejaVuSans-30" x="127.246094"/>
      </g>
     </g>
    </g>
    <g id="ytick_2">
     <g id="line2d_53">
      <path d="M 90 278.295159 
L 648 278.295159 
" clip-path="url(#p5956806690)" style="fill: none; stroke: #ffffff; stroke-width: 0.8; stroke-linecap: square"/>
     </g>
     <g id="line2d_54">
      <g>
       <use xlink:href="#m1669faa659" x="90" y="278.295159" style="fill: #ffffff; stroke: #ffffff; stroke-width: 0.8"/>
      </g>
     </g>
     <g id="text_28">
      <!-- 200 -->
      <g style="fill: #ffffff" transform="translate(63.9125 282.094378) scale(0.1 -0.1)">
       <use xlink:href="#DejaVuSans-32"/>
       <use xlink:href="#DejaVuSans-30" x="63.623047"/>
       <use xlink:href="#DejaVuSans-30" x="127.246094"/>
      </g>
     </g>
    </g>
    <g id="ytick_3">
     <g id="line2d_55">
      <path d="M 90 215.501714 
L 648 215.501714 
" clip-path="url(#p5956806690)" style="fill: none; stroke: #ffffff; stroke-width: 0.8; stroke-linecap: square"/>
     </g>
     <g id="line2d_56">
      <g>
       <use xlink:href="#m1669faa659" x="90" y="215.501714" style="fill: #ffffff; stroke: #ffffff; stroke-width: 0.8"/>
      </g>
     </g>
     <g id="text_29">
      <!-- 300 -->
      <g style="fill: #ffffff" transform="translate(63.9125 219.300933) scale(0.1 -0.1)">
       <use xlink:href="#DejaVuSans-33"/>
       <use xlink:href="#DejaVuSans-30" x="63.623047"/>
       <use xlink:href="#DejaVuSans-30" x="127.246094"/>
      </g>
     </g>
    </g>
    <g id="ytick_4">
     <g id="line2d_57">
      <path d="M 90 152.708269 
L 648 152.708269 
" clip-path="url(#p5956806690)" style="fill: none; stroke: #ffffff; stroke-width: 0.8; stroke-linecap: square"/>
     </g>
     <g id="line2d_58">
      <g>
       <use xlink:href="#m1669faa659" x="90" y="152.708269" style="fill: #ffffff; stroke: #ffffff; stroke-width: 0.8"/>
      </g>
     </g>
     <g id="text_30">
      <!-- 400 -->
      <g style="fill: #ffffff" transform="translate(63.9125 156.507488) scale(0.1 -0.1)">
       <use xlink:href="#DejaVuSans-34"/>
       <use xlink:href="#DejaVuSans-30" x="63.623047"/>
       <use xlink:href="#DejaVuSans-30" x="127.246094"/>
      </g>
     </g>
    </g>
    <g id="ytick_5">
     <g id="line2d_59">
      <path d="M 90 89.914824 
L 648 89.914824 
" clip-path="url(#p5956806690)" style="fill: none; stroke: #ffffff; stroke-width: 0.8; stroke-linecap: square"/>
     </g>
     <g id="line2d_60">
      <g>
       <use xlink:href="#m1669faa659" x="90" y="89.914824" style="fill: #ffffff; stroke: #ffffff; stroke-width: 0.8"/>
      </g>
     </g>
     <g id="text_31">
      <!-- 500 -->
      <g style="fill: #ffffff" transform="translate(63.9125 93.714042) scale(0.1 -0.1)">
       <defs>
        <path id="DejaVuSans-35" d="M 691 4666 
L 3169 4666 
L 3169 4134 
L 1269 4134 
L 1269 2991 
Q 1406 3038 1543 3061 
Q 1681 3084 1819 3084 
Q 2600 3084 3056 2656 
Q 3513 2228 3513 1497 
Q 3513 744 3044 326 
Q 2575 -91 1722 -91 
Q 1428 -91 1123 -41 
Q 819 9 494 109 
L 494 744 
Q 775 591 1075 516 
Q 1375 441 1709 441 
Q 2250 441 2565 725 
Q 2881 1009 2881 1497 
Q 2881 1984 2565 2268 
Q 2250 2553 1709 2553 
Q 1456 2553 1204 2497 
Q 953 2441 691 2322 
L 691 4666 
z
" transform="scale(0.015625)"/>
       </defs>
       <use xlink:href="#DejaVuSans-35"/>
       <use xlink:href="#DejaVuSans-30" x="63.623047"/>
       <use xlink:href="#DejaVuSans-30" x="127.246094"/>
      </g>
     </g>
    </g>
    <g id="text_32">
     <!-- time (ms) -->
     <g style="fill: #ffffff" transform="translate(57.832812 242.421719) rotate(-90) scale(0.1 -0.1)">
      <defs>
       <path id="DejaVuSans-74" d="M 1172 4494 
L 1172 3500 
L 2356 3500 
L 2356 3053 
L 1172 3053 
L 1172 1153 
Q 1172 725 1289 603 
Q 1406 481 1766 481 
L 2356 481 
L 2356 0 
L 1766 0 
Q 1100 0 847 248 
Q 594 497 594 1153 
L 594 3053 
L 172 3053 
L 172 3500 
L 594 3500 
L 594 4494 
L 1172 4494 
z
" transform="scale(0.015625)"/>
       <path id="DejaVuSans-69" d="M 603 3500 
L 1178 3500 
L 1178 0 
L 603 0 
L 603 3500 
z
M 603 4863 
L 1178 4863 
L 1178 4134 
L 603 4134 
L 603 4863 
z
" transform="scale(0.015625)"/>
       <path id="DejaVuSans-6d" d="M 3328 2828 
Q 3544 3216 3844 3400 
Q 4144 3584 4550 3584 
Q 5097 3584 5394 3201 
Q 5691 2819 5691 2113 
L 5691 0 
L 5113 0 
L 5113 2094 
Q 5113 2597 4934 2840 
Q 4756 3084 4391 3084 
Q 3944 3084 3684 2787 
Q 3425 2491 3425 1978 
L 3425 0 
L 2847 0 
L 2847 2094 
Q 2847 2600 2669 2842 
Q 2491 3084 2119 3084 
Q 1678 3084 1418 2786 
Q 1159 2488 1159 1978 
L 1159 0 
L 581 0 
L 581 3500 
L 1159 3500 
L 1159 2956 
Q 1356 3278 1631 3431 
Q 1906 3584 2284 3584 
Q 2666 3584 2933 3390 
Q 3200 3197 3328 2828 
z
" transform="scale(0.015625)"/>
       <path id="DejaVuSans-20" transform="scale(0.015625)"/>
       <path id="DejaVuSans-28" d="M 1984 4856 
Q 1566 4138 1362 3434 
Q 1159 2731 1159 2009 
Q 1159 1288 1364 580 
Q 1569 -128 1984 -844 
L 1484 -844 
Q 1016 -109 783 600 
Q 550 1309 550 2009 
Q 550 2706 781 3412 
Q 1013 4119 1484 4856 
L 1984 4856 
z
" transform="scale(0.015625)"/>
       <path id="DejaVuSans-73" d="M 2834 3397 
L 2834 2853 
Q 2591 2978 2328 3040 
Q 2066 3103 1784 3103 
Q 1356 3103 1142 2972 
Q 928 2841 928 2578 
Q 928 2378 1081 2264 
Q 1234 2150 1697 2047 
L 1894 2003 
Q 2506 1872 2764 1633 
Q 3022 1394 3022 966 
Q 3022 478 2636 193 
Q 2250 -91 1575 -91 
Q 1294 -91 989 -36 
Q 684 19 347 128 
L 347 722 
Q 666 556 975 473 
Q 1284 391 1588 391 
Q 1994 391 2212 530 
Q 2431 669 2431 922 
Q 2431 1156 2273 1281 
Q 2116 1406 1581 1522 
L 1381 1569 
Q 847 1681 609 1914 
Q 372 2147 372 2553 
Q 372 3047 722 3315 
Q 1072 3584 1716 3584 
Q 2034 3584 2315 3537 
Q 2597 3491 2834 3397 
z
" transform="scale(0.015625)"/>
       <path id="DejaVuSans-29" d="M 513 4856 
L 1013 4856 
Q 1481 4119 1714 3412 
Q 1947 2706 1947 2009 
Q 1947 1309 1714 600 
Q 1481 -109 1013 -844 
L 513 -844 
Q 928 -128 1133 580 
Q 1338 1288 1338 2009 
Q 1338 2731 1133 3434 
Q 928 4138 513 4856 
z
" transform="scale(0.015625)"/>
      </defs>
      <use xlink:href="#DejaVuSans-74"/>
      <use xlink:href="#DejaVuSans-69" x="39.208984"/>
      <use xlink:href="#DejaVuSans-6d" x="66.992188"/>
      <use xlink:href="#DejaVuSans-65" x="164.404297"/>
      <use xlink:href="#DejaVuSans-20" x="225.927734"/>
      <use xlink:href="#DejaVuSans-28" x="257.714844"/>
      <use xlink:href="#DejaVuSans-6d" x="296.728516"/>
      <use xlink:href="#DejaVuSans-73" x="394.140625"/>
      <use xlink:href="#DejaVuSans-29" x="446.240234"/>
     </g>
    </g>
   </g>
   <g id="line2d_61">
    <path d="M 115.363636 336.414201 
L 117.057368 341.57618 
L 118.7511 346.14775 
L 120.444832 350.159296 
L 122.138564 353.641203 
L 123.832296 356.623858 
L 125.526028 359.137644 
L 127.21976 361.212949 
L 128.913492 362.880156 
L 130.607224 364.169652 
L 132.300956 365.111822 
L 133.994688 365.737051 
L 135.68842 366.075725 
L 137.382152 366.158229 
L 139.075884 366.014948 
L 140.769616 365.676268 
L 143.310214 364.868343 
L 145.850812 363.791687 
L 150.085142 361.678616 
L 154.319472 359.578705 
L 156.86007 358.522582 
L 159.400668 357.735332 
L 161.941266 357.211939 
L 165.32873 356.814032 
L 170.409926 356.548681 
L 175.491122 356.22146 
L 178.03172 355.873041 
L 180.572317 355.321832 
L 183.959781 354.292202 
L 188.194111 352.686835 
L 198.356503 348.630535 
L 201.743967 347.599045 
L 205.131431 346.820801 
L 209.365761 346.119091 
L 214.446957 345.524277 
L 224.609349 344.400564 
L 230.537411 343.470275 
L 236.465473 342.307906 
L 242.393535 340.91458 
L 257.637122 337.085596 
L 261.024586 336.506069 
L 264.41205 336.13538 
L 267.799514 335.979321 
L 272.88071 336.002575 
L 282.196236 336.113228 
L 285.5837 335.940323 
L 288.971164 335.574038 
L 293.205494 334.864967 
L 297.439824 333.909005 
L 301.674154 332.740688 
L 306.75535 331.107379 
L 318.611474 327.126726 
L 321.998938 326.251293 
L 325.386402 325.619997 
L 327.927 325.34727 
L 331.314463 325.23482 
L 336.395659 325.37138 
L 342.323721 325.52053 
L 345.711185 325.372082 
L 348.251783 325.059365 
L 350.792381 324.543996 
L 354.179845 323.610849 
L 359.261041 321.920232 
L 365.189103 319.975155 
L 368.576567 319.103415 
L 371.117165 318.643996 
L 374.504629 318.257751 
L 379.585825 317.947051 
L 385.513887 317.562659 
L 388.901351 317.124795 
L 391.441949 316.612185 
L 394.829413 315.663394 
L 398.216877 314.459452 
L 402.451207 312.678889 
L 407.532402 310.278701 
L 421.929124 303.326209 
L 427.01032 301.164458 
L 431.24465 299.585342 
L 435.47898 298.262357 
L 438.866444 297.418924 
L 442.253908 296.790019 
L 445.641372 296.397278 
L 449.028836 296.262333 
L 452.4163 296.406818 
L 455.803764 296.841093 
L 464.272424 298.217052 
L 466.813022 298.354843 
L 469.35362 298.210705 
L 471.047352 297.914929 
L 472.741084 297.429265 
L 474.434816 296.727879 
L 476.128548 295.790847 
L 477.82228 294.635072 
L 480.362878 292.559208 
L 482.903475 290.165956 
L 486.290939 286.662565 
L 493.065867 279.517282 
L 495.606465 277.110751 
L 498.147063 275.002093 
L 500.687661 273.208987 
L 503.228259 271.725711 
L 505.768857 270.54653 
L 508.309455 269.665711 
L 510.850053 269.077519 
L 513.390651 268.776223 
L 515.931249 268.756086 
L 518.471847 269.0088 
L 521.012445 269.487079 
L 525.246775 270.574556 
L 530.327971 271.912003 
L 532.868569 272.411313 
L 535.409167 272.693281 
L 537.949765 272.679608 
L 539.643497 272.474584 
L 542.184095 271.915478 
L 545.571559 270.864942 
L 551.499621 268.891498 
L 554.040219 268.267386 
L 556.580817 267.929059 
L 558.274548 267.914516 
L 559.96828 268.104408 
L 561.662012 268.499584 
L 564.20261 269.402383 
L 566.743208 270.569409 
L 576.058734 275.148969 
L 577.752466 275.720878 
L 579.446198 276.122712 
L 581.13993 276.319542 
L 582.833662 276.30486 
L 584.527394 276.103851 
L 587.067992 275.511697 
L 589.60859 274.651313 
L 592.996054 273.243492 
L 599.770982 270.339599 
L 602.31158 269.497153 
L 604.852178 268.930111 
L 606.54591 268.749829 
L 608.239642 268.759064 
L 609.933374 268.984662 
L 611.627106 269.45347 
L 613.320838 270.192333 
L 615.01457 271.228098 
L 616.708302 272.58761 
L 618.402034 274.297715 
L 620.095766 276.385261 
L 621.789498 278.877092 
L 622.636364 280.283005 
L 622.636364 280.283005 
" clip-path="url(#p5956806690)" style="fill: none; stroke: #8dd3c7; stroke-width: 1.5; stroke-linecap: square"/>
   </g>
   <g id="line2d_62">
    <path d="M 115.363636 333.851634 
L 117.057368 339.285912 
L 118.7511 344.121238 
L 120.444832 348.387244 
L 122.138564 352.113558 
L 123.832296 355.32981 
L 125.526028 358.06563 
L 127.21976 360.350648 
L 128.913492 362.214493 
L 130.607224 363.686796 
L 132.300956 364.797186 
L 133.994688 365.575292 
L 135.68842 366.050745 
L 137.382152 366.253175 
L 139.075884 366.212211 
L 140.769616 365.957483 
L 142.463348 365.51862 
L 145.003946 364.57989 
L 147.544544 363.393524 
L 152.62574 360.677892 
L 156.013204 358.934458 
L 158.553802 357.829479 
L 161.0944 356.953934 
L 163.634998 356.274792 
L 167.022462 355.607242 
L 171.256792 355.025007 
L 181.419183 353.747383 
L 186.500379 352.79669 
L 194.969039 350.940746 
L 203.437699 349.149845 
L 222.915617 345.259173 
L 233.924875 342.525826 
L 240.699803 340.98049 
L 245.780999 340.056962 
L 250.862195 339.366474 
L 255.94339 338.889067 
L 261.871452 338.574112 
L 268.64638 338.473961 
L 278.808772 338.34816 
L 283.889968 338.031519 
L 288.124298 337.528022 
L 292.358628 336.794716 
L 296.592958 335.843474 
L 300.827288 334.686197 
L 305.908484 333.042269 
L 320.305206 328.029546 
L 323.69267 327.214662 
L 326.233268 326.797119 
L 328.773866 326.57487 
L 332.161329 326.53153 
L 337.242525 326.76607 
L 343.170587 327.012332 
L 346.558051 326.906917 
L 349.098649 326.620721 
L 352.486113 325.958791 
L 356.720443 324.835493 
L 365.189103 322.443972 
L 368.576567 321.747367 
L 371.964031 321.337517 
L 382.973289 320.37324 
L 385.513887 319.800655 
L 388.054485 318.943613 
L 389.748217 318.178386 
L 391.441949 317.236779 
L 393.982547 315.527052 
L 396.523145 313.545011 
L 400.757475 309.895119 
L 405.838671 305.4867 
L 408.379268 303.493013 
L 410.919866 301.766648 
L 413.460464 300.387416 
L 416.001062 299.341148 
L 418.54166 298.578264 
L 421.082258 298.049121 
L 424.469722 297.621389 
L 428.704052 297.367694 
L 440.560176 296.816185 
L 446.488238 296.612933 
L 450.722568 296.664394 
L 454.110032 296.887704 
L 465.11929 297.885919 
L 467.659888 297.774031 
L 470.200486 297.385723 
L 471.894218 296.938645 
L 473.58795 296.316756 
L 475.281682 295.499561 
L 476.975414 294.48146 
L 479.516012 292.613701 
L 482.05661 290.391179 
L 484.597207 287.874608 
L 487.984671 284.166707 
L 492.219001 279.167735 
L 500.687661 269.041553 
L 504.075125 265.395648 
L 506.615723 262.978176 
L 509.156321 260.916226 
L 510.850053 259.776369 
L 512.543785 258.850419 
L 514.237517 258.160734 
L 515.931249 257.729672 
L 517.624981 257.578943 
L 519.318713 257.704385 
L 521.012445 258.067861 
L 522.706177 258.628922 
L 525.246775 259.752507 
L 528.634239 261.564662 
L 533.715435 264.29857 
L 536.256033 265.376807 
L 537.949765 265.896007 
L 539.643497 266.216756 
L 541.337229 266.350409 
L 543.877827 266.255335 
L 546.418425 265.881382 
L 549.805889 265.096329 
L 557.427683 263.118235 
L 559.96828 262.696398 
L 562.508878 262.495606 
L 565.049476 262.493733 
L 568.43694 262.750741 
L 571.824404 263.24156 
L 576.058734 264.079567 
L 603.158446 269.956739 
L 611.627106 271.434244 
L 619.2489 272.519347 
L 622.636364 272.914101 
L 622.636364 272.914101 
" clip-path="url(#p5956806690)" style="fill: none; stroke: #feffb3; stroke-width: 1.5; stroke-linecap: square"/>
   </g>
   <g id="line2d_63">
    <path d="M 115.363636 336.720732 
L 117.057368 341.700488 
L 118.7511 346.12123 
L 120.444832 350.011246 
L 122.138564 353.398824 
L 123.832296 356.312252 
L 125.526028 358.779816 
L 127.21976 360.829806 
L 128.913492 362.490507 
L 130.607224 363.790209 
L 132.300956 364.757199 
L 133.994688 365.419764 
L 135.68842 365.806192 
L 137.382152 365.944771 
L 139.075884 365.863788 
L 140.769616 365.591531 
L 143.310214 364.886385 
L 145.850812 363.909992 
L 149.238276 362.351202 
L 155.166338 359.552055 
L 157.706936 358.57217 
L 160.247534 357.835175 
L 162.788132 357.310817 
L 166.175596 356.850845 
L 172.103658 356.350993 
L 176.337988 355.91766 
L 179.725452 355.33758 
L 183.112915 354.485544 
L 187.347245 353.149359 
L 199.203369 349.161003 
L 202.590833 348.309585 
L 206.825163 347.483685 
L 213.600091 346.438541 
L 219.528153 345.476068 
L 223.762483 344.584154 
L 229.690545 343.07905 
L 238.159205 340.931932 
L 242.393535 340.092123 
L 246.627865 339.51218 
L 251.709061 339.075202 
L 267.799514 337.957874 
L 274.574442 337.122461 
L 301.674154 333.509661 
L 325.386402 330.736734 
L 331.314463 329.674231 
L 340.629989 327.717828 
L 349.098649 326.007423 
L 356.720443 324.739149 
L 377.892093 321.429444 
L 381.279557 320.576708 
L 384.667021 319.477562 
L 387.207619 318.453201 
L 389.748217 317.22757 
L 392.288815 315.784426 
L 396.523145 313.048234 
L 403.298073 308.609202 
L 405.838671 307.178894 
L 408.379268 305.9975 
L 410.073 305.386631 
L 411.766732 304.94385 
L 413.460464 304.675011 
L 416.001062 304.545286 
L 418.54166 304.664094 
L 422.77599 305.170855 
L 427.857186 305.776949 
L 430.397784 305.86994 
L 432.938382 305.703573 
L 435.47898 305.234341 
L 438.019578 304.51884 
L 441.407042 303.302356 
L 450.722568 299.689551 
L 453.263166 298.961793 
L 455.803764 298.45775 
L 459.191228 298.037545 
L 465.966156 297.278559 
L 468.506754 296.753034 
L 471.047352 295.959215 
L 472.741084 295.237492 
L 474.434816 294.331341 
L 476.128548 293.221518 
L 478.669146 291.230992 
L 482.05661 288.177123 
L 488.831537 281.889406 
L 491.372135 279.87901 
L 493.065867 278.751558 
L 494.759599 277.840669 
L 496.453331 277.185332 
L 498.147063 276.792617 
L 499.840795 276.625296 
L 501.534527 276.642877 
L 504.075125 276.927369 
L 508.309455 277.752422 
L 511.696919 278.363858 
L 514.237517 278.581506 
L 515.931249 278.535956 
L 517.624981 278.291372 
L 519.318713 277.836769 
L 521.012445 277.198968 
L 523.553043 275.963062 
L 526.093641 274.480276 
L 531.174837 271.170825 
L 535.409167 268.534158 
L 537.949765 267.210775 
L 540.490363 266.188347 
L 543.030961 265.484516 
L 545.571559 265.097056 
L 548.112157 265.023738 
L 550.652755 265.262333 
L 553.193353 265.810613 
L 555.733951 266.666348 
L 558.274548 267.82731 
L 560.815146 269.286629 
L 564.20261 271.567964 
L 570.977538 276.252384 
L 573.518136 277.695672 
L 575.211868 278.469612 
L 576.9056 279.052764 
L 578.599332 279.410683 
L 580.293064 279.508923 
L 581.986796 279.3235 
L 583.680528 278.87786 
L 585.37426 278.208881 
L 587.914858 276.867326 
L 590.455456 275.230705 
L 595.536652 271.570133 
L 598.924116 269.242364 
L 601.464714 267.765409 
L 603.158446 266.977955 
L 604.852178 266.391274 
L 606.54591 266.042243 
L 608.239642 265.967743 
L 609.933374 266.204652 
L 611.627106 266.78985 
L 613.320838 267.760216 
L 615.01457 269.152628 
L 616.708302 271.003967 
L 618.402034 273.351112 
L 620.095766 276.230941 
L 621.789498 279.680333 
L 622.636364 281.630141 
L 622.636364 281.630141 
" clip-path="url(#p5956806690)" style="fill: none; stroke: #bfbbd9; stroke-width: 1.5; stroke-linecap: square"/>
   </g>
   <g id="line2d_64">
    <path d="M 115.363636 334.792655 
L 117.057368 340.085433 
L 118.7511 344.795228 
L 120.444832 348.950863 
L 122.138564 352.581163 
L 123.832296 355.714951 
L 125.526028 358.381053 
L 127.21976 360.608292 
L 128.913492 362.425494 
L 130.607224 363.861481 
L 132.300956 364.945078 
L 133.994688 365.70511 
L 135.68842 366.170402 
L 137.382152 366.369776 
L 139.075884 366.332058 
L 140.769616 366.086072 
L 142.463348 365.660641 
L 145.003946 364.749092 
L 147.544544 363.59593 
L 152.62574 360.953899 
L 156.013204 359.256134 
L 158.553802 358.17911 
L 161.0944 357.326492 
L 163.634998 356.670688 
L 167.022462 356.044933 
L 171.256792 355.551463 
L 178.878586 355.005876 
L 184.806647 354.463173 
L 189.887843 353.785266 
L 194.969039 352.857245 
L 199.203369 351.856099 
L 203.437699 350.630429 
L 211.906359 347.85372 
L 216.987555 346.29012 
L 221.221885 345.223863 
L 225.456215 344.451044 
L 230.537411 343.782891 
L 239.852937 342.612637 
L 244.087267 341.817106 
L 249.168463 340.581979 
L 259.330854 338.012944 
L 262.718318 337.367267 
L 266.105782 336.923299 
L 270.340112 336.595278 
L 283.043102 335.790874 
L 286.430566 335.288637 
L 290.664896 334.425295 
L 303.367886 331.628569 
L 306.75535 331.178674 
L 310.142814 330.944595 
L 314.377144 330.881004 
L 321.152072 331.057788 
L 327.927 331.196376 
L 332.161329 331.087895 
L 336.395659 330.754533 
L 339.783123 330.289357 
L 343.170587 329.617564 
L 346.558051 328.711287 
L 349.945515 327.548383 
L 354.179845 325.830205 
L 361.801639 322.700211 
L 365.189103 321.586075 
L 367.729701 320.967276 
L 370.270299 320.587821 
L 372.810897 320.433318 
L 377.045227 320.466107 
L 382.126423 320.531643 
L 384.667021 320.389891 
L 387.207619 320.025943 
L 389.748217 319.360413 
L 391.441949 318.713959 
L 393.982547 317.46716 
L 396.523145 315.973484 
L 401.604341 312.631849 
L 405.838671 309.945387 
L 408.379268 308.576703 
L 410.919866 307.508462 
L 412.613598 307.006207 
L 415.154196 306.543937 
L 417.694794 306.34635 
L 421.082258 306.32973 
L 427.01032 306.344555 
L 429.550918 306.120665 
L 432.091516 305.620819 
L 433.785248 305.092655 
L 436.325846 304.04195 
L 439.71331 302.332368 
L 445.641372 299.236163 
L 448.18197 298.15853 
L 449.875702 297.606068 
L 451.569434 297.225043 
L 453.263166 297.048595 
L 454.956898 297.102202 
L 456.65063 297.360359 
L 459.191228 298.029835 
L 463.425558 299.511941 
L 466.813022 300.610079 
L 469.35362 301.13923 
L 471.047352 301.264858 
L 472.741084 301.15469 
L 474.434816 300.762367 
L 476.128548 300.050743 
L 477.82228 299.040052 
L 479.516012 297.772583 
L 482.05661 295.482532 
L 484.597207 292.852869 
L 490.525269 286.198891 
L 493.912733 282.614262 
L 496.453331 280.288491 
L 498.993929 278.373749 
L 501.534527 276.84159 
L 504.075125 275.650613 
L 506.615723 274.759417 
L 509.156321 274.1266 
L 511.696919 273.710761 
L 515.084383 273.42227 
L 519.318713 273.349521 
L 526.940507 273.335463 
L 530.327971 273.071289 
L 532.868569 272.658883 
L 535.409167 272.003824 
L 537.949765 271.05302 
L 540.490363 269.780243 
L 543.877827 267.762939 
L 548.959023 264.716163 
L 551.499621 263.482872 
L 553.193353 262.86197 
L 554.887085 262.44988 
L 556.580817 262.287555 
L 558.274548 262.415947 
L 559.96828 262.874714 
L 561.662012 263.662762 
L 563.355744 264.731023 
L 565.049476 266.027674 
L 567.590074 268.287524 
L 572.67127 273.299471 
L 576.058734 276.443996 
L 577.752466 277.801763 
L 579.446198 278.947436 
L 581.13993 279.830413 
L 582.833662 280.434455 
L 584.527394 280.781637 
L 586.221126 280.896045 
L 587.914858 280.801764 
L 589.60859 280.52288 
L 592.149188 279.811111 
L 594.689786 278.819467 
L 598.07725 277.202413 
L 607.392776 272.508235 
L 609.933374 271.544409 
L 612.473972 270.869731 
L 614.167704 270.620726 
L 615.861436 270.560445 
L 617.555168 270.712973 
L 619.2489 271.102398 
L 620.942632 271.752803 
L 622.636364 272.688275 
L 622.636364 272.688275 
" clip-path="url(#p5956806690)" style="fill: none; stroke: #fa8174; stroke-width: 1.5; stroke-linecap: square"/>
   </g>
   <g id="line2d_65">
    <path d="M 115.363636 335.766751 
L 117.057368 340.783484 
L 118.7511 345.253815 
L 120.444832 349.2046 
L 122.138564 352.662694 
L 123.832296 355.654951 
L 125.526028 358.208227 
L 127.21976 360.349378 
L 128.913492 362.105258 
L 130.607224 363.502722 
L 132.300956 364.568627 
L 133.994688 365.329826 
L 135.68842 365.813175 
L 137.382152 366.04553 
L 139.075884 366.053745 
L 140.769616 365.864676 
L 142.463348 365.505178 
L 145.003946 364.705122 
L 147.544544 363.672661 
L 152.62574 361.273069 
L 156.86007 359.363344 
L 159.400668 358.437531 
L 162.788132 357.493545 
L 166.175596 356.798732 
L 171.256792 356.024003 
L 178.03172 355.011053 
L 182.266049 354.122972 
L 188.194111 352.580809 
L 197.509637 350.121758 
L 201.743967 349.257321 
L 206.825163 348.499216 
L 221.221885 346.608166 
L 226.303081 345.561263 
L 233.924875 343.691218 
L 241.546669 341.876939 
L 246.627865 340.901912 
L 254.249659 339.701156 
L 263.565184 338.193846 
L 272.033844 336.488696 
L 277.961906 335.370689 
L 282.196236 334.765213 
L 285.5837 334.463556 
L 289.81803 334.309512 
L 300.827288 334.050705 
L 304.214752 333.704849 
L 307.602216 333.101767 
L 310.98968 332.262889 
L 316.917742 330.514825 
L 321.998938 329.068151 
L 325.386402 328.302163 
L 328.773866 327.801559 
L 332.161329 327.55845 
L 336.395659 327.490386 
L 346.558051 327.451966 
L 349.945515 327.187083 
L 354.179845 326.593378 
L 359.261041 325.603336 
L 368.576567 323.457918 
L 380.432691 320.662815 
L 384.667021 319.349475 
L 388.054485 318.052678 
L 391.441949 316.475433 
L 395.676279 314.165482 
L 403.298073 309.92278 
L 406.685537 308.369899 
L 409.226134 307.471639 
L 411.766732 306.872259 
L 414.30733 306.593062 
L 416.847928 306.559797 
L 420.235392 306.746924 
L 426.163454 307.129308 
L 428.704052 307.08796 
L 431.24465 306.797216 
L 432.938382 306.421949 
L 435.47898 305.575933 
L 438.019578 304.473102 
L 442.253908 302.334204 
L 446.488238 300.217899 
L 449.028836 299.150313 
L 451.569434 298.355809 
L 453.263166 298.026917 
L 454.956898 297.886187 
L 457.497496 297.972676 
L 460.88496 298.427769 
L 465.966156 299.17033 
L 468.506754 299.267899 
L 470.200486 299.137343 
L 471.894218 298.802332 
L 473.58795 298.221751 
L 475.281682 297.355125 
L 476.975414 296.1955 
L 478.669146 294.785063 
L 481.209744 292.299993 
L 484.597207 288.539039 
L 490.525269 281.762115 
L 493.065867 279.185064 
L 494.759599 277.691407 
L 496.453331 276.430399 
L 498.147063 275.418411 
L 499.840795 274.631451 
L 501.534527 274.04255 
L 504.075125 273.471573 
L 506.615723 273.194542 
L 510.003187 273.125111 
L 517.624981 273.170713 
L 520.165579 272.945369 
L 522.706177 272.51747 
L 525.246775 271.859236 
L 527.787373 270.942881 
L 530.327971 269.740625 
L 532.868569 268.224684 
L 535.409167 266.367275 
L 537.949765 264.140616 
L 540.490363 261.5478 
L 548.959023 252.416216 
L 550.652755 250.926593 
L 552.346487 249.682028 
L 554.040219 248.739449 
L 555.733951 248.155782 
L 557.427683 247.987954 
L 558.274548 248.077769 
L 559.121414 248.29289 
L 559.96828 248.638522 
L 561.662012 249.693383 
L 563.355744 251.16625 
L 565.049476 252.976953 
L 567.590074 256.151079 
L 576.058734 267.444558 
L 577.752466 269.233623 
L 579.446198 270.679083 
L 581.13993 271.702819 
L 582.833662 272.284601 
L 584.527394 272.468736 
L 586.221126 272.302917 
L 587.914858 271.834839 
L 589.60859 271.112194 
L 591.302322 270.182678 
L 593.84292 268.504848 
L 603.158446 261.88992 
L 604.852178 261.022402 
L 606.54591 260.377256 
L 608.239642 260.002176 
L 609.933374 259.944855 
L 611.627106 260.252987 
L 613.320838 260.974266 
L 615.01457 262.156386 
L 616.708302 263.847041 
L 618.402034 266.093923 
L 620.095766 268.944728 
L 621.789498 272.447148 
L 622.636364 274.457619 
L 622.636364 274.457619 
" clip-path="url(#p5956806690)" style="fill: none; stroke: #81b1d2; stroke-width: 1.5; stroke-linecap: square"/>
   </g>
   <g id="line2d_66">
    <path d="M 115.363636 334.878677 
L 117.057368 340.09335 
L 118.7511 344.735568 
L 120.444832 348.83374 
L 122.138564 352.416273 
L 123.832296 355.511577 
L 125.526028 358.148059 
L 127.21976 360.354128 
L 128.913492 362.158191 
L 130.607224 363.588657 
L 132.300956 364.673933 
L 133.994688 365.442429 
L 135.68842 365.922552 
L 137.382152 366.14271 
L 139.075884 366.131311 
L 140.769616 365.916764 
L 142.463348 365.527477 
L 145.003946 364.678051 
L 147.544544 363.595256 
L 153.472606 360.699755 
L 156.86007 359.177825 
L 159.400668 358.266033 
L 161.941266 357.568325 
L 165.32873 356.900857 
L 169.56306 356.351525 
L 179.725452 355.235837 
L 183.959781 354.452861 
L 188.194111 353.455557 
L 194.122173 351.795667 
L 203.437699 348.873458 
L 211.906359 346.289534 
L 216.987555 344.955313 
L 221.221885 344.048995 
L 225.456215 343.360303 
L 231.384277 342.635598 
L 241.546669 341.430402 
L 246.627865 340.576112 
L 261.024586 337.983853 
L 265.258916 337.529383 
L 270.340112 337.252338 
L 284.736834 336.67365 
L 288.971164 336.193135 
L 294.05236 335.399071 
L 301.674154 333.958474 
L 316.917742 331.062722 
L 324.539536 329.499321 
L 330.467598 328.077636 
L 351.639247 322.729128 
L 356.720443 321.798195 
L 361.801639 321.111129 
L 366.035969 320.752975 
L 370.270299 320.612641 
L 380.432691 320.472906 
L 382.973289 320.210711 
L 385.513887 319.757374 
L 388.054485 319.062777 
L 390.595083 318.076953 
L 393.135681 316.791809 
L 396.523145 314.771699 
L 403.298073 310.611827 
L 405.838671 309.330947 
L 408.379268 308.365301 
L 410.073 307.948416 
L 411.766732 307.748965 
L 413.460464 307.773326 
L 415.154196 307.985615 
L 417.694794 308.568697 
L 421.082258 309.629629 
L 425.316588 310.960293 
L 427.857186 311.520497 
L 429.550918 311.71118 
L 431.24465 311.708851 
L 432.938382 311.473806 
L 434.632114 310.993975 
L 436.325846 310.302578 
L 438.866444 308.950656 
L 441.407042 307.3332 
L 449.875702 301.64546 
L 452.4163 300.336731 
L 454.110032 299.682694 
L 455.803764 299.220444 
L 458.344362 298.820864 
L 460.88496 298.674641 
L 470.200486 298.502601 
L 472.741084 298.063125 
L 474.434816 297.566453 
L 476.128548 296.874008 
L 477.82228 295.994305 
L 480.362878 294.372411 
L 482.903475 292.454662 
L 486.290939 289.56763 
L 498.993929 278.278399 
L 502.381393 275.819596 
L 504.921991 274.21494 
L 507.462589 272.834797 
L 510.003187 271.696511 
L 512.543785 270.81743 
L 515.084383 270.214897 
L 517.624981 269.906024 
L 520.165579 269.882979 
L 522.706177 270.091301 
L 526.093641 270.625999 
L 537.949765 272.863746 
L 540.490363 273.037668 
L 543.877827 273.043039 
L 548.959023 272.763363 
L 555.733951 272.364325 
L 559.121414 272.372587 
L 562.508878 272.620326 
L 566.743208 273.174243 
L 576.058734 274.497361 
L 579.446198 274.724086 
L 582.833662 274.679366 
L 586.221126 274.386045 
L 590.455456 273.791421 
L 600.617848 272.227385 
L 604.005312 271.944347 
L 607.392776 271.9144 
L 609.933374 272.106373 
L 612.473972 272.519817 
L 615.01457 273.188633 
L 617.555168 274.146725 
L 620.095766 275.427996 
L 622.636364 277.066349 
L 622.636364 277.066349 
" clip-path="url(#p5956806690)" style="fill: none; stroke: #fdb462; stroke-width: 1.5; stroke-linecap: square"/>
   </g>
   <g id="patch_3">
    <path d="M 90 384.48 
L 90 51.84 
" style="fill: none; stroke: #ffffff; stroke-width: 0.8; stroke-linejoin: miter; stroke-linecap: square"/>
   </g>
   <g id="patch_4">
    <path d="M 648 384.48 
L 648 51.84 
" style="fill: none; stroke: #ffffff; stroke-width: 0.8; stroke-linejoin: miter; stroke-linecap: square"/>
   </g>
   <g id="patch_5">
    <path d="M 90 384.48 
L 648 384.48 
" style="fill: none; stroke: #ffffff; stroke-width: 0.8; stroke-linejoin: miter; stroke-linecap: square"/>
   </g>
   <g id="patch_6">
    <path d="M 90 51.84 
L 648 51.84 
" style="fill: none; stroke: #ffffff; stroke-width: 0.8; stroke-linejoin: miter; stroke-linecap: square"/>
   </g>
   <g id="text_33">
    <!-- caio.python_aio_asyncio - read (Time vs Concurrency) -->
    <g style="fill: #ffffff" transform="translate(207.036563 45.84) scale(0.12 -0.12)">
     <defs>
      <path id="DejaVuSans-61" d="M 2194 1759 
Q 1497 1759 1228 1600 
Q 959 1441 959 1056 
Q 959 750 1161 570 
Q 1363 391 1709 391 
Q 2188 391 2477 730 
Q 2766 1069 2766 1631 
L 2766 1759 
L 2194 1759 
z
M 3341 1997 
L 3341 0 
L 2766 0 
L 2766 531 
Q 2569 213 2275 61 
Q 1981 -91 1556 -91 
Q 1019 -91 701 211 
Q 384 513 384 1019 
Q 384 1609 779 1909 
Q 1175 2209 1959 2209 
L 2766 2209 
L 2766 2266 
Q 2766 2663 2505 2880 
Q 2244 3097 1772 3097 
Q 1472 3097 1187 3025 
Q 903 2953 641 2809 
L 641 3341 
Q 956 3463 1253 3523 
Q 1550 3584 1831 3584 
Q 2591 3584 2966 3190 
Q 3341 2797 3341 1997 
z
" transform="scale(0.015625)"/>
      <path id="DejaVuSans-2e" d="M 684 794 
L 1344 794 
L 1344 0 
L 684 0 
L 684 794 
z
" transform="scale(0.015625)"/>
      <path id="DejaVuSans-70" d="M 1159 525 
L 1159 -1331 
L 581 -1331 
L 581 3500 
L 1159 3500 
L 1159 2969 
Q 1341 3281 1617 3432 
Q 1894 3584 2278 3584 
Q 2916 3584 3314 3078 
Q 3713 2572 3713 1747 
Q 3713 922 3314 415 
Q 2916 -91 2278 -91 
Q 1894 -91 1617 61 
Q 1341 213 1159 525 
z
M 3116 1747 
Q 3116 2381 2855 2742 
Q 2594 3103 2138 3103 
Q 1681 3103 1420 2742 
Q 1159 2381 1159 1747 
Q 1159 1113 1420 752 
Q 1681 391 2138 391 
Q 2594 391 2855 752 
Q 3116 1113 3116 1747 
z
" transform="scale(0.015625)"/>
      <path id="DejaVuSans-68" d="M 3513 2113 
L 3513 0 
L 2938 0 
L 2938 2094 
Q 2938 2591 2744 2837 
Q 2550 3084 2163 3084 
Q 1697 3084 1428 2787 
Q 1159 2491 1159 1978 
L 1159 0 
L 581 0 
L 581 4863 
L 1159 4863 
L 1159 2956 
Q 1366 3272 1645 3428 
Q 1925 3584 2291 3584 
Q 2894 3584 3203 3211 
Q 3513 2838 3513 2113 
z
" transform="scale(0.015625)"/>
      <path id="DejaVuSans-5f" d="M 3263 -1063 
L 3263 -1509 
L -63 -1509 
L -63 -1063 
L 3263 -1063 
z
" transform="scale(0.015625)"/>
      <path id="DejaVuSans-2d" d="M 313 2009 
L 1997 2009 
L 1997 1497 
L 313 1497 
L 313 2009 
z
" transform="scale(0.015625)"/>
      <path id="DejaVuSans-64" d="M 2906 2969 
L 2906 4863 
L 3481 4863 
L 3481 0 
L 2906 0 
L 2906 525 
Q 2725 213 2448 61 
Q 2172 -91 1784 -91 
Q 1150 -91 751 415 
Q 353 922 353 1747 
Q 353 2572 751 3078 
Q 1150 3584 1784 3584 
Q 2172 3584 2448 3432 
Q 2725 3281 2906 2969 
z
M 947 1747 
Q 947 1113 1208 752 
Q 1469 391 1925 391 
Q 2381 391 2643 752 
Q 2906 1113 2906 1747 
Q 2906 2381 2643 2742 
Q 2381 3103 1925 3103 
Q 1469 3103 1208 2742 
Q 947 2381 947 1747 
z
" transform="scale(0.015625)"/>
      <path id="DejaVuSans-54" d="M -19 4666 
L 3928 4666 
L 3928 4134 
L 2272 4134 
L 2272 0 
L 1638 0 
L 1638 4134 
L -19 4134 
L -19 4666 
z
" transform="scale(0.015625)"/>
      <path id="DejaVuSans-76" d="M 191 3500 
L 800 3500 
L 1894 563 
L 2988 3500 
L 3597 3500 
L 2284 0 
L 1503 0 
L 191 3500 
z
" transform="scale(0.015625)"/>
      <path id="DejaVuSans-43" d="M 4122 4306 
L 4122 3641 
Q 3803 3938 3442 4084 
Q 3081 4231 2675 4231 
Q 1875 4231 1450 3742 
Q 1025 3253 1025 2328 
Q 1025 1406 1450 917 
Q 1875 428 2675 428 
Q 3081 428 3442 575 
Q 3803 722 4122 1019 
L 4122 359 
Q 3791 134 3420 21 
Q 3050 -91 2638 -91 
Q 1578 -91 968 557 
Q 359 1206 359 2328 
Q 359 3453 968 4101 
Q 1578 4750 2638 4750 
Q 3056 4750 3426 4639 
Q 3797 4528 4122 4306 
z
" transform="scale(0.015625)"/>
     </defs>
     <use xlink:href="#DejaVuSans-63"/>
     <use xlink:href="#DejaVuSans-61" x="54.980469"/>
     <use xlink:href="#DejaVuSans-69" x="116.259766"/>
     <use xlink:href="#DejaVuSans-6f" x="144.042969"/>
     <use xlink:href="#DejaVuSans-2e" x="203.474609"/>
     <use xlink:href="#DejaVuSans-70" x="235.261719"/>
     <use xlink:href="#DejaVuSans-79" x="298.738281"/>
     <use xlink:href="#DejaVuSans-74" x="357.917969"/>
     <use xlink:href="#DejaVuSans-68" x="397.126953"/>
     <use xlink:href="#DejaVuSans-6f" x="460.505859"/>
     <use xlink:href="#DejaVuSans-6e" x="521.6875"/>
     <use xlink:href="#DejaVuSans-5f" x="585.066406"/>
     <use xlink:href="#DejaVuSans-61" x="635.066406"/>
     <use xlink:href="#DejaVuSans-69" x="696.345703"/>
     <use xlink:href="#DejaVuSans-6f" x="724.128906"/>
     <use xlink:href="#DejaVuSans-5f" x="785.310547"/>
     <use xlink:href="#DejaVuSans-61" x="835.310547"/>
     <use xlink:href="#DejaVuSans-73" x="896.589844"/>
     <use xlink:href="#DejaVuSans-79" x="948.689453"/>
     <use xlink:href="#DejaVuSans-6e" x="1007.869141"/>
     <use xlink:href="#DejaVuSans-63" x="1071.248047"/>
     <use xlink:href="#DejaVuSans-69" x="1126.228516"/>
     <use xlink:href="#DejaVuSans-6f" x="1154.011719"/>
     <use xlink:href="#DejaVuSans-20" x="1215.193359"/>
     <use xlink:href="#DejaVuSans-2d" x="1246.980469"/>
     <use xlink:href="#DejaVuSans-20" x="1283.064453"/>
     <use xlink:href="#DejaVuSans-72" x="1314.851562"/>
     <use xlink:href="#DejaVuSans-65" x="1353.714844"/>
     <use xlink:href="#DejaVuSans-61" x="1415.238281"/>
     <use xlink:href="#DejaVuSans-64" x="1476.517578"/>
     <use xlink:href="#DejaVuSans-20" x="1539.994141"/>
     <use xlink:href="#DejaVuSans-28" x="1571.78125"/>
     <use xlink:href="#DejaVuSans-54" x="1610.794922"/>
     <use xlink:href="#DejaVuSans-69" x="1668.753906"/>
     <use xlink:href="#DejaVuSans-6d" x="1696.537109"/>
     <use xlink:href="#DejaVuSans-65" x="1793.949219"/>
     <use xlink:href="#DejaVuSans-20" x="1855.472656"/>
     <use xlink:href="#DejaVuSans-76" x="1887.259766"/>
     <use xlink:href="#DejaVuSans-73" x="1946.439453"/>
     <use xlink:href="#DejaVuSans-20" x="1998.539062"/>
     <use xlink:href="#DejaVuSans-43" x="2030.326172"/>
     <use xlink:href="#DejaVuSans-6f" x="2100.150391"/>
     <use xlink:href="#DejaVuSans-6e" x="2161.332031"/>
     <use xlink:href="#DejaVuSans-63" x="2224.710938"/>
     <use xlink:href="#DejaVuSans-75" x="2279.691406"/>
     <use xlink:href="#DejaVuSans-72" x="2343.070312"/>
     <use xlink:href="#DejaVuSans-72" x="2382.433594"/>
     <use xlink:href="#DejaVuSans-65" x="2421.296875"/>
     <use xlink:href="#DejaVuSans-6e" x="2482.820312"/>
     <use xlink:href="#DejaVuSans-63" x="2546.199219"/>
     <use xlink:href="#DejaVuSans-79" x="2601.179688"/>
     <use xlink:href="#DejaVuSans-29" x="2660.359375"/>
    </g>
   </g>
   <g id="legend_1">
    <g id="patch_7">
     <path d="M 543.43125 149.5775 
L 641 149.5775 
Q 643 149.5775 643 147.5775 
L 643 58.84 
Q 643 56.84 641 56.84 
L 543.43125 56.84 
Q 541.43125 56.84 541.43125 58.84 
L 541.43125 147.5775 
Q 541.43125 149.5775 543.43125 149.5775 
z
" style="opacity: 0.8; stroke: #cccccc; stroke-linejoin: miter"/>
    </g>
    <g id="line2d_67">
     <path d="M 545.43125 64.938437 
L 555.43125 64.938437 
L 565.43125 64.938437 
" style="fill: none; stroke: #8dd3c7; stroke-width: 1.5; stroke-linecap: square"/>
    </g>
    <g id="text_34">
     <!-- max_ops=1 -->
     <g style="fill: #ffffff" transform="translate(573.43125 68.438437) scale(0.1 -0.1)">
      <defs>
       <path id="DejaVuSans-78" d="M 3513 3500 
L 2247 1797 
L 3578 0 
L 2900 0 
L 1881 1375 
L 863 0 
L 184 0 
L 1544 1831 
L 300 3500 
L 978 3500 
L 1906 2253 
L 2834 3500 
L 3513 3500 
z
" transform="scale(0.015625)"/>
       <path id="DejaVuSans-3d" d="M 678 2906 
L 4684 2906 
L 4684 2381 
L 678 2381 
L 678 2906 
z
M 678 1631 
L 4684 1631 
L 4684 1100 
L 678 1100 
L 678 1631 
z
" transform="scale(0.015625)"/>
      </defs>
      <use xlink:href="#DejaVuSans-6d"/>
      <use xlink:href="#DejaVuSans-61" x="97.412109"/>
      <use xlink:href="#DejaVuSans-78" x="158.691406"/>
      <use xlink:href="#DejaVuSans-5f" x="217.871094"/>
      <use xlink:href="#DejaVuSans-6f" x="267.871094"/>
      <use xlink:href="#DejaVuSans-70" x="329.052734"/>
      <use xlink:href="#DejaVuSans-73" x="392.529297"/>
      <use xlink:href="#DejaVuSans-3d" x="444.628906"/>
      <use xlink:href="#DejaVuSans-31" x="528.417969"/>
     </g>
    </g>
    <g id="line2d_68">
     <path d="M 545.43125 79.894687 
L 555.43125 79.894687 
L 565.43125 79.894687 
" style="fill: none; stroke: #feffb3; stroke-width: 1.5; stroke-linecap: square"/>
    </g>
    <g id="text_35">
     <!-- max_ops=4 -->
     <g style="fill: #ffffff" transform="translate(573.43125 83.394687) scale(0.1 -0.1)">
      <use xlink:href="#DejaVuSans-6d"/>
      <use xlink:href="#DejaVuSans-61" x="97.412109"/>
      <use xlink:href="#DejaVuSans-78" x="158.691406"/>
      <use xlink:href="#DejaVuSans-5f" x="217.871094"/>
      <use xlink:href="#DejaVuSans-6f" x="267.871094"/>
      <use xlink:href="#DejaVuSans-70" x="329.052734"/>
      <use xlink:href="#DejaVuSans-73" x="392.529297"/>
      <use xlink:href="#DejaVuSans-3d" x="444.628906"/>
      <use xlink:href="#DejaVuSans-34" x="528.417969"/>
     </g>
    </g>
    <g id="line2d_69">
     <path d="M 545.43125 94.850937 
L 555.43125 94.850937 
L 565.43125 94.850937 
" style="fill: none; stroke: #bfbbd9; stroke-width: 1.5; stroke-linecap: square"/>
    </g>
    <g id="text_36">
     <!-- max_ops=8 -->
     <g style="fill: #ffffff" transform="translate(573.43125 98.350937) scale(0.1 -0.1)">
      <use xlink:href="#DejaVuSans-6d"/>
      <use xlink:href="#DejaVuSans-61" x="97.412109"/>
      <use xlink:href="#DejaVuSans-78" x="158.691406"/>
      <use xlink:href="#DejaVuSans-5f" x="217.871094"/>
      <use xlink:href="#DejaVuSans-6f" x="267.871094"/>
      <use xlink:href="#DejaVuSans-70" x="329.052734"/>
      <use xlink:href="#DejaVuSans-73" x="392.529297"/>
      <use xlink:href="#DejaVuSans-3d" x="444.628906"/>
      <use xlink:href="#DejaVuSans-38" x="528.417969"/>
     </g>
    </g>
    <g id="line2d_70">
     <path d="M 545.43125 109.807187 
L 555.43125 109.807187 
L 565.43125 109.807187 
" style="fill: none; stroke: #fa8174; stroke-width: 1.5; stroke-linecap: square"/>
    </g>
    <g id="text_37">
     <!-- max_ops=16 -->
     <g style="fill: #ffffff" transform="translate(573.43125 113.307187) scale(0.1 -0.1)">
      <use xlink:href="#DejaVuSans-6d"/>
      <use xlink:href="#DejaVuSans-61" x="97.412109"/>
      <use xlink:href="#DejaVuSans-78" x="158.691406"/>
      <use xlink:href="#DejaVuSans-5f" x="217.871094"/>
      <use xlink:href="#DejaVuSans-6f" x="267.871094"/>
      <use xlink:href="#DejaVuSans-70" x="329.052734"/>
      <use xlink:href="#DejaVuSans-73" x="392.529297"/>
      <use xlink:href="#DejaVuSans-3d" x="444.628906"/>
      <use xlink:href="#DejaVuSans-31" x="528.417969"/>
      <use xlink:href="#DejaVuSans-36" x="592.041016"/>
     </g>
    </g>
    <g id="line2d_71">
     <path d="M 545.43125 124.763437 
L 555.43125 124.763437 
L 565.43125 124.763437 
" style="fill: none; stroke: #81b1d2; stroke-width: 1.5; stroke-linecap: square"/>
    </g>
    <g id="text_38">
     <!-- max_ops=32 -->
     <g style="fill: #ffffff" transform="translate(573.43125 128.263437) scale(0.1 -0.1)">
      <use xlink:href="#DejaVuSans-6d"/>
      <use xlink:href="#DejaVuSans-61" x="97.412109"/>
      <use xlink:href="#DejaVuSans-78" x="158.691406"/>
      <use xlink:href="#DejaVuSans-5f" x="217.871094"/>
      <use xlink:href="#DejaVuSans-6f" x="267.871094"/>
      <use xlink:href="#DejaVuSans-70" x="329.052734"/>
      <use xlink:href="#DejaVuSans-73" x="392.529297"/>
      <use xlink:href="#DejaVuSans-3d" x="444.628906"/>
      <use xlink:href="#DejaVuSans-33" x="528.417969"/>
      <use xlink:href="#DejaVuSans-32" x="592.041016"/>
     </g>
    </g>
    <g id="line2d_72">
     <path d="M 545.43125 139.719687 
L 555.43125 139.719687 
L 565.43125 139.719687 
" style="fill: none; stroke: #fdb462; stroke-width: 1.5; stroke-linecap: square"/>
    </g>
    <g id="text_39">
     <!-- max_ops=64 -->
     <g style="fill: #ffffff" transform="translate(573.43125 143.219687) scale(0.1 -0.1)">
      <use xlink:href="#DejaVuSans-6d"/>
      <use xlink:href="#DejaVuSans-61" x="97.412109"/>
      <use xlink:href="#DejaVuSans-78" x="158.691406"/>
      <use xlink:href="#DejaVuSans-5f" x="217.871094"/>
      <use xlink:href="#DejaVuSans-6f" x="267.871094"/>
      <use xlink:href="#DejaVuSans-70" x="329.052734"/>
      <use xlink:href="#DejaVuSans-73" x="392.529297"/>
      <use xlink:href="#DejaVuSans-3d" x="444.628906"/>
      <use xlink:href="#DejaVuSans-36" x="528.417969"/>
      <use xlink:href="#DejaVuSans-34" x="592.041016"/>
     </g>
    </g>
   </g>
  </g>
 </g>
 <defs>
  <clipPath id="p5956806690">
   <rect x="90" y="51.84" width="558" height="332.64"/>
  </clipPath>
 </defs>
</svg>
