<?xml version="1.0" encoding="utf-8" standalone="no"?>
<!DOCTYPE svg PUBLIC "-//W3C//DTD SVG 1.1//EN"
  "http://www.w3.org/Graphics/SVG/1.1/DTD/svg11.dtd">
<svg xmlns:xlink="http://www.w3.org/1999/xlink" width="720pt" height="432pt" viewBox="0 0 720 432" xmlns="http://www.w3.org/2000/svg" version="1.1">
 <metadata>
  <rdf:RDF xmlns:dc="http://purl.org/dc/elements/1.1/" xmlns:cc="http://creativecommons.org/ns#" xmlns:rdf="http://www.w3.org/1999/02/22-rdf-syntax-ns#">
   <cc:Work>
    <dc:type rdf:resource="http://purl.org/dc/dcmitype/StillImage"/>
    <dc:date>2024-01-19T15:25:07.858872</dc:date>
    <dc:format>image/svg+xml</dc:format>
    <dc:creator>
     <cc:Agent>
      <dc:title>Matplotlib v3.8.2, https://matplotlib.org/</dc:title>
     </cc:Agent>
    </dc:creator>
   </cc:Work>
  </rdf:RDF>
 </metadata>
 <defs>
  <style type="text/css">*{stroke-linejoin: round; stroke-linecap: butt}</style>
 </defs>
 <g id="figure_1">
  <g id="patch_1">
   <path d="M 0 432 
L 720 432 
L 720 0 
L 0 0 
z
"/>
  </g>
  <g id="axes_1">
   <g id="patch_2">
    <path d="M 90 384.48 
L 648 384.48 
L 648 51.84 
L 90 51.84 
z
"/>
   </g>
   <g id="matplotlib.axis_1">
    <g id="xtick_1">
     <g id="line2d_1">
      <path d="M 115.363636 384.48 
L 115.363636 51.84 
" clip-path="url(#pd510280d82)" style="fill: none; stroke: #ffffff; stroke-width: 0.8; stroke-linecap: square"/>
     </g>
     <g id="line2d_2">
      <defs>
       <path id="m136b019985" d="M 0 0 
L 0 3.5 
" style="stroke: #ffffff; stroke-width: 0.8"/>
      </defs>
      <g>
       <use xlink:href="#m136b019985" x="115.363636" y="384.48" style="fill: #ffffff; stroke: #ffffff; stroke-width: 0.8"/>
      </g>
     </g>
     <g id="text_1">
      <!-- 1 -->
      <g style="fill: #ffffff" transform="translate(115.065326 401.351874) rotate(-45) scale(0.1 -0.1)">
       <defs>
        <path id="DejaVuSans-31" d="M 794 531 
L 1825 531 
L 1825 4091 
L 703 3866 
L 703 4441 
L 1819 4666 
L 2450 4666 
L 2450 531 
L 3481 531 
L 3481 0 
L 794 0 
L 794 531 
z
" transform="scale(0.015625)"/>
       </defs>
       <use xlink:href="#DejaVuSans-31"/>
      </g>
     </g>
    </g>
    <g id="xtick_2">
     <g id="line2d_3">
      <path d="M 136.5 384.48 
L 136.5 51.84 
" clip-path="url(#pd510280d82)" style="fill: none; stroke: #ffffff; stroke-width: 0.8; stroke-linecap: square"/>
     </g>
     <g id="line2d_4">
      <g>
       <use xlink:href="#m136b019985" x="136.5" y="384.48" style="fill: #ffffff; stroke: #ffffff; stroke-width: 0.8"/>
      </g>
     </g>
     <g id="text_2">
      <!-- 201 -->
      <g style="fill: #ffffff" transform="translate(131.702722 410.349807) rotate(-45) scale(0.1 -0.1)">
       <defs>
        <path id="DejaVuSans-32" d="M 1228 531 
L 3431 531 
L 3431 0 
L 469 0 
L 469 531 
Q 828 903 1448 1529 
Q 2069 2156 2228 2338 
Q 2531 2678 2651 2914 
Q 2772 3150 2772 3378 
Q 2772 3750 2511 3984 
Q 2250 4219 1831 4219 
Q 1534 4219 1204 4116 
Q 875 4013 500 3803 
L 500 4441 
Q 881 4594 1212 4672 
Q 1544 4750 1819 4750 
Q 2544 4750 2975 4387 
Q 3406 4025 3406 3419 
Q 3406 3131 3298 2873 
Q 3191 2616 2906 2266 
Q 2828 2175 2409 1742 
Q 1991 1309 1228 531 
z
" transform="scale(0.015625)"/>
        <path id="DejaVuSans-30" d="M 2034 4250 
Q 1547 4250 1301 3770 
Q 1056 3291 1056 2328 
Q 1056 1369 1301 889 
Q 1547 409 2034 409 
Q 2525 409 2770 889 
Q 3016 1369 3016 2328 
Q 3016 3291 2770 3770 
Q 2525 4250 2034 4250 
z
M 2034 4750 
Q 2819 4750 3233 4129 
Q 3647 3509 3647 2328 
Q 3647 1150 3233 529 
Q 2819 -91 2034 -91 
Q 1250 -91 836 529 
Q 422 1150 422 2328 
Q 422 3509 836 4129 
Q 1250 4750 2034 4750 
z
" transform="scale(0.015625)"/>
       </defs>
       <use xlink:href="#DejaVuSans-32"/>
       <use xlink:href="#DejaVuSans-30" x="63.623047"/>
       <use xlink:href="#DejaVuSans-31" x="127.246094"/>
      </g>
     </g>
    </g>
    <g id="xtick_3">
     <g id="line2d_5">
      <path d="M 157.636364 384.48 
L 157.636364 51.84 
" clip-path="url(#pd510280d82)" style="fill: none; stroke: #ffffff; stroke-width: 0.8; stroke-linecap: square"/>
     </g>
     <g id="line2d_6">
      <g>
       <use xlink:href="#m136b019985" x="157.636364" y="384.48" style="fill: #ffffff; stroke: #ffffff; stroke-width: 0.8"/>
      </g>
     </g>
     <g id="text_3">
      <!-- 401 -->
      <g style="fill: #ffffff" transform="translate(152.839086 410.349807) rotate(-45) scale(0.1 -0.1)">
       <defs>
        <path id="DejaVuSans-34" d="M 2419 4116 
L 825 1625 
L 2419 1625 
L 2419 4116 
z
M 2253 4666 
L 3047 4666 
L 3047 1625 
L 3713 1625 
L 3713 1100 
L 3047 1100 
L 3047 0 
L 2419 0 
L 2419 1100 
L 313 1100 
L 313 1709 
L 2253 4666 
z
" transform="scale(0.015625)"/>
       </defs>
       <use xlink:href="#DejaVuSans-34"/>
       <use xlink:href="#DejaVuSans-30" x="63.623047"/>
       <use xlink:href="#DejaVuSans-31" x="127.246094"/>
      </g>
     </g>
    </g>
    <g id="xtick_4">
     <g id="line2d_7">
      <path d="M 178.772727 384.48 
L 178.772727 51.84 
" clip-path="url(#pd510280d82)" style="fill: none; stroke: #ffffff; stroke-width: 0.8; stroke-linecap: square"/>
     </g>
     <g id="line2d_8">
      <g>
       <use xlink:href="#m136b019985" x="178.772727" y="384.48" style="fill: #ffffff; stroke: #ffffff; stroke-width: 0.8"/>
      </g>
     </g>
     <g id="text_4">
      <!-- 601 -->
      <g style="fill: #ffffff" transform="translate(173.97545 410.349807) rotate(-45) scale(0.1 -0.1)">
       <defs>
        <path id="DejaVuSans-36" d="M 2113 2584 
Q 1688 2584 1439 2293 
Q 1191 2003 1191 1497 
Q 1191 994 1439 701 
Q 1688 409 2113 409 
Q 2538 409 2786 701 
Q 3034 994 3034 1497 
Q 3034 2003 2786 2293 
Q 2538 2584 2113 2584 
z
M 3366 4563 
L 3366 3988 
Q 3128 4100 2886 4159 
Q 2644 4219 2406 4219 
Q 1781 4219 1451 3797 
Q 1122 3375 1075 2522 
Q 1259 2794 1537 2939 
Q 1816 3084 2150 3084 
Q 2853 3084 3261 2657 
Q 3669 2231 3669 1497 
Q 3669 778 3244 343 
Q 2819 -91 2113 -91 
Q 1303 -91 875 529 
Q 447 1150 447 2328 
Q 447 3434 972 4092 
Q 1497 4750 2381 4750 
Q 2619 4750 2861 4703 
Q 3103 4656 3366 4563 
z
" transform="scale(0.015625)"/>
       </defs>
       <use xlink:href="#DejaVuSans-36"/>
       <use xlink:href="#DejaVuSans-30" x="63.623047"/>
       <use xlink:href="#DejaVuSans-31" x="127.246094"/>
      </g>
     </g>
    </g>
    <g id="xtick_5">
     <g id="line2d_9">
      <path d="M 199.909091 384.48 
L 199.909091 51.84 
" clip-path="url(#pd510280d82)" style="fill: none; stroke: #ffffff; stroke-width: 0.8; stroke-linecap: square"/>
     </g>
     <g id="line2d_10">
      <g>
       <use xlink:href="#m136b019985" x="199.909091" y="384.48" style="fill: #ffffff; stroke: #ffffff; stroke-width: 0.8"/>
      </g>
     </g>
     <g id="text_5">
      <!-- 801 -->
      <g style="fill: #ffffff" transform="translate(195.111813 410.349807) rotate(-45) scale(0.1 -0.1)">
       <defs>
        <path id="DejaVuSans-38" d="M 2034 2216 
Q 1584 2216 1326 1975 
Q 1069 1734 1069 1313 
Q 1069 891 1326 650 
Q 1584 409 2034 409 
Q 2484 409 2743 651 
Q 3003 894 3003 1313 
Q 3003 1734 2745 1975 
Q 2488 2216 2034 2216 
z
M 1403 2484 
Q 997 2584 770 2862 
Q 544 3141 544 3541 
Q 544 4100 942 4425 
Q 1341 4750 2034 4750 
Q 2731 4750 3128 4425 
Q 3525 4100 3525 3541 
Q 3525 3141 3298 2862 
Q 3072 2584 2669 2484 
Q 3125 2378 3379 2068 
Q 3634 1759 3634 1313 
Q 3634 634 3220 271 
Q 2806 -91 2034 -91 
Q 1263 -91 848 271 
Q 434 634 434 1313 
Q 434 1759 690 2068 
Q 947 2378 1403 2484 
z
M 1172 3481 
Q 1172 3119 1398 2916 
Q 1625 2713 2034 2713 
Q 2441 2713 2670 2916 
Q 2900 3119 2900 3481 
Q 2900 3844 2670 4047 
Q 2441 4250 2034 4250 
Q 1625 4250 1398 4047 
Q 1172 3844 1172 3481 
z
" transform="scale(0.015625)"/>
       </defs>
       <use xlink:href="#DejaVuSans-38"/>
       <use xlink:href="#DejaVuSans-30" x="63.623047"/>
       <use xlink:href="#DejaVuSans-31" x="127.246094"/>
      </g>
     </g>
    </g>
    <g id="xtick_6">
     <g id="line2d_11">
      <path d="M 221.045455 384.48 
L 221.045455 51.84 
" clip-path="url(#pd510280d82)" style="fill: none; stroke: #ffffff; stroke-width: 0.8; stroke-linecap: square"/>
     </g>
     <g id="line2d_12">
      <g>
       <use xlink:href="#m136b019985" x="221.045455" y="384.48" style="fill: #ffffff; stroke: #ffffff; stroke-width: 0.8"/>
      </g>
     </g>
     <g id="text_6">
      <!-- 1001 -->
      <g style="fill: #ffffff" transform="translate(213.998694 414.848774) rotate(-45) scale(0.1 -0.1)">
       <use xlink:href="#DejaVuSans-31"/>
       <use xlink:href="#DejaVuSans-30" x="63.623047"/>
       <use xlink:href="#DejaVuSans-30" x="127.246094"/>
       <use xlink:href="#DejaVuSans-31" x="190.869141"/>
      </g>
     </g>
    </g>
    <g id="xtick_7">
     <g id="line2d_13">
      <path d="M 242.181818 384.48 
L 242.181818 51.84 
" clip-path="url(#pd510280d82)" style="fill: none; stroke: #ffffff; stroke-width: 0.8; stroke-linecap: square"/>
     </g>
     <g id="line2d_14">
      <g>
       <use xlink:href="#m136b019985" x="242.181818" y="384.48" style="fill: #ffffff; stroke: #ffffff; stroke-width: 0.8"/>
      </g>
     </g>
     <g id="text_7">
      <!-- 1201 -->
      <g style="fill: #ffffff" transform="translate(235.135057 414.848774) rotate(-45) scale(0.1 -0.1)">
       <use xlink:href="#DejaVuSans-31"/>
       <use xlink:href="#DejaVuSans-32" x="63.623047"/>
       <use xlink:href="#DejaVuSans-30" x="127.246094"/>
       <use xlink:href="#DejaVuSans-31" x="190.869141"/>
      </g>
     </g>
    </g>
    <g id="xtick_8">
     <g id="line2d_15">
      <path d="M 263.318182 384.48 
L 263.318182 51.84 
" clip-path="url(#pd510280d82)" style="fill: none; stroke: #ffffff; stroke-width: 0.8; stroke-linecap: square"/>
     </g>
     <g id="line2d_16">
      <g>
       <use xlink:href="#m136b019985" x="263.318182" y="384.48" style="fill: #ffffff; stroke: #ffffff; stroke-width: 0.8"/>
      </g>
     </g>
     <g id="text_8">
      <!-- 1401 -->
      <g style="fill: #ffffff" transform="translate(256.271421 414.848774) rotate(-45) scale(0.1 -0.1)">
       <use xlink:href="#DejaVuSans-31"/>
       <use xlink:href="#DejaVuSans-34" x="63.623047"/>
       <use xlink:href="#DejaVuSans-30" x="127.246094"/>
       <use xlink:href="#DejaVuSans-31" x="190.869141"/>
      </g>
     </g>
    </g>
    <g id="xtick_9">
     <g id="line2d_17">
      <path d="M 284.454545 384.48 
L 284.454545 51.84 
" clip-path="url(#pd510280d82)" style="fill: none; stroke: #ffffff; stroke-width: 0.8; stroke-linecap: square"/>
     </g>
     <g id="line2d_18">
      <g>
       <use xlink:href="#m136b019985" x="284.454545" y="384.48" style="fill: #ffffff; stroke: #ffffff; stroke-width: 0.8"/>
      </g>
     </g>
     <g id="text_9">
      <!-- 1601 -->
      <g style="fill: #ffffff" transform="translate(277.407784 414.848774) rotate(-45) scale(0.1 -0.1)">
       <use xlink:href="#DejaVuSans-31"/>
       <use xlink:href="#DejaVuSans-36" x="63.623047"/>
       <use xlink:href="#DejaVuSans-30" x="127.246094"/>
       <use xlink:href="#DejaVuSans-31" x="190.869141"/>
      </g>
     </g>
    </g>
    <g id="xtick_10">
     <g id="line2d_19">
      <path d="M 305.590909 384.48 
L 305.590909 51.84 
" clip-path="url(#pd510280d82)" style="fill: none; stroke: #ffffff; stroke-width: 0.8; stroke-linecap: square"/>
     </g>
     <g id="line2d_20">
      <g>
       <use xlink:href="#m136b019985" x="305.590909" y="384.48" style="fill: #ffffff; stroke: #ffffff; stroke-width: 0.8"/>
      </g>
     </g>
     <g id="text_10">
      <!-- 1801 -->
      <g style="fill: #ffffff" transform="translate(298.544148 414.848774) rotate(-45) scale(0.1 -0.1)">
       <use xlink:href="#DejaVuSans-31"/>
       <use xlink:href="#DejaVuSans-38" x="63.623047"/>
       <use xlink:href="#DejaVuSans-30" x="127.246094"/>
       <use xlink:href="#DejaVuSans-31" x="190.869141"/>
      </g>
     </g>
    </g>
    <g id="xtick_11">
     <g id="line2d_21">
      <path d="M 326.727273 384.48 
L 326.727273 51.84 
" clip-path="url(#pd510280d82)" style="fill: none; stroke: #ffffff; stroke-width: 0.8; stroke-linecap: square"/>
     </g>
     <g id="line2d_22">
      <g>
       <use xlink:href="#m136b019985" x="326.727273" y="384.48" style="fill: #ffffff; stroke: #ffffff; stroke-width: 0.8"/>
      </g>
     </g>
     <g id="text_11">
      <!-- 2001 -->
      <g style="fill: #ffffff" transform="translate(319.680512 414.848774) rotate(-45) scale(0.1 -0.1)">
       <use xlink:href="#DejaVuSans-32"/>
       <use xlink:href="#DejaVuSans-30" x="63.623047"/>
       <use xlink:href="#DejaVuSans-30" x="127.246094"/>
       <use xlink:href="#DejaVuSans-31" x="190.869141"/>
      </g>
     </g>
    </g>
    <g id="xtick_12">
     <g id="line2d_23">
      <path d="M 347.863636 384.48 
L 347.863636 51.84 
" clip-path="url(#pd510280d82)" style="fill: none; stroke: #ffffff; stroke-width: 0.8; stroke-linecap: square"/>
     </g>
     <g id="line2d_24">
      <g>
       <use xlink:href="#m136b019985" x="347.863636" y="384.48" style="fill: #ffffff; stroke: #ffffff; stroke-width: 0.8"/>
      </g>
     </g>
     <g id="text_12">
      <!-- 2201 -->
      <g style="fill: #ffffff" transform="translate(340.816875 414.848774) rotate(-45) scale(0.1 -0.1)">
       <use xlink:href="#DejaVuSans-32"/>
       <use xlink:href="#DejaVuSans-32" x="63.623047"/>
       <use xlink:href="#DejaVuSans-30" x="127.246094"/>
       <use xlink:href="#DejaVuSans-31" x="190.869141"/>
      </g>
     </g>
    </g>
    <g id="xtick_13">
     <g id="line2d_25">
      <path d="M 369 384.48 
L 369 51.84 
" clip-path="url(#pd510280d82)" style="fill: none; stroke: #ffffff; stroke-width: 0.8; stroke-linecap: square"/>
     </g>
     <g id="line2d_26">
      <g>
       <use xlink:href="#m136b019985" x="369" y="384.48" style="fill: #ffffff; stroke: #ffffff; stroke-width: 0.8"/>
      </g>
     </g>
     <g id="text_13">
      <!-- 2401 -->
      <g style="fill: #ffffff" transform="translate(361.953239 414.848774) rotate(-45) scale(0.1 -0.1)">
       <use xlink:href="#DejaVuSans-32"/>
       <use xlink:href="#DejaVuSans-34" x="63.623047"/>
       <use xlink:href="#DejaVuSans-30" x="127.246094"/>
       <use xlink:href="#DejaVuSans-31" x="190.869141"/>
      </g>
     </g>
    </g>
    <g id="xtick_14">
     <g id="line2d_27">
      <path d="M 390.136364 384.48 
L 390.136364 51.84 
" clip-path="url(#pd510280d82)" style="fill: none; stroke: #ffffff; stroke-width: 0.8; stroke-linecap: square"/>
     </g>
     <g id="line2d_28">
      <g>
       <use xlink:href="#m136b019985" x="390.136364" y="384.48" style="fill: #ffffff; stroke: #ffffff; stroke-width: 0.8"/>
      </g>
     </g>
     <g id="text_14">
      <!-- 2601 -->
      <g style="fill: #ffffff" transform="translate(383.089603 414.848774) rotate(-45) scale(0.1 -0.1)">
       <use xlink:href="#DejaVuSans-32"/>
       <use xlink:href="#DejaVuSans-36" x="63.623047"/>
       <use xlink:href="#DejaVuSans-30" x="127.246094"/>
       <use xlink:href="#DejaVuSans-31" x="190.869141"/>
      </g>
     </g>
    </g>
    <g id="xtick_15">
     <g id="line2d_29">
      <path d="M 411.272727 384.48 
L 411.272727 51.84 
" clip-path="url(#pd510280d82)" style="fill: none; stroke: #ffffff; stroke-width: 0.8; stroke-linecap: square"/>
     </g>
     <g id="line2d_30">
      <g>
       <use xlink:href="#m136b019985" x="411.272727" y="384.48" style="fill: #ffffff; stroke: #ffffff; stroke-width: 0.8"/>
      </g>
     </g>
     <g id="text_15">
      <!-- 2801 -->
      <g style="fill: #ffffff" transform="translate(404.225966 414.848774) rotate(-45) scale(0.1 -0.1)">
       <use xlink:href="#DejaVuSans-32"/>
       <use xlink:href="#DejaVuSans-38" x="63.623047"/>
       <use xlink:href="#DejaVuSans-30" x="127.246094"/>
       <use xlink:href="#DejaVuSans-31" x="190.869141"/>
      </g>
     </g>
    </g>
    <g id="xtick_16">
     <g id="line2d_31">
      <path d="M 432.409091 384.48 
L 432.409091 51.84 
" clip-path="url(#pd510280d82)" style="fill: none; stroke: #ffffff; stroke-width: 0.8; stroke-linecap: square"/>
     </g>
     <g id="line2d_32">
      <g>
       <use xlink:href="#m136b019985" x="432.409091" y="384.48" style="fill: #ffffff; stroke: #ffffff; stroke-width: 0.8"/>
      </g>
     </g>
     <g id="text_16">
      <!-- 3001 -->
      <g style="fill: #ffffff" transform="translate(425.36233 414.848774) rotate(-45) scale(0.1 -0.1)">
       <defs>
        <path id="DejaVuSans-33" d="M 2597 2516 
Q 3050 2419 3304 2112 
Q 3559 1806 3559 1356 
Q 3559 666 3084 287 
Q 2609 -91 1734 -91 
Q 1441 -91 1130 -33 
Q 819 25 488 141 
L 488 750 
Q 750 597 1062 519 
Q 1375 441 1716 441 
Q 2309 441 2620 675 
Q 2931 909 2931 1356 
Q 2931 1769 2642 2001 
Q 2353 2234 1838 2234 
L 1294 2234 
L 1294 2753 
L 1863 2753 
Q 2328 2753 2575 2939 
Q 2822 3125 2822 3475 
Q 2822 3834 2567 4026 
Q 2313 4219 1838 4219 
Q 1578 4219 1281 4162 
Q 984 4106 628 3988 
L 628 4550 
Q 988 4650 1302 4700 
Q 1616 4750 1894 4750 
Q 2613 4750 3031 4423 
Q 3450 4097 3450 3541 
Q 3450 3153 3228 2886 
Q 3006 2619 2597 2516 
z
" transform="scale(0.015625)"/>
       </defs>
       <use xlink:href="#DejaVuSans-33"/>
       <use xlink:href="#DejaVuSans-30" x="63.623047"/>
       <use xlink:href="#DejaVuSans-30" x="127.246094"/>
       <use xlink:href="#DejaVuSans-31" x="190.869141"/>
      </g>
     </g>
    </g>
    <g id="xtick_17">
     <g id="line2d_33">
      <path d="M 453.545455 384.48 
L 453.545455 51.84 
" clip-path="url(#pd510280d82)" style="fill: none; stroke: #ffffff; stroke-width: 0.8; stroke-linecap: square"/>
     </g>
     <g id="line2d_34">
      <g>
       <use xlink:href="#m136b019985" x="453.545455" y="384.48" style="fill: #ffffff; stroke: #ffffff; stroke-width: 0.8"/>
      </g>
     </g>
     <g id="text_17">
      <!-- 3201 -->
      <g style="fill: #ffffff" transform="translate(446.498694 414.848774) rotate(-45) scale(0.1 -0.1)">
       <use xlink:href="#DejaVuSans-33"/>
       <use xlink:href="#DejaVuSans-32" x="63.623047"/>
       <use xlink:href="#DejaVuSans-30" x="127.246094"/>
       <use xlink:href="#DejaVuSans-31" x="190.869141"/>
      </g>
     </g>
    </g>
    <g id="xtick_18">
     <g id="line2d_35">
      <path d="M 474.681818 384.48 
L 474.681818 51.84 
" clip-path="url(#pd510280d82)" style="fill: none; stroke: #ffffff; stroke-width: 0.8; stroke-linecap: square"/>
     </g>
     <g id="line2d_36">
      <g>
       <use xlink:href="#m136b019985" x="474.681818" y="384.48" style="fill: #ffffff; stroke: #ffffff; stroke-width: 0.8"/>
      </g>
     </g>
     <g id="text_18">
      <!-- 3401 -->
      <g style="fill: #ffffff" transform="translate(467.635057 414.848774) rotate(-45) scale(0.1 -0.1)">
       <use xlink:href="#DejaVuSans-33"/>
       <use xlink:href="#DejaVuSans-34" x="63.623047"/>
       <use xlink:href="#DejaVuSans-30" x="127.246094"/>
       <use xlink:href="#DejaVuSans-31" x="190.869141"/>
      </g>
     </g>
    </g>
    <g id="xtick_19">
     <g id="line2d_37">
      <path d="M 495.818182 384.48 
L 495.818182 51.84 
" clip-path="url(#pd510280d82)" style="fill: none; stroke: #ffffff; stroke-width: 0.8; stroke-linecap: square"/>
     </g>
     <g id="line2d_38">
      <g>
       <use xlink:href="#m136b019985" x="495.818182" y="384.48" style="fill: #ffffff; stroke: #ffffff; stroke-width: 0.8"/>
      </g>
     </g>
     <g id="text_19">
      <!-- 3601 -->
      <g style="fill: #ffffff" transform="translate(488.771421 414.848774) rotate(-45) scale(0.1 -0.1)">
       <use xlink:href="#DejaVuSans-33"/>
       <use xlink:href="#DejaVuSans-36" x="63.623047"/>
       <use xlink:href="#DejaVuSans-30" x="127.246094"/>
       <use xlink:href="#DejaVuSans-31" x="190.869141"/>
      </g>
     </g>
    </g>
    <g id="xtick_20">
     <g id="line2d_39">
      <path d="M 516.954545 384.48 
L 516.954545 51.84 
" clip-path="url(#pd510280d82)" style="fill: none; stroke: #ffffff; stroke-width: 0.8; stroke-linecap: square"/>
     </g>
     <g id="line2d_40">
      <g>
       <use xlink:href="#m136b019985" x="516.954545" y="384.48" style="fill: #ffffff; stroke: #ffffff; stroke-width: 0.8"/>
      </g>
     </g>
     <g id="text_20">
      <!-- 3801 -->
      <g style="fill: #ffffff" transform="translate(509.907784 414.848774) rotate(-45) scale(0.1 -0.1)">
       <use xlink:href="#DejaVuSans-33"/>
       <use xlink:href="#DejaVuSans-38" x="63.623047"/>
       <use xlink:href="#DejaVuSans-30" x="127.246094"/>
       <use xlink:href="#DejaVuSans-31" x="190.869141"/>
      </g>
     </g>
    </g>
    <g id="xtick_21">
     <g id="line2d_41">
      <path d="M 538.090909 384.48 
L 538.090909 51.84 
" clip-path="url(#pd510280d82)" style="fill: none; stroke: #ffffff; stroke-width: 0.8; stroke-linecap: square"/>
     </g>
     <g id="line2d_42">
      <g>
       <use xlink:href="#m136b019985" x="538.090909" y="384.48" style="fill: #ffffff; stroke: #ffffff; stroke-width: 0.8"/>
      </g>
     </g>
     <g id="text_21">
      <!-- 4001 -->
      <g style="fill: #ffffff" transform="translate(531.044148 414.848774) rotate(-45) scale(0.1 -0.1)">
       <use xlink:href="#DejaVuSans-34"/>
       <use xlink:href="#DejaVuSans-30" x="63.623047"/>
       <use xlink:href="#DejaVuSans-30" x="127.246094"/>
       <use xlink:href="#DejaVuSans-31" x="190.869141"/>
      </g>
     </g>
    </g>
    <g id="xtick_22">
     <g id="line2d_43">
      <path d="M 559.227273 384.48 
L 559.227273 51.84 
" clip-path="url(#pd510280d82)" style="fill: none; stroke: #ffffff; stroke-width: 0.8; stroke-linecap: square"/>
     </g>
     <g id="line2d_44">
      <g>
       <use xlink:href="#m136b019985" x="559.227273" y="384.48" style="fill: #ffffff; stroke: #ffffff; stroke-width: 0.8"/>
      </g>
     </g>
     <g id="text_22">
      <!-- 4201 -->
      <g style="fill: #ffffff" transform="translate(552.180512 414.848774) rotate(-45) scale(0.1 -0.1)">
       <use xlink:href="#DejaVuSans-34"/>
       <use xlink:href="#DejaVuSans-32" x="63.623047"/>
       <use xlink:href="#DejaVuSans-30" x="127.246094"/>
       <use xlink:href="#DejaVuSans-31" x="190.869141"/>
      </g>
     </g>
    </g>
    <g id="xtick_23">
     <g id="line2d_45">
      <path d="M 580.363636 384.48 
L 580.363636 51.84 
" clip-path="url(#pd510280d82)" style="fill: none; stroke: #ffffff; stroke-width: 0.8; stroke-linecap: square"/>
     </g>
     <g id="line2d_46">
      <g>
       <use xlink:href="#m136b019985" x="580.363636" y="384.48" style="fill: #ffffff; stroke: #ffffff; stroke-width: 0.8"/>
      </g>
     </g>
     <g id="text_23">
      <!-- 4401 -->
      <g style="fill: #ffffff" transform="translate(573.316875 414.848774) rotate(-45) scale(0.1 -0.1)">
       <use xlink:href="#DejaVuSans-34"/>
       <use xlink:href="#DejaVuSans-34" x="63.623047"/>
       <use xlink:href="#DejaVuSans-30" x="127.246094"/>
       <use xlink:href="#DejaVuSans-31" x="190.869141"/>
      </g>
     </g>
    </g>
    <g id="xtick_24">
     <g id="line2d_47">
      <path d="M 601.5 384.48 
L 601.5 51.84 
" clip-path="url(#pd510280d82)" style="fill: none; stroke: #ffffff; stroke-width: 0.8; stroke-linecap: square"/>
     </g>
     <g id="line2d_48">
      <g>
       <use xlink:href="#m136b019985" x="601.5" y="384.48" style="fill: #ffffff; stroke: #ffffff; stroke-width: 0.8"/>
      </g>
     </g>
     <g id="text_24">
      <!-- 4601 -->
      <g style="fill: #ffffff" transform="translate(594.453239 414.848774) rotate(-45) scale(0.1 -0.1)">
       <use xlink:href="#DejaVuSans-34"/>
       <use xlink:href="#DejaVuSans-36" x="63.623047"/>
       <use xlink:href="#DejaVuSans-30" x="127.246094"/>
       <use xlink:href="#DejaVuSans-31" x="190.869141"/>
      </g>
     </g>
    </g>
    <g id="xtick_25">
     <g id="line2d_49">
      <path d="M 622.636364 384.48 
L 622.636364 51.84 
" clip-path="url(#pd510280d82)" style="fill: none; stroke: #ffffff; stroke-width: 0.8; stroke-linecap: square"/>
     </g>
     <g id="line2d_50">
      <g>
       <use xlink:href="#m136b019985" x="622.636364" y="384.48" style="fill: #ffffff; stroke: #ffffff; stroke-width: 0.8"/>
      </g>
     </g>
     <g id="text_25">
      <!-- 4801 -->
      <g style="fill: #ffffff" transform="translate(615.589603 414.848774) rotate(-45) scale(0.1 -0.1)">
       <use xlink:href="#DejaVuSans-34"/>
       <use xlink:href="#DejaVuSans-38" x="63.623047"/>
       <use xlink:href="#DejaVuSans-30" x="127.246094"/>
       <use xlink:href="#DejaVuSans-31" x="190.869141"/>
      </g>
     </g>
    </g>
    <g id="text_26">
     <!-- concurrency -->
     <g style="fill: #ffffff" transform="translate(338.239844 427.917773) scale(0.1 -0.1)">
      <defs>
       <path id="DejaVuSans-63" d="M 3122 3366 
L 3122 2828 
Q 2878 2963 2633 3030 
Q 2388 3097 2138 3097 
Q 1578 3097 1268 2742 
Q 959 2388 959 1747 
Q 959 1106 1268 751 
Q 1578 397 2138 397 
Q 2388 397 2633 464 
Q 2878 531 3122 666 
L 3122 134 
Q 2881 22 2623 -34 
Q 2366 -91 2075 -91 
Q 1284 -91 818 406 
Q 353 903 353 1747 
Q 353 2603 823 3093 
Q 1294 3584 2113 3584 
Q 2378 3584 2631 3529 
Q 2884 3475 3122 3366 
z
" transform="scale(0.015625)"/>
       <path id="DejaVuSans-6f" d="M 1959 3097 
Q 1497 3097 1228 2736 
Q 959 2375 959 1747 
Q 959 1119 1226 758 
Q 1494 397 1959 397 
Q 2419 397 2687 759 
Q 2956 1122 2956 1747 
Q 2956 2369 2687 2733 
Q 2419 3097 1959 3097 
z
M 1959 3584 
Q 2709 3584 3137 3096 
Q 3566 2609 3566 1747 
Q 3566 888 3137 398 
Q 2709 -91 1959 -91 
Q 1206 -91 779 398 
Q 353 888 353 1747 
Q 353 2609 779 3096 
Q 1206 3584 1959 3584 
z
" transform="scale(0.015625)"/>
       <path id="DejaVuSans-6e" d="M 3513 2113 
L 3513 0 
L 2938 0 
L 2938 2094 
Q 2938 2591 2744 2837 
Q 2550 3084 2163 3084 
Q 1697 3084 1428 2787 
Q 1159 2491 1159 1978 
L 1159 0 
L 581 0 
L 581 3500 
L 1159 3500 
L 1159 2956 
Q 1366 3272 1645 3428 
Q 1925 3584 2291 3584 
Q 2894 3584 3203 3211 
Q 3513 2838 3513 2113 
z
" transform="scale(0.015625)"/>
       <path id="DejaVuSans-75" d="M 544 1381 
L 544 3500 
L 1119 3500 
L 1119 1403 
Q 1119 906 1312 657 
Q 1506 409 1894 409 
Q 2359 409 2629 706 
Q 2900 1003 2900 1516 
L 2900 3500 
L 3475 3500 
L 3475 0 
L 2900 0 
L 2900 538 
Q 2691 219 2414 64 
Q 2138 -91 1772 -91 
Q 1169 -91 856 284 
Q 544 659 544 1381 
z
M 1991 3584 
L 1991 3584 
z
" transform="scale(0.015625)"/>
       <path id="DejaVuSans-72" d="M 2631 2963 
Q 2534 3019 2420 3045 
Q 2306 3072 2169 3072 
Q 1681 3072 1420 2755 
Q 1159 2438 1159 1844 
L 1159 0 
L 581 0 
L 581 3500 
L 1159 3500 
L 1159 2956 
Q 1341 3275 1631 3429 
Q 1922 3584 2338 3584 
Q 2397 3584 2469 3576 
Q 2541 3569 2628 3553 
L 2631 2963 
z
" transform="scale(0.015625)"/>
       <path id="DejaVuSans-65" d="M 3597 1894 
L 3597 1613 
L 953 1613 
Q 991 1019 1311 708 
Q 1631 397 2203 397 
Q 2534 397 2845 478 
Q 3156 559 3463 722 
L 3463 178 
Q 3153 47 2828 -22 
Q 2503 -91 2169 -91 
Q 1331 -91 842 396 
Q 353 884 353 1716 
Q 353 2575 817 3079 
Q 1281 3584 2069 3584 
Q 2775 3584 3186 3129 
Q 3597 2675 3597 1894 
z
M 3022 2063 
Q 3016 2534 2758 2815 
Q 2500 3097 2075 3097 
Q 1594 3097 1305 2825 
Q 1016 2553 972 2059 
L 3022 2063 
z
" transform="scale(0.015625)"/>
       <path id="DejaVuSans-79" d="M 2059 -325 
Q 1816 -950 1584 -1140 
Q 1353 -1331 966 -1331 
L 506 -1331 
L 506 -850 
L 844 -850 
Q 1081 -850 1212 -737 
Q 1344 -625 1503 -206 
L 1606 56 
L 191 3500 
L 800 3500 
L 1894 763 
L 2988 3500 
L 3597 3500 
L 2059 -325 
z
" transform="scale(0.015625)"/>
      </defs>
      <use xlink:href="#DejaVuSans-63"/>
      <use xlink:href="#DejaVuSans-6f" x="54.980469"/>
      <use xlink:href="#DejaVuSans-6e" x="116.162109"/>
      <use xlink:href="#DejaVuSans-63" x="179.541016"/>
      <use xlink:href="#DejaVuSans-75" x="234.521484"/>
      <use xlink:href="#DejaVuSans-72" x="297.900391"/>
      <use xlink:href="#DejaVuSans-72" x="337.263672"/>
      <use xlink:href="#DejaVuSans-65" x="376.126953"/>
      <use xlink:href="#DejaVuSans-6e" x="437.650391"/>
      <use xlink:href="#DejaVuSans-63" x="501.029297"/>
      <use xlink:href="#DejaVuSans-79" x="556.009766"/>
     </g>
    </g>
   </g>
   <g id="matplotlib.axis_2">
    <g id="ytick_1">
     <g id="line2d_51">
      <path d="M 90 344.860155 
L 648 344.860155 
" clip-path="url(#pd510280d82)" style="fill: none; stroke: #ffffff; stroke-width: 0.8; stroke-linecap: square"/>
     </g>
     <g id="line2d_52">
      <defs>
       <path id="maf4ad94d30" d="M 0 0 
L -3.5 0 
" style="stroke: #ffffff; stroke-width: 0.8"/>
      </defs>
      <g>
       <use xlink:href="#maf4ad94d30" x="90" y="344.860155" style="fill: #ffffff; stroke: #ffffff; stroke-width: 0.8"/>
      </g>
     </g>
     <g id="text_27">
      <!-- 75 -->
      <g style="fill: #ffffff" transform="translate(70.275 348.659373) scale(0.1 -0.1)">
       <defs>
        <path id="DejaVuSans-37" d="M 525 4666 
L 3525 4666 
L 3525 4397 
L 1831 0 
L 1172 0 
L 2766 4134 
L 525 4134 
L 525 4666 
z
" transform="scale(0.015625)"/>
        <path id="DejaVuSans-35" d="M 691 4666 
L 3169 4666 
L 3169 4134 
L 1269 4134 
L 1269 2991 
Q 1406 3038 1543 3061 
Q 1681 3084 1819 3084 
Q 2600 3084 3056 2656 
Q 3513 2228 3513 1497 
Q 3513 744 3044 326 
Q 2575 -91 1722 -91 
Q 1428 -91 1123 -41 
Q 819 9 494 109 
L 494 744 
Q 775 591 1075 516 
Q 1375 441 1709 441 
Q 2250 441 2565 725 
Q 2881 1009 2881 1497 
Q 2881 1984 2565 2268 
Q 2250 2553 1709 2553 
Q 1456 2553 1204 2497 
Q 953 2441 691 2322 
L 691 4666 
z
" transform="scale(0.015625)"/>
       </defs>
       <use xlink:href="#DejaVuSans-37"/>
       <use xlink:href="#DejaVuSans-35" x="63.623047"/>
      </g>
     </g>
    </g>
    <g id="ytick_2">
     <g id="line2d_53">
      <path d="M 90 304.762575 
L 648 304.762575 
" clip-path="url(#pd510280d82)" style="fill: none; stroke: #ffffff; stroke-width: 0.8; stroke-linecap: square"/>
     </g>
     <g id="line2d_54">
      <g>
       <use xlink:href="#maf4ad94d30" x="90" y="304.762575" style="fill: #ffffff; stroke: #ffffff; stroke-width: 0.8"/>
      </g>
     </g>
     <g id="text_28">
      <!-- 100 -->
      <g style="fill: #ffffff" transform="translate(63.9125 308.561794) scale(0.1 -0.1)">
       <use xlink:href="#DejaVuSans-31"/>
       <use xlink:href="#DejaVuSans-30" x="63.623047"/>
       <use xlink:href="#DejaVuSans-30" x="127.246094"/>
      </g>
     </g>
    </g>
    <g id="ytick_3">
     <g id="line2d_55">
      <path d="M 90 264.664995 
L 648 264.664995 
" clip-path="url(#pd510280d82)" style="fill: none; stroke: #ffffff; stroke-width: 0.8; stroke-linecap: square"/>
     </g>
     <g id="line2d_56">
      <g>
       <use xlink:href="#maf4ad94d30" x="90" y="264.664995" style="fill: #ffffff; stroke: #ffffff; stroke-width: 0.8"/>
      </g>
     </g>
     <g id="text_29">
      <!-- 125 -->
      <g style="fill: #ffffff" transform="translate(63.9125 268.464214) scale(0.1 -0.1)">
       <use xlink:href="#DejaVuSans-31"/>
       <use xlink:href="#DejaVuSans-32" x="63.623047"/>
       <use xlink:href="#DejaVuSans-35" x="127.246094"/>
      </g>
     </g>
    </g>
    <g id="ytick_4">
     <g id="line2d_57">
      <path d="M 90 224.567416 
L 648 224.567416 
" clip-path="url(#pd510280d82)" style="fill: none; stroke: #ffffff; stroke-width: 0.8; stroke-linecap: square"/>
     </g>
     <g id="line2d_58">
      <g>
       <use xlink:href="#maf4ad94d30" x="90" y="224.567416" style="fill: #ffffff; stroke: #ffffff; stroke-width: 0.8"/>
      </g>
     </g>
     <g id="text_30">
      <!-- 150 -->
      <g style="fill: #ffffff" transform="translate(63.9125 228.366635) scale(0.1 -0.1)">
       <use xlink:href="#DejaVuSans-31"/>
       <use xlink:href="#DejaVuSans-35" x="63.623047"/>
       <use xlink:href="#DejaVuSans-30" x="127.246094"/>
      </g>
     </g>
    </g>
    <g id="ytick_5">
     <g id="line2d_59">
      <path d="M 90 184.469836 
L 648 184.469836 
" clip-path="url(#pd510280d82)" style="fill: none; stroke: #ffffff; stroke-width: 0.8; stroke-linecap: square"/>
     </g>
     <g id="line2d_60">
      <g>
       <use xlink:href="#maf4ad94d30" x="90" y="184.469836" style="fill: #ffffff; stroke: #ffffff; stroke-width: 0.8"/>
      </g>
     </g>
     <g id="text_31">
      <!-- 175 -->
      <g style="fill: #ffffff" transform="translate(63.9125 188.269055) scale(0.1 -0.1)">
       <use xlink:href="#DejaVuSans-31"/>
       <use xlink:href="#DejaVuSans-37" x="63.623047"/>
       <use xlink:href="#DejaVuSans-35" x="127.246094"/>
      </g>
     </g>
    </g>
    <g id="ytick_6">
     <g id="line2d_61">
      <path d="M 90 144.372257 
L 648 144.372257 
" clip-path="url(#pd510280d82)" style="fill: none; stroke: #ffffff; stroke-width: 0.8; stroke-linecap: square"/>
     </g>
     <g id="line2d_62">
      <g>
       <use xlink:href="#maf4ad94d30" x="90" y="144.372257" style="fill: #ffffff; stroke: #ffffff; stroke-width: 0.8"/>
      </g>
     </g>
     <g id="text_32">
      <!-- 200 -->
      <g style="fill: #ffffff" transform="translate(63.9125 148.171475) scale(0.1 -0.1)">
       <use xlink:href="#DejaVuSans-32"/>
       <use xlink:href="#DejaVuSans-30" x="63.623047"/>
       <use xlink:href="#DejaVuSans-30" x="127.246094"/>
      </g>
     </g>
    </g>
    <g id="ytick_7">
     <g id="line2d_63">
      <path d="M 90 104.274677 
L 648 104.274677 
" clip-path="url(#pd510280d82)" style="fill: none; stroke: #ffffff; stroke-width: 0.8; stroke-linecap: square"/>
     </g>
     <g id="line2d_64">
      <g>
       <use xlink:href="#maf4ad94d30" x="90" y="104.274677" style="fill: #ffffff; stroke: #ffffff; stroke-width: 0.8"/>
      </g>
     </g>
     <g id="text_33">
      <!-- 225 -->
      <g style="fill: #ffffff" transform="translate(63.9125 108.073896) scale(0.1 -0.1)">
       <use xlink:href="#DejaVuSans-32"/>
       <use xlink:href="#DejaVuSans-32" x="63.623047"/>
       <use xlink:href="#DejaVuSans-35" x="127.246094"/>
      </g>
     </g>
    </g>
    <g id="ytick_8">
     <g id="line2d_65">
      <path d="M 90 64.177098 
L 648 64.177098 
" clip-path="url(#pd510280d82)" style="fill: none; stroke: #ffffff; stroke-width: 0.8; stroke-linecap: square"/>
     </g>
     <g id="line2d_66">
      <g>
       <use xlink:href="#maf4ad94d30" x="90" y="64.177098" style="fill: #ffffff; stroke: #ffffff; stroke-width: 0.8"/>
      </g>
     </g>
     <g id="text_34">
      <!-- 250 -->
      <g style="fill: #ffffff" transform="translate(63.9125 67.976316) scale(0.1 -0.1)">
       <use xlink:href="#DejaVuSans-32"/>
       <use xlink:href="#DejaVuSans-35" x="63.623047"/>
       <use xlink:href="#DejaVuSans-30" x="127.246094"/>
      </g>
     </g>
    </g>
    <g id="text_35">
     <!-- time (ms) -->
     <g style="fill: #ffffff" transform="translate(57.832812 242.421719) rotate(-90) scale(0.1 -0.1)">
      <defs>
       <path id="DejaVuSans-74" d="M 1172 4494 
L 1172 3500 
L 2356 3500 
L 2356 3053 
L 1172 3053 
L 1172 1153 
Q 1172 725 1289 603 
Q 1406 481 1766 481 
L 2356 481 
L 2356 0 
L 1766 0 
Q 1100 0 847 248 
Q 594 497 594 1153 
L 594 3053 
L 172 3053 
L 172 3500 
L 594 3500 
L 594 4494 
L 1172 4494 
z
" transform="scale(0.015625)"/>
       <path id="DejaVuSans-69" d="M 603 3500 
L 1178 3500 
L 1178 0 
L 603 0 
L 603 3500 
z
M 603 4863 
L 1178 4863 
L 1178 4134 
L 603 4134 
L 603 4863 
z
" transform="scale(0.015625)"/>
       <path id="DejaVuSans-6d" d="M 3328 2828 
Q 3544 3216 3844 3400 
Q 4144 3584 4550 3584 
Q 5097 3584 5394 3201 
Q 5691 2819 5691 2113 
L 5691 0 
L 5113 0 
L 5113 2094 
Q 5113 2597 4934 2840 
Q 4756 3084 4391 3084 
Q 3944 3084 3684 2787 
Q 3425 2491 3425 1978 
L 3425 0 
L 2847 0 
L 2847 2094 
Q 2847 2600 2669 2842 
Q 2491 3084 2119 3084 
Q 1678 3084 1418 2786 
Q 1159 2488 1159 1978 
L 1159 0 
L 581 0 
L 581 3500 
L 1159 3500 
L 1159 2956 
Q 1356 3278 1631 3431 
Q 1906 3584 2284 3584 
Q 2666 3584 2933 3390 
Q 3200 3197 3328 2828 
z
" transform="scale(0.015625)"/>
       <path id="DejaVuSans-20" transform="scale(0.015625)"/>
       <path id="DejaVuSans-28" d="M 1984 4856 
Q 1566 4138 1362 3434 
Q 1159 2731 1159 2009 
Q 1159 1288 1364 580 
Q 1569 -128 1984 -844 
L 1484 -844 
Q 1016 -109 783 600 
Q 550 1309 550 2009 
Q 550 2706 781 3412 
Q 1013 4119 1484 4856 
L 1984 4856 
z
" transform="scale(0.015625)"/>
       <path id="DejaVuSans-73" d="M 2834 3397 
L 2834 2853 
Q 2591 2978 2328 3040 
Q 2066 3103 1784 3103 
Q 1356 3103 1142 2972 
Q 928 2841 928 2578 
Q 928 2378 1081 2264 
Q 1234 2150 1697 2047 
L 1894 2003 
Q 2506 1872 2764 1633 
Q 3022 1394 3022 966 
Q 3022 478 2636 193 
Q 2250 -91 1575 -91 
Q 1294 -91 989 -36 
Q 684 19 347 128 
L 347 722 
Q 666 556 975 473 
Q 1284 391 1588 391 
Q 1994 391 2212 530 
Q 2431 669 2431 922 
Q 2431 1156 2273 1281 
Q 2116 1406 1581 1522 
L 1381 1569 
Q 847 1681 609 1914 
Q 372 2147 372 2553 
Q 372 3047 722 3315 
Q 1072 3584 1716 3584 
Q 2034 3584 2315 3537 
Q 2597 3491 2834 3397 
z
" transform="scale(0.015625)"/>
       <path id="DejaVuSans-29" d="M 513 4856 
L 1013 4856 
Q 1481 4119 1714 3412 
Q 1947 2706 1947 2009 
Q 1947 1309 1714 600 
Q 1481 -109 1013 -844 
L 513 -844 
Q 928 -128 1133 580 
Q 1338 1288 1338 2009 
Q 1338 2731 1133 3434 
Q 928 4138 513 4856 
z
" transform="scale(0.015625)"/>
      </defs>
      <use xlink:href="#DejaVuSans-74"/>
      <use xlink:href="#DejaVuSans-69" x="39.208984"/>
      <use xlink:href="#DejaVuSans-6d" x="66.992188"/>
      <use xlink:href="#DejaVuSans-65" x="164.404297"/>
      <use xlink:href="#DejaVuSans-20" x="225.927734"/>
      <use xlink:href="#DejaVuSans-28" x="257.714844"/>
      <use xlink:href="#DejaVuSans-6d" x="296.728516"/>
      <use xlink:href="#DejaVuSans-73" x="394.140625"/>
      <use xlink:href="#DejaVuSans-29" x="446.240234"/>
     </g>
    </g>
   </g>
   <g id="line2d_67">
    <path d="M 115.363636 292.822969 
L 117.057368 306.007967 
L 118.7511 317.684911 
L 120.444832 327.931413 
L 122.138564 336.825084 
L 123.832296 344.443536 
L 125.526028 350.864382 
L 127.21976 356.165234 
L 128.913492 360.423703 
L 130.607224 363.717402 
L 131.45409 365.026716 
L 132.300956 366.123942 
L 133.147822 367.018781 
L 133.994688 367.720935 
L 134.841554 368.240105 
L 135.68842 368.585993 
L 136.535286 368.7683 
L 137.382152 368.796729 
L 138.229018 368.680979 
L 139.075884 368.430754 
L 140.769616 367.565679 
L 142.463348 366.279119 
L 144.15708 364.648683 
L 146.697678 361.728039 
L 150.085142 357.354664 
L 153.472606 353.002805 
L 156.013204 350.126537 
L 157.706936 348.539131 
L 159.400668 347.282523 
L 161.0944 346.326354 
L 162.788132 345.621699 
L 164.481864 345.119637 
L 167.022462 344.639387 
L 175.491122 343.415711 
L 177.184854 342.873685 
L 178.878586 342.118413 
L 180.572317 341.117834 
L 182.266049 339.895836 
L 184.806647 337.725288 
L 187.347245 335.256111 
L 192.428441 329.90083 
L 196.662771 325.582576 
L 199.203369 323.303017 
L 201.743967 321.391886 
L 204.284565 319.847865 
L 206.825163 318.608757 
L 209.365761 317.61171 
L 212.753225 316.550225 
L 224.609349 313.222156 
L 227.996813 311.937086 
L 231.384277 310.45805 
L 235.618607 308.337306 
L 239.852937 305.915369 
L 244.087267 303.197144 
L 254.249659 296.422643 
L 257.637122 294.537881 
L 260.17772 293.382619 
L 262.718318 292.510022 
L 265.258916 291.965379 
L 267.799514 291.712175 
L 270.340112 291.673354 
L 274.574442 291.874989 
L 279.655638 292.115248 
L 282.196236 292.054208 
L 284.736834 291.769284 
L 287.277432 291.205102 
L 289.81803 290.369435 
L 292.358628 289.281336 
L 294.899226 287.959861 
L 297.439824 286.424065 
L 300.827288 284.075881 
L 304.214752 281.425724 
L 308.449082 277.770481 
L 316.070876 271.079643 
L 318.611474 269.100413 
L 321.152072 267.371844 
L 323.69267 265.969017 
L 325.386402 265.251845 
L 327.080134 264.734973 
L 328.773866 264.423352 
L 331.314463 264.268006 
L 333.855061 264.374676 
L 342.323721 264.997781 
L 344.017453 264.890577 
L 345.711185 264.618608 
L 347.404917 264.14438 
L 349.098649 263.435218 
L 350.792381 262.503466 
L 353.332979 260.769242 
L 355.873577 258.742493 
L 366.035969 250.216518 
L 368.576567 248.60685 
L 370.270299 247.776198 
L 371.964031 247.13328 
L 374.504629 246.446809 
L 377.892093 245.871613 
L 383.820155 245.036029 
L 386.360753 244.446783 
L 388.054485 243.891829 
L 389.748217 243.167475 
L 391.441949 242.243619 
L 393.135681 241.122074 
L 395.676279 239.107026 
L 398.216877 236.744995 
L 400.757475 234.09481 
L 404.144939 230.214674 
L 408.379268 225.003638 
L 419.388526 211.28165 
L 423.622856 206.397266 
L 427.01032 202.786223 
L 430.397784 199.511181 
L 432.938382 197.315639 
L 435.47898 195.373524 
L 438.019578 193.708554 
L 440.560176 192.344042 
L 443.100774 191.3033 
L 444.794506 190.800856 
L 446.488238 190.459578 
L 448.18197 190.286373 
L 449.875702 190.288148 
L 451.569434 190.47181 
L 453.263166 190.844268 
L 454.956898 191.405397 
L 457.497496 192.492378 
L 461.731826 194.408441 
L 463.425558 195.018951 
L 465.11929 195.441385 
L 466.813022 195.609756 
L 468.506754 195.458074 
L 470.200486 194.920352 
L 471.894218 193.930603 
L 473.58795 192.422838 
L 475.281682 190.332146 
L 476.975414 187.64948 
L 478.669146 184.447712 
L 480.362878 180.80624 
L 482.903475 174.693269 
L 486.290939 165.744726 
L 493.065867 147.493867 
L 495.606465 141.34698 
L 497.300197 137.66601 
L 498.993929 134.345417 
L 500.687661 131.380889 
L 502.381393 128.768086 
L 504.075125 126.50267 
L 505.768857 124.5803 
L 507.462589 122.996638 
L 509.156321 121.747343 
L 510.850053 120.828077 
L 512.543785 120.2345 
L 514.237517 119.962273 
L 515.931249 120.007055 
L 517.624981 120.363941 
L 519.318713 121.005401 
L 521.012445 121.874195 
L 523.553043 123.474011 
L 530.327971 128.068065 
L 532.021703 128.970114 
L 533.715435 129.65506 
L 535.409167 130.063646 
L 537.102899 130.136614 
L 538.796631 129.816384 
L 540.490363 129.104676 
L 542.184095 128.076939 
L 543.877827 126.81323 
L 547.265291 123.898127 
L 550.652755 120.999827 
L 552.346487 119.757122 
L 554.040219 118.758791 
L 555.733951 118.08489 
L 557.427683 117.815478 
L 558.274548 117.857474 
L 559.121414 118.030613 
L 559.96828 118.342504 
L 561.662012 119.351883 
L 563.355744 120.798913 
L 565.049476 122.591798 
L 567.590074 125.728798 
L 574.365002 134.532681 
L 576.058734 136.336094 
L 577.752466 137.796892 
L 579.446198 138.823278 
L 580.293064 139.144881 
L 581.13993 139.326032 
L 581.986796 139.371059 
L 582.833662 139.288532 
L 584.527394 138.775102 
L 586.221126 137.854315 
L 587.914858 136.594742 
L 589.60859 135.064954 
L 592.149188 132.413622 
L 599.770982 124.051747 
L 601.464714 122.550468 
L 603.158446 121.327548 
L 604.852178 120.451559 
L 606.54591 119.991073 
L 607.392776 119.938073 
L 608.239642 120.014662 
L 609.086508 120.229413 
L 609.933374 120.590897 
L 610.78024 121.107686 
L 611.627106 121.78835 
L 612.473972 122.641462 
L 613.320838 123.675593 
L 614.167704 124.899314 
L 615.861436 127.949813 
L 617.555168 131.861531 
L 619.2489 136.70304 
L 620.942632 142.542911 
L 622.636364 149.449717 
L 622.636364 149.449717 
" clip-path="url(#pd510280d82)" style="fill: none; stroke: #8dd3c7; stroke-width: 1.5; stroke-linecap: square"/>
   </g>
   <g id="line2d_68">
    <path d="M 115.363636 286.277524 
L 117.057368 300.158043 
L 118.7511 312.508689 
L 120.444832 323.405144 
L 122.138564 332.923091 
L 123.832296 341.138211 
L 125.526028 348.126187 
L 127.21976 353.962699 
L 128.913492 358.723431 
L 130.607224 362.484064 
L 132.300956 365.32028 
L 133.147822 366.415382 
L 133.994688 367.307761 
L 134.841554 368.006876 
L 135.68842 368.522188 
L 136.535286 368.863158 
L 137.382152 369.039245 
L 138.229018 369.059909 
L 139.075884 368.934612 
L 139.92275 368.672813 
L 141.616482 367.777549 
L 143.310214 366.449801 
L 145.003946 364.765251 
L 146.697678 362.79958 
L 149.238276 359.489526 
L 156.013204 350.345394 
L 157.706936 348.397184 
L 159.400668 346.715643 
L 161.0944 345.286636 
L 162.788132 344.080589 
L 165.32873 342.624875 
L 167.869328 341.504469 
L 170.409926 340.619557 
L 180.572317 337.446474 
L 183.959781 335.944936 
L 188.194111 333.763176 
L 194.969039 329.927433 
L 200.897101 326.649482 
L 206.825163 323.698253 
L 216.987555 318.733373 
L 221.221885 316.416339 
L 225.456215 313.8477 
L 239.006071 305.403538 
L 242.393535 303.631457 
L 245.780999 302.1275 
L 249.168463 300.88866 
L 252.555927 299.899454 
L 255.94339 299.144402 
L 259.330854 298.608021 
L 262.718318 298.274831 
L 266.952648 298.104627 
L 277.961906 297.837017 
L 281.34937 297.44495 
L 283.889968 296.954008 
L 286.430566 296.254489 
L 288.971164 295.339331 
L 291.511762 294.215016 
L 294.05236 292.888112 
L 296.592958 291.365187 
L 299.980422 289.041047 
L 303.367886 286.395665 
L 306.75535 283.445852 
L 318.611474 272.673666 
L 321.152072 270.824785 
L 323.69267 269.325022 
L 325.386402 268.560683 
L 327.080134 268.013734 
L 328.773866 267.690833 
L 330.467598 267.559024 
L 333.008195 267.636099 
L 336.395659 268.051388 
L 341.476855 268.723667 
L 344.017453 268.802858 
L 345.711185 268.673002 
L 347.404917 268.352488 
L 349.098649 267.807946 
L 350.792381 267.050871 
L 353.332979 265.595471 
L 355.873577 263.86491 
L 365.189103 257.139476 
L 367.729701 255.740011 
L 369.423433 255.030956 
L 371.117165 254.514272 
L 373.657763 253.991823 
L 379.585825 252.990448 
L 381.279557 252.513192 
L 382.973289 251.850302 
L 384.667021 250.946863 
L 386.360753 249.747959 
L 388.054485 248.198674 
L 389.748217 246.244091 
L 391.441949 243.83899 
L 393.135681 241.016902 
L 395.676279 236.159095 
L 398.216877 230.767893 
L 407.532402 210.367544 
L 410.073 205.703342 
L 411.766732 203.047832 
L 413.460464 200.801461 
L 415.154196 198.933151 
L 416.847928 197.405331 
L 418.54166 196.180431 
L 420.235392 195.220877 
L 421.929124 194.4891 
L 423.622856 193.947528 
L 426.163454 193.409617 
L 429.550918 193.007453 
L 435.47898 192.377139 
L 443.94764 191.3099 
L 447.335104 191.144155 
L 449.875702 191.2196 
L 452.4163 191.5176 
L 454.956898 192.07792 
L 462.578692 194.170908 
L 464.272424 194.381335 
L 465.966156 194.384133 
L 467.659888 194.126216 
L 469.35362 193.5545 
L 471.047352 192.6159 
L 472.741084 191.25733 
L 474.434816 189.425707 
L 476.128548 187.07823 
L 477.82228 184.236172 
L 479.516012 180.945429 
L 481.209744 177.251952 
L 483.750341 171.057122 
L 486.290939 164.2146 
L 489.678403 154.351756 
L 495.606465 136.090135 
L 499.840795 123.209518 
L 503.228259 113.650409 
L 505.768857 107.21571 
L 507.462589 103.382815 
L 509.156321 99.982072 
L 510.850053 97.07059 
L 512.543785 94.70548 
L 514.237517 92.943849 
L 515.084383 92.307185 
L 515.931249 91.842808 
L 516.778115 91.557855 
L 517.624981 91.457808 
L 518.471847 91.535558 
L 519.318713 91.778221 
L 520.165579 92.172882 
L 521.859311 93.366546 
L 523.553043 95.013236 
L 525.246775 97.009641 
L 527.787373 100.433965 
L 532.868569 107.551103 
L 534.562301 109.624222 
L 536.256033 111.375522 
L 537.949765 112.701692 
L 538.796631 113.175091 
L 540.490363 113.747362 
L 542.184095 113.873991 
L 543.877827 113.619505 
L 545.571559 113.04843 
L 547.265291 112.22529 
L 549.805889 110.659112 
L 556.580817 106.075881 
L 558.274548 105.187144 
L 559.96828 104.529081 
L 561.662012 104.127067 
L 563.355744 103.961802 
L 565.049476 104.011425 
L 566.743208 104.254074 
L 568.43694 104.667888 
L 570.977538 105.56172 
L 573.518136 106.717699 
L 576.9056 108.539266 
L 596.383518 119.637372 
L 602.31158 122.662399 
L 607.392776 125.042343 
L 612.473972 127.187407 
L 617.555168 129.061286 
L 621.789498 130.389505 
L 622.636364 130.627676 
L 622.636364 130.627676 
" clip-path="url(#pd510280d82)" style="fill: none; stroke: #feffb3; stroke-width: 1.5; stroke-linecap: square"/>
   </g>
   <g id="line2d_69">
    <path d="M 115.363636 293.605927 
L 117.057368 306.32548 
L 118.7511 317.617172 
L 120.444832 327.553256 
L 122.138564 336.205986 
L 123.832296 343.647615 
L 125.526028 349.950399 
L 127.21976 355.186589 
L 128.913492 359.428441 
L 130.607224 362.748208 
L 132.300956 365.218144 
L 133.147822 366.157005 
L 133.994688 366.910502 
L 134.841554 367.487669 
L 135.68842 367.897537 
L 136.535286 368.149137 
L 137.382152 368.251502 
L 138.229018 368.213663 
L 139.075884 368.044651 
L 140.769616 367.349238 
L 142.463348 366.237516 
L 144.15708 364.78174 
L 145.850812 363.054163 
L 148.39141 360.111225 
L 155.166338 351.922891 
L 156.86007 350.189794 
L 158.553802 348.723825 
L 160.247534 347.537547 
L 161.941266 346.592659 
L 163.634998 345.849054 
L 166.175596 345.02332 
L 169.56306 344.252512 
L 174.644256 343.152086 
L 177.184854 342.333702 
L 178.878586 341.596884 
L 180.572317 340.673734 
L 183.112915 338.981743 
L 185.653513 337.002539 
L 189.040977 334.075307 
L 196.662771 327.343937 
L 199.203369 325.381521 
L 201.743967 323.702812 
L 204.284565 322.296001 
L 207.672029 320.73273 
L 212.753225 318.74726 
L 217.834421 316.735029 
L 221.221885 315.124189 
L 224.609349 313.176156 
L 228.843679 310.419352 
L 236.465473 305.372172 
L 239.852937 303.430694 
L 242.393535 302.21731 
L 244.934133 301.254446 
L 247.474731 300.50857 
L 250.862195 299.770277 
L 255.096525 299.102324 
L 262.718318 297.955008 
L 266.105782 297.210193 
L 270.340112 296.024345 
L 275.421308 294.336058 
L 296.592958 286.939201 
L 304.214752 284.679378 
L 321.152072 279.890854 
L 325.386402 278.321283 
L 328.773866 276.84175 
L 333.008195 274.739285 
L 339.783123 271.074035 
L 346.558051 267.47383 
L 350.792381 265.467837 
L 355.873577 263.335295 
L 362.648505 260.777958 
L 372.810897 256.990843 
L 376.198361 255.451956 
L 378.738959 254.053703 
L 381.279557 252.370012 
L 383.820155 250.332287 
L 385.513887 248.743243 
L 387.207619 246.946038 
L 388.901351 244.920347 
L 390.595083 242.646108 
L 393.135681 238.796449 
L 396.523145 233.140388 
L 402.451207 223.126684 
L 404.991805 219.305577 
L 406.685537 217.06229 
L 408.379268 215.131032 
L 410.073 213.570719 
L 411.766732 212.439745 
L 413.460464 211.753061 
L 415.154196 211.450314 
L 416.847928 211.46364 
L 418.54166 211.725176 
L 421.082258 212.434418 
L 427.01032 214.380752 
L 428.704052 214.706401 
L 430.397784 214.805211 
L 432.091516 214.60932 
L 433.785248 214.061651 
L 435.47898 213.181732 
L 437.172712 212.022242 
L 438.866444 210.63599 
L 441.407042 208.246955 
L 450.722568 199.018938 
L 452.4163 197.719753 
L 454.110032 196.66836 
L 455.803764 195.872606 
L 458.344362 195.023662 
L 465.11929 193.19466 
L 466.813022 192.475483 
L 468.506754 191.518332 
L 470.200486 190.256608 
L 471.894218 188.623708 
L 473.58795 186.553032 
L 475.281682 183.979223 
L 476.975414 180.901475 
L 478.669146 177.413642 
L 481.209744 171.634778 
L 488.831537 153.552872 
L 490.525269 150.033458 
L 492.219001 146.915107 
L 493.912733 144.299213 
L 495.606465 142.287171 
L 496.453331 141.537479 
L 497.300197 140.957504 
L 498.147063 140.534385 
L 498.993929 140.255194 
L 499.840795 140.107004 
L 501.534527 140.151911 
L 503.228259 140.565685 
L 504.921991 141.244901 
L 508.309455 142.985969 
L 510.850053 144.219348 
L 512.543785 144.813195 
L 514.237517 145.103658 
L 515.084383 145.102801 
L 515.931249 144.987314 
L 516.778115 144.744269 
L 517.624981 144.362583 
L 519.318713 143.201413 
L 521.012445 141.572309 
L 522.706177 139.55034 
L 524.399909 137.210575 
L 526.940507 133.26927 
L 535.409167 119.440195 
L 537.102899 117.109749 
L 538.796631 115.09866 
L 540.490363 113.448401 
L 542.184095 112.159824 
L 543.877827 111.231241 
L 545.571559 110.660967 
L 547.265291 110.447315 
L 548.959023 110.588597 
L 550.652755 111.083127 
L 552.346487 111.929218 
L 554.040219 113.125183 
L 555.733951 114.669336 
L 557.427683 116.559988 
L 559.121414 118.795455 
L 560.815146 121.362197 
L 563.355744 125.673317 
L 570.977538 139.154494 
L 572.67127 141.697344 
L 574.365002 143.88485 
L 576.058734 145.629026 
L 576.9056 146.307372 
L 577.752466 146.841891 
L 578.599332 147.221587 
L 579.446198 147.435461 
L 580.293064 147.472515 
L 581.13993 147.324676 
L 581.986796 146.998898 
L 582.833662 146.506955 
L 583.680528 145.860621 
L 585.37426 144.151881 
L 587.067992 141.966876 
L 588.761724 139.399806 
L 591.302322 135.038886 
L 598.924116 121.249131 
L 600.617848 118.645165 
L 602.31158 116.412722 
L 604.005312 114.646003 
L 604.852178 113.966727 
L 605.699044 113.439206 
L 606.54591 113.075215 
L 607.392776 112.886528 
L 608.239642 112.884922 
L 609.086508 113.08217 
L 609.933374 113.490048 
L 610.78024 114.12033 
L 611.627106 114.984791 
L 612.473972 116.095206 
L 613.320838 117.46335 
L 614.167704 119.100998 
L 615.01457 121.019924 
L 616.708302 125.748711 
L 618.402034 131.743911 
L 620.095766 139.099721 
L 621.789498 147.910341 
L 622.636364 152.890642 
L 622.636364 152.890642 
" clip-path="url(#pd510280d82)" style="fill: none; stroke: #bfbbd9; stroke-width: 1.5; stroke-linecap: square"/>
   </g>
   <g id="line2d_70">
    <path d="M 115.363636 288.68113 
L 117.057368 302.200224 
L 118.7511 314.230229 
L 120.444832 324.84477 
L 122.138564 334.117472 
L 123.832296 342.12196 
L 125.526028 348.931857 
L 127.21976 354.620789 
L 128.913492 359.262379 
L 130.607224 362.930253 
L 132.300956 365.698035 
L 133.147822 366.767399 
L 133.994688 367.639349 
L 134.841554 368.323089 
L 135.68842 368.82782 
L 136.535286 369.162748 
L 137.382152 369.337073 
L 138.229018 369.36 
L 139.075884 369.240732 
L 139.92275 368.988471 
L 141.616482 368.121784 
L 143.310214 366.833565 
L 145.003946 365.197437 
L 146.697678 363.287025 
L 149.238276 360.06818 
L 156.013204 351.167036 
L 157.706936 349.268376 
L 159.400668 347.629007 
L 161.0944 346.238242 
L 162.788132 345.070904 
L 164.481864 344.101814 
L 167.022462 342.964817 
L 169.56306 342.13225 
L 172.950524 341.348845 
L 183.112915 339.382294 
L 186.500379 338.410376 
L 189.887843 337.193057 
L 193.275307 335.691802 
L 195.815905 334.356346 
L 198.356503 332.823242 
L 200.897101 331.077017 
L 204.284565 328.454198 
L 210.212627 323.467674 
L 215.293823 319.313931 
L 218.681287 316.874297 
L 221.221885 315.325071 
L 223.762483 314.060232 
L 226.303081 313.029156 
L 229.690545 311.899843 
L 239.006071 308.987138 
L 241.546669 307.922789 
L 244.087267 306.623351 
L 247.474731 304.57823 
L 253.402793 300.60768 
L 257.637122 297.884298 
L 260.17772 296.452057 
L 262.718318 295.257339 
L 265.258916 294.359723 
L 267.799514 293.727892 
L 271.186978 293.166855 
L 280.502504 291.876395 
L 283.043102 291.230835 
L 285.5837 290.316872 
L 288.124298 289.129278 
L 291.511762 287.250134 
L 300.827288 281.792111 
L 303.367886 280.599256 
L 305.908484 279.682688 
L 308.449082 279.089024 
L 310.98968 278.774978 
L 313.530278 278.681868 
L 316.917742 278.799974 
L 327.927 279.495325 
L 330.467598 279.390217 
L 333.008195 279.098341 
L 335.548793 278.58967 
L 338.089391 277.834181 
L 340.629989 276.801846 
L 343.170587 275.46264 
L 345.711185 273.786538 
L 348.251783 271.743609 
L 350.792381 269.344207 
L 354.179845 265.788769 
L 360.107907 259.447141 
L 362.648505 257.017779 
L 365.189103 254.94819 
L 366.882835 253.832163 
L 368.576567 252.971773 
L 370.270299 252.398397 
L 371.964031 252.08321 
L 373.657763 251.966387 
L 376.198361 252.031657 
L 381.279557 252.284522 
L 382.973289 252.184757 
L 384.667021 251.892833 
L 386.360753 251.348667 
L 388.054485 250.492179 
L 389.748217 249.263288 
L 391.441949 247.612081 
L 393.135681 245.571234 
L 394.829413 243.21358 
L 397.370011 239.242984 
L 406.685537 223.979572 
L 408.379268 221.718968 
L 410.073 219.799433 
L 411.766732 218.293466 
L 413.460464 217.223778 
L 415.154196 216.52677 
L 416.847928 216.130236 
L 418.54166 215.961972 
L 421.082258 215.979631 
L 425.316588 216.127498 
L 427.01032 216.017498 
L 428.704052 215.702534 
L 430.397784 215.110401 
L 432.091516 214.168894 
L 433.785248 212.819829 
L 435.47898 211.1046 
L 437.172712 209.107691 
L 439.71331 205.769359 
L 444.794506 198.905621 
L 446.488238 196.872682 
L 448.18197 195.108322 
L 449.875702 193.697196 
L 451.569434 192.72396 
L 452.4163 192.428006 
L 453.263166 192.27327 
L 454.110032 192.26908 
L 454.956898 192.410193 
L 456.65063 193.069593 
L 458.344362 194.133213 
L 460.038094 195.482642 
L 466.813022 201.370198 
L 468.506754 202.372487 
L 469.35362 202.721782 
L 470.200486 202.95011 
L 471.047352 203.042669 
L 471.894218 202.984657 
L 472.741084 202.761273 
L 473.58795 202.357715 
L 474.434816 201.759181 
L 475.281682 200.952548 
L 476.128548 199.941513 
L 477.82228 197.359953 
L 479.516012 194.122518 
L 481.209744 190.337344 
L 483.750341 183.869122 
L 487.137805 174.337008 
L 492.219001 159.850721 
L 494.759599 153.313667 
L 496.453331 149.463731 
L 498.147063 146.089439 
L 499.840795 143.165131 
L 501.534527 140.659474 
L 503.228259 138.541136 
L 504.921991 136.778782 
L 506.615723 135.341079 
L 508.309455 134.196695 
L 510.003187 133.314295 
L 511.696919 132.662546 
L 513.390651 132.210114 
L 515.931249 131.836647 
L 518.471847 131.734334 
L 526.940507 131.70394 
L 528.634239 131.454065 
L 530.327971 131.029173 
L 532.021703 130.389084 
L 533.715435 129.493619 
L 535.409167 128.302598 
L 537.102899 126.775841 
L 538.796631 124.874915 
L 540.490363 122.62301 
L 543.030961 118.806906 
L 548.112157 110.891478 
L 549.805889 108.55263 
L 551.499621 106.537933 
L 553.193353 104.951993 
L 554.040219 104.352495 
L 554.887085 103.899411 
L 555.733951 103.605819 
L 556.580817 103.484792 
L 557.427683 103.549406 
L 558.274548 103.812737 
L 559.121414 104.287861 
L 559.96828 104.984544 
L 560.815146 105.893243 
L 562.508878 108.28053 
L 564.20261 111.317367 
L 565.896342 114.871388 
L 568.43694 120.882591 
L 575.211868 137.748092 
L 576.9056 141.437403 
L 578.599332 144.651158 
L 580.293064 147.25699 
L 581.13993 148.293683 
L 581.986796 149.150976 
L 582.833662 149.836559 
L 583.680528 150.358119 
L 584.527394 150.723349 
L 585.37426 150.939938 
L 586.221126 151.015576 
L 587.067992 150.957953 
L 587.914858 150.774759 
L 589.60859 150.062419 
L 591.302322 148.940078 
L 592.996054 147.469255 
L 594.689786 145.711472 
L 597.230384 142.671324 
L 601.464714 137.041152 
L 604.852178 132.58377 
L 607.392776 129.590991 
L 609.086508 127.877946 
L 610.78024 126.462388 
L 612.473972 125.405838 
L 614.167704 124.769815 
L 615.01457 124.628728 
L 615.861436 124.615843 
L 616.708302 124.73885 
L 617.555168 125.00544 
L 618.402034 125.423302 
L 619.2489 126.000127 
L 620.095766 126.743605 
L 620.942632 127.661427 
L 621.789498 128.761281 
L 622.636364 130.050858 
L 622.636364 130.050858 
" clip-path="url(#pd510280d82)" style="fill: none; stroke: #fa8174; stroke-width: 1.5; stroke-linecap: square"/>
   </g>
   <g id="line2d_71">
    <path d="M 115.363636 291.169217 
L 117.057368 303.983221 
L 118.7511 315.401576 
L 120.444832 325.492879 
L 122.138564 334.325723 
L 123.832296 341.968704 
L 125.526028 348.490417 
L 127.21976 353.959456 
L 128.913492 358.444417 
L 130.607224 362.013894 
L 132.300956 364.736482 
L 133.147822 365.80163 
L 133.994688 366.680777 
L 134.841554 367.382501 
L 135.68842 367.915374 
L 136.535286 368.287971 
L 137.382152 368.508866 
L 138.229018 368.586635 
L 139.075884 368.52985 
L 139.92275 368.347087 
L 141.616482 367.637923 
L 143.310214 366.527738 
L 145.003946 365.085126 
L 146.697678 363.378683 
L 149.238276 360.474385 
L 156.013204 352.342591 
L 157.706936 350.593243 
L 159.400668 349.076115 
L 161.0944 347.776396 
L 163.634998 346.170697 
L 166.175596 344.890209 
L 169.56306 343.51874 
L 177.184854 340.699507 
L 179.725452 339.493402 
L 182.266049 338.055641 
L 185.653513 335.87336 
L 197.509637 327.835531 
L 200.050235 326.43446 
L 202.590833 325.259401 
L 205.978297 323.975204 
L 210.212627 322.642336 
L 216.987555 320.544307 
L 220.375019 319.236654 
L 222.915617 318.043322 
L 226.303081 316.186875 
L 230.537411 313.586595 
L 239.852937 307.732549 
L 243.240401 305.884853 
L 246.627865 304.285716 
L 250.862195 302.528534 
L 261.871452 298.144429 
L 266.105782 296.116111 
L 277.11504 290.527003 
L 280.502504 289.162336 
L 283.043102 288.374444 
L 285.5837 287.84053 
L 288.124298 287.54793 
L 291.511762 287.392157 
L 297.439824 287.198246 
L 299.980422 286.925361 
L 302.52102 286.415791 
L 304.214752 285.902598 
L 305.908484 285.221291 
L 308.449082 283.873745 
L 310.98968 282.21947 
L 314.377144 279.717502 
L 321.152072 274.627948 
L 323.69267 273.009677 
L 326.233268 271.712536 
L 327.927 271.074419 
L 329.620732 270.615199 
L 332.161329 270.203145 
L 334.701927 270.042162 
L 338.936257 270.08411 
L 344.017453 270.126235 
L 346.558051 269.931157 
L 349.098649 269.47302 
L 351.639247 268.727743 
L 354.179845 267.738106 
L 357.567309 266.117782 
L 361.801639 263.761876 
L 379.585825 253.179548 
L 382.126423 251.336467 
L 384.667021 249.235348 
L 387.207619 246.812859 
L 389.748217 244.005668 
L 392.288815 240.773341 
L 395.676279 235.994122 
L 402.451207 226.270673 
L 404.991805 223.064425 
L 406.685537 221.190739 
L 408.379268 219.584301 
L 410.073 218.293285 
L 411.766732 217.365388 
L 413.460464 216.809139 
L 415.154196 216.565154 
L 416.847928 216.567281 
L 419.388526 216.887217 
L 425.316588 217.95419 
L 427.01032 218.04375 
L 428.704052 217.916344 
L 430.397784 217.505816 
L 432.091516 216.746014 
L 433.785248 215.58342 
L 435.47898 214.054244 
L 437.172712 212.233525 
L 439.71331 209.12029 
L 446.488238 200.368473 
L 448.18197 198.485579 
L 449.875702 196.875098 
L 451.569434 195.612224 
L 453.263166 194.772151 
L 454.110032 194.53305 
L 455.803764 194.398081 
L 457.497496 194.633605 
L 459.191228 195.134595 
L 462.578692 196.512876 
L 465.11929 197.462308 
L 466.813022 197.858207 
L 468.506754 197.941933 
L 469.35362 197.833909 
L 470.200486 197.608457 
L 471.047352 197.252449 
L 471.894218 196.752757 
L 472.741084 196.096251 
L 473.58795 195.269804 
L 474.434816 194.260288 
L 476.128548 191.662676 
L 477.82228 188.365662 
L 479.516012 184.486895 
L 482.05661 177.835566 
L 485.444073 168.03012 
L 490.525269 153.227738 
L 493.065867 146.645298 
L 494.759599 142.830121 
L 496.453331 139.609188 
L 498.147063 137.024316 
L 499.840795 135.01422 
L 501.534527 133.51002 
L 503.228259 132.442835 
L 504.921991 131.743786 
L 506.615723 131.343992 
L 508.309455 131.174573 
L 510.850053 131.201721 
L 515.931249 131.416224 
L 517.624981 131.283127 
L 519.318713 130.953385 
L 521.012445 130.404211 
L 522.706177 129.614581 
L 524.399909 128.563467 
L 526.093641 127.229843 
L 527.787373 125.592682 
L 529.481105 123.630959 
L 531.174837 121.323647 
L 532.868569 118.649719 
L 534.562301 115.588149 
L 536.256033 112.117911 
L 537.949765 108.217978 
L 540.490363 101.595271 
L 548.959023 78.270901 
L 550.652755 74.466025 
L 552.346487 71.287093 
L 553.193353 69.977794 
L 554.040219 68.879508 
L 554.887085 68.01041 
L 555.733951 67.388676 
L 556.580817 67.032481 
L 557.427683 66.96 
L 558.274548 67.18941 
L 559.121414 67.738885 
L 559.96828 68.621715 
L 560.815146 69.822647 
L 561.662012 71.316098 
L 563.355744 75.078172 
L 565.049476 79.703165 
L 566.743208 84.986302 
L 569.283806 93.697088 
L 574.365002 111.414473 
L 576.058734 116.657081 
L 577.752466 121.226806 
L 579.446198 124.918876 
L 580.293064 126.371797 
L 581.13993 127.533756 
L 581.986796 128.41134 
L 582.833662 129.019774 
L 583.680528 129.374285 
L 584.527394 129.490101 
L 585.37426 129.382449 
L 586.221126 129.066558 
L 587.067992 128.557655 
L 587.914858 127.870967 
L 589.60859 126.025151 
L 591.302322 123.650931 
L 592.996054 120.870129 
L 595.536652 116.203072 
L 600.617848 106.591424 
L 602.31158 103.75199 
L 604.005312 101.297817 
L 605.699044 99.350727 
L 606.54591 98.605407 
L 607.392776 98.032541 
L 608.239642 97.647357 
L 609.086508 97.465083 
L 609.933374 97.500945 
L 610.78024 97.770173 
L 611.627106 98.287993 
L 612.473972 99.069633 
L 613.320838 100.130322 
L 614.167704 101.485287 
L 615.01457 103.149755 
L 615.861436 105.138954 
L 616.708302 107.468113 
L 617.555168 110.152458 
L 619.2489 116.647621 
L 620.942632 124.746264 
L 622.636364 134.570209 
L 622.636364 134.570209 
" clip-path="url(#pd510280d82)" style="fill: none; stroke: #81b1d2; stroke-width: 1.5; stroke-linecap: square"/>
   </g>
   <g id="line2d_72">
    <path d="M 115.363636 288.900853 
L 117.057368 302.220444 
L 118.7511 314.077841 
L 120.444832 324.545607 
L 122.138564 333.696303 
L 123.832296 341.602491 
L 125.526028 348.336732 
L 127.21976 353.971589 
L 128.913492 358.579621 
L 130.607224 362.233392 
L 132.300956 365.005463 
L 133.147822 366.083536 
L 133.994688 366.968395 
L 134.841554 367.669109 
L 135.68842 368.19475 
L 136.535286 368.554386 
L 137.382152 368.757089 
L 138.229018 368.811928 
L 139.075884 368.727974 
L 139.92275 368.514297 
L 141.616482 367.734054 
L 143.310214 366.543762 
L 145.003946 365.015981 
L 146.697678 363.223273 
L 149.238276 360.196203 
L 156.013204 351.870411 
L 157.706936 350.124367 
L 159.400668 348.638066 
L 161.0944 347.395539 
L 162.788132 346.365598 
L 165.32873 345.151061 
L 167.869328 344.239409 
L 171.256792 343.313095 
L 177.184854 341.786973 
L 179.725452 340.89818 
L 182.266049 339.771166 
L 184.806647 338.428446 
L 188.194111 336.350896 
L 191.581575 334.005751 
L 195.815905 330.798894 
L 202.590833 325.336526 
L 209.365761 319.940448 
L 213.600091 316.847732 
L 216.987555 314.639127 
L 220.375019 312.741749 
L 222.915617 311.55967 
L 226.303081 310.267237 
L 230.537411 308.953619 
L 239.852937 306.237609 
L 243.240401 304.967144 
L 246.627865 303.453541 
L 259.330854 297.457215 
L 261.871452 296.551269 
L 264.41205 295.85438 
L 266.952648 295.369181 
L 270.340112 294.963783 
L 276.268174 294.561894 
L 280.502504 294.196867 
L 283.889968 293.667497 
L 286.430566 293.055191 
L 289.81803 291.956804 
L 293.205494 290.60095 
L 297.439824 288.652137 
L 321.152072 277.009213 
L 325.386402 274.674513 
L 329.620732 272.078084 
L 335.548793 268.110512 
L 344.864319 261.831358 
L 349.098649 259.259235 
L 352.486113 257.432497 
L 355.873577 255.845736 
L 359.261041 254.528444 
L 362.648505 253.510115 
L 365.189103 252.960304 
L 367.729701 252.607691 
L 370.270299 252.461793 
L 378.738959 252.343331 
L 381.279557 251.927982 
L 382.973289 251.435162 
L 384.667021 250.725354 
L 386.360753 249.760627 
L 388.054485 248.50305 
L 389.748217 246.914693 
L 391.441949 244.966575 
L 393.135681 242.702424 
L 395.676279 238.886682 
L 403.298073 226.917189 
L 404.991805 224.659816 
L 406.685537 222.720647 
L 408.379268 221.178994 
L 410.073 220.114164 
L 410.919866 219.785342 
L 411.766732 219.604716 
L 412.613598 219.569425 
L 413.460464 219.666941 
L 415.154196 220.20918 
L 416.847928 221.129012 
L 418.54166 222.324013 
L 421.929124 225.129833 
L 424.469722 227.19475 
L 426.163454 228.360534 
L 427.857186 229.238163 
L 429.550918 229.725214 
L 430.397784 229.790266 
L 431.24465 229.719265 
L 432.091516 229.499409 
L 432.938382 229.118901 
L 433.785248 228.579618 
L 435.47898 227.071865 
L 437.172712 225.071512 
L 438.866444 222.674139 
L 441.407042 218.542747 
L 449.875702 204.014823 
L 451.569434 201.686404 
L 453.263166 199.773392 
L 454.956898 198.354003 
L 456.65063 197.39101 
L 458.344362 196.800092 
L 460.038094 196.49679 
L 462.578692 196.39636 
L 467.659888 196.4266 
L 469.35362 196.195469 
L 471.047352 195.702967 
L 472.741084 194.864633 
L 474.434816 193.596009 
L 476.128548 191.827329 
L 477.82228 189.580347 
L 479.516012 186.911995 
L 481.209744 183.879278 
L 483.750341 178.771719 
L 487.137805 171.218415 
L 497.300197 147.789601 
L 499.840795 142.676897 
L 502.381393 138.049044 
L 504.921991 133.950348 
L 506.615723 131.533738 
L 508.309455 129.385128 
L 510.003187 127.517644 
L 511.696919 125.944414 
L 513.390651 124.678566 
L 515.084383 123.733226 
L 516.778115 123.121523 
L 518.471847 122.849608 
L 520.165579 122.885423 
L 521.859311 123.183891 
L 523.553043 123.699926 
L 526.093641 124.783285 
L 529.481105 126.568431 
L 533.715435 128.840132 
L 536.256033 129.954107 
L 537.949765 130.499055 
L 539.643497 130.843018 
L 541.337229 131.000953 
L 543.877827 130.957015 
L 546.418425 130.66929 
L 556.580817 129.178036 
L 559.121414 129.244512 
L 560.815146 129.488168 
L 563.355744 130.117162 
L 566.743208 131.292144 
L 574.365002 134.185526 
L 576.9056 134.871215 
L 578.599332 135.164475 
L 580.293064 135.292072 
L 581.986796 135.232483 
L 583.680528 135.000953 
L 586.221126 134.387392 
L 588.761724 133.53129 
L 592.996054 131.800668 
L 598.07725 129.716601 
L 600.617848 128.87363 
L 603.158446 128.27883 
L 604.852178 128.062933 
L 606.54591 128.021479 
L 608.239642 128.180127 
L 609.933374 128.564535 
L 611.627106 129.200361 
L 613.320838 130.113263 
L 615.01457 131.3289 
L 616.708302 132.872929 
L 618.402034 134.77101 
L 620.095766 137.048799 
L 621.789498 139.731956 
L 622.636364 141.233566 
L 622.636364 141.233566 
" clip-path="url(#pd510280d82)" style="fill: none; stroke: #fdb462; stroke-width: 1.5; stroke-linecap: square"/>
   </g>
   <g id="patch_3">
    <path d="M 90 384.48 
L 90 51.84 
" style="fill: none; stroke: #ffffff; stroke-width: 0.8; stroke-linejoin: miter; stroke-linecap: square"/>
   </g>
   <g id="patch_4">
    <path d="M 648 384.48 
L 648 51.84 
" style="fill: none; stroke: #ffffff; stroke-width: 0.8; stroke-linejoin: miter; stroke-linecap: square"/>
   </g>
   <g id="patch_5">
    <path d="M 90 384.48 
L 648 384.48 
" style="fill: none; stroke: #ffffff; stroke-width: 0.8; stroke-linejoin: miter; stroke-linecap: square"/>
   </g>
   <g id="patch_6">
    <path d="M 90 51.84 
L 648 51.84 
" style="fill: none; stroke: #ffffff; stroke-width: 0.8; stroke-linejoin: miter; stroke-linecap: square"/>
   </g>
   <g id="text_36">
    <!-- caio.python_aio_asyncio - read (Time vs Concurrency) -->
    <g style="fill: #ffffff" transform="translate(207.036563 45.84) scale(0.12 -0.12)">
     <defs>
      <path id="DejaVuSans-61" d="M 2194 1759 
Q 1497 1759 1228 1600 
Q 959 1441 959 1056 
Q 959 750 1161 570 
Q 1363 391 1709 391 
Q 2188 391 2477 730 
Q 2766 1069 2766 1631 
L 2766 1759 
L 2194 1759 
z
M 3341 1997 
L 3341 0 
L 2766 0 
L 2766 531 
Q 2569 213 2275 61 
Q 1981 -91 1556 -91 
Q 1019 -91 701 211 
Q 384 513 384 1019 
Q 384 1609 779 1909 
Q 1175 2209 1959 2209 
L 2766 2209 
L 2766 2266 
Q 2766 2663 2505 2880 
Q 2244 3097 1772 3097 
Q 1472 3097 1187 3025 
Q 903 2953 641 2809 
L 641 3341 
Q 956 3463 1253 3523 
Q 1550 3584 1831 3584 
Q 2591 3584 2966 3190 
Q 3341 2797 3341 1997 
z
" transform="scale(0.015625)"/>
      <path id="DejaVuSans-2e" d="M 684 794 
L 1344 794 
L 1344 0 
L 684 0 
L 684 794 
z
" transform="scale(0.015625)"/>
      <path id="DejaVuSans-70" d="M 1159 525 
L 1159 -1331 
L 581 -1331 
L 581 3500 
L 1159 3500 
L 1159 2969 
Q 1341 3281 1617 3432 
Q 1894 3584 2278 3584 
Q 2916 3584 3314 3078 
Q 3713 2572 3713 1747 
Q 3713 922 3314 415 
Q 2916 -91 2278 -91 
Q 1894 -91 1617 61 
Q 1341 213 1159 525 
z
M 3116 1747 
Q 3116 2381 2855 2742 
Q 2594 3103 2138 3103 
Q 1681 3103 1420 2742 
Q 1159 2381 1159 1747 
Q 1159 1113 1420 752 
Q 1681 391 2138 391 
Q 2594 391 2855 752 
Q 3116 1113 3116 1747 
z
" transform="scale(0.015625)"/>
      <path id="DejaVuSans-68" d="M 3513 2113 
L 3513 0 
L 2938 0 
L 2938 2094 
Q 2938 2591 2744 2837 
Q 2550 3084 2163 3084 
Q 1697 3084 1428 2787 
Q 1159 2491 1159 1978 
L 1159 0 
L 581 0 
L 581 4863 
L 1159 4863 
L 1159 2956 
Q 1366 3272 1645 3428 
Q 1925 3584 2291 3584 
Q 2894 3584 3203 3211 
Q 3513 2838 3513 2113 
z
" transform="scale(0.015625)"/>
      <path id="DejaVuSans-5f" d="M 3263 -1063 
L 3263 -1509 
L -63 -1509 
L -63 -1063 
L 3263 -1063 
z
" transform="scale(0.015625)"/>
      <path id="DejaVuSans-2d" d="M 313 2009 
L 1997 2009 
L 1997 1497 
L 313 1497 
L 313 2009 
z
" transform="scale(0.015625)"/>
      <path id="DejaVuSans-64" d="M 2906 2969 
L 2906 4863 
L 3481 4863 
L 3481 0 
L 2906 0 
L 2906 525 
Q 2725 213 2448 61 
Q 2172 -91 1784 -91 
Q 1150 -91 751 415 
Q 353 922 353 1747 
Q 353 2572 751 3078 
Q 1150 3584 1784 3584 
Q 2172 3584 2448 3432 
Q 2725 3281 2906 2969 
z
M 947 1747 
Q 947 1113 1208 752 
Q 1469 391 1925 391 
Q 2381 391 2643 752 
Q 2906 1113 2906 1747 
Q 2906 2381 2643 2742 
Q 2381 3103 1925 3103 
Q 1469 3103 1208 2742 
Q 947 2381 947 1747 
z
" transform="scale(0.015625)"/>
      <path id="DejaVuSans-54" d="M -19 4666 
L 3928 4666 
L 3928 4134 
L 2272 4134 
L 2272 0 
L 1638 0 
L 1638 4134 
L -19 4134 
L -19 4666 
z
" transform="scale(0.015625)"/>
      <path id="DejaVuSans-76" d="M 191 3500 
L 800 3500 
L 1894 563 
L 2988 3500 
L 3597 3500 
L 2284 0 
L 1503 0 
L 191 3500 
z
" transform="scale(0.015625)"/>
      <path id="DejaVuSans-43" d="M 4122 4306 
L 4122 3641 
Q 3803 3938 3442 4084 
Q 3081 4231 2675 4231 
Q 1875 4231 1450 3742 
Q 1025 3253 1025 2328 
Q 1025 1406 1450 917 
Q 1875 428 2675 428 
Q 3081 428 3442 575 
Q 3803 722 4122 1019 
L 4122 359 
Q 3791 134 3420 21 
Q 3050 -91 2638 -91 
Q 1578 -91 968 557 
Q 359 1206 359 2328 
Q 359 3453 968 4101 
Q 1578 4750 2638 4750 
Q 3056 4750 3426 4639 
Q 3797 4528 4122 4306 
z
" transform="scale(0.015625)"/>
     </defs>
     <use xlink:href="#DejaVuSans-63"/>
     <use xlink:href="#DejaVuSans-61" x="54.980469"/>
     <use xlink:href="#DejaVuSans-69" x="116.259766"/>
     <use xlink:href="#DejaVuSans-6f" x="144.042969"/>
     <use xlink:href="#DejaVuSans-2e" x="203.474609"/>
     <use xlink:href="#DejaVuSans-70" x="235.261719"/>
     <use xlink:href="#DejaVuSans-79" x="298.738281"/>
     <use xlink:href="#DejaVuSans-74" x="357.917969"/>
     <use xlink:href="#DejaVuSans-68" x="397.126953"/>
     <use xlink:href="#DejaVuSans-6f" x="460.505859"/>
     <use xlink:href="#DejaVuSans-6e" x="521.6875"/>
     <use xlink:href="#DejaVuSans-5f" x="585.066406"/>
     <use xlink:href="#DejaVuSans-61" x="635.066406"/>
     <use xlink:href="#DejaVuSans-69" x="696.345703"/>
     <use xlink:href="#DejaVuSans-6f" x="724.128906"/>
     <use xlink:href="#DejaVuSans-5f" x="785.310547"/>
     <use xlink:href="#DejaVuSans-61" x="835.310547"/>
     <use xlink:href="#DejaVuSans-73" x="896.589844"/>
     <use xlink:href="#DejaVuSans-79" x="948.689453"/>
     <use xlink:href="#DejaVuSans-6e" x="1007.869141"/>
     <use xlink:href="#DejaVuSans-63" x="1071.248047"/>
     <use xlink:href="#DejaVuSans-69" x="1126.228516"/>
     <use xlink:href="#DejaVuSans-6f" x="1154.011719"/>
     <use xlink:href="#DejaVuSans-20" x="1215.193359"/>
     <use xlink:href="#DejaVuSans-2d" x="1246.980469"/>
     <use xlink:href="#DejaVuSans-20" x="1283.064453"/>
     <use xlink:href="#DejaVuSans-72" x="1314.851562"/>
     <use xlink:href="#DejaVuSans-65" x="1353.714844"/>
     <use xlink:href="#DejaVuSans-61" x="1415.238281"/>
     <use xlink:href="#DejaVuSans-64" x="1476.517578"/>
     <use xlink:href="#DejaVuSans-20" x="1539.994141"/>
     <use xlink:href="#DejaVuSans-28" x="1571.78125"/>
     <use xlink:href="#DejaVuSans-54" x="1610.794922"/>
     <use xlink:href="#DejaVuSans-69" x="1668.753906"/>
     <use xlink:href="#DejaVuSans-6d" x="1696.537109"/>
     <use xlink:href="#DejaVuSans-65" x="1793.949219"/>
     <use xlink:href="#DejaVuSans-20" x="1855.472656"/>
     <use xlink:href="#DejaVuSans-76" x="1887.259766"/>
     <use xlink:href="#DejaVuSans-73" x="1946.439453"/>
     <use xlink:href="#DejaVuSans-20" x="1998.539062"/>
     <use xlink:href="#DejaVuSans-43" x="2030.326172"/>
     <use xlink:href="#DejaVuSans-6f" x="2100.150391"/>
     <use xlink:href="#DejaVuSans-6e" x="2161.332031"/>
     <use xlink:href="#DejaVuSans-63" x="2224.710938"/>
     <use xlink:href="#DejaVuSans-75" x="2279.691406"/>
     <use xlink:href="#DejaVuSans-72" x="2343.070312"/>
     <use xlink:href="#DejaVuSans-72" x="2382.433594"/>
     <use xlink:href="#DejaVuSans-65" x="2421.296875"/>
     <use xlink:href="#DejaVuSans-6e" x="2482.820312"/>
     <use xlink:href="#DejaVuSans-63" x="2546.199219"/>
     <use xlink:href="#DejaVuSans-79" x="2601.179688"/>
     <use xlink:href="#DejaVuSans-29" x="2660.359375"/>
    </g>
   </g>
   <g id="legend_1">
    <g id="patch_7">
     <path d="M 97 149.5775 
L 194.56875 149.5775 
Q 196.56875 149.5775 196.56875 147.5775 
L 196.56875 58.84 
Q 196.56875 56.84 194.56875 56.84 
L 97 56.84 
Q 95 56.84 95 58.84 
L 95 147.5775 
Q 95 149.5775 97 149.5775 
z
" style="opacity: 0.8; stroke: #cccccc; stroke-linejoin: miter"/>
    </g>
    <g id="line2d_73">
     <path d="M 99 64.938437 
L 109 64.938437 
L 119 64.938437 
" style="fill: none; stroke: #8dd3c7; stroke-width: 1.5; stroke-linecap: square"/>
    </g>
    <g id="text_37">
     <!-- max_ops=1 -->
     <g style="fill: #ffffff" transform="translate(127 68.438437) scale(0.1 -0.1)">
      <defs>
       <path id="DejaVuSans-78" d="M 3513 3500 
L 2247 1797 
L 3578 0 
L 2900 0 
L 1881 1375 
L 863 0 
L 184 0 
L 1544 1831 
L 300 3500 
L 978 3500 
L 1906 2253 
L 2834 3500 
L 3513 3500 
z
" transform="scale(0.015625)"/>
       <path id="DejaVuSans-3d" d="M 678 2906 
L 4684 2906 
L 4684 2381 
L 678 2381 
L 678 2906 
z
M 678 1631 
L 4684 1631 
L 4684 1100 
L 678 1100 
L 678 1631 
z
" transform="scale(0.015625)"/>
      </defs>
      <use xlink:href="#DejaVuSans-6d"/>
      <use xlink:href="#DejaVuSans-61" x="97.412109"/>
      <use xlink:href="#DejaVuSans-78" x="158.691406"/>
      <use xlink:href="#DejaVuSans-5f" x="217.871094"/>
      <use xlink:href="#DejaVuSans-6f" x="267.871094"/>
      <use xlink:href="#DejaVuSans-70" x="329.052734"/>
      <use xlink:href="#DejaVuSans-73" x="392.529297"/>
      <use xlink:href="#DejaVuSans-3d" x="444.628906"/>
      <use xlink:href="#DejaVuSans-31" x="528.417969"/>
     </g>
    </g>
    <g id="line2d_74">
     <path d="M 99 79.894687 
L 109 79.894687 
L 119 79.894687 
" style="fill: none; stroke: #feffb3; stroke-width: 1.5; stroke-linecap: square"/>
    </g>
    <g id="text_38">
     <!-- max_ops=4 -->
     <g style="fill: #ffffff" transform="translate(127 83.394687) scale(0.1 -0.1)">
      <use xlink:href="#DejaVuSans-6d"/>
      <use xlink:href="#DejaVuSans-61" x="97.412109"/>
      <use xlink:href="#DejaVuSans-78" x="158.691406"/>
      <use xlink:href="#DejaVuSans-5f" x="217.871094"/>
      <use xlink:href="#DejaVuSans-6f" x="267.871094"/>
      <use xlink:href="#DejaVuSans-70" x="329.052734"/>
      <use xlink:href="#DejaVuSans-73" x="392.529297"/>
      <use xlink:href="#DejaVuSans-3d" x="444.628906"/>
      <use xlink:href="#DejaVuSans-34" x="528.417969"/>
     </g>
    </g>
    <g id="line2d_75">
     <path d="M 99 94.850937 
L 109 94.850937 
L 119 94.850937 
" style="fill: none; stroke: #bfbbd9; stroke-width: 1.5; stroke-linecap: square"/>
    </g>
    <g id="text_39">
     <!-- max_ops=8 -->
     <g style="fill: #ffffff" transform="translate(127 98.350937) scale(0.1 -0.1)">
      <use xlink:href="#DejaVuSans-6d"/>
      <use xlink:href="#DejaVuSans-61" x="97.412109"/>
      <use xlink:href="#DejaVuSans-78" x="158.691406"/>
      <use xlink:href="#DejaVuSans-5f" x="217.871094"/>
      <use xlink:href="#DejaVuSans-6f" x="267.871094"/>
      <use xlink:href="#DejaVuSans-70" x="329.052734"/>
      <use xlink:href="#DejaVuSans-73" x="392.529297"/>
      <use xlink:href="#DejaVuSans-3d" x="444.628906"/>
      <use xlink:href="#DejaVuSans-38" x="528.417969"/>
     </g>
    </g>
    <g id="line2d_76">
     <path d="M 99 109.807187 
L 109 109.807187 
L 119 109.807187 
" style="fill: none; stroke: #fa8174; stroke-width: 1.5; stroke-linecap: square"/>
    </g>
    <g id="text_40">
     <!-- max_ops=16 -->
     <g style="fill: #ffffff" transform="translate(127 113.307187) scale(0.1 -0.1)">
      <use xlink:href="#DejaVuSans-6d"/>
      <use xlink:href="#DejaVuSans-61" x="97.412109"/>
      <use xlink:href="#DejaVuSans-78" x="158.691406"/>
      <use xlink:href="#DejaVuSans-5f" x="217.871094"/>
      <use xlink:href="#DejaVuSans-6f" x="267.871094"/>
      <use xlink:href="#DejaVuSans-70" x="329.052734"/>
      <use xlink:href="#DejaVuSans-73" x="392.529297"/>
      <use xlink:href="#DejaVuSans-3d" x="444.628906"/>
      <use xlink:href="#DejaVuSans-31" x="528.417969"/>
      <use xlink:href="#DejaVuSans-36" x="592.041016"/>
     </g>
    </g>
    <g id="line2d_77">
     <path d="M 99 124.763437 
L 109 124.763437 
L 119 124.763437 
" style="fill: none; stroke: #81b1d2; stroke-width: 1.5; stroke-linecap: square"/>
    </g>
    <g id="text_41">
     <!-- max_ops=32 -->
     <g style="fill: #ffffff" transform="translate(127 128.263437) scale(0.1 -0.1)">
      <use xlink:href="#DejaVuSans-6d"/>
      <use xlink:href="#DejaVuSans-61" x="97.412109"/>
      <use xlink:href="#DejaVuSans-78" x="158.691406"/>
      <use xlink:href="#DejaVuSans-5f" x="217.871094"/>
      <use xlink:href="#DejaVuSans-6f" x="267.871094"/>
      <use xlink:href="#DejaVuSans-70" x="329.052734"/>
      <use xlink:href="#DejaVuSans-73" x="392.529297"/>
      <use xlink:href="#DejaVuSans-3d" x="444.628906"/>
      <use xlink:href="#DejaVuSans-33" x="528.417969"/>
      <use xlink:href="#DejaVuSans-32" x="592.041016"/>
     </g>
    </g>
    <g id="line2d_78">
     <path d="M 99 139.719687 
L 109 139.719687 
L 119 139.719687 
" style="fill: none; stroke: #fdb462; stroke-width: 1.5; stroke-linecap: square"/>
    </g>
    <g id="text_42">
     <!-- max_ops=64 -->
     <g style="fill: #ffffff" transform="translate(127 143.219687) scale(0.1 -0.1)">
      <use xlink:href="#DejaVuSans-6d"/>
      <use xlink:href="#DejaVuSans-61" x="97.412109"/>
      <use xlink:href="#DejaVuSans-78" x="158.691406"/>
      <use xlink:href="#DejaVuSans-5f" x="217.871094"/>
      <use xlink:href="#DejaVuSans-6f" x="267.871094"/>
      <use xlink:href="#DejaVuSans-70" x="329.052734"/>
      <use xlink:href="#DejaVuSans-73" x="392.529297"/>
      <use xlink:href="#DejaVuSans-3d" x="444.628906"/>
      <use xlink:href="#DejaVuSans-36" x="528.417969"/>
      <use xlink:href="#DejaVuSans-34" x="592.041016"/>
     </g>
    </g>
   </g>
  </g>
 </g>
 <defs>
  <clipPath id="pd510280d82">
   <rect x="90" y="51.84" width="558" height="332.64"/>
  </clipPath>
 </defs>
</svg>
