<?xml version="1.0" encoding="utf-8" standalone="no"?>
<!DOCTYPE svg PUBLIC "-//W3C//DTD SVG 1.1//EN"
  "http://www.w3.org/Graphics/SVG/1.1/DTD/svg11.dtd">
<svg xmlns:xlink="http://www.w3.org/1999/xlink" width="720pt" height="432pt" viewBox="0 0 720 432" xmlns="http://www.w3.org/2000/svg" version="1.1">
 <metadata>
  <rdf:RDF xmlns:dc="http://purl.org/dc/elements/1.1/" xmlns:cc="http://creativecommons.org/ns#" xmlns:rdf="http://www.w3.org/1999/02/22-rdf-syntax-ns#">
   <cc:Work>
    <dc:type rdf:resource="http://purl.org/dc/dcmitype/StillImage"/>
    <dc:date>2024-01-19T15:25:07.677689</dc:date>
    <dc:format>image/svg+xml</dc:format>
    <dc:creator>
     <cc:Agent>
      <dc:title>Matplotlib v3.8.2, https://matplotlib.org/</dc:title>
     </cc:Agent>
    </dc:creator>
   </cc:Work>
  </rdf:RDF>
 </metadata>
 <defs>
  <style type="text/css">*{stroke-linejoin: round; stroke-linecap: butt}</style>
 </defs>
 <g id="figure_1">
  <g id="patch_1">
   <path d="M 0 432 
L 720 432 
L 720 0 
L 0 0 
z
"/>
  </g>
  <g id="axes_1">
   <g id="patch_2">
    <path d="M 90 384.48 
L 648 384.48 
L 648 51.84 
L 90 51.84 
z
"/>
   </g>
   <g id="matplotlib.axis_1">
    <g id="xtick_1">
     <g id="line2d_1">
      <path d="M 115.363636 384.48 
L 115.363636 51.84 
" clip-path="url(#p30e25f7c43)" style="fill: none; stroke: #ffffff; stroke-width: 0.8; stroke-linecap: square"/>
     </g>
     <g id="line2d_2">
      <defs>
       <path id="m75e3ab37c6" d="M 0 0 
L 0 3.5 
" style="stroke: #ffffff; stroke-width: 0.8"/>
      </defs>
      <g>
       <use xlink:href="#m75e3ab37c6" x="115.363636" y="384.48" style="fill: #ffffff; stroke: #ffffff; stroke-width: 0.8"/>
      </g>
     </g>
     <g id="text_1">
      <!-- 55912 -->
      <g style="fill: #ffffff" transform="translate(106.067392 419.347741) rotate(-45) scale(0.1 -0.1)">
       <defs>
        <path id="DejaVuSans-35" d="M 691 4666 
L 3169 4666 
L 3169 4134 
L 1269 4134 
L 1269 2991 
Q 1406 3038 1543 3061 
Q 1681 3084 1819 3084 
Q 2600 3084 3056 2656 
Q 3513 2228 3513 1497 
Q 3513 744 3044 326 
Q 2575 -91 1722 -91 
Q 1428 -91 1123 -41 
Q 819 9 494 109 
L 494 744 
Q 775 591 1075 516 
Q 1375 441 1709 441 
Q 2250 441 2565 725 
Q 2881 1009 2881 1497 
Q 2881 1984 2565 2268 
Q 2250 2553 1709 2553 
Q 1456 2553 1204 2497 
Q 953 2441 691 2322 
L 691 4666 
z
" transform="scale(0.015625)"/>
        <path id="DejaVuSans-39" d="M 703 97 
L 703 672 
Q 941 559 1184 500 
Q 1428 441 1663 441 
Q 2288 441 2617 861 
Q 2947 1281 2994 2138 
Q 2813 1869 2534 1725 
Q 2256 1581 1919 1581 
Q 1219 1581 811 2004 
Q 403 2428 403 3163 
Q 403 3881 828 4315 
Q 1253 4750 1959 4750 
Q 2769 4750 3195 4129 
Q 3622 3509 3622 2328 
Q 3622 1225 3098 567 
Q 2575 -91 1691 -91 
Q 1453 -91 1209 -44 
Q 966 3 703 97 
z
M 1959 2075 
Q 2384 2075 2632 2365 
Q 2881 2656 2881 3163 
Q 2881 3666 2632 3958 
Q 2384 4250 1959 4250 
Q 1534 4250 1286 3958 
Q 1038 3666 1038 3163 
Q 1038 2656 1286 2365 
Q 1534 2075 1959 2075 
z
" transform="scale(0.015625)"/>
        <path id="DejaVuSans-31" d="M 794 531 
L 1825 531 
L 1825 4091 
L 703 3866 
L 703 4441 
L 1819 4666 
L 2450 4666 
L 2450 531 
L 3481 531 
L 3481 0 
L 794 0 
L 794 531 
z
" transform="scale(0.015625)"/>
        <path id="DejaVuSans-32" d="M 1228 531 
L 3431 531 
L 3431 0 
L 469 0 
L 469 531 
Q 828 903 1448 1529 
Q 2069 2156 2228 2338 
Q 2531 2678 2651 2914 
Q 2772 3150 2772 3378 
Q 2772 3750 2511 3984 
Q 2250 4219 1831 4219 
Q 1534 4219 1204 4116 
Q 875 4013 500 3803 
L 500 4441 
Q 881 4594 1212 4672 
Q 1544 4750 1819 4750 
Q 2544 4750 2975 4387 
Q 3406 4025 3406 3419 
Q 3406 3131 3298 2873 
Q 3191 2616 2906 2266 
Q 2828 2175 2409 1742 
Q 1991 1309 1228 531 
z
" transform="scale(0.015625)"/>
       </defs>
       <use xlink:href="#DejaVuSans-35"/>
       <use xlink:href="#DejaVuSans-35" x="63.623047"/>
       <use xlink:href="#DejaVuSans-39" x="127.246094"/>
       <use xlink:href="#DejaVuSans-31" x="190.869141"/>
       <use xlink:href="#DejaVuSans-32" x="254.492188"/>
      </g>
     </g>
    </g>
    <g id="xtick_2">
     <g id="line2d_3">
      <path d="M 136.5 384.48 
L 136.5 51.84 
" clip-path="url(#p30e25f7c43)" style="fill: none; stroke: #ffffff; stroke-width: 0.8; stroke-linecap: square"/>
     </g>
     <g id="line2d_4">
      <g>
       <use xlink:href="#m75e3ab37c6" x="136.5" y="384.48" style="fill: #ffffff; stroke: #ffffff; stroke-width: 0.8"/>
      </g>
     </g>
     <g id="text_2">
      <!-- 58342 -->
      <g style="fill: #ffffff" transform="translate(127.203756 419.347741) rotate(-45) scale(0.1 -0.1)">
       <defs>
        <path id="DejaVuSans-38" d="M 2034 2216 
Q 1584 2216 1326 1975 
Q 1069 1734 1069 1313 
Q 1069 891 1326 650 
Q 1584 409 2034 409 
Q 2484 409 2743 651 
Q 3003 894 3003 1313 
Q 3003 1734 2745 1975 
Q 2488 2216 2034 2216 
z
M 1403 2484 
Q 997 2584 770 2862 
Q 544 3141 544 3541 
Q 544 4100 942 4425 
Q 1341 4750 2034 4750 
Q 2731 4750 3128 4425 
Q 3525 4100 3525 3541 
Q 3525 3141 3298 2862 
Q 3072 2584 2669 2484 
Q 3125 2378 3379 2068 
Q 3634 1759 3634 1313 
Q 3634 634 3220 271 
Q 2806 -91 2034 -91 
Q 1263 -91 848 271 
Q 434 634 434 1313 
Q 434 1759 690 2068 
Q 947 2378 1403 2484 
z
M 1172 3481 
Q 1172 3119 1398 2916 
Q 1625 2713 2034 2713 
Q 2441 2713 2670 2916 
Q 2900 3119 2900 3481 
Q 2900 3844 2670 4047 
Q 2441 4250 2034 4250 
Q 1625 4250 1398 4047 
Q 1172 3844 1172 3481 
z
" transform="scale(0.015625)"/>
        <path id="DejaVuSans-33" d="M 2597 2516 
Q 3050 2419 3304 2112 
Q 3559 1806 3559 1356 
Q 3559 666 3084 287 
Q 2609 -91 1734 -91 
Q 1441 -91 1130 -33 
Q 819 25 488 141 
L 488 750 
Q 750 597 1062 519 
Q 1375 441 1716 441 
Q 2309 441 2620 675 
Q 2931 909 2931 1356 
Q 2931 1769 2642 2001 
Q 2353 2234 1838 2234 
L 1294 2234 
L 1294 2753 
L 1863 2753 
Q 2328 2753 2575 2939 
Q 2822 3125 2822 3475 
Q 2822 3834 2567 4026 
Q 2313 4219 1838 4219 
Q 1578 4219 1281 4162 
Q 984 4106 628 3988 
L 628 4550 
Q 988 4650 1302 4700 
Q 1616 4750 1894 4750 
Q 2613 4750 3031 4423 
Q 3450 4097 3450 3541 
Q 3450 3153 3228 2886 
Q 3006 2619 2597 2516 
z
" transform="scale(0.015625)"/>
        <path id="DejaVuSans-34" d="M 2419 4116 
L 825 1625 
L 2419 1625 
L 2419 4116 
z
M 2253 4666 
L 3047 4666 
L 3047 1625 
L 3713 1625 
L 3713 1100 
L 3047 1100 
L 3047 0 
L 2419 0 
L 2419 1100 
L 313 1100 
L 313 1709 
L 2253 4666 
z
" transform="scale(0.015625)"/>
       </defs>
       <use xlink:href="#DejaVuSans-35"/>
       <use xlink:href="#DejaVuSans-38" x="63.623047"/>
       <use xlink:href="#DejaVuSans-33" x="127.246094"/>
       <use xlink:href="#DejaVuSans-34" x="190.869141"/>
       <use xlink:href="#DejaVuSans-32" x="254.492188"/>
      </g>
     </g>
    </g>
    <g id="xtick_3">
     <g id="line2d_5">
      <path d="M 157.636364 384.48 
L 157.636364 51.84 
" clip-path="url(#p30e25f7c43)" style="fill: none; stroke: #ffffff; stroke-width: 0.8; stroke-linecap: square"/>
     </g>
     <g id="line2d_6">
      <g>
       <use xlink:href="#m75e3ab37c6" x="157.636364" y="384.48" style="fill: #ffffff; stroke: #ffffff; stroke-width: 0.8"/>
      </g>
     </g>
     <g id="text_3">
      <!-- 60994 -->
      <g style="fill: #ffffff" transform="translate(148.340119 419.347741) rotate(-45) scale(0.1 -0.1)">
       <defs>
        <path id="DejaVuSans-36" d="M 2113 2584 
Q 1688 2584 1439 2293 
Q 1191 2003 1191 1497 
Q 1191 994 1439 701 
Q 1688 409 2113 409 
Q 2538 409 2786 701 
Q 3034 994 3034 1497 
Q 3034 2003 2786 2293 
Q 2538 2584 2113 2584 
z
M 3366 4563 
L 3366 3988 
Q 3128 4100 2886 4159 
Q 2644 4219 2406 4219 
Q 1781 4219 1451 3797 
Q 1122 3375 1075 2522 
Q 1259 2794 1537 2939 
Q 1816 3084 2150 3084 
Q 2853 3084 3261 2657 
Q 3669 2231 3669 1497 
Q 3669 778 3244 343 
Q 2819 -91 2113 -91 
Q 1303 -91 875 529 
Q 447 1150 447 2328 
Q 447 3434 972 4092 
Q 1497 4750 2381 4750 
Q 2619 4750 2861 4703 
Q 3103 4656 3366 4563 
z
" transform="scale(0.015625)"/>
        <path id="DejaVuSans-30" d="M 2034 4250 
Q 1547 4250 1301 3770 
Q 1056 3291 1056 2328 
Q 1056 1369 1301 889 
Q 1547 409 2034 409 
Q 2525 409 2770 889 
Q 3016 1369 3016 2328 
Q 3016 3291 2770 3770 
Q 2525 4250 2034 4250 
z
M 2034 4750 
Q 2819 4750 3233 4129 
Q 3647 3509 3647 2328 
Q 3647 1150 3233 529 
Q 2819 -91 2034 -91 
Q 1250 -91 836 529 
Q 422 1150 422 2328 
Q 422 3509 836 4129 
Q 1250 4750 2034 4750 
z
" transform="scale(0.015625)"/>
       </defs>
       <use xlink:href="#DejaVuSans-36"/>
       <use xlink:href="#DejaVuSans-30" x="63.623047"/>
       <use xlink:href="#DejaVuSans-39" x="127.246094"/>
       <use xlink:href="#DejaVuSans-39" x="190.869141"/>
       <use xlink:href="#DejaVuSans-34" x="254.492188"/>
      </g>
     </g>
    </g>
    <g id="xtick_4">
     <g id="line2d_7">
      <path d="M 178.772727 384.48 
L 178.772727 51.84 
" clip-path="url(#p30e25f7c43)" style="fill: none; stroke: #ffffff; stroke-width: 0.8; stroke-linecap: square"/>
     </g>
     <g id="line2d_8">
      <g>
       <use xlink:href="#m75e3ab37c6" x="178.772727" y="384.48" style="fill: #ffffff; stroke: #ffffff; stroke-width: 0.8"/>
      </g>
     </g>
     <g id="text_4">
      <!-- 63897 -->
      <g style="fill: #ffffff" transform="translate(169.476483 419.347741) rotate(-45) scale(0.1 -0.1)">
       <defs>
        <path id="DejaVuSans-37" d="M 525 4666 
L 3525 4666 
L 3525 4397 
L 1831 0 
L 1172 0 
L 2766 4134 
L 525 4134 
L 525 4666 
z
" transform="scale(0.015625)"/>
       </defs>
       <use xlink:href="#DejaVuSans-36"/>
       <use xlink:href="#DejaVuSans-33" x="63.623047"/>
       <use xlink:href="#DejaVuSans-38" x="127.246094"/>
       <use xlink:href="#DejaVuSans-39" x="190.869141"/>
       <use xlink:href="#DejaVuSans-37" x="254.492188"/>
      </g>
     </g>
    </g>
    <g id="xtick_5">
     <g id="line2d_9">
      <path d="M 199.909091 384.48 
L 199.909091 51.84 
" clip-path="url(#p30e25f7c43)" style="fill: none; stroke: #ffffff; stroke-width: 0.8; stroke-linecap: square"/>
     </g>
     <g id="line2d_10">
      <g>
       <use xlink:href="#m75e3ab37c6" x="199.909091" y="384.48" style="fill: #ffffff; stroke: #ffffff; stroke-width: 0.8"/>
      </g>
     </g>
     <g id="text_5">
      <!-- 67092 -->
      <g style="fill: #ffffff" transform="translate(190.612846 419.347741) rotate(-45) scale(0.1 -0.1)">
       <use xlink:href="#DejaVuSans-36"/>
       <use xlink:href="#DejaVuSans-37" x="63.623047"/>
       <use xlink:href="#DejaVuSans-30" x="127.246094"/>
       <use xlink:href="#DejaVuSans-39" x="190.869141"/>
       <use xlink:href="#DejaVuSans-32" x="254.492188"/>
      </g>
     </g>
    </g>
    <g id="xtick_6">
     <g id="line2d_11">
      <path d="M 221.045455 384.48 
L 221.045455 51.84 
" clip-path="url(#p30e25f7c43)" style="fill: none; stroke: #ffffff; stroke-width: 0.8; stroke-linecap: square"/>
     </g>
     <g id="line2d_12">
      <g>
       <use xlink:href="#m75e3ab37c6" x="221.045455" y="384.48" style="fill: #ffffff; stroke: #ffffff; stroke-width: 0.8"/>
      </g>
     </g>
     <g id="text_6">
      <!-- 70622 -->
      <g style="fill: #ffffff" transform="translate(211.74921 419.347741) rotate(-45) scale(0.1 -0.1)">
       <use xlink:href="#DejaVuSans-37"/>
       <use xlink:href="#DejaVuSans-30" x="63.623047"/>
       <use xlink:href="#DejaVuSans-36" x="127.246094"/>
       <use xlink:href="#DejaVuSans-32" x="190.869141"/>
       <use xlink:href="#DejaVuSans-32" x="254.492188"/>
      </g>
     </g>
    </g>
    <g id="xtick_7">
     <g id="line2d_13">
      <path d="M 242.181818 384.48 
L 242.181818 51.84 
" clip-path="url(#p30e25f7c43)" style="fill: none; stroke: #ffffff; stroke-width: 0.8; stroke-linecap: square"/>
     </g>
     <g id="line2d_14">
      <g>
       <use xlink:href="#m75e3ab37c6" x="242.181818" y="384.48" style="fill: #ffffff; stroke: #ffffff; stroke-width: 0.8"/>
      </g>
     </g>
     <g id="text_7">
      <!-- 74544 -->
      <g style="fill: #ffffff" transform="translate(232.885574 419.347741) rotate(-45) scale(0.1 -0.1)">
       <use xlink:href="#DejaVuSans-37"/>
       <use xlink:href="#DejaVuSans-34" x="63.623047"/>
       <use xlink:href="#DejaVuSans-35" x="127.246094"/>
       <use xlink:href="#DejaVuSans-34" x="190.869141"/>
       <use xlink:href="#DejaVuSans-34" x="254.492188"/>
      </g>
     </g>
    </g>
    <g id="xtick_8">
     <g id="line2d_15">
      <path d="M 263.318182 384.48 
L 263.318182 51.84 
" clip-path="url(#p30e25f7c43)" style="fill: none; stroke: #ffffff; stroke-width: 0.8; stroke-linecap: square"/>
     </g>
     <g id="line2d_16">
      <g>
       <use xlink:href="#m75e3ab37c6" x="263.318182" y="384.48" style="fill: #ffffff; stroke: #ffffff; stroke-width: 0.8"/>
      </g>
     </g>
     <g id="text_8">
      <!-- 78928 -->
      <g style="fill: #ffffff" transform="translate(254.021937 419.347741) rotate(-45) scale(0.1 -0.1)">
       <use xlink:href="#DejaVuSans-37"/>
       <use xlink:href="#DejaVuSans-38" x="63.623047"/>
       <use xlink:href="#DejaVuSans-39" x="127.246094"/>
       <use xlink:href="#DejaVuSans-32" x="190.869141"/>
       <use xlink:href="#DejaVuSans-38" x="254.492188"/>
      </g>
     </g>
    </g>
    <g id="xtick_9">
     <g id="line2d_17">
      <path d="M 284.454545 384.48 
L 284.454545 51.84 
" clip-path="url(#p30e25f7c43)" style="fill: none; stroke: #ffffff; stroke-width: 0.8; stroke-linecap: square"/>
     </g>
     <g id="line2d_18">
      <g>
       <use xlink:href="#m75e3ab37c6" x="284.454545" y="384.48" style="fill: #ffffff; stroke: #ffffff; stroke-width: 0.8"/>
      </g>
     </g>
     <g id="text_9">
      <!-- 83859 -->
      <g style="fill: #ffffff" transform="translate(275.158301 419.347741) rotate(-45) scale(0.1 -0.1)">
       <use xlink:href="#DejaVuSans-38"/>
       <use xlink:href="#DejaVuSans-33" x="63.623047"/>
       <use xlink:href="#DejaVuSans-38" x="127.246094"/>
       <use xlink:href="#DejaVuSans-35" x="190.869141"/>
       <use xlink:href="#DejaVuSans-39" x="254.492188"/>
      </g>
     </g>
    </g>
    <g id="xtick_10">
     <g id="line2d_19">
      <path d="M 305.590909 384.48 
L 305.590909 51.84 
" clip-path="url(#p30e25f7c43)" style="fill: none; stroke: #ffffff; stroke-width: 0.8; stroke-linecap: square"/>
     </g>
     <g id="line2d_20">
      <g>
       <use xlink:href="#m75e3ab37c6" x="305.590909" y="384.48" style="fill: #ffffff; stroke: #ffffff; stroke-width: 0.8"/>
      </g>
     </g>
     <g id="text_10">
      <!-- 89448 -->
      <g style="fill: #ffffff" transform="translate(296.294665 419.347741) rotate(-45) scale(0.1 -0.1)">
       <use xlink:href="#DejaVuSans-38"/>
       <use xlink:href="#DejaVuSans-39" x="63.623047"/>
       <use xlink:href="#DejaVuSans-34" x="127.246094"/>
       <use xlink:href="#DejaVuSans-34" x="190.869141"/>
       <use xlink:href="#DejaVuSans-38" x="254.492188"/>
      </g>
     </g>
    </g>
    <g id="xtick_11">
     <g id="line2d_21">
      <path d="M 326.727273 384.48 
L 326.727273 51.84 
" clip-path="url(#p30e25f7c43)" style="fill: none; stroke: #ffffff; stroke-width: 0.8; stroke-linecap: square"/>
     </g>
     <g id="line2d_22">
      <g>
       <use xlink:href="#m75e3ab37c6" x="326.727273" y="384.48" style="fill: #ffffff; stroke: #ffffff; stroke-width: 0.8"/>
      </g>
     </g>
     <g id="text_11">
      <!-- 95835 -->
      <g style="fill: #ffffff" transform="translate(317.431028 419.347741) rotate(-45) scale(0.1 -0.1)">
       <use xlink:href="#DejaVuSans-39"/>
       <use xlink:href="#DejaVuSans-35" x="63.623047"/>
       <use xlink:href="#DejaVuSans-38" x="127.246094"/>
       <use xlink:href="#DejaVuSans-33" x="190.869141"/>
       <use xlink:href="#DejaVuSans-35" x="254.492188"/>
      </g>
     </g>
    </g>
    <g id="xtick_12">
     <g id="line2d_23">
      <path d="M 347.863636 384.48 
L 347.863636 51.84 
" clip-path="url(#p30e25f7c43)" style="fill: none; stroke: #ffffff; stroke-width: 0.8; stroke-linecap: square"/>
     </g>
     <g id="line2d_24">
      <g>
       <use xlink:href="#m75e3ab37c6" x="347.863636" y="384.48" style="fill: #ffffff; stroke: #ffffff; stroke-width: 0.8"/>
      </g>
     </g>
     <g id="text_12">
      <!-- 103204 -->
      <g style="fill: #ffffff" transform="translate(336.317908 423.846708) rotate(-45) scale(0.1 -0.1)">
       <use xlink:href="#DejaVuSans-31"/>
       <use xlink:href="#DejaVuSans-30" x="63.623047"/>
       <use xlink:href="#DejaVuSans-33" x="127.246094"/>
       <use xlink:href="#DejaVuSans-32" x="190.869141"/>
       <use xlink:href="#DejaVuSans-30" x="254.492188"/>
       <use xlink:href="#DejaVuSans-34" x="318.115234"/>
      </g>
     </g>
    </g>
    <g id="xtick_13">
     <g id="line2d_25">
      <path d="M 369 384.48 
L 369 51.84 
" clip-path="url(#p30e25f7c43)" style="fill: none; stroke: #ffffff; stroke-width: 0.8; stroke-linecap: square"/>
     </g>
     <g id="line2d_26">
      <g>
       <use xlink:href="#m75e3ab37c6" x="369" y="384.48" style="fill: #ffffff; stroke: #ffffff; stroke-width: 0.8"/>
      </g>
     </g>
     <g id="text_13">
      <!-- 111801 -->
      <g style="fill: #ffffff" transform="translate(357.454272 423.846708) rotate(-45) scale(0.1 -0.1)">
       <use xlink:href="#DejaVuSans-31"/>
       <use xlink:href="#DejaVuSans-31" x="63.623047"/>
       <use xlink:href="#DejaVuSans-31" x="127.246094"/>
       <use xlink:href="#DejaVuSans-38" x="190.869141"/>
       <use xlink:href="#DejaVuSans-30" x="254.492188"/>
       <use xlink:href="#DejaVuSans-31" x="318.115234"/>
      </g>
     </g>
    </g>
    <g id="xtick_14">
     <g id="line2d_27">
      <path d="M 390.136364 384.48 
L 390.136364 51.84 
" clip-path="url(#p30e25f7c43)" style="fill: none; stroke: #ffffff; stroke-width: 0.8; stroke-linecap: square"/>
     </g>
     <g id="line2d_28">
      <g>
       <use xlink:href="#m75e3ab37c6" x="390.136364" y="384.48" style="fill: #ffffff; stroke: #ffffff; stroke-width: 0.8"/>
      </g>
     </g>
     <g id="text_14">
      <!-- 121960 -->
      <g style="fill: #ffffff" transform="translate(378.590636 423.846708) rotate(-45) scale(0.1 -0.1)">
       <use xlink:href="#DejaVuSans-31"/>
       <use xlink:href="#DejaVuSans-32" x="63.623047"/>
       <use xlink:href="#DejaVuSans-31" x="127.246094"/>
       <use xlink:href="#DejaVuSans-39" x="190.869141"/>
       <use xlink:href="#DejaVuSans-36" x="254.492188"/>
       <use xlink:href="#DejaVuSans-30" x="318.115234"/>
      </g>
     </g>
    </g>
    <g id="xtick_15">
     <g id="line2d_29">
      <path d="M 411.272727 384.48 
L 411.272727 51.84 
" clip-path="url(#p30e25f7c43)" style="fill: none; stroke: #ffffff; stroke-width: 0.8; stroke-linecap: square"/>
     </g>
     <g id="line2d_30">
      <g>
       <use xlink:href="#m75e3ab37c6" x="411.272727" y="384.48" style="fill: #ffffff; stroke: #ffffff; stroke-width: 0.8"/>
      </g>
     </g>
     <g id="text_15">
      <!-- 134150 -->
      <g style="fill: #ffffff" transform="translate(399.726999 423.846708) rotate(-45) scale(0.1 -0.1)">
       <use xlink:href="#DejaVuSans-31"/>
       <use xlink:href="#DejaVuSans-33" x="63.623047"/>
       <use xlink:href="#DejaVuSans-34" x="127.246094"/>
       <use xlink:href="#DejaVuSans-31" x="190.869141"/>
       <use xlink:href="#DejaVuSans-35" x="254.492188"/>
       <use xlink:href="#DejaVuSans-30" x="318.115234"/>
      </g>
     </g>
    </g>
    <g id="xtick_16">
     <g id="line2d_31">
      <path d="M 432.409091 384.48 
L 432.409091 51.84 
" clip-path="url(#p30e25f7c43)" style="fill: none; stroke: #ffffff; stroke-width: 0.8; stroke-linecap: square"/>
     </g>
     <g id="line2d_32">
      <g>
       <use xlink:href="#m75e3ab37c6" x="432.409091" y="384.48" style="fill: #ffffff; stroke: #ffffff; stroke-width: 0.8"/>
      </g>
     </g>
     <g id="text_16">
      <!-- 149048 -->
      <g style="fill: #ffffff" transform="translate(420.863363 423.846708) rotate(-45) scale(0.1 -0.1)">
       <use xlink:href="#DejaVuSans-31"/>
       <use xlink:href="#DejaVuSans-34" x="63.623047"/>
       <use xlink:href="#DejaVuSans-39" x="127.246094"/>
       <use xlink:href="#DejaVuSans-30" x="190.869141"/>
       <use xlink:href="#DejaVuSans-34" x="254.492188"/>
       <use xlink:href="#DejaVuSans-38" x="318.115234"/>
      </g>
     </g>
    </g>
    <g id="xtick_17">
     <g id="line2d_33">
      <path d="M 453.545455 384.48 
L 453.545455 51.84 
" clip-path="url(#p30e25f7c43)" style="fill: none; stroke: #ffffff; stroke-width: 0.8; stroke-linecap: square"/>
     </g>
     <g id="line2d_34">
      <g>
       <use xlink:href="#m75e3ab37c6" x="453.545455" y="384.48" style="fill: #ffffff; stroke: #ffffff; stroke-width: 0.8"/>
      </g>
     </g>
     <g id="text_17">
      <!-- 167667 -->
      <g style="fill: #ffffff" transform="translate(441.999727 423.846708) rotate(-45) scale(0.1 -0.1)">
       <use xlink:href="#DejaVuSans-31"/>
       <use xlink:href="#DejaVuSans-36" x="63.623047"/>
       <use xlink:href="#DejaVuSans-37" x="127.246094"/>
       <use xlink:href="#DejaVuSans-36" x="190.869141"/>
       <use xlink:href="#DejaVuSans-36" x="254.492188"/>
       <use xlink:href="#DejaVuSans-37" x="318.115234"/>
      </g>
     </g>
    </g>
    <g id="xtick_18">
     <g id="line2d_35">
      <path d="M 474.681818 384.48 
L 474.681818 51.84 
" clip-path="url(#p30e25f7c43)" style="fill: none; stroke: #ffffff; stroke-width: 0.8; stroke-linecap: square"/>
     </g>
     <g id="line2d_36">
      <g>
       <use xlink:href="#m75e3ab37c6" x="474.681818" y="384.48" style="fill: #ffffff; stroke: #ffffff; stroke-width: 0.8"/>
      </g>
     </g>
     <g id="text_18">
      <!-- 191602 -->
      <g style="fill: #ffffff" transform="translate(463.13609 423.846708) rotate(-45) scale(0.1 -0.1)">
       <use xlink:href="#DejaVuSans-31"/>
       <use xlink:href="#DejaVuSans-39" x="63.623047"/>
       <use xlink:href="#DejaVuSans-31" x="127.246094"/>
       <use xlink:href="#DejaVuSans-36" x="190.869141"/>
       <use xlink:href="#DejaVuSans-30" x="254.492188"/>
       <use xlink:href="#DejaVuSans-32" x="318.115234"/>
      </g>
     </g>
    </g>
    <g id="xtick_19">
     <g id="line2d_37">
      <path d="M 495.818182 384.48 
L 495.818182 51.84 
" clip-path="url(#p30e25f7c43)" style="fill: none; stroke: #ffffff; stroke-width: 0.8; stroke-linecap: square"/>
     </g>
     <g id="line2d_38">
      <g>
       <use xlink:href="#m75e3ab37c6" x="495.818182" y="384.48" style="fill: #ffffff; stroke: #ffffff; stroke-width: 0.8"/>
      </g>
     </g>
     <g id="text_19">
      <!-- 223509 -->
      <g style="fill: #ffffff" transform="translate(484.272454 423.846708) rotate(-45) scale(0.1 -0.1)">
       <use xlink:href="#DejaVuSans-32"/>
       <use xlink:href="#DejaVuSans-32" x="63.623047"/>
       <use xlink:href="#DejaVuSans-33" x="127.246094"/>
       <use xlink:href="#DejaVuSans-35" x="190.869141"/>
       <use xlink:href="#DejaVuSans-30" x="254.492188"/>
       <use xlink:href="#DejaVuSans-39" x="318.115234"/>
      </g>
     </g>
    </g>
    <g id="xtick_20">
     <g id="line2d_39">
      <path d="M 516.954545 384.48 
L 516.954545 51.84 
" clip-path="url(#p30e25f7c43)" style="fill: none; stroke: #ffffff; stroke-width: 0.8; stroke-linecap: square"/>
     </g>
     <g id="line2d_40">
      <g>
       <use xlink:href="#m75e3ab37c6" x="516.954545" y="384.48" style="fill: #ffffff; stroke: #ffffff; stroke-width: 0.8"/>
      </g>
     </g>
     <g id="text_20">
      <!-- 268167 -->
      <g style="fill: #ffffff" transform="translate(505.408818 423.846708) rotate(-45) scale(0.1 -0.1)">
       <use xlink:href="#DejaVuSans-32"/>
       <use xlink:href="#DejaVuSans-36" x="63.623047"/>
       <use xlink:href="#DejaVuSans-38" x="127.246094"/>
       <use xlink:href="#DejaVuSans-31" x="190.869141"/>
       <use xlink:href="#DejaVuSans-36" x="254.492188"/>
       <use xlink:href="#DejaVuSans-37" x="318.115234"/>
      </g>
     </g>
    </g>
    <g id="xtick_21">
     <g id="line2d_41">
      <path d="M 538.090909 384.48 
L 538.090909 51.84 
" clip-path="url(#p30e25f7c43)" style="fill: none; stroke: #ffffff; stroke-width: 0.8; stroke-linecap: square"/>
     </g>
     <g id="line2d_42">
      <g>
       <use xlink:href="#m75e3ab37c6" x="538.090909" y="384.48" style="fill: #ffffff; stroke: #ffffff; stroke-width: 0.8"/>
      </g>
     </g>
     <g id="text_21">
      <!-- 335125 -->
      <g style="fill: #ffffff" transform="translate(526.545181 423.846708) rotate(-45) scale(0.1 -0.1)">
       <use xlink:href="#DejaVuSans-33"/>
       <use xlink:href="#DejaVuSans-33" x="63.623047"/>
       <use xlink:href="#DejaVuSans-35" x="127.246094"/>
       <use xlink:href="#DejaVuSans-31" x="190.869141"/>
       <use xlink:href="#DejaVuSans-32" x="254.492188"/>
       <use xlink:href="#DejaVuSans-35" x="318.115234"/>
      </g>
     </g>
    </g>
    <g id="xtick_22">
     <g id="line2d_43">
      <path d="M 559.227273 384.48 
L 559.227273 51.84 
" clip-path="url(#p30e25f7c43)" style="fill: none; stroke: #ffffff; stroke-width: 0.8; stroke-linecap: square"/>
     </g>
     <g id="line2d_44">
      <g>
       <use xlink:href="#m75e3ab37c6" x="559.227273" y="384.48" style="fill: #ffffff; stroke: #ffffff; stroke-width: 0.8"/>
      </g>
     </g>
     <g id="text_22">
      <!-- 446648 -->
      <g style="fill: #ffffff" transform="translate(547.681545 423.846708) rotate(-45) scale(0.1 -0.1)">
       <use xlink:href="#DejaVuSans-34"/>
       <use xlink:href="#DejaVuSans-34" x="63.623047"/>
       <use xlink:href="#DejaVuSans-36" x="127.246094"/>
       <use xlink:href="#DejaVuSans-36" x="190.869141"/>
       <use xlink:href="#DejaVuSans-34" x="254.492188"/>
       <use xlink:href="#DejaVuSans-38" x="318.115234"/>
      </g>
     </g>
    </g>
    <g id="xtick_23">
     <g id="line2d_45">
      <path d="M 580.363636 384.48 
L 580.363636 51.84 
" clip-path="url(#p30e25f7c43)" style="fill: none; stroke: #ffffff; stroke-width: 0.8; stroke-linecap: square"/>
     </g>
     <g id="line2d_46">
      <g>
       <use xlink:href="#m75e3ab37c6" x="580.363636" y="384.48" style="fill: #ffffff; stroke: #ffffff; stroke-width: 0.8"/>
      </g>
     </g>
     <g id="text_23">
      <!-- 669415 -->
      <g style="fill: #ffffff" transform="translate(568.817908 423.846708) rotate(-45) scale(0.1 -0.1)">
       <use xlink:href="#DejaVuSans-36"/>
       <use xlink:href="#DejaVuSans-36" x="63.623047"/>
       <use xlink:href="#DejaVuSans-39" x="127.246094"/>
       <use xlink:href="#DejaVuSans-34" x="190.869141"/>
       <use xlink:href="#DejaVuSans-31" x="254.492188"/>
       <use xlink:href="#DejaVuSans-35" x="318.115234"/>
      </g>
     </g>
    </g>
    <g id="xtick_24">
     <g id="line2d_47">
      <path d="M 601.5 384.48 
L 601.5 51.84 
" clip-path="url(#p30e25f7c43)" style="fill: none; stroke: #ffffff; stroke-width: 0.8; stroke-linecap: square"/>
     </g>
     <g id="line2d_48">
      <g>
       <use xlink:href="#m75e3ab37c6" x="601.5" y="384.48" style="fill: #ffffff; stroke: #ffffff; stroke-width: 0.8"/>
      </g>
     </g>
     <g id="text_24">
      <!-- 1335499 -->
      <g style="fill: #ffffff" transform="translate(587.704789 428.345675) rotate(-45) scale(0.1 -0.1)">
       <use xlink:href="#DejaVuSans-31"/>
       <use xlink:href="#DejaVuSans-33" x="63.623047"/>
       <use xlink:href="#DejaVuSans-33" x="127.246094"/>
       <use xlink:href="#DejaVuSans-35" x="190.869141"/>
       <use xlink:href="#DejaVuSans-34" x="254.492188"/>
       <use xlink:href="#DejaVuSans-39" x="318.115234"/>
       <use xlink:href="#DejaVuSans-39" x="381.738281"/>
      </g>
     </g>
    </g>
    <g id="xtick_25">
     <g id="line2d_49">
      <path d="M 622.636364 384.48 
L 622.636364 51.84 
" clip-path="url(#p30e25f7c43)" style="fill: none; stroke: #ffffff; stroke-width: 0.8; stroke-linecap: square"/>
     </g>
     <g id="line2d_50">
      <g>
       <use xlink:href="#m75e3ab37c6" x="622.636364" y="384.48" style="fill: #ffffff; stroke: #ffffff; stroke-width: 0.8"/>
      </g>
     </g>
     <g id="text_25">
      <!-- 268435456 -->
      <g style="fill: #ffffff" transform="translate(604.342185 437.343609) rotate(-45) scale(0.1 -0.1)">
       <use xlink:href="#DejaVuSans-32"/>
       <use xlink:href="#DejaVuSans-36" x="63.623047"/>
       <use xlink:href="#DejaVuSans-38" x="127.246094"/>
       <use xlink:href="#DejaVuSans-34" x="190.869141"/>
       <use xlink:href="#DejaVuSans-33" x="254.492188"/>
       <use xlink:href="#DejaVuSans-35" x="318.115234"/>
       <use xlink:href="#DejaVuSans-34" x="381.738281"/>
       <use xlink:href="#DejaVuSans-35" x="445.361328"/>
       <use xlink:href="#DejaVuSans-36" x="508.984375"/>
      </g>
     </g>
    </g>
    <g id="text_26">
     <!-- chunk_size -->
     <g style="fill: #ffffff" transform="translate(341.654688 450.412607) scale(0.1 -0.1)">
      <defs>
       <path id="DejaVuSans-63" d="M 3122 3366 
L 3122 2828 
Q 2878 2963 2633 3030 
Q 2388 3097 2138 3097 
Q 1578 3097 1268 2742 
Q 959 2388 959 1747 
Q 959 1106 1268 751 
Q 1578 397 2138 397 
Q 2388 397 2633 464 
Q 2878 531 3122 666 
L 3122 134 
Q 2881 22 2623 -34 
Q 2366 -91 2075 -91 
Q 1284 -91 818 406 
Q 353 903 353 1747 
Q 353 2603 823 3093 
Q 1294 3584 2113 3584 
Q 2378 3584 2631 3529 
Q 2884 3475 3122 3366 
z
" transform="scale(0.015625)"/>
       <path id="DejaVuSans-68" d="M 3513 2113 
L 3513 0 
L 2938 0 
L 2938 2094 
Q 2938 2591 2744 2837 
Q 2550 3084 2163 3084 
Q 1697 3084 1428 2787 
Q 1159 2491 1159 1978 
L 1159 0 
L 581 0 
L 581 4863 
L 1159 4863 
L 1159 2956 
Q 1366 3272 1645 3428 
Q 1925 3584 2291 3584 
Q 2894 3584 3203 3211 
Q 3513 2838 3513 2113 
z
" transform="scale(0.015625)"/>
       <path id="DejaVuSans-75" d="M 544 1381 
L 544 3500 
L 1119 3500 
L 1119 1403 
Q 1119 906 1312 657 
Q 1506 409 1894 409 
Q 2359 409 2629 706 
Q 2900 1003 2900 1516 
L 2900 3500 
L 3475 3500 
L 3475 0 
L 2900 0 
L 2900 538 
Q 2691 219 2414 64 
Q 2138 -91 1772 -91 
Q 1169 -91 856 284 
Q 544 659 544 1381 
z
M 1991 3584 
L 1991 3584 
z
" transform="scale(0.015625)"/>
       <path id="DejaVuSans-6e" d="M 3513 2113 
L 3513 0 
L 2938 0 
L 2938 2094 
Q 2938 2591 2744 2837 
Q 2550 3084 2163 3084 
Q 1697 3084 1428 2787 
Q 1159 2491 1159 1978 
L 1159 0 
L 581 0 
L 581 3500 
L 1159 3500 
L 1159 2956 
Q 1366 3272 1645 3428 
Q 1925 3584 2291 3584 
Q 2894 3584 3203 3211 
Q 3513 2838 3513 2113 
z
" transform="scale(0.015625)"/>
       <path id="DejaVuSans-6b" d="M 581 4863 
L 1159 4863 
L 1159 1991 
L 2875 3500 
L 3609 3500 
L 1753 1863 
L 3688 0 
L 2938 0 
L 1159 1709 
L 1159 0 
L 581 0 
L 581 4863 
z
" transform="scale(0.015625)"/>
       <path id="DejaVuSans-5f" d="M 3263 -1063 
L 3263 -1509 
L -63 -1509 
L -63 -1063 
L 3263 -1063 
z
" transform="scale(0.015625)"/>
       <path id="DejaVuSans-73" d="M 2834 3397 
L 2834 2853 
Q 2591 2978 2328 3040 
Q 2066 3103 1784 3103 
Q 1356 3103 1142 2972 
Q 928 2841 928 2578 
Q 928 2378 1081 2264 
Q 1234 2150 1697 2047 
L 1894 2003 
Q 2506 1872 2764 1633 
Q 3022 1394 3022 966 
Q 3022 478 2636 193 
Q 2250 -91 1575 -91 
Q 1294 -91 989 -36 
Q 684 19 347 128 
L 347 722 
Q 666 556 975 473 
Q 1284 391 1588 391 
Q 1994 391 2212 530 
Q 2431 669 2431 922 
Q 2431 1156 2273 1281 
Q 2116 1406 1581 1522 
L 1381 1569 
Q 847 1681 609 1914 
Q 372 2147 372 2553 
Q 372 3047 722 3315 
Q 1072 3584 1716 3584 
Q 2034 3584 2315 3537 
Q 2597 3491 2834 3397 
z
" transform="scale(0.015625)"/>
       <path id="DejaVuSans-69" d="M 603 3500 
L 1178 3500 
L 1178 0 
L 603 0 
L 603 3500 
z
M 603 4863 
L 1178 4863 
L 1178 4134 
L 603 4134 
L 603 4863 
z
" transform="scale(0.015625)"/>
       <path id="DejaVuSans-7a" d="M 353 3500 
L 3084 3500 
L 3084 2975 
L 922 459 
L 3084 459 
L 3084 0 
L 275 0 
L 275 525 
L 2438 3041 
L 353 3041 
L 353 3500 
z
" transform="scale(0.015625)"/>
       <path id="DejaVuSans-65" d="M 3597 1894 
L 3597 1613 
L 953 1613 
Q 991 1019 1311 708 
Q 1631 397 2203 397 
Q 2534 397 2845 478 
Q 3156 559 3463 722 
L 3463 178 
Q 3153 47 2828 -22 
Q 2503 -91 2169 -91 
Q 1331 -91 842 396 
Q 353 884 353 1716 
Q 353 2575 817 3079 
Q 1281 3584 2069 3584 
Q 2775 3584 3186 3129 
Q 3597 2675 3597 1894 
z
M 3022 2063 
Q 3016 2534 2758 2815 
Q 2500 3097 2075 3097 
Q 1594 3097 1305 2825 
Q 1016 2553 972 2059 
L 3022 2063 
z
" transform="scale(0.015625)"/>
      </defs>
      <use xlink:href="#DejaVuSans-63"/>
      <use xlink:href="#DejaVuSans-68" x="54.980469"/>
      <use xlink:href="#DejaVuSans-75" x="118.359375"/>
      <use xlink:href="#DejaVuSans-6e" x="181.738281"/>
      <use xlink:href="#DejaVuSans-6b" x="245.117188"/>
      <use xlink:href="#DejaVuSans-5f" x="303.027344"/>
      <use xlink:href="#DejaVuSans-73" x="353.027344"/>
      <use xlink:href="#DejaVuSans-69" x="405.126953"/>
      <use xlink:href="#DejaVuSans-7a" x="432.910156"/>
      <use xlink:href="#DejaVuSans-65" x="485.400391"/>
     </g>
    </g>
   </g>
   <g id="matplotlib.axis_2">
    <g id="ytick_1">
     <g id="line2d_51">
      <path d="M 90 373.360968 
L 648 373.360968 
" clip-path="url(#p30e25f7c43)" style="fill: none; stroke: #ffffff; stroke-width: 0.8; stroke-linecap: square"/>
     </g>
     <g id="line2d_52">
      <defs>
       <path id="m3afe6af22e" d="M 0 0 
L -3.5 0 
" style="stroke: #ffffff; stroke-width: 0.8"/>
      </defs>
      <g>
       <use xlink:href="#m3afe6af22e" x="90" y="373.360968" style="fill: #ffffff; stroke: #ffffff; stroke-width: 0.8"/>
      </g>
     </g>
     <g id="text_27">
      <!-- 0 -->
      <g style="fill: #ffffff" transform="translate(76.6375 377.160187) scale(0.1 -0.1)">
       <use xlink:href="#DejaVuSans-30"/>
      </g>
     </g>
    </g>
    <g id="ytick_2">
     <g id="line2d_53">
      <path d="M 90 317.133572 
L 648 317.133572 
" clip-path="url(#p30e25f7c43)" style="fill: none; stroke: #ffffff; stroke-width: 0.8; stroke-linecap: square"/>
     </g>
     <g id="line2d_54">
      <g>
       <use xlink:href="#m3afe6af22e" x="90" y="317.133572" style="fill: #ffffff; stroke: #ffffff; stroke-width: 0.8"/>
      </g>
     </g>
     <g id="text_28">
      <!-- 100 -->
      <g style="fill: #ffffff" transform="translate(63.9125 320.932791) scale(0.1 -0.1)">
       <use xlink:href="#DejaVuSans-31"/>
       <use xlink:href="#DejaVuSans-30" x="63.623047"/>
       <use xlink:href="#DejaVuSans-30" x="127.246094"/>
      </g>
     </g>
    </g>
    <g id="ytick_3">
     <g id="line2d_55">
      <path d="M 90 260.906176 
L 648 260.906176 
" clip-path="url(#p30e25f7c43)" style="fill: none; stroke: #ffffff; stroke-width: 0.8; stroke-linecap: square"/>
     </g>
     <g id="line2d_56">
      <g>
       <use xlink:href="#m3afe6af22e" x="90" y="260.906176" style="fill: #ffffff; stroke: #ffffff; stroke-width: 0.8"/>
      </g>
     </g>
     <g id="text_29">
      <!-- 200 -->
      <g style="fill: #ffffff" transform="translate(63.9125 264.705395) scale(0.1 -0.1)">
       <use xlink:href="#DejaVuSans-32"/>
       <use xlink:href="#DejaVuSans-30" x="63.623047"/>
       <use xlink:href="#DejaVuSans-30" x="127.246094"/>
      </g>
     </g>
    </g>
    <g id="ytick_4">
     <g id="line2d_57">
      <path d="M 90 204.67878 
L 648 204.67878 
" clip-path="url(#p30e25f7c43)" style="fill: none; stroke: #ffffff; stroke-width: 0.8; stroke-linecap: square"/>
     </g>
     <g id="line2d_58">
      <g>
       <use xlink:href="#m3afe6af22e" x="90" y="204.67878" style="fill: #ffffff; stroke: #ffffff; stroke-width: 0.8"/>
      </g>
     </g>
     <g id="text_30">
      <!-- 300 -->
      <g style="fill: #ffffff" transform="translate(63.9125 208.477999) scale(0.1 -0.1)">
       <use xlink:href="#DejaVuSans-33"/>
       <use xlink:href="#DejaVuSans-30" x="63.623047"/>
       <use xlink:href="#DejaVuSans-30" x="127.246094"/>
      </g>
     </g>
    </g>
    <g id="ytick_5">
     <g id="line2d_59">
      <path d="M 90 148.451384 
L 648 148.451384 
" clip-path="url(#p30e25f7c43)" style="fill: none; stroke: #ffffff; stroke-width: 0.8; stroke-linecap: square"/>
     </g>
     <g id="line2d_60">
      <g>
       <use xlink:href="#m3afe6af22e" x="90" y="148.451384" style="fill: #ffffff; stroke: #ffffff; stroke-width: 0.8"/>
      </g>
     </g>
     <g id="text_31">
      <!-- 400 -->
      <g style="fill: #ffffff" transform="translate(63.9125 152.250603) scale(0.1 -0.1)">
       <use xlink:href="#DejaVuSans-34"/>
       <use xlink:href="#DejaVuSans-30" x="63.623047"/>
       <use xlink:href="#DejaVuSans-30" x="127.246094"/>
      </g>
     </g>
    </g>
    <g id="ytick_6">
     <g id="line2d_61">
      <path d="M 90 92.223988 
L 648 92.223988 
" clip-path="url(#p30e25f7c43)" style="fill: none; stroke: #ffffff; stroke-width: 0.8; stroke-linecap: square"/>
     </g>
     <g id="line2d_62">
      <g>
       <use xlink:href="#m3afe6af22e" x="90" y="92.223988" style="fill: #ffffff; stroke: #ffffff; stroke-width: 0.8"/>
      </g>
     </g>
     <g id="text_32">
      <!-- 500 -->
      <g style="fill: #ffffff" transform="translate(63.9125 96.023207) scale(0.1 -0.1)">
       <use xlink:href="#DejaVuSans-35"/>
       <use xlink:href="#DejaVuSans-30" x="63.623047"/>
       <use xlink:href="#DejaVuSans-30" x="127.246094"/>
      </g>
     </g>
    </g>
    <g id="text_33">
     <!-- time (ms) -->
     <g style="fill: #ffffff" transform="translate(57.832812 242.421719) rotate(-90) scale(0.1 -0.1)">
      <defs>
       <path id="DejaVuSans-74" d="M 1172 4494 
L 1172 3500 
L 2356 3500 
L 2356 3053 
L 1172 3053 
L 1172 1153 
Q 1172 725 1289 603 
Q 1406 481 1766 481 
L 2356 481 
L 2356 0 
L 1766 0 
Q 1100 0 847 248 
Q 594 497 594 1153 
L 594 3053 
L 172 3053 
L 172 3500 
L 594 3500 
L 594 4494 
L 1172 4494 
z
" transform="scale(0.015625)"/>
       <path id="DejaVuSans-6d" d="M 3328 2828 
Q 3544 3216 3844 3400 
Q 4144 3584 4550 3584 
Q 5097 3584 5394 3201 
Q 5691 2819 5691 2113 
L 5691 0 
L 5113 0 
L 5113 2094 
Q 5113 2597 4934 2840 
Q 4756 3084 4391 3084 
Q 3944 3084 3684 2787 
Q 3425 2491 3425 1978 
L 3425 0 
L 2847 0 
L 2847 2094 
Q 2847 2600 2669 2842 
Q 2491 3084 2119 3084 
Q 1678 3084 1418 2786 
Q 1159 2488 1159 1978 
L 1159 0 
L 581 0 
L 581 3500 
L 1159 3500 
L 1159 2956 
Q 1356 3278 1631 3431 
Q 1906 3584 2284 3584 
Q 2666 3584 2933 3390 
Q 3200 3197 3328 2828 
z
" transform="scale(0.015625)"/>
       <path id="DejaVuSans-20" transform="scale(0.015625)"/>
       <path id="DejaVuSans-28" d="M 1984 4856 
Q 1566 4138 1362 3434 
Q 1159 2731 1159 2009 
Q 1159 1288 1364 580 
Q 1569 -128 1984 -844 
L 1484 -844 
Q 1016 -109 783 600 
Q 550 1309 550 2009 
Q 550 2706 781 3412 
Q 1013 4119 1484 4856 
L 1984 4856 
z
" transform="scale(0.015625)"/>
       <path id="DejaVuSans-29" d="M 513 4856 
L 1013 4856 
Q 1481 4119 1714 3412 
Q 1947 2706 1947 2009 
Q 1947 1309 1714 600 
Q 1481 -109 1013 -844 
L 513 -844 
Q 928 -128 1133 580 
Q 1338 1288 1338 2009 
Q 1338 2731 1133 3434 
Q 928 4138 513 4856 
z
" transform="scale(0.015625)"/>
      </defs>
      <use xlink:href="#DejaVuSans-74"/>
      <use xlink:href="#DejaVuSans-69" x="39.208984"/>
      <use xlink:href="#DejaVuSans-6d" x="66.992188"/>
      <use xlink:href="#DejaVuSans-65" x="164.404297"/>
      <use xlink:href="#DejaVuSans-20" x="225.927734"/>
      <use xlink:href="#DejaVuSans-28" x="257.714844"/>
      <use xlink:href="#DejaVuSans-6d" x="296.728516"/>
      <use xlink:href="#DejaVuSans-73" x="394.140625"/>
      <use xlink:href="#DejaVuSans-29" x="446.240234"/>
     </g>
    </g>
   </g>
   <g id="line2d_63">
    <path d="M 115.363636 332.041549 
L 120.444832 332.620909 
L 125.526028 332.969535 
L 132.300956 333.178629 
L 144.15708 333.238498 
L 152.62574 333.396542 
L 158.553802 333.734077 
L 165.32873 334.381957 
L 174.644256 335.273149 
L 179.725452 335.518473 
L 185.653513 335.508632 
L 194.969039 335.450274 
L 199.203369 335.666072 
L 202.590833 336.038885 
L 207.672029 336.848241 
L 216.140689 338.260692 
L 219.528153 338.63641 
L 222.915617 338.798828 
L 226.303081 338.744974 
L 230.537411 338.456884 
L 239.006071 337.564154 
L 244.934133 337.0679 
L 250.015329 336.879296 
L 255.096525 336.900743 
L 261.024586 337.172169 
L 266.952648 337.682906 
L 287.277432 339.730636 
L 295.746092 340.102579 
L 304.214752 340.510232 
L 310.142814 341.015448 
L 322.845804 342.189315 
L 327.080134 342.347524 
L 332.161329 342.272694 
L 340.629989 341.824914 
L 347.404917 341.563822 
L 352.486113 341.625545 
L 357.567309 341.907314 
L 364.342237 342.527042 
L 375.351495 343.813268 
L 388.054485 345.244607 
L 395.676279 345.877542 
L 403.298073 346.274174 
L 410.073 346.420021 
L 418.54166 346.351448 
L 430.397784 346.233676 
L 437.172712 346.421956 
L 454.110032 347.075041 
L 461.731826 346.972423 
L 469.35362 346.927895 
L 473.58795 347.098554 
L 477.82228 347.496707 
L 483.750341 348.33617 
L 493.065867 349.681954 
L 497.300197 350.047288 
L 501.534527 350.188999 
L 509.156321 350.156787 
L 515.931249 350.192001 
L 520.165579 350.413381 
L 525.246775 350.89999 
L 532.021703 351.805153 
L 546.418425 353.856619 
L 549.805889 354.08426 
L 553.193353 354.084022 
L 555.733951 353.895489 
L 558.274548 353.515268 
L 560.815146 352.923097 
L 568.43694 350.890447 
L 570.130672 350.658948 
L 571.824404 350.599802 
L 573.518136 350.755603 
L 575.211868 351.168941 
L 576.9056 351.882407 
L 578.599332 352.938593 
L 580.293064 354.38009 
L 581.986796 356.217303 
L 585.37426 360.495545 
L 587.914858 363.536307 
L 589.60859 365.151966 
L 590.455456 365.770031 
L 591.302322 366.232113 
L 592.149188 366.51611 
L 592.996054 366.599919 
L 593.84292 366.461435 
L 594.689786 366.078555 
L 595.536652 365.429175 
L 596.383518 364.491193 
L 597.230384 363.242503 
L 598.07725 361.661003 
L 598.924116 359.72459 
L 599.770982 357.411159 
L 600.617848 354.698606 
L 601.464714 351.564829 
L 603.158446 343.945187 
L 604.852178 334.375403 
L 606.54591 322.678649 
L 608.239642 308.678097 
L 609.933374 292.196916 
L 611.627106 273.05828 
L 613.320838 251.085358 
L 615.01457 226.101323 
L 616.708302 197.929346 
L 618.402034 166.392599 
L 620.095766 131.314252 
L 621.789498 92.517476 
L 622.636364 71.669419 
L 622.636364 71.669419 
" clip-path="url(#p30e25f7c43)" style="fill: none; stroke: #8dd3c7; stroke-width: 1.5; stroke-linecap: square"/>
   </g>
   <g id="line2d_64">
    <path d="M 115.363636 332.261523 
L 126.372894 332.450017 
L 138.229018 332.872967 
L 150.932008 333.544128 
L 175.491122 334.951919 
L 181.419183 334.93531 
L 199.203369 334.559247 
L 203.437699 334.79357 
L 209.365761 335.358231 
L 219.528153 336.3717 
L 224.609349 336.619997 
L 231.384277 336.674387 
L 242.393535 336.733159 
L 248.321597 337.042154 
L 256.790256 337.754767 
L 269.493246 338.847482 
L 278.808772 339.395398 
L 287.277432 339.672254 
L 301.674154 340.072272 
L 307.602216 340.507277 
L 316.070876 341.437522 
L 322.845804 342.116265 
L 327.927 342.394593 
L 333.008195 342.426655 
L 344.864319 342.391716 
L 349.098649 342.645128 
L 354.179845 343.234392 
L 367.729701 345.027862 
L 371.964031 345.256021 
L 377.045227 345.269146 
L 389.748217 345.161468 
L 393.982547 345.406458 
L 409.226134 346.563144 
L 412.613598 346.527318 
L 416.847928 346.243425 
L 430.397784 345.044142 
L 433.785248 345.039885 
L 437.172712 345.238512 
L 442.253908 345.798635 
L 454.956898 347.389579 
L 460.038094 347.69562 
L 469.35362 347.96314 
L 476.128548 348.257845 
L 482.05661 348.743675 
L 491.372135 349.774621 
L 503.228259 351.080442 
L 509.156321 351.499901 
L 514.237517 351.62093 
L 518.471847 351.500986 
L 526.093641 350.960234 
L 531.174837 350.725663 
L 534.562301 350.781048 
L 537.949765 351.097683 
L 541.337229 351.718146 
L 552.346487 354.127016 
L 554.887085 354.348959 
L 557.427683 354.296341 
L 559.121414 354.073797 
L 561.662012 353.443825 
L 565.896342 351.999207 
L 568.43694 351.196281 
L 570.130672 350.801481 
L 571.824404 350.582843 
L 573.518136 350.595028 
L 575.211868 350.892702 
L 576.9056 351.530526 
L 578.599332 352.563164 
L 580.293064 354.04528 
L 581.986796 355.99614 
L 584.527394 359.478264 
L 587.914858 364.178795 
L 589.60859 366.133847 
L 591.302322 367.576568 
L 592.149188 368.047479 
L 592.996054 368.320317 
L 593.84292 368.371752 
L 594.689786 368.178454 
L 595.536652 367.717092 
L 596.383518 366.964336 
L 597.230384 365.896857 
L 598.07725 364.491324 
L 598.924116 362.724406 
L 599.770982 360.572775 
L 600.617848 358.013099 
L 601.464714 355.022049 
L 602.31158 351.576295 
L 604.005312 343.227352 
L 605.699044 332.779629 
L 607.392776 320.046485 
L 609.086508 304.84128 
L 610.78024 286.977372 
L 612.473972 266.26812 
L 614.167704 242.526882 
L 615.861436 215.567019 
L 617.555168 185.201889 
L 619.2489 151.244851 
L 620.942632 113.509263 
L 622.636364 71.808485 
L 622.636364 71.808485 
" clip-path="url(#p30e25f7c43)" style="fill: none; stroke: #feffb3; stroke-width: 1.5; stroke-linecap: square"/>
   </g>
   <g id="line2d_65">
    <path d="M 115.363636 331.666869 
L 119.597966 332.189358 
L 124.679162 332.585282 
L 130.607224 332.816395 
L 140.769616 332.93981 
L 149.238276 333.121378 
L 155.166338 333.47601 
L 160.247534 334.018847 
L 172.950524 335.566343 
L 176.337988 335.713849 
L 179.725452 335.628506 
L 183.112915 335.299551 
L 188.194111 334.532425 
L 194.969039 333.481385 
L 198.356503 333.150645 
L 201.743967 333.068207 
L 205.131431 333.243005 
L 209.365761 333.728785 
L 215.293823 334.682701 
L 222.068751 335.76246 
L 227.149947 336.345892 
L 233.078009 336.802903 
L 240.699803 337.159403 
L 255.94339 337.594587 
L 277.11504 338.188314 
L 284.736834 338.639971 
L 292.358628 339.336194 
L 300.827288 340.340986 
L 318.611474 342.582192 
L 322.845804 342.84676 
L 327.080134 342.878416 
L 331.314463 342.655661 
L 345.711185 341.607305 
L 349.098649 341.683824 
L 352.486113 341.97605 
L 356.720443 342.567653 
L 364.342237 343.938746 
L 370.270299 344.938162 
L 375.351495 345.554625 
L 380.432691 345.914166 
L 384.667021 346.005268 
L 388.901351 345.896323 
L 393.135681 345.585003 
L 408.379268 344.228823 
L 411.766732 344.247219 
L 415.154196 344.481446 
L 419.388526 345.0027 
L 435.47898 347.286563 
L 440.560176 347.572635 
L 446.488238 347.665951 
L 468.506754 347.728742 
L 473.58795 348.09573 
L 478.669146 348.722295 
L 493.912733 350.885441 
L 498.147063 351.130562 
L 502.381393 351.14073 
L 509.156321 350.882271 
L 517.624981 350.569865 
L 522.706177 350.621278 
L 527.787373 350.890116 
L 532.868569 351.37324 
L 537.949765 352.067514 
L 548.959023 353.766005 
L 552.346487 353.991175 
L 554.887085 353.964804 
L 557.427683 353.726767 
L 559.96828 353.23802 
L 563.355744 352.268804 
L 567.590074 351.062387 
L 570.130672 350.629857 
L 571.824404 350.563096 
L 573.518136 350.729723 
L 575.211868 351.17784 
L 576.9056 351.955547 
L 578.599332 353.110942 
L 580.293064 354.692126 
L 581.986796 356.713127 
L 584.527394 360.248437 
L 587.067992 363.835807 
L 588.761724 365.949356 
L 590.455456 367.625615 
L 591.302322 368.242207 
L 592.149188 368.680411 
L 592.996054 368.917207 
L 593.84292 368.929573 
L 594.689786 368.694488 
L 595.536652 368.18893 
L 596.383518 367.389878 
L 597.230384 366.27431 
L 598.07725 364.819204 
L 598.924116 363.001541 
L 599.770982 360.798297 
L 600.617848 358.186452 
L 601.464714 355.142984 
L 602.31158 351.644871 
L 604.005312 343.192628 
L 605.699044 332.645549 
L 607.392776 319.819465 
L 609.086508 304.530203 
L 610.78024 286.593592 
L 612.473972 265.82546 
L 614.167704 242.041637 
L 615.861436 215.057949 
L 617.555168 184.690226 
L 619.2489 150.754297 
L 620.942632 113.065989 
L 622.636364 71.441132 
L 622.636364 71.441132 
" clip-path="url(#p30e25f7c43)" style="fill: none; stroke: #bfbbd9; stroke-width: 1.5; stroke-linecap: square"/>
   </g>
   <g id="line2d_66">
    <path d="M 115.363636 329.462996 
L 125.526028 330.356224 
L 137.382152 331.631038 
L 151.778874 333.411419 
L 167.869328 335.416003 
L 172.950524 335.788629 
L 177.184854 335.878103 
L 181.419183 335.71326 
L 188.194111 335.133842 
L 193.275307 334.781892 
L 196.662771 334.740007 
L 200.050235 334.947772 
L 203.437699 335.449856 
L 207.672029 336.356186 
L 215.293823 338.086262 
L 218.681287 338.614554 
L 221.221885 338.812601 
L 223.762483 338.8057 
L 227.149947 338.535404 
L 231.384277 337.926851 
L 239.852937 336.593486 
L 243.240401 336.309346 
L 246.627865 336.266529 
L 250.862195 336.475224 
L 256.790256 337.050806 
L 265.258916 337.875944 
L 272.033844 338.227217 
L 285.5837 338.851351 
L 292.358628 339.477304 
L 311.836546 341.453175 
L 321.152072 342.021657 
L 333.008195 342.49231 
L 342.323721 342.657447 
L 349.945515 342.583556 
L 362.648505 342.376502 
L 367.729701 342.558668 
L 371.964031 342.935619 
L 377.045227 343.621432 
L 394.829413 346.257331 
L 400.757475 346.729567 
L 406.685537 346.944758 
L 412.613598 346.908367 
L 421.082258 346.558986 
L 428.704052 346.309916 
L 433.785248 346.371689 
L 438.866444 346.671786 
L 449.028836 347.583315 
L 455.803764 348.065931 
L 464.272424 348.373488 
L 472.741084 348.720035 
L 478.669146 349.199805 
L 497.300197 350.996792 
L 503.228259 351.153993 
L 510.850053 351.089778 
L 525.246775 350.890165 
L 530.327971 351.035933 
L 535.409167 351.415546 
L 539.643497 351.962828 
L 549.805889 353.501476 
L 553.193353 353.704555 
L 555.733951 353.639799 
L 558.274548 353.336921 
L 560.815146 352.757819 
L 569.283806 350.354419 
L 570.977538 350.159385 
L 572.67127 350.175966 
L 574.365002 350.45405 
L 576.058734 351.04352 
L 577.752466 351.994265 
L 579.446198 353.356169 
L 581.13993 355.175335 
L 582.833662 357.391115 
L 588.761724 365.634849 
L 590.455456 367.362912 
L 591.302322 368.006204 
L 592.149188 368.471352 
L 592.996054 368.735118 
L 593.84292 368.774263 
L 594.689786 368.565549 
L 595.536652 368.085738 
L 596.383518 367.311592 
L 597.230384 366.219872 
L 598.07725 364.787341 
L 598.924116 362.990759 
L 599.770982 360.806889 
L 600.617848 358.212493 
L 601.464714 355.184331 
L 602.31158 351.699167 
L 604.005312 343.264875 
L 605.699044 332.723713 
L 607.392776 319.889772 
L 609.086508 304.577149 
L 610.78024 286.599935 
L 612.473972 265.772226 
L 614.167704 241.908116 
L 615.861436 214.821698 
L 617.555168 184.327066 
L 619.2489 150.238314 
L 620.942632 112.369537 
L 622.636364 70.534828 
L 622.636364 70.534828 
" clip-path="url(#p30e25f7c43)" style="fill: none; stroke: #fa8174; stroke-width: 1.5; stroke-linecap: square"/>
   </g>
   <g id="line2d_67">
    <path d="M 115.363636 332.777757 
L 124.679162 333.193926 
L 138.229018 333.536456 
L 154.319472 333.980485 
L 164.481864 334.507029 
L 177.184854 335.158042 
L 184.806647 335.295498 
L 195.815905 335.476588 
L 200.897101 335.76835 
L 206.825163 336.347639 
L 219.528153 337.664377 
L 224.609349 337.89856 
L 229.690545 337.90181 
L 235.618607 337.685923 
L 244.087267 337.133134 
L 252.555927 336.601781 
L 257.637122 336.500258 
L 261.871452 336.640544 
L 265.258916 336.944034 
L 269.493246 337.534612 
L 284.736834 339.916645 
L 288.971164 340.199915 
L 294.05236 340.307727 
L 307.602216 340.446073 
L 313.530278 340.83439 
L 336.395659 342.627907 
L 344.864319 342.903677 
L 356.720443 343.013558 
L 364.342237 343.200946 
L 369.423433 343.525845 
L 375.351495 344.158616 
L 388.901351 345.755827 
L 393.982547 346.067119 
L 399.910609 346.183013 
L 428.704052 346.334518 
L 445.641372 346.825704 
L 452.4163 347.234239 
L 459.191228 347.867925 
L 472.741084 349.230046 
L 478.669146 349.552382 
L 497.300197 350.291776 
L 504.075125 351.007726 
L 511.696919 351.791817 
L 515.931249 352.040342 
L 520.165579 352.061771 
L 527.787373 351.778767 
L 532.868569 351.677949 
L 536.256033 351.784135 
L 539.643497 352.105061 
L 544.724693 352.903531 
L 549.805889 353.701309 
L 553.193353 354.015761 
L 555.733951 354.044892 
L 558.274548 353.83581 
L 560.815146 353.342666 
L 565.049476 352.143755 
L 568.43694 351.29129 
L 570.130672 351.037778 
L 571.824404 350.965919 
L 573.518136 351.125592 
L 575.211868 351.566675 
L 576.9056 352.339047 
L 578.599332 353.492588 
L 580.293064 355.077175 
L 581.986796 357.107946 
L 584.527394 360.665338 
L 587.067992 364.275306 
L 588.761724 366.399541 
L 590.455456 368.079716 
L 591.302322 368.694852 
L 592.149188 369.128859 
L 592.996054 369.358366 
L 593.84292 369.36 
L 594.689786 369.110391 
L 595.536652 368.586167 
L 596.383518 367.763956 
L 597.230384 366.620388 
L 598.07725 365.132092 
L 598.924116 363.275694 
L 599.770982 361.027825 
L 600.617848 358.365113 
L 601.464714 355.264186 
L 602.31158 351.701674 
L 604.005312 343.098405 
L 605.699044 332.368337 
L 607.392776 319.324496 
L 609.086508 303.779914 
L 610.78024 285.547618 
L 612.473972 264.440638 
L 614.167704 240.272002 
L 615.861436 212.854739 
L 617.555168 182.001878 
L 619.2489 147.526449 
L 620.942632 109.24148 
L 622.636364 66.96 
L 622.636364 66.96 
" clip-path="url(#p30e25f7c43)" style="fill: none; stroke: #81b1d2; stroke-width: 1.5; stroke-linecap: square"/>
   </g>
   <g id="line2d_68">
    <path d="M 115.363636 331.761462 
L 117.904234 331.249212 
L 121.291698 330.837752 
L 124.679162 330.69798 
L 128.066626 330.787743 
L 132.300956 331.158509 
L 137.382152 331.873974 
L 155.166338 334.710532 
L 159.400668 335.00748 
L 163.634998 335.063781 
L 169.56306 334.893231 
L 179.725452 334.553303 
L 185.653513 334.6373 
L 194.122173 335.031467 
L 207.672029 335.687556 
L 216.987555 335.904099 
L 226.303081 335.901456 
L 237.312339 335.914911 
L 243.240401 336.14528 
L 250.015329 336.679327 
L 266.105782 338.095962 
L 274.574442 338.476377 
L 289.81803 339.12049 
L 298.28669 339.756602 
L 305.908484 340.550956 
L 322.845804 342.506455 
L 327.927 342.765695 
L 333.008195 342.770127 
L 351.639247 342.497459 
L 357.567309 342.835238 
L 364.342237 343.467274 
L 374.504629 344.694767 
L 381.279557 345.425994 
L 386.360753 345.741141 
L 390.595083 345.759742 
L 394.829413 345.529981 
L 410.073 344.409359 
L 413.460464 344.492191 
L 417.694794 344.844649 
L 423.622856 345.597788 
L 431.24465 346.545374 
L 435.47898 346.847854 
L 441.407042 347.00314 
L 453.263166 347.219147 
L 458.344362 347.595482 
L 467.659888 348.594631 
L 474.434816 349.224412 
L 479.516012 349.480226 
L 487.137805 349.614232 
L 498.147063 349.81052 
L 506.615723 350.241995 
L 521.859311 351.049912 
L 530.327971 351.506031 
L 535.409167 351.987158 
L 539.643497 352.591128 
L 548.959023 354.10098 
L 552.346487 354.37153 
L 554.887085 354.367055 
L 557.427683 354.132479 
L 559.96828 353.62159 
L 563.355744 352.580362 
L 567.590074 351.236643 
L 570.130672 350.708663 
L 571.824404 350.577043 
L 573.518136 350.680194 
L 575.211868 351.068241 
L 576.9056 351.791311 
L 578.599332 352.899527 
L 580.293064 354.443016 
L 581.986796 356.437393 
L 584.527394 359.952505 
L 587.914858 364.644738 
L 589.60859 366.576659 
L 590.455456 367.358081 
L 591.302322 367.985624 
L 592.149188 368.436148 
L 592.996054 368.686513 
L 593.84292 368.71358 
L 594.689786 368.494209 
L 595.536652 368.005259 
L 596.383518 367.223591 
L 597.230384 366.126065 
L 598.07725 364.68954 
L 598.924116 362.890878 
L 599.770982 360.706939 
L 600.617848 358.114581 
L 601.464714 355.090666 
L 602.31158 351.612054 
L 604.005312 343.198178 
L 605.699044 332.687833 
L 607.392776 319.895902 
L 609.086508 304.637264 
L 610.78024 286.726801 
L 612.473972 265.979393 
L 614.167704 242.209922 
L 615.861436 215.233268 
L 617.555168 184.864312 
L 619.2489 150.917936 
L 620.942632 113.20902 
L 622.636364 71.552445 
L 622.636364 71.552445 
" clip-path="url(#p30e25f7c43)" style="fill: none; stroke: #fdb462; stroke-width: 1.5; stroke-linecap: square"/>
   </g>
   <g id="patch_3">
    <path d="M 90 384.48 
L 90 51.84 
" style="fill: none; stroke: #ffffff; stroke-width: 0.8; stroke-linejoin: miter; stroke-linecap: square"/>
   </g>
   <g id="patch_4">
    <path d="M 648 384.48 
L 648 51.84 
" style="fill: none; stroke: #ffffff; stroke-width: 0.8; stroke-linejoin: miter; stroke-linecap: square"/>
   </g>
   <g id="patch_5">
    <path d="M 90 384.48 
L 648 384.48 
" style="fill: none; stroke: #ffffff; stroke-width: 0.8; stroke-linejoin: miter; stroke-linecap: square"/>
   </g>
   <g id="patch_6">
    <path d="M 90 51.84 
L 648 51.84 
" style="fill: none; stroke: #ffffff; stroke-width: 0.8; stroke-linejoin: miter; stroke-linecap: square"/>
   </g>
   <g id="text_34">
    <!-- caio.linux_aio_asyncio - write (Time vs Chunk Size) -->
    <g style="fill: #ffffff" transform="translate(216.467813 45.84) scale(0.12 -0.12)">
     <defs>
      <path id="DejaVuSans-61" d="M 2194 1759 
Q 1497 1759 1228 1600 
Q 959 1441 959 1056 
Q 959 750 1161 570 
Q 1363 391 1709 391 
Q 2188 391 2477 730 
Q 2766 1069 2766 1631 
L 2766 1759 
L 2194 1759 
z
M 3341 1997 
L 3341 0 
L 2766 0 
L 2766 531 
Q 2569 213 2275 61 
Q 1981 -91 1556 -91 
Q 1019 -91 701 211 
Q 384 513 384 1019 
Q 384 1609 779 1909 
Q 1175 2209 1959 2209 
L 2766 2209 
L 2766 2266 
Q 2766 2663 2505 2880 
Q 2244 3097 1772 3097 
Q 1472 3097 1187 3025 
Q 903 2953 641 2809 
L 641 3341 
Q 956 3463 1253 3523 
Q 1550 3584 1831 3584 
Q 2591 3584 2966 3190 
Q 3341 2797 3341 1997 
z
" transform="scale(0.015625)"/>
      <path id="DejaVuSans-6f" d="M 1959 3097 
Q 1497 3097 1228 2736 
Q 959 2375 959 1747 
Q 959 1119 1226 758 
Q 1494 397 1959 397 
Q 2419 397 2687 759 
Q 2956 1122 2956 1747 
Q 2956 2369 2687 2733 
Q 2419 3097 1959 3097 
z
M 1959 3584 
Q 2709 3584 3137 3096 
Q 3566 2609 3566 1747 
Q 3566 888 3137 398 
Q 2709 -91 1959 -91 
Q 1206 -91 779 398 
Q 353 888 353 1747 
Q 353 2609 779 3096 
Q 1206 3584 1959 3584 
z
" transform="scale(0.015625)"/>
      <path id="DejaVuSans-2e" d="M 684 794 
L 1344 794 
L 1344 0 
L 684 0 
L 684 794 
z
" transform="scale(0.015625)"/>
      <path id="DejaVuSans-6c" d="M 603 4863 
L 1178 4863 
L 1178 0 
L 603 0 
L 603 4863 
z
" transform="scale(0.015625)"/>
      <path id="DejaVuSans-78" d="M 3513 3500 
L 2247 1797 
L 3578 0 
L 2900 0 
L 1881 1375 
L 863 0 
L 184 0 
L 1544 1831 
L 300 3500 
L 978 3500 
L 1906 2253 
L 2834 3500 
L 3513 3500 
z
" transform="scale(0.015625)"/>
      <path id="DejaVuSans-79" d="M 2059 -325 
Q 1816 -950 1584 -1140 
Q 1353 -1331 966 -1331 
L 506 -1331 
L 506 -850 
L 844 -850 
Q 1081 -850 1212 -737 
Q 1344 -625 1503 -206 
L 1606 56 
L 191 3500 
L 800 3500 
L 1894 763 
L 2988 3500 
L 3597 3500 
L 2059 -325 
z
" transform="scale(0.015625)"/>
      <path id="DejaVuSans-2d" d="M 313 2009 
L 1997 2009 
L 1997 1497 
L 313 1497 
L 313 2009 
z
" transform="scale(0.015625)"/>
      <path id="DejaVuSans-77" d="M 269 3500 
L 844 3500 
L 1563 769 
L 2278 3500 
L 2956 3500 
L 3675 769 
L 4391 3500 
L 4966 3500 
L 4050 0 
L 3372 0 
L 2619 2869 
L 1863 0 
L 1184 0 
L 269 3500 
z
" transform="scale(0.015625)"/>
      <path id="DejaVuSans-72" d="M 2631 2963 
Q 2534 3019 2420 3045 
Q 2306 3072 2169 3072 
Q 1681 3072 1420 2755 
Q 1159 2438 1159 1844 
L 1159 0 
L 581 0 
L 581 3500 
L 1159 3500 
L 1159 2956 
Q 1341 3275 1631 3429 
Q 1922 3584 2338 3584 
Q 2397 3584 2469 3576 
Q 2541 3569 2628 3553 
L 2631 2963 
z
" transform="scale(0.015625)"/>
      <path id="DejaVuSans-54" d="M -19 4666 
L 3928 4666 
L 3928 4134 
L 2272 4134 
L 2272 0 
L 1638 0 
L 1638 4134 
L -19 4134 
L -19 4666 
z
" transform="scale(0.015625)"/>
      <path id="DejaVuSans-76" d="M 191 3500 
L 800 3500 
L 1894 563 
L 2988 3500 
L 3597 3500 
L 2284 0 
L 1503 0 
L 191 3500 
z
" transform="scale(0.015625)"/>
      <path id="DejaVuSans-43" d="M 4122 4306 
L 4122 3641 
Q 3803 3938 3442 4084 
Q 3081 4231 2675 4231 
Q 1875 4231 1450 3742 
Q 1025 3253 1025 2328 
Q 1025 1406 1450 917 
Q 1875 428 2675 428 
Q 3081 428 3442 575 
Q 3803 722 4122 1019 
L 4122 359 
Q 3791 134 3420 21 
Q 3050 -91 2638 -91 
Q 1578 -91 968 557 
Q 359 1206 359 2328 
Q 359 3453 968 4101 
Q 1578 4750 2638 4750 
Q 3056 4750 3426 4639 
Q 3797 4528 4122 4306 
z
" transform="scale(0.015625)"/>
      <path id="DejaVuSans-53" d="M 3425 4513 
L 3425 3897 
Q 3066 4069 2747 4153 
Q 2428 4238 2131 4238 
Q 1616 4238 1336 4038 
Q 1056 3838 1056 3469 
Q 1056 3159 1242 3001 
Q 1428 2844 1947 2747 
L 2328 2669 
Q 3034 2534 3370 2195 
Q 3706 1856 3706 1288 
Q 3706 609 3251 259 
Q 2797 -91 1919 -91 
Q 1588 -91 1214 -16 
Q 841 59 441 206 
L 441 856 
Q 825 641 1194 531 
Q 1563 422 1919 422 
Q 2459 422 2753 634 
Q 3047 847 3047 1241 
Q 3047 1584 2836 1778 
Q 2625 1972 2144 2069 
L 1759 2144 
Q 1053 2284 737 2584 
Q 422 2884 422 3419 
Q 422 4038 858 4394 
Q 1294 4750 2059 4750 
Q 2388 4750 2728 4690 
Q 3069 4631 3425 4513 
z
" transform="scale(0.015625)"/>
     </defs>
     <use xlink:href="#DejaVuSans-63"/>
     <use xlink:href="#DejaVuSans-61" x="54.980469"/>
     <use xlink:href="#DejaVuSans-69" x="116.259766"/>
     <use xlink:href="#DejaVuSans-6f" x="144.042969"/>
     <use xlink:href="#DejaVuSans-2e" x="203.474609"/>
     <use xlink:href="#DejaVuSans-6c" x="235.261719"/>
     <use xlink:href="#DejaVuSans-69" x="263.044922"/>
     <use xlink:href="#DejaVuSans-6e" x="290.828125"/>
     <use xlink:href="#DejaVuSans-75" x="354.207031"/>
     <use xlink:href="#DejaVuSans-78" x="417.585938"/>
     <use xlink:href="#DejaVuSans-5f" x="476.765625"/>
     <use xlink:href="#DejaVuSans-61" x="526.765625"/>
     <use xlink:href="#DejaVuSans-69" x="588.044922"/>
     <use xlink:href="#DejaVuSans-6f" x="615.828125"/>
     <use xlink:href="#DejaVuSans-5f" x="677.009766"/>
     <use xlink:href="#DejaVuSans-61" x="727.009766"/>
     <use xlink:href="#DejaVuSans-73" x="788.289062"/>
     <use xlink:href="#DejaVuSans-79" x="840.388672"/>
     <use xlink:href="#DejaVuSans-6e" x="899.568359"/>
     <use xlink:href="#DejaVuSans-63" x="962.947266"/>
     <use xlink:href="#DejaVuSans-69" x="1017.927734"/>
     <use xlink:href="#DejaVuSans-6f" x="1045.710938"/>
     <use xlink:href="#DejaVuSans-20" x="1106.892578"/>
     <use xlink:href="#DejaVuSans-2d" x="1138.679688"/>
     <use xlink:href="#DejaVuSans-20" x="1174.763672"/>
     <use xlink:href="#DejaVuSans-77" x="1206.550781"/>
     <use xlink:href="#DejaVuSans-72" x="1288.337891"/>
     <use xlink:href="#DejaVuSans-69" x="1329.451172"/>
     <use xlink:href="#DejaVuSans-74" x="1357.234375"/>
     <use xlink:href="#DejaVuSans-65" x="1396.443359"/>
     <use xlink:href="#DejaVuSans-20" x="1457.966797"/>
     <use xlink:href="#DejaVuSans-28" x="1489.753906"/>
     <use xlink:href="#DejaVuSans-54" x="1528.767578"/>
     <use xlink:href="#DejaVuSans-69" x="1586.726562"/>
     <use xlink:href="#DejaVuSans-6d" x="1614.509766"/>
     <use xlink:href="#DejaVuSans-65" x="1711.921875"/>
     <use xlink:href="#DejaVuSans-20" x="1773.445312"/>
     <use xlink:href="#DejaVuSans-76" x="1805.232422"/>
     <use xlink:href="#DejaVuSans-73" x="1864.412109"/>
     <use xlink:href="#DejaVuSans-20" x="1916.511719"/>
     <use xlink:href="#DejaVuSans-43" x="1948.298828"/>
     <use xlink:href="#DejaVuSans-68" x="2018.123047"/>
     <use xlink:href="#DejaVuSans-75" x="2081.501953"/>
     <use xlink:href="#DejaVuSans-6e" x="2144.880859"/>
     <use xlink:href="#DejaVuSans-6b" x="2208.259766"/>
     <use xlink:href="#DejaVuSans-20" x="2266.169922"/>
     <use xlink:href="#DejaVuSans-53" x="2297.957031"/>
     <use xlink:href="#DejaVuSans-69" x="2361.433594"/>
     <use xlink:href="#DejaVuSans-7a" x="2389.216797"/>
     <use xlink:href="#DejaVuSans-65" x="2441.707031"/>
     <use xlink:href="#DejaVuSans-29" x="2503.230469"/>
    </g>
   </g>
   <g id="legend_1">
    <g id="patch_7">
     <path d="M 97 149.5775 
L 194.56875 149.5775 
Q 196.56875 149.5775 196.56875 147.5775 
L 196.56875 58.84 
Q 196.56875 56.84 194.56875 56.84 
L 97 56.84 
Q 95 56.84 95 58.84 
L 95 147.5775 
Q 95 149.5775 97 149.5775 
z
" style="opacity: 0.8; stroke: #cccccc; stroke-linejoin: miter"/>
    </g>
    <g id="line2d_69">
     <path d="M 99 64.938437 
L 109 64.938437 
L 119 64.938437 
" style="fill: none; stroke: #8dd3c7; stroke-width: 1.5; stroke-linecap: square"/>
    </g>
    <g id="text_35">
     <!-- max_ops=1 -->
     <g style="fill: #ffffff" transform="translate(127 68.438437) scale(0.1 -0.1)">
      <defs>
       <path id="DejaVuSans-70" d="M 1159 525 
L 1159 -1331 
L 581 -1331 
L 581 3500 
L 1159 3500 
L 1159 2969 
Q 1341 3281 1617 3432 
Q 1894 3584 2278 3584 
Q 2916 3584 3314 3078 
Q 3713 2572 3713 1747 
Q 3713 922 3314 415 
Q 2916 -91 2278 -91 
Q 1894 -91 1617 61 
Q 1341 213 1159 525 
z
M 3116 1747 
Q 3116 2381 2855 2742 
Q 2594 3103 2138 3103 
Q 1681 3103 1420 2742 
Q 1159 2381 1159 1747 
Q 1159 1113 1420 752 
Q 1681 391 2138 391 
Q 2594 391 2855 752 
Q 3116 1113 3116 1747 
z
" transform="scale(0.015625)"/>
       <path id="DejaVuSans-3d" d="M 678 2906 
L 4684 2906 
L 4684 2381 
L 678 2381 
L 678 2906 
z
M 678 1631 
L 4684 1631 
L 4684 1100 
L 678 1100 
L 678 1631 
z
" transform="scale(0.015625)"/>
      </defs>
      <use xlink:href="#DejaVuSans-6d"/>
      <use xlink:href="#DejaVuSans-61" x="97.412109"/>
      <use xlink:href="#DejaVuSans-78" x="158.691406"/>
      <use xlink:href="#DejaVuSans-5f" x="217.871094"/>
      <use xlink:href="#DejaVuSans-6f" x="267.871094"/>
      <use xlink:href="#DejaVuSans-70" x="329.052734"/>
      <use xlink:href="#DejaVuSans-73" x="392.529297"/>
      <use xlink:href="#DejaVuSans-3d" x="444.628906"/>
      <use xlink:href="#DejaVuSans-31" x="528.417969"/>
     </g>
    </g>
    <g id="line2d_70">
     <path d="M 99 79.894687 
L 109 79.894687 
L 119 79.894687 
" style="fill: none; stroke: #feffb3; stroke-width: 1.5; stroke-linecap: square"/>
    </g>
    <g id="text_36">
     <!-- max_ops=4 -->
     <g style="fill: #ffffff" transform="translate(127 83.394687) scale(0.1 -0.1)">
      <use xlink:href="#DejaVuSans-6d"/>
      <use xlink:href="#DejaVuSans-61" x="97.412109"/>
      <use xlink:href="#DejaVuSans-78" x="158.691406"/>
      <use xlink:href="#DejaVuSans-5f" x="217.871094"/>
      <use xlink:href="#DejaVuSans-6f" x="267.871094"/>
      <use xlink:href="#DejaVuSans-70" x="329.052734"/>
      <use xlink:href="#DejaVuSans-73" x="392.529297"/>
      <use xlink:href="#DejaVuSans-3d" x="444.628906"/>
      <use xlink:href="#DejaVuSans-34" x="528.417969"/>
     </g>
    </g>
    <g id="line2d_71">
     <path d="M 99 94.850937 
L 109 94.850937 
L 119 94.850937 
" style="fill: none; stroke: #bfbbd9; stroke-width: 1.5; stroke-linecap: square"/>
    </g>
    <g id="text_37">
     <!-- max_ops=8 -->
     <g style="fill: #ffffff" transform="translate(127 98.350937) scale(0.1 -0.1)">
      <use xlink:href="#DejaVuSans-6d"/>
      <use xlink:href="#DejaVuSans-61" x="97.412109"/>
      <use xlink:href="#DejaVuSans-78" x="158.691406"/>
      <use xlink:href="#DejaVuSans-5f" x="217.871094"/>
      <use xlink:href="#DejaVuSans-6f" x="267.871094"/>
      <use xlink:href="#DejaVuSans-70" x="329.052734"/>
      <use xlink:href="#DejaVuSans-73" x="392.529297"/>
      <use xlink:href="#DejaVuSans-3d" x="444.628906"/>
      <use xlink:href="#DejaVuSans-38" x="528.417969"/>
     </g>
    </g>
    <g id="line2d_72">
     <path d="M 99 109.807187 
L 109 109.807187 
L 119 109.807187 
" style="fill: none; stroke: #fa8174; stroke-width: 1.5; stroke-linecap: square"/>
    </g>
    <g id="text_38">
     <!-- max_ops=16 -->
     <g style="fill: #ffffff" transform="translate(127 113.307187) scale(0.1 -0.1)">
      <use xlink:href="#DejaVuSans-6d"/>
      <use xlink:href="#DejaVuSans-61" x="97.412109"/>
      <use xlink:href="#DejaVuSans-78" x="158.691406"/>
      <use xlink:href="#DejaVuSans-5f" x="217.871094"/>
      <use xlink:href="#DejaVuSans-6f" x="267.871094"/>
      <use xlink:href="#DejaVuSans-70" x="329.052734"/>
      <use xlink:href="#DejaVuSans-73" x="392.529297"/>
      <use xlink:href="#DejaVuSans-3d" x="444.628906"/>
      <use xlink:href="#DejaVuSans-31" x="528.417969"/>
      <use xlink:href="#DejaVuSans-36" x="592.041016"/>
     </g>
    </g>
    <g id="line2d_73">
     <path d="M 99 124.763437 
L 109 124.763437 
L 119 124.763437 
" style="fill: none; stroke: #81b1d2; stroke-width: 1.5; stroke-linecap: square"/>
    </g>
    <g id="text_39">
     <!-- max_ops=32 -->
     <g style="fill: #ffffff" transform="translate(127 128.263437) scale(0.1 -0.1)">
      <use xlink:href="#DejaVuSans-6d"/>
      <use xlink:href="#DejaVuSans-61" x="97.412109"/>
      <use xlink:href="#DejaVuSans-78" x="158.691406"/>
      <use xlink:href="#DejaVuSans-5f" x="217.871094"/>
      <use xlink:href="#DejaVuSans-6f" x="267.871094"/>
      <use xlink:href="#DejaVuSans-70" x="329.052734"/>
      <use xlink:href="#DejaVuSans-73" x="392.529297"/>
      <use xlink:href="#DejaVuSans-3d" x="444.628906"/>
      <use xlink:href="#DejaVuSans-33" x="528.417969"/>
      <use xlink:href="#DejaVuSans-32" x="592.041016"/>
     </g>
    </g>
    <g id="line2d_74">
     <path d="M 99 139.719687 
L 109 139.719687 
L 119 139.719687 
" style="fill: none; stroke: #fdb462; stroke-width: 1.5; stroke-linecap: square"/>
    </g>
    <g id="text_40">
     <!-- max_ops=64 -->
     <g style="fill: #ffffff" transform="translate(127 143.219687) scale(0.1 -0.1)">
      <use xlink:href="#DejaVuSans-6d"/>
      <use xlink:href="#DejaVuSans-61" x="97.412109"/>
      <use xlink:href="#DejaVuSans-78" x="158.691406"/>
      <use xlink:href="#DejaVuSans-5f" x="217.871094"/>
      <use xlink:href="#DejaVuSans-6f" x="267.871094"/>
      <use xlink:href="#DejaVuSans-70" x="329.052734"/>
      <use xlink:href="#DejaVuSans-73" x="392.529297"/>
      <use xlink:href="#DejaVuSans-3d" x="444.628906"/>
      <use xlink:href="#DejaVuSans-36" x="528.417969"/>
      <use xlink:href="#DejaVuSans-34" x="592.041016"/>
     </g>
    </g>
   </g>
  </g>
 </g>
 <defs>
  <clipPath id="p30e25f7c43">
   <rect x="90" y="51.84" width="558" height="332.64"/>
  </clipPath>
 </defs>
</svg>
