<?xml version="1.0" encoding="utf-8" standalone="no"?>
<!DOCTYPE svg PUBLIC "-//W3C//DTD SVG 1.1//EN"
  "http://www.w3.org/Graphics/SVG/1.1/DTD/svg11.dtd">
<svg xmlns:xlink="http://www.w3.org/1999/xlink" width="720pt" height="432pt" viewBox="0 0 720 432" xmlns="http://www.w3.org/2000/svg" version="1.1">
 <metadata>
  <rdf:RDF xmlns:dc="http://purl.org/dc/elements/1.1/" xmlns:cc="http://creativecommons.org/ns#" xmlns:rdf="http://www.w3.org/1999/02/22-rdf-syntax-ns#">
   <cc:Work>
    <dc:type rdf:resource="http://purl.org/dc/dcmitype/StillImage"/>
    <dc:date>2024-01-19T16:09:12.723056</dc:date>
    <dc:format>image/svg+xml</dc:format>
    <dc:creator>
     <cc:Agent>
      <dc:title>Matplotlib v3.8.2, https://matplotlib.org/</dc:title>
     </cc:Agent>
    </dc:creator>
   </cc:Work>
  </rdf:RDF>
 </metadata>
 <defs>
  <style type="text/css">*{stroke-linejoin: round; stroke-linecap: butt}</style>
 </defs>
 <g id="figure_1">
  <g id="patch_1">
   <path d="M 0 432 
L 720 432 
L 720 0 
L 0 0 
z
"/>
  </g>
  <g id="axes_1">
   <g id="patch_2">
    <path d="M 90 384.48 
L 648 384.48 
L 648 51.84 
L 90 51.84 
z
"/>
   </g>
   <g id="matplotlib.axis_1">
    <g id="xtick_1">
     <g id="line2d_1">
      <path d="M 115.363636 384.48 
L 115.363636 51.84 
" clip-path="url(#pa1d9d88536)" style="fill: none; stroke: #ffffff; stroke-width: 0.8; stroke-linecap: square"/>
     </g>
     <g id="line2d_2">
      <defs>
       <path id="m97433adab1" d="M 0 0 
L 0 3.5 
" style="stroke: #ffffff; stroke-width: 0.8"/>
      </defs>
      <g>
       <use xlink:href="#m97433adab1" x="115.363636" y="384.48" style="fill: #ffffff; stroke: #ffffff; stroke-width: 0.8"/>
      </g>
     </g>
     <g id="text_1">
      <!-- 1 -->
      <g style="fill: #ffffff" transform="translate(115.065326 401.351874) rotate(-45) scale(0.1 -0.1)">
       <defs>
        <path id="DejaVuSans-31" d="M 794 531 
L 1825 531 
L 1825 4091 
L 703 3866 
L 703 4441 
L 1819 4666 
L 2450 4666 
L 2450 531 
L 3481 531 
L 3481 0 
L 794 0 
L 794 531 
z
" transform="scale(0.015625)"/>
       </defs>
       <use xlink:href="#DejaVuSans-31"/>
      </g>
     </g>
    </g>
    <g id="xtick_2">
     <g id="line2d_3">
      <path d="M 136.5 384.48 
L 136.5 51.84 
" clip-path="url(#pa1d9d88536)" style="fill: none; stroke: #ffffff; stroke-width: 0.8; stroke-linecap: square"/>
     </g>
     <g id="line2d_4">
      <g>
       <use xlink:href="#m97433adab1" x="136.5" y="384.48" style="fill: #ffffff; stroke: #ffffff; stroke-width: 0.8"/>
      </g>
     </g>
     <g id="text_2">
      <!-- 201 -->
      <g style="fill: #ffffff" transform="translate(131.702722 410.349807) rotate(-45) scale(0.1 -0.1)">
       <defs>
        <path id="DejaVuSans-32" d="M 1228 531 
L 3431 531 
L 3431 0 
L 469 0 
L 469 531 
Q 828 903 1448 1529 
Q 2069 2156 2228 2338 
Q 2531 2678 2651 2914 
Q 2772 3150 2772 3378 
Q 2772 3750 2511 3984 
Q 2250 4219 1831 4219 
Q 1534 4219 1204 4116 
Q 875 4013 500 3803 
L 500 4441 
Q 881 4594 1212 4672 
Q 1544 4750 1819 4750 
Q 2544 4750 2975 4387 
Q 3406 4025 3406 3419 
Q 3406 3131 3298 2873 
Q 3191 2616 2906 2266 
Q 2828 2175 2409 1742 
Q 1991 1309 1228 531 
z
" transform="scale(0.015625)"/>
        <path id="DejaVuSans-30" d="M 2034 4250 
Q 1547 4250 1301 3770 
Q 1056 3291 1056 2328 
Q 1056 1369 1301 889 
Q 1547 409 2034 409 
Q 2525 409 2770 889 
Q 3016 1369 3016 2328 
Q 3016 3291 2770 3770 
Q 2525 4250 2034 4250 
z
M 2034 4750 
Q 2819 4750 3233 4129 
Q 3647 3509 3647 2328 
Q 3647 1150 3233 529 
Q 2819 -91 2034 -91 
Q 1250 -91 836 529 
Q 422 1150 422 2328 
Q 422 3509 836 4129 
Q 1250 4750 2034 4750 
z
" transform="scale(0.015625)"/>
       </defs>
       <use xlink:href="#DejaVuSans-32"/>
       <use xlink:href="#DejaVuSans-30" x="63.623047"/>
       <use xlink:href="#DejaVuSans-31" x="127.246094"/>
      </g>
     </g>
    </g>
    <g id="xtick_3">
     <g id="line2d_5">
      <path d="M 157.636364 384.48 
L 157.636364 51.84 
" clip-path="url(#pa1d9d88536)" style="fill: none; stroke: #ffffff; stroke-width: 0.8; stroke-linecap: square"/>
     </g>
     <g id="line2d_6">
      <g>
       <use xlink:href="#m97433adab1" x="157.636364" y="384.48" style="fill: #ffffff; stroke: #ffffff; stroke-width: 0.8"/>
      </g>
     </g>
     <g id="text_3">
      <!-- 401 -->
      <g style="fill: #ffffff" transform="translate(152.839086 410.349807) rotate(-45) scale(0.1 -0.1)">
       <defs>
        <path id="DejaVuSans-34" d="M 2419 4116 
L 825 1625 
L 2419 1625 
L 2419 4116 
z
M 2253 4666 
L 3047 4666 
L 3047 1625 
L 3713 1625 
L 3713 1100 
L 3047 1100 
L 3047 0 
L 2419 0 
L 2419 1100 
L 313 1100 
L 313 1709 
L 2253 4666 
z
" transform="scale(0.015625)"/>
       </defs>
       <use xlink:href="#DejaVuSans-34"/>
       <use xlink:href="#DejaVuSans-30" x="63.623047"/>
       <use xlink:href="#DejaVuSans-31" x="127.246094"/>
      </g>
     </g>
    </g>
    <g id="xtick_4">
     <g id="line2d_7">
      <path d="M 178.772727 384.48 
L 178.772727 51.84 
" clip-path="url(#pa1d9d88536)" style="fill: none; stroke: #ffffff; stroke-width: 0.8; stroke-linecap: square"/>
     </g>
     <g id="line2d_8">
      <g>
       <use xlink:href="#m97433adab1" x="178.772727" y="384.48" style="fill: #ffffff; stroke: #ffffff; stroke-width: 0.8"/>
      </g>
     </g>
     <g id="text_4">
      <!-- 601 -->
      <g style="fill: #ffffff" transform="translate(173.97545 410.349807) rotate(-45) scale(0.1 -0.1)">
       <defs>
        <path id="DejaVuSans-36" d="M 2113 2584 
Q 1688 2584 1439 2293 
Q 1191 2003 1191 1497 
Q 1191 994 1439 701 
Q 1688 409 2113 409 
Q 2538 409 2786 701 
Q 3034 994 3034 1497 
Q 3034 2003 2786 2293 
Q 2538 2584 2113 2584 
z
M 3366 4563 
L 3366 3988 
Q 3128 4100 2886 4159 
Q 2644 4219 2406 4219 
Q 1781 4219 1451 3797 
Q 1122 3375 1075 2522 
Q 1259 2794 1537 2939 
Q 1816 3084 2150 3084 
Q 2853 3084 3261 2657 
Q 3669 2231 3669 1497 
Q 3669 778 3244 343 
Q 2819 -91 2113 -91 
Q 1303 -91 875 529 
Q 447 1150 447 2328 
Q 447 3434 972 4092 
Q 1497 4750 2381 4750 
Q 2619 4750 2861 4703 
Q 3103 4656 3366 4563 
z
" transform="scale(0.015625)"/>
       </defs>
       <use xlink:href="#DejaVuSans-36"/>
       <use xlink:href="#DejaVuSans-30" x="63.623047"/>
       <use xlink:href="#DejaVuSans-31" x="127.246094"/>
      </g>
     </g>
    </g>
    <g id="xtick_5">
     <g id="line2d_9">
      <path d="M 199.909091 384.48 
L 199.909091 51.84 
" clip-path="url(#pa1d9d88536)" style="fill: none; stroke: #ffffff; stroke-width: 0.8; stroke-linecap: square"/>
     </g>
     <g id="line2d_10">
      <g>
       <use xlink:href="#m97433adab1" x="199.909091" y="384.48" style="fill: #ffffff; stroke: #ffffff; stroke-width: 0.8"/>
      </g>
     </g>
     <g id="text_5">
      <!-- 801 -->
      <g style="fill: #ffffff" transform="translate(195.111813 410.349807) rotate(-45) scale(0.1 -0.1)">
       <defs>
        <path id="DejaVuSans-38" d="M 2034 2216 
Q 1584 2216 1326 1975 
Q 1069 1734 1069 1313 
Q 1069 891 1326 650 
Q 1584 409 2034 409 
Q 2484 409 2743 651 
Q 3003 894 3003 1313 
Q 3003 1734 2745 1975 
Q 2488 2216 2034 2216 
z
M 1403 2484 
Q 997 2584 770 2862 
Q 544 3141 544 3541 
Q 544 4100 942 4425 
Q 1341 4750 2034 4750 
Q 2731 4750 3128 4425 
Q 3525 4100 3525 3541 
Q 3525 3141 3298 2862 
Q 3072 2584 2669 2484 
Q 3125 2378 3379 2068 
Q 3634 1759 3634 1313 
Q 3634 634 3220 271 
Q 2806 -91 2034 -91 
Q 1263 -91 848 271 
Q 434 634 434 1313 
Q 434 1759 690 2068 
Q 947 2378 1403 2484 
z
M 1172 3481 
Q 1172 3119 1398 2916 
Q 1625 2713 2034 2713 
Q 2441 2713 2670 2916 
Q 2900 3119 2900 3481 
Q 2900 3844 2670 4047 
Q 2441 4250 2034 4250 
Q 1625 4250 1398 4047 
Q 1172 3844 1172 3481 
z
" transform="scale(0.015625)"/>
       </defs>
       <use xlink:href="#DejaVuSans-38"/>
       <use xlink:href="#DejaVuSans-30" x="63.623047"/>
       <use xlink:href="#DejaVuSans-31" x="127.246094"/>
      </g>
     </g>
    </g>
    <g id="xtick_6">
     <g id="line2d_11">
      <path d="M 221.045455 384.48 
L 221.045455 51.84 
" clip-path="url(#pa1d9d88536)" style="fill: none; stroke: #ffffff; stroke-width: 0.8; stroke-linecap: square"/>
     </g>
     <g id="line2d_12">
      <g>
       <use xlink:href="#m97433adab1" x="221.045455" y="384.48" style="fill: #ffffff; stroke: #ffffff; stroke-width: 0.8"/>
      </g>
     </g>
     <g id="text_6">
      <!-- 1001 -->
      <g style="fill: #ffffff" transform="translate(213.998694 414.848774) rotate(-45) scale(0.1 -0.1)">
       <use xlink:href="#DejaVuSans-31"/>
       <use xlink:href="#DejaVuSans-30" x="63.623047"/>
       <use xlink:href="#DejaVuSans-30" x="127.246094"/>
       <use xlink:href="#DejaVuSans-31" x="190.869141"/>
      </g>
     </g>
    </g>
    <g id="xtick_7">
     <g id="line2d_13">
      <path d="M 242.181818 384.48 
L 242.181818 51.84 
" clip-path="url(#pa1d9d88536)" style="fill: none; stroke: #ffffff; stroke-width: 0.8; stroke-linecap: square"/>
     </g>
     <g id="line2d_14">
      <g>
       <use xlink:href="#m97433adab1" x="242.181818" y="384.48" style="fill: #ffffff; stroke: #ffffff; stroke-width: 0.8"/>
      </g>
     </g>
     <g id="text_7">
      <!-- 1201 -->
      <g style="fill: #ffffff" transform="translate(235.135057 414.848774) rotate(-45) scale(0.1 -0.1)">
       <use xlink:href="#DejaVuSans-31"/>
       <use xlink:href="#DejaVuSans-32" x="63.623047"/>
       <use xlink:href="#DejaVuSans-30" x="127.246094"/>
       <use xlink:href="#DejaVuSans-31" x="190.869141"/>
      </g>
     </g>
    </g>
    <g id="xtick_8">
     <g id="line2d_15">
      <path d="M 263.318182 384.48 
L 263.318182 51.84 
" clip-path="url(#pa1d9d88536)" style="fill: none; stroke: #ffffff; stroke-width: 0.8; stroke-linecap: square"/>
     </g>
     <g id="line2d_16">
      <g>
       <use xlink:href="#m97433adab1" x="263.318182" y="384.48" style="fill: #ffffff; stroke: #ffffff; stroke-width: 0.8"/>
      </g>
     </g>
     <g id="text_8">
      <!-- 1401 -->
      <g style="fill: #ffffff" transform="translate(256.271421 414.848774) rotate(-45) scale(0.1 -0.1)">
       <use xlink:href="#DejaVuSans-31"/>
       <use xlink:href="#DejaVuSans-34" x="63.623047"/>
       <use xlink:href="#DejaVuSans-30" x="127.246094"/>
       <use xlink:href="#DejaVuSans-31" x="190.869141"/>
      </g>
     </g>
    </g>
    <g id="xtick_9">
     <g id="line2d_17">
      <path d="M 284.454545 384.48 
L 284.454545 51.84 
" clip-path="url(#pa1d9d88536)" style="fill: none; stroke: #ffffff; stroke-width: 0.8; stroke-linecap: square"/>
     </g>
     <g id="line2d_18">
      <g>
       <use xlink:href="#m97433adab1" x="284.454545" y="384.48" style="fill: #ffffff; stroke: #ffffff; stroke-width: 0.8"/>
      </g>
     </g>
     <g id="text_9">
      <!-- 1601 -->
      <g style="fill: #ffffff" transform="translate(277.407784 414.848774) rotate(-45) scale(0.1 -0.1)">
       <use xlink:href="#DejaVuSans-31"/>
       <use xlink:href="#DejaVuSans-36" x="63.623047"/>
       <use xlink:href="#DejaVuSans-30" x="127.246094"/>
       <use xlink:href="#DejaVuSans-31" x="190.869141"/>
      </g>
     </g>
    </g>
    <g id="xtick_10">
     <g id="line2d_19">
      <path d="M 305.590909 384.48 
L 305.590909 51.84 
" clip-path="url(#pa1d9d88536)" style="fill: none; stroke: #ffffff; stroke-width: 0.8; stroke-linecap: square"/>
     </g>
     <g id="line2d_20">
      <g>
       <use xlink:href="#m97433adab1" x="305.590909" y="384.48" style="fill: #ffffff; stroke: #ffffff; stroke-width: 0.8"/>
      </g>
     </g>
     <g id="text_10">
      <!-- 1801 -->
      <g style="fill: #ffffff" transform="translate(298.544148 414.848774) rotate(-45) scale(0.1 -0.1)">
       <use xlink:href="#DejaVuSans-31"/>
       <use xlink:href="#DejaVuSans-38" x="63.623047"/>
       <use xlink:href="#DejaVuSans-30" x="127.246094"/>
       <use xlink:href="#DejaVuSans-31" x="190.869141"/>
      </g>
     </g>
    </g>
    <g id="xtick_11">
     <g id="line2d_21">
      <path d="M 326.727273 384.48 
L 326.727273 51.84 
" clip-path="url(#pa1d9d88536)" style="fill: none; stroke: #ffffff; stroke-width: 0.8; stroke-linecap: square"/>
     </g>
     <g id="line2d_22">
      <g>
       <use xlink:href="#m97433adab1" x="326.727273" y="384.48" style="fill: #ffffff; stroke: #ffffff; stroke-width: 0.8"/>
      </g>
     </g>
     <g id="text_11">
      <!-- 2001 -->
      <g style="fill: #ffffff" transform="translate(319.680512 414.848774) rotate(-45) scale(0.1 -0.1)">
       <use xlink:href="#DejaVuSans-32"/>
       <use xlink:href="#DejaVuSans-30" x="63.623047"/>
       <use xlink:href="#DejaVuSans-30" x="127.246094"/>
       <use xlink:href="#DejaVuSans-31" x="190.869141"/>
      </g>
     </g>
    </g>
    <g id="xtick_12">
     <g id="line2d_23">
      <path d="M 347.863636 384.48 
L 347.863636 51.84 
" clip-path="url(#pa1d9d88536)" style="fill: none; stroke: #ffffff; stroke-width: 0.8; stroke-linecap: square"/>
     </g>
     <g id="line2d_24">
      <g>
       <use xlink:href="#m97433adab1" x="347.863636" y="384.48" style="fill: #ffffff; stroke: #ffffff; stroke-width: 0.8"/>
      </g>
     </g>
     <g id="text_12">
      <!-- 2201 -->
      <g style="fill: #ffffff" transform="translate(340.816875 414.848774) rotate(-45) scale(0.1 -0.1)">
       <use xlink:href="#DejaVuSans-32"/>
       <use xlink:href="#DejaVuSans-32" x="63.623047"/>
       <use xlink:href="#DejaVuSans-30" x="127.246094"/>
       <use xlink:href="#DejaVuSans-31" x="190.869141"/>
      </g>
     </g>
    </g>
    <g id="xtick_13">
     <g id="line2d_25">
      <path d="M 369 384.48 
L 369 51.84 
" clip-path="url(#pa1d9d88536)" style="fill: none; stroke: #ffffff; stroke-width: 0.8; stroke-linecap: square"/>
     </g>
     <g id="line2d_26">
      <g>
       <use xlink:href="#m97433adab1" x="369" y="384.48" style="fill: #ffffff; stroke: #ffffff; stroke-width: 0.8"/>
      </g>
     </g>
     <g id="text_13">
      <!-- 2401 -->
      <g style="fill: #ffffff" transform="translate(361.953239 414.848774) rotate(-45) scale(0.1 -0.1)">
       <use xlink:href="#DejaVuSans-32"/>
       <use xlink:href="#DejaVuSans-34" x="63.623047"/>
       <use xlink:href="#DejaVuSans-30" x="127.246094"/>
       <use xlink:href="#DejaVuSans-31" x="190.869141"/>
      </g>
     </g>
    </g>
    <g id="xtick_14">
     <g id="line2d_27">
      <path d="M 390.136364 384.48 
L 390.136364 51.84 
" clip-path="url(#pa1d9d88536)" style="fill: none; stroke: #ffffff; stroke-width: 0.8; stroke-linecap: square"/>
     </g>
     <g id="line2d_28">
      <g>
       <use xlink:href="#m97433adab1" x="390.136364" y="384.48" style="fill: #ffffff; stroke: #ffffff; stroke-width: 0.8"/>
      </g>
     </g>
     <g id="text_14">
      <!-- 2601 -->
      <g style="fill: #ffffff" transform="translate(383.089603 414.848774) rotate(-45) scale(0.1 -0.1)">
       <use xlink:href="#DejaVuSans-32"/>
       <use xlink:href="#DejaVuSans-36" x="63.623047"/>
       <use xlink:href="#DejaVuSans-30" x="127.246094"/>
       <use xlink:href="#DejaVuSans-31" x="190.869141"/>
      </g>
     </g>
    </g>
    <g id="xtick_15">
     <g id="line2d_29">
      <path d="M 411.272727 384.48 
L 411.272727 51.84 
" clip-path="url(#pa1d9d88536)" style="fill: none; stroke: #ffffff; stroke-width: 0.8; stroke-linecap: square"/>
     </g>
     <g id="line2d_30">
      <g>
       <use xlink:href="#m97433adab1" x="411.272727" y="384.48" style="fill: #ffffff; stroke: #ffffff; stroke-width: 0.8"/>
      </g>
     </g>
     <g id="text_15">
      <!-- 2801 -->
      <g style="fill: #ffffff" transform="translate(404.225966 414.848774) rotate(-45) scale(0.1 -0.1)">
       <use xlink:href="#DejaVuSans-32"/>
       <use xlink:href="#DejaVuSans-38" x="63.623047"/>
       <use xlink:href="#DejaVuSans-30" x="127.246094"/>
       <use xlink:href="#DejaVuSans-31" x="190.869141"/>
      </g>
     </g>
    </g>
    <g id="xtick_16">
     <g id="line2d_31">
      <path d="M 432.409091 384.48 
L 432.409091 51.84 
" clip-path="url(#pa1d9d88536)" style="fill: none; stroke: #ffffff; stroke-width: 0.8; stroke-linecap: square"/>
     </g>
     <g id="line2d_32">
      <g>
       <use xlink:href="#m97433adab1" x="432.409091" y="384.48" style="fill: #ffffff; stroke: #ffffff; stroke-width: 0.8"/>
      </g>
     </g>
     <g id="text_16">
      <!-- 3001 -->
      <g style="fill: #ffffff" transform="translate(425.36233 414.848774) rotate(-45) scale(0.1 -0.1)">
       <defs>
        <path id="DejaVuSans-33" d="M 2597 2516 
Q 3050 2419 3304 2112 
Q 3559 1806 3559 1356 
Q 3559 666 3084 287 
Q 2609 -91 1734 -91 
Q 1441 -91 1130 -33 
Q 819 25 488 141 
L 488 750 
Q 750 597 1062 519 
Q 1375 441 1716 441 
Q 2309 441 2620 675 
Q 2931 909 2931 1356 
Q 2931 1769 2642 2001 
Q 2353 2234 1838 2234 
L 1294 2234 
L 1294 2753 
L 1863 2753 
Q 2328 2753 2575 2939 
Q 2822 3125 2822 3475 
Q 2822 3834 2567 4026 
Q 2313 4219 1838 4219 
Q 1578 4219 1281 4162 
Q 984 4106 628 3988 
L 628 4550 
Q 988 4650 1302 4700 
Q 1616 4750 1894 4750 
Q 2613 4750 3031 4423 
Q 3450 4097 3450 3541 
Q 3450 3153 3228 2886 
Q 3006 2619 2597 2516 
z
" transform="scale(0.015625)"/>
       </defs>
       <use xlink:href="#DejaVuSans-33"/>
       <use xlink:href="#DejaVuSans-30" x="63.623047"/>
       <use xlink:href="#DejaVuSans-30" x="127.246094"/>
       <use xlink:href="#DejaVuSans-31" x="190.869141"/>
      </g>
     </g>
    </g>
    <g id="xtick_17">
     <g id="line2d_33">
      <path d="M 453.545455 384.48 
L 453.545455 51.84 
" clip-path="url(#pa1d9d88536)" style="fill: none; stroke: #ffffff; stroke-width: 0.8; stroke-linecap: square"/>
     </g>
     <g id="line2d_34">
      <g>
       <use xlink:href="#m97433adab1" x="453.545455" y="384.48" style="fill: #ffffff; stroke: #ffffff; stroke-width: 0.8"/>
      </g>
     </g>
     <g id="text_17">
      <!-- 3201 -->
      <g style="fill: #ffffff" transform="translate(446.498694 414.848774) rotate(-45) scale(0.1 -0.1)">
       <use xlink:href="#DejaVuSans-33"/>
       <use xlink:href="#DejaVuSans-32" x="63.623047"/>
       <use xlink:href="#DejaVuSans-30" x="127.246094"/>
       <use xlink:href="#DejaVuSans-31" x="190.869141"/>
      </g>
     </g>
    </g>
    <g id="xtick_18">
     <g id="line2d_35">
      <path d="M 474.681818 384.48 
L 474.681818 51.84 
" clip-path="url(#pa1d9d88536)" style="fill: none; stroke: #ffffff; stroke-width: 0.8; stroke-linecap: square"/>
     </g>
     <g id="line2d_36">
      <g>
       <use xlink:href="#m97433adab1" x="474.681818" y="384.48" style="fill: #ffffff; stroke: #ffffff; stroke-width: 0.8"/>
      </g>
     </g>
     <g id="text_18">
      <!-- 3401 -->
      <g style="fill: #ffffff" transform="translate(467.635057 414.848774) rotate(-45) scale(0.1 -0.1)">
       <use xlink:href="#DejaVuSans-33"/>
       <use xlink:href="#DejaVuSans-34" x="63.623047"/>
       <use xlink:href="#DejaVuSans-30" x="127.246094"/>
       <use xlink:href="#DejaVuSans-31" x="190.869141"/>
      </g>
     </g>
    </g>
    <g id="xtick_19">
     <g id="line2d_37">
      <path d="M 495.818182 384.48 
L 495.818182 51.84 
" clip-path="url(#pa1d9d88536)" style="fill: none; stroke: #ffffff; stroke-width: 0.8; stroke-linecap: square"/>
     </g>
     <g id="line2d_38">
      <g>
       <use xlink:href="#m97433adab1" x="495.818182" y="384.48" style="fill: #ffffff; stroke: #ffffff; stroke-width: 0.8"/>
      </g>
     </g>
     <g id="text_19">
      <!-- 3601 -->
      <g style="fill: #ffffff" transform="translate(488.771421 414.848774) rotate(-45) scale(0.1 -0.1)">
       <use xlink:href="#DejaVuSans-33"/>
       <use xlink:href="#DejaVuSans-36" x="63.623047"/>
       <use xlink:href="#DejaVuSans-30" x="127.246094"/>
       <use xlink:href="#DejaVuSans-31" x="190.869141"/>
      </g>
     </g>
    </g>
    <g id="xtick_20">
     <g id="line2d_39">
      <path d="M 516.954545 384.48 
L 516.954545 51.84 
" clip-path="url(#pa1d9d88536)" style="fill: none; stroke: #ffffff; stroke-width: 0.8; stroke-linecap: square"/>
     </g>
     <g id="line2d_40">
      <g>
       <use xlink:href="#m97433adab1" x="516.954545" y="384.48" style="fill: #ffffff; stroke: #ffffff; stroke-width: 0.8"/>
      </g>
     </g>
     <g id="text_20">
      <!-- 3801 -->
      <g style="fill: #ffffff" transform="translate(509.907784 414.848774) rotate(-45) scale(0.1 -0.1)">
       <use xlink:href="#DejaVuSans-33"/>
       <use xlink:href="#DejaVuSans-38" x="63.623047"/>
       <use xlink:href="#DejaVuSans-30" x="127.246094"/>
       <use xlink:href="#DejaVuSans-31" x="190.869141"/>
      </g>
     </g>
    </g>
    <g id="xtick_21">
     <g id="line2d_41">
      <path d="M 538.090909 384.48 
L 538.090909 51.84 
" clip-path="url(#pa1d9d88536)" style="fill: none; stroke: #ffffff; stroke-width: 0.8; stroke-linecap: square"/>
     </g>
     <g id="line2d_42">
      <g>
       <use xlink:href="#m97433adab1" x="538.090909" y="384.48" style="fill: #ffffff; stroke: #ffffff; stroke-width: 0.8"/>
      </g>
     </g>
     <g id="text_21">
      <!-- 4001 -->
      <g style="fill: #ffffff" transform="translate(531.044148 414.848774) rotate(-45) scale(0.1 -0.1)">
       <use xlink:href="#DejaVuSans-34"/>
       <use xlink:href="#DejaVuSans-30" x="63.623047"/>
       <use xlink:href="#DejaVuSans-30" x="127.246094"/>
       <use xlink:href="#DejaVuSans-31" x="190.869141"/>
      </g>
     </g>
    </g>
    <g id="xtick_22">
     <g id="line2d_43">
      <path d="M 559.227273 384.48 
L 559.227273 51.84 
" clip-path="url(#pa1d9d88536)" style="fill: none; stroke: #ffffff; stroke-width: 0.8; stroke-linecap: square"/>
     </g>
     <g id="line2d_44">
      <g>
       <use xlink:href="#m97433adab1" x="559.227273" y="384.48" style="fill: #ffffff; stroke: #ffffff; stroke-width: 0.8"/>
      </g>
     </g>
     <g id="text_22">
      <!-- 4201 -->
      <g style="fill: #ffffff" transform="translate(552.180512 414.848774) rotate(-45) scale(0.1 -0.1)">
       <use xlink:href="#DejaVuSans-34"/>
       <use xlink:href="#DejaVuSans-32" x="63.623047"/>
       <use xlink:href="#DejaVuSans-30" x="127.246094"/>
       <use xlink:href="#DejaVuSans-31" x="190.869141"/>
      </g>
     </g>
    </g>
    <g id="xtick_23">
     <g id="line2d_45">
      <path d="M 580.363636 384.48 
L 580.363636 51.84 
" clip-path="url(#pa1d9d88536)" style="fill: none; stroke: #ffffff; stroke-width: 0.8; stroke-linecap: square"/>
     </g>
     <g id="line2d_46">
      <g>
       <use xlink:href="#m97433adab1" x="580.363636" y="384.48" style="fill: #ffffff; stroke: #ffffff; stroke-width: 0.8"/>
      </g>
     </g>
     <g id="text_23">
      <!-- 4401 -->
      <g style="fill: #ffffff" transform="translate(573.316875 414.848774) rotate(-45) scale(0.1 -0.1)">
       <use xlink:href="#DejaVuSans-34"/>
       <use xlink:href="#DejaVuSans-34" x="63.623047"/>
       <use xlink:href="#DejaVuSans-30" x="127.246094"/>
       <use xlink:href="#DejaVuSans-31" x="190.869141"/>
      </g>
     </g>
    </g>
    <g id="xtick_24">
     <g id="line2d_47">
      <path d="M 601.5 384.48 
L 601.5 51.84 
" clip-path="url(#pa1d9d88536)" style="fill: none; stroke: #ffffff; stroke-width: 0.8; stroke-linecap: square"/>
     </g>
     <g id="line2d_48">
      <g>
       <use xlink:href="#m97433adab1" x="601.5" y="384.48" style="fill: #ffffff; stroke: #ffffff; stroke-width: 0.8"/>
      </g>
     </g>
     <g id="text_24">
      <!-- 4601 -->
      <g style="fill: #ffffff" transform="translate(594.453239 414.848774) rotate(-45) scale(0.1 -0.1)">
       <use xlink:href="#DejaVuSans-34"/>
       <use xlink:href="#DejaVuSans-36" x="63.623047"/>
       <use xlink:href="#DejaVuSans-30" x="127.246094"/>
       <use xlink:href="#DejaVuSans-31" x="190.869141"/>
      </g>
     </g>
    </g>
    <g id="xtick_25">
     <g id="line2d_49">
      <path d="M 622.636364 384.48 
L 622.636364 51.84 
" clip-path="url(#pa1d9d88536)" style="fill: none; stroke: #ffffff; stroke-width: 0.8; stroke-linecap: square"/>
     </g>
     <g id="line2d_50">
      <g>
       <use xlink:href="#m97433adab1" x="622.636364" y="384.48" style="fill: #ffffff; stroke: #ffffff; stroke-width: 0.8"/>
      </g>
     </g>
     <g id="text_25">
      <!-- 4801 -->
      <g style="fill: #ffffff" transform="translate(615.589603 414.848774) rotate(-45) scale(0.1 -0.1)">
       <use xlink:href="#DejaVuSans-34"/>
       <use xlink:href="#DejaVuSans-38" x="63.623047"/>
       <use xlink:href="#DejaVuSans-30" x="127.246094"/>
       <use xlink:href="#DejaVuSans-31" x="190.869141"/>
      </g>
     </g>
    </g>
    <g id="text_26">
     <!-- concurrency -->
     <g style="fill: #ffffff" transform="translate(338.239844 427.917773) scale(0.1 -0.1)">
      <defs>
       <path id="DejaVuSans-63" d="M 3122 3366 
L 3122 2828 
Q 2878 2963 2633 3030 
Q 2388 3097 2138 3097 
Q 1578 3097 1268 2742 
Q 959 2388 959 1747 
Q 959 1106 1268 751 
Q 1578 397 2138 397 
Q 2388 397 2633 464 
Q 2878 531 3122 666 
L 3122 134 
Q 2881 22 2623 -34 
Q 2366 -91 2075 -91 
Q 1284 -91 818 406 
Q 353 903 353 1747 
Q 353 2603 823 3093 
Q 1294 3584 2113 3584 
Q 2378 3584 2631 3529 
Q 2884 3475 3122 3366 
z
" transform="scale(0.015625)"/>
       <path id="DejaVuSans-6f" d="M 1959 3097 
Q 1497 3097 1228 2736 
Q 959 2375 959 1747 
Q 959 1119 1226 758 
Q 1494 397 1959 397 
Q 2419 397 2687 759 
Q 2956 1122 2956 1747 
Q 2956 2369 2687 2733 
Q 2419 3097 1959 3097 
z
M 1959 3584 
Q 2709 3584 3137 3096 
Q 3566 2609 3566 1747 
Q 3566 888 3137 398 
Q 2709 -91 1959 -91 
Q 1206 -91 779 398 
Q 353 888 353 1747 
Q 353 2609 779 3096 
Q 1206 3584 1959 3584 
z
" transform="scale(0.015625)"/>
       <path id="DejaVuSans-6e" d="M 3513 2113 
L 3513 0 
L 2938 0 
L 2938 2094 
Q 2938 2591 2744 2837 
Q 2550 3084 2163 3084 
Q 1697 3084 1428 2787 
Q 1159 2491 1159 1978 
L 1159 0 
L 581 0 
L 581 3500 
L 1159 3500 
L 1159 2956 
Q 1366 3272 1645 3428 
Q 1925 3584 2291 3584 
Q 2894 3584 3203 3211 
Q 3513 2838 3513 2113 
z
" transform="scale(0.015625)"/>
       <path id="DejaVuSans-75" d="M 544 1381 
L 544 3500 
L 1119 3500 
L 1119 1403 
Q 1119 906 1312 657 
Q 1506 409 1894 409 
Q 2359 409 2629 706 
Q 2900 1003 2900 1516 
L 2900 3500 
L 3475 3500 
L 3475 0 
L 2900 0 
L 2900 538 
Q 2691 219 2414 64 
Q 2138 -91 1772 -91 
Q 1169 -91 856 284 
Q 544 659 544 1381 
z
M 1991 3584 
L 1991 3584 
z
" transform="scale(0.015625)"/>
       <path id="DejaVuSans-72" d="M 2631 2963 
Q 2534 3019 2420 3045 
Q 2306 3072 2169 3072 
Q 1681 3072 1420 2755 
Q 1159 2438 1159 1844 
L 1159 0 
L 581 0 
L 581 3500 
L 1159 3500 
L 1159 2956 
Q 1341 3275 1631 3429 
Q 1922 3584 2338 3584 
Q 2397 3584 2469 3576 
Q 2541 3569 2628 3553 
L 2631 2963 
z
" transform="scale(0.015625)"/>
       <path id="DejaVuSans-65" d="M 3597 1894 
L 3597 1613 
L 953 1613 
Q 991 1019 1311 708 
Q 1631 397 2203 397 
Q 2534 397 2845 478 
Q 3156 559 3463 722 
L 3463 178 
Q 3153 47 2828 -22 
Q 2503 -91 2169 -91 
Q 1331 -91 842 396 
Q 353 884 353 1716 
Q 353 2575 817 3079 
Q 1281 3584 2069 3584 
Q 2775 3584 3186 3129 
Q 3597 2675 3597 1894 
z
M 3022 2063 
Q 3016 2534 2758 2815 
Q 2500 3097 2075 3097 
Q 1594 3097 1305 2825 
Q 1016 2553 972 2059 
L 3022 2063 
z
" transform="scale(0.015625)"/>
       <path id="DejaVuSans-79" d="M 2059 -325 
Q 1816 -950 1584 -1140 
Q 1353 -1331 966 -1331 
L 506 -1331 
L 506 -850 
L 844 -850 
Q 1081 -850 1212 -737 
Q 1344 -625 1503 -206 
L 1606 56 
L 191 3500 
L 800 3500 
L 1894 763 
L 2988 3500 
L 3597 3500 
L 2059 -325 
z
" transform="scale(0.015625)"/>
      </defs>
      <use xlink:href="#DejaVuSans-63"/>
      <use xlink:href="#DejaVuSans-6f" x="54.980469"/>
      <use xlink:href="#DejaVuSans-6e" x="116.162109"/>
      <use xlink:href="#DejaVuSans-63" x="179.541016"/>
      <use xlink:href="#DejaVuSans-75" x="234.521484"/>
      <use xlink:href="#DejaVuSans-72" x="297.900391"/>
      <use xlink:href="#DejaVuSans-72" x="337.263672"/>
      <use xlink:href="#DejaVuSans-65" x="376.126953"/>
      <use xlink:href="#DejaVuSans-6e" x="437.650391"/>
      <use xlink:href="#DejaVuSans-63" x="501.029297"/>
      <use xlink:href="#DejaVuSans-79" x="556.009766"/>
     </g>
    </g>
   </g>
   <g id="matplotlib.axis_2">
    <g id="ytick_1">
     <g id="line2d_51">
      <path d="M 90 341.088604 
L 648 341.088604 
" clip-path="url(#pa1d9d88536)" style="fill: none; stroke: #ffffff; stroke-width: 0.8; stroke-linecap: square"/>
     </g>
     <g id="line2d_52">
      <defs>
       <path id="mbeedec5cd0" d="M 0 0 
L -3.5 0 
" style="stroke: #ffffff; stroke-width: 0.8"/>
      </defs>
      <g>
       <use xlink:href="#mbeedec5cd0" x="90" y="341.088604" style="fill: #ffffff; stroke: #ffffff; stroke-width: 0.8"/>
      </g>
     </g>
     <g id="text_27">
      <!-- 100 -->
      <g style="fill: #ffffff" transform="translate(63.9125 344.887823) scale(0.1 -0.1)">
       <use xlink:href="#DejaVuSans-31"/>
       <use xlink:href="#DejaVuSans-30" x="63.623047"/>
       <use xlink:href="#DejaVuSans-30" x="127.246094"/>
      </g>
     </g>
    </g>
    <g id="ytick_2">
     <g id="line2d_53">
      <path d="M 90 278.295159 
L 648 278.295159 
" clip-path="url(#pa1d9d88536)" style="fill: none; stroke: #ffffff; stroke-width: 0.8; stroke-linecap: square"/>
     </g>
     <g id="line2d_54">
      <g>
       <use xlink:href="#mbeedec5cd0" x="90" y="278.295159" style="fill: #ffffff; stroke: #ffffff; stroke-width: 0.8"/>
      </g>
     </g>
     <g id="text_28">
      <!-- 200 -->
      <g style="fill: #ffffff" transform="translate(63.9125 282.094378) scale(0.1 -0.1)">
       <use xlink:href="#DejaVuSans-32"/>
       <use xlink:href="#DejaVuSans-30" x="63.623047"/>
       <use xlink:href="#DejaVuSans-30" x="127.246094"/>
      </g>
     </g>
    </g>
    <g id="ytick_3">
     <g id="line2d_55">
      <path d="M 90 215.501714 
L 648 215.501714 
" clip-path="url(#pa1d9d88536)" style="fill: none; stroke: #ffffff; stroke-width: 0.8; stroke-linecap: square"/>
     </g>
     <g id="line2d_56">
      <g>
       <use xlink:href="#mbeedec5cd0" x="90" y="215.501714" style="fill: #ffffff; stroke: #ffffff; stroke-width: 0.8"/>
      </g>
     </g>
     <g id="text_29">
      <!-- 300 -->
      <g style="fill: #ffffff" transform="translate(63.9125 219.300933) scale(0.1 -0.1)">
       <use xlink:href="#DejaVuSans-33"/>
       <use xlink:href="#DejaVuSans-30" x="63.623047"/>
       <use xlink:href="#DejaVuSans-30" x="127.246094"/>
      </g>
     </g>
    </g>
    <g id="ytick_4">
     <g id="line2d_57">
      <path d="M 90 152.708269 
L 648 152.708269 
" clip-path="url(#pa1d9d88536)" style="fill: none; stroke: #ffffff; stroke-width: 0.8; stroke-linecap: square"/>
     </g>
     <g id="line2d_58">
      <g>
       <use xlink:href="#mbeedec5cd0" x="90" y="152.708269" style="fill: #ffffff; stroke: #ffffff; stroke-width: 0.8"/>
      </g>
     </g>
     <g id="text_30">
      <!-- 400 -->
      <g style="fill: #ffffff" transform="translate(63.9125 156.507488) scale(0.1 -0.1)">
       <use xlink:href="#DejaVuSans-34"/>
       <use xlink:href="#DejaVuSans-30" x="63.623047"/>
       <use xlink:href="#DejaVuSans-30" x="127.246094"/>
      </g>
     </g>
    </g>
    <g id="ytick_5">
     <g id="line2d_59">
      <path d="M 90 89.914824 
L 648 89.914824 
" clip-path="url(#pa1d9d88536)" style="fill: none; stroke: #ffffff; stroke-width: 0.8; stroke-linecap: square"/>
     </g>
     <g id="line2d_60">
      <g>
       <use xlink:href="#mbeedec5cd0" x="90" y="89.914824" style="fill: #ffffff; stroke: #ffffff; stroke-width: 0.8"/>
      </g>
     </g>
     <g id="text_31">
      <!-- 500 -->
      <g style="fill: #ffffff" transform="translate(63.9125 93.714042) scale(0.1 -0.1)">
       <defs>
        <path id="DejaVuSans-35" d="M 691 4666 
L 3169 4666 
L 3169 4134 
L 1269 4134 
L 1269 2991 
Q 1406 3038 1543 3061 
Q 1681 3084 1819 3084 
Q 2600 3084 3056 2656 
Q 3513 2228 3513 1497 
Q 3513 744 3044 326 
Q 2575 -91 1722 -91 
Q 1428 -91 1123 -41 
Q 819 9 494 109 
L 494 744 
Q 775 591 1075 516 
Q 1375 441 1709 441 
Q 2250 441 2565 725 
Q 2881 1009 2881 1497 
Q 2881 1984 2565 2268 
Q 2250 2553 1709 2553 
Q 1456 2553 1204 2497 
Q 953 2441 691 2322 
L 691 4666 
z
" transform="scale(0.015625)"/>
       </defs>
       <use xlink:href="#DejaVuSans-35"/>
       <use xlink:href="#DejaVuSans-30" x="63.623047"/>
       <use xlink:href="#DejaVuSans-30" x="127.246094"/>
      </g>
     </g>
    </g>
    <g id="text_32">
     <!-- time (ms) -->
     <g style="fill: #ffffff" transform="translate(57.832812 242.421719) rotate(-90) scale(0.1 -0.1)">
      <defs>
       <path id="DejaVuSans-74" d="M 1172 4494 
L 1172 3500 
L 2356 3500 
L 2356 3053 
L 1172 3053 
L 1172 1153 
Q 1172 725 1289 603 
Q 1406 481 1766 481 
L 2356 481 
L 2356 0 
L 1766 0 
Q 1100 0 847 248 
Q 594 497 594 1153 
L 594 3053 
L 172 3053 
L 172 3500 
L 594 3500 
L 594 4494 
L 1172 4494 
z
" transform="scale(0.015625)"/>
       <path id="DejaVuSans-69" d="M 603 3500 
L 1178 3500 
L 1178 0 
L 603 0 
L 603 3500 
z
M 603 4863 
L 1178 4863 
L 1178 4134 
L 603 4134 
L 603 4863 
z
" transform="scale(0.015625)"/>
       <path id="DejaVuSans-6d" d="M 3328 2828 
Q 3544 3216 3844 3400 
Q 4144 3584 4550 3584 
Q 5097 3584 5394 3201 
Q 5691 2819 5691 2113 
L 5691 0 
L 5113 0 
L 5113 2094 
Q 5113 2597 4934 2840 
Q 4756 3084 4391 3084 
Q 3944 3084 3684 2787 
Q 3425 2491 3425 1978 
L 3425 0 
L 2847 0 
L 2847 2094 
Q 2847 2600 2669 2842 
Q 2491 3084 2119 3084 
Q 1678 3084 1418 2786 
Q 1159 2488 1159 1978 
L 1159 0 
L 581 0 
L 581 3500 
L 1159 3500 
L 1159 2956 
Q 1356 3278 1631 3431 
Q 1906 3584 2284 3584 
Q 2666 3584 2933 3390 
Q 3200 3197 3328 2828 
z
" transform="scale(0.015625)"/>
       <path id="DejaVuSans-20" transform="scale(0.015625)"/>
       <path id="DejaVuSans-28" d="M 1984 4856 
Q 1566 4138 1362 3434 
Q 1159 2731 1159 2009 
Q 1159 1288 1364 580 
Q 1569 -128 1984 -844 
L 1484 -844 
Q 1016 -109 783 600 
Q 550 1309 550 2009 
Q 550 2706 781 3412 
Q 1013 4119 1484 4856 
L 1984 4856 
z
" transform="scale(0.015625)"/>
       <path id="DejaVuSans-73" d="M 2834 3397 
L 2834 2853 
Q 2591 2978 2328 3040 
Q 2066 3103 1784 3103 
Q 1356 3103 1142 2972 
Q 928 2841 928 2578 
Q 928 2378 1081 2264 
Q 1234 2150 1697 2047 
L 1894 2003 
Q 2506 1872 2764 1633 
Q 3022 1394 3022 966 
Q 3022 478 2636 193 
Q 2250 -91 1575 -91 
Q 1294 -91 989 -36 
Q 684 19 347 128 
L 347 722 
Q 666 556 975 473 
Q 1284 391 1588 391 
Q 1994 391 2212 530 
Q 2431 669 2431 922 
Q 2431 1156 2273 1281 
Q 2116 1406 1581 1522 
L 1381 1569 
Q 847 1681 609 1914 
Q 372 2147 372 2553 
Q 372 3047 722 3315 
Q 1072 3584 1716 3584 
Q 2034 3584 2315 3537 
Q 2597 3491 2834 3397 
z
" transform="scale(0.015625)"/>
       <path id="DejaVuSans-29" d="M 513 4856 
L 1013 4856 
Q 1481 4119 1714 3412 
Q 1947 2706 1947 2009 
Q 1947 1309 1714 600 
Q 1481 -109 1013 -844 
L 513 -844 
Q 928 -128 1133 580 
Q 1338 1288 1338 2009 
Q 1338 2731 1133 3434 
Q 928 4138 513 4856 
z
" transform="scale(0.015625)"/>
      </defs>
      <use xlink:href="#DejaVuSans-74"/>
      <use xlink:href="#DejaVuSans-69" x="39.208984"/>
      <use xlink:href="#DejaVuSans-6d" x="66.992188"/>
      <use xlink:href="#DejaVuSans-65" x="164.404297"/>
      <use xlink:href="#DejaVuSans-20" x="225.927734"/>
      <use xlink:href="#DejaVuSans-28" x="257.714844"/>
      <use xlink:href="#DejaVuSans-6d" x="296.728516"/>
      <use xlink:href="#DejaVuSans-73" x="394.140625"/>
      <use xlink:href="#DejaVuSans-29" x="446.240234"/>
     </g>
    </g>
   </g>
   <g id="line2d_61">
    <path d="M 115.363636 69.769692 
L 117.057368 115.310959 
L 118.7511 156.559762 
L 120.444832 193.716577 
L 122.138564 226.981879 
L 123.832296 256.556145 
L 125.526028 282.63985 
L 127.21976 305.433469 
L 128.913492 325.137478 
L 130.607224 341.952352 
L 132.300956 356.078568 
L 133.994688 367.7166 
L 135.68842 377.066924 
L 137.382152 384.330016 
L 138.229018 387.241498 
L 139.075884 389.706351 
L 139.92275 391.749633 
L 140.769616 393.396404 
L 141.616482 394.671724 
L 142.463348 395.600652 
L 143.310214 396.208248 
L 144.15708 396.51957 
L 145.003946 396.559679 
L 145.850812 396.353634 
L 146.697678 395.926494 
L 147.544544 395.303318 
L 149.238276 393.569099 
L 150.932008 391.351452 
L 154.319472 386.267777 
L 156.86007 382.677059 
L 158.553802 380.758153 
L 160.247534 379.31698 
L 161.941266 378.304454 
L 163.634998 377.667417 
L 165.32873 377.352712 
L 167.022462 377.307183 
L 168.716194 377.477671 
L 171.256792 378.022156 
L 178.878586 380.060186 
L 181.419183 380.320415 
L 183.959781 380.293631 
L 186.500379 380.034261 
L 189.887843 379.420703 
L 194.969039 378.188715 
L 200.050235 376.969778 
L 204.284565 376.218405 
L 208.518895 375.694993 
L 214.446957 375.206861 
L 228.843679 374.144358 
L 238.159205 373.165853 
L 248.321597 371.875953 
L 256.790256 370.594805 
L 264.41205 369.218975 
L 280.502504 366.149678 
L 284.736834 365.603491 
L 288.971164 365.258403 
L 294.899226 365.023834 
L 311.836546 364.561743 
L 317.764608 364.097036 
L 323.69267 363.397692 
L 328.773866 362.587177 
L 334.701927 361.405638 
L 341.476855 359.8266 
L 352.486113 356.996516 
L 381.279557 349.517496 
L 386.360753 348.513258 
L 390.595083 347.881333 
L 394.829413 347.461778 
L 399.910609 347.180007 
L 407.532402 347.021991 
L 417.694794 346.824547 
L 422.77599 346.508815 
L 427.01032 346.032723 
L 430.397784 345.468596 
L 433.785248 344.708757 
L 438.019578 343.497664 
L 443.94764 341.498381 
L 453.263166 338.28778 
L 457.497496 337.053223 
L 461.731826 336.053098 
L 465.11929 335.449644 
L 468.506754 335.043974 
L 471.894218 334.857308 
L 475.281682 334.910776 
L 478.669146 335.199711 
L 482.903475 335.790313 
L 494.759599 337.605243 
L 498.147063 337.848989 
L 501.534527 337.894753 
L 505.768857 337.699135 
L 510.003187 337.254011 
L 514.237517 336.593033 
L 519.318713 335.559002 
L 523.553043 334.472936 
L 526.940507 333.402029 
L 530.327971 332.106887 
L 533.715435 330.546316 
L 537.102899 328.679118 
L 540.490363 326.477824 
L 546.418425 322.200784 
L 550.652755 319.28983 
L 553.193353 317.779529 
L 555.733951 316.544684 
L 557.427683 315.914183 
L 559.121414 315.465655 
L 560.815146 315.215745 
L 562.508878 315.146481 
L 565.049476 315.31916 
L 567.590074 315.73851 
L 571.824404 316.725188 
L 576.058734 317.686891 
L 578.599332 318.067281 
L 581.13993 318.183748 
L 583.680528 317.995047 
L 586.221126 317.549945 
L 589.60859 316.65669 
L 593.84292 315.249373 
L 600.617848 312.951226 
L 604.005312 312.069416 
L 606.54591 311.636432 
L 609.086508 311.46288 
L 610.78024 311.519611 
L 612.473972 311.7341 
L 614.167704 312.123331 
L 615.861436 312.704284 
L 617.555168 313.493942 
L 619.2489 314.509288 
L 620.942632 315.767304 
L 622.636364 317.284971 
L 622.636364 317.284971 
" clip-path="url(#pa1d9d88536)" style="fill: none; stroke: #8dd3c7; stroke-width: 1.5; stroke-linecap: square"/>
   </g>
   <g id="line2d_62">
    <path d="M 115.363636 70.220495 
L 117.057368 115.774655 
L 118.7511 157.01462 
L 120.444832 194.142768 
L 122.138564 227.361478 
L 123.832296 256.873127 
L 125.526028 282.880094 
L 127.21976 305.584756 
L 128.913492 325.189491 
L 130.607224 341.896678 
L 132.300956 355.908695 
L 133.994688 367.427919 
L 135.68842 376.656728 
L 137.382152 383.797501 
L 138.229018 386.648117 
L 139.075884 389.052615 
L 139.92275 391.036293 
L 140.769616 392.624449 
L 141.616482 393.842379 
L 142.463348 394.71538 
L 143.310214 395.268751 
L 144.15708 395.527787 
L 145.003946 395.517787 
L 145.850812 395.264048 
L 146.697678 394.791866 
L 147.544544 394.12654 
L 149.238276 392.317641 
L 150.932008 390.03973 
L 156.86007 381.295403 
L 158.553802 379.404494 
L 160.247534 378.012993 
L 161.941266 377.068065 
L 163.634998 376.512711 
L 165.32873 376.289931 
L 167.022462 376.342728 
L 168.716194 376.614102 
L 171.256792 377.30631 
L 178.03172 379.466599 
L 179.725452 379.771671 
L 181.419183 379.912303 
L 183.959781 379.856989 
L 186.500379 379.542613 
L 189.887843 378.838008 
L 200.897101 376.149729 
L 204.284565 375.717372 
L 208.518895 375.457836 
L 215.293823 375.361262 
L 221.221885 375.205915 
L 225.456215 374.866868 
L 230.537411 374.231958 
L 238.159205 373.01051 
L 250.862195 370.951351 
L 279.655638 366.66355 
L 286.430566 365.923448 
L 292.358628 365.503603 
L 298.28669 365.330475 
L 303.367886 365.401179 
L 309.295948 365.740191 
L 314.377144 366.000122 
L 317.764608 365.961995 
L 320.305206 365.742865 
L 322.845804 365.307974 
L 325.386402 364.61012 
L 327.927 363.604564 
L 330.467598 362.311321 
L 333.855061 360.295009 
L 341.476855 355.613743 
L 344.017453 354.339773 
L 346.558051 353.364153 
L 348.251783 352.925349 
L 349.945515 352.672191 
L 351.639247 352.584185 
L 354.179845 352.708318 
L 356.720443 353.066426 
L 360.954773 353.958947 
L 366.035969 355.046874 
L 368.576567 355.405085 
L 371.117165 355.539948 
L 373.657763 355.449817 
L 376.198361 355.161743 
L 379.585825 354.516638 
L 382.973289 353.6322 
L 387.207619 352.288083 
L 396.523145 348.976021 
L 401.604341 347.297232 
L 405.838671 346.137554 
L 409.226134 345.442354 
L 412.613598 345.010771 
L 416.001062 344.833041 
L 421.082258 344.840677 
L 427.857186 344.853619 
L 431.24465 344.64307 
L 434.632114 344.166641 
L 438.019578 343.433353 
L 442.253908 342.268337 
L 454.956898 338.524665 
L 459.191228 337.614247 
L 463.425558 336.913511 
L 468.506754 336.304526 
L 474.434816 335.84416 
L 487.984671 334.964504 
L 491.372135 334.494762 
L 494.759599 333.816113 
L 498.147063 332.884735 
L 504.075125 330.903164 
L 508.309455 329.568507 
L 511.696919 328.762912 
L 514.237517 328.405112 
L 516.778115 328.325284 
L 519.318713 328.559973 
L 521.859311 329.029626 
L 530.327971 330.812096 
L 532.868569 330.967904 
L 534.562301 330.867878 
L 536.256033 330.564886 
L 537.949765 330.024772 
L 539.643497 329.223533 
L 541.337229 328.189363 
L 543.877827 326.299631 
L 547.265291 323.384046 
L 552.346487 318.892323 
L 554.887085 316.921752 
L 556.580817 315.812961 
L 558.274548 314.920525 
L 559.96828 314.288247 
L 561.662012 313.9244 
L 563.355744 313.795439 
L 565.049476 313.865414 
L 567.590074 314.264751 
L 570.130672 314.909496 
L 577.752466 317.102967 
L 580.293064 317.516133 
L 581.986796 317.60591 
L 584.527394 317.468929 
L 587.067992 317.051706 
L 589.60859 316.405694 
L 592.996054 315.277381 
L 598.07725 313.260584 
L 604.005312 310.907099 
L 607.392776 309.799553 
L 609.933374 309.17553 
L 612.473972 308.785793 
L 615.01457 308.681795 
L 616.708302 308.796616 
L 618.402034 309.076544 
L 620.095766 309.536827 
L 621.789498 310.192708 
L 622.636364 310.598763 
L 622.636364 310.598763 
" clip-path="url(#pa1d9d88536)" style="fill: none; stroke: #feffb3; stroke-width: 1.5; stroke-linecap: square"/>
   </g>
   <g id="line2d_63">
    <path d="M 115.363636 68.792968 
L 117.057368 114.578535 
L 118.7511 156.043264 
L 120.444832 193.388847 
L 122.138564 226.816975 
L 123.832296 256.529341 
L 125.526028 282.727634 
L 127.21976 305.613548 
L 128.913492 325.388774 
L 130.607224 342.255003 
L 132.300956 356.413927 
L 133.994688 368.067237 
L 135.68842 377.416625 
L 137.382152 384.663783 
L 138.229018 387.562054 
L 139.075884 390.010401 
L 139.92275 392.034037 
L 140.769616 393.658173 
L 141.616482 394.908019 
L 142.463348 395.808788 
L 143.310214 396.385691 
L 144.15708 396.663939 
L 145.003946 396.668744 
L 145.850812 396.425318 
L 146.697678 395.958871 
L 147.544544 395.294615 
L 149.238276 393.473523 
L 150.932008 391.163733 
L 154.319472 385.884826 
L 156.86007 382.142894 
L 158.553802 380.123222 
L 160.247534 378.583612 
L 161.941266 377.477802 
L 163.634998 376.755484 
L 165.32873 376.366353 
L 167.022462 376.260101 
L 168.716194 376.386421 
L 171.256792 376.901928 
L 174.644256 377.933742 
L 178.878586 379.211176 
L 181.419183 379.70609 
L 183.959781 379.966085 
L 186.500379 380.017134 
L 189.040977 379.885208 
L 192.428441 379.469567 
L 195.815905 378.836369 
L 200.897101 377.613243 
L 217.834421 373.223557 
L 222.068751 372.493977 
L 226.303081 372.029622 
L 231.384277 371.724919 
L 249.168463 370.946547 
L 255.94339 370.294497 
L 263.565184 369.344642 
L 280.502504 367.104936 
L 285.5837 366.710972 
L 298.28669 365.950054 
L 301.674154 365.441804 
L 304.214752 364.885011 
L 306.75535 364.143624 
L 310.142814 362.894751 
L 316.917742 360.023097 
L 321.152072 358.381721 
L 323.69267 357.594827 
L 326.233268 357.029233 
L 328.773866 356.734107 
L 331.314463 356.682822 
L 334.701927 356.889899 
L 339.783123 357.500841 
L 344.864319 358.043961 
L 347.404917 358.139543 
L 349.945515 358.045745 
L 352.486113 357.767745 
L 355.873577 357.161431 
L 360.107907 356.123223 
L 366.882835 354.136444 
L 373.657763 352.203309 
L 382.126423 350.052203 
L 397.370011 346.468387 
L 402.451207 345.498809 
L 406.685537 344.938467 
L 410.073 344.712189 
L 413.460464 344.722856 
L 417.694794 344.992967 
L 426.163454 345.630137 
L 429.550918 345.636171 
L 432.091516 345.451749 
L 434.632114 345.066557 
L 438.019578 344.280238 
L 442.253908 342.995022 
L 454.110032 339.150719 
L 457.497496 338.36808 
L 461.731826 337.636288 
L 466.813022 337.026668 
L 474.434816 336.407835 
L 484.597207 335.575433 
L 490.525269 334.893966 
L 495.606465 334.109166 
L 500.687661 333.098492 
L 507.462589 331.492481 
L 525.246775 327.111023 
L 531.174837 325.957585 
L 536.256033 325.204444 
L 541.337229 324.714156 
L 554.040219 323.737009 
L 557.427683 323.234336 
L 560.815146 322.51447 
L 564.20261 321.578204 
L 569.283806 319.912863 
L 579.446198 316.496521 
L 583.680528 315.3777 
L 587.914858 314.517166 
L 592.149188 313.889288 
L 596.383518 313.46816 
L 601.464714 313.199241 
L 606.54591 313.145974 
L 612.473972 313.296668 
L 620.095766 313.717794 
L 622.636364 313.891387 
L 622.636364 313.891387 
" clip-path="url(#pa1d9d88536)" style="fill: none; stroke: #bfbbd9; stroke-width: 1.5; stroke-linecap: square"/>
   </g>
   <g id="line2d_64">
    <path d="M 115.363636 68.684913 
L 117.057368 114.424309 
L 118.7511 155.856215 
L 120.444832 193.181447 
L 122.138564 226.600818 
L 123.832296 256.315143 
L 125.526028 282.525237 
L 127.21976 305.431914 
L 128.913492 325.235988 
L 130.607224 342.138273 
L 132.300956 356.339585 
L 133.994688 368.040737 
L 135.68842 377.442543 
L 137.382152 384.745818 
L 138.229018 387.673262 
L 139.075884 390.151377 
L 139.92275 392.205268 
L 140.769616 393.860034 
L 141.616482 395.140779 
L 142.463348 396.072603 
L 143.310214 396.680609 
L 144.15708 396.989899 
L 145.003946 397.025573 
L 145.850812 396.812735 
L 146.697678 396.376485 
L 147.544544 395.741927 
L 149.238276 393.978288 
L 150.932008 391.722633 
L 154.319472 386.538534 
L 156.86007 382.852474 
L 158.553802 380.861178 
L 160.247534 379.342386 
L 161.941266 378.249987 
L 163.634998 377.533843 
L 165.32873 377.143817 
L 167.022462 377.02977 
L 168.716194 377.141566 
L 171.256792 377.623038 
L 174.644256 378.587496 
L 178.03172 379.552845 
L 180.572317 380.048147 
L 183.112915 380.293391 
L 185.653513 380.321025 
L 189.040977 380.076894 
L 192.428441 379.583973 
L 196.662771 378.738158 
L 214.446957 374.914887 
L 220.375019 373.93945 
L 225.456215 373.31442 
L 231.384277 372.817578 
L 238.159205 372.49727 
L 246.627865 372.34878 
L 253.402793 372.153704 
L 257.637122 371.820315 
L 261.024586 371.362466 
L 264.41205 370.68517 
L 268.64638 369.544793 
L 281.34937 365.790967 
L 284.736834 365.132372 
L 288.124298 364.752697 
L 292.358628 364.569627 
L 305.061618 364.331344 
L 308.449082 363.948668 
L 312.683412 363.231514 
L 326.233268 360.674098 
L 330.467598 360.252764 
L 344.017453 359.203784 
L 347.404917 358.571942 
L 350.792381 357.643711 
L 355.026711 356.165508 
L 365.189103 352.382155 
L 368.576567 351.425457 
L 371.117165 350.911617 
L 374.504629 350.466171 
L 378.738959 350.152006 
L 387.207619 349.579383 
L 390.595083 349.090053 
L 393.982547 348.345812 
L 398.216877 347.162449 
L 408.379268 344.157244 
L 411.766732 343.411748 
L 415.154196 342.912668 
L 418.54166 342.645933 
L 421.929124 342.585639 
L 426.163454 342.761113 
L 430.397784 343.168079 
L 436.325846 344.011225 
L 442.253908 344.803902 
L 445.641372 345.028407 
L 448.18197 345.010925 
L 450.722568 344.787096 
L 453.263166 344.314588 
L 455.803764 343.564471 
L 458.344362 342.582808 
L 461.731826 341.038431 
L 469.35362 337.413435 
L 471.894218 336.415484 
L 474.434816 335.642995 
L 476.975414 335.154225 
L 479.516012 334.932847 
L 482.05661 334.937637 
L 485.444073 335.224559 
L 488.831537 335.742481 
L 495.606465 337.080296 
L 500.687661 337.985848 
L 504.921991 338.503013 
L 508.309455 338.688852 
L 511.696919 338.616296 
L 514.237517 338.361311 
L 516.778115 337.910255 
L 519.318713 337.245651 
L 521.859311 336.371019 
L 524.399909 335.296338 
L 526.940507 334.031592 
L 530.327971 332.066858 
L 533.715435 329.805637 
L 537.102899 327.271587 
L 541.337229 323.783329 
L 547.265291 318.876734 
L 549.805889 317.0081 
L 552.346487 315.406236 
L 554.040219 314.529697 
L 555.733951 313.836468 
L 557.427683 313.352449 
L 559.121414 313.103537 
L 560.815146 313.106902 
L 562.508878 313.337575 
L 564.20261 313.757891 
L 566.743208 314.661546 
L 570.130672 316.1786 
L 575.211868 318.511033 
L 577.752466 319.427384 
L 579.446198 319.85942 
L 581.13993 320.105333 
L 582.833662 320.154224 
L 584.527394 320.024011 
L 587.067992 319.53538 
L 589.60859 318.753072 
L 592.149188 317.742671 
L 595.536652 316.15401 
L 604.852178 311.564679 
L 607.392776 310.562968 
L 609.933374 309.792248 
L 612.473972 309.318101 
L 614.167704 309.199153 
L 615.861436 309.260596 
L 617.555168 309.521863 
L 619.2489 310.002384 
L 620.942632 310.721593 
L 622.636364 311.698921 
L 622.636364 311.698921 
" clip-path="url(#pa1d9d88536)" style="fill: none; stroke: #fa8174; stroke-width: 1.5; stroke-linecap: square"/>
   </g>
   <g id="line2d_65">
    <path d="M 115.363636 68.239946 
L 117.057368 114.234415 
L 118.7511 155.880341 
L 120.444832 193.38113 
L 122.138564 226.940186 
L 123.832296 256.760912 
L 125.526028 283.046713 
L 127.21976 306.000994 
L 128.913492 325.827159 
L 130.607224 342.728612 
L 132.300956 356.908758 
L 133.994688 368.571 
L 135.68842 377.918744 
L 137.382152 385.155394 
L 138.229018 388.045622 
L 139.075884 390.484353 
L 139.92275 392.497013 
L 140.769616 394.109027 
L 141.616482 395.345821 
L 142.463348 396.23282 
L 143.310214 396.79545 
L 144.15708 397.059136 
L 145.003946 397.049304 
L 145.850812 396.791379 
L 146.697678 396.310787 
L 147.544544 395.632954 
L 149.238276 393.787265 
L 150.932008 391.457717 
L 157.706936 381.369013 
L 159.400668 379.622964 
L 161.0944 378.346554 
L 162.788132 377.486939 
L 164.481864 376.991273 
L 166.175596 376.806711 
L 167.869328 376.880408 
L 169.56306 377.159518 
L 172.103658 377.847734 
L 178.878586 380.004864 
L 181.419183 380.466246 
L 183.959781 380.661943 
L 186.500379 380.628019 
L 189.040977 380.400536 
L 192.428441 379.858467 
L 196.662771 378.917373 
L 214.446957 374.596785 
L 219.528153 373.691881 
L 223.762483 373.153016 
L 228.843679 372.73107 
L 247.474731 371.460589 
L 255.94339 370.423527 
L 281.34937 366.955937 
L 286.430566 365.966772 
L 297.439824 363.675194 
L 300.827288 363.192967 
L 304.214752 362.931766 
L 306.75535 362.919653 
L 310.142814 363.135287 
L 315.22401 363.739961 
L 321.152072 364.433517 
L 324.539536 364.612099 
L 327.080134 364.558828 
L 329.620732 364.31044 
L 332.161329 363.880717 
L 335.548793 363.061778 
L 338.936257 362.007113 
L 343.170587 360.432724 
L 348.251783 358.295556 
L 360.107907 353.174776 
L 364.342237 351.617838 
L 367.729701 350.586215 
L 371.117165 349.796569 
L 374.504629 349.243578 
L 378.738959 348.818899 
L 383.820155 348.586149 
L 400.757475 348.141275 
L 404.991805 347.672203 
L 408.379268 347.077348 
L 411.766732 346.240972 
L 415.154196 345.152652 
L 419.388526 343.551802 
L 429.550918 339.592515 
L 432.938382 338.541086 
L 436.325846 337.739816 
L 439.71331 337.172801 
L 443.100774 336.812667 
L 447.335104 336.611724 
L 451.569434 336.637796 
L 456.65063 336.889611 
L 466.813022 337.484465 
L 471.047352 337.476846 
L 474.434816 337.249573 
L 477.82228 336.786661 
L 483.750341 335.674605 
L 488.831537 334.81876 
L 492.219001 334.504908 
L 494.759599 334.487314 
L 497.300197 334.707174 
L 499.840795 335.146331 
L 503.228259 335.953165 
L 510.850053 337.876978 
L 513.390651 338.300463 
L 515.931249 338.497329 
L 518.471847 338.400494 
L 521.012445 337.996679 
L 523.553043 337.314325 
L 526.093641 336.382963 
L 528.634239 335.232123 
L 532.021703 333.407301 
L 535.409167 331.314795 
L 539.643497 328.430082 
L 548.959023 321.911465 
L 552.346487 319.836613 
L 554.887085 318.49638 
L 557.427683 317.394762 
L 559.96828 316.579555 
L 562.508878 316.065246 
L 565.049476 315.808573 
L 567.590074 315.760517 
L 570.977538 315.936232 
L 576.058734 316.477621 
L 581.986796 317.064672 
L 586.221126 317.225169 
L 590.455456 317.151946 
L 594.689786 316.850466 
L 598.924116 316.326196 
L 603.158446 315.584602 
L 607.392776 314.631148 
L 611.627106 313.471302 
L 615.861436 312.110528 
L 620.942632 310.22007 
L 622.636364 309.529002 
L 622.636364 309.529002 
" clip-path="url(#pa1d9d88536)" style="fill: none; stroke: #81b1d2; stroke-width: 1.5; stroke-linecap: square"/>
   </g>
   <g id="line2d_66">
    <path d="M 115.363636 70.610002 
L 117.057368 116.299852 
L 118.7511 157.658939 
L 120.444832 194.890348 
L 122.138564 228.197167 
L 123.832296 257.782479 
L 125.526028 283.849373 
L 127.21976 306.600933 
L 128.913492 326.240246 
L 130.607224 342.970397 
L 132.300956 356.994473 
L 133.994688 368.515559 
L 135.68842 377.736742 
L 137.382152 384.861107 
L 138.229018 387.700447 
L 139.075884 390.091741 
L 139.92275 392.060372 
L 140.769616 393.631728 
L 141.616482 394.831194 
L 142.463348 395.684156 
L 143.310214 396.216 
L 144.15708 396.452111 
L 145.003946 396.417875 
L 145.850812 396.138677 
L 146.697678 395.639905 
L 147.544544 394.946942 
L 149.238276 393.079991 
L 150.932008 390.74091 
L 156.86007 381.768157 
L 158.553802 379.810813 
L 160.247534 378.353706 
L 161.941266 377.3448 
L 163.634998 376.727898 
L 165.32873 376.446803 
L 167.022462 376.445318 
L 168.716194 376.667246 
L 171.256792 377.296107 
L 178.878586 379.543464 
L 180.572317 379.770786 
L 183.112915 379.843311 
L 185.653513 379.650498 
L 189.040977 379.091128 
L 194.122173 377.912038 
L 199.203369 376.779384 
L 202.590833 376.284087 
L 205.978297 376.010905 
L 211.059493 375.860769 
L 220.375019 375.65859 
L 224.609349 375.290811 
L 229.690545 374.60593 
L 243.240401 372.602507 
L 249.168463 372.070446 
L 260.17772 371.137695 
L 264.41205 370.554745 
L 269.493246 369.612735 
L 281.34937 367.282363 
L 285.5837 366.73025 
L 289.81803 366.420406 
L 297.439824 366.16312 
L 303.367886 365.891094 
L 307.602216 365.479341 
L 311.836546 364.836191 
L 316.917742 363.812278 
L 322.845804 362.360149 
L 332.161329 359.789338 
L 338.936257 358.005622 
L 344.017453 356.91057 
L 348.251783 356.254825 
L 352.486113 355.858296 
L 364.342237 354.94209 
L 367.729701 354.386308 
L 371.117165 353.559928 
L 374.504629 352.490349 
L 380.432691 350.334326 
L 385.513887 348.548254 
L 388.901351 347.568743 
L 391.441949 347.015478 
L 394.829413 346.534464 
L 398.216877 346.292513 
L 402.451207 346.232726 
L 409.226134 346.415183 
L 415.154196 346.515571 
L 418.54166 346.394778 
L 421.929124 346.046521 
L 424.469722 345.588816 
L 427.01032 344.925865 
L 429.550918 344.024538 
L 432.091516 342.851708 
L 434.632114 341.389822 
L 438.019578 339.12354 
L 444.794506 334.448996 
L 447.335104 332.972228 
L 449.875702 331.811555 
L 451.569434 331.265905 
L 453.263166 330.939529 
L 454.956898 330.857647 
L 456.65063 331.00365 
L 458.344362 331.343865 
L 460.88496 332.144563 
L 463.425558 333.192539 
L 472.741084 337.31135 
L 475.281682 338.008728 
L 477.82228 338.3618 
L 480.362878 338.415965 
L 482.903475 338.229403 
L 486.290939 337.706746 
L 491.372135 336.615936 
L 496.453331 335.57045 
L 500.687661 334.977013 
L 505.768857 334.522371 
L 518.471847 333.543747 
L 522.706177 332.953563 
L 526.940507 332.141973 
L 531.174837 331.075046 
L 534.562301 330.01486 
L 537.949765 328.752169 
L 542.184095 326.888822 
L 548.112157 323.960626 
L 555.733951 320.214393 
L 559.96828 318.417353 
L 563.355744 317.224306 
L 566.743208 316.253134 
L 570.130672 315.498719 
L 573.518136 314.95594 
L 576.9056 314.619679 
L 580.293064 314.484817 
L 584.527394 314.580115 
L 588.761724 314.90049 
L 595.536652 315.674521 
L 604.005312 316.637353 
L 608.239642 316.926314 
L 612.473972 316.976541 
L 615.861436 316.789176 
L 619.2489 316.35361 
L 621.789498 315.838542 
L 622.636364 315.627435 
L 622.636364 315.627435 
" clip-path="url(#pa1d9d88536)" style="fill: none; stroke: #fdb462; stroke-width: 1.5; stroke-linecap: square"/>
   </g>
   <g id="patch_3">
    <path d="M 90 384.48 
L 90 51.84 
" style="fill: none; stroke: #ffffff; stroke-width: 0.8; stroke-linejoin: miter; stroke-linecap: square"/>
   </g>
   <g id="patch_4">
    <path d="M 648 384.48 
L 648 51.84 
" style="fill: none; stroke: #ffffff; stroke-width: 0.8; stroke-linejoin: miter; stroke-linecap: square"/>
   </g>
   <g id="patch_5">
    <path d="M 90 384.48 
L 648 384.48 
" style="fill: none; stroke: #ffffff; stroke-width: 0.8; stroke-linejoin: miter; stroke-linecap: square"/>
   </g>
   <g id="patch_6">
    <path d="M 90 51.84 
L 648 51.84 
" style="fill: none; stroke: #ffffff; stroke-width: 0.8; stroke-linejoin: miter; stroke-linecap: square"/>
   </g>
   <g id="text_33">
    <!-- caio.thread_aio_asyncio - write (Time vs Concurrency) -->
    <g style="fill: #ffffff" transform="translate(206.78625 45.84) scale(0.12 -0.12)">
     <defs>
      <path id="DejaVuSans-61" d="M 2194 1759 
Q 1497 1759 1228 1600 
Q 959 1441 959 1056 
Q 959 750 1161 570 
Q 1363 391 1709 391 
Q 2188 391 2477 730 
Q 2766 1069 2766 1631 
L 2766 1759 
L 2194 1759 
z
M 3341 1997 
L 3341 0 
L 2766 0 
L 2766 531 
Q 2569 213 2275 61 
Q 1981 -91 1556 -91 
Q 1019 -91 701 211 
Q 384 513 384 1019 
Q 384 1609 779 1909 
Q 1175 2209 1959 2209 
L 2766 2209 
L 2766 2266 
Q 2766 2663 2505 2880 
Q 2244 3097 1772 3097 
Q 1472 3097 1187 3025 
Q 903 2953 641 2809 
L 641 3341 
Q 956 3463 1253 3523 
Q 1550 3584 1831 3584 
Q 2591 3584 2966 3190 
Q 3341 2797 3341 1997 
z
" transform="scale(0.015625)"/>
      <path id="DejaVuSans-2e" d="M 684 794 
L 1344 794 
L 1344 0 
L 684 0 
L 684 794 
z
" transform="scale(0.015625)"/>
      <path id="DejaVuSans-68" d="M 3513 2113 
L 3513 0 
L 2938 0 
L 2938 2094 
Q 2938 2591 2744 2837 
Q 2550 3084 2163 3084 
Q 1697 3084 1428 2787 
Q 1159 2491 1159 1978 
L 1159 0 
L 581 0 
L 581 4863 
L 1159 4863 
L 1159 2956 
Q 1366 3272 1645 3428 
Q 1925 3584 2291 3584 
Q 2894 3584 3203 3211 
Q 3513 2838 3513 2113 
z
" transform="scale(0.015625)"/>
      <path id="DejaVuSans-64" d="M 2906 2969 
L 2906 4863 
L 3481 4863 
L 3481 0 
L 2906 0 
L 2906 525 
Q 2725 213 2448 61 
Q 2172 -91 1784 -91 
Q 1150 -91 751 415 
Q 353 922 353 1747 
Q 353 2572 751 3078 
Q 1150 3584 1784 3584 
Q 2172 3584 2448 3432 
Q 2725 3281 2906 2969 
z
M 947 1747 
Q 947 1113 1208 752 
Q 1469 391 1925 391 
Q 2381 391 2643 752 
Q 2906 1113 2906 1747 
Q 2906 2381 2643 2742 
Q 2381 3103 1925 3103 
Q 1469 3103 1208 2742 
Q 947 2381 947 1747 
z
" transform="scale(0.015625)"/>
      <path id="DejaVuSans-5f" d="M 3263 -1063 
L 3263 -1509 
L -63 -1509 
L -63 -1063 
L 3263 -1063 
z
" transform="scale(0.015625)"/>
      <path id="DejaVuSans-2d" d="M 313 2009 
L 1997 2009 
L 1997 1497 
L 313 1497 
L 313 2009 
z
" transform="scale(0.015625)"/>
      <path id="DejaVuSans-77" d="M 269 3500 
L 844 3500 
L 1563 769 
L 2278 3500 
L 2956 3500 
L 3675 769 
L 4391 3500 
L 4966 3500 
L 4050 0 
L 3372 0 
L 2619 2869 
L 1863 0 
L 1184 0 
L 269 3500 
z
" transform="scale(0.015625)"/>
      <path id="DejaVuSans-54" d="M -19 4666 
L 3928 4666 
L 3928 4134 
L 2272 4134 
L 2272 0 
L 1638 0 
L 1638 4134 
L -19 4134 
L -19 4666 
z
" transform="scale(0.015625)"/>
      <path id="DejaVuSans-76" d="M 191 3500 
L 800 3500 
L 1894 563 
L 2988 3500 
L 3597 3500 
L 2284 0 
L 1503 0 
L 191 3500 
z
" transform="scale(0.015625)"/>
      <path id="DejaVuSans-43" d="M 4122 4306 
L 4122 3641 
Q 3803 3938 3442 4084 
Q 3081 4231 2675 4231 
Q 1875 4231 1450 3742 
Q 1025 3253 1025 2328 
Q 1025 1406 1450 917 
Q 1875 428 2675 428 
Q 3081 428 3442 575 
Q 3803 722 4122 1019 
L 4122 359 
Q 3791 134 3420 21 
Q 3050 -91 2638 -91 
Q 1578 -91 968 557 
Q 359 1206 359 2328 
Q 359 3453 968 4101 
Q 1578 4750 2638 4750 
Q 3056 4750 3426 4639 
Q 3797 4528 4122 4306 
z
" transform="scale(0.015625)"/>
     </defs>
     <use xlink:href="#DejaVuSans-63"/>
     <use xlink:href="#DejaVuSans-61" x="54.980469"/>
     <use xlink:href="#DejaVuSans-69" x="116.259766"/>
     <use xlink:href="#DejaVuSans-6f" x="144.042969"/>
     <use xlink:href="#DejaVuSans-2e" x="203.474609"/>
     <use xlink:href="#DejaVuSans-74" x="235.261719"/>
     <use xlink:href="#DejaVuSans-68" x="274.470703"/>
     <use xlink:href="#DejaVuSans-72" x="337.849609"/>
     <use xlink:href="#DejaVuSans-65" x="376.712891"/>
     <use xlink:href="#DejaVuSans-61" x="438.236328"/>
     <use xlink:href="#DejaVuSans-64" x="499.515625"/>
     <use xlink:href="#DejaVuSans-5f" x="562.992188"/>
     <use xlink:href="#DejaVuSans-61" x="612.992188"/>
     <use xlink:href="#DejaVuSans-69" x="674.271484"/>
     <use xlink:href="#DejaVuSans-6f" x="702.054688"/>
     <use xlink:href="#DejaVuSans-5f" x="763.236328"/>
     <use xlink:href="#DejaVuSans-61" x="813.236328"/>
     <use xlink:href="#DejaVuSans-73" x="874.515625"/>
     <use xlink:href="#DejaVuSans-79" x="926.615234"/>
     <use xlink:href="#DejaVuSans-6e" x="985.794922"/>
     <use xlink:href="#DejaVuSans-63" x="1049.173828"/>
     <use xlink:href="#DejaVuSans-69" x="1104.154297"/>
     <use xlink:href="#DejaVuSans-6f" x="1131.9375"/>
     <use xlink:href="#DejaVuSans-20" x="1193.119141"/>
     <use xlink:href="#DejaVuSans-2d" x="1224.90625"/>
     <use xlink:href="#DejaVuSans-20" x="1260.990234"/>
     <use xlink:href="#DejaVuSans-77" x="1292.777344"/>
     <use xlink:href="#DejaVuSans-72" x="1374.564453"/>
     <use xlink:href="#DejaVuSans-69" x="1415.677734"/>
     <use xlink:href="#DejaVuSans-74" x="1443.460938"/>
     <use xlink:href="#DejaVuSans-65" x="1482.669922"/>
     <use xlink:href="#DejaVuSans-20" x="1544.193359"/>
     <use xlink:href="#DejaVuSans-28" x="1575.980469"/>
     <use xlink:href="#DejaVuSans-54" x="1614.994141"/>
     <use xlink:href="#DejaVuSans-69" x="1672.953125"/>
     <use xlink:href="#DejaVuSans-6d" x="1700.736328"/>
     <use xlink:href="#DejaVuSans-65" x="1798.148438"/>
     <use xlink:href="#DejaVuSans-20" x="1859.671875"/>
     <use xlink:href="#DejaVuSans-76" x="1891.458984"/>
     <use xlink:href="#DejaVuSans-73" x="1950.638672"/>
     <use xlink:href="#DejaVuSans-20" x="2002.738281"/>
     <use xlink:href="#DejaVuSans-43" x="2034.525391"/>
     <use xlink:href="#DejaVuSans-6f" x="2104.349609"/>
     <use xlink:href="#DejaVuSans-6e" x="2165.53125"/>
     <use xlink:href="#DejaVuSans-63" x="2228.910156"/>
     <use xlink:href="#DejaVuSans-75" x="2283.890625"/>
     <use xlink:href="#DejaVuSans-72" x="2347.269531"/>
     <use xlink:href="#DejaVuSans-72" x="2386.632812"/>
     <use xlink:href="#DejaVuSans-65" x="2425.496094"/>
     <use xlink:href="#DejaVuSans-6e" x="2487.019531"/>
     <use xlink:href="#DejaVuSans-63" x="2550.398438"/>
     <use xlink:href="#DejaVuSans-79" x="2605.378906"/>
     <use xlink:href="#DejaVuSans-29" x="2664.558594"/>
    </g>
   </g>
   <g id="legend_1">
    <g id="patch_7">
     <path d="M 543.43125 149.5775 
L 641 149.5775 
Q 643 149.5775 643 147.5775 
L 643 58.84 
Q 643 56.84 641 56.84 
L 543.43125 56.84 
Q 541.43125 56.84 541.43125 58.84 
L 541.43125 147.5775 
Q 541.43125 149.5775 543.43125 149.5775 
z
" style="opacity: 0.8; stroke: #cccccc; stroke-linejoin: miter"/>
    </g>
    <g id="line2d_67">
     <path d="M 545.43125 64.938437 
L 555.43125 64.938437 
L 565.43125 64.938437 
" style="fill: none; stroke: #8dd3c7; stroke-width: 1.5; stroke-linecap: square"/>
    </g>
    <g id="text_34">
     <!-- max_ops=1 -->
     <g style="fill: #ffffff" transform="translate(573.43125 68.438437) scale(0.1 -0.1)">
      <defs>
       <path id="DejaVuSans-78" d="M 3513 3500 
L 2247 1797 
L 3578 0 
L 2900 0 
L 1881 1375 
L 863 0 
L 184 0 
L 1544 1831 
L 300 3500 
L 978 3500 
L 1906 2253 
L 2834 3500 
L 3513 3500 
z
" transform="scale(0.015625)"/>
       <path id="DejaVuSans-70" d="M 1159 525 
L 1159 -1331 
L 581 -1331 
L 581 3500 
L 1159 3500 
L 1159 2969 
Q 1341 3281 1617 3432 
Q 1894 3584 2278 3584 
Q 2916 3584 3314 3078 
Q 3713 2572 3713 1747 
Q 3713 922 3314 415 
Q 2916 -91 2278 -91 
Q 1894 -91 1617 61 
Q 1341 213 1159 525 
z
M 3116 1747 
Q 3116 2381 2855 2742 
Q 2594 3103 2138 3103 
Q 1681 3103 1420 2742 
Q 1159 2381 1159 1747 
Q 1159 1113 1420 752 
Q 1681 391 2138 391 
Q 2594 391 2855 752 
Q 3116 1113 3116 1747 
z
" transform="scale(0.015625)"/>
       <path id="DejaVuSans-3d" d="M 678 2906 
L 4684 2906 
L 4684 2381 
L 678 2381 
L 678 2906 
z
M 678 1631 
L 4684 1631 
L 4684 1100 
L 678 1100 
L 678 1631 
z
" transform="scale(0.015625)"/>
      </defs>
      <use xlink:href="#DejaVuSans-6d"/>
      <use xlink:href="#DejaVuSans-61" x="97.412109"/>
      <use xlink:href="#DejaVuSans-78" x="158.691406"/>
      <use xlink:href="#DejaVuSans-5f" x="217.871094"/>
      <use xlink:href="#DejaVuSans-6f" x="267.871094"/>
      <use xlink:href="#DejaVuSans-70" x="329.052734"/>
      <use xlink:href="#DejaVuSans-73" x="392.529297"/>
      <use xlink:href="#DejaVuSans-3d" x="444.628906"/>
      <use xlink:href="#DejaVuSans-31" x="528.417969"/>
     </g>
    </g>
    <g id="line2d_68">
     <path d="M 545.43125 79.894687 
L 555.43125 79.894687 
L 565.43125 79.894687 
" style="fill: none; stroke: #feffb3; stroke-width: 1.5; stroke-linecap: square"/>
    </g>
    <g id="text_35">
     <!-- max_ops=4 -->
     <g style="fill: #ffffff" transform="translate(573.43125 83.394687) scale(0.1 -0.1)">
      <use xlink:href="#DejaVuSans-6d"/>
      <use xlink:href="#DejaVuSans-61" x="97.412109"/>
      <use xlink:href="#DejaVuSans-78" x="158.691406"/>
      <use xlink:href="#DejaVuSans-5f" x="217.871094"/>
      <use xlink:href="#DejaVuSans-6f" x="267.871094"/>
      <use xlink:href="#DejaVuSans-70" x="329.052734"/>
      <use xlink:href="#DejaVuSans-73" x="392.529297"/>
      <use xlink:href="#DejaVuSans-3d" x="444.628906"/>
      <use xlink:href="#DejaVuSans-34" x="528.417969"/>
     </g>
    </g>
    <g id="line2d_69">
     <path d="M 545.43125 94.850937 
L 555.43125 94.850937 
L 565.43125 94.850937 
" style="fill: none; stroke: #bfbbd9; stroke-width: 1.5; stroke-linecap: square"/>
    </g>
    <g id="text_36">
     <!-- max_ops=8 -->
     <g style="fill: #ffffff" transform="translate(573.43125 98.350937) scale(0.1 -0.1)">
      <use xlink:href="#DejaVuSans-6d"/>
      <use xlink:href="#DejaVuSans-61" x="97.412109"/>
      <use xlink:href="#DejaVuSans-78" x="158.691406"/>
      <use xlink:href="#DejaVuSans-5f" x="217.871094"/>
      <use xlink:href="#DejaVuSans-6f" x="267.871094"/>
      <use xlink:href="#DejaVuSans-70" x="329.052734"/>
      <use xlink:href="#DejaVuSans-73" x="392.529297"/>
      <use xlink:href="#DejaVuSans-3d" x="444.628906"/>
      <use xlink:href="#DejaVuSans-38" x="528.417969"/>
     </g>
    </g>
    <g id="line2d_70">
     <path d="M 545.43125 109.807187 
L 555.43125 109.807187 
L 565.43125 109.807187 
" style="fill: none; stroke: #fa8174; stroke-width: 1.5; stroke-linecap: square"/>
    </g>
    <g id="text_37">
     <!-- max_ops=16 -->
     <g style="fill: #ffffff" transform="translate(573.43125 113.307187) scale(0.1 -0.1)">
      <use xlink:href="#DejaVuSans-6d"/>
      <use xlink:href="#DejaVuSans-61" x="97.412109"/>
      <use xlink:href="#DejaVuSans-78" x="158.691406"/>
      <use xlink:href="#DejaVuSans-5f" x="217.871094"/>
      <use xlink:href="#DejaVuSans-6f" x="267.871094"/>
      <use xlink:href="#DejaVuSans-70" x="329.052734"/>
      <use xlink:href="#DejaVuSans-73" x="392.529297"/>
      <use xlink:href="#DejaVuSans-3d" x="444.628906"/>
      <use xlink:href="#DejaVuSans-31" x="528.417969"/>
      <use xlink:href="#DejaVuSans-36" x="592.041016"/>
     </g>
    </g>
    <g id="line2d_71">
     <path d="M 545.43125 124.763437 
L 555.43125 124.763437 
L 565.43125 124.763437 
" style="fill: none; stroke: #81b1d2; stroke-width: 1.5; stroke-linecap: square"/>
    </g>
    <g id="text_38">
     <!-- max_ops=32 -->
     <g style="fill: #ffffff" transform="translate(573.43125 128.263437) scale(0.1 -0.1)">
      <use xlink:href="#DejaVuSans-6d"/>
      <use xlink:href="#DejaVuSans-61" x="97.412109"/>
      <use xlink:href="#DejaVuSans-78" x="158.691406"/>
      <use xlink:href="#DejaVuSans-5f" x="217.871094"/>
      <use xlink:href="#DejaVuSans-6f" x="267.871094"/>
      <use xlink:href="#DejaVuSans-70" x="329.052734"/>
      <use xlink:href="#DejaVuSans-73" x="392.529297"/>
      <use xlink:href="#DejaVuSans-3d" x="444.628906"/>
      <use xlink:href="#DejaVuSans-33" x="528.417969"/>
      <use xlink:href="#DejaVuSans-32" x="592.041016"/>
     </g>
    </g>
    <g id="line2d_72">
     <path d="M 545.43125 139.719687 
L 555.43125 139.719687 
L 565.43125 139.719687 
" style="fill: none; stroke: #fdb462; stroke-width: 1.5; stroke-linecap: square"/>
    </g>
    <g id="text_39">
     <!-- max_ops=64 -->
     <g style="fill: #ffffff" transform="translate(573.43125 143.219687) scale(0.1 -0.1)">
      <use xlink:href="#DejaVuSans-6d"/>
      <use xlink:href="#DejaVuSans-61" x="97.412109"/>
      <use xlink:href="#DejaVuSans-78" x="158.691406"/>
      <use xlink:href="#DejaVuSans-5f" x="217.871094"/>
      <use xlink:href="#DejaVuSans-6f" x="267.871094"/>
      <use xlink:href="#DejaVuSans-70" x="329.052734"/>
      <use xlink:href="#DejaVuSans-73" x="392.529297"/>
      <use xlink:href="#DejaVuSans-3d" x="444.628906"/>
      <use xlink:href="#DejaVuSans-36" x="528.417969"/>
      <use xlink:href="#DejaVuSans-34" x="592.041016"/>
     </g>
    </g>
   </g>
  </g>
 </g>
 <defs>
  <clipPath id="pa1d9d88536">
   <rect x="90" y="51.84" width="558" height="332.64"/>
  </clipPath>
 </defs>
</svg>
