<?xml version="1.0" encoding="utf-8" standalone="no"?>
<!DOCTYPE svg PUBLIC "-//W3C//DTD SVG 1.1//EN"
  "http://www.w3.org/Graphics/SVG/1.1/DTD/svg11.dtd">
<svg xmlns:xlink="http://www.w3.org/1999/xlink" width="864pt" height="576pt" viewBox="0 0 864 576" xmlns="http://www.w3.org/2000/svg" version="1.1">
 <metadata>
  <rdf:RDF xmlns:dc="http://purl.org/dc/elements/1.1/" xmlns:cc="http://creativecommons.org/ns#" xmlns:rdf="http://www.w3.org/1999/02/22-rdf-syntax-ns#">
   <cc:Work>
    <dc:type rdf:resource="http://purl.org/dc/dcmitype/StillImage"/>
    <dc:date>2024-01-19T16:09:12.879202</dc:date>
    <dc:format>image/svg+xml</dc:format>
    <dc:creator>
     <cc:Agent>
      <dc:title>Matplotlib v3.8.2, https://matplotlib.org/</dc:title>
     </cc:Agent>
    </dc:creator>
   </cc:Work>
  </rdf:RDF>
 </metadata>
 <defs>
  <style type="text/css">*{stroke-linejoin: round; stroke-linecap: butt}</style>
 </defs>
 <g id="figure_1">
  <g id="patch_1">
   <path d="M 0 576 
L 864 576 
L 864 0 
L 0 0 
z
"/>
  </g>
  <g id="axes_1">
   <g id="patch_2">
    <path d="M 108 512.64 
L 777.6 512.64 
L 777.6 69.12 
L 108 69.12 
z
"/>
   </g>
   <g id="PolyCollection_1">
    <defs>
     <path id="md7fb43e865" d="M 139.294059 -63.972183 
L 139.294059 -63.36 
L 142.274526 -63.36 
L 145.254992 -63.36 
L 148.235458 -63.36 
L 151.215924 -63.36 
L 154.19639 -63.36 
L 157.176856 -63.36 
L 160.157322 -63.36 
L 163.137788 -63.36 
L 166.118254 -63.36 
L 169.09872 -63.36 
L 172.079187 -63.36 
L 175.059653 -63.36 
L 178.040119 -63.36 
L 181.020585 -63.36 
L 184.001051 -63.36 
L 186.981517 -63.36 
L 189.961983 -63.36 
L 192.942449 -63.36 
L 195.922915 -63.36 
L 198.903382 -63.36 
L 201.883848 -63.36 
L 204.864314 -63.36 
L 207.84478 -63.36 
L 210.825246 -63.36 
L 213.805712 -63.36 
L 216.786178 -63.36 
L 219.766644 -63.36 
L 222.74711 -63.36 
L 225.727576 -63.36 
L 228.708043 -63.36 
L 231.688509 -63.36 
L 234.668975 -63.36 
L 237.649441 -63.36 
L 240.629907 -63.36 
L 243.610373 -63.36 
L 246.590839 -63.36 
L 249.571305 -63.36 
L 252.551771 -63.36 
L 255.532238 -63.36 
L 258.512704 -63.36 
L 261.49317 -63.36 
L 264.473636 -63.36 
L 267.454102 -63.36 
L 270.434568 -63.36 
L 273.415034 -63.36 
L 276.3955 -63.36 
L 279.375966 -63.36 
L 282.356432 -63.36 
L 285.336899 -63.36 
L 288.317365 -63.36 
L 291.297831 -63.36 
L 294.278297 -63.36 
L 297.258763 -63.36 
L 300.239229 -63.36 
L 303.219695 -63.36 
L 306.200161 -63.36 
L 309.180627 -63.36 
L 312.161094 -63.36 
L 315.14156 -63.36 
L 318.122026 -63.36 
L 321.102492 -63.36 
L 324.082958 -63.36 
L 327.063424 -63.36 
L 330.04389 -63.36 
L 333.024356 -63.36 
L 336.004822 -63.36 
L 338.985288 -63.36 
L 341.965755 -63.36 
L 344.946221 -63.36 
L 347.926687 -63.36 
L 350.907153 -63.36 
L 353.887619 -63.36 
L 356.868085 -63.36 
L 359.848551 -63.36 
L 362.829017 -63.36 
L 365.809483 -63.36 
L 368.78995 -63.36 
L 371.770416 -63.36 
L 374.750882 -63.36 
L 377.731348 -63.36 
L 380.711814 -63.36 
L 383.69228 -63.36 
L 386.672746 -63.36 
L 389.653212 -63.36 
L 392.633678 -63.36 
L 395.614144 -63.36 
L 398.594611 -63.36 
L 401.575077 -63.36 
L 404.555543 -63.36 
L 407.536009 -63.36 
L 410.516475 -63.36 
L 413.496941 -63.36 
L 416.477407 -63.36 
L 419.457873 -63.36 
L 422.438339 -63.36 
L 425.418805 -63.36 
L 428.399272 -63.36 
L 431.379738 -63.36 
L 434.360204 -63.36 
L 437.34067 -63.36 
L 440.321136 -63.36 
L 443.301602 -63.36 
L 446.282068 -63.36 
L 449.262534 -63.36 
L 452.243 -63.36 
L 455.223467 -63.36 
L 458.203933 -63.36 
L 461.184399 -63.36 
L 464.164865 -63.36 
L 467.145331 -63.36 
L 470.125797 -63.36 
L 473.106263 -63.36 
L 476.086729 -63.36 
L 479.067195 -63.36 
L 482.047661 -63.36 
L 485.028128 -63.36 
L 488.008594 -63.36 
L 490.98906 -63.36 
L 493.969526 -63.36 
L 496.949992 -63.36 
L 499.930458 -63.36 
L 502.910924 -63.36 
L 505.89139 -63.36 
L 508.871856 -63.36 
L 511.852323 -63.36 
L 514.832789 -63.36 
L 517.813255 -63.36 
L 520.793721 -63.36 
L 523.774187 -63.36 
L 526.754653 -63.36 
L 529.735119 -63.36 
L 532.715585 -63.36 
L 535.696051 -63.36 
L 538.676517 -63.36 
L 541.656984 -63.36 
L 544.63745 -63.36 
L 547.617916 -63.36 
L 550.598382 -63.36 
L 553.578848 -63.36 
L 556.559314 -63.36 
L 559.53978 -63.36 
L 562.520246 -63.36 
L 565.500712 -63.36 
L 568.481179 -63.36 
L 571.461645 -63.36 
L 574.442111 -63.36 
L 577.422577 -63.36 
L 580.403043 -63.36 
L 583.383509 -63.36 
L 586.363975 -63.36 
L 589.344441 -63.36 
L 592.324907 -63.36 
L 595.305373 -63.36 
L 598.28584 -63.36 
L 601.266306 -63.36 
L 604.246772 -63.36 
L 607.227238 -63.36 
L 610.207704 -63.36 
L 613.18817 -63.36 
L 616.168636 -63.36 
L 619.149102 -63.36 
L 622.129568 -63.36 
L 625.110035 -63.36 
L 628.090501 -63.36 
L 631.070967 -63.36 
L 634.051433 -63.36 
L 637.031899 -63.36 
L 640.012365 -63.36 
L 642.992831 -63.36 
L 645.973297 -63.36 
L 648.953763 -63.36 
L 651.934229 -63.36 
L 654.914696 -63.36 
L 657.895162 -63.36 
L 660.875628 -63.36 
L 663.856094 -63.36 
L 666.83656 -63.36 
L 669.817026 -63.36 
L 672.797492 -63.36 
L 675.777958 -63.36 
L 678.758424 -63.36 
L 681.738891 -63.36 
L 684.719357 -63.36 
L 687.699823 -63.36 
L 690.680289 -63.36 
L 693.660755 -63.36 
L 696.641221 -63.36 
L 699.621687 -63.36 
L 702.602153 -63.36 
L 705.582619 -63.36 
L 708.563085 -63.36 
L 711.543552 -63.36 
L 714.524018 -63.36 
L 717.504484 -63.36 
L 720.48495 -63.36 
L 723.465416 -63.36 
L 726.445882 -63.36 
L 729.426348 -63.36 
L 732.406814 -63.36 
L 732.406814 -63.400061 
L 732.406814 -63.400061 
L 729.426348 -63.432739 
L 726.445882 -63.488214 
L 723.465416 -63.579396 
L 720.48495 -63.724454 
L 717.504484 -63.947729 
L 714.524018 -64.280081 
L 711.543552 -64.758239 
L 708.563085 -65.42268 
L 705.582619 -66.313685 
L 702.602153 -67.465478 
L 699.621687 -68.89878 
L 696.641221 -70.612679 
L 693.660755 -72.577205 
L 690.680289 -74.728394 
L 687.699823 -76.967588 
L 684.719357 -79.166269 
L 681.738891 -81.176773 
L 678.758424 -82.847998 
L 675.777958 -84.043926 
L 672.797492 -84.661875 
L 669.817026 -84.647078 
L 666.83656 -84.000726 
L 663.856094 -82.779819 
L 660.875628 -81.088862 
L 657.895162 -79.065071 
L 654.914696 -76.860009 
L 651.934229 -74.621056 
L 648.953763 -72.475803 
L 645.973297 -70.52152 
L 642.992831 -68.820567 
L 640.012365 -67.401328 
L 637.031899 -66.263348 
L 634.051433 -65.384888 
L 631.070967 -64.731104 
L 628.090501 -64.261467 
L 625.110035 -63.935551 
L 622.129568 -63.716875 
L 619.149102 -63.574927 
L 616.168636 -63.485733 
L 613.18817 -63.431455 
L 610.207704 -63.399453 
L 607.227238 -63.381165 
L 604.246772 -63.371032 
L 601.266306 -63.365588 
L 598.28584 -63.36275 
L 595.305373 -63.361315 
L 592.324907 -63.360611 
L 589.344441 -63.360276 
L 586.363975 -63.360121 
L 583.383509 -63.360052 
L 580.403043 -63.360021 
L 577.422577 -63.360009 
L 574.442111 -63.360003 
L 571.461645 -63.360001 
L 568.481179 -63.36 
L 565.500712 -63.36 
L 562.520246 -63.36 
L 559.53978 -63.36 
L 556.559314 -63.36 
L 553.578848 -63.36 
L 550.598382 -63.36 
L 547.617916 -63.36 
L 544.63745 -63.36 
L 541.656984 -63.36 
L 538.676517 -63.36 
L 535.696051 -63.36 
L 532.715585 -63.36 
L 529.735119 -63.36 
L 526.754653 -63.36 
L 523.774187 -63.36 
L 520.793721 -63.36 
L 517.813255 -63.36 
L 514.832789 -63.36 
L 511.852323 -63.36 
L 508.871856 -63.36 
L 505.89139 -63.36 
L 502.910924 -63.36 
L 499.930458 -63.36 
L 496.949992 -63.36 
L 493.969526 -63.36 
L 490.98906 -63.36 
L 488.008594 -63.36 
L 485.028128 -63.36 
L 482.047661 -63.36 
L 479.067195 -63.36 
L 476.086729 -63.36 
L 473.106263 -63.36 
L 470.125797 -63.360001 
L 467.145331 -63.360003 
L 464.164865 -63.360006 
L 461.184399 -63.360015 
L 458.203933 -63.360034 
L 455.223467 -63.360075 
L 452.243 -63.36016 
L 449.262534 -63.360331 
L 446.282068 -63.360665 
L 443.301602 -63.361295 
L 440.321136 -63.36244 
L 437.34067 -63.364457 
L 434.360204 -63.367894 
L 431.379738 -63.373557 
L 428.399272 -63.382591 
L 425.418805 -63.396543 
L 422.438339 -63.417422 
L 419.457873 -63.447728 
L 416.477407 -63.49045 
L 413.496941 -63.549047 
L 410.516475 -63.627436 
L 407.536009 -63.730035 
L 404.555543 -63.861937 
L 401.575077 -64.029279 
L 398.594611 -64.239872 
L 395.614144 -64.50415 
L 392.633678 -64.836409 
L 389.653212 -65.256318 
L 386.672746 -65.790597 
L 383.69228 -66.474745 
L 380.711814 -67.354668 
L 377.731348 -68.487992 
L 374.750882 -69.944809 
L 371.770416 -71.807519 
L 368.78995 -74.16933 
L 365.809483 -77.131015 
L 362.829017 -80.795595 
L 359.848551 -85.260941 
L 356.868085 -90.610779 
L 353.887619 -96.905189 
L 350.907153 -104.1723 
L 347.926687 -112.403175 
L 344.946221 -121.551804 
L 341.965755 -131.541333 
L 338.985288 -142.27637 
L 336.004822 -153.659569 
L 333.024356 -165.609105 
L 330.04389 -178.072698 
L 327.063424 -191.03384 
L 324.082958 -204.507174 
L 321.102492 -218.522288 
L 318.122026 -233.098162 
L 315.14156 -248.213303 
L 312.161094 -263.778469 
L 309.180627 -279.619179 
L 306.200161 -295.473615 
L 303.219695 -311.008393 
L 300.239229 -325.850629 
L 297.258763 -339.630801 
L 294.278297 -352.028122 
L 291.297831 -362.809306 
L 288.317365 -371.852956 
L 285.336899 -379.155077 
L 282.356432 -384.815527 
L 279.375966 -389.009548 
L 276.3955 -391.951586 
L 273.415034 -393.859821 
L 270.434568 -394.928843 
L 267.454102 -395.315165 
L 264.473636 -395.136674 
L 261.49317 -394.483559 
L 258.512704 -393.435862 
L 255.532238 -392.081803 
L 252.551771 -390.531581 
L 249.571305 -388.923011 
L 246.590839 -387.417448 
L 243.610373 -386.18644 
L 240.629907 -385.391117 
L 237.649441 -385.157225 
L 234.668975 -385.549126 
L 231.688509 -386.546108 
L 228.708043 -388.024035 
L 225.727576 -389.744968 
L 222.74711 -391.356761 
L 219.766644 -392.404031 
L 216.786178 -392.35121 
L 213.805712 -390.617588 
L 210.825246 -386.623315 
L 207.84478 -379.843946 
L 204.864314 -369.869346 
L 201.883848 -356.460759 
L 198.903382 -339.598128 
L 195.922915 -319.509012 
L 192.942449 -296.671569 
L 189.961983 -271.787208 
L 186.981517 -245.723516 
L 184.001051 -219.433799 
L 181.020585 -193.864597 
L 178.040119 -169.865376 
L 175.059653 -148.114329 
L 172.079187 -129.070862 
L 169.09872 -112.959767 
L 166.118254 -99.785862 
L 163.137788 -89.372535 
L 160.157322 -81.414426 
L 157.176856 -75.533781 
L 154.19639 -71.331581 
L 151.215924 -68.427546 
L 148.235458 -66.486515 
L 145.254992 -65.231646 
L 142.274526 -64.446906 
L 139.294059 -63.972183 
z
" style="stroke: #1ac938"/>
    </defs>
    <g clip-path="url(#pb6b57053c9)">
     <use xlink:href="#md7fb43e865" x="0" y="576" style="fill: #1ac938; fill-opacity: 0.25; stroke: #1ac938"/>
    </g>
   </g>
   <g id="PolyCollection_2">
    <defs>
     <path id="m0e892f112c" d="M 138.436364 -64.051417 
L 138.436364 -63.36 
L 141.493192 -63.36 
L 144.550021 -63.36 
L 147.606849 -63.36 
L 150.663678 -63.36 
L 153.720507 -63.36 
L 156.777335 -63.36 
L 159.834164 -63.36 
L 162.890993 -63.36 
L 165.947821 -63.36 
L 169.00465 -63.36 
L 172.061478 -63.36 
L 175.118307 -63.36 
L 178.175136 -63.36 
L 181.231964 -63.36 
L 184.288793 -63.36 
L 187.345621 -63.36 
L 190.40245 -63.36 
L 193.459279 -63.36 
L 196.516107 -63.36 
L 199.572936 -63.36 
L 202.629764 -63.36 
L 205.686593 -63.36 
L 208.743422 -63.36 
L 211.80025 -63.36 
L 214.857079 -63.36 
L 217.913908 -63.36 
L 220.970736 -63.36 
L 224.027565 -63.36 
L 227.084393 -63.36 
L 230.141222 -63.36 
L 233.198051 -63.36 
L 236.254879 -63.36 
L 239.311708 -63.36 
L 242.368536 -63.36 
L 245.425365 -63.36 
L 248.482194 -63.36 
L 251.539022 -63.36 
L 254.595851 -63.36 
L 257.652679 -63.36 
L 260.709508 -63.36 
L 263.766337 -63.36 
L 266.823165 -63.36 
L 269.879994 -63.36 
L 272.936823 -63.36 
L 275.993651 -63.36 
L 279.05048 -63.36 
L 282.107308 -63.36 
L 285.164137 -63.36 
L 288.220966 -63.36 
L 291.277794 -63.36 
L 294.334623 -63.36 
L 297.391451 -63.36 
L 300.44828 -63.36 
L 303.505109 -63.36 
L 306.561937 -63.36 
L 309.618766 -63.36 
L 312.675595 -63.36 
L 315.732423 -63.36 
L 318.789252 -63.36 
L 321.84608 -63.36 
L 324.902909 -63.36 
L 327.959738 -63.36 
L 331.016566 -63.36 
L 334.073395 -63.36 
L 337.130223 -63.36 
L 340.187052 -63.36 
L 343.243881 -63.36 
L 346.300709 -63.36 
L 349.357538 -63.36 
L 352.414366 -63.36 
L 355.471195 -63.36 
L 358.528024 -63.36 
L 361.584852 -63.36 
L 364.641681 -63.36 
L 367.69851 -63.36 
L 370.755338 -63.36 
L 373.812167 -63.36 
L 376.868995 -63.36 
L 379.925824 -63.36 
L 382.982653 -63.36 
L 386.039481 -63.36 
L 389.09631 -63.36 
L 392.153138 -63.36 
L 395.209967 -63.36 
L 398.266796 -63.36 
L 401.323624 -63.36 
L 404.380453 -63.36 
L 407.437281 -63.36 
L 410.49411 -63.36 
L 413.550939 -63.36 
L 416.607767 -63.36 
L 419.664596 -63.36 
L 422.721425 -63.36 
L 425.778253 -63.36 
L 428.835082 -63.36 
L 431.89191 -63.36 
L 434.948739 -63.36 
L 438.005568 -63.36 
L 441.062396 -63.36 
L 444.119225 -63.36 
L 447.176053 -63.36 
L 450.232882 -63.36 
L 453.289711 -63.36 
L 456.346539 -63.36 
L 459.403368 -63.36 
L 462.460196 -63.36 
L 465.517025 -63.36 
L 468.573854 -63.36 
L 471.630682 -63.36 
L 474.687511 -63.36 
L 477.74434 -63.36 
L 480.801168 -63.36 
L 483.857997 -63.36 
L 486.914825 -63.36 
L 489.971654 -63.36 
L 493.028483 -63.36 
L 496.085311 -63.36 
L 499.14214 -63.36 
L 502.198968 -63.36 
L 505.255797 -63.36 
L 508.312626 -63.36 
L 511.369454 -63.36 
L 514.426283 -63.36 
L 517.483111 -63.36 
L 520.53994 -63.36 
L 523.596769 -63.36 
L 526.653597 -63.36 
L 529.710426 -63.36 
L 532.767255 -63.36 
L 535.824083 -63.36 
L 538.880912 -63.36 
L 541.93774 -63.36 
L 544.994569 -63.36 
L 548.051398 -63.36 
L 551.108226 -63.36 
L 554.165055 -63.36 
L 557.221883 -63.36 
L 560.278712 -63.36 
L 563.335541 -63.36 
L 566.392369 -63.36 
L 569.449198 -63.36 
L 572.506026 -63.36 
L 575.562855 -63.36 
L 578.619684 -63.36 
L 581.676512 -63.36 
L 584.733341 -63.36 
L 587.79017 -63.36 
L 590.846998 -63.36 
L 593.903827 -63.36 
L 596.960655 -63.36 
L 600.017484 -63.36 
L 603.074313 -63.36 
L 606.131141 -63.36 
L 609.18797 -63.36 
L 612.244798 -63.36 
L 615.301627 -63.36 
L 618.358456 -63.36 
L 621.415284 -63.36 
L 624.472113 -63.36 
L 627.528942 -63.36 
L 630.58577 -63.36 
L 633.642599 -63.36 
L 636.699427 -63.36 
L 639.756256 -63.36 
L 642.813085 -63.36 
L 645.869913 -63.36 
L 648.926742 -63.36 
L 651.98357 -63.36 
L 655.040399 -63.36 
L 658.097228 -63.36 
L 661.154056 -63.36 
L 664.210885 -63.36 
L 667.267713 -63.36 
L 670.324542 -63.36 
L 673.381371 -63.36 
L 676.438199 -63.36 
L 679.495028 -63.36 
L 682.551857 -63.36 
L 685.608685 -63.36 
L 688.665514 -63.36 
L 691.722342 -63.36 
L 694.779171 -63.36 
L 697.836 -63.36 
L 700.892828 -63.36 
L 703.949657 -63.36 
L 707.006485 -63.36 
L 710.063314 -63.36 
L 713.120143 -63.36 
L 716.176971 -63.36 
L 719.2338 -63.36 
L 722.290628 -63.36 
L 725.347457 -63.36 
L 728.404286 -63.36 
L 731.461114 -63.36 
L 734.517943 -63.36 
L 737.574772 -63.36 
L 740.6316 -63.36 
L 743.688429 -63.36 
L 746.745257 -63.36 
L 746.745257 -63.371019 
L 746.745257 -63.371019 
L 743.688429 -63.380135 
L 740.6316 -63.39583 
L 737.574772 -63.422166 
L 734.517943 -63.465283 
L 731.461114 -63.53422 
L 728.404286 -63.641909 
L 725.347457 -63.806281 
L 722.290628 -64.051311 
L 719.2338 -64.407687 
L 716.176971 -64.912645 
L 713.120143 -65.608363 
L 710.063314 -66.538328 
L 707.006485 -67.741265 
L 703.949657 -69.24271 
L 700.892828 -71.045044 
L 697.836 -73.117657 
L 694.779171 -75.389634 
L 691.722342 -77.747643 
L 688.665514 -80.041197 
L 685.608685 -82.096177 
L 682.551857 -83.73555 
L 679.495028 -84.804142 
L 676.438199 -85.192753 
L 673.381371 -84.856446 
L 670.324542 -83.822788 
L 667.267713 -82.188016 
L 664.210885 -80.10187 
L 661.154056 -77.744496 
L 658.097228 -75.300414 
L 655.040399 -72.934809 
L 651.98357 -70.77628 
L 648.926742 -68.90821 
L 645.869913 -67.368677 
L 642.813085 -66.157082 
L 639.756256 -65.244705 
L 636.699427 -64.5863 
L 633.642599 -64.130457 
L 630.58577 -63.827395 
L 627.528942 -63.633773 
L 624.472113 -63.51483 
L 621.415284 -63.444541 
L 618.358456 -63.404568 
L 615.301627 -63.382683 
L 612.244798 -63.371146 
L 609.18797 -63.365287 
L 606.131141 -63.362421 
L 603.074313 -63.361071 
L 600.017484 -63.360457 
L 596.960655 -63.360188 
L 593.903827 -63.360075 
L 590.846998 -63.360029 
L 587.79017 -63.360011 
L 584.733341 -63.360004 
L 581.676512 -63.360001 
L 578.619684 -63.36 
L 575.562855 -63.36 
L 572.506026 -63.36 
L 569.449198 -63.36 
L 566.392369 -63.36 
L 563.335541 -63.36 
L 560.278712 -63.36 
L 557.221883 -63.36 
L 554.165055 -63.36 
L 551.108226 -63.36 
L 548.051398 -63.36 
L 544.994569 -63.36 
L 541.93774 -63.36 
L 538.880912 -63.36 
L 535.824083 -63.36 
L 532.767255 -63.36 
L 529.710426 -63.36 
L 526.653597 -63.36 
L 523.596769 -63.36 
L 520.53994 -63.36 
L 517.483111 -63.36 
L 514.426283 -63.36 
L 511.369454 -63.36 
L 508.312626 -63.36 
L 505.255797 -63.36 
L 502.198968 -63.36 
L 499.14214 -63.36 
L 496.085311 -63.36 
L 493.028483 -63.36 
L 489.971654 -63.36 
L 486.914825 -63.36 
L 483.857997 -63.36 
L 480.801168 -63.36 
L 477.74434 -63.36 
L 474.687511 -63.36 
L 471.630682 -63.36 
L 468.573854 -63.36 
L 465.517025 -63.36 
L 462.460196 -63.36 
L 459.403368 -63.36 
L 456.346539 -63.36 
L 453.289711 -63.36 
L 450.232882 -63.36 
L 447.176053 -63.36 
L 444.119225 -63.36 
L 441.062396 -63.36 
L 438.005568 -63.36 
L 434.948739 -63.36 
L 431.89191 -63.36 
L 428.835082 -63.36 
L 425.778253 -63.36 
L 422.721425 -63.36 
L 419.664596 -63.36 
L 416.607767 -63.36 
L 413.550939 -63.36 
L 410.49411 -63.360001 
L 407.437281 -63.360001 
L 404.380453 -63.360004 
L 401.323624 -63.36001 
L 398.266796 -63.360024 
L 395.209967 -63.360056 
L 392.153138 -63.360127 
L 389.09631 -63.360279 
L 386.039481 -63.360593 
L 382.982653 -63.36122 
L 379.925824 -63.362426 
L 376.868995 -63.364673 
L 373.812167 -63.368725 
L 370.755338 -63.375811 
L 367.69851 -63.387848 
L 364.641681 -63.407778 
L 361.584852 -63.440044 
L 358.528024 -63.491345 
L 355.471195 -63.571826 
L 352.414366 -63.69701 
L 349.357538 -63.89086 
L 346.300709 -64.190496 
L 343.243881 -64.653083 
L 340.187052 -65.365246 
L 337.130223 -66.454953 
L 334.073395 -68.105008 
L 331.016566 -70.566233 
L 327.959738 -74.16715 
L 324.902909 -79.315882 
L 321.84608 -86.489542 
L 318.789252 -96.207046 
L 315.732423 -108.983432 
L 312.675595 -125.267392 
L 309.618766 -145.368258 
L 306.561937 -169.382997 
L 303.505109 -197.136503 
L 300.44828 -228.148279 
L 297.391451 -261.634923 
L 294.334623 -296.551153 
L 291.277794 -331.664117 
L 288.220966 -365.648856 
L 285.164137 -397.189265 
L 282.107308 -425.070055 
L 279.05048 -448.250526 
L 275.993651 -465.918443 
L 272.936823 -477.528926 
L 269.879994 -482.836225 
L 266.823165 -481.924397 
L 263.766337 -475.23666 
L 260.709508 -463.595348 
L 257.652679 -448.198104 
L 254.595851 -430.574427 
L 251.539022 -412.491396 
L 248.482194 -395.807704 
L 245.425365 -382.288495 
L 242.368536 -373.405932 
L 239.311708 -370.158084 
L 236.254879 -372.938803 
L 233.198051 -381.483192 
L 230.141222 -394.898812 
L 227.084393 -411.775723 
L 224.027565 -430.353521 
L 220.970736 -448.714655 
L 217.913908 -464.972618 
L 214.857079 -477.430538 
L 211.80025 -484.69726 
L 208.743422 -485.76 
L 205.686593 -480.021175 
L 202.629764 -467.309806 
L 199.572936 -447.875251 
L 196.516107 -422.365275 
L 193.459279 -391.785031 
L 190.40245 -357.43136 
L 187.345621 -320.799338 
L 184.288793 -283.464356 
L 181.231964 -246.950826 
L 178.175136 -212.604693 
L 175.118307 -181.488795 
L 172.061478 -154.316869 
L 169.00465 -131.434504 
L 165.947821 -112.845946 
L 162.890993 -98.277137 
L 159.834164 -87.259876 
L 156.777335 -79.220671 
L 153.720507 -73.560235 
L 150.663678 -69.714453 
L 147.606849 -67.193208 
L 144.550021 -65.598297 
L 141.493192 -64.624781 
L 138.436364 -64.051417 
z
" style="stroke: #ff7c00"/>
    </defs>
    <g clip-path="url(#pb6b57053c9)">
     <use xlink:href="#m0e892f112c" x="0" y="576" style="fill: #ff7c00; fill-opacity: 0.25; stroke: #ff7c00"/>
    </g>
   </g>
   <g id="PolyCollection_3">
    <defs>
     <path id="m6fa979559b" d="M 140.931301 -63.587011 
L 140.931301 -63.36 
L 143.977694 -63.36 
L 147.024088 -63.36 
L 150.070482 -63.36 
L 153.116875 -63.36 
L 156.163269 -63.36 
L 159.209662 -63.36 
L 162.256056 -63.36 
L 165.30245 -63.36 
L 168.348843 -63.36 
L 171.395237 -63.36 
L 174.441631 -63.36 
L 177.488024 -63.36 
L 180.534418 -63.36 
L 183.580812 -63.36 
L 186.627205 -63.36 
L 189.673599 -63.36 
L 192.719993 -63.36 
L 195.766386 -63.36 
L 198.81278 -63.36 
L 201.859174 -63.36 
L 204.905567 -63.36 
L 207.951961 -63.36 
L 210.998354 -63.36 
L 214.044748 -63.36 
L 217.091142 -63.36 
L 220.137535 -63.36 
L 223.183929 -63.36 
L 226.230323 -63.36 
L 229.276716 -63.36 
L 232.32311 -63.36 
L 235.369504 -63.36 
L 238.415897 -63.36 
L 241.462291 -63.36 
L 244.508685 -63.36 
L 247.555078 -63.36 
L 250.601472 -63.36 
L 253.647866 -63.36 
L 256.694259 -63.36 
L 259.740653 -63.36 
L 262.787046 -63.36 
L 265.83344 -63.36 
L 268.879834 -63.36 
L 271.926227 -63.36 
L 274.972621 -63.36 
L 278.019015 -63.36 
L 281.065408 -63.36 
L 284.111802 -63.36 
L 287.158196 -63.36 
L 290.204589 -63.36 
L 293.250983 -63.36 
L 296.297377 -63.36 
L 299.34377 -63.36 
L 302.390164 -63.36 
L 305.436558 -63.36 
L 308.482951 -63.36 
L 311.529345 -63.36 
L 314.575738 -63.36 
L 317.622132 -63.36 
L 320.668526 -63.36 
L 323.714919 -63.36 
L 326.761313 -63.36 
L 329.807707 -63.36 
L 332.8541 -63.36 
L 335.900494 -63.36 
L 338.946888 -63.36 
L 341.993281 -63.36 
L 345.039675 -63.36 
L 348.086069 -63.36 
L 351.132462 -63.36 
L 354.178856 -63.36 
L 357.22525 -63.36 
L 360.271643 -63.36 
L 363.318037 -63.36 
L 366.36443 -63.36 
L 369.410824 -63.36 
L 372.457218 -63.36 
L 375.503611 -63.36 
L 378.550005 -63.36 
L 381.596399 -63.36 
L 384.642792 -63.36 
L 387.689186 -63.36 
L 390.73558 -63.36 
L 393.781973 -63.36 
L 396.828367 -63.36 
L 399.874761 -63.36 
L 402.921154 -63.36 
L 405.967548 -63.36 
L 409.013942 -63.36 
L 412.060335 -63.36 
L 415.106729 -63.36 
L 418.153122 -63.36 
L 421.199516 -63.36 
L 424.24591 -63.36 
L 427.292303 -63.36 
L 430.338697 -63.36 
L 433.385091 -63.36 
L 436.431484 -63.36 
L 439.477878 -63.36 
L 442.524272 -63.36 
L 445.570665 -63.36 
L 448.617059 -63.36 
L 451.663453 -63.36 
L 454.709846 -63.36 
L 457.75624 -63.36 
L 460.802634 -63.36 
L 463.849027 -63.36 
L 466.895421 -63.36 
L 469.941814 -63.36 
L 472.988208 -63.36 
L 476.034602 -63.36 
L 479.080995 -63.36 
L 482.127389 -63.36 
L 485.173783 -63.36 
L 488.220176 -63.36 
L 491.26657 -63.36 
L 494.312964 -63.36 
L 497.359357 -63.36 
L 500.405751 -63.36 
L 503.452145 -63.36 
L 506.498538 -63.36 
L 509.544932 -63.36 
L 512.591326 -63.36 
L 515.637719 -63.36 
L 518.684113 -63.36 
L 521.730506 -63.36 
L 524.7769 -63.36 
L 527.823294 -63.36 
L 530.869687 -63.36 
L 533.916081 -63.36 
L 536.962475 -63.36 
L 540.008868 -63.36 
L 543.055262 -63.36 
L 546.101656 -63.36 
L 549.148049 -63.36 
L 552.194443 -63.36 
L 555.240837 -63.36 
L 558.28723 -63.36 
L 561.333624 -63.36 
L 564.380018 -63.36 
L 567.426411 -63.36 
L 570.472805 -63.36 
L 573.519198 -63.36 
L 576.565592 -63.36 
L 579.611986 -63.36 
L 582.658379 -63.36 
L 585.704773 -63.36 
L 588.751167 -63.36 
L 591.79756 -63.36 
L 594.843954 -63.36 
L 597.890348 -63.36 
L 600.936741 -63.36 
L 603.983135 -63.36 
L 607.029529 -63.36 
L 610.075922 -63.36 
L 613.122316 -63.36 
L 616.16871 -63.36 
L 619.215103 -63.36 
L 622.261497 -63.36 
L 625.30789 -63.36 
L 628.354284 -63.36 
L 631.400678 -63.36 
L 634.447071 -63.36 
L 637.493465 -63.36 
L 640.539859 -63.36 
L 643.586252 -63.36 
L 646.632646 -63.36 
L 649.67904 -63.36 
L 652.725433 -63.36 
L 655.771827 -63.36 
L 658.818221 -63.36 
L 661.864614 -63.36 
L 664.911008 -63.36 
L 667.957402 -63.36 
L 671.003795 -63.36 
L 674.050189 -63.36 
L 677.096582 -63.36 
L 680.142976 -63.36 
L 683.18937 -63.36 
L 686.235763 -63.36 
L 689.282157 -63.36 
L 692.328551 -63.36 
L 695.374944 -63.36 
L 698.421338 -63.36 
L 701.467732 -63.36 
L 704.514125 -63.36 
L 707.560519 -63.36 
L 710.606913 -63.36 
L 713.653306 -63.36 
L 716.6997 -63.36 
L 719.746094 -63.36 
L 722.792487 -63.36 
L 725.838881 -63.36 
L 728.885274 -63.36 
L 731.931668 -63.36 
L 734.978062 -63.36 
L 738.024455 -63.36 
L 741.070849 -63.36 
L 744.117243 -63.36 
L 747.163636 -63.36 
L 747.163636 -63.373718 
L 747.163636 -63.373718 
L 744.117243 -63.384075 
L 741.070849 -63.40119 
L 738.024455 -63.42875 
L 734.978062 -63.472044 
L 731.931668 -63.538444 
L 728.885274 -63.637953 
L 725.838881 -63.78376 
L 722.792487 -63.992745 
L 719.746094 -64.285781 
L 716.6997 -64.68766 
L 713.653306 -65.226383 
L 710.606913 -65.931528 
L 707.560519 -66.831445 
L 704.514125 -67.949151 
L 701.467732 -69.297057 
L 698.421338 -70.871027 
L 695.374944 -72.644675 
L 692.328551 -74.565168 
L 689.282157 -76.551928 
L 686.235763 -78.499431 
L 683.18937 -80.284718 
L 680.142976 -81.779286 
L 677.096582 -82.863985 
L 674.050189 -83.444594 
L 671.003795 -83.465286 
L 667.957402 -82.917311 
L 664.911008 -81.841065 
L 661.864614 -80.320994 
L 658.818221 -78.474259 
L 655.771827 -76.435352 
L 652.725433 -74.339513 
L 649.67904 -72.307849 
L 646.632646 -70.436388 
L 643.586252 -68.790262 
L 640.539859 -67.403067 
L 637.493465 -66.280465 
L 634.447071 -65.406528 
L 631.400678 -64.751187 
L 628.354284 -64.27735 
L 625.30789 -63.946745 
L 622.261497 -63.724009 
L 619.215103 -63.579032 
L 616.16871 -63.487828 
L 613.122316 -63.432352 
L 610.075922 -63.399717 
L 607.029529 -63.381144 
L 603.983135 -63.370916 
L 600.936741 -63.365466 
L 597.890348 -63.362654 
L 594.843954 -63.361249 
L 591.79756 -63.36057 
L 588.751167 -63.360253 
L 585.704773 -63.360109 
L 582.658379 -63.360045 
L 579.611986 -63.360019 
L 576.565592 -63.360009 
L 573.519198 -63.360007 
L 570.472805 -63.360011 
L 567.426411 -63.360023 
L 564.380018 -63.36005 
L 561.333624 -63.360107 
L 558.28723 -63.360222 
L 555.240837 -63.360448 
L 552.194443 -63.360875 
L 549.148049 -63.361658 
L 546.101656 -63.363046 
L 543.055262 -63.365428 
L 540.008868 -63.369383 
L 536.962475 -63.375733 
L 533.916081 -63.385598 
L 530.869687 -63.400416 
L 527.823294 -63.421939 
L 524.7769 -63.452158 
L 521.730506 -63.493164 
L 518.684113 -63.546915 
L 515.637719 -63.614943 
L 512.591326 -63.698012 
L 509.544932 -63.795778 
L 506.498538 -63.906521 
L 503.452145 -64.026997 
L 500.405751 -64.152477 
L 497.359357 -64.276989 
L 494.312964 -64.393767 
L 491.26657 -64.495869 
L 488.220176 -64.576889 
L 485.173783 -64.631681 
L 482.127389 -64.657007 
L 479.080995 -64.652027 
L 476.034602 -64.618568 
L 472.988208 -64.561155 
L 469.941814 -64.48678 
L 466.895421 -64.404471 
L 463.849027 -64.324702 
L 460.802634 -64.258738 
L 457.75624 -64.21801 
L 454.709846 -64.213633 
L 451.663453 -64.256167 
L 448.617059 -64.355688 
L 445.570665 -64.522207 
L 442.524272 -64.76642 
L 439.477878 -65.100693 
L 436.431484 -65.540123 
L 433.385091 -66.103502 
L 430.338697 -66.813966 
L 427.292303 -67.699206 
L 424.24591 -68.791213 
L 421.199516 -70.125673 
L 418.153122 -71.741254 
L 415.106729 -73.679095 
L 412.060335 -75.982764 
L 409.013942 -78.698738 
L 405.967548 -81.877207 
L 402.921154 -85.572615 
L 399.874761 -89.843145 
L 396.828367 -94.748201 
L 393.781973 -100.343151 
L 390.73558 -106.671025 
L 387.689186 -113.751564 
L 384.642792 -121.568835 
L 381.596399 -130.05938 
L 378.550005 -139.10342 
L 375.503611 -148.521718 
L 372.457218 -158.080326 
L 369.410824 -167.504494 
L 366.36443 -176.501582 
L 363.318037 -184.791198 
L 360.271643 -192.139085 
L 357.22525 -198.389997 
L 354.178856 -203.494176 
L 351.132462 -207.522329 
L 348.086069 -210.665343 
L 345.039675 -213.217233 
L 341.993281 -215.542637 
L 338.946888 -218.033058 
L 335.900494 -221.058379 
L 332.8541 -224.921334 
L 329.807707 -229.822328 
L 326.761313 -235.840216 
L 323.714919 -242.931671 
L 320.668526 -250.948387 
L 317.622132 -259.668078 
L 314.575738 -268.833049 
L 311.529345 -278.189148 
L 308.482951 -287.518567 
L 305.436558 -296.661708 
L 302.390164 -305.525894 
L 299.34377 -314.081346 
L 296.297377 -322.347024 
L 293.250983 -330.370337 
L 290.204589 -338.205107 
L 287.158196 -345.891748 
L 284.111802 -353.44255 
L 281.065408 -360.833617 
L 278.019015 -368.003712 
L 274.972621 -374.859144 
L 271.926227 -381.28307 
L 268.879834 -387.147103 
L 265.83344 -392.322933 
L 262.787046 -396.691825 
L 259.740653 -400.150288 
L 256.694259 -402.611012 
L 253.647866 -403.999228 
L 250.601472 -404.245832 
L 247.555078 -403.279536 
L 244.508685 -401.020844 
L 241.462291 -397.380326 
L 238.415897 -392.2627 
L 235.369504 -385.576703 
L 232.32311 -377.24908 
L 229.276716 -367.239813 
L 226.230323 -355.555264 
L 223.183929 -342.25643 
L 220.137535 -327.460818 
L 217.091142 -311.338114 
L 214.044748 -294.101355 
L 210.998354 -275.996147 
L 207.951961 -257.290413 
L 204.905567 -238.266257 
L 201.859174 -219.214159 
L 198.81278 -200.428371 
L 195.766386 -182.201671 
L 192.719993 -164.817651 
L 189.673599 -148.539702 
L 186.627205 -133.597182 
L 183.580812 -120.170693 
L 180.534418 -108.379207 
L 177.488024 -98.271851 
L 174.441631 -89.826351 
L 171.395237 -82.954777 
L 168.348843 -77.515715 
L 165.30245 -73.330788 
L 162.256056 -70.202786 
L 159.209662 -67.932756 
L 156.163269 -66.333948 
L 153.116875 -65.241469 
L 150.070482 -64.517426 
L 147.024088 -64.0521 
L 143.977694 -63.762154 
L 140.931301 -63.587011 
z
" style="stroke: #023eff"/>
    </defs>
    <g clip-path="url(#pb6b57053c9)">
     <use xlink:href="#m6fa979559b" x="0" y="576" style="fill: #023eff; fill-opacity: 0.25; stroke: #023eff"/>
    </g>
   </g>
   <g id="matplotlib.axis_1">
    <g id="xtick_1">
     <g id="line2d_1">
      <path d="M 156.98263 512.64 
L 156.98263 69.12 
" clip-path="url(#pb6b57053c9)" style="fill: none; stroke: #ffffff; stroke-width: 0.8; stroke-linecap: square"/>
     </g>
     <g id="line2d_2">
      <defs>
       <path id="mc1d2b06ac1" d="M 0 0 
L 0 3.5 
" style="stroke: #ffffff; stroke-width: 0.8"/>
      </defs>
      <g>
       <use xlink:href="#mc1d2b06ac1" x="156.98263" y="512.64" style="fill: #ffffff; stroke: #ffffff; stroke-width: 0.8"/>
      </g>
     </g>
     <g id="text_1">
      <!-- 0 -->
      <g style="fill: #ffffff" transform="translate(153.80138 527.238438) scale(0.1 -0.1)">
       <defs>
        <path id="DejaVuSans-30" d="M 2034 4250 
Q 1547 4250 1301 3770 
Q 1056 3291 1056 2328 
Q 1056 1369 1301 889 
Q 1547 409 2034 409 
Q 2525 409 2770 889 
Q 3016 1369 3016 2328 
Q 3016 3291 2770 3770 
Q 2525 4250 2034 4250 
z
M 2034 4750 
Q 2819 4750 3233 4129 
Q 3647 3509 3647 2328 
Q 3647 1150 3233 529 
Q 2819 -91 2034 -91 
Q 1250 -91 836 529 
Q 422 1150 422 2328 
Q 422 3509 836 4129 
Q 1250 4750 2034 4750 
z
" transform="scale(0.015625)"/>
       </defs>
       <use xlink:href="#DejaVuSans-30"/>
      </g>
     </g>
    </g>
    <g id="xtick_2">
     <g id="line2d_3">
      <path d="M 253.548017 512.64 
L 253.548017 69.12 
" clip-path="url(#pb6b57053c9)" style="fill: none; stroke: #ffffff; stroke-width: 0.8; stroke-linecap: square"/>
     </g>
     <g id="line2d_4">
      <g>
       <use xlink:href="#mc1d2b06ac1" x="253.548017" y="512.64" style="fill: #ffffff; stroke: #ffffff; stroke-width: 0.8"/>
      </g>
     </g>
     <g id="text_2">
      <!-- 100 -->
      <g style="fill: #ffffff" transform="translate(244.004267 527.238438) scale(0.1 -0.1)">
       <defs>
        <path id="DejaVuSans-31" d="M 794 531 
L 1825 531 
L 1825 4091 
L 703 3866 
L 703 4441 
L 1819 4666 
L 2450 4666 
L 2450 531 
L 3481 531 
L 3481 0 
L 794 0 
L 794 531 
z
" transform="scale(0.015625)"/>
       </defs>
       <use xlink:href="#DejaVuSans-31"/>
       <use xlink:href="#DejaVuSans-30" x="63.623047"/>
       <use xlink:href="#DejaVuSans-30" x="127.246094"/>
      </g>
     </g>
    </g>
    <g id="xtick_3">
     <g id="line2d_5">
      <path d="M 350.113404 512.64 
L 350.113404 69.12 
" clip-path="url(#pb6b57053c9)" style="fill: none; stroke: #ffffff; stroke-width: 0.8; stroke-linecap: square"/>
     </g>
     <g id="line2d_6">
      <g>
       <use xlink:href="#mc1d2b06ac1" x="350.113404" y="512.64" style="fill: #ffffff; stroke: #ffffff; stroke-width: 0.8"/>
      </g>
     </g>
     <g id="text_3">
      <!-- 200 -->
      <g style="fill: #ffffff" transform="translate(340.569654 527.238438) scale(0.1 -0.1)">
       <defs>
        <path id="DejaVuSans-32" d="M 1228 531 
L 3431 531 
L 3431 0 
L 469 0 
L 469 531 
Q 828 903 1448 1529 
Q 2069 2156 2228 2338 
Q 2531 2678 2651 2914 
Q 2772 3150 2772 3378 
Q 2772 3750 2511 3984 
Q 2250 4219 1831 4219 
Q 1534 4219 1204 4116 
Q 875 4013 500 3803 
L 500 4441 
Q 881 4594 1212 4672 
Q 1544 4750 1819 4750 
Q 2544 4750 2975 4387 
Q 3406 4025 3406 3419 
Q 3406 3131 3298 2873 
Q 3191 2616 2906 2266 
Q 2828 2175 2409 1742 
Q 1991 1309 1228 531 
z
" transform="scale(0.015625)"/>
       </defs>
       <use xlink:href="#DejaVuSans-32"/>
       <use xlink:href="#DejaVuSans-30" x="63.623047"/>
       <use xlink:href="#DejaVuSans-30" x="127.246094"/>
      </g>
     </g>
    </g>
    <g id="xtick_4">
     <g id="line2d_7">
      <path d="M 446.678792 512.64 
L 446.678792 69.12 
" clip-path="url(#pb6b57053c9)" style="fill: none; stroke: #ffffff; stroke-width: 0.8; stroke-linecap: square"/>
     </g>
     <g id="line2d_8">
      <g>
       <use xlink:href="#mc1d2b06ac1" x="446.678792" y="512.64" style="fill: #ffffff; stroke: #ffffff; stroke-width: 0.8"/>
      </g>
     </g>
     <g id="text_4">
      <!-- 300 -->
      <g style="fill: #ffffff" transform="translate(437.135042 527.238438) scale(0.1 -0.1)">
       <defs>
        <path id="DejaVuSans-33" d="M 2597 2516 
Q 3050 2419 3304 2112 
Q 3559 1806 3559 1356 
Q 3559 666 3084 287 
Q 2609 -91 1734 -91 
Q 1441 -91 1130 -33 
Q 819 25 488 141 
L 488 750 
Q 750 597 1062 519 
Q 1375 441 1716 441 
Q 2309 441 2620 675 
Q 2931 909 2931 1356 
Q 2931 1769 2642 2001 
Q 2353 2234 1838 2234 
L 1294 2234 
L 1294 2753 
L 1863 2753 
Q 2328 2753 2575 2939 
Q 2822 3125 2822 3475 
Q 2822 3834 2567 4026 
Q 2313 4219 1838 4219 
Q 1578 4219 1281 4162 
Q 984 4106 628 3988 
L 628 4550 
Q 988 4650 1302 4700 
Q 1616 4750 1894 4750 
Q 2613 4750 3031 4423 
Q 3450 4097 3450 3541 
Q 3450 3153 3228 2886 
Q 3006 2619 2597 2516 
z
" transform="scale(0.015625)"/>
       </defs>
       <use xlink:href="#DejaVuSans-33"/>
       <use xlink:href="#DejaVuSans-30" x="63.623047"/>
       <use xlink:href="#DejaVuSans-30" x="127.246094"/>
      </g>
     </g>
    </g>
    <g id="xtick_5">
     <g id="line2d_9">
      <path d="M 543.244179 512.64 
L 543.244179 69.12 
" clip-path="url(#pb6b57053c9)" style="fill: none; stroke: #ffffff; stroke-width: 0.8; stroke-linecap: square"/>
     </g>
     <g id="line2d_10">
      <g>
       <use xlink:href="#mc1d2b06ac1" x="543.244179" y="512.64" style="fill: #ffffff; stroke: #ffffff; stroke-width: 0.8"/>
      </g>
     </g>
     <g id="text_5">
      <!-- 400 -->
      <g style="fill: #ffffff" transform="translate(533.700429 527.238438) scale(0.1 -0.1)">
       <defs>
        <path id="DejaVuSans-34" d="M 2419 4116 
L 825 1625 
L 2419 1625 
L 2419 4116 
z
M 2253 4666 
L 3047 4666 
L 3047 1625 
L 3713 1625 
L 3713 1100 
L 3047 1100 
L 3047 0 
L 2419 0 
L 2419 1100 
L 313 1100 
L 313 1709 
L 2253 4666 
z
" transform="scale(0.015625)"/>
       </defs>
       <use xlink:href="#DejaVuSans-34"/>
       <use xlink:href="#DejaVuSans-30" x="63.623047"/>
       <use xlink:href="#DejaVuSans-30" x="127.246094"/>
      </g>
     </g>
    </g>
    <g id="xtick_6">
     <g id="line2d_11">
      <path d="M 639.809566 512.64 
L 639.809566 69.12 
" clip-path="url(#pb6b57053c9)" style="fill: none; stroke: #ffffff; stroke-width: 0.8; stroke-linecap: square"/>
     </g>
     <g id="line2d_12">
      <g>
       <use xlink:href="#mc1d2b06ac1" x="639.809566" y="512.64" style="fill: #ffffff; stroke: #ffffff; stroke-width: 0.8"/>
      </g>
     </g>
     <g id="text_6">
      <!-- 500 -->
      <g style="fill: #ffffff" transform="translate(630.265816 527.238438) scale(0.1 -0.1)">
       <defs>
        <path id="DejaVuSans-35" d="M 691 4666 
L 3169 4666 
L 3169 4134 
L 1269 4134 
L 1269 2991 
Q 1406 3038 1543 3061 
Q 1681 3084 1819 3084 
Q 2600 3084 3056 2656 
Q 3513 2228 3513 1497 
Q 3513 744 3044 326 
Q 2575 -91 1722 -91 
Q 1428 -91 1123 -41 
Q 819 9 494 109 
L 494 744 
Q 775 591 1075 516 
Q 1375 441 1709 441 
Q 2250 441 2565 725 
Q 2881 1009 2881 1497 
Q 2881 1984 2565 2268 
Q 2250 2553 1709 2553 
Q 1456 2553 1204 2497 
Q 953 2441 691 2322 
L 691 4666 
z
" transform="scale(0.015625)"/>
       </defs>
       <use xlink:href="#DejaVuSans-35"/>
       <use xlink:href="#DejaVuSans-30" x="63.623047"/>
       <use xlink:href="#DejaVuSans-30" x="127.246094"/>
      </g>
     </g>
    </g>
    <g id="xtick_7">
     <g id="line2d_13">
      <path d="M 736.374954 512.64 
L 736.374954 69.12 
" clip-path="url(#pb6b57053c9)" style="fill: none; stroke: #ffffff; stroke-width: 0.8; stroke-linecap: square"/>
     </g>
     <g id="line2d_14">
      <g>
       <use xlink:href="#mc1d2b06ac1" x="736.374954" y="512.64" style="fill: #ffffff; stroke: #ffffff; stroke-width: 0.8"/>
      </g>
     </g>
     <g id="text_7">
      <!-- 600 -->
      <g style="fill: #ffffff" transform="translate(726.831204 527.238438) scale(0.1 -0.1)">
       <defs>
        <path id="DejaVuSans-36" d="M 2113 2584 
Q 1688 2584 1439 2293 
Q 1191 2003 1191 1497 
Q 1191 994 1439 701 
Q 1688 409 2113 409 
Q 2538 409 2786 701 
Q 3034 994 3034 1497 
Q 3034 2003 2786 2293 
Q 2538 2584 2113 2584 
z
M 3366 4563 
L 3366 3988 
Q 3128 4100 2886 4159 
Q 2644 4219 2406 4219 
Q 1781 4219 1451 3797 
Q 1122 3375 1075 2522 
Q 1259 2794 1537 2939 
Q 1816 3084 2150 3084 
Q 2853 3084 3261 2657 
Q 3669 2231 3669 1497 
Q 3669 778 3244 343 
Q 2819 -91 2113 -91 
Q 1303 -91 875 529 
Q 447 1150 447 2328 
Q 447 3434 972 4092 
Q 1497 4750 2381 4750 
Q 2619 4750 2861 4703 
Q 3103 4656 3366 4563 
z
" transform="scale(0.015625)"/>
       </defs>
       <use xlink:href="#DejaVuSans-36"/>
       <use xlink:href="#DejaVuSans-30" x="63.623047"/>
       <use xlink:href="#DejaVuSans-30" x="127.246094"/>
      </g>
     </g>
    </g>
    <g id="text_8">
     <!-- Time (ms) -->
     <g style="fill: #ffffff" transform="translate(417.600781 540.916563) scale(0.1 -0.1)">
      <defs>
       <path id="DejaVuSans-54" d="M -19 4666 
L 3928 4666 
L 3928 4134 
L 2272 4134 
L 2272 0 
L 1638 0 
L 1638 4134 
L -19 4134 
L -19 4666 
z
" transform="scale(0.015625)"/>
       <path id="DejaVuSans-69" d="M 603 3500 
L 1178 3500 
L 1178 0 
L 603 0 
L 603 3500 
z
M 603 4863 
L 1178 4863 
L 1178 4134 
L 603 4134 
L 603 4863 
z
" transform="scale(0.015625)"/>
       <path id="DejaVuSans-6d" d="M 3328 2828 
Q 3544 3216 3844 3400 
Q 4144 3584 4550 3584 
Q 5097 3584 5394 3201 
Q 5691 2819 5691 2113 
L 5691 0 
L 5113 0 
L 5113 2094 
Q 5113 2597 4934 2840 
Q 4756 3084 4391 3084 
Q 3944 3084 3684 2787 
Q 3425 2491 3425 1978 
L 3425 0 
L 2847 0 
L 2847 2094 
Q 2847 2600 2669 2842 
Q 2491 3084 2119 3084 
Q 1678 3084 1418 2786 
Q 1159 2488 1159 1978 
L 1159 0 
L 581 0 
L 581 3500 
L 1159 3500 
L 1159 2956 
Q 1356 3278 1631 3431 
Q 1906 3584 2284 3584 
Q 2666 3584 2933 3390 
Q 3200 3197 3328 2828 
z
" transform="scale(0.015625)"/>
       <path id="DejaVuSans-65" d="M 3597 1894 
L 3597 1613 
L 953 1613 
Q 991 1019 1311 708 
Q 1631 397 2203 397 
Q 2534 397 2845 478 
Q 3156 559 3463 722 
L 3463 178 
Q 3153 47 2828 -22 
Q 2503 -91 2169 -91 
Q 1331 -91 842 396 
Q 353 884 353 1716 
Q 353 2575 817 3079 
Q 1281 3584 2069 3584 
Q 2775 3584 3186 3129 
Q 3597 2675 3597 1894 
z
M 3022 2063 
Q 3016 2534 2758 2815 
Q 2500 3097 2075 3097 
Q 1594 3097 1305 2825 
Q 1016 2553 972 2059 
L 3022 2063 
z
" transform="scale(0.015625)"/>
       <path id="DejaVuSans-20" transform="scale(0.015625)"/>
       <path id="DejaVuSans-28" d="M 1984 4856 
Q 1566 4138 1362 3434 
Q 1159 2731 1159 2009 
Q 1159 1288 1364 580 
Q 1569 -128 1984 -844 
L 1484 -844 
Q 1016 -109 783 600 
Q 550 1309 550 2009 
Q 550 2706 781 3412 
Q 1013 4119 1484 4856 
L 1984 4856 
z
" transform="scale(0.015625)"/>
       <path id="DejaVuSans-73" d="M 2834 3397 
L 2834 2853 
Q 2591 2978 2328 3040 
Q 2066 3103 1784 3103 
Q 1356 3103 1142 2972 
Q 928 2841 928 2578 
Q 928 2378 1081 2264 
Q 1234 2150 1697 2047 
L 1894 2003 
Q 2506 1872 2764 1633 
Q 3022 1394 3022 966 
Q 3022 478 2636 193 
Q 2250 -91 1575 -91 
Q 1294 -91 989 -36 
Q 684 19 347 128 
L 347 722 
Q 666 556 975 473 
Q 1284 391 1588 391 
Q 1994 391 2212 530 
Q 2431 669 2431 922 
Q 2431 1156 2273 1281 
Q 2116 1406 1581 1522 
L 1381 1569 
Q 847 1681 609 1914 
Q 372 2147 372 2553 
Q 372 3047 722 3315 
Q 1072 3584 1716 3584 
Q 2034 3584 2315 3537 
Q 2597 3491 2834 3397 
z
" transform="scale(0.015625)"/>
       <path id="DejaVuSans-29" d="M 513 4856 
L 1013 4856 
Q 1481 4119 1714 3412 
Q 1947 2706 1947 2009 
Q 1947 1309 1714 600 
Q 1481 -109 1013 -844 
L 513 -844 
Q 928 -128 1133 580 
Q 1338 1288 1338 2009 
Q 1338 2731 1133 3434 
Q 928 4138 513 4856 
z
" transform="scale(0.015625)"/>
      </defs>
      <use xlink:href="#DejaVuSans-54"/>
      <use xlink:href="#DejaVuSans-69" x="57.958984"/>
      <use xlink:href="#DejaVuSans-6d" x="85.742188"/>
      <use xlink:href="#DejaVuSans-65" x="183.154297"/>
      <use xlink:href="#DejaVuSans-20" x="244.677734"/>
      <use xlink:href="#DejaVuSans-28" x="276.464844"/>
      <use xlink:href="#DejaVuSans-6d" x="315.478516"/>
      <use xlink:href="#DejaVuSans-73" x="412.890625"/>
      <use xlink:href="#DejaVuSans-29" x="464.990234"/>
     </g>
    </g>
   </g>
   <g id="matplotlib.axis_2">
    <g id="ytick_1">
     <g id="line2d_15">
      <path d="M 108 512.64 
L 777.6 512.64 
" clip-path="url(#pb6b57053c9)" style="fill: none; stroke: #ffffff; stroke-width: 0.8; stroke-linecap: square"/>
     </g>
     <g id="line2d_16">
      <defs>
       <path id="m9e36e295b6" d="M 0 0 
L -3.5 0 
" style="stroke: #ffffff; stroke-width: 0.8"/>
      </defs>
      <g>
       <use xlink:href="#m9e36e295b6" x="108" y="512.64" style="fill: #ffffff; stroke: #ffffff; stroke-width: 0.8"/>
      </g>
     </g>
     <g id="text_9">
      <!-- 0.000 -->
      <g style="fill: #ffffff" transform="translate(72.371875 516.439219) scale(0.1 -0.1)">
       <defs>
        <path id="DejaVuSans-2e" d="M 684 794 
L 1344 794 
L 1344 0 
L 684 0 
L 684 794 
z
" transform="scale(0.015625)"/>
       </defs>
       <use xlink:href="#DejaVuSans-30"/>
       <use xlink:href="#DejaVuSans-2e" x="63.623047"/>
       <use xlink:href="#DejaVuSans-30" x="95.410156"/>
       <use xlink:href="#DejaVuSans-30" x="159.033203"/>
       <use xlink:href="#DejaVuSans-30" x="222.65625"/>
      </g>
     </g>
    </g>
    <g id="ytick_2">
     <g id="line2d_17">
      <path d="M 108 417.290447 
L 777.6 417.290447 
" clip-path="url(#pb6b57053c9)" style="fill: none; stroke: #ffffff; stroke-width: 0.8; stroke-linecap: square"/>
     </g>
     <g id="line2d_18">
      <g>
       <use xlink:href="#m9e36e295b6" x="108" y="417.290447" style="fill: #ffffff; stroke: #ffffff; stroke-width: 0.8"/>
      </g>
     </g>
     <g id="text_10">
      <!-- 0.002 -->
      <g style="fill: #ffffff" transform="translate(72.371875 421.089666) scale(0.1 -0.1)">
       <use xlink:href="#DejaVuSans-30"/>
       <use xlink:href="#DejaVuSans-2e" x="63.623047"/>
       <use xlink:href="#DejaVuSans-30" x="95.410156"/>
       <use xlink:href="#DejaVuSans-30" x="159.033203"/>
       <use xlink:href="#DejaVuSans-32" x="222.65625"/>
      </g>
     </g>
    </g>
    <g id="ytick_3">
     <g id="line2d_19">
      <path d="M 108 321.940895 
L 777.6 321.940895 
" clip-path="url(#pb6b57053c9)" style="fill: none; stroke: #ffffff; stroke-width: 0.8; stroke-linecap: square"/>
     </g>
     <g id="line2d_20">
      <g>
       <use xlink:href="#m9e36e295b6" x="108" y="321.940895" style="fill: #ffffff; stroke: #ffffff; stroke-width: 0.8"/>
      </g>
     </g>
     <g id="text_11">
      <!-- 0.004 -->
      <g style="fill: #ffffff" transform="translate(72.371875 325.740113) scale(0.1 -0.1)">
       <use xlink:href="#DejaVuSans-30"/>
       <use xlink:href="#DejaVuSans-2e" x="63.623047"/>
       <use xlink:href="#DejaVuSans-30" x="95.410156"/>
       <use xlink:href="#DejaVuSans-30" x="159.033203"/>
       <use xlink:href="#DejaVuSans-34" x="222.65625"/>
      </g>
     </g>
    </g>
    <g id="ytick_4">
     <g id="line2d_21">
      <path d="M 108 226.591342 
L 777.6 226.591342 
" clip-path="url(#pb6b57053c9)" style="fill: none; stroke: #ffffff; stroke-width: 0.8; stroke-linecap: square"/>
     </g>
     <g id="line2d_22">
      <g>
       <use xlink:href="#m9e36e295b6" x="108" y="226.591342" style="fill: #ffffff; stroke: #ffffff; stroke-width: 0.8"/>
      </g>
     </g>
     <g id="text_12">
      <!-- 0.006 -->
      <g style="fill: #ffffff" transform="translate(72.371875 230.390561) scale(0.1 -0.1)">
       <use xlink:href="#DejaVuSans-30"/>
       <use xlink:href="#DejaVuSans-2e" x="63.623047"/>
       <use xlink:href="#DejaVuSans-30" x="95.410156"/>
       <use xlink:href="#DejaVuSans-30" x="159.033203"/>
       <use xlink:href="#DejaVuSans-36" x="222.65625"/>
      </g>
     </g>
    </g>
    <g id="ytick_5">
     <g id="line2d_23">
      <path d="M 108 131.241789 
L 777.6 131.241789 
" clip-path="url(#pb6b57053c9)" style="fill: none; stroke: #ffffff; stroke-width: 0.8; stroke-linecap: square"/>
     </g>
     <g id="line2d_24">
      <g>
       <use xlink:href="#m9e36e295b6" x="108" y="131.241789" style="fill: #ffffff; stroke: #ffffff; stroke-width: 0.8"/>
      </g>
     </g>
     <g id="text_13">
      <!-- 0.008 -->
      <g style="fill: #ffffff" transform="translate(72.371875 135.041008) scale(0.1 -0.1)">
       <defs>
        <path id="DejaVuSans-38" d="M 2034 2216 
Q 1584 2216 1326 1975 
Q 1069 1734 1069 1313 
Q 1069 891 1326 650 
Q 1584 409 2034 409 
Q 2484 409 2743 651 
Q 3003 894 3003 1313 
Q 3003 1734 2745 1975 
Q 2488 2216 2034 2216 
z
M 1403 2484 
Q 997 2584 770 2862 
Q 544 3141 544 3541 
Q 544 4100 942 4425 
Q 1341 4750 2034 4750 
Q 2731 4750 3128 4425 
Q 3525 4100 3525 3541 
Q 3525 3141 3298 2862 
Q 3072 2584 2669 2484 
Q 3125 2378 3379 2068 
Q 3634 1759 3634 1313 
Q 3634 634 3220 271 
Q 2806 -91 2034 -91 
Q 1263 -91 848 271 
Q 434 634 434 1313 
Q 434 1759 690 2068 
Q 947 2378 1403 2484 
z
M 1172 3481 
Q 1172 3119 1398 2916 
Q 1625 2713 2034 2713 
Q 2441 2713 2670 2916 
Q 2900 3119 2900 3481 
Q 2900 3844 2670 4047 
Q 2441 4250 2034 4250 
Q 1625 4250 1398 4047 
Q 1172 3844 1172 3481 
z
" transform="scale(0.015625)"/>
       </defs>
       <use xlink:href="#DejaVuSans-30"/>
       <use xlink:href="#DejaVuSans-2e" x="63.623047"/>
       <use xlink:href="#DejaVuSans-30" x="95.410156"/>
       <use xlink:href="#DejaVuSans-30" x="159.033203"/>
       <use xlink:href="#DejaVuSans-38" x="222.65625"/>
      </g>
     </g>
    </g>
    <g id="text_14">
     <!-- Density -->
     <g style="fill: #ffffff" transform="translate(66.292187 309.888594) rotate(-90) scale(0.1 -0.1)">
      <defs>
       <path id="DejaVuSans-44" d="M 1259 4147 
L 1259 519 
L 2022 519 
Q 2988 519 3436 956 
Q 3884 1394 3884 2338 
Q 3884 3275 3436 3711 
Q 2988 4147 2022 4147 
L 1259 4147 
z
M 628 4666 
L 1925 4666 
Q 3281 4666 3915 4102 
Q 4550 3538 4550 2338 
Q 4550 1131 3912 565 
Q 3275 0 1925 0 
L 628 0 
L 628 4666 
z
" transform="scale(0.015625)"/>
       <path id="DejaVuSans-6e" d="M 3513 2113 
L 3513 0 
L 2938 0 
L 2938 2094 
Q 2938 2591 2744 2837 
Q 2550 3084 2163 3084 
Q 1697 3084 1428 2787 
Q 1159 2491 1159 1978 
L 1159 0 
L 581 0 
L 581 3500 
L 1159 3500 
L 1159 2956 
Q 1366 3272 1645 3428 
Q 1925 3584 2291 3584 
Q 2894 3584 3203 3211 
Q 3513 2838 3513 2113 
z
" transform="scale(0.015625)"/>
       <path id="DejaVuSans-74" d="M 1172 4494 
L 1172 3500 
L 2356 3500 
L 2356 3053 
L 1172 3053 
L 1172 1153 
Q 1172 725 1289 603 
Q 1406 481 1766 481 
L 2356 481 
L 2356 0 
L 1766 0 
Q 1100 0 847 248 
Q 594 497 594 1153 
L 594 3053 
L 172 3053 
L 172 3500 
L 594 3500 
L 594 4494 
L 1172 4494 
z
" transform="scale(0.015625)"/>
       <path id="DejaVuSans-79" d="M 2059 -325 
Q 1816 -950 1584 -1140 
Q 1353 -1331 966 -1331 
L 506 -1331 
L 506 -850 
L 844 -850 
Q 1081 -850 1212 -737 
Q 1344 -625 1503 -206 
L 1606 56 
L 191 3500 
L 800 3500 
L 1894 763 
L 2988 3500 
L 3597 3500 
L 2059 -325 
z
" transform="scale(0.015625)"/>
      </defs>
      <use xlink:href="#DejaVuSans-44"/>
      <use xlink:href="#DejaVuSans-65" x="77.001953"/>
      <use xlink:href="#DejaVuSans-6e" x="138.525391"/>
      <use xlink:href="#DejaVuSans-73" x="201.904297"/>
      <use xlink:href="#DejaVuSans-69" x="254.003906"/>
      <use xlink:href="#DejaVuSans-74" x="281.787109"/>
      <use xlink:href="#DejaVuSans-79" x="320.996094"/>
     </g>
    </g>
   </g>
   <g id="patch_3">
    <path d="M 108 512.64 
L 108 69.12 
" style="fill: none; stroke: #ffffff; stroke-width: 0.8; stroke-linejoin: miter; stroke-linecap: square"/>
   </g>
   <g id="patch_4">
    <path d="M 777.6 512.64 
L 777.6 69.12 
" style="fill: none; stroke: #ffffff; stroke-width: 0.8; stroke-linejoin: miter; stroke-linecap: square"/>
   </g>
   <g id="patch_5">
    <path d="M 108 512.64 
L 777.6 512.64 
" style="fill: none; stroke: #ffffff; stroke-width: 0.8; stroke-linejoin: miter; stroke-linecap: square"/>
   </g>
   <g id="patch_6">
    <path d="M 108 69.12 
L 777.6 69.12 
" style="fill: none; stroke: #ffffff; stroke-width: 0.8; stroke-linejoin: miter; stroke-linecap: square"/>
   </g>
   <g id="text_15">
    <!-- Density Plot of Execution Time across Implementations -->
    <g style="fill: #ffffff" transform="translate(277.336875 63.12) scale(0.12 -0.12)">
     <defs>
      <path id="DejaVuSans-50" d="M 1259 4147 
L 1259 2394 
L 2053 2394 
Q 2494 2394 2734 2622 
Q 2975 2850 2975 3272 
Q 2975 3691 2734 3919 
Q 2494 4147 2053 4147 
L 1259 4147 
z
M 628 4666 
L 2053 4666 
Q 2838 4666 3239 4311 
Q 3641 3956 3641 3272 
Q 3641 2581 3239 2228 
Q 2838 1875 2053 1875 
L 1259 1875 
L 1259 0 
L 628 0 
L 628 4666 
z
" transform="scale(0.015625)"/>
      <path id="DejaVuSans-6c" d="M 603 4863 
L 1178 4863 
L 1178 0 
L 603 0 
L 603 4863 
z
" transform="scale(0.015625)"/>
      <path id="DejaVuSans-6f" d="M 1959 3097 
Q 1497 3097 1228 2736 
Q 959 2375 959 1747 
Q 959 1119 1226 758 
Q 1494 397 1959 397 
Q 2419 397 2687 759 
Q 2956 1122 2956 1747 
Q 2956 2369 2687 2733 
Q 2419 3097 1959 3097 
z
M 1959 3584 
Q 2709 3584 3137 3096 
Q 3566 2609 3566 1747 
Q 3566 888 3137 398 
Q 2709 -91 1959 -91 
Q 1206 -91 779 398 
Q 353 888 353 1747 
Q 353 2609 779 3096 
Q 1206 3584 1959 3584 
z
" transform="scale(0.015625)"/>
      <path id="DejaVuSans-66" d="M 2375 4863 
L 2375 4384 
L 1825 4384 
Q 1516 4384 1395 4259 
Q 1275 4134 1275 3809 
L 1275 3500 
L 2222 3500 
L 2222 3053 
L 1275 3053 
L 1275 0 
L 697 0 
L 697 3053 
L 147 3053 
L 147 3500 
L 697 3500 
L 697 3744 
Q 697 4328 969 4595 
Q 1241 4863 1831 4863 
L 2375 4863 
z
" transform="scale(0.015625)"/>
      <path id="DejaVuSans-45" d="M 628 4666 
L 3578 4666 
L 3578 4134 
L 1259 4134 
L 1259 2753 
L 3481 2753 
L 3481 2222 
L 1259 2222 
L 1259 531 
L 3634 531 
L 3634 0 
L 628 0 
L 628 4666 
z
" transform="scale(0.015625)"/>
      <path id="DejaVuSans-78" d="M 3513 3500 
L 2247 1797 
L 3578 0 
L 2900 0 
L 1881 1375 
L 863 0 
L 184 0 
L 1544 1831 
L 300 3500 
L 978 3500 
L 1906 2253 
L 2834 3500 
L 3513 3500 
z
" transform="scale(0.015625)"/>
      <path id="DejaVuSans-63" d="M 3122 3366 
L 3122 2828 
Q 2878 2963 2633 3030 
Q 2388 3097 2138 3097 
Q 1578 3097 1268 2742 
Q 959 2388 959 1747 
Q 959 1106 1268 751 
Q 1578 397 2138 397 
Q 2388 397 2633 464 
Q 2878 531 3122 666 
L 3122 134 
Q 2881 22 2623 -34 
Q 2366 -91 2075 -91 
Q 1284 -91 818 406 
Q 353 903 353 1747 
Q 353 2603 823 3093 
Q 1294 3584 2113 3584 
Q 2378 3584 2631 3529 
Q 2884 3475 3122 3366 
z
" transform="scale(0.015625)"/>
      <path id="DejaVuSans-75" d="M 544 1381 
L 544 3500 
L 1119 3500 
L 1119 1403 
Q 1119 906 1312 657 
Q 1506 409 1894 409 
Q 2359 409 2629 706 
Q 2900 1003 2900 1516 
L 2900 3500 
L 3475 3500 
L 3475 0 
L 2900 0 
L 2900 538 
Q 2691 219 2414 64 
Q 2138 -91 1772 -91 
Q 1169 -91 856 284 
Q 544 659 544 1381 
z
M 1991 3584 
L 1991 3584 
z
" transform="scale(0.015625)"/>
      <path id="DejaVuSans-61" d="M 2194 1759 
Q 1497 1759 1228 1600 
Q 959 1441 959 1056 
Q 959 750 1161 570 
Q 1363 391 1709 391 
Q 2188 391 2477 730 
Q 2766 1069 2766 1631 
L 2766 1759 
L 2194 1759 
z
M 3341 1997 
L 3341 0 
L 2766 0 
L 2766 531 
Q 2569 213 2275 61 
Q 1981 -91 1556 -91 
Q 1019 -91 701 211 
Q 384 513 384 1019 
Q 384 1609 779 1909 
Q 1175 2209 1959 2209 
L 2766 2209 
L 2766 2266 
Q 2766 2663 2505 2880 
Q 2244 3097 1772 3097 
Q 1472 3097 1187 3025 
Q 903 2953 641 2809 
L 641 3341 
Q 956 3463 1253 3523 
Q 1550 3584 1831 3584 
Q 2591 3584 2966 3190 
Q 3341 2797 3341 1997 
z
" transform="scale(0.015625)"/>
      <path id="DejaVuSans-72" d="M 2631 2963 
Q 2534 3019 2420 3045 
Q 2306 3072 2169 3072 
Q 1681 3072 1420 2755 
Q 1159 2438 1159 1844 
L 1159 0 
L 581 0 
L 581 3500 
L 1159 3500 
L 1159 2956 
Q 1341 3275 1631 3429 
Q 1922 3584 2338 3584 
Q 2397 3584 2469 3576 
Q 2541 3569 2628 3553 
L 2631 2963 
z
" transform="scale(0.015625)"/>
      <path id="DejaVuSans-49" d="M 628 4666 
L 1259 4666 
L 1259 0 
L 628 0 
L 628 4666 
z
" transform="scale(0.015625)"/>
      <path id="DejaVuSans-70" d="M 1159 525 
L 1159 -1331 
L 581 -1331 
L 581 3500 
L 1159 3500 
L 1159 2969 
Q 1341 3281 1617 3432 
Q 1894 3584 2278 3584 
Q 2916 3584 3314 3078 
Q 3713 2572 3713 1747 
Q 3713 922 3314 415 
Q 2916 -91 2278 -91 
Q 1894 -91 1617 61 
Q 1341 213 1159 525 
z
M 3116 1747 
Q 3116 2381 2855 2742 
Q 2594 3103 2138 3103 
Q 1681 3103 1420 2742 
Q 1159 2381 1159 1747 
Q 1159 1113 1420 752 
Q 1681 391 2138 391 
Q 2594 391 2855 752 
Q 3116 1113 3116 1747 
z
" transform="scale(0.015625)"/>
     </defs>
     <use xlink:href="#DejaVuSans-44"/>
     <use xlink:href="#DejaVuSans-65" x="77.001953"/>
     <use xlink:href="#DejaVuSans-6e" x="138.525391"/>
     <use xlink:href="#DejaVuSans-73" x="201.904297"/>
     <use xlink:href="#DejaVuSans-69" x="254.003906"/>
     <use xlink:href="#DejaVuSans-74" x="281.787109"/>
     <use xlink:href="#DejaVuSans-79" x="320.996094"/>
     <use xlink:href="#DejaVuSans-20" x="380.175781"/>
     <use xlink:href="#DejaVuSans-50" x="411.962891"/>
     <use xlink:href="#DejaVuSans-6c" x="472.265625"/>
     <use xlink:href="#DejaVuSans-6f" x="500.048828"/>
     <use xlink:href="#DejaVuSans-74" x="561.230469"/>
     <use xlink:href="#DejaVuSans-20" x="600.439453"/>
     <use xlink:href="#DejaVuSans-6f" x="632.226562"/>
     <use xlink:href="#DejaVuSans-66" x="693.408203"/>
     <use xlink:href="#DejaVuSans-20" x="728.613281"/>
     <use xlink:href="#DejaVuSans-45" x="760.400391"/>
     <use xlink:href="#DejaVuSans-78" x="823.583984"/>
     <use xlink:href="#DejaVuSans-65" x="879.638672"/>
     <use xlink:href="#DejaVuSans-63" x="941.162109"/>
     <use xlink:href="#DejaVuSans-75" x="996.142578"/>
     <use xlink:href="#DejaVuSans-74" x="1059.521484"/>
     <use xlink:href="#DejaVuSans-69" x="1098.730469"/>
     <use xlink:href="#DejaVuSans-6f" x="1126.513672"/>
     <use xlink:href="#DejaVuSans-6e" x="1187.695312"/>
     <use xlink:href="#DejaVuSans-20" x="1251.074219"/>
     <use xlink:href="#DejaVuSans-54" x="1282.861328"/>
     <use xlink:href="#DejaVuSans-69" x="1340.820312"/>
     <use xlink:href="#DejaVuSans-6d" x="1368.603516"/>
     <use xlink:href="#DejaVuSans-65" x="1466.015625"/>
     <use xlink:href="#DejaVuSans-20" x="1527.539062"/>
     <use xlink:href="#DejaVuSans-61" x="1559.326172"/>
     <use xlink:href="#DejaVuSans-63" x="1620.605469"/>
     <use xlink:href="#DejaVuSans-72" x="1675.585938"/>
     <use xlink:href="#DejaVuSans-6f" x="1714.449219"/>
     <use xlink:href="#DejaVuSans-73" x="1775.630859"/>
     <use xlink:href="#DejaVuSans-73" x="1827.730469"/>
     <use xlink:href="#DejaVuSans-20" x="1879.830078"/>
     <use xlink:href="#DejaVuSans-49" x="1911.617188"/>
     <use xlink:href="#DejaVuSans-6d" x="1941.109375"/>
     <use xlink:href="#DejaVuSans-70" x="2038.521484"/>
     <use xlink:href="#DejaVuSans-6c" x="2101.998047"/>
     <use xlink:href="#DejaVuSans-65" x="2129.78125"/>
     <use xlink:href="#DejaVuSans-6d" x="2191.304688"/>
     <use xlink:href="#DejaVuSans-65" x="2288.716797"/>
     <use xlink:href="#DejaVuSans-6e" x="2350.240234"/>
     <use xlink:href="#DejaVuSans-74" x="2413.619141"/>
     <use xlink:href="#DejaVuSans-61" x="2452.828125"/>
     <use xlink:href="#DejaVuSans-74" x="2514.107422"/>
     <use xlink:href="#DejaVuSans-69" x="2553.316406"/>
     <use xlink:href="#DejaVuSans-6f" x="2581.099609"/>
     <use xlink:href="#DejaVuSans-6e" x="2642.28125"/>
     <use xlink:href="#DejaVuSans-73" x="2705.660156"/>
    </g>
   </g>
   <g id="legend_1">
    <g id="patch_7">
     <path d="M 617.078125 136.666875 
L 770.6 136.666875 
Q 772.6 136.666875 772.6 134.666875 
L 772.6 76.12 
Q 772.6 74.12 770.6 74.12 
L 617.078125 74.12 
Q 615.078125 74.12 615.078125 76.12 
L 615.078125 134.666875 
Q 615.078125 136.666875 617.078125 136.666875 
z
" style="opacity: 0.8; stroke: #cccccc; stroke-linejoin: miter"/>
    </g>
    <g id="text_16">
     <!-- implementation -->
     <g style="fill: #ffffff" transform="translate(654.222656 85.718437) scale(0.1 -0.1)">
      <use xlink:href="#DejaVuSans-69"/>
      <use xlink:href="#DejaVuSans-6d" x="27.783203"/>
      <use xlink:href="#DejaVuSans-70" x="125.195312"/>
      <use xlink:href="#DejaVuSans-6c" x="188.671875"/>
      <use xlink:href="#DejaVuSans-65" x="216.455078"/>
      <use xlink:href="#DejaVuSans-6d" x="277.978516"/>
      <use xlink:href="#DejaVuSans-65" x="375.390625"/>
      <use xlink:href="#DejaVuSans-6e" x="436.914062"/>
      <use xlink:href="#DejaVuSans-74" x="500.292969"/>
      <use xlink:href="#DejaVuSans-61" x="539.501953"/>
      <use xlink:href="#DejaVuSans-74" x="600.78125"/>
      <use xlink:href="#DejaVuSans-69" x="639.990234"/>
      <use xlink:href="#DejaVuSans-6f" x="667.773438"/>
      <use xlink:href="#DejaVuSans-6e" x="728.955078"/>
     </g>
    </g>
    <g id="patch_8">
     <path d="M 619.078125 100.396563 
L 639.078125 100.396563 
L 639.078125 93.396563 
L 619.078125 93.396563 
z
" style="fill: #023eff; fill-opacity: 0.25; stroke: #023eff; stroke-linejoin: miter"/>
    </g>
    <g id="text_17">
     <!-- caio.python_aio_asyncio -->
     <g style="fill: #ffffff" transform="translate(647.078125 100.396563) scale(0.1 -0.1)">
      <defs>
       <path id="DejaVuSans-68" d="M 3513 2113 
L 3513 0 
L 2938 0 
L 2938 2094 
Q 2938 2591 2744 2837 
Q 2550 3084 2163 3084 
Q 1697 3084 1428 2787 
Q 1159 2491 1159 1978 
L 1159 0 
L 581 0 
L 581 4863 
L 1159 4863 
L 1159 2956 
Q 1366 3272 1645 3428 
Q 1925 3584 2291 3584 
Q 2894 3584 3203 3211 
Q 3513 2838 3513 2113 
z
" transform="scale(0.015625)"/>
       <path id="DejaVuSans-5f" d="M 3263 -1063 
L 3263 -1509 
L -63 -1509 
L -63 -1063 
L 3263 -1063 
z
" transform="scale(0.015625)"/>
      </defs>
      <use xlink:href="#DejaVuSans-63"/>
      <use xlink:href="#DejaVuSans-61" x="54.980469"/>
      <use xlink:href="#DejaVuSans-69" x="116.259766"/>
      <use xlink:href="#DejaVuSans-6f" x="144.042969"/>
      <use xlink:href="#DejaVuSans-2e" x="203.474609"/>
      <use xlink:href="#DejaVuSans-70" x="235.261719"/>
      <use xlink:href="#DejaVuSans-79" x="298.738281"/>
      <use xlink:href="#DejaVuSans-74" x="357.917969"/>
      <use xlink:href="#DejaVuSans-68" x="397.126953"/>
      <use xlink:href="#DejaVuSans-6f" x="460.505859"/>
      <use xlink:href="#DejaVuSans-6e" x="521.6875"/>
      <use xlink:href="#DejaVuSans-5f" x="585.066406"/>
      <use xlink:href="#DejaVuSans-61" x="635.066406"/>
      <use xlink:href="#DejaVuSans-69" x="696.345703"/>
      <use xlink:href="#DejaVuSans-6f" x="724.128906"/>
      <use xlink:href="#DejaVuSans-5f" x="785.310547"/>
      <use xlink:href="#DejaVuSans-61" x="835.310547"/>
      <use xlink:href="#DejaVuSans-73" x="896.589844"/>
      <use xlink:href="#DejaVuSans-79" x="948.689453"/>
      <use xlink:href="#DejaVuSans-6e" x="1007.869141"/>
      <use xlink:href="#DejaVuSans-63" x="1071.248047"/>
      <use xlink:href="#DejaVuSans-69" x="1126.228516"/>
      <use xlink:href="#DejaVuSans-6f" x="1154.011719"/>
     </g>
    </g>
    <g id="patch_9">
     <path d="M 619.078125 115.352813 
L 639.078125 115.352813 
L 639.078125 108.352813 
L 619.078125 108.352813 
z
" style="fill: #ff7c00; fill-opacity: 0.25; stroke: #ff7c00; stroke-linejoin: miter"/>
    </g>
    <g id="text_18">
     <!-- caio.linux_aio_asyncio -->
     <g style="fill: #ffffff" transform="translate(647.078125 115.352813) scale(0.1 -0.1)">
      <use xlink:href="#DejaVuSans-63"/>
      <use xlink:href="#DejaVuSans-61" x="54.980469"/>
      <use xlink:href="#DejaVuSans-69" x="116.259766"/>
      <use xlink:href="#DejaVuSans-6f" x="144.042969"/>
      <use xlink:href="#DejaVuSans-2e" x="203.474609"/>
      <use xlink:href="#DejaVuSans-6c" x="235.261719"/>
      <use xlink:href="#DejaVuSans-69" x="263.044922"/>
      <use xlink:href="#DejaVuSans-6e" x="290.828125"/>
      <use xlink:href="#DejaVuSans-75" x="354.207031"/>
      <use xlink:href="#DejaVuSans-78" x="417.585938"/>
      <use xlink:href="#DejaVuSans-5f" x="476.765625"/>
      <use xlink:href="#DejaVuSans-61" x="526.765625"/>
      <use xlink:href="#DejaVuSans-69" x="588.044922"/>
      <use xlink:href="#DejaVuSans-6f" x="615.828125"/>
      <use xlink:href="#DejaVuSans-5f" x="677.009766"/>
      <use xlink:href="#DejaVuSans-61" x="727.009766"/>
      <use xlink:href="#DejaVuSans-73" x="788.289062"/>
      <use xlink:href="#DejaVuSans-79" x="840.388672"/>
      <use xlink:href="#DejaVuSans-6e" x="899.568359"/>
      <use xlink:href="#DejaVuSans-63" x="962.947266"/>
      <use xlink:href="#DejaVuSans-69" x="1017.927734"/>
      <use xlink:href="#DejaVuSans-6f" x="1045.710938"/>
     </g>
    </g>
    <g id="patch_10">
     <path d="M 619.078125 130.309063 
L 639.078125 130.309063 
L 639.078125 123.309063 
L 619.078125 123.309063 
z
" style="fill: #1ac938; fill-opacity: 0.25; stroke: #1ac938; stroke-linejoin: miter"/>
    </g>
    <g id="text_19">
     <!-- caio.thread_aio_asyncio -->
     <g style="fill: #ffffff" transform="translate(647.078125 130.309063) scale(0.1 -0.1)">
      <defs>
       <path id="DejaVuSans-64" d="M 2906 2969 
L 2906 4863 
L 3481 4863 
L 3481 0 
L 2906 0 
L 2906 525 
Q 2725 213 2448 61 
Q 2172 -91 1784 -91 
Q 1150 -91 751 415 
Q 353 922 353 1747 
Q 353 2572 751 3078 
Q 1150 3584 1784 3584 
Q 2172 3584 2448 3432 
Q 2725 3281 2906 2969 
z
M 947 1747 
Q 947 1113 1208 752 
Q 1469 391 1925 391 
Q 2381 391 2643 752 
Q 2906 1113 2906 1747 
Q 2906 2381 2643 2742 
Q 2381 3103 1925 3103 
Q 1469 3103 1208 2742 
Q 947 2381 947 1747 
z
" transform="scale(0.015625)"/>
      </defs>
      <use xlink:href="#DejaVuSans-63"/>
      <use xlink:href="#DejaVuSans-61" x="54.980469"/>
      <use xlink:href="#DejaVuSans-69" x="116.259766"/>
      <use xlink:href="#DejaVuSans-6f" x="144.042969"/>
      <use xlink:href="#DejaVuSans-2e" x="203.474609"/>
      <use xlink:href="#DejaVuSans-74" x="235.261719"/>
      <use xlink:href="#DejaVuSans-68" x="274.470703"/>
      <use xlink:href="#DejaVuSans-72" x="337.849609"/>
      <use xlink:href="#DejaVuSans-65" x="376.712891"/>
      <use xlink:href="#DejaVuSans-61" x="438.236328"/>
      <use xlink:href="#DejaVuSans-64" x="499.515625"/>
      <use xlink:href="#DejaVuSans-5f" x="562.992188"/>
      <use xlink:href="#DejaVuSans-61" x="612.992188"/>
      <use xlink:href="#DejaVuSans-69" x="674.271484"/>
      <use xlink:href="#DejaVuSans-6f" x="702.054688"/>
      <use xlink:href="#DejaVuSans-5f" x="763.236328"/>
      <use xlink:href="#DejaVuSans-61" x="813.236328"/>
      <use xlink:href="#DejaVuSans-73" x="874.515625"/>
      <use xlink:href="#DejaVuSans-79" x="926.615234"/>
      <use xlink:href="#DejaVuSans-6e" x="985.794922"/>
      <use xlink:href="#DejaVuSans-63" x="1049.173828"/>
      <use xlink:href="#DejaVuSans-69" x="1104.154297"/>
      <use xlink:href="#DejaVuSans-6f" x="1131.9375"/>
     </g>
    </g>
   </g>
  </g>
 </g>
 <defs>
  <clipPath id="pb6b57053c9">
   <rect x="108" y="69.12" width="669.6" height="443.52"/>
  </clipPath>
 </defs>
</svg>
