<?xml version="1.0" encoding="utf-8" standalone="no"?>
<!DOCTYPE svg PUBLIC "-//W3C//DTD SVG 1.1//EN"
  "http://www.w3.org/Graphics/SVG/1.1/DTD/svg11.dtd">
<svg xmlns:xlink="http://www.w3.org/1999/xlink" width="864pt" height="576pt" viewBox="0 0 864 576" xmlns="http://www.w3.org/2000/svg" version="1.1">
 <metadata>
  <rdf:RDF xmlns:dc="http://purl.org/dc/elements/1.1/" xmlns:cc="http://creativecommons.org/ns#" xmlns:rdf="http://www.w3.org/1999/02/22-rdf-syntax-ns#">
   <cc:Work>
    <dc:type rdf:resource="http://purl.org/dc/dcmitype/StillImage"/>
    <dc:date>2024-01-19T16:09:12.795205</dc:date>
    <dc:format>image/svg+xml</dc:format>
    <dc:creator>
     <cc:Agent>
      <dc:title>Matplotlib v3.8.2, https://matplotlib.org/</dc:title>
     </cc:Agent>
    </dc:creator>
   </cc:Work>
  </rdf:RDF>
 </metadata>
 <defs>
  <style type="text/css">*{stroke-linejoin: round; stroke-linecap: butt}</style>
 </defs>
 <g id="figure_1">
  <g id="patch_1">
   <path d="M 0 576 
L 864 576 
L 864 0 
L 0 0 
z
"/>
  </g>
  <g id="axes_1">
   <g id="patch_2">
    <path d="M 108 512.64 
L 777.6 512.64 
L 777.6 69.12 
L 108 69.12 
z
"/>
   </g>
   <g id="patch_3">
    <path d="M 219.6 515.997635 
L 219.6 515.997635 
L 219.6 515.997635 
L 219.6 515.997635 
z
" clip-path="url(#p81764206b4)" style="fill: #96cac1; stroke: #6a6a6a; stroke-linejoin: miter"/>
   </g>
   <g id="patch_4">
    <path d="M 219.6 515.997635 
L 219.6 515.997635 
L 219.6 515.997635 
L 219.6 515.997635 
z
" clip-path="url(#p81764206b4)" style="fill: #f5f6bc; stroke: #6a6a6a; stroke-linejoin: miter"/>
   </g>
   <g id="matplotlib.axis_1">
    <g id="xtick_1">
     <g id="line2d_1">
      <path d="M 219.6 512.64 
L 219.6 69.12 
" clip-path="url(#p81764206b4)" style="fill: none; stroke: #ffffff; stroke-width: 0.8; stroke-linecap: square"/>
     </g>
     <g id="line2d_2">
      <defs>
       <path id="maffcb7e386" d="M 0 0 
L 0 3.5 
" style="stroke: #ffffff; stroke-width: 0.8"/>
      </defs>
      <g>
       <use xlink:href="#maffcb7e386" x="219.6" y="512.64" style="fill: #ffffff; stroke: #ffffff; stroke-width: 0.8"/>
      </g>
     </g>
     <g id="text_1">
      <!-- caio.python_aio_asyncio -->
      <g style="fill: #ffffff" transform="translate(158.839062 527.238438) scale(0.1 -0.1)">
       <defs>
        <path id="DejaVuSans-63" d="M 3122 3366 
L 3122 2828 
Q 2878 2963 2633 3030 
Q 2388 3097 2138 3097 
Q 1578 3097 1268 2742 
Q 959 2388 959 1747 
Q 959 1106 1268 751 
Q 1578 397 2138 397 
Q 2388 397 2633 464 
Q 2878 531 3122 666 
L 3122 134 
Q 2881 22 2623 -34 
Q 2366 -91 2075 -91 
Q 1284 -91 818 406 
Q 353 903 353 1747 
Q 353 2603 823 3093 
Q 1294 3584 2113 3584 
Q 2378 3584 2631 3529 
Q 2884 3475 3122 3366 
z
" transform="scale(0.015625)"/>
        <path id="DejaVuSans-61" d="M 2194 1759 
Q 1497 1759 1228 1600 
Q 959 1441 959 1056 
Q 959 750 1161 570 
Q 1363 391 1709 391 
Q 2188 391 2477 730 
Q 2766 1069 2766 1631 
L 2766 1759 
L 2194 1759 
z
M 3341 1997 
L 3341 0 
L 2766 0 
L 2766 531 
Q 2569 213 2275 61 
Q 1981 -91 1556 -91 
Q 1019 -91 701 211 
Q 384 513 384 1019 
Q 384 1609 779 1909 
Q 1175 2209 1959 2209 
L 2766 2209 
L 2766 2266 
Q 2766 2663 2505 2880 
Q 2244 3097 1772 3097 
Q 1472 3097 1187 3025 
Q 903 2953 641 2809 
L 641 3341 
Q 956 3463 1253 3523 
Q 1550 3584 1831 3584 
Q 2591 3584 2966 3190 
Q 3341 2797 3341 1997 
z
" transform="scale(0.015625)"/>
        <path id="DejaVuSans-69" d="M 603 3500 
L 1178 3500 
L 1178 0 
L 603 0 
L 603 3500 
z
M 603 4863 
L 1178 4863 
L 1178 4134 
L 603 4134 
L 603 4863 
z
" transform="scale(0.015625)"/>
        <path id="DejaVuSans-6f" d="M 1959 3097 
Q 1497 3097 1228 2736 
Q 959 2375 959 1747 
Q 959 1119 1226 758 
Q 1494 397 1959 397 
Q 2419 397 2687 759 
Q 2956 1122 2956 1747 
Q 2956 2369 2687 2733 
Q 2419 3097 1959 3097 
z
M 1959 3584 
Q 2709 3584 3137 3096 
Q 3566 2609 3566 1747 
Q 3566 888 3137 398 
Q 2709 -91 1959 -91 
Q 1206 -91 779 398 
Q 353 888 353 1747 
Q 353 2609 779 3096 
Q 1206 3584 1959 3584 
z
" transform="scale(0.015625)"/>
        <path id="DejaVuSans-2e" d="M 684 794 
L 1344 794 
L 1344 0 
L 684 0 
L 684 794 
z
" transform="scale(0.015625)"/>
        <path id="DejaVuSans-70" d="M 1159 525 
L 1159 -1331 
L 581 -1331 
L 581 3500 
L 1159 3500 
L 1159 2969 
Q 1341 3281 1617 3432 
Q 1894 3584 2278 3584 
Q 2916 3584 3314 3078 
Q 3713 2572 3713 1747 
Q 3713 922 3314 415 
Q 2916 -91 2278 -91 
Q 1894 -91 1617 61 
Q 1341 213 1159 525 
z
M 3116 1747 
Q 3116 2381 2855 2742 
Q 2594 3103 2138 3103 
Q 1681 3103 1420 2742 
Q 1159 2381 1159 1747 
Q 1159 1113 1420 752 
Q 1681 391 2138 391 
Q 2594 391 2855 752 
Q 3116 1113 3116 1747 
z
" transform="scale(0.015625)"/>
        <path id="DejaVuSans-79" d="M 2059 -325 
Q 1816 -950 1584 -1140 
Q 1353 -1331 966 -1331 
L 506 -1331 
L 506 -850 
L 844 -850 
Q 1081 -850 1212 -737 
Q 1344 -625 1503 -206 
L 1606 56 
L 191 3500 
L 800 3500 
L 1894 763 
L 2988 3500 
L 3597 3500 
L 2059 -325 
z
" transform="scale(0.015625)"/>
        <path id="DejaVuSans-74" d="M 1172 4494 
L 1172 3500 
L 2356 3500 
L 2356 3053 
L 1172 3053 
L 1172 1153 
Q 1172 725 1289 603 
Q 1406 481 1766 481 
L 2356 481 
L 2356 0 
L 1766 0 
Q 1100 0 847 248 
Q 594 497 594 1153 
L 594 3053 
L 172 3053 
L 172 3500 
L 594 3500 
L 594 4494 
L 1172 4494 
z
" transform="scale(0.015625)"/>
        <path id="DejaVuSans-68" d="M 3513 2113 
L 3513 0 
L 2938 0 
L 2938 2094 
Q 2938 2591 2744 2837 
Q 2550 3084 2163 3084 
Q 1697 3084 1428 2787 
Q 1159 2491 1159 1978 
L 1159 0 
L 581 0 
L 581 4863 
L 1159 4863 
L 1159 2956 
Q 1366 3272 1645 3428 
Q 1925 3584 2291 3584 
Q 2894 3584 3203 3211 
Q 3513 2838 3513 2113 
z
" transform="scale(0.015625)"/>
        <path id="DejaVuSans-6e" d="M 3513 2113 
L 3513 0 
L 2938 0 
L 2938 2094 
Q 2938 2591 2744 2837 
Q 2550 3084 2163 3084 
Q 1697 3084 1428 2787 
Q 1159 2491 1159 1978 
L 1159 0 
L 581 0 
L 581 3500 
L 1159 3500 
L 1159 2956 
Q 1366 3272 1645 3428 
Q 1925 3584 2291 3584 
Q 2894 3584 3203 3211 
Q 3513 2838 3513 2113 
z
" transform="scale(0.015625)"/>
        <path id="DejaVuSans-5f" d="M 3263 -1063 
L 3263 -1509 
L -63 -1509 
L -63 -1063 
L 3263 -1063 
z
" transform="scale(0.015625)"/>
        <path id="DejaVuSans-73" d="M 2834 3397 
L 2834 2853 
Q 2591 2978 2328 3040 
Q 2066 3103 1784 3103 
Q 1356 3103 1142 2972 
Q 928 2841 928 2578 
Q 928 2378 1081 2264 
Q 1234 2150 1697 2047 
L 1894 2003 
Q 2506 1872 2764 1633 
Q 3022 1394 3022 966 
Q 3022 478 2636 193 
Q 2250 -91 1575 -91 
Q 1294 -91 989 -36 
Q 684 19 347 128 
L 347 722 
Q 666 556 975 473 
Q 1284 391 1588 391 
Q 1994 391 2212 530 
Q 2431 669 2431 922 
Q 2431 1156 2273 1281 
Q 2116 1406 1581 1522 
L 1381 1569 
Q 847 1681 609 1914 
Q 372 2147 372 2553 
Q 372 3047 722 3315 
Q 1072 3584 1716 3584 
Q 2034 3584 2315 3537 
Q 2597 3491 2834 3397 
z
" transform="scale(0.015625)"/>
       </defs>
       <use xlink:href="#DejaVuSans-63"/>
       <use xlink:href="#DejaVuSans-61" x="54.980469"/>
       <use xlink:href="#DejaVuSans-69" x="116.259766"/>
       <use xlink:href="#DejaVuSans-6f" x="144.042969"/>
       <use xlink:href="#DejaVuSans-2e" x="203.474609"/>
       <use xlink:href="#DejaVuSans-70" x="235.261719"/>
       <use xlink:href="#DejaVuSans-79" x="298.738281"/>
       <use xlink:href="#DejaVuSans-74" x="357.917969"/>
       <use xlink:href="#DejaVuSans-68" x="397.126953"/>
       <use xlink:href="#DejaVuSans-6f" x="460.505859"/>
       <use xlink:href="#DejaVuSans-6e" x="521.6875"/>
       <use xlink:href="#DejaVuSans-5f" x="585.066406"/>
       <use xlink:href="#DejaVuSans-61" x="635.066406"/>
       <use xlink:href="#DejaVuSans-69" x="696.345703"/>
       <use xlink:href="#DejaVuSans-6f" x="724.128906"/>
       <use xlink:href="#DejaVuSans-5f" x="785.310547"/>
       <use xlink:href="#DejaVuSans-61" x="835.310547"/>
       <use xlink:href="#DejaVuSans-73" x="896.589844"/>
       <use xlink:href="#DejaVuSans-79" x="948.689453"/>
       <use xlink:href="#DejaVuSans-6e" x="1007.869141"/>
       <use xlink:href="#DejaVuSans-63" x="1071.248047"/>
       <use xlink:href="#DejaVuSans-69" x="1126.228516"/>
       <use xlink:href="#DejaVuSans-6f" x="1154.011719"/>
      </g>
     </g>
    </g>
    <g id="xtick_2">
     <g id="line2d_3">
      <path d="M 442.8 512.64 
L 442.8 69.12 
" clip-path="url(#p81764206b4)" style="fill: none; stroke: #ffffff; stroke-width: 0.8; stroke-linecap: square"/>
     </g>
     <g id="line2d_4">
      <g>
       <use xlink:href="#maffcb7e386" x="442.8" y="512.64" style="fill: #ffffff; stroke: #ffffff; stroke-width: 0.8"/>
      </g>
     </g>
     <g id="text_2">
      <!-- caio.linux_aio_asyncio -->
      <g style="fill: #ffffff" transform="translate(387.454687 527.238438) scale(0.1 -0.1)">
       <defs>
        <path id="DejaVuSans-6c" d="M 603 4863 
L 1178 4863 
L 1178 0 
L 603 0 
L 603 4863 
z
" transform="scale(0.015625)"/>
        <path id="DejaVuSans-75" d="M 544 1381 
L 544 3500 
L 1119 3500 
L 1119 1403 
Q 1119 906 1312 657 
Q 1506 409 1894 409 
Q 2359 409 2629 706 
Q 2900 1003 2900 1516 
L 2900 3500 
L 3475 3500 
L 3475 0 
L 2900 0 
L 2900 538 
Q 2691 219 2414 64 
Q 2138 -91 1772 -91 
Q 1169 -91 856 284 
Q 544 659 544 1381 
z
M 1991 3584 
L 1991 3584 
z
" transform="scale(0.015625)"/>
        <path id="DejaVuSans-78" d="M 3513 3500 
L 2247 1797 
L 3578 0 
L 2900 0 
L 1881 1375 
L 863 0 
L 184 0 
L 1544 1831 
L 300 3500 
L 978 3500 
L 1906 2253 
L 2834 3500 
L 3513 3500 
z
" transform="scale(0.015625)"/>
       </defs>
       <use xlink:href="#DejaVuSans-63"/>
       <use xlink:href="#DejaVuSans-61" x="54.980469"/>
       <use xlink:href="#DejaVuSans-69" x="116.259766"/>
       <use xlink:href="#DejaVuSans-6f" x="144.042969"/>
       <use xlink:href="#DejaVuSans-2e" x="203.474609"/>
       <use xlink:href="#DejaVuSans-6c" x="235.261719"/>
       <use xlink:href="#DejaVuSans-69" x="263.044922"/>
       <use xlink:href="#DejaVuSans-6e" x="290.828125"/>
       <use xlink:href="#DejaVuSans-75" x="354.207031"/>
       <use xlink:href="#DejaVuSans-78" x="417.585938"/>
       <use xlink:href="#DejaVuSans-5f" x="476.765625"/>
       <use xlink:href="#DejaVuSans-61" x="526.765625"/>
       <use xlink:href="#DejaVuSans-69" x="588.044922"/>
       <use xlink:href="#DejaVuSans-6f" x="615.828125"/>
       <use xlink:href="#DejaVuSans-5f" x="677.009766"/>
       <use xlink:href="#DejaVuSans-61" x="727.009766"/>
       <use xlink:href="#DejaVuSans-73" x="788.289062"/>
       <use xlink:href="#DejaVuSans-79" x="840.388672"/>
       <use xlink:href="#DejaVuSans-6e" x="899.568359"/>
       <use xlink:href="#DejaVuSans-63" x="962.947266"/>
       <use xlink:href="#DejaVuSans-69" x="1017.927734"/>
       <use xlink:href="#DejaVuSans-6f" x="1045.710938"/>
      </g>
     </g>
    </g>
    <g id="xtick_3">
     <g id="line2d_5">
      <path d="M 666 512.64 
L 666 69.12 
" clip-path="url(#p81764206b4)" style="fill: none; stroke: #ffffff; stroke-width: 0.8; stroke-linecap: square"/>
     </g>
     <g id="line2d_6">
      <g>
       <use xlink:href="#maffcb7e386" x="666" y="512.64" style="fill: #ffffff; stroke: #ffffff; stroke-width: 0.8"/>
      </g>
     </g>
     <g id="text_3">
      <!-- caio.thread_aio_asyncio -->
      <g style="fill: #ffffff" transform="translate(606.342969 527.238438) scale(0.1 -0.1)">
       <defs>
        <path id="DejaVuSans-72" d="M 2631 2963 
Q 2534 3019 2420 3045 
Q 2306 3072 2169 3072 
Q 1681 3072 1420 2755 
Q 1159 2438 1159 1844 
L 1159 0 
L 581 0 
L 581 3500 
L 1159 3500 
L 1159 2956 
Q 1341 3275 1631 3429 
Q 1922 3584 2338 3584 
Q 2397 3584 2469 3576 
Q 2541 3569 2628 3553 
L 2631 2963 
z
" transform="scale(0.015625)"/>
        <path id="DejaVuSans-65" d="M 3597 1894 
L 3597 1613 
L 953 1613 
Q 991 1019 1311 708 
Q 1631 397 2203 397 
Q 2534 397 2845 478 
Q 3156 559 3463 722 
L 3463 178 
Q 3153 47 2828 -22 
Q 2503 -91 2169 -91 
Q 1331 -91 842 396 
Q 353 884 353 1716 
Q 353 2575 817 3079 
Q 1281 3584 2069 3584 
Q 2775 3584 3186 3129 
Q 3597 2675 3597 1894 
z
M 3022 2063 
Q 3016 2534 2758 2815 
Q 2500 3097 2075 3097 
Q 1594 3097 1305 2825 
Q 1016 2553 972 2059 
L 3022 2063 
z
" transform="scale(0.015625)"/>
        <path id="DejaVuSans-64" d="M 2906 2969 
L 2906 4863 
L 3481 4863 
L 3481 0 
L 2906 0 
L 2906 525 
Q 2725 213 2448 61 
Q 2172 -91 1784 -91 
Q 1150 -91 751 415 
Q 353 922 353 1747 
Q 353 2572 751 3078 
Q 1150 3584 1784 3584 
Q 2172 3584 2448 3432 
Q 2725 3281 2906 2969 
z
M 947 1747 
Q 947 1113 1208 752 
Q 1469 391 1925 391 
Q 2381 391 2643 752 
Q 2906 1113 2906 1747 
Q 2906 2381 2643 2742 
Q 2381 3103 1925 3103 
Q 1469 3103 1208 2742 
Q 947 2381 947 1747 
z
" transform="scale(0.015625)"/>
       </defs>
       <use xlink:href="#DejaVuSans-63"/>
       <use xlink:href="#DejaVuSans-61" x="54.980469"/>
       <use xlink:href="#DejaVuSans-69" x="116.259766"/>
       <use xlink:href="#DejaVuSans-6f" x="144.042969"/>
       <use xlink:href="#DejaVuSans-2e" x="203.474609"/>
       <use xlink:href="#DejaVuSans-74" x="235.261719"/>
       <use xlink:href="#DejaVuSans-68" x="274.470703"/>
       <use xlink:href="#DejaVuSans-72" x="337.849609"/>
       <use xlink:href="#DejaVuSans-65" x="376.712891"/>
       <use xlink:href="#DejaVuSans-61" x="438.236328"/>
       <use xlink:href="#DejaVuSans-64" x="499.515625"/>
       <use xlink:href="#DejaVuSans-5f" x="562.992188"/>
       <use xlink:href="#DejaVuSans-61" x="612.992188"/>
       <use xlink:href="#DejaVuSans-69" x="674.271484"/>
       <use xlink:href="#DejaVuSans-6f" x="702.054688"/>
       <use xlink:href="#DejaVuSans-5f" x="763.236328"/>
       <use xlink:href="#DejaVuSans-61" x="813.236328"/>
       <use xlink:href="#DejaVuSans-73" x="874.515625"/>
       <use xlink:href="#DejaVuSans-79" x="926.615234"/>
       <use xlink:href="#DejaVuSans-6e" x="985.794922"/>
       <use xlink:href="#DejaVuSans-63" x="1049.173828"/>
       <use xlink:href="#DejaVuSans-69" x="1104.154297"/>
       <use xlink:href="#DejaVuSans-6f" x="1131.9375"/>
      </g>
     </g>
    </g>
    <g id="text_4">
     <!-- implementation -->
     <g style="fill: #ffffff" transform="translate(403.183594 541.194687) scale(0.1 -0.1)">
      <defs>
       <path id="DejaVuSans-6d" d="M 3328 2828 
Q 3544 3216 3844 3400 
Q 4144 3584 4550 3584 
Q 5097 3584 5394 3201 
Q 5691 2819 5691 2113 
L 5691 0 
L 5113 0 
L 5113 2094 
Q 5113 2597 4934 2840 
Q 4756 3084 4391 3084 
Q 3944 3084 3684 2787 
Q 3425 2491 3425 1978 
L 3425 0 
L 2847 0 
L 2847 2094 
Q 2847 2600 2669 2842 
Q 2491 3084 2119 3084 
Q 1678 3084 1418 2786 
Q 1159 2488 1159 1978 
L 1159 0 
L 581 0 
L 581 3500 
L 1159 3500 
L 1159 2956 
Q 1356 3278 1631 3431 
Q 1906 3584 2284 3584 
Q 2666 3584 2933 3390 
Q 3200 3197 3328 2828 
z
" transform="scale(0.015625)"/>
      </defs>
      <use xlink:href="#DejaVuSans-69"/>
      <use xlink:href="#DejaVuSans-6d" x="27.783203"/>
      <use xlink:href="#DejaVuSans-70" x="125.195312"/>
      <use xlink:href="#DejaVuSans-6c" x="188.671875"/>
      <use xlink:href="#DejaVuSans-65" x="216.455078"/>
      <use xlink:href="#DejaVuSans-6d" x="277.978516"/>
      <use xlink:href="#DejaVuSans-65" x="375.390625"/>
      <use xlink:href="#DejaVuSans-6e" x="436.914062"/>
      <use xlink:href="#DejaVuSans-74" x="500.292969"/>
      <use xlink:href="#DejaVuSans-61" x="539.501953"/>
      <use xlink:href="#DejaVuSans-74" x="600.78125"/>
      <use xlink:href="#DejaVuSans-69" x="639.990234"/>
      <use xlink:href="#DejaVuSans-6f" x="667.773438"/>
      <use xlink:href="#DejaVuSans-6e" x="728.955078"/>
     </g>
    </g>
   </g>
   <g id="matplotlib.axis_2">
    <g id="ytick_1">
     <g id="line2d_7">
      <path d="M 108 439.884369 
L 777.6 439.884369 
" clip-path="url(#p81764206b4)" style="fill: none; stroke: #ffffff; stroke-width: 0.8; stroke-linecap: square"/>
     </g>
     <g id="line2d_8">
      <defs>
       <path id="m6860728115" d="M 0 0 
L -3.5 0 
" style="stroke: #ffffff; stroke-width: 0.8"/>
      </defs>
      <g>
       <use xlink:href="#m6860728115" x="108" y="439.884369" style="fill: #ffffff; stroke: #ffffff; stroke-width: 0.8"/>
      </g>
     </g>
     <g id="text_5">
      <!-- 100 -->
      <g style="fill: #ffffff" transform="translate(81.9125 443.683587) scale(0.1 -0.1)">
       <defs>
        <path id="DejaVuSans-31" d="M 794 531 
L 1825 531 
L 1825 4091 
L 703 3866 
L 703 4441 
L 1819 4666 
L 2450 4666 
L 2450 531 
L 3481 531 
L 3481 0 
L 794 0 
L 794 531 
z
" transform="scale(0.015625)"/>
        <path id="DejaVuSans-30" d="M 2034 4250 
Q 1547 4250 1301 3770 
Q 1056 3291 1056 2328 
Q 1056 1369 1301 889 
Q 1547 409 2034 409 
Q 2525 409 2770 889 
Q 3016 1369 3016 2328 
Q 3016 3291 2770 3770 
Q 2525 4250 2034 4250 
z
M 2034 4750 
Q 2819 4750 3233 4129 
Q 3647 3509 3647 2328 
Q 3647 1150 3233 529 
Q 2819 -91 2034 -91 
Q 1250 -91 836 529 
Q 422 1150 422 2328 
Q 422 3509 836 4129 
Q 1250 4750 2034 4750 
z
" transform="scale(0.015625)"/>
       </defs>
       <use xlink:href="#DejaVuSans-31"/>
       <use xlink:href="#DejaVuSans-30" x="63.623047"/>
       <use xlink:href="#DejaVuSans-30" x="127.246094"/>
      </g>
     </g>
    </g>
    <g id="ytick_2">
     <g id="line2d_9">
      <path d="M 108 363.771102 
L 777.6 363.771102 
" clip-path="url(#p81764206b4)" style="fill: none; stroke: #ffffff; stroke-width: 0.8; stroke-linecap: square"/>
     </g>
     <g id="line2d_10">
      <g>
       <use xlink:href="#m6860728115" x="108" y="363.771102" style="fill: #ffffff; stroke: #ffffff; stroke-width: 0.8"/>
      </g>
     </g>
     <g id="text_6">
      <!-- 200 -->
      <g style="fill: #ffffff" transform="translate(81.9125 367.570321) scale(0.1 -0.1)">
       <defs>
        <path id="DejaVuSans-32" d="M 1228 531 
L 3431 531 
L 3431 0 
L 469 0 
L 469 531 
Q 828 903 1448 1529 
Q 2069 2156 2228 2338 
Q 2531 2678 2651 2914 
Q 2772 3150 2772 3378 
Q 2772 3750 2511 3984 
Q 2250 4219 1831 4219 
Q 1534 4219 1204 4116 
Q 875 4013 500 3803 
L 500 4441 
Q 881 4594 1212 4672 
Q 1544 4750 1819 4750 
Q 2544 4750 2975 4387 
Q 3406 4025 3406 3419 
Q 3406 3131 3298 2873 
Q 3191 2616 2906 2266 
Q 2828 2175 2409 1742 
Q 1991 1309 1228 531 
z
" transform="scale(0.015625)"/>
       </defs>
       <use xlink:href="#DejaVuSans-32"/>
       <use xlink:href="#DejaVuSans-30" x="63.623047"/>
       <use xlink:href="#DejaVuSans-30" x="127.246094"/>
      </g>
     </g>
    </g>
    <g id="ytick_3">
     <g id="line2d_11">
      <path d="M 108 287.657835 
L 777.6 287.657835 
" clip-path="url(#p81764206b4)" style="fill: none; stroke: #ffffff; stroke-width: 0.8; stroke-linecap: square"/>
     </g>
     <g id="line2d_12">
      <g>
       <use xlink:href="#m6860728115" x="108" y="287.657835" style="fill: #ffffff; stroke: #ffffff; stroke-width: 0.8"/>
      </g>
     </g>
     <g id="text_7">
      <!-- 300 -->
      <g style="fill: #ffffff" transform="translate(81.9125 291.457054) scale(0.1 -0.1)">
       <defs>
        <path id="DejaVuSans-33" d="M 2597 2516 
Q 3050 2419 3304 2112 
Q 3559 1806 3559 1356 
Q 3559 666 3084 287 
Q 2609 -91 1734 -91 
Q 1441 -91 1130 -33 
Q 819 25 488 141 
L 488 750 
Q 750 597 1062 519 
Q 1375 441 1716 441 
Q 2309 441 2620 675 
Q 2931 909 2931 1356 
Q 2931 1769 2642 2001 
Q 2353 2234 1838 2234 
L 1294 2234 
L 1294 2753 
L 1863 2753 
Q 2328 2753 2575 2939 
Q 2822 3125 2822 3475 
Q 2822 3834 2567 4026 
Q 2313 4219 1838 4219 
Q 1578 4219 1281 4162 
Q 984 4106 628 3988 
L 628 4550 
Q 988 4650 1302 4700 
Q 1616 4750 1894 4750 
Q 2613 4750 3031 4423 
Q 3450 4097 3450 3541 
Q 3450 3153 3228 2886 
Q 3006 2619 2597 2516 
z
" transform="scale(0.015625)"/>
       </defs>
       <use xlink:href="#DejaVuSans-33"/>
       <use xlink:href="#DejaVuSans-30" x="63.623047"/>
       <use xlink:href="#DejaVuSans-30" x="127.246094"/>
      </g>
     </g>
    </g>
    <g id="ytick_4">
     <g id="line2d_13">
      <path d="M 108 211.544568 
L 777.6 211.544568 
" clip-path="url(#p81764206b4)" style="fill: none; stroke: #ffffff; stroke-width: 0.8; stroke-linecap: square"/>
     </g>
     <g id="line2d_14">
      <g>
       <use xlink:href="#m6860728115" x="108" y="211.544568" style="fill: #ffffff; stroke: #ffffff; stroke-width: 0.8"/>
      </g>
     </g>
     <g id="text_8">
      <!-- 400 -->
      <g style="fill: #ffffff" transform="translate(81.9125 215.343787) scale(0.1 -0.1)">
       <defs>
        <path id="DejaVuSans-34" d="M 2419 4116 
L 825 1625 
L 2419 1625 
L 2419 4116 
z
M 2253 4666 
L 3047 4666 
L 3047 1625 
L 3713 1625 
L 3713 1100 
L 3047 1100 
L 3047 0 
L 2419 0 
L 2419 1100 
L 313 1100 
L 313 1709 
L 2253 4666 
z
" transform="scale(0.015625)"/>
       </defs>
       <use xlink:href="#DejaVuSans-34"/>
       <use xlink:href="#DejaVuSans-30" x="63.623047"/>
       <use xlink:href="#DejaVuSans-30" x="127.246094"/>
      </g>
     </g>
    </g>
    <g id="ytick_5">
     <g id="line2d_15">
      <path d="M 108 135.431301 
L 777.6 135.431301 
" clip-path="url(#p81764206b4)" style="fill: none; stroke: #ffffff; stroke-width: 0.8; stroke-linecap: square"/>
     </g>
     <g id="line2d_16">
      <g>
       <use xlink:href="#m6860728115" x="108" y="135.431301" style="fill: #ffffff; stroke: #ffffff; stroke-width: 0.8"/>
      </g>
     </g>
     <g id="text_9">
      <!-- 500 -->
      <g style="fill: #ffffff" transform="translate(81.9125 139.23052) scale(0.1 -0.1)">
       <defs>
        <path id="DejaVuSans-35" d="M 691 4666 
L 3169 4666 
L 3169 4134 
L 1269 4134 
L 1269 2991 
Q 1406 3038 1543 3061 
Q 1681 3084 1819 3084 
Q 2600 3084 3056 2656 
Q 3513 2228 3513 1497 
Q 3513 744 3044 326 
Q 2575 -91 1722 -91 
Q 1428 -91 1123 -41 
Q 819 9 494 109 
L 494 744 
Q 775 591 1075 516 
Q 1375 441 1709 441 
Q 2250 441 2565 725 
Q 2881 1009 2881 1497 
Q 2881 1984 2565 2268 
Q 2250 2553 1709 2553 
Q 1456 2553 1204 2497 
Q 953 2441 691 2322 
L 691 4666 
z
" transform="scale(0.015625)"/>
       </defs>
       <use xlink:href="#DejaVuSans-35"/>
       <use xlink:href="#DejaVuSans-30" x="63.623047"/>
       <use xlink:href="#DejaVuSans-30" x="127.246094"/>
      </g>
     </g>
    </g>
    <g id="text_10">
     <!-- Time (ms) -->
     <g style="fill: #ffffff" transform="translate(75.832812 316.079219) rotate(-90) scale(0.1 -0.1)">
      <defs>
       <path id="DejaVuSans-54" d="M -19 4666 
L 3928 4666 
L 3928 4134 
L 2272 4134 
L 2272 0 
L 1638 0 
L 1638 4134 
L -19 4134 
L -19 4666 
z
" transform="scale(0.015625)"/>
       <path id="DejaVuSans-20" transform="scale(0.015625)"/>
       <path id="DejaVuSans-28" d="M 1984 4856 
Q 1566 4138 1362 3434 
Q 1159 2731 1159 2009 
Q 1159 1288 1364 580 
Q 1569 -128 1984 -844 
L 1484 -844 
Q 1016 -109 783 600 
Q 550 1309 550 2009 
Q 550 2706 781 3412 
Q 1013 4119 1484 4856 
L 1984 4856 
z
" transform="scale(0.015625)"/>
       <path id="DejaVuSans-29" d="M 513 4856 
L 1013 4856 
Q 1481 4119 1714 3412 
Q 1947 2706 1947 2009 
Q 1947 1309 1714 600 
Q 1481 -109 1013 -844 
L 513 -844 
Q 928 -128 1133 580 
Q 1338 1288 1338 2009 
Q 1338 2731 1133 3434 
Q 928 4138 513 4856 
z
" transform="scale(0.015625)"/>
      </defs>
      <use xlink:href="#DejaVuSans-54"/>
      <use xlink:href="#DejaVuSans-69" x="57.958984"/>
      <use xlink:href="#DejaVuSans-6d" x="85.742188"/>
      <use xlink:href="#DejaVuSans-65" x="183.154297"/>
      <use xlink:href="#DejaVuSans-20" x="244.677734"/>
      <use xlink:href="#DejaVuSans-28" x="276.464844"/>
      <use xlink:href="#DejaVuSans-6d" x="315.478516"/>
      <use xlink:href="#DejaVuSans-73" x="412.890625"/>
      <use xlink:href="#DejaVuSans-29" x="464.990234"/>
     </g>
    </g>
   </g>
   <g id="patch_5">
    <path d="M 130.32 462.143186 
L 219.6 462.143186 
L 219.6 406.705033 
L 130.32 406.705033 
L 130.32 462.143186 
z
" clip-path="url(#p81764206b4)" style="fill: #96cac1; stroke: #6a6a6a; stroke-linejoin: miter"/>
   </g>
   <g id="line2d_17">
    <path d="M 174.96 462.143186 
L 174.96 488.036145 
" clip-path="url(#p81764206b4)" style="fill: none; stroke: #6a6a6a"/>
   </g>
   <g id="line2d_18">
    <path d="M 174.96 406.705033 
L 174.96 331.537656 
" clip-path="url(#p81764206b4)" style="fill: none; stroke: #6a6a6a"/>
   </g>
   <g id="line2d_19">
    <path d="M 152.64 488.036145 
L 197.28 488.036145 
" clip-path="url(#p81764206b4)" style="fill: none; stroke: #6a6a6a; stroke-linecap: square"/>
   </g>
   <g id="line2d_20">
    <path d="M 152.64 331.537656 
L 197.28 331.537656 
" clip-path="url(#p81764206b4)" style="fill: none; stroke: #6a6a6a; stroke-linecap: square"/>
   </g>
   <g id="line2d_21">
    <defs>
     <path id="m900c5214ab" d="M 0 3 
C 0.795609 3 1.55874 2.683901 2.12132 2.12132 
C 2.683901 1.55874 3 0.795609 3 0 
C 3 -0.795609 2.683901 -1.55874 2.12132 -2.12132 
C 1.55874 -2.683901 0.795609 -3 0 -3 
C -0.795609 -3 -1.55874 -2.683901 -2.12132 -2.12132 
C -2.683901 -1.55874 -3 -0.795609 -3 0 
C -3 0.795609 -2.683901 1.55874 -2.12132 2.12132 
C -1.55874 2.683901 -0.795609 3 0 3 
z
" style="stroke: #6a6a6a"/>
    </defs>
    <g clip-path="url(#p81764206b4)">
     <use xlink:href="#m900c5214ab" x="174.96" y="322.774164" style="fill-opacity: 0; stroke: #6a6a6a"/>
     <use xlink:href="#m900c5214ab" x="174.96" y="113.056697" style="fill-opacity: 0; stroke: #6a6a6a"/>
     <use xlink:href="#m900c5214ab" x="174.96" y="112.205953" style="fill-opacity: 0; stroke: #6a6a6a"/>
     <use xlink:href="#m900c5214ab" x="174.96" y="109.761512" style="fill-opacity: 0; stroke: #6a6a6a"/>
     <use xlink:href="#m900c5214ab" x="174.96" y="110.725501" style="fill-opacity: 0; stroke: #6a6a6a"/>
     <use xlink:href="#m900c5214ab" x="174.96" y="109.494843" style="fill-opacity: 0; stroke: #6a6a6a"/>
     <use xlink:href="#m900c5214ab" x="174.96" y="110.969715" style="fill-opacity: 0; stroke: #6a6a6a"/>
     <use xlink:href="#m900c5214ab" x="174.96" y="106.953743" style="fill-opacity: 0; stroke: #6a6a6a"/>
     <use xlink:href="#m900c5214ab" x="174.96" y="109.532232" style="fill-opacity: 0; stroke: #6a6a6a"/>
     <use xlink:href="#m900c5214ab" x="174.96" y="109.978519" style="fill-opacity: 0; stroke: #6a6a6a"/>
     <use xlink:href="#m900c5214ab" x="174.96" y="112.060965" style="fill-opacity: 0; stroke: #6a6a6a"/>
     <use xlink:href="#m900c5214ab" x="174.96" y="100.589259" style="fill-opacity: 0; stroke: #6a6a6a"/>
     <use xlink:href="#m900c5214ab" x="174.96" y="91.427566" style="fill-opacity: 0; stroke: #6a6a6a"/>
     <use xlink:href="#m900c5214ab" x="174.96" y="94.941471" style="fill-opacity: 0; stroke: #6a6a6a"/>
     <use xlink:href="#m900c5214ab" x="174.96" y="106.497437" style="fill-opacity: 0; stroke: #6a6a6a"/>
     <use xlink:href="#m900c5214ab" x="174.96" y="107.194471" style="fill-opacity: 0; stroke: #6a6a6a"/>
     <use xlink:href="#m900c5214ab" x="174.96" y="113.330088" style="fill-opacity: 0; stroke: #6a6a6a"/>
     <use xlink:href="#m900c5214ab" x="174.96" y="109.29493" style="fill-opacity: 0; stroke: #6a6a6a"/>
     <use xlink:href="#m900c5214ab" x="174.96" y="110.782487" style="fill-opacity: 0; stroke: #6a6a6a"/>
     <use xlink:href="#m900c5214ab" x="174.96" y="112.345772" style="fill-opacity: 0; stroke: #6a6a6a"/>
     <use xlink:href="#m900c5214ab" x="174.96" y="114.282438" style="fill-opacity: 0; stroke: #6a6a6a"/>
     <use xlink:href="#m900c5214ab" x="174.96" y="113.112416" style="fill-opacity: 0; stroke: #6a6a6a"/>
     <use xlink:href="#m900c5214ab" x="174.96" y="110.182999" style="fill-opacity: 0; stroke: #6a6a6a"/>
     <use xlink:href="#m900c5214ab" x="174.96" y="108.164548" style="fill-opacity: 0; stroke: #6a6a6a"/>
     <use xlink:href="#m900c5214ab" x="174.96" y="114.630321" style="fill-opacity: 0; stroke: #6a6a6a"/>
     <use xlink:href="#m900c5214ab" x="174.96" y="107.584753" style="fill-opacity: 0; stroke: #6a6a6a"/>
     <use xlink:href="#m900c5214ab" x="174.96" y="112.580411" style="fill-opacity: 0; stroke: #6a6a6a"/>
     <use xlink:href="#m900c5214ab" x="174.96" y="109.054234" style="fill-opacity: 0; stroke: #6a6a6a"/>
     <use xlink:href="#m900c5214ab" x="174.96" y="114.071393" style="fill-opacity: 0; stroke: #6a6a6a"/>
     <use xlink:href="#m900c5214ab" x="174.96" y="107.232177" style="fill-opacity: 0; stroke: #6a6a6a"/>
     <use xlink:href="#m900c5214ab" x="174.96" y="111.466868" style="fill-opacity: 0; stroke: #6a6a6a"/>
    </g>
   </g>
   <g id="patch_6">
    <path d="M 353.52 482.826387 
L 442.8 482.826387 
L 442.8 465.520698 
L 353.52 465.520698 
L 353.52 482.826387 
z
" clip-path="url(#p81764206b4)" style="fill: #96cac1; stroke: #6a6a6a; stroke-linejoin: miter"/>
   </g>
   <g id="line2d_22">
    <path d="M 398.16 482.826387 
L 398.16 492.48 
" clip-path="url(#p81764206b4)" style="fill: none; stroke: #6a6a6a"/>
   </g>
   <g id="line2d_23">
    <path d="M 398.16 465.520698 
L 398.16 451.164251 
" clip-path="url(#p81764206b4)" style="fill: none; stroke: #6a6a6a"/>
   </g>
   <g id="line2d_24">
    <path d="M 375.84 492.48 
L 420.48 492.48 
" clip-path="url(#p81764206b4)" style="fill: none; stroke: #6a6a6a; stroke-linecap: square"/>
   </g>
   <g id="line2d_25">
    <path d="M 375.84 451.164251 
L 420.48 451.164251 
" clip-path="url(#p81764206b4)" style="fill: none; stroke: #6a6a6a; stroke-linecap: square"/>
   </g>
   <g id="line2d_26">
    <g clip-path="url(#p81764206b4)">
     <use xlink:href="#m900c5214ab" x="398.16" y="110.965981" style="fill-opacity: 0; stroke: #6a6a6a"/>
     <use xlink:href="#m900c5214ab" x="398.16" y="108.526195" style="fill-opacity: 0; stroke: #6a6a6a"/>
     <use xlink:href="#m900c5214ab" x="398.16" y="107.418836" style="fill-opacity: 0; stroke: #6a6a6a"/>
     <use xlink:href="#m900c5214ab" x="398.16" y="108.637064" style="fill-opacity: 0; stroke: #6a6a6a"/>
     <use xlink:href="#m900c5214ab" x="398.16" y="89.28" style="fill-opacity: 0; stroke: #6a6a6a"/>
     <use xlink:href="#m900c5214ab" x="398.16" y="109.038139" style="fill-opacity: 0; stroke: #6a6a6a"/>
     <use xlink:href="#m900c5214ab" x="398.16" y="106.10144" style="fill-opacity: 0; stroke: #6a6a6a"/>
     <use xlink:href="#m900c5214ab" x="398.16" y="108.467177" style="fill-opacity: 0; stroke: #6a6a6a"/>
     <use xlink:href="#m900c5214ab" x="398.16" y="108.208714" style="fill-opacity: 0; stroke: #6a6a6a"/>
     <use xlink:href="#m900c5214ab" x="398.16" y="107.573183" style="fill-opacity: 0; stroke: #6a6a6a"/>
     <use xlink:href="#m900c5214ab" x="398.16" y="106.41134" style="fill-opacity: 0; stroke: #6a6a6a"/>
     <use xlink:href="#m900c5214ab" x="398.16" y="107.972102" style="fill-opacity: 0; stroke: #6a6a6a"/>
     <use xlink:href="#m900c5214ab" x="398.16" y="108.886837" style="fill-opacity: 0; stroke: #6a6a6a"/>
     <use xlink:href="#m900c5214ab" x="398.16" y="110.008657" style="fill-opacity: 0; stroke: #6a6a6a"/>
     <use xlink:href="#m900c5214ab" x="398.16" y="104.708631" style="fill-opacity: 0; stroke: #6a6a6a"/>
     <use xlink:href="#m900c5214ab" x="398.16" y="101.354745" style="fill-opacity: 0; stroke: #6a6a6a"/>
     <use xlink:href="#m900c5214ab" x="398.16" y="110.71142" style="fill-opacity: 0; stroke: #6a6a6a"/>
     <use xlink:href="#m900c5214ab" x="398.16" y="108.314572" style="fill-opacity: 0; stroke: #6a6a6a"/>
     <use xlink:href="#m900c5214ab" x="398.16" y="104.942579" style="fill-opacity: 0; stroke: #6a6a6a"/>
     <use xlink:href="#m900c5214ab" x="398.16" y="106.393138" style="fill-opacity: 0; stroke: #6a6a6a"/>
     <use xlink:href="#m900c5214ab" x="398.16" y="107.302575" style="fill-opacity: 0; stroke: #6a6a6a"/>
     <use xlink:href="#m900c5214ab" x="398.16" y="106.591852" style="fill-opacity: 0; stroke: #6a6a6a"/>
     <use xlink:href="#m900c5214ab" x="398.16" y="98.352431" style="fill-opacity: 0; stroke: #6a6a6a"/>
     <use xlink:href="#m900c5214ab" x="398.16" y="105.707658" style="fill-opacity: 0; stroke: #6a6a6a"/>
     <use xlink:href="#m900c5214ab" x="398.16" y="107.139284" style="fill-opacity: 0; stroke: #6a6a6a"/>
     <use xlink:href="#m900c5214ab" x="398.16" y="105.582201" style="fill-opacity: 0; stroke: #6a6a6a"/>
     <use xlink:href="#m900c5214ab" x="398.16" y="108.852237" style="fill-opacity: 0; stroke: #6a6a6a"/>
     <use xlink:href="#m900c5214ab" x="398.16" y="106.199972" style="fill-opacity: 0; stroke: #6a6a6a"/>
     <use xlink:href="#m900c5214ab" x="398.16" y="101.405962" style="fill-opacity: 0; stroke: #6a6a6a"/>
     <use xlink:href="#m900c5214ab" x="398.16" y="106.211928" style="fill-opacity: 0; stroke: #6a6a6a"/>
    </g>
   </g>
   <g id="patch_7">
    <path d="M 576.72 475.496235 
L 666 475.496235 
L 666 425.096697 
L 576.72 425.096697 
L 576.72 475.496235 
z
" clip-path="url(#p81764206b4)" style="fill: #96cac1; stroke: #6a6a6a; stroke-linejoin: miter"/>
   </g>
   <g id="line2d_27">
    <path d="M 621.36 475.496235 
L 621.36 490.538809 
" clip-path="url(#p81764206b4)" style="fill: none; stroke: #6a6a6a"/>
   </g>
   <g id="line2d_28">
    <path d="M 621.36 425.096697 
L 621.36 385.854067 
" clip-path="url(#p81764206b4)" style="fill: none; stroke: #6a6a6a"/>
   </g>
   <g id="line2d_29">
    <path d="M 599.04 490.538809 
L 643.68 490.538809 
" clip-path="url(#p81764206b4)" style="fill: none; stroke: #6a6a6a; stroke-linecap: square"/>
   </g>
   <g id="line2d_30">
    <path d="M 599.04 385.854067 
L 643.68 385.854067 
" clip-path="url(#p81764206b4)" style="fill: none; stroke: #6a6a6a; stroke-linecap: square"/>
   </g>
   <g id="line2d_31">
    <g clip-path="url(#p81764206b4)">
     <use xlink:href="#m900c5214ab" x="621.36" y="121.111044" style="fill-opacity: 0; stroke: #6a6a6a"/>
     <use xlink:href="#m900c5214ab" x="621.36" y="111.115368" style="fill-opacity: 0; stroke: #6a6a6a"/>
     <use xlink:href="#m900c5214ab" x="621.36" y="110.962606" style="fill-opacity: 0; stroke: #6a6a6a"/>
     <use xlink:href="#m900c5214ab" x="621.36" y="109.199111" style="fill-opacity: 0; stroke: #6a6a6a"/>
     <use xlink:href="#m900c5214ab" x="621.36" y="112.49003" style="fill-opacity: 0; stroke: #6a6a6a"/>
     <use xlink:href="#m900c5214ab" x="621.36" y="112.494755" style="fill-opacity: 0; stroke: #6a6a6a"/>
     <use xlink:href="#m900c5214ab" x="621.36" y="113.744437" style="fill-opacity: 0; stroke: #6a6a6a"/>
     <use xlink:href="#m900c5214ab" x="621.36" y="112.493455" style="fill-opacity: 0; stroke: #6a6a6a"/>
     <use xlink:href="#m900c5214ab" x="621.36" y="110.182753" style="fill-opacity: 0; stroke: #6a6a6a"/>
     <use xlink:href="#m900c5214ab" x="621.36" y="101.517722" style="fill-opacity: 0; stroke: #6a6a6a"/>
     <use xlink:href="#m900c5214ab" x="621.36" y="107.398512" style="fill-opacity: 0; stroke: #6a6a6a"/>
     <use xlink:href="#m900c5214ab" x="621.36" y="113.316375" style="fill-opacity: 0; stroke: #6a6a6a"/>
     <use xlink:href="#m900c5214ab" x="621.36" y="106.756039" style="fill-opacity: 0; stroke: #6a6a6a"/>
     <use xlink:href="#m900c5214ab" x="621.36" y="109.952866" style="fill-opacity: 0; stroke: #6a6a6a"/>
     <use xlink:href="#m900c5214ab" x="621.36" y="102.919309" style="fill-opacity: 0; stroke: #6a6a6a"/>
     <use xlink:href="#m900c5214ab" x="621.36" y="112.729907" style="fill-opacity: 0; stroke: #6a6a6a"/>
     <use xlink:href="#m900c5214ab" x="621.36" y="110.578341" style="fill-opacity: 0; stroke: #6a6a6a"/>
     <use xlink:href="#m900c5214ab" x="621.36" y="115.301227" style="fill-opacity: 0; stroke: #6a6a6a"/>
     <use xlink:href="#m900c5214ab" x="621.36" y="105.826975" style="fill-opacity: 0; stroke: #6a6a6a"/>
     <use xlink:href="#m900c5214ab" x="621.36" y="114.899075" style="fill-opacity: 0; stroke: #6a6a6a"/>
     <use xlink:href="#m900c5214ab" x="621.36" y="113.346819" style="fill-opacity: 0; stroke: #6a6a6a"/>
     <use xlink:href="#m900c5214ab" x="621.36" y="113.383829" style="fill-opacity: 0; stroke: #6a6a6a"/>
     <use xlink:href="#m900c5214ab" x="621.36" y="108.584927" style="fill-opacity: 0; stroke: #6a6a6a"/>
     <use xlink:href="#m900c5214ab" x="621.36" y="109.41644" style="fill-opacity: 0; stroke: #6a6a6a"/>
     <use xlink:href="#m900c5214ab" x="621.36" y="107.626306" style="fill-opacity: 0; stroke: #6a6a6a"/>
     <use xlink:href="#m900c5214ab" x="621.36" y="109.336175" style="fill-opacity: 0; stroke: #6a6a6a"/>
     <use xlink:href="#m900c5214ab" x="621.36" y="111.733771" style="fill-opacity: 0; stroke: #6a6a6a"/>
     <use xlink:href="#m900c5214ab" x="621.36" y="111.659816" style="fill-opacity: 0; stroke: #6a6a6a"/>
     <use xlink:href="#m900c5214ab" x="621.36" y="106.7418" style="fill-opacity: 0; stroke: #6a6a6a"/>
     <use xlink:href="#m900c5214ab" x="621.36" y="109.628791" style="fill-opacity: 0; stroke: #6a6a6a"/>
    </g>
   </g>
   <g id="patch_8">
    <path d="M 219.6 437.758014 
L 308.88 437.758014 
L 308.88 369.863296 
L 219.6 369.863296 
L 219.6 437.758014 
z
" clip-path="url(#p81764206b4)" style="fill: #f5f6bc; stroke: #6a6a6a; stroke-linejoin: miter"/>
   </g>
   <g id="line2d_32">
    <path d="M 264.24 437.758014 
L 264.24 471.617143 
" clip-path="url(#p81764206b4)" style="fill: none; stroke: #6a6a6a"/>
   </g>
   <g id="line2d_33">
    <path d="M 264.24 369.863296 
L 264.24 302.084428 
" clip-path="url(#p81764206b4)" style="fill: none; stroke: #6a6a6a"/>
   </g>
   <g id="line2d_34">
    <path d="M 241.92 471.617143 
L 286.56 471.617143 
" clip-path="url(#p81764206b4)" style="fill: none; stroke: #6a6a6a; stroke-linecap: square"/>
   </g>
   <g id="line2d_35">
    <path d="M 241.92 302.084428 
L 286.56 302.084428 
" clip-path="url(#p81764206b4)" style="fill: none; stroke: #6a6a6a; stroke-linecap: square"/>
   </g>
   <g id="line2d_36">
    <g clip-path="url(#p81764206b4)">
     <use xlink:href="#m900c5214ab" x="264.24" y="266.215404" style="fill-opacity: 0; stroke: #6a6a6a"/>
     <use xlink:href="#m900c5214ab" x="264.24" y="254.151059" style="fill-opacity: 0; stroke: #6a6a6a"/>
    </g>
   </g>
   <g id="patch_9">
    <path d="M 442.8 435.325407 
L 532.08 435.325407 
L 532.08 417.183273 
L 442.8 417.183273 
L 442.8 435.325407 
z
" clip-path="url(#p81764206b4)" style="fill: #f5f6bc; stroke: #6a6a6a; stroke-linejoin: miter"/>
   </g>
   <g id="line2d_37">
    <path d="M 487.44 435.325407 
L 487.44 447.942835 
" clip-path="url(#p81764206b4)" style="fill: none; stroke: #6a6a6a"/>
   </g>
   <g id="line2d_38">
    <path d="M 487.44 417.183273 
L 487.44 391.270012 
" clip-path="url(#p81764206b4)" style="fill: none; stroke: #6a6a6a"/>
   </g>
   <g id="line2d_39">
    <path d="M 465.12 447.942835 
L 509.76 447.942835 
" clip-path="url(#p81764206b4)" style="fill: none; stroke: #6a6a6a; stroke-linecap: square"/>
   </g>
   <g id="line2d_40">
    <path d="M 465.12 391.270012 
L 509.76 391.270012 
" clip-path="url(#p81764206b4)" style="fill: none; stroke: #6a6a6a; stroke-linecap: square"/>
   </g>
   <g id="line2d_41">
    <g clip-path="url(#p81764206b4)">
     <use xlink:href="#m900c5214ab" x="487.44" y="383.910443" style="fill-opacity: 0; stroke: #6a6a6a"/>
    </g>
   </g>
   <g id="patch_10">
    <path d="M 666 455.499643 
L 755.28 455.499643 
L 755.28 403.35672 
L 666 403.35672 
L 666 455.499643 
z
" clip-path="url(#p81764206b4)" style="fill: #f5f6bc; stroke: #6a6a6a; stroke-linejoin: miter"/>
   </g>
   <g id="line2d_42">
    <path d="M 710.64 455.499643 
L 710.64 490.867863 
" clip-path="url(#p81764206b4)" style="fill: none; stroke: #6a6a6a"/>
   </g>
   <g id="line2d_43">
    <path d="M 710.64 403.35672 
L 710.64 336.840372 
" clip-path="url(#p81764206b4)" style="fill: none; stroke: #6a6a6a"/>
   </g>
   <g id="line2d_44">
    <path d="M 688.32 490.867863 
L 732.96 490.867863 
" clip-path="url(#p81764206b4)" style="fill: none; stroke: #6a6a6a; stroke-linecap: square"/>
   </g>
   <g id="line2d_45">
    <path d="M 688.32 336.840372 
L 732.96 336.840372 
" clip-path="url(#p81764206b4)" style="fill: none; stroke: #6a6a6a; stroke-linecap: square"/>
   </g>
   <g id="line2d_46"/>
   <g id="line2d_47">
    <path d="M 130.32 440.661438 
L 219.6 440.661438 
" clip-path="url(#p81764206b4)" style="fill: none; stroke: #6a6a6a"/>
   </g>
   <g id="line2d_48">
    <path d="M 353.52 474.766168 
L 442.8 474.766168 
" clip-path="url(#p81764206b4)" style="fill: none; stroke: #6a6a6a"/>
   </g>
   <g id="line2d_49">
    <path d="M 576.72 450.462632 
L 666 450.462632 
" clip-path="url(#p81764206b4)" style="fill: none; stroke: #6a6a6a"/>
   </g>
   <g id="line2d_50">
    <path d="M 219.6 416.031054 
L 308.88 416.031054 
" clip-path="url(#p81764206b4)" style="fill: none; stroke: #6a6a6a"/>
   </g>
   <g id="line2d_51">
    <path d="M 442.8 427.491683 
L 532.08 427.491683 
" clip-path="url(#p81764206b4)" style="fill: none; stroke: #6a6a6a"/>
   </g>
   <g id="line2d_52">
    <path d="M 666 426.065365 
L 755.28 426.065365 
" clip-path="url(#p81764206b4)" style="fill: none; stroke: #6a6a6a"/>
   </g>
   <g id="patch_11">
    <path d="M 108 512.64 
L 108 69.12 
" style="fill: none; stroke: #ffffff; stroke-width: 0.8; stroke-linejoin: miter; stroke-linecap: square"/>
   </g>
   <g id="patch_12">
    <path d="M 777.6 512.64 
L 777.6 69.12 
" style="fill: none; stroke: #ffffff; stroke-width: 0.8; stroke-linejoin: miter; stroke-linecap: square"/>
   </g>
   <g id="patch_13">
    <path d="M 108 512.64 
L 777.6 512.64 
" style="fill: none; stroke: #ffffff; stroke-width: 0.8; stroke-linejoin: miter; stroke-linecap: square"/>
   </g>
   <g id="patch_14">
    <path d="M 108 69.12 
L 777.6 69.12 
" style="fill: none; stroke: #ffffff; stroke-width: 0.8; stroke-linejoin: miter; stroke-linecap: square"/>
   </g>
   <g id="text_11">
    <!-- Distribution of Execution Time across Implementations and Operations -->
    <g style="fill: #ffffff" transform="translate(230.271563 63.12) scale(0.12 -0.12)">
     <defs>
      <path id="DejaVuSans-44" d="M 1259 4147 
L 1259 519 
L 2022 519 
Q 2988 519 3436 956 
Q 3884 1394 3884 2338 
Q 3884 3275 3436 3711 
Q 2988 4147 2022 4147 
L 1259 4147 
z
M 628 4666 
L 1925 4666 
Q 3281 4666 3915 4102 
Q 4550 3538 4550 2338 
Q 4550 1131 3912 565 
Q 3275 0 1925 0 
L 628 0 
L 628 4666 
z
" transform="scale(0.015625)"/>
      <path id="DejaVuSans-62" d="M 3116 1747 
Q 3116 2381 2855 2742 
Q 2594 3103 2138 3103 
Q 1681 3103 1420 2742 
Q 1159 2381 1159 1747 
Q 1159 1113 1420 752 
Q 1681 391 2138 391 
Q 2594 391 2855 752 
Q 3116 1113 3116 1747 
z
M 1159 2969 
Q 1341 3281 1617 3432 
Q 1894 3584 2278 3584 
Q 2916 3584 3314 3078 
Q 3713 2572 3713 1747 
Q 3713 922 3314 415 
Q 2916 -91 2278 -91 
Q 1894 -91 1617 61 
Q 1341 213 1159 525 
L 1159 0 
L 581 0 
L 581 4863 
L 1159 4863 
L 1159 2969 
z
" transform="scale(0.015625)"/>
      <path id="DejaVuSans-66" d="M 2375 4863 
L 2375 4384 
L 1825 4384 
Q 1516 4384 1395 4259 
Q 1275 4134 1275 3809 
L 1275 3500 
L 2222 3500 
L 2222 3053 
L 1275 3053 
L 1275 0 
L 697 0 
L 697 3053 
L 147 3053 
L 147 3500 
L 697 3500 
L 697 3744 
Q 697 4328 969 4595 
Q 1241 4863 1831 4863 
L 2375 4863 
z
" transform="scale(0.015625)"/>
      <path id="DejaVuSans-45" d="M 628 4666 
L 3578 4666 
L 3578 4134 
L 1259 4134 
L 1259 2753 
L 3481 2753 
L 3481 2222 
L 1259 2222 
L 1259 531 
L 3634 531 
L 3634 0 
L 628 0 
L 628 4666 
z
" transform="scale(0.015625)"/>
      <path id="DejaVuSans-49" d="M 628 4666 
L 1259 4666 
L 1259 0 
L 628 0 
L 628 4666 
z
" transform="scale(0.015625)"/>
      <path id="DejaVuSans-4f" d="M 2522 4238 
Q 1834 4238 1429 3725 
Q 1025 3213 1025 2328 
Q 1025 1447 1429 934 
Q 1834 422 2522 422 
Q 3209 422 3611 934 
Q 4013 1447 4013 2328 
Q 4013 3213 3611 3725 
Q 3209 4238 2522 4238 
z
M 2522 4750 
Q 3503 4750 4090 4092 
Q 4678 3434 4678 2328 
Q 4678 1225 4090 567 
Q 3503 -91 2522 -91 
Q 1538 -91 948 565 
Q 359 1222 359 2328 
Q 359 3434 948 4092 
Q 1538 4750 2522 4750 
z
" transform="scale(0.015625)"/>
     </defs>
     <use xlink:href="#DejaVuSans-44"/>
     <use xlink:href="#DejaVuSans-69" x="77.001953"/>
     <use xlink:href="#DejaVuSans-73" x="104.785156"/>
     <use xlink:href="#DejaVuSans-74" x="156.884766"/>
     <use xlink:href="#DejaVuSans-72" x="196.09375"/>
     <use xlink:href="#DejaVuSans-69" x="237.207031"/>
     <use xlink:href="#DejaVuSans-62" x="264.990234"/>
     <use xlink:href="#DejaVuSans-75" x="328.466797"/>
     <use xlink:href="#DejaVuSans-74" x="391.845703"/>
     <use xlink:href="#DejaVuSans-69" x="431.054688"/>
     <use xlink:href="#DejaVuSans-6f" x="458.837891"/>
     <use xlink:href="#DejaVuSans-6e" x="520.019531"/>
     <use xlink:href="#DejaVuSans-20" x="583.398438"/>
     <use xlink:href="#DejaVuSans-6f" x="615.185547"/>
     <use xlink:href="#DejaVuSans-66" x="676.367188"/>
     <use xlink:href="#DejaVuSans-20" x="711.572266"/>
     <use xlink:href="#DejaVuSans-45" x="743.359375"/>
     <use xlink:href="#DejaVuSans-78" x="806.542969"/>
     <use xlink:href="#DejaVuSans-65" x="862.597656"/>
     <use xlink:href="#DejaVuSans-63" x="924.121094"/>
     <use xlink:href="#DejaVuSans-75" x="979.101562"/>
     <use xlink:href="#DejaVuSans-74" x="1042.480469"/>
     <use xlink:href="#DejaVuSans-69" x="1081.689453"/>
     <use xlink:href="#DejaVuSans-6f" x="1109.472656"/>
     <use xlink:href="#DejaVuSans-6e" x="1170.654297"/>
     <use xlink:href="#DejaVuSans-20" x="1234.033203"/>
     <use xlink:href="#DejaVuSans-54" x="1265.820312"/>
     <use xlink:href="#DejaVuSans-69" x="1323.779297"/>
     <use xlink:href="#DejaVuSans-6d" x="1351.5625"/>
     <use xlink:href="#DejaVuSans-65" x="1448.974609"/>
     <use xlink:href="#DejaVuSans-20" x="1510.498047"/>
     <use xlink:href="#DejaVuSans-61" x="1542.285156"/>
     <use xlink:href="#DejaVuSans-63" x="1603.564453"/>
     <use xlink:href="#DejaVuSans-72" x="1658.544922"/>
     <use xlink:href="#DejaVuSans-6f" x="1697.408203"/>
     <use xlink:href="#DejaVuSans-73" x="1758.589844"/>
     <use xlink:href="#DejaVuSans-73" x="1810.689453"/>
     <use xlink:href="#DejaVuSans-20" x="1862.789062"/>
     <use xlink:href="#DejaVuSans-49" x="1894.576172"/>
     <use xlink:href="#DejaVuSans-6d" x="1924.068359"/>
     <use xlink:href="#DejaVuSans-70" x="2021.480469"/>
     <use xlink:href="#DejaVuSans-6c" x="2084.957031"/>
     <use xlink:href="#DejaVuSans-65" x="2112.740234"/>
     <use xlink:href="#DejaVuSans-6d" x="2174.263672"/>
     <use xlink:href="#DejaVuSans-65" x="2271.675781"/>
     <use xlink:href="#DejaVuSans-6e" x="2333.199219"/>
     <use xlink:href="#DejaVuSans-74" x="2396.578125"/>
     <use xlink:href="#DejaVuSans-61" x="2435.787109"/>
     <use xlink:href="#DejaVuSans-74" x="2497.066406"/>
     <use xlink:href="#DejaVuSans-69" x="2536.275391"/>
     <use xlink:href="#DejaVuSans-6f" x="2564.058594"/>
     <use xlink:href="#DejaVuSans-6e" x="2625.240234"/>
     <use xlink:href="#DejaVuSans-73" x="2688.619141"/>
     <use xlink:href="#DejaVuSans-20" x="2740.71875"/>
     <use xlink:href="#DejaVuSans-61" x="2772.505859"/>
     <use xlink:href="#DejaVuSans-6e" x="2833.785156"/>
     <use xlink:href="#DejaVuSans-64" x="2897.164062"/>
     <use xlink:href="#DejaVuSans-20" x="2960.640625"/>
     <use xlink:href="#DejaVuSans-4f" x="2992.427734"/>
     <use xlink:href="#DejaVuSans-70" x="3071.138672"/>
     <use xlink:href="#DejaVuSans-65" x="3134.615234"/>
     <use xlink:href="#DejaVuSans-72" x="3196.138672"/>
     <use xlink:href="#DejaVuSans-61" x="3237.251953"/>
     <use xlink:href="#DejaVuSans-74" x="3298.53125"/>
     <use xlink:href="#DejaVuSans-69" x="3337.740234"/>
     <use xlink:href="#DejaVuSans-6f" x="3365.523438"/>
     <use xlink:href="#DejaVuSans-6e" x="3426.705078"/>
     <use xlink:href="#DejaVuSans-73" x="3490.083984"/>
    </g>
   </g>
   <g id="legend_1">
    <g id="patch_15">
     <path d="M 713.459375 121.154375 
L 770.6 121.154375 
Q 772.6 121.154375 772.6 119.154375 
L 772.6 76.12 
Q 772.6 74.12 770.6 74.12 
L 713.459375 74.12 
Q 711.459375 74.12 711.459375 76.12 
L 711.459375 119.154375 
Q 711.459375 121.154375 713.459375 121.154375 
z
" style="opacity: 0.8; stroke: #cccccc; stroke-linejoin: miter"/>
    </g>
    <g id="text_12">
     <!-- operation -->
     <g style="fill: #ffffff" transform="translate(718.022656 85.718438) scale(0.1 -0.1)">
      <use xlink:href="#DejaVuSans-6f"/>
      <use xlink:href="#DejaVuSans-70" x="61.181641"/>
      <use xlink:href="#DejaVuSans-65" x="124.658203"/>
      <use xlink:href="#DejaVuSans-72" x="186.181641"/>
      <use xlink:href="#DejaVuSans-61" x="227.294922"/>
      <use xlink:href="#DejaVuSans-74" x="288.574219"/>
      <use xlink:href="#DejaVuSans-69" x="327.783203"/>
      <use xlink:href="#DejaVuSans-6f" x="355.566406"/>
      <use xlink:href="#DejaVuSans-6e" x="416.748047"/>
     </g>
    </g>
    <g id="patch_16">
     <path d="M 715.459375 100.396563 
L 735.459375 100.396563 
L 735.459375 93.396563 
L 715.459375 93.396563 
z
" style="fill: #96cac1; stroke: #6a6a6a; stroke-linejoin: miter"/>
    </g>
    <g id="text_13">
     <!-- write -->
     <g style="fill: #ffffff" transform="translate(743.459375 100.396563) scale(0.1 -0.1)">
      <defs>
       <path id="DejaVuSans-77" d="M 269 3500 
L 844 3500 
L 1563 769 
L 2278 3500 
L 2956 3500 
L 3675 769 
L 4391 3500 
L 4966 3500 
L 4050 0 
L 3372 0 
L 2619 2869 
L 1863 0 
L 1184 0 
L 269 3500 
z
" transform="scale(0.015625)"/>
      </defs>
      <use xlink:href="#DejaVuSans-77"/>
      <use xlink:href="#DejaVuSans-72" x="81.787109"/>
      <use xlink:href="#DejaVuSans-69" x="122.900391"/>
      <use xlink:href="#DejaVuSans-74" x="150.683594"/>
      <use xlink:href="#DejaVuSans-65" x="189.892578"/>
     </g>
    </g>
    <g id="patch_17">
     <path d="M 715.459375 115.074688 
L 735.459375 115.074688 
L 735.459375 108.074688 
L 715.459375 108.074688 
z
" style="fill: #f5f6bc; stroke: #6a6a6a; stroke-linejoin: miter"/>
    </g>
    <g id="text_14">
     <!-- read -->
     <g style="fill: #ffffff" transform="translate(743.459375 115.074688) scale(0.1 -0.1)">
      <use xlink:href="#DejaVuSans-72"/>
      <use xlink:href="#DejaVuSans-65" x="38.863281"/>
      <use xlink:href="#DejaVuSans-61" x="100.386719"/>
      <use xlink:href="#DejaVuSans-64" x="161.666016"/>
     </g>
    </g>
   </g>
  </g>
 </g>
 <defs>
  <clipPath id="p81764206b4">
   <rect x="108" y="69.12" width="669.6" height="443.52"/>
  </clipPath>
 </defs>
</svg>
